<svg xmlns="http://www.w3.org/2000/svg" xmlns:xlink="http://www.w3.org/1999/xlink" width="550" height="310" viewBox="0 0 550 310">
  <defs>
    <radialGradient id="radial-gradient" cx="0.5" cy="0.5" r="1.176" gradientTransform="translate(0.167 0.109) scale(0.667 0.783)" gradientUnits="objectBoundingBox">
      <stop offset="0" stop-color="#fff"/>
      <stop offset="0.279" stop-color="#fff"/>
      <stop offset="0.437" stop-color="#fffcfd"/>
      <stop offset="0.612" stop-color="#f7edee"/>
      <stop offset="0.795" stop-color="#f2e4e4"/>
      <stop offset="0.982" stop-color="#f2d5d6"/>
      <stop offset="1" stop-color="#edcccd"/>
    </radialGradient>
  </defs>
  <g id="assign-insturctor" transform="translate(-1165 -139)">
    <path id="Path_12656" data-name="Path 12656" d="M6,0H544a6,6,0,0,1,6,6V310H0V6A6,6,0,0,1,6,0Z" transform="translate(1165 139)" fill="url(#radial-gradient)"/>
    <g id="Group_3317" data-name="Group 3317" transform="translate(1306.39 147.61)">
      <g id="Group_3302" data-name="Group 3302" transform="translate(17.916 31.39)">
        <path id="Path_12657" data-name="Path 12657" d="M210.409,278.826s-3.774,1.524.579,9.538a104.92,104.92,0,0,0,7.324,11.951s.782,1.864-.8,2.2-5.079-.132-5.739,1.823.833,3.9,3.84,5.48,9.467,5.313,10.046,5.653,1.163,1.194.122,1.6-8.868,1.422-8.162,5.109,9.812,6.735,10.8,7.11,1.234.762,1.168,1.3-2.732.635-4.947,1.016-4.718,1.214-4.134,3.306,6.044,6.384,19.051,7.319l6.054.041,3.159-5.2c6.1-11.534,5.333-18.436,3.865-20.041s-3.494.081-4.993,1.757-2.986,3.89-3.479,3.662-.711-.655-.508-1.681,2.448-10.366-.3-12.916-7.766,3.555-8.634,4.226-1.31-.284-1.29-.945.279-8.126.508-11.519-.538-5.658-2.621-6.156-3.469,2.743-4.571,3.906-2.285-.508-2.285-.508a105.008,105.008,0,0,0-6.272-12.535c-4.5-7.928-7.857-5.455-7.857-5.455" transform="translate(-113.57 -152.996)" fill="#ebebeb"/>
        <path id="Path_12658" data-name="Path 12658" d="M251.2,350.916c-3.276-5.831-8.929-16.3-13.83-25.262s-9.34-17.065-12.591-22.916l-3.85-6.928-1.051-1.884-.264-.508c-.061-.112-.086-.168-.086-.168l.1.157.284.508,1.077,1.864c.935,1.62,2.27,3.977,3.906,6.9,3.281,5.836,7.74,13.931,12.636,22.891s10.534,19.442,13.784,25.293" transform="translate(-118.805 -160.254)" fill="#e0e0e0"/>
        <path id="Path_12659" data-name="Path 12659" d="M224.18,331.05a1.75,1.75,0,0,1,.422.107c.269.076.66.2,1.138.361.95.325,2.255.8,3.687,1.356l3.657,1.432,1.112.427a1.548,1.548,0,0,1,.4.173,2.031,2.031,0,0,1-.427-.107c-.269-.076-.655-.2-1.133-.371-.95-.33-2.25-.823-3.677-1.376l-3.667-1.407-1.112-.422A2.166,2.166,0,0,1,224.18,331.05Z" transform="translate(-121.09 -178.856)" fill="#e0e0e0"/>
        <path id="Path_12660" data-name="Path 12660" d="M245.478,326.084c-.046,0,.823-2.748,1.94-6.1s2.067-6.064,2.113-6.049-.818,2.753-1.935,6.1S245.529,326.1,245.478,326.084Z" transform="translate(-131.573 -170.436)" fill="#e0e0e0"/>
        <path id="Path_12661" data-name="Path 12661" d="M259.08,356.324a1.6,1.6,0,0,1,.234-.381l.691-1.016c.584-.843,1.381-2.032,2.219-3.337s1.554-2.539,2.062-3.433l.609-1.051a1.652,1.652,0,0,1,.244-.376,2.533,2.533,0,0,1-.178.411c-.127.259-.315.63-.559,1.082-.483.909-1.183,2.143-2.032,3.469s-1.656,2.489-2.27,3.311c-.3.411-.559.742-.736.965A2.33,2.33,0,0,1,259.08,356.324Z" transform="translate(-138.271 -186.572)" fill="#e0e0e0"/>
        <path id="Path_12662" data-name="Path 12662" d="M238.45,363.686a1.524,1.524,0,0,1,.411,0l1.122.061c.945.061,2.255.152,3.7.269s2.748.229,3.692.32l1.112.122a1.524,1.524,0,0,1,.411.071,2.185,2.185,0,0,1-.416,0l-1.122-.056c-.945-.061-2.25-.157-3.692-.269s-2.748-.234-3.692-.325l-1.117-.117a1.644,1.644,0,0,1-.409-.076Z" transform="translate(-128.115 -194.91)" fill="#e0e0e0"/>
        <path id="Path_12663" data-name="Path 12663" d="M247.33,389.721a3.5,3.5,0,0,1,.508,0l1.437.071c1.214.071,2.89.178,4.744.31s3.525.259,4.733.361l1.432.132a2.42,2.42,0,0,1,.508.071,2.906,2.906,0,0,1-.533,0l-1.437-.071c-1.214-.071-2.89-.178-4.739-.3s-3.525-.259-4.739-.366l-1.432-.127A2.566,2.566,0,0,1,247.33,389.721Z" transform="translate(-132.487 -207.724)" fill="#e0e0e0"/>
        <path id="Path_12664" data-name="Path 12664" d="M273.1,379.377a3.048,3.048,0,0,1,.284-.508l.833-1.3c.7-1.1,1.661-2.616,2.677-4.322s1.894-3.276,2.539-4.414c.3-.549.554-1.016.747-1.351a3.236,3.236,0,0,1,.289-.482,3.7,3.7,0,0,1-.229.508c-.157.33-.391.8-.691,1.376-.6,1.158-1.463,2.738-2.484,4.449s-2,3.22-2.722,4.3c-.366.538-.67.975-.884,1.27a3.661,3.661,0,0,1-.359.474Z" transform="translate(-145.173 -196.547)" fill="#e0e0e0"/>
        <rect id="Rectangle_436" data-name="Rectangle 436" width="2.55" height="54.842" transform="translate(226.354)" fill="#e0e0e0"/>
        <rect id="Rectangle_437" data-name="Rectangle 437" width="36.614" height="54.491" rx="0.07" transform="translate(189.354 0.427)" fill="#f5f5f5"/>
        <path id="Path_12665" data-name="Path 12665" d="M430.727,86.73h-37.4a.036.036,0,0,1-.035-.036V31.426a.036.036,0,0,1,.035-.036h37.4a.041.041,0,0,1,.041.036V86.694a.041.041,0,0,1-.041.036Zm-36.568-.848h35.7a.036.036,0,0,0,.036-.036V32.274a.036.036,0,0,0-.036-.036h-35.7a.036.036,0,0,0-.036.036V85.846A.036.036,0,0,0,394.159,85.882Z" transform="translate(-204.357 -31.39)" fill="#ebebeb"/>
        <rect id="Rectangle_438" data-name="Rectangle 438" width="29.305" height="47.731" rx="0.07" transform="translate(193.042 3.784)" fill="#fafafa"/>
        <rect id="Rectangle_439" data-name="Rectangle 439" width="16.456" height="19.285" rx="0.06" transform="translate(199.436 17.319)" fill="#ebebeb"/>
        <path id="Path_12666" data-name="Path 12666" d="M429.4,84.062a3.693,3.693,0,0,1-2.336.239,5.719,5.719,0,0,1-2.641-1.051,5.318,5.318,0,0,1-2.032-3.21,4.617,4.617,0,0,1,1.564-4.388,4.143,4.143,0,0,1,1.183-.691,3.169,3.169,0,0,1,1.478-.173,2.59,2.59,0,0,1,1.478.65,1.9,1.9,0,0,1,.584,1.722,2.793,2.793,0,0,1-.813,1.478,5.277,5.277,0,0,1-1.239.914,6.811,6.811,0,0,1-2.956.848,5.851,5.851,0,0,1-3.149-.721,5.729,5.729,0,0,1-2.321-2.4,4.876,4.876,0,0,1-.416-3.367,5.033,5.033,0,0,1,1.772-2.773,4.521,4.521,0,0,1,1.488-.752,3.667,3.667,0,0,1,1.676-.051,2.707,2.707,0,0,1,1.524.858,2.5,2.5,0,0,1,.6,1.625,3.117,3.117,0,0,1-.4,1.524,4.119,4.119,0,0,1-.94,1.127,6.3,6.3,0,0,1-2.331,1.239,5.871,5.871,0,0,1-2.453.188,5.008,5.008,0,0,1-2.133-.818,4.6,4.6,0,0,1-2.032-3.225,3.89,3.89,0,0,1,.752-2.768,3.337,3.337,0,0,1,1.4-1.117c.386-.147.6-.142.615-.1s-.173.137-.508.345a3.555,3.555,0,0,0-1.082,1.163,3.444,3.444,0,0,0-.447,2.367,3.87,3.87,0,0,0,1.813,2.539,4.49,4.49,0,0,0,3.738.356,5.247,5.247,0,0,0,1.869-1.061,2.3,2.3,0,0,0,.874-1.752,1.26,1.26,0,0,0-1.122-1.244,2.422,2.422,0,0,0-1.077.051,3.1,3.1,0,0,0-1.016.508,3.7,3.7,0,0,0-1.28,2.032,3.555,3.555,0,0,0,.315,2.448,4.408,4.408,0,0,0,1.767,1.839,4.571,4.571,0,0,0,2.438.569,5.587,5.587,0,0,0,2.4-.655,4.266,4.266,0,0,0,.96-.625,1.59,1.59,0,0,0,.508-.787.686.686,0,0,0-.193-.64,1.442,1.442,0,0,0-.792-.345,1.986,1.986,0,0,0-.935.076,2.955,2.955,0,0,0-.868.477,3.626,3.626,0,0,0-1.326,3.357,4.606,4.606,0,0,0,1.574,2.753,5.541,5.541,0,0,0,2.25,1.128C428.549,84.108,429.386,83.945,429.4,84.062Z" transform="translate(-214.81 -49.82)" fill="#e0e0e0"/>
        <rect id="Rectangle_440" data-name="Rectangle 440" width="36.639" height="60.647" transform="translate(1.219 21.773)" fill="#e0e0e0"/>
        <rect id="Rectangle_441" data-name="Rectangle 441" width="36.639" height="60.647" transform="translate(0 21.773)" fill="#ebebeb"/>
        <rect id="Rectangle_442" data-name="Rectangle 442" width="33.516" height="58.189" transform="translate(1.559 23.002)" fill="#fafafa"/>
        <rect id="Rectangle_443" data-name="Rectangle 443" width="20.61" height="43.064" transform="translate(7.938 30.565)" fill="#ebebeb"/>
        <path id="Path_12667" data-name="Path 12667" d="M36.75,130.967c-.046-4.022,3.555-7.954,7.557-8.512,1.9-.269,3.916.107,5.688-.62,3.169-1.3,4.18-5.511,7.369-6.755l.142,31.123H36.75Z" transform="translate(-28.811 -72.575)" fill="#e0e0e0"/>
      </g>
      <g id="Group_3304" data-name="Group 3304" transform="translate(65.589 33.879)">
        <rect id="Rectangle_444" data-name="Rectangle 444" width="116.616" height="116.616" transform="translate(2.275 1.356)" fill="#fff"/>
        <path id="Path_12668" data-name="Path 12668" d="M236.073,155.454c0-.98-.046-46.7-.112-116.621l.112.117H119.466l.132-.132v116.62l-.112-.117,116.616.117-116.616.112h-.117V38.7H236.235v.152C236.118,108.753,236.073,154.478,236.073,155.454Z" transform="translate(-117.181 -37.476)" fill="#263238"/>
        <rect id="Rectangle_445" data-name="Rectangle 445" width="121.147" height="6.714" fill="#6b1013"/>
        <g id="Group_3303" data-name="Group 3303" transform="translate(0 16)">
          <path id="Path_12669" data-name="Path 12669" d="M211.007,104.67l-1.732,8.675h-.635l.818-4.119h-5.8l-.818,4.119h-.63l1.732-8.675h.635l-.792,3.977h5.8l.792-3.977Z" transform="translate(-157.947 -69.94)" fill="#263238"/>
          <path id="Path_12670" data-name="Path 12670" d="M222.11,112.358a3.564,3.564,0,0,0-.025.406c0,1.4.818,2.179,2.392,2.179a2.992,2.992,0,0,0,2.214-.863l.289.432a3.5,3.5,0,0,1-2.539,1.016c-1.833,0-2.951-1.016-2.951-2.712a3.61,3.61,0,0,1,3.555-3.855,2.525,2.525,0,0,1,2.748,2.7,4.5,4.5,0,0,1-.071.721Zm.071-.508h4.982a2.251,2.251,0,0,0,0-.32,1.98,1.98,0,0,0-2.184-2.082,2.854,2.854,0,0,0-2.8,2.423Z" transform="translate(-167.435 -72.052)" fill="#263238"/>
          <path id="Path_12671" data-name="Path 12671" d="M238.083,103.64h.62l-1.833,9.2h-.62Z" transform="translate(-174.699 -69.434)" fill="#263238"/>
          <path id="Path_12672" data-name="Path 12672" d="M244.453,103.64h.62l-1.833,9.2h-.62Z" transform="translate(-177.833 -69.434)" fill="#263238"/>
          <path id="Path_12673" data-name="Path 12673" d="M248.79,112.79a3.683,3.683,0,0,1,3.708-3.88,2.579,2.579,0,0,1,2.859,2.692,3.672,3.672,0,0,1-3.7,3.875,2.6,2.6,0,0,1-2.867-2.687Zm5.947-1.153a2.036,2.036,0,0,0-2.291-2.169,3.083,3.083,0,0,0-3.047,3.286,2.035,2.035,0,0,0,2.291,2.164,3.066,3.066,0,0,0,3.047-3.281Z" transform="translate(-180.87 -72.027)" fill="#263238"/>
          <path id="Path_12674" data-name="Path 12674" d="M263.8,112.908a.508.508,0,1,1,.482.508A.508.508,0,0,1,263.8,112.908Zm1.8-8.238h.716l-1.361,6.181h-.472Z" transform="translate(-188.256 -69.94)" fill="#263238"/>
        </g>
        <path id="Path_12675" data-name="Path 12675" d="M181.527,97.1a3.636,3.636,0,1,1,3.636-3.631,3.636,3.636,0,0,1-3.636,3.631Zm0-6.765a3.129,3.129,0,1,0,3.129,3.134,3.129,3.129,0,0,0-3.129-3.134Z" transform="translate(-145.979 -62.638)" fill="#d72027"/>
        <circle id="Ellipse_63" data-name="Ellipse 63" cx="3.383" cy="3.383" r="3.383" transform="translate(95.417 38.046)" fill="#d72027"/>
        <path id="Path_12676" data-name="Path 12676" d="M289.127,224.3a3.636,3.636,0,1,1,3.636-3.631,3.636,3.636,0,0,1-3.636,3.631Zm0-6.76a1.3,1.3,0,1,0,0-.02Z" transform="translate(-198.931 -125.234)" fill="#0761ce"/>
        <path id="Path_12677" data-name="Path 12677" d="M181.113,71.381a1.361,1.361,0,1,1-.391-.976A1.361,1.361,0,0,1,181.113,71.381Z" transform="translate(-146.221 -52.879)" fill="#d72027"/>
        <path id="Path_12678" data-name="Path 12678" d="M193.062,212.361a1.361,1.361,0,1,1-.4-.966,1.361,1.361,0,0,1,.4.966Z" transform="translate(-152.106 -122.267)" fill="#d72027"/>
        <path id="Path_12679" data-name="Path 12679" d="M216.5,76.351l-2.093-2.1,2.859-.767,2.864-.767-.767,2.864-.767,2.864Z" transform="translate(-163.951 -54.218)" fill="#d72027"/>
        <path id="Path_12680" data-name="Path 12680" d="M251.273,213.2l-2.783,1.016L249,211.3l.513-2.915,2.27,1.9,2.27,1.9Z" transform="translate(-180.722 -120.977)" fill="#d72027"/>
        <rect id="Rectangle_446" data-name="Rectangle 446" width="3.652" height="3.652" transform="translate(15.13 38.295)" fill="#d72027"/>
        <path id="Path_12681" data-name="Path 12681" d="M215.051,234.212l-6.481-6.491,6.481-6.481,6.481,6.481Zm-5.754-6.491,5.765,5.759,5.749-5.759-5.759-5.765Z" transform="translate(-161.077 -127.306)" fill="#d72027"/>
        <path id="Path_12682" data-name="Path 12682" d="M235.971,186.6a.729.729,0,0,1,.173,0h.549v.046c-3.3.061-19.356.112-38.65.112l-27.837-.041-8.441-.041h-2.89a1.614,1.614,0,0,1-.2,0h3.093l8.441-.041,27.837-.036c19.3,0,35.349.046,38.65.107v.046h-.549Z" transform="translate(-136.521 -110.254)" fill="#263238"/>
        <path id="Path_12683" data-name="Path 12683" d="M235.793,195.715h.462v.046c-2.113.061-12.387.112-24.729.112l-17.817-.041-5.4-.041h0l5.4-.041,17.817-.041c12.342,0,22.616.051,24.729.112v.046h-.35Z" transform="translate(-150.133 -114.742)" fill="#263238"/>
      </g>
      <path id="Path_12684" data-name="Path 12684" d="M252.61,409.562c0,.071-53.283.132-119,.132s-119-.061-119-.132,53.273-.132,119-.132S252.61,409.486,252.61,409.562Z" transform="translate(0 -186.037)" fill="#263238"/>
      <g id="Group_3312" data-name="Group 3312" transform="translate(151.225 56.916)">
        <path id="Path_12685" data-name="Path 12685" d="M347.383,83.919c1.59-.62,3.4.716,5.043.269A9.606,9.606,0,0,0,355,82.477a5.236,5.236,0,0,1,4.632-.508c1.427.6,2.372,1.285,2.671,2.809,1.2-.813,3.413.615,4.241,2.093a6.878,6.878,0,0,1,.472,4.723,22.3,22.3,0,0,1-3.108,8.091c-.137.218-.366.467-.6.371s-.234-.259-.274-.432a18.538,18.538,0,0,1-.249-4.535,11.291,11.291,0,0,0-.609-4.48,4.422,4.422,0,0,0-3.311-2.819,4.8,4.8,0,0,0-3.159.924c-.935.615-1.742,1.412-2.626,2.1a6.14,6.14,0,0,1-3,1.417,2.936,2.936,0,0,1-2.9-1.285,1.96,1.96,0,0,1,.96-2.768,2.2,2.2,0,0,1-.752-4.256Z" transform="translate(-314.385 -81.648)" fill="#263238"/>
        <path id="Path_12686" data-name="Path 12686" d="M368.264,94.316l-.4,17.014a5.554,5.554,0,0,1-5.8,5.135h0c-2.692-.2-4.388-2.677-4.322-5.373.031-1.285.051-2.352.046-2.484,0,0-4.322-.508-4.535-4.8-.1-2.077.036-6.369.2-10.254a8.009,8.009,0,0,1,7.7-7.654h.411C366.06,85.981,368.483,89.836,368.264,94.316Z" transform="translate(-317.948 -83.741)" fill="#ffbe9d"/>
        <path id="Path_12687" data-name="Path 12687" d="M362.21,128.743a9.965,9.965,0,0,0,5.541-1.8s-1.209,3.144-5.511,2.915Z" transform="translate(-322.371 -103.937)" fill="#eb996e"/>
        <path id="Path_12688" data-name="Path 12688" d="M357,106.759a.609.609,0,0,0,.615.594.589.589,0,0,0,.609-.574.614.614,0,0,0-.615-.6.589.589,0,0,0-.609.579Z" transform="translate(-319.807 -93.72)" fill="#263238"/>
        <path id="Path_12689" data-name="Path 12689" d="M355.649,104.389c.076.076.508-.284,1.188-.31s1.158.289,1.229.208-.051-.178-.269-.325a1.686,1.686,0,0,0-.985-.264,1.6,1.6,0,0,0-.945.345C355.674,104.206,355.608,104.359,355.649,104.389Z" transform="translate(-319.137 -92.498)" fill="#263238"/>
        <path id="Path_12690" data-name="Path 12690" d="M369.43,106.758a.62.62,0,0,0,.62.594.584.584,0,0,0,.609-.574.615.615,0,0,0-.615-.6.589.589,0,0,0-.615.579Z" transform="translate(-325.924 -93.72)" fill="#263238"/>
        <path id="Path_12691" data-name="Path 12691" d="M368.439,104.154c.076.076.508-.284,1.188-.3s1.158.289,1.229.2-.051-.178-.269-.325a1.686,1.686,0,0,0-.985-.259,1.615,1.615,0,0,0-.945.34C368.464,103.971,368.4,104.123,368.439,104.154Z" transform="translate(-325.431 -92.385)" fill="#263238"/>
        <path id="Path_12692" data-name="Path 12692" d="M362.469,109.3a4.617,4.617,0,0,0-1.082-.152c-.168,0-.33-.041-.361-.152a.863.863,0,0,1,.091-.508c.147-.416.295-.848.452-1.305a22.07,22.07,0,0,0,1.016-3.4,22.034,22.034,0,0,0-1.265,3.311c-.152.457-.3.894-.432,1.31a.975.975,0,0,0-.061.665.432.432,0,0,0,.284.234,1.248,1.248,0,0,0,.29.03,4.119,4.119,0,0,0,1.067-.036Z" transform="translate(-321.675 -92.539)" fill="#263238"/>
        <path id="Path_12693" data-name="Path 12693" d="M367.916,99.211c.071.178.726.066,1.524.132s1.412.254,1.524.086c.041-.076-.071-.244-.33-.406a2.509,2.509,0,0,0-1.133-.35,2.539,2.539,0,0,0-1.168.183C368.023,98.982,367.885,99.124,367.916,99.211Z" transform="translate(-325.177 -90.022)" fill="#263238"/>
        <path id="Path_12694" data-name="Path 12694" d="M355.98,100.571c.122.142.569-.03,1.117-.056s1.016.061,1.112-.1-.036-.229-.244-.361a1.524,1.524,0,0,0-.914-.213,1.549,1.549,0,0,0-.884.335C355.98,100.343,355.924,100.5,355.98,100.571Z" transform="translate(-319.295 -90.6)" fill="#263238"/>
        <path id="Path_12695" data-name="Path 12695" d="M382.369,108.591c.071-.036,2.92-.985,2.936,1.955a2.21,2.21,0,0,1-2.946,2.265C382.354,112.726,382.369,108.591,382.369,108.591Z" transform="translate(-332.286 -94.822)" fill="#ffbe9d"/>
        <path id="Path_12696" data-name="Path 12696" d="M384.117,112.607a1.012,1.012,0,0,0,.137.076.544.544,0,0,0,.386,0,1.265,1.265,0,0,0,.579-1.143,1.7,1.7,0,0,0-.147-.731.594.594,0,0,0-.391-.391.264.264,0,0,0-.3.142c-.041.081,0,.142-.036.147s-.061-.051-.041-.173a.31.31,0,0,1,.117-.183.35.35,0,0,1,.279-.076.706.706,0,0,1,.538.452,1.66,1.66,0,0,1,.183.818,1.325,1.325,0,0,1-.741,1.275.538.538,0,0,1-.467-.076C384.122,112.673,384.107,112.612,384.117,112.607Z" transform="translate(-333.151 -95.734)" fill="#eb996e"/>
        <path id="Path_12697" data-name="Path 12697" d="M351.83,92.027a6.191,6.191,0,0,0,5.465-1.447c1.016-.924,1.773-2.23,3.047-2.682a3.51,3.51,0,0,1,2.682.264,6.79,6.79,0,0,1,2.1,1.788c-.747,2.214-.1,4.632.554,6.877a1.153,1.153,0,0,0,.366.665c.356.254.868,0,1.163-.3a3.636,3.636,0,0,0,.721-1.945,12.133,12.133,0,0,0-.2-4.764,8.258,8.258,0,0,0-2.418-4.063,7.806,7.806,0,0,0-5.546-1.859,9.538,9.538,0,0,0-5.475,2.189,5.617,5.617,0,0,0-1.727,2.148" transform="translate(-317.263 -83.072)" fill="#263238"/>
        <path id="Path_12698" data-name="Path 12698" d="M346.38,86.533a.741.741,0,0,0,.036.254,1.214,1.214,0,0,0,.437.589,1.889,1.889,0,0,0,1.112.325,3.377,3.377,0,0,0,.726-.071,1.6,1.6,0,0,0,.736-.376,1.046,1.046,0,0,0,.315-.848.919.919,0,0,0-.655-.726,1.147,1.147,0,0,0-.508-.051.985.985,0,0,0-.508.249,1.325,1.325,0,0,0-.4,1.016,1.524,1.524,0,0,0,.508,1.061,2.351,2.351,0,0,0,1.087.564,3.88,3.88,0,0,0,2.5-.335,10.952,10.952,0,0,0,2.123-1.392,14.4,14.4,0,0,1,1.94-1.331,4.3,4.3,0,0,1,1.986-.579,4.19,4.19,0,0,1,1.773.381,5.237,5.237,0,0,1,2.032,1.7,7.115,7.115,0,0,1,.4.609,2.466,2.466,0,0,0,.132.218.341.341,0,0,0-.025-.061,1.53,1.53,0,0,0-.081-.173,5.526,5.526,0,0,0-2.392-2.387,4.226,4.226,0,0,0-1.823-.411,4.434,4.434,0,0,0-2.062.569A14.127,14.127,0,0,0,353.8,86.68a10.979,10.979,0,0,1-2.1,1.371,3.733,3.733,0,0,1-2.407.361,2.234,2.234,0,0,1-1.016-.508,1.412,1.412,0,0,1-.467-.965,1.214,1.214,0,0,1,.35-.945.9.9,0,0,1,.9-.178.813.813,0,0,1,.579.589.929.929,0,0,1-.3.757,1.448,1.448,0,0,1-.686.361,3.13,3.13,0,0,1-.7.081,1.833,1.833,0,0,1-1.082-.289,1.209,1.209,0,0,1-.437-.554Q346.407,86.649,346.38,86.533Z" transform="translate(-314.581 -83.18)" fill="#455a64"/>
        <path id="Path_12699" data-name="Path 12699" d="M383.21,94.045a4.807,4.807,0,0,1-.889.264,2.478,2.478,0,0,1-.985-.061,4.23,4.23,0,0,1-1.122-.508,3.443,3.443,0,0,1-1.376-1.7,7.918,7.918,0,0,1-.229-.9.7.7,0,0,0,0,.254,2.8,2.8,0,0,0,.137.681,3.372,3.372,0,0,0,1.4,1.793,4.144,4.144,0,0,0,1.163.508,2.443,2.443,0,0,0,1.041.036,2.356,2.356,0,0,0,.655-.223.792.792,0,0,0,.205-.144Z" transform="translate(-330.435 -86.319)" fill="#455a64"/>
        <path id="Path_12700" data-name="Path 12700" d="M382.954,98.265c0-.03-.345.061-.9.051a4.063,4.063,0,0,1-3.51-2.113c-.264-.508-.345-.833-.371-.823a1.013,1.013,0,0,0,.041.239,3.2,3.2,0,0,0,.239.63,3.936,3.936,0,0,0,1.478,1.63,3.977,3.977,0,0,0,2.123.564,2.962,2.962,0,0,0,.67-.081,1.016,1.016,0,0,0,.234-.1Z" transform="translate(-330.225 -88.406)" fill="#455a64"/>
        <path id="Path_12701" data-name="Path 12701" d="M372.946,110.057a.081.081,0,0,0,.086-.066.071.071,0,1,0-.142,0,.076.076,0,0,0,.056.066Z" transform="translate(-327.627 -95.561)" fill="#eb996e"/>
        <path id="Path_12702" data-name="Path 12702" d="M370.413,109.543a.091.091,0,0,0,.086-.081.074.074,0,1,0-.142-.02.081.081,0,0,0,.056.1Z" transform="translate(-326.379 -95.285)" fill="#eb996e"/>
        <path id="Path_12703" data-name="Path 12703" d="M368.73,109.508c.041,0,.081-.046.086-.112s0-.122-.061-.127-.081.046-.086.112S368.7,109.5,368.73,109.508Z" transform="translate(-325.55 -95.241)" fill="#eb996e"/>
        <path id="Path_12704" data-name="Path 12704" d="M371.736,111.7c.041,0,.071,0,.071-.046s-.036-.046-.076-.046-.071,0-.071.051a.066.066,0,0,0,.076.041Z" transform="translate(-327.022 -96.393)" fill="#eb996e"/>
        <path id="Path_12705" data-name="Path 12705" d="M369.445,111.2a.081.081,0,0,0,.076-.081.072.072,0,1,0-.076.081Z" transform="translate(-325.899 -96.117)" fill="#eb996e"/>
        <path id="Path_12706" data-name="Path 12706" d="M357.544,110.222a.081.081,0,0,0,.086-.071.076.076,0,0,0-.056-.091.081.081,0,0,0-.086.071.076.076,0,0,0,.056.091Z" transform="translate(-320.046 -95.63)" fill="#eb996e"/>
        <path id="Path_12707" data-name="Path 12707" d="M355.836,110.113a.091.091,0,0,0,.081-.091.076.076,0,0,0-.066-.091.088.088,0,0,0-.081.086A.091.091,0,0,0,355.836,110.113Z" transform="translate(-319.202 -95.566)" fill="#eb996e"/>
        <path id="Path_12708" data-name="Path 12708" d="M359.041,110.242a.061.061,0,1,0-.061-.071.066.066,0,0,0,.061.071Z" transform="translate(-320.781 -95.659)" fill="#eb996e"/>
        <path id="Path_12709" data-name="Path 12709" d="M357.866,111.953a.081.081,0,1,0-.036-.1.071.071,0,0,0,.036.1Z" transform="translate(-320.211 -96.486)" fill="#eb996e"/>
        <path id="Path_12710" data-name="Path 12710" d="M356.364,111.752a.06.06,0,1,0-.086-.036.071.071,0,0,0,.086.036Z" transform="translate(-319.451 -96.403)" fill="#eb996e"/>
        <path id="Path_12711" data-name="Path 12711" d="M363.417,117.862c.823,2.687,3.23.284,1.757-.782a12.194,12.194,0,0,0-1.854.686" transform="translate(-322.917 -99.085)" fill="#eb996e"/>
        <path id="Path_12712" data-name="Path 12712" d="M363.748,118.973c.879.2,2.057-.818,1.3-1.864-.366-.107-1.1.416-1.468.482-1.046.4-1.087.3-.076-.178.462-.152,1.046-.63,1.585-.6C366.292,117.678,364.921,119.7,363.748,118.973Z" transform="translate(-322.649 -98.951)" fill="#263238"/>
        <path id="Path_12713" data-name="Path 12713" d="M357.684,133.961l3.647,3.677,6.491-4.078,1.9,3.393L366.5,175.1l-13.246.107.879-34.922Z" transform="translate(-317.962 -107.195)" fill="#f5f5f5"/>
        <path id="Path_12714" data-name="Path 12714" d="M319.892,182.15l-.762-8.192,7.578-26.278,2.463,9.472s1.574,16.593,1.574,16.918a33.907,33.907,0,0,1-1.92,3.5l.594,4.571Z" transform="translate(-301.171 -114.143)" fill="#d72027"/>
        <path id="Path_12715" data-name="Path 12715" d="M348.469,134l-4.063,3.24-10.376,3.723,2.016,10.579,1.828,16.334.3,7.542h8.34l.615-13.713s-1.524-19.63-.752-23.241Z" transform="translate(-308.503 -107.411)" fill="#d72027"/>
        <path id="Path_12716" data-name="Path 12716" d="M377.26,133.55l3.855,2.661,4.967,2.143s5.348,1.178,5.12,1.524-1.722,18.893-1.722,18.893l.508,16.425H372.43v-7.39l5.445-28.757Z" transform="translate(-327.401 -107.19)" fill="#d72027"/>
        <path id="Path_12717" data-name="Path 12717" d="M406.881,146c.742.2,5,8.075,5,8.075l4.1,3.4,2.362-4.373,5.622.066.635,7.354s-3.332,7.222-4.652,7.989-5.485-.767-7.568-1.524-7.806-7.562-7.806-7.562Z" transform="translate(-343.217 -113.316)" fill="#d72027"/>
        <path id="Path_12718" data-name="Path 12718" d="M331.182,202.312a10.4,10.4,0,0,1-.823-1.016,11,11,0,0,0-2.214-2.179,5.973,5.973,0,0,0-2.865-1.077c-.792-.066-1.285.076-1.29,0s.112-.066.335-.122a3.671,3.671,0,0,1,.965-.091,5.612,5.612,0,0,1,3,1.051,9.212,9.212,0,0,1,2.219,2.28,4.692,4.692,0,0,1,.673,1.154Z" transform="translate(-303.563 -138.82)" fill="#263238"/>
        <path id="Path_12719" data-name="Path 12719" d="M334.127,198.453a12.6,12.6,0,0,0-2.377-2.082,12.235,12.235,0,0,0-2.931-1.183,2.352,2.352,0,0,1,.945.091,6.947,6.947,0,0,1,2.128.863,7.019,7.019,0,0,1,1.727,1.524,2.428,2.428,0,0,1,.508.787Z" transform="translate(-305.94 -137.515)" fill="#263238"/>
        <path id="Path_12720" data-name="Path 12720" d="M352.975,172.11a2.073,2.073,0,0,1-.2-.31,10.229,10.229,0,0,1-.508-.924c-.447-.808-1.077-1.986-1.757-3.484a41.807,41.807,0,0,1-2.032-5.424,32.3,32.3,0,0,1-1.26-6.983,67.087,67.087,0,0,1-.025-7.684c.025-.579.046-1.148.071-1.691a5.639,5.639,0,0,1,.229-1.585,2.113,2.113,0,0,1,.371-.681,1.747,1.747,0,0,1,.594-.452,1.244,1.244,0,0,1,1.331.122l-.1.137-.843-.538-.066-.046.041-.061a7.082,7.082,0,0,1,.975-1.133q.465-.45.777-.777c.208-.218.35-.386.447-.508a2.04,2.04,0,0,1,.147-.188.793.793,0,0,1-.112.208,4.782,4.782,0,0,1-.422.543c-.2.229-.452.508-.752.808a7.292,7.292,0,0,0-.929,1.128l-.025-.107.853.508-.1.142a1.051,1.051,0,0,0-1.138-.076,1.585,1.585,0,0,0-.508.4,2.119,2.119,0,0,0-.325.62,5.429,5.429,0,0,0-.2,1.524q-.03.813-.061,1.691a71.838,71.838,0,0,0,.051,7.654,36.566,36.566,0,0,0,3.215,12.352c.66,1.524,1.265,2.692,1.681,3.515.2.391.361.7.483.945a1.723,1.723,0,0,1,.1.355Z" transform="translate(-314.934 -110.315)" fill="#263238"/>
        <path id="Path_12721" data-name="Path 12721" d="M373.33,172.07a1.827,1.827,0,0,1,.132-.35c.1-.254.244-.584.417-1.016.361-.863.879-2.113,1.5-3.672,1.224-3.113,2.773-7.471,4.3-12.342.919-2.915,1.747-5.673,2.479-8.1.183-.6.355-1.188.508-1.752a5.754,5.754,0,0,0,.3-1.62c.046-1.016-.813-1.92-1.6-1.778v-.157l1.249-.1-.061.051a1.788,1.788,0,0,0-.477-1.6,2.364,2.364,0,0,0-.483-.366,1.188,1.188,0,0,1,.533.315,1.859,1.859,0,0,1,.554,1.676v.046h-.051l-1.249.127v-.157c.924-.173,1.864.818,1.828,1.935a5.8,5.8,0,0,1-.295,1.681c-.163.564-.335,1.153-.508,1.757-.711,2.433-1.524,5.2-2.453,8.126-1.524,4.876-3.108,9.233-4.378,12.332-.64,1.524-1.183,2.793-1.58,3.642l-.462.975a1.524,1.524,0,0,1-.2.342Z" transform="translate(-327.843 -110.005)" fill="#263238"/>
        <path id="Path_12722" data-name="Path 12722" d="M376.589,208.159a6.1,6.1,0,0,1-2.489.229,6.054,6.054,0,0,1,2.489-.229Z" transform="translate(-328.222 -143.869)" fill="#263238"/>
        <path id="Path_12723" data-name="Path 12723" d="M355.456,207.072c0,.046-.249.046-.442.335a.645.645,0,0,0-.107.508.6.6,0,0,0,1.051.127.665.665,0,0,0,.025-.538c-.122-.325-.371-.391-.35-.427s.31-.036.508.35a.828.828,0,0,1,0,.731.787.787,0,0,1-.813.391.767.767,0,0,1-.686-.574.8.8,0,0,1,.193-.706C355.161,206.965,355.476,207.046,355.456,207.072Z" transform="translate(-318.639 -143.356)" fill="#263238"/>
        <path id="Path_12724" data-name="Path 12724" d="M393.426,174.3a51.52,51.52,0,0,1-7.116,1.839,51.533,51.533,0,0,1,7.11-1.839Z" transform="translate(-334.231 -127.243)" fill="#263238"/>
        <path id="Path_12725" data-name="Path 12725" d="M404.775,160.275a2.084,2.084,0,0,1-.2-.508,8.959,8.959,0,0,1-.284-1.5,29.788,29.788,0,0,1-.031-5.008,14.338,14.338,0,0,1,.355-2.748,9.142,9.142,0,0,1,.8-2.118,6.72,6.72,0,0,1,.863-1.26,1.658,1.658,0,0,1,.406-.386,12.114,12.114,0,0,0-1.1,1.732,9.361,9.361,0,0,0-.726,2.092,15.36,15.36,0,0,0-.33,2.7,36.8,36.8,0,0,0-.046,4.977C404.592,159.508,404.816,160.26,404.775,160.275Z" transform="translate(-343.021 -113.686)" fill="#263238"/>
        <path id="Path_12726" data-name="Path 12726" d="M414.36,162.206a5.587,5.587,0,0,0-3.85,2.859,1.525,1.525,0,0,1,.249-.711,4.322,4.322,0,0,1,2.849-2.118,1.463,1.463,0,0,1,.752-.03Z" transform="translate(-346.14 -121.274)" fill="#263238"/>
        <path id="Path_12727" data-name="Path 12727" d="M420.21,173.928a7.178,7.178,0,0,1,.457-1.381c.32-.838.807-1.981,1.412-3.21s1.214-2.316,1.676-3.083a7.136,7.136,0,0,1,.818-1.2,8.515,8.515,0,0,1-.655,1.3c-.422.787-1.016,1.879-1.6,3.1s-1.112,2.352-1.478,3.169a8.849,8.849,0,0,1-.63,1.3Z" transform="translate(-350.914 -122.691)" fill="#263238"/>
        <path id="Path_12728" data-name="Path 12728" d="M416.89,174.716a4.453,4.453,0,0,1,.264-1.188,9.086,9.086,0,0,1,1.3-2.661,6.6,6.6,0,0,1,2.255-1.92,3.636,3.636,0,0,1,1.143-.437c0,.041-.417.223-1.051.6a7.314,7.314,0,0,0-2.133,1.91,10.738,10.738,0,0,0-1.331,2.539,6.892,6.892,0,0,1-.447,1.157Z" transform="translate(-349.28 -124.394)" fill="#263238"/>
        <path id="Path_12729" data-name="Path 12729" d="M432.618,177.648a.653.653,0,0,1-.315.132,1.524,1.524,0,0,1-.919-.147,2.631,2.631,0,0,1-1.016-.945,7.517,7.517,0,0,1-1.234-4.449,3.4,3.4,0,0,1,.208-1.229c.046,0-.036.477,0,1.229a8.754,8.754,0,0,0,.538,2.875,4.564,4.564,0,0,0,1.6,2.352,1.747,1.747,0,0,0,1.138.182Z" transform="translate(-355.302 -125.624)" fill="#263238"/>
        <path id="Path_12730" data-name="Path 12730" d="M366.394,144.8s-.208-1.93-1.112-2.032-2.651.061-2.712,2.032l.9,1.448s-1.686,4.094-2.032,5.419-1.442,27-1.442,27l2.839,5.82,3.047-5.912.508-27.705-1.173-4.383Z" transform="translate(-321.284 -111.715)" fill="#d72027"/>
        <path id="Path_12731" data-name="Path 12731" d="M376.128,142.951a1.719,1.719,0,0,1-.29.35c-.2.213-.508.508-.874.868a25.251,25.251,0,0,1-3.215,2.539l-.193.132v-.35a12.506,12.506,0,0,0-.259-2.245,3.652,3.652,0,0,0-.767-1.62,4.673,4.673,0,0,0-1.341-1.016,1.235,1.235,0,0,1,.447.137,3.088,3.088,0,0,1,1.016.747,3.779,3.779,0,0,1,.863,1.691,11.81,11.81,0,0,1,.284,2.286v.117l-.2-.1a35.682,35.682,0,0,0,3.235-2.443,15.222,15.222,0,0,1,1.294-1.093Z" transform="translate(-325.806 -111.156)" fill="#263238"/>
        <path id="Path_12732" data-name="Path 12732" d="M363.306,141.584a8.683,8.683,0,0,0-1.148.742,5.587,5.587,0,0,0-1.808,2.666,5.169,5.169,0,0,0-.127.579l-.051.274-.183-.213c-.747-.889-1.4-1.686-1.859-2.27a5.415,5.415,0,0,1-.7-.965,5.944,5.944,0,0,1,.833.853c.508.548,1.173,1.326,1.93,2.214l-.234.066a5.482,5.482,0,0,1,.137-.609,5.308,5.308,0,0,1,1.95-2.743,4.3,4.3,0,0,1,.9-.508C363.194,141.594,363.306,141.564,363.306,141.584Z" transform="translate(-320.019 -111.14)" fill="#263238"/>
        <path id="Path_12733" data-name="Path 12733" d="M368.327,149.036c0,.071-.386.137-.863.147s-.863-.041-.863-.117.381-.137.858-.147S368.327,148.959,368.327,149.036Z" transform="translate(-324.532 -114.752)" fill="#263238"/>
        <path id="Path_12734" data-name="Path 12734" d="M369.086,144.09a5.587,5.587,0,0,1-2.636,2.275,12.4,12.4,0,0,1,1.326-1.128,13.632,13.632,0,0,1,1.31-1.148Z" transform="translate(-324.458 -112.376)" fill="#263238"/>
        <path id="Path_12735" data-name="Path 12735" d="M367.052,152.821a14.451,14.451,0,0,1,.533-3.921,15.074,15.074,0,0,1-.533,3.921Z" transform="translate(-324.745 -114.744)" fill="#263238"/>
        <path id="Path_12736" data-name="Path 12736" d="M368.374,156.437a24.112,24.112,0,0,1,0-3.621,23.779,23.779,0,0,1,.249-3.616,25.841,25.841,0,0,1,0,3.621A25.451,25.451,0,0,1,368.374,156.437Z" transform="translate(-325.371 -114.891)" fill="#263238"/>
        <g id="Group_3305" data-name="Group 3305" transform="translate(38.716 31.03)" opacity="0.4">
          <path id="Path_12737" data-name="Path 12737" d="M366.394,144.8s-.208-1.93-1.112-2.032-2.651.061-2.712,2.032l.9,1.448s-1.686,4.094-2.032,5.419-1.442,27-1.442,27l2.839,5.82,3.047-5.912.508-27.705-1.173-4.383Z" transform="translate(-360 -142.745)"/>
        </g>
        <path id="Path_12738" data-name="Path 12738" d="M338.769,184.631a1.524,1.524,0,0,1-.036-.325c0-.244-.025-.554-.041-.94-.025-.808-.076-1.986-.152-3.438-.152-2.9-.462-6.9-.97-11.306s-1.107-8.38-1.564-11.25c-.229-1.412-.416-2.539-.554-3.4-.056-.381-.107-.686-.142-.924a1.328,1.328,0,0,1-.03-.33,2.362,2.362,0,0,1,.081.32c.051.234.117.538.193.914.168.8.386,1.955.635,3.388.508,2.865,1.133,6.836,1.646,11.25s.787,8.421.889,11.331c.056,1.453.076,2.631.071,3.443v.94a2.03,2.03,0,0,1-.026.327Z" transform="translate(-309.118 -116.623)" fill="#263238"/>
        <g id="Group_3306" data-name="Group 3306" transform="translate(31.708 35.223)" opacity="0.4">
          <path id="Path_12739" data-name="Path 12739" d="M346.9,151a76.223,76.223,0,0,0-.564,13.774,25.459,25.459,0,0,0,4.327,12.936,2.193,2.193,0,0,0,.655.66.8.8,0,0,0,.884-.03c.411-.35.173-1.016-.091-1.488A44.694,44.694,0,0,1,346.9,151" transform="translate(-346.2 -151)"/>
        </g>
        <g id="Group_3307" data-name="Group 3307" transform="translate(45.41 38.636)" opacity="0.4">
          <path id="Path_12740" data-name="Path 12740" d="M373.424,180.834c-.061.508.569.889,1.072.772a2.286,2.286,0,0,0,1.188-.95,26.754,26.754,0,0,0,4.769-11.372,70.49,70.49,0,0,0,1.1-11.565c-2.032,8.421-5.826,19.036-8.37,23.6" transform="translate(-373.18 -157.72)"/>
        </g>
        <g id="Group_3308" data-name="Group 3308" transform="translate(60.555 41.242)" opacity="0.4">
          <path id="Path_12741" data-name="Path 12741" d="M403.715,162.85s-.183,5.45,1.194,6.344l-.411,4.063s.066,3.621.137,4.886A16.668,16.668,0,0,1,403,170.788a49.86,49.86,0,0,1,.625-7.568" transform="translate(-402.999 -162.85)"/>
        </g>
        <g id="Group_3309" data-name="Group 3309" transform="translate(74.848 39.794)" opacity="0.4">
          <path id="Path_12742" data-name="Path 12742" d="M431.14,160.508a4.683,4.683,0,0,0,2.143,2.946,2.54,2.54,0,0,0,1.117.361,2.372,2.372,0,0,0,2.032-1.285,6.329,6.329,0,0,0,.584-2.458l-5.6-.071Z" transform="translate(-431.14 -160)"/>
        </g>
        <g id="Group_3310" data-name="Group 3310" transform="translate(19.361 57.813)" opacity="0.4">
          <path id="Path_12743" data-name="Path 12743" d="M330.123,201.187a7.187,7.187,0,0,0-7.217-3.977,1.6,1.6,0,0,1-.64,0,.477.477,0,0,1-.376-.462.64.64,0,0,1,.254-.381,4.356,4.356,0,0,1,5.211-.051,6.78,6.78,0,0,1,2.768,4.866" transform="translate(-321.89 -195.477)"/>
        </g>
        <g id="Group_3311" data-name="Group 3311" transform="translate(66.483 44.147)" opacity="0.4">
          <path id="Path_12744" data-name="Path 12744" d="M420.684,168.57a8.959,8.959,0,0,0-5.9,5.333c-.112.284-.193.645,0,.858a.594.594,0,0,0,.8-.076,1.981,1.981,0,0,0,.391-.787,8.878,8.878,0,0,1,4.723-5.216" transform="translate(-414.671 -168.57)"/>
        </g>
        <path id="Path_12745" data-name="Path 12745" d="M429.635,147.444l.1-3.311a.7.7,0,0,1,.061-.284l.747-1.793s-3.047-3.464-3.2-3.89-.066-.879.691-.569a23.679,23.679,0,0,1,3.2,2.575l.945-1.671s-2.2-2.346-2.423-2.6-.091-1.574.726-1.133a26.415,26.415,0,0,1,2.89,2.321l.564-.564-1.63-2.509s-.569-.879.122-1.133,1.016.254,1.524.818a18.677,18.677,0,0,1,1.28,1.788l.508-.036.752-.183-.061-.874s-1.016-1.453-1.173-1.778-.569-.889,0-1.143.929-.3,1.234.213a3.164,3.164,0,0,0,.615.665,4.257,4.257,0,0,1,1.016-.686c.447-.142.975.376.457,1.8-.086.239-.6,2.875-.6,2.875l-.173,1.4-.6,1.234-2.7,4.723.1,3.225a3.2,3.2,0,0,1-.508,2.032,1.874,1.874,0,0,1-2.092.615A4.17,4.17,0,0,1,429.635,147.444Z" transform="translate(-354.391 -106.081)" fill="#ffbe9d"/>
        <path id="Path_12746" data-name="Path 12746" d="M439.012,144.335a4.955,4.955,0,0,1-.183-.716l-.213-.777c-.041-.142-.081-.3-.117-.462a.588.588,0,0,1,0-.081.142.142,0,0,1,0-.061h0a.137.137,0,0,1,.117-.066.132.132,0,0,1,.091.041h0v.071a.207.207,0,0,1,0,.086h0a.127.127,0,0,1-.086.1.122.122,0,0,1-.107,0h0l-.03-.03h0l-.031-.056a1.185,1.185,0,0,0-.132-.193,11.091,11.091,0,0,0-1.28-1.209,3.279,3.279,0,0,1-.533-.508,2.306,2.306,0,0,1,.645.376,7.243,7.243,0,0,1,1.376,1.194,1.884,1.884,0,0,1,.157.234l.03.061h0a.346.346,0,0,1-.071.046c-.02,0,0,.036-.046.03-.163.025-.1,0-.117,0h0s.056,0,.066-.03a.045.045,0,0,1,.051-.03.452.452,0,0,0,.091,0h.03v.03l.1.462c.071.295.127.564.163.792a1.382,1.382,0,0,1,.029.7Z" transform="translate(-358.933 -110.595)" fill="#eb996e"/>
        <path id="Path_12747" data-name="Path 12747" d="M443.4,141.877a5.719,5.719,0,0,0-.213-1.59c-.315-.828-.833-1.376-.767-1.437a2.468,2.468,0,0,1,1.016,1.351,2.539,2.539,0,0,1,.142,1.2C443.532,141.714,443.435,141.887,443.4,141.877Z" transform="translate(-361.843 -109.798)" fill="#eb996e"/>
        <path id="Path_12748" data-name="Path 12748" d="M433.461,152.187a6.1,6.1,0,0,1-1.26-1.249,5.882,5.882,0,0,1-1.062-1.427,6.064,6.064,0,0,1,1.26,1.254,6.146,6.146,0,0,1,1.062,1.422Z" transform="translate(-356.292 -115.044)" fill="#eb996e"/>
        <path id="Path_12749" data-name="Path 12749" d="M435.621,149.46a5.108,5.108,0,0,1-1.26-1.046,5.474,5.474,0,0,1-1.082-1.234,5,5,0,0,1,1.265,1.046,5.151,5.151,0,0,1,1.077,1.234Z" transform="translate(-357.346 -113.897)" fill="#eb996e"/>
        <path id="Path_12750" data-name="Path 12750" d="M432.951,156.676a1.285,1.285,0,0,1-.584-.416,2.372,2.372,0,0,1-.559-1.63,2.108,2.108,0,0,1,.254-.935c.137-.259.279-.467.386-.65.213-.361.234-.625.274-.625s.081.295-.107.706a3.775,3.775,0,0,0-.543,1.524,2.54,2.54,0,0,0,.442,1.524C432.748,156.488,432.976,156.635,432.951,156.676Z" transform="translate(-356.62 -116.476)" fill="#eb996e"/>
        <path id="Path_12751" data-name="Path 12751" d="M438.586,155.7a14.726,14.726,0,0,1-1.092,2.032,3.119,3.119,0,0,1-.564.726,1.955,1.955,0,0,1-.65.406c-.417.152-.7.076-.691.046a5.228,5.228,0,0,0,.62-.218,2.646,2.646,0,0,0,1.061-1.1,7.647,7.647,0,0,1,1.316-1.892Z" transform="translate(-358.482 -118.087)" fill="#eb996e"/>
        <path id="Path_12752" data-name="Path 12752" d="M443.817,136.717a4.884,4.884,0,0,1-.122-1.371v.071c-.127-.178-.259-.381-.386-.594-.284-.508-.508-.97-.675-1.3s-.279-.538-.249-.559.2.147.411.462.462.772.742,1.26c.127.208.249.406.366.584v.071a4.569,4.569,0,0,1-.087,1.376Z" transform="translate(-361.824 -106.903)" fill="#eb996e"/>
        <path id="Path_12753" data-name="Path 12753" d="M446.58,138.276c-.025,0,.041-.2.061-.554a12.513,12.513,0,0,0,0-1.437h0c.081-.427.163-.879.249-1.356v-.1h0a1.859,1.859,0,0,0-.508-1.061c-.213-.3-.411-.579-.6-.853a3.378,3.378,0,0,1-.508-.823,3.615,3.615,0,0,1,.65.716l.65.818a5.59,5.59,0,0,1,.371.508,1.28,1.28,0,0,1,.2.706h0v.1c-.1.477-.183.929-.269,1.356h0a8.776,8.776,0,0,1-.117,1.463C446.723,138.1,446.6,138.291,446.58,138.276Z" transform="translate(-363.246 -106.471)" fill="#eb996e"/>
        <path id="Path_12754" data-name="Path 12754" d="M437.124,147.555c-.071,0,.025-.508-.041-1.077s-.259-1.016-.188-1.061.381.386.447,1.016a1.486,1.486,0,0,1-.218,1.122Z" transform="translate(-359.117 -113.028)" fill="#eb996e"/>
        <path id="Path_12755" data-name="Path 12755" d="M440.734,143.851a7.618,7.618,0,0,1-.259-1.122,8.392,8.392,0,0,1-.356-1.092c.051-.046.432.371.609,1.016a1.656,1.656,0,0,1,.006,1.2Z" transform="translate(-360.712 -111.168)" fill="#eb996e"/>
        <rect id="Rectangle_447" data-name="Rectangle 447" width="70.698" height="98.602" transform="translate(15.45 68.007)" fill="#263238"/>
        <path id="Path_12756" data-name="Path 12756" d="M293.2,195.414a34.537,34.537,0,0,1,6.719-22.484l.3.229a34.181,34.181,0,0,0-6.643,22.235Z" transform="translate(-288.382 -126.569)" fill="#263238"/>
        <rect id="Rectangle_448" data-name="Rectangle 448" width="2.951" height="6.318" rx="1.475" transform="translate(12.566 42.854) rotate(35.724)" fill="#263238"/>
        <rect id="Rectangle_449" data-name="Rectangle 449" width="70.698" height="98.602" transform="translate(0 68.007)" fill="#455a64"/>
        <path id="Path_12757" data-name="Path 12757" d="M304.488,215.58a.823.823,0,0,1-.071.269l-.213.772c-.051.168-.1.356-.163.554s-.152.416-.239.645a13.693,13.693,0,0,1-.64,1.554c-.132.279-.269.574-.416.879s-.34.6-.508.924a21.935,21.935,0,0,1-1.27,1.96,25.678,25.678,0,0,1-3.611,3.931,25.2,25.2,0,0,1-4.414,3.007,22.066,22.066,0,0,1-2.123.975c-.34.127-.66.274-.985.376l-.935.29a14.968,14.968,0,0,1-1.625.411c-.239.051-.462.107-.67.142l-.574.076-.792.1c-.183.025-.279.03-.279.03l.274-.051.792-.122.569-.086c.208-.036.427-.1.67-.147a16.488,16.488,0,0,0,1.615-.427l.929-.295c.32-.1.64-.254.98-.381a22.545,22.545,0,0,0,2.108-.98,25.807,25.807,0,0,0,4.393-3,25.509,25.509,0,0,0,3.6-3.911,22.95,22.95,0,0,0,1.27-1.945c.178-.315.371-.615.508-.914s.284-.6.422-.879a16.129,16.129,0,0,0,.655-1.524c.086-.229.178-.442.244-.64l.168-.554c.1-.3.173-.559.234-.762a2.352,2.352,0,0,1,.1-.277Z" transform="translate(-284.356 -147.558)" fill="#263238"/>
        <path id="Path_12758" data-name="Path 12758" d="M297.091,216a1.208,1.208,0,0,1-.025.2l-.091.579a7.163,7.163,0,0,1-.188.914,12.083,12.083,0,0,1-.33,1.188c-.071.218-.147.442-.229.681s-.193.467-.3.721a15.742,15.742,0,0,1-.747,1.524,18.839,18.839,0,0,1-2.255,3.215,19.2,19.2,0,0,1-2.91,2.641c-.508.34-.97.675-1.442.929-.239.132-.457.274-.681.386l-.645.31c-.406.208-.8.34-1.138.477a7.16,7.16,0,0,1-.884.3l-.564.168a1.73,1.73,0,0,1-.2.046l.193-.071.559-.178a9.172,9.172,0,0,0,.874-.315,12.135,12.135,0,0,0,1.122-.508c.208-.1.422-.2.645-.315s.437-.254.67-.386a15.79,15.79,0,0,0,1.427-.929,18,18,0,0,0,5.145-5.825,16.88,16.88,0,0,0,.747-1.524c.1-.249.218-.482.3-.716l.234-.675a11.955,11.955,0,0,0,.345-1.178,7.431,7.431,0,0,0,.2-.9c.046-.223.081-.416.112-.579S297.091,216,297.091,216Z" transform="translate(-284.115 -147.764)" fill="#263238"/>
        <path id="Path_12759" data-name="Path 12759" d="M317.367,229.4a.717.717,0,0,0-.315.188.9.9,0,0,0-.218.411.742.742,0,0,0,.137.63h0a13.448,13.448,0,0,0,2.722.234,4.836,4.836,0,0,0,1.813-.432,3.093,3.093,0,0,0,1.442-1.574,2.54,2.54,0,0,0,.193-1.173,1.783,1.783,0,0,0-.508-1.122,3.337,3.337,0,0,0-2.585-.686,16.882,16.882,0,0,0-6.1,1.63,15.616,15.616,0,0,0-2.986,1.854,6.389,6.389,0,0,0-2.148,2.971,2.92,2.92,0,0,0,1.275,3.377,7.466,7.466,0,0,0,3.956.858,19.386,19.386,0,0,0,8.441-1.823,11.25,11.25,0,0,0,3.555-2.819,8.126,8.126,0,0,0,1.833-4.21,6.821,6.821,0,0,0-1.361-5.079,7.111,7.111,0,0,0-4.571-2.4,13.8,13.8,0,0,0-5.053.274c-.808.213-1.6.457-2.382.681a20.278,20.278,0,0,0-2.25.879,44.893,44.893,0,0,0-7.8,4.571c-2.311,1.646-4.393,3.276-6.323,4.723s-3.7,2.727-5.3,3.789a44.136,44.136,0,0,1-4.256,2.463l-1.62.772c-.482.2-.894.35-1.224.477-.665.259-1.016.386-1.016.386l1.016-.406c.33-.132.741-.284,1.224-.483l1.61-.782a46.421,46.421,0,0,0,4.246-2.479c1.59-1.062,3.372-2.326,5.287-3.794s4.007-3.088,6.318-4.739A44.988,44.988,0,0,1,312.235,222c.736-.3,1.5-.584,2.26-.884a21.508,21.508,0,0,1,2.387-.681,13.91,13.91,0,0,1,5.079-.279,7.192,7.192,0,0,1,4.612,2.438,6.943,6.943,0,0,1,1.387,5.17,8.263,8.263,0,0,1-1.859,4.261,11.265,11.265,0,0,1-3.555,2.844,19.48,19.48,0,0,1-8.487,1.833,7.548,7.548,0,0,1-4.007-.879,3.078,3.078,0,0,1-1.265-1.524,3.047,3.047,0,0,1-.046-1.945,6.476,6.476,0,0,1,2.179-3.017,15.782,15.782,0,0,1,3.007-1.859,17.045,17.045,0,0,1,6.12-1.625,3.411,3.411,0,0,1,2.636.711,1.864,1.864,0,0,1,.538,1.163,2.57,2.57,0,0,1-.2,1.2,3.164,3.164,0,0,1-1.473,1.6,4.841,4.841,0,0,1-1.828.427,13.313,13.313,0,0,1-2.732-.249h0a.752.752,0,0,1-.132-.65.874.874,0,0,1,.224-.416.594.594,0,0,1,.287-.235Z" transform="translate(-284.238 -149.749)" fill="#263238"/>
        <path id="Path_12760" data-name="Path 12760" d="M345.524,215.77l-.676.289a9.679,9.679,0,0,0-1.8,1.092,11.076,11.076,0,0,0-2.235,2.453c-.752,1.062-1.524,2.341-2.473,3.672s-1.976,2.809-3.1,4.373a35.124,35.124,0,0,1-3.956,4.718,22.075,22.075,0,0,1-2.575,2.118,24.822,24.822,0,0,1-3,1.762,30.734,30.734,0,0,1-6.9,2.367,65.33,65.33,0,0,1-14.043,1.168c-4.327.025-8.243,0-11.509.284a15.4,15.4,0,0,0-7.283,2.4,12.6,12.6,0,0,0-1.656,1.3l-.508.508s.173-.188.508-.533a12.63,12.63,0,0,1,1.646-1.32,15.353,15.353,0,0,1,7.3-2.438c3.271-.3,7.182-.3,11.514-.31A64.3,64.3,0,0,0,318.8,238.5a30.712,30.712,0,0,0,6.882-2.357,24.631,24.631,0,0,0,2.986-1.752,22.311,22.311,0,0,0,2.539-2.108,35.078,35.078,0,0,0,3.951-4.7c1.133-1.559,2.143-3.047,3.113-4.368s1.727-2.6,2.484-3.657a10.924,10.924,0,0,1,2.26-2.458,9.621,9.621,0,0,1,1.839-1.072Z" transform="translate(-283.79 -147.651)" fill="#263238"/>
        <path id="Path_12761" data-name="Path 12761" d="M283.77,262.891s.071-.29.218-.843a10.546,10.546,0,0,1,.3-1.016,14.491,14.491,0,0,1,.508-1.361,17.513,17.513,0,0,1,1.844-3.5,17.91,17.91,0,0,1,3.555-3.865,28.082,28.082,0,0,1,12.4-5.419c2.539-.482,5.226-.752,8.015-1.016a75.425,75.425,0,0,0,8.573-1.183,23.4,23.4,0,0,0,7.989-3.19,26.184,26.184,0,0,0,5.907-5.434,70.7,70.7,0,0,0,4.246-5.942c1.254-1.915,2.407-3.708,3.52-5.307.564-.8,1.092-1.554,1.64-2.24.269-.345.508-.691.787-1.016l.782-.909a20.51,20.51,0,0,1,1.473-1.574c.234-.234.447-.467.67-.67l.655-.564c.422-.345.767-.686,1.117-.919l.868-.609.721-.508-.706.508c-.239.168-.508.371-.863.615s-.691.579-1.107.924l-.65.564c-.223.2-.437.442-.67.675-.462.472-.98.975-1.468,1.574l-.777.914c-.264.315-.508.665-.777,1.016-.543.686-1.077,1.448-1.635,2.245-1.107,1.6-2.255,3.393-3.509,5.313a70.35,70.35,0,0,1-4.241,5.937,26.057,26.057,0,0,1-5.927,5.46,23.364,23.364,0,0,1-8.02,3.2,76.038,76.038,0,0,1-8.588,1.188c-2.788.269-5.48.533-8,1.016a28.117,28.117,0,0,0-12.4,5.4,17.959,17.959,0,0,0-5.4,7.329c-.213.508-.366.96-.508,1.356s-.239.736-.31,1.016C283.856,262.627,283.77,262.891,283.77,262.891Z" transform="translate(-283.77 -147.666)" fill="#263238"/>
        <path id="Path_12762" data-name="Path 12762" d="M394.094,258.193a8.808,8.808,0,0,1-.132,1.321,6.335,6.335,0,0,1-.452,1.549,2.54,2.54,0,0,1-1.554,1.473,2.113,2.113,0,0,1-1.3-.03,3.235,3.235,0,0,1-1.214-.777,5.679,5.679,0,0,1-.955-1.254,6.1,6.1,0,0,1-.361-.757,7.874,7.874,0,0,1-.31-.808A15.237,15.237,0,0,1,387.45,251a24.217,24.217,0,0,1,1.361-4.439,13.865,13.865,0,0,1,1.107-2.214,5.017,5.017,0,0,1,1.823-1.793,2.54,2.54,0,0,1,2.57.132,5.181,5.181,0,0,1,1.661,2.169,40.525,40.525,0,0,1,1.788,5.434,47.407,47.407,0,0,1,1.493,12.164q0,1.6-.132,3.22a16.058,16.058,0,0,1-.538,3.235,7.928,7.928,0,0,1-1.524,2.941,5.277,5.277,0,0,1-2.834,1.773,6.527,6.527,0,0,1-3.352-.193,10.065,10.065,0,0,1-2.946-1.524,28.687,28.687,0,0,1-2.5-2.123c-.792-.736-1.58-1.468-2.326-2.235a13.243,13.243,0,0,1-3.372-5.241,12.383,12.383,0,0,1-.061-6.008c.193-.96.437-1.9.716-2.809s.543-1.818.863-2.687c.157-.437.31-.874.462-1.3l.508-1.265c.32-.838.7-1.64,1.051-2.438a57.228,57.228,0,0,1,4.744-8.436,58.327,58.327,0,0,1,9.183-10.518c1.239-1.1,2.225-1.925,2.92-2.448l1.051-.813s-.355.29-1.041.828-1.671,1.361-2.9,2.463a58.97,58.97,0,0,0-9.142,10.569,57.529,57.529,0,0,0-4.729,8.426c-.35.8-.726,1.6-1.041,2.438q-.249.625-.508,1.265c-.152.427-.3.863-.457,1.3-.325.868-.579,1.773-.863,2.682s-.508,1.844-.716,2.8a12.389,12.389,0,0,0,.051,5.927,13.123,13.123,0,0,0,3.352,5.2c.742.762,1.524,1.493,2.321,2.23a28.5,28.5,0,0,0,2.494,2.113,9.782,9.782,0,0,0,2.91,1.524,6.319,6.319,0,0,0,3.3.188,5.165,5.165,0,0,0,2.778-1.732,7.772,7.772,0,0,0,1.524-2.9,15.75,15.75,0,0,0,.508-3.21q.122-1.62.137-3.215a47.182,47.182,0,0,0-1.488-12.139,40.79,40.79,0,0,0-1.772-5.419,5.1,5.1,0,0,0-1.63-2.133,2.453,2.453,0,0,0-2.478-.132,5.013,5.013,0,0,0-1.793,1.762,13.709,13.709,0,0,0-1.1,2.2,24.1,24.1,0,0,0-1.366,4.424,15.237,15.237,0,0,0,.35,7.872,7.963,7.963,0,0,0,.31.8,5.1,5.1,0,0,0,.356.752,5.476,5.476,0,0,0,.94,1.249,3.281,3.281,0,0,0,1.194.772,2.072,2.072,0,0,0,1.275.03,2.473,2.473,0,0,0,1.524-1.447,6.289,6.289,0,0,0,.462-1.524c.076-.427.1-.757.127-.98S394.094,258.193,394.094,258.193Z" transform="translate(-330.796 -151.494)" fill="#263238"/>
        <path id="Path_12763" data-name="Path 12763" d="M328.073,277.46s-.142.122-.411.335a12.307,12.307,0,0,1-1.244.863,17.854,17.854,0,0,1-5.135,2.123,37.464,37.464,0,0,1-8.192.955,83.569,83.569,0,0,0-10.082.559,26.147,26.147,0,0,0-9.442,3.377,23.042,23.042,0,0,0-6.176,5.384,21.76,21.76,0,0,0-2.859,4.749c-.29.594-.432,1.087-.569,1.4a4.681,4.681,0,0,0-.193.508s.056-.173.173-.508a12.188,12.188,0,0,1,.554-1.412,21.124,21.124,0,0,1,2.839-4.779,23,23,0,0,1,6.2-5.455,26.086,26.086,0,0,1,9.477-3.393,81.8,81.8,0,0,1,10.092-.554,37.992,37.992,0,0,0,8.177-.929,18.087,18.087,0,0,0,5.14-2.062,13.052,13.052,0,0,0,1.249-.843C327.926,277.567,328.073,277.46,328.073,277.46Z" transform="translate(-283.77 -178.009)" fill="#263238"/>
        <path id="Path_12764" data-name="Path 12764" d="M284.209,347.524l1.27-.046c.828-.041,2.032-.086,3.621-.284a30.37,30.37,0,0,0,5.587-1.183,36.533,36.533,0,0,0,6.953-3.047,36.147,36.147,0,0,0,7.481-5.338,37.594,37.594,0,0,0,3.51-3.743,40.174,40.174,0,0,0,3.174-4.419c4.022-6.3,6.6-14.267,7.781-22.774a111.081,111.081,0,0,0,.965-11.478l.051.051a57.388,57.388,0,0,0-19.726,3.479,38.3,38.3,0,0,0-13.479,8.583,31.784,31.784,0,0,0-3.875,4.7,36.3,36.3,0,0,0-2.453,3.86,9.91,9.91,0,0,0-1.016,2.677,4.962,4.962,0,0,0-.091.736h0a5.437,5.437,0,0,1,.081-.742,9.883,9.883,0,0,1,.985-2.692,36.988,36.988,0,0,1,2.448-3.87,31.165,31.165,0,0,1,3.87-4.718,38.23,38.23,0,0,1,13.49-8.634A57.349,57.349,0,0,1,324.6,295.15h.056v.051a109.953,109.953,0,0,1-.965,11.493c-1.194,8.517-3.763,16.506-7.8,22.814a40.826,40.826,0,0,1-3.19,4.424,37.071,37.071,0,0,1-3.52,3.743,40.962,40.962,0,0,1-14.475,8.4,30.359,30.359,0,0,1-5.627,1.168c-1.564.193-2.793.234-3.621.264Z" transform="translate(-283.864 -186.715)" fill="#263238"/>
        <path id="Path_12765" data-name="Path 12765" d="M301.239,327.586A11.359,11.359,0,0,1,302,326.6a5.171,5.171,0,0,1,1.117-1.016A3.011,3.011,0,0,1,304,325.2a2.54,2.54,0,0,1,1.092,0,2.072,2.072,0,0,1,1.051.609,1.437,1.437,0,0,1,.335,1.275,3.5,3.5,0,0,1-.655,1.31c-.3.411-.615.838-.96,1.265a29.734,29.734,0,0,1-5.338,5.17,29.142,29.142,0,0,1-3.642,2.352,11.943,11.943,0,0,1-4.383,1.63,3.256,3.256,0,0,1-2.362-.625,3.149,3.149,0,0,1-1.117-2.255,10.62,10.62,0,0,1,1.239-5.145,26.3,26.3,0,0,1,7.11-8.868,46.726,46.726,0,0,1,4.9-3.555,29.857,29.857,0,0,1,5.531-2.87,13.154,13.154,0,0,1,6.13-.914,6.542,6.542,0,0,1,2.875,1.016,4.465,4.465,0,0,1,1.767,2.4,6.5,6.5,0,0,1,.107,2.946,13.589,13.589,0,0,1-.808,2.783,38.59,38.59,0,0,1-2.458,5.038,42.735,42.735,0,0,1-6.248,8.24,46.219,46.219,0,0,1-6.872,5.841,53.6,53.6,0,0,1-11.539,6.069c-1.442.554-2.58.919-3.357,1.168s-1.183.356-1.183.356l1.178-.376c.772-.254,1.91-.625,3.347-1.188a53.655,53.655,0,0,0,11.514-6.1,46.093,46.093,0,0,0,6.846-5.841,42.6,42.6,0,0,0,6.232-8.228,39,39,0,0,0,2.448-5.023,13.921,13.921,0,0,0,.8-2.763,6.435,6.435,0,0,0-.112-2.9,4.353,4.353,0,0,0-1.727-2.341,6.445,6.445,0,0,0-2.824-1.016,13.206,13.206,0,0,0-6.1.909,30.114,30.114,0,0,0-5.465,2.9,47.784,47.784,0,0,0-4.891,3.555,26.25,26.25,0,0,0-7.111,8.832,10.654,10.654,0,0,0-1.239,5.079,3.047,3.047,0,0,0,1.051,2.189,3.129,3.129,0,0,0,2.3.6,11.632,11.632,0,0,0,4.353-1.615,29.87,29.87,0,0,0,8.969-7.481c.345-.427.66-.853.965-1.26a3.643,3.643,0,0,0,.65-1.29,1.412,1.412,0,0,0-.32-1.234,2.067,2.067,0,0,0-1.016-.6,2.474,2.474,0,0,0-1.072,0,2.964,2.964,0,0,0-.874.376,5.433,5.433,0,0,0-1.117.99c-.264.3-.452.554-.579.721Z" transform="translate(-284.479 -196.25)" fill="#263238"/>
        <path id="Path_12766" data-name="Path 12766" d="M373.335,328.683l-.675-.381-1.92-1.112c-.838-.472-1.869-1.051-3.088-1.676a31.893,31.893,0,0,0-4.256-1.854,17.776,17.776,0,0,0-5.526-.924,13.958,13.958,0,0,0-3.1.34,11.442,11.442,0,0,0-3.078,1.209,14.064,14.064,0,0,0-4.891,5.079,27.813,27.813,0,0,0-2.829,7.11c-.7,2.539-1.224,5.053-1.94,7.43a35.421,35.421,0,0,1-6.313,12,41.3,41.3,0,0,1-3.86,4.109,44.644,44.644,0,0,1-6.5,4.932c-.813.508-1.463.884-1.9,1.133s-.681.381-.681.381.229-.142.665-.4,1.092-.63,1.9-1.153a45.87,45.87,0,0,0,6.471-4.947,41.894,41.894,0,0,0,3.845-4.114,35.187,35.187,0,0,0,6.277-11.976c.716-2.372,1.244-4.886,1.94-7.43a27.9,27.9,0,0,1,2.839-7.11,14.185,14.185,0,0,1,4.937-5.1,11.549,11.549,0,0,1,3.1-1.214,13.857,13.857,0,0,1,3.124-.335,17.775,17.775,0,0,1,5.551.94,31.607,31.607,0,0,1,4.261,1.874c1.214.63,2.24,1.214,3.078,1.691C372.426,328.124,373.335,328.683,373.335,328.683Z" transform="translate(-302.962 -200.262)" fill="#263238"/>
        <path id="Path_12767" data-name="Path 12767" d="M385.1,356.829s-.112-.147-.315-.437a5.182,5.182,0,0,0-.406-.508,6.848,6.848,0,0,0-.609-.645,10.341,10.341,0,0,0-4.97-2.539,12.564,12.564,0,0,0-3.885-.218,13.377,13.377,0,0,0-4.276,1.194,21.412,21.412,0,0,0-7.725,6.628,65.477,65.477,0,0,0-5.277,8.832,52.5,52.5,0,0,1-4.322,7.217,19.767,19.767,0,0,1-4.038,3.972c-1.077.792-1.717,1.168-1.717,1.168s.147-.107.442-.3.721-.508,1.249-.9a20.007,20.007,0,0,0,4.007-3.982,53,53,0,0,0,4.292-7.217,65.262,65.262,0,0,1,5.277-8.847,21.29,21.29,0,0,1,7.771-6.653,13.41,13.41,0,0,1,4.322-1.224,12.7,12.7,0,0,1,3.906.234,10.244,10.244,0,0,1,4.977,2.6,6.861,6.861,0,0,1,.609.655,4.3,4.3,0,0,1,.4.508C385,356.672,385.1,356.829,385.1,356.829Z" transform="translate(-315.162 -214.843)" fill="#263238"/>
        <path id="Path_12768" data-name="Path 12768" d="M402.476,383.02a2.246,2.246,0,0,1,.386,0,2.291,2.291,0,0,1,1.061.33,3.22,3.22,0,0,1,1.188,1.3,3,3,0,0,1,.183,2.3,3.906,3.906,0,0,1-1.813,2.133,3.992,3.992,0,0,1-3.174.366,4.987,4.987,0,0,1-2.758-2.235,5.585,5.585,0,0,1-.681-1.788,6.215,6.215,0,0,1-.03-1.965,7.953,7.953,0,0,1,4.312-5.805,6.845,6.845,0,0,1,3.154-.741,5.952,5.952,0,0,1,1.468.218,5.8,5.8,0,0,1,1.244.564,5.292,5.292,0,0,1,2.4,3.23,4.028,4.028,0,0,1,.107,1.107,1.667,1.667,0,0,1-.036.391,4.724,4.724,0,0,0-.112-1.488,5.246,5.246,0,0,0-2.4-3.174,5.644,5.644,0,0,0-1.229-.549A5.749,5.749,0,0,0,404.3,377a6.831,6.831,0,0,0-3.113.741,7.872,7.872,0,0,0-4.246,5.734,6.142,6.142,0,0,0,.025,1.93,5.5,5.5,0,0,0,.665,1.752,4.927,4.927,0,0,0,2.7,2.2,3.936,3.936,0,0,0,3.1-.35,3.85,3.85,0,0,0,1.783-2.082,2.946,2.946,0,0,0-.168-2.245,3.159,3.159,0,0,0-1.153-1.29,2.311,2.311,0,0,0-1.041-.345C402.608,383.01,402.476,383.05,402.476,383.02Z" transform="translate(-339.381 -226.95)" fill="#263238"/>
        <path id="Path_12769" data-name="Path 12769" d="M437.031,160.11a1.236,1.236,0,0,1,.046.4,4.627,4.627,0,0,1-.091,1.087,3.306,3.306,0,0,1-.721,1.473,2.539,2.539,0,0,1-1.773.945,2.905,2.905,0,0,1-1.889-.7,3.683,3.683,0,0,1-.965-1.321,9.883,9.883,0,0,1-.406-1.016,1.177,1.177,0,0,1-.1-.386c.017-.005.249.508.67,1.31a3.813,3.813,0,0,0,.95,1.219,2.763,2.763,0,0,0,1.727.62,2.326,2.326,0,0,0,1.6-.843,3.312,3.312,0,0,0,.726-1.351C437.011,160.689,436.975,160.1,437.031,160.11Z" transform="translate(-356.287 -120.26)" fill="#263238"/>
      </g>
      <g id="Group_3313" data-name="Group 3313" transform="translate(174.461 188.331)">
        <path id="Path_12770" data-name="Path 12770" d="M380.745,384.676l-13.078.706.711-11.224s-.9-.132-1.29-4.967-1.158-13.053-1.158-13.053h0a16.867,16.867,0,0,1,17.05,1.016l.757.508Z" transform="translate(-347.438 -347.237)" fill="#aa6550"/>
        <path id="Path_12771" data-name="Path 12771" d="M398.76,372.155c.076-.041,3.261-1.209,3.377,2.108a2.491,2.491,0,0,1-3.256,2.656C398.882,376.8,398.76,372.155,398.76,372.155Z" transform="translate(-363.594 -355.911)" fill="#aa6550"/>
        <path id="Path_12772" data-name="Path 12772" d="M365.359,373.012c-.086-.031-3.088-.625-2.763,2.677s3.581,2.291,3.555,2.194S365.359,373.012,365.359,373.012Z" transform="translate(-345.785 -356.417)" fill="#aa6550"/>
        <path id="Path_12773" data-name="Path 12773" d="M383,362.2c-.31,2.809-.112,4.256-.447,6.14a9.726,9.726,0,0,1-4.373,6.968c-2.539,1.641-6.12,1.854-8.522,0a7.792,7.792,0,0,1-3.261-4.835c-.376-2.067-.853-5.739-1.016-7.832-.279-3.779-.772-7.374-.772-7.374l10.666-2.677,6.394,3.256Z" transform="translate(-346.788 -346.397)" fill="#263238"/>
        <path id="Path_12774" data-name="Path 12774" d="M362.891,353.766a2.1,2.1,0,0,1-1.813-.376c-.508-.366-.767-1.828-.767-1.828s-1.376-.686-1.564-1.351a1.889,1.889,0,0,1,.442-1.915,3.555,3.555,0,0,1,4.312-4.571,3.51,3.51,0,0,1,5.551-1.092,4.53,4.53,0,0,1,8.365,1.488,2.235,2.235,0,0,1,3.479,2.626,1.793,1.793,0,0,1,1.757,2.946c-.284.315-.7.559-.792.975a2.585,2.585,0,0,0,.249,1.112,2.306,2.306,0,0,1-.929,2.275,6.775,6.775,0,0,1-2.367,1.016,6.547,6.547,0,0,1-2.915.391,2.271,2.271,0,0,1-1.986-1.894,4.855,4.855,0,0,1-6.526-.676,2.539,2.539,0,0,1-4.353.508" transform="translate(-343.856 -340.396)" fill="#263238"/>
        <path id="Path_12775" data-name="Path 12775" d="M380.79,400.662a3.509,3.509,0,0,0,1.9.041,3.556,3.556,0,0,0,1.757-.716c-.036-.081-.818.223-1.823.4a15.06,15.06,0,0,0-1.834.275Z" transform="translate(-354.751 -369.715)" fill="#263238"/>
        <path id="Path_12776" data-name="Path 12776" d="M335.73,426.4s.848-11.6,2.824-13.292,14.485-5.434,14.485-5.434l13.241-.589s7.7,2.438,8.263,2.748,4.942,1.437,6.917,5.394a93.54,93.54,0,0,1,4.246,11.89Z" transform="translate(-332.576 -373.217)" fill="#d72027"/>
        <path id="Path_12777" data-name="Path 12777" d="M383.724,367.78a.554.554,0,0,1-.168.543,1.219,1.219,0,0,1-.594.366,6.278,6.278,0,0,1-.9.127,1.966,1.966,0,0,0-.96.4,4.392,4.392,0,0,1-1.107.67,3.093,3.093,0,0,1-2.925-.427l.178-.025a2.956,2.956,0,0,1-1.4.975,2.829,2.829,0,0,1-2.285-.223,2.946,2.946,0,0,1-1.341-1.59l.2.036a2.235,2.235,0,0,1-1.849.777,2.087,2.087,0,0,1-1.387-.691,2.032,2.032,0,0,1-.508-.879.836.836,0,0,1-.036-.35,2.54,2.54,0,0,0,.615,1.133,1.946,1.946,0,0,0,1.3.594,2.032,2.032,0,0,0,1.651-.731l.132-.157.071.193a2.722,2.722,0,0,0,1.239,1.442,2.575,2.575,0,0,0,2.082.193,2.727,2.727,0,0,0,1.28-.879l.081-.1.1.076a2.89,2.89,0,0,0,2.692.422,4.393,4.393,0,0,0,1.072-.625,2.1,2.1,0,0,1,1.051-.4,7.75,7.75,0,0,0,.889-.086,1.214,1.214,0,0,0,.559-.3A.808.808,0,0,0,383.724,367.78Z" transform="translate(-348.771 -353.729)" fill="#455a64"/>
        <path id="Path_12778" data-name="Path 12778" d="M370.138,358.093a1.727,1.727,0,0,1-.259-.508A3.8,3.8,0,0,1,369.7,356a3.956,3.956,0,0,1,.9-2.194,4,4,0,0,1,2.565-1.346,3.945,3.945,0,0,1,1.869.218l-.152.051a3,3,0,0,1,1.808-1.326,2.834,2.834,0,0,1,1.778.137,2.762,2.762,0,0,1,.97.66,1.015,1.015,0,0,1,.249.34,3.834,3.834,0,0,0-1.275-.848,2.737,2.737,0,0,0-1.661-.076,2.819,2.819,0,0,0-1.651,1.244l-.056.091-.1-.036a3.693,3.693,0,0,0-1.747-.193,3.814,3.814,0,0,0-2.412,1.244,3.869,3.869,0,0,0-.9,2.032A4.754,4.754,0,0,0,370.138,358.093Z" transform="translate(-349.284 -345.77)" fill="#455a64"/>
        <path id="Path_12779" data-name="Path 12779" d="M381.558,360.283a1.7,1.7,0,0,1-.163-.32,4.255,4.255,0,0,1-.249-.935,2.971,2.971,0,0,1,.107-1.448,2.189,2.189,0,0,1,1.239-1.29,1.57,1.57,0,0,1,.94-.066l-.163.132a2.321,2.321,0,0,1,.447-1.4,2.484,2.484,0,0,1,.874-.772,2.169,2.169,0,0,1,.736-.234h.279a4.115,4.115,0,0,0-.93.366,2.392,2.392,0,0,0-.772.752,2.214,2.214,0,0,0-.376,1.265v.183l-.168-.036a1.3,1.3,0,0,0-.782.061,1.985,1.985,0,0,0-1.1,1.128,3.1,3.1,0,0,0-.152,1.341C381.421,359.8,381.609,360.268,381.558,360.283Z" transform="translate(-354.904 -347.066)" fill="#455a64"/>
        <path id="Path_12780" data-name="Path 12780" d="M381.238,380.49a1.322,1.322,0,0,1-.66.574,2.032,2.032,0,0,1-.97.173,1.92,1.92,0,0,1-1.143-.442h.178a2.036,2.036,0,0,1-.218.193,1.95,1.95,0,0,1-1.275.366,1.828,1.828,0,0,1-1.016-.391,1.244,1.244,0,0,1-.543-.8,3.668,3.668,0,0,0,.655.65,1.7,1.7,0,0,0,.909.3,1.752,1.752,0,0,0,1.1-.34,2,2,0,0,0,.193-.157l.086-.086.091.076a1.92,1.92,0,0,0,1.869.3,4.67,4.67,0,0,0,.744-.416Z" transform="translate(-352.192 -359.964)" fill="#455a64"/>
        <path id="Path_12781" data-name="Path 12781" d="M385.358,385.92c.03,0,0,.218-.122.508a1.854,1.854,0,0,1-2.25.935c-.325-.107-.472-.259-.457-.284a3.806,3.806,0,0,1,.508.107,1.971,1.971,0,0,0,2.032-.848C385.251,386.1,385.307,385.909,385.358,385.92Z" transform="translate(-355.606 -362.798)" fill="#455a64"/>
        <path id="Path_12782" data-name="Path 12782" d="M350.663,440.191a14.034,14.034,0,0,1-.31-2.748,14.869,14.869,0,0,1-.046-2.763,14.1,14.1,0,0,1,.31,2.748A14.861,14.861,0,0,1,350.663,440.191Z" transform="translate(-339.728 -386.794)" fill="#263238"/>
        <path id="Path_12783" data-name="Path 12783" d="M416.45,424.951a7.507,7.507,0,0,1,.716-1.849,7.318,7.318,0,0,1,.955-1.732,15,15,0,0,1-1.671,3.581Z" transform="translate(-372.299 -380.244)" fill="#263238"/>
        <path id="Path_12784" data-name="Path 12784" d="M413.249,440.909a14.429,14.429,0,0,1,.229-2.727,14.763,14.763,0,0,1,.508-2.692,14.406,14.406,0,0,1-.229,2.727A13.71,13.71,0,0,1,413.249,440.909Z" transform="translate(-370.724 -387.193)" fill="#263238"/>
        <path id="Path_12785" data-name="Path 12785" d="M345.145,439.353a9.209,9.209,0,0,1-.716-1.524,9.047,9.047,0,0,1-.569-1.59,9.264,9.264,0,0,1,.716,1.524A10.11,10.11,0,0,1,345.145,439.353Z" transform="translate(-336.577 -387.562)" fill="#fafafa"/>
        <path id="Path_12786" data-name="Path 12786" d="M354.35,425.347a9.737,9.737,0,0,1,.218-1.7,8.812,8.812,0,0,1,.376-1.676,9.788,9.788,0,0,1-.218,1.7,8.817,8.817,0,0,1-.376,1.676Z" transform="translate(-341.739 -380.539)" fill="#fafafa"/>
        <path id="Path_12787" data-name="Path 12787" d="M364.217,435.393a10.159,10.159,0,0,1-.95-1.524,10.7,10.7,0,0,1-.808-1.59,9.69,9.69,0,0,1,.95,1.524,10.154,10.154,0,0,1,.808,1.59Z" transform="translate(-345.73 -385.613)" fill="#fafafa"/>
        <path id="Path_12788" data-name="Path 12788" d="M363.284,416.351a11.3,11.3,0,0,1-1.757-.782,11.971,11.971,0,0,1-1.686-.919,11.553,11.553,0,0,1,1.757.777,11.675,11.675,0,0,1,1.686.924Z" transform="translate(-344.441 -376.937)" fill="#fafafa"/>
        <path id="Path_12789" data-name="Path 12789" d="M373.82,422.162a14.81,14.81,0,0,1,.929-1.879,13.79,13.79,0,0,1,1.072-1.8,13.028,13.028,0,0,1-.929,1.879,13.781,13.781,0,0,1-1.072,1.8Z" transform="translate(-351.32 -378.822)" fill="#fafafa"/>
        <path id="Path_12790" data-name="Path 12790" d="M381.785,413.058a11.027,11.027,0,0,1-1.778-.325,10.013,10.013,0,0,1-1.747-.482,11.03,11.03,0,0,1,1.778.325,10.013,10.013,0,0,1,1.747.482Z" transform="translate(-353.506 -375.756)" fill="#fafafa"/>
        <path id="Path_12791" data-name="Path 12791" d="M387.9,432.836a10.663,10.663,0,0,1,.03-1.808,9.932,9.932,0,0,1,.183-1.8,10.342,10.342,0,0,1,0,1.808,10.194,10.194,0,0,1-.213,1.8Z" transform="translate(-358.235 -384.112)" fill="#fafafa"/>
        <path id="Path_12792" data-name="Path 12792" d="M377.234,439.183a12.137,12.137,0,0,1-.371-1.869,11.675,11.675,0,0,1-.213-1.894,11.171,11.171,0,0,1,.371,1.869,10.965,10.965,0,0,1,.213,1.894Z" transform="translate(-352.713 -387.158)" fill="#fafafa"/>
        <path id="Path_12793" data-name="Path 12793" d="M358.712,443.78a4.774,4.774,0,0,1-1.067-.564,4.509,4.509,0,0,1-.985-.7,4.857,4.857,0,0,1,1.067.559A4.571,4.571,0,0,1,358.712,443.78Z" transform="translate(-342.876 -390.652)" fill="#fafafa"/>
        <path id="Path_12794" data-name="Path 12794" d="M397.485,441c.025.041-.675.508-1.473,1.133s-1.412,1.2-1.442,1.173a6.549,6.549,0,0,1,1.341-1.3A6.713,6.713,0,0,1,397.485,441Z" transform="translate(-361.532 -389.904)" fill="#fafafa"/>
        <path id="Path_12795" data-name="Path 12795" d="M406.089,430.807c-.041.03-.584-.686-1.3-1.524s-1.336-1.524-1.3-1.524a8.632,8.632,0,0,1,1.427,1.432,9.041,9.041,0,0,1,1.183,1.615Z" transform="translate(-365.915 -383.389)" fill="#fafafa"/>
        <path id="Path_12796" data-name="Path 12796" d="M396.9,416a11.486,11.486,0,0,1-1.5,1.2,11.656,11.656,0,0,1-1.6,1.072,12.011,12.011,0,0,1,1.5-1.2A11.866,11.866,0,0,1,396.9,416Z" transform="translate(-361.158 -377.602)" fill="#fafafa"/>
        <path id="Path_12797" data-name="Path 12797" d="M411.334,416.99a15.961,15.961,0,0,1-.533-2.25,16.2,16.2,0,0,1-.381-2.28,18.122,18.122,0,0,1,.533,2.25A17.153,17.153,0,0,1,411.334,416.99Z" transform="translate(-369.332 -375.859)" fill="#fafafa"/>
        <path id="Path_12798" data-name="Path 12798" d="M424.391,432.6a6.726,6.726,0,0,1-.863-1.681,6.567,6.567,0,0,1-.508-1.828c.046,0,.269.8.645,1.767S424.432,432.6,424.391,432.6Z" transform="translate(-375.532 -384.043)" fill="#fafafa"/>
        <path id="Path_12799" data-name="Path 12799" d="M421.56,442.1a7.943,7.943,0,0,1,.508-1.488,7.643,7.643,0,0,1,.645-1.427,7.95,7.95,0,0,1-.508,1.488,7.649,7.649,0,0,1-.645,1.427Z" transform="translate(-374.814 -389.009)" fill="#fafafa"/>
        <path id="Path_12800" data-name="Path 12800" d="M337.311,436.95h38.163a7.8,7.8,0,0,1,7.822,7.8v15.745H329.52V444.746A7.8,7.8,0,0,1,337.311,436.95Z" transform="translate(-329.52 -387.911)" fill="#455a64"/>
        <path id="Path_12801" data-name="Path 12801" d="M383.464,455.12a1.884,1.884,0,0,1-.264.2l-.792.543c-.686.472-1.7,1.117-2.976,1.879s-2.824,1.625-4.571,2.539-3.723,1.793-5.826,2.651-4.149,1.559-6.024,2.153-3.591,1.046-5.038,1.381-2.626.584-3.449.721l-.945.163a1.6,1.6,0,0,1-.33.035,1.444,1.444,0,0,1,.32-.091l.935-.208c.813-.168,1.986-.437,3.423-.8s3.139-.843,5.008-1.432,3.9-1.321,6-2.169,4.063-1.752,5.81-2.621,3.311-1.717,4.6-2.458,2.311-1.366,3.012-1.808l.818-.508A1.331,1.331,0,0,1,383.464,455.12Z" transform="translate(-341.198 -396.853)" fill="#263238"/>
        <path id="Path_12802" data-name="Path 12802" d="M345.261,437.051a1.112,1.112,0,0,1-.3.025l-.868.041a20.026,20.026,0,0,0-3.159.427,7.861,7.861,0,0,0-2.032.752,5.378,5.378,0,0,0-1.854,1.62,6.733,6.733,0,0,0-1.016,2.539,18.726,18.726,0,0,0-.274,2.976c-.127,4.114-.239,7.837-.32,10.574-.056,1.326-.1,2.412-.127,3.2,0,.356-.036.645-.051.874a1.264,1.264,0,0,1-.036.3,1.159,1.159,0,0,1,0-.3v-.868c0-.792.025-1.879.046-3.2.061-2.738.147-6.46.244-10.574a18.281,18.281,0,0,1,.284-3.047,6.942,6.942,0,0,1,1.067-2.631,5.5,5.5,0,0,1,1.95-1.671,7.774,7.774,0,0,1,2.108-.742,17.779,17.779,0,0,1,3.2-.345h.874a1.991,1.991,0,0,1,.269.05Z" transform="translate(-332.32 -387.931)" fill="#263238"/>
      </g>
      <g id="Group_3314" data-name="Group 3314" transform="translate(111.839 192.951)">
        <path id="Path_12803" data-name="Path 12803" d="M213.36,426.8s.848-7.481,2.824-9.173,9.33-3.87,9.33-3.87l16.76-1.072s9.315,1.361,9.878,1.666,4.942,1.442,6.917,5.394a29.624,29.624,0,0,1,2.539,8.324Z" transform="translate(-209.693 -380.593)" fill="#d72027"/>
        <path id="Path_12804" data-name="Path 12804" d="M238.636,391.633l12.7.183-1.188-11.463s.94.472,1.122-4.226.62-12.667.62-12.667h0a16.334,16.334,0,0,0-16.456,1.615l-.711.508Z" transform="translate(-220.205 -355.625)" fill="#ffbe9d"/>
        <path id="Path_12805" data-name="Path 12805" d="M234.194,380.4c-.076-.036-3.2-1.041-3.184,2.169s3.235,2.539,3.24,2.443S234.194,380.4,234.194,380.4Z" transform="translate(-218.379 -364.615)" fill="#ffbe9d"/>
        <path id="Path_12806" data-name="Path 12806" d="M266.424,379.976c.081-.036,2.966-.726,2.778,2.478s-3.372,2.357-3.372,2.265S266.424,379.976,266.424,379.976Z" transform="translate(-235.514 -364.452)" fill="#ffbe9d"/>
        <path id="Path_12807" data-name="Path 12807" d="M241.9,353.828s-4.378-.157-5.942.64c-2.6,1.331-4.617,5.033-4.657,9.609s2.032,10.783,5.394,13.85a14.581,14.581,0,0,0,6.013,3.631s7.11-3.885,7.908-9.553,1.336-11.138-.889-13.891a13.046,13.046,0,0,0-7.827-4.286Z" transform="translate(-218.521 -351.62)" fill="#263238"/>
        <path id="Path_12808" data-name="Path 12808" d="M232.239,364.9c-.259-2.91-.508-5.912.406-8.685s3.3-5.282,6.217-5.389a19.132,19.132,0,0,0,2.8,0,11.706,11.706,0,0,0,2.265-.838,5.912,5.912,0,0,1,4.063-.249,3.555,3.555,0,0,1,2.443,3.047,5.191,5.191,0,0,0,.071,1.686c.2.548.721.9,1.082,1.356a3.611,3.611,0,0,1,.645,2.611,10.535,10.535,0,0,1-.742,2.646q-1.188,3.2-2.387,6.394" transform="translate(-218.866 -349.493)" fill="#263238"/>
        <path id="Path_12809" data-name="Path 12809" d="M245.619,382.222a5.775,5.775,0,0,1,8.284,4.571c.2,1.9.208,2.2,1.432,3.667.762.9,1.488.853,2.382,1.625a3.555,3.555,0,0,1,.813,4.175c2.3-.112,4.449-.259,5.236,1.9-3.438-.711-6.872,2.5-10.3,1.788a5.645,5.645,0,0,1-5.175-4.282q-1.387-3.139-2.763-6.283a10.691,10.691,0,0,1-1.224-4.414,3.648,3.648,0,0,1,2.4-3.555" transform="translate(-224.918 -365.205)" fill="#263238"/>
        <path id="Path_12810" data-name="Path 12810" d="M243.939,381.23a4.85,4.85,0,0,1,1.666-5.353,4.916,4.916,0,0,1,5.627.223,4.657,4.657,0,0,1,1.925,3.982,3.047,3.047,0,0,1-2.829,2.824" transform="translate(-224.624 -362.094)" fill="#d72027"/>
        <path id="Path_12811" data-name="Path 12811" d="M251.028,379.954a5.114,5.114,0,0,0-6.674.335c-1.64,1.635-1.8,5.018-1.3,7.283.533,2.438,2.032,4.794,1.524,7.243-.3,1.488-1.326,3-.731,4.4.477,1.133,1.823,1.625,2.539,2.621,1.067,1.458.538,3.5-.178,5.165s-1.6,3.454-1.1,5.191c.386,1.351,1.524,2.321,2.428,3.393s1.635,2.575,1.016,3.84a3.581,3.581,0,0,0,5.653-3.606,4.282,4.282,0,0,1,1.2,2.753,5.77,5.77,0,0,0,4.363-8.847c-.772-1.219-2.032-2.2-2.291-3.621-.315-1.686.909-3.342.752-5.053a5.6,5.6,0,0,0-2.59-3.657,12.147,12.147,0,0,1-3.428-3.047c-1.3-2.128-.7-4.845-.193-7.288s.742-5.323-1.016-7.11" transform="translate(-224.181 -363.952)" fill="#263238"/>
        <path id="Path_12812" data-name="Path 12812" d="M237.743,384c-1.737,1.173-1.849,3.657-1.61,5.739s.579,4.414-.7,6.1c-.863,1.117-2.372,1.767-2.814,3.108-.508,1.63.808,3.271.96,4.982a6.392,6.392,0,0,1-1.016,3.555,13.937,13.937,0,0,0-1.58,3.357,3.411,3.411,0,0,0,.879,3.423,4.464,4.464,0,0,0,2.184.782,26.983,26.983,0,0,0,8.36-.025,44.057,44.057,0,0,0,1.656-10.341c0-6.948-3.286-13.571-3.372-20.524" transform="translate(-218.306 -366.474)" fill="#263238"/>
        <path id="Path_12813" data-name="Path 12813" d="M248.779,417.793a1.8,1.8,0,0,1-.284-.315l-.777-.929a42.06,42.06,0,0,1-2.727-3.555,10.463,10.463,0,0,1-1.346-2.8,5.587,5.587,0,0,1,.076-3.555,22.854,22.854,0,0,1,1.767-3.5,6.815,6.815,0,0,0,1.1-3.875c-.157-1.392-1.061-2.539-1.478-3.865a4.19,4.19,0,0,1-.188-1.016,3.048,3.048,0,0,1,.168-1.016,5.333,5.333,0,0,1,1.087-1.625,8.937,8.937,0,0,0,1.112-1.4,3.179,3.179,0,0,0,.472-1.58,9.06,9.06,0,0,0-.549-2.971,9.87,9.87,0,0,1-.508-2.5,3.809,3.809,0,0,1,.391-1.9,2.539,2.539,0,0,1,.787-.935,1.335,1.335,0,0,1,.381-.193,2.712,2.712,0,0,0-1.056,1.183,3.809,3.809,0,0,0-.32,1.833,10.158,10.158,0,0,0,.569,2.443,9.142,9.142,0,0,1,.6,3.047,3.5,3.5,0,0,1-.477,1.7,9.192,9.192,0,0,1-1.138,1.453,4.956,4.956,0,0,0-1.016,1.524,2.635,2.635,0,0,0-.208.9,3.871,3.871,0,0,0,.178.945c.386,1.249,1.346,2.407,1.493,3.926a4.926,4.926,0,0,1-.269,2.164,13.23,13.23,0,0,1-.874,1.9,23.628,23.628,0,0,0-1.767,3.449,5.3,5.3,0,0,0-.091,3.383,10.468,10.468,0,0,0,1.275,2.748c1.016,1.574,2.032,2.743,2.636,3.581.32.416.569.747.726.97a2.112,2.112,0,0,1,.255.381Z" transform="translate(-224.471 -364.639)" fill="#455a64"/>
        <path id="Path_12814" data-name="Path 12814" d="M240.56,393.114a10.343,10.343,0,0,0,.67-2.346,15.911,15.911,0,0,0,.1-2.651c-.025-1.016-.1-2.118-.036-3.291a7.75,7.75,0,0,1,.808-3.225,4.962,4.962,0,0,1,1.9-1.94,3.368,3.368,0,0,1,1.778-.442,2.444,2.444,0,0,1,.508.081c.112.03.168.051.163.061s-.239-.025-.655,0a3.5,3.5,0,0,0-1.661.508,4.83,4.83,0,0,0-1.757,1.879,7.69,7.69,0,0,0-.747,3.1c-.066,1.148,0,2.255,0,3.266a14.371,14.371,0,0,1-.173,2.692,7.025,7.025,0,0,1-.543,1.742,2,2,0,0,1-.355.566Z" transform="translate(-223.078 -364.12)" fill="#455a64"/>
        <path id="Path_12815" data-name="Path 12815" d="M266.083,416.547a2.818,2.818,0,0,1,.041-.4,6.229,6.229,0,0,0,0-1.148,14.392,14.392,0,0,0-.985-4.063c-.361-.8-.924-1.625-1.346-2.606a6.626,6.626,0,0,1-.508-1.595,5.738,5.738,0,0,1,.025-1.767c.091-.594.229-1.188.3-1.793a5.8,5.8,0,0,0-.041-1.849,6.135,6.135,0,0,0-1.808-3.367c-.955-.934-2.291-1.356-3.271-2.28a6.1,6.1,0,0,1-1.7-3.352,12.632,12.632,0,0,1-.112-3.393c.086-1.056.213-2.032.269-2.92a11.974,11.974,0,0,0-.03-2.4,3.169,3.169,0,0,0-.665-1.63,2.194,2.194,0,0,0-1.285-.777,1.123,1.123,0,0,1,.406.051,2.159,2.159,0,0,1,.975.64,3.352,3.352,0,0,1,.752,1.686,11.448,11.448,0,0,1,.076,2.438c-.041.9-.152,1.879-.229,2.931a12.486,12.486,0,0,0,.137,3.316,5.836,5.836,0,0,0,1.625,3.174c.909.863,2.245,1.285,3.276,2.275a6.45,6.45,0,0,1,1.9,3.555,6.193,6.193,0,0,1,.036,1.935c-.086.63-.223,1.224-.315,1.8a5.391,5.391,0,0,0-.041,1.686,6.1,6.1,0,0,0,.452,1.524c.4.965.945,1.778,1.3,2.621a13.652,13.652,0,0,1,.9,4.17,5.434,5.434,0,0,1-.051,1.163,1.47,1.47,0,0,1-.071.3C266.1,416.517,266.088,416.547,266.083,416.547Z" transform="translate(-230.17 -365.099)" fill="#455a64"/>
        <path id="Path_12816" data-name="Path 12816" d="M264.564,398.423a5.277,5.277,0,0,0,.274-.777,4.22,4.22,0,0,0-.132-2.2,4.353,4.353,0,0,0-2.174-2.367,4.4,4.4,0,0,1-1.707-1.117,8.969,8.969,0,0,1-1.072-1.9,10.384,10.384,0,0,1-.508-4.144,9.229,9.229,0,0,0-.4-3.3,4.022,4.022,0,0,0-1.26-1.8c-.421-.325-.716-.406-.7-.437s.076,0,.213.046a2.565,2.565,0,0,1,.559.289,3.926,3.926,0,0,1,1.4,1.823,9.086,9.086,0,0,1,.508,3.372,10.307,10.307,0,0,0,.508,4.022,8.97,8.97,0,0,0,1.016,1.823,3.081,3.081,0,0,0,.736.625c.269.168.564.279.863.437a4.526,4.526,0,0,1,2.24,2.539,4.094,4.094,0,0,1,.03,2.3,2.586,2.586,0,0,1-.254.579C264.6,398.373,264.564,398.428,264.564,398.423Z" transform="translate(-231.114 -364.686)" fill="#455a64"/>
        <path id="Path_12817" data-name="Path 12817" d="M238.04,374.2a4.2,4.2,0,0,1-1.285-.777,8.532,8.532,0,0,1-2.285-2.819,8.634,8.634,0,0,1-.94-3.509,3.9,3.9,0,0,1,.137-1.493c.056,0,0,.574.1,1.478a9.65,9.65,0,0,0,3.139,6.171C237.578,373.853,238.071,374.148,238.04,374.2Z" transform="translate(-219.609 -357.419)" fill="#455a64"/>
        <path id="Path_12818" data-name="Path 12818" d="M237.355,381.49a6.488,6.488,0,0,1-2.2-1.148,6.776,6.776,0,0,1-1.844-1.666,19.79,19.79,0,0,1,2.032,1.4,16.432,16.432,0,0,1,2.012,1.414Z" transform="translate(-219.507 -363.853)" fill="#455a64"/>
        <path id="Path_12819" data-name="Path 12819" d="M264.736,368a7.825,7.825,0,0,1-1.127,3.708,8.058,8.058,0,0,1-2.539,2.931,20.479,20.479,0,0,0,2.25-3.088A25.972,25.972,0,0,0,264.736,368Z" transform="translate(-233.171 -358.6)" fill="#455a64"/>
        <path id="Path_12820" data-name="Path 12820" d="M267.732,372.93a9.1,9.1,0,0,1-.96,3.017,9.4,9.4,0,0,1-1.686,2.682c-.066-.046.665-1.249,1.392-2.819S267.641,372.9,267.732,372.93Z" transform="translate(-235.146 -361.026)" fill="#455a64"/>
        <path id="Path_12821" data-name="Path 12821" d="M260.934,353.839a10.558,10.558,0,0,1-.6-1.194,3.909,3.909,0,0,0-.848-1.107,2.194,2.194,0,0,0-1.524-.574,4.165,4.165,0,0,0-2.727,1.346,7.693,7.693,0,0,1-.97.919,4.236,4.236,0,0,1,.808-1.082,5.375,5.375,0,0,1,1.128-.965,3.408,3.408,0,0,1,1.762-.543,2.422,2.422,0,0,1,1.722.676,3.7,3.7,0,0,1,.853,1.229,3.926,3.926,0,0,1,.4,1.3Z" transform="translate(-229.82 -350.057)" fill="#455a64"/>
        <path id="Path_12822" data-name="Path 12822" d="M259.175,418.626a2.127,2.127,0,0,1-.3-.259c-.183-.178-.457-.442-.787-.808a9.949,9.949,0,0,1-1.1-1.417,5.033,5.033,0,0,1-.787-2.25,3.834,3.834,0,0,1,.188-1.4,7.258,7.258,0,0,1,.645-1.366,6.369,6.369,0,0,0,1.168-2.951,6.212,6.212,0,0,0-.98-3.342c-.625-1.072-1.473-2.062-2.225-3.184a8.8,8.8,0,0,1-1.488-3.631,14.489,14.489,0,0,1-.061-3.652c.234-2.316.686-4.348.757-6.095a11.377,11.377,0,0,0-.4-4.063c-.3-.924-.584-1.387-.554-1.4a1.8,1.8,0,0,1,.213.33,6.868,6.868,0,0,1,.462,1.016,11.026,11.026,0,0,1,.508,4.119c-.046,1.762-.477,3.814-.691,6.1a14.124,14.124,0,0,0,.076,3.555,8.558,8.558,0,0,0,1.447,3.5c.731,1.1,1.585,2.092,2.225,3.2a6.481,6.481,0,0,1,1.016,3.52,6.361,6.361,0,0,1-1.234,3.047,7.241,7.241,0,0,0-.64,1.31,3.555,3.555,0,0,0-.193,1.3,4.79,4.79,0,0,0,.711,2.169,10.445,10.445,0,0,0,1.016,1.432c.31.376.569.65.736.843a1.461,1.461,0,0,1,.264.376Z" transform="translate(-229.326 -365.889)" fill="#455a64"/>
        <path id="Path_12823" data-name="Path 12823" d="M213.936,436.95h38.183a7.8,7.8,0,0,1,7.786,7.8v15.745H206.14V444.746a7.8,7.8,0,0,1,7.8-7.8Z" transform="translate(-206.14 -392.531)" fill="#455a64"/>
        <path id="Path_12824" data-name="Path 12824" d="M258.464,455.12a1.882,1.882,0,0,1-.264.2l-.792.543c-.686.472-1.7,1.117-2.976,1.879s-2.824,1.625-4.571,2.539-3.723,1.793-5.825,2.651-4.149,1.559-6.024,2.153-3.591,1.046-5.038,1.381-2.626.584-3.449.721l-.945.163a1.6,1.6,0,0,1-.33.035,1.444,1.444,0,0,1,.32-.091l.935-.208c.813-.168,1.986-.437,3.423-.8s3.139-.843,5.008-1.432,3.9-1.321,6-2.169,4.063-1.752,5.81-2.621,3.311-1.717,4.6-2.458,2.311-1.366,3.012-1.808l.818-.508a1.33,1.33,0,0,1,.29-.173Z" transform="translate(-217.021 -401.473)" fill="#263238"/>
        <path id="Path_12825" data-name="Path 12825" d="M220.261,437.051a1.116,1.116,0,0,1-.3.025l-.868.041a20.027,20.027,0,0,0-3.159.427,7.861,7.861,0,0,0-2.032.752,5.378,5.378,0,0,0-1.854,1.62,6.734,6.734,0,0,0-1.016,2.539,18.728,18.728,0,0,0-.274,2.976c-.127,4.114-.239,7.837-.32,10.574-.056,1.326-.1,2.412-.127,3.2,0,.356-.036.645-.051.874a1.266,1.266,0,0,1-.036.3,1.158,1.158,0,0,1,0-.3v-.868c0-.792.025-1.879.046-3.2.061-2.738.147-6.46.244-10.574a18.283,18.283,0,0,1,.284-3.047,6.943,6.943,0,0,1,1.067-2.631,5.5,5.5,0,0,1,1.95-1.671,7.776,7.776,0,0,1,2.108-.741,17.779,17.779,0,0,1,3.2-.345h.874A1.985,1.985,0,0,1,220.261,437.051Z" transform="translate(-208.143 -392.551)" fill="#263238"/>
      </g>
      <g id="Group_3316" data-name="Group 3316" transform="translate(45.901 185.2)">
        <path id="Path_12826" data-name="Path 12826" d="M113.354,373.647l13.1-.168L124.991,362.3s.894-.188.955-5.043.284-13.1.284-13.1h0a16.877,16.877,0,0,0-16.948,2.133l-.721.554Z" transform="translate(-92.135 -338.446)" fill="#ffbe9d"/>
        <path id="Path_12827" data-name="Path 12827" d="M108.448,362.412c-.081-.036-3.337-.985-3.23,2.331s3.418,2.539,3.418,2.433S108.448,362.412,108.448,362.412Z" transform="translate(-90.489 -348.025)" fill="#ffbe9d"/>
        <path id="Path_12828" data-name="Path 12828" d="M141.792,361.094c.081-.036,3.047-.833,2.931,2.484a2.49,2.49,0,0,1-3.413,2.433C141.31,365.9,141.792,361.094,141.792,361.094Z" transform="translate(-108.252 -347.398)" fill="#ffbe9d"/>
        <path id="Path_12829" data-name="Path 12829" d="M128.467,338.345a1.793,1.793,0,0,0-.66-1.6,1.27,1.27,0,0,0-1.651.122,1.478,1.478,0,0,0-1.275-1.8c-.787-.051-1.463.548-2.23.757a3.611,3.611,0,0,1-2.265-.264c-.716-.29-1.387-.686-2.118-.95a6.2,6.2,0,0,0-7.933,3.642,2.763,2.763,0,0,0-2.925,1.107,4.571,4.571,0,0,0-.691,3.184,10.346,10.346,0,0,0,.554,2.174v.188c.051,2.666,1.442,11.1,2.58,11.118,1.986.03.422-9,.422-9,2.438-.94,1.524-4.571,2.138-5.145s1.884-1.839,6.983.767a9.853,9.853,0,0,0,6.049.655l.127-.025h.071a4.474,4.474,0,0,0,1.305-.554,2.539,2.539,0,0,0,1.077-1.2,1.417,1.417,0,0,0-.274-1.524,3.1,3.1,0,0,0,.716-1.652Z" transform="translate(-91.204 -334.232)" fill="#263238"/>
        <path id="Path_12830" data-name="Path 12830" d="M109.46,352.071c.508,2.778.4,4.241.858,6.1a9.789,9.789,0,0,0,4.83,6.658,7.6,7.6,0,0,0,8.5-.559,7.754,7.754,0,0,0,2.931-5.038c.234-2.087.467-5.785.508-7.888,0-3.784.279-7.4.279-7.4L116.525,342l-6.161,3.662Z" transform="translate(-92.578 -338.055)" fill="#263238"/>
        <path id="Path_12831" data-name="Path 12831" d="M127.843,389.831a3.467,3.467,0,0,1-1.894.168,3.514,3.514,0,0,1-1.818-.574c.036-.081.833.168,1.849.274S127.827,389.744,127.843,389.831Z" transform="translate(-99.797 -361.385)" fill="#263238"/>
        <path id="Path_12832" data-name="Path 12832" d="M126.764,338.48a1.462,1.462,0,0,1-.508.1,3,3,0,0,1-1.387-.325,10.032,10.032,0,0,1-1.752-1.173,4.738,4.738,0,0,0-2.285-1.056,4.129,4.129,0,0,0-2.463.432,4.013,4.013,0,0,0-1.524,1.407,4.743,4.743,0,0,0-.645,1.8,2.829,2.829,0,0,1,.056-.508,4.063,4.063,0,0,1,.508-1.326,4.007,4.007,0,0,1,1.524-1.458,4.134,4.134,0,0,1,2.539-.452A4.749,4.749,0,0,1,123.163,337a10.365,10.365,0,0,0,1.722,1.188,3.1,3.1,0,0,0,1.351.356,3.924,3.924,0,0,0,.528-.066Z" transform="translate(-95.895 -335.043)" fill="#455a64"/>
        <path id="Path_12833" data-name="Path 12833" d="M112.68,343.256a4.665,4.665,0,0,0-.777-.289,2.494,2.494,0,0,0-3.047,1.879,4.357,4.357,0,0,0-.081.828.508.508,0,0,1-.041-.223,2.164,2.164,0,0,1,.041-.62,2.494,2.494,0,0,1,3.139-1.925,2.286,2.286,0,0,1,.574.239.656.656,0,0,1,.192.111Z" transform="translate(-92.217 -338.453)" fill="#455a64"/>
        <path id="Path_12834" data-name="Path 12834" d="M114.4,363.585a12.19,12.19,0,0,1-1.524-3.525,6.1,6.1,0,0,1,.909,1.7,6.171,6.171,0,0,1,.615,1.823Z" transform="translate(-94.261 -346.942)" fill="#455a64"/>
        <path id="Path_12835" data-name="Path 12835" d="M119.216,367.3a5.267,5.267,0,0,1-2.316-3.555c.086-.025.4.884,1.016,1.854S119.277,367.224,119.216,367.3Z" transform="translate(-96.239 -348.753)" fill="#455a64"/>
        <path id="Path_12836" data-name="Path 12836" d="M124.806,370.082a3.047,3.047,0,0,1-1.3-.8,3.11,3.11,0,0,1-.965-1.173,6.451,6.451,0,0,1,1.168.95C124.333,369.594,124.841,369.98,124.806,370.082Z" transform="translate(-99.015 -350.9)" fill="#455a64"/>
        <path id="Path_12837" data-name="Path 12837" d="M135.484,363.09a3.911,3.911,0,0,1-1.255,3.047,15.251,15.251,0,0,1,.681-1.493A15.658,15.658,0,0,1,135.484,363.09Z" transform="translate(-104.767 -348.433)" fill="#455a64"/>
        <path id="Path_12838" data-name="Path 12838" d="M138.832,357.93a4.9,4.9,0,0,1-1.2,3.814c-.071-.051.4-.823.716-1.869S138.74,357.93,138.832,357.93Z" transform="translate(-106.438 -345.894)" fill="#455a64"/>
        <path id="Path_12839" data-name="Path 12839" d="M130.222,342.709a1.807,1.807,0,0,1-.432.335,3.219,3.219,0,0,1-1.427.437,4.849,4.849,0,0,1-2.184-.335,17.063,17.063,0,0,1-2.423-1.209,10.52,10.52,0,0,0-2.463-1.061,4.1,4.1,0,0,0-2.153,0,2.925,2.925,0,0,0-1.265.726c-.249.249-.34.422-.356.411a1.924,1.924,0,0,1,.32-.447,2.966,2.966,0,0,1,1.275-.772,4.063,4.063,0,0,1,2.2-.036,10.16,10.16,0,0,1,2.494,1.061,18.453,18.453,0,0,0,2.407,1.214,5.079,5.079,0,0,0,2.138.356,3.362,3.362,0,0,0,1.864-.681Z" transform="translate(-96.544 -337.378)" fill="#455a64"/>
        <path id="Path_12840" data-name="Path 12840" d="M139.425,347.828a.983.983,0,0,1-.178.117,4.362,4.362,0,0,1-.508.254,6.247,6.247,0,0,1-3.733.34,4.224,4.224,0,0,1-.554-.157.807.807,0,0,1-.193-.081s.289.071.762.152a7.066,7.066,0,0,0,1.864.081,6.888,6.888,0,0,0,1.818-.416C139.151,347.95,139.415,347.808,139.425,347.828Z" transform="translate(-104.782 -340.922)" fill="#455a64"/>
        <path id="Path_12841" data-name="Path 12841" d="M79,425.627s2.407-18.965,4.063-21.032,14-6.227,14-6.227l.863-2.651,13.982-.508,1.051,3.007s10.452,2.539,13.291,4.942,6.44,20.285,6.44,20.285Z" transform="translate(-77.588 -364.24)" fill="#d72027"/>
        <path id="Path_12842" data-name="Path 12842" d="M129.655,401.339c0,.076-3.164.213-7.07.31s-7.075.117-7.075.046,3.164-.213,7.07-.31S129.65,401.268,129.655,401.339Z" transform="translate(-95.555 -367.235)" fill="#263238"/>
        <path id="Path_12843" data-name="Path 12843" d="M98.451,431.807a50.262,50.262,0,0,1-.95-5.185c-.442-2.875-.762-5.211-.691-5.221a52.313,52.313,0,0,1,.95,5.18C98.212,429.455,98.522,431.791,98.451,431.807Z" transform="translate(-86.348 -377.128)" fill="#263238"/>
        <path id="Path_12844" data-name="Path 12844" d="M169.023,429.649c-.071,0-.244-2.433-.376-5.439s-.188-5.445-.117-5.45.244,2.433.381,5.439S169.094,429.644,169.023,429.649Z" transform="translate(-121.631 -375.829)" fill="#263238"/>
        <g id="Group_3315" data-name="Group 3315" transform="translate(19.569 34.104)" opacity="0.3">
          <path id="Path_12845" data-name="Path 12845" d="M114.75,401.736a11.3,11.3,0,0,0,7.618,1.955c2.677-.264,5.318-1.422,7.852-2.311-5.079.086-10.366.269-15.465.356" transform="translate(-114.75 -401.38)"/>
        </g>
        <path id="Path_12846" data-name="Path 12846" d="M119.319,399.116a5.77,5.77,0,0,1,.178-1.524,5.446,5.446,0,0,1,.422-1.453,10.359,10.359,0,0,1-.269,1.488,9.768,9.768,0,0,1-.331,1.489Z" transform="translate(-97.429 -364.698)" fill="#fafafa"/>
        <path id="Path_12847" data-name="Path 12847" d="M133.77,398.449a4.464,4.464,0,0,1-.35-1.407,4.622,4.622,0,0,1-.046-1.453,12.868,12.868,0,0,1,.2,1.432,12.118,12.118,0,0,1,.2,1.428Z" transform="translate(-104.328 -364.427)" fill="#fafafa"/>
        <path id="Path_12848" data-name="Path 12848" d="M130.438,398.675h-.589l-1.61.03-5.313.112-5.312.173-1.61.051h-.594a.711.711,0,0,0,.152-.025l.437-.041,1.61-.1c1.356-.081,3.235-.163,5.313-.218s3.956-.071,5.318-.066h2.047Z" transform="translate(-95.506 -365.902)" fill="#fafafa"/>
        <path id="Path_12849" data-name="Path 12849" d="M87.522,427.144a.9.9,0,0,1,0-.152,1.987,1.987,0,0,0-.036-.442c-.03-.381-.061-.94-.086-1.625-.051-1.371-.051-3.271.086-5.363s.381-3.977.609-5.333c.112-.681.213-1.224.295-1.6.036-.163.066-.3.1-.432s.036-.152.046-.147a.579.579,0,0,1,0,.152,3.159,3.159,0,0,1-.066.437l-.269,1.6c-.2,1.356-.427,3.24-.564,5.328s-.152,3.982-.132,5.353l.036,1.62v.442a.553.553,0,0,1-.019.162Z" transform="translate(-81.706 -372.526)" fill="#fafafa"/>
        <path id="Path_12850" data-name="Path 12850" d="M89.3,433.444c0,.041-1.767.345-3.962.67s-3.977.559-3.987.508,1.767-.34,3.962-.67S89.263,433.4,89.3,433.444Z" transform="translate(-78.744 -383.052)" fill="#fafafa"/>
        <path id="Path_12851" data-name="Path 12851" d="M90.108,422.137s-.335-.168-.874-.432a12.9,12.9,0,0,0-2.189-.818,12.773,12.773,0,0,0-2.3-.4c-.6-.046-.975-.041-.975-.066a.8.8,0,0,1,.264-.036h.716a10.422,10.422,0,0,1,2.336.356,10.282,10.282,0,0,1,2.2.874,6.512,6.512,0,0,1,.615.366C90.042,422.071,90.114,422.126,90.108,422.137Z" transform="translate(-79.935 -376.631)" fill="#fafafa"/>
        <path id="Path_12852" data-name="Path 12852" d="M106.145,424.449a.824.824,0,0,1-.056-.183q-.046-.218-.122-.508c-.112-.508-.259-1.138-.437-1.91-.371-1.61-.909-3.829-1.574-6.262s-1.331-4.622-1.828-6.2c-.239-.752-.442-1.376-.594-1.864-.061-.2-.117-.366-.163-.508a.966.966,0,0,1-.041-.178.643.643,0,0,1,.071.168l.188.508c.163.432.381,1.067.645,1.849.508,1.569,1.209,3.753,1.874,6.191s1.188,4.662,1.524,6.283c.173.808.3,1.463.386,1.92l.1.508a.731.731,0,0,1,.027.186Z" transform="translate(-88.577 -369.963)" fill="#fafafa"/>
        <path id="Path_12853" data-name="Path 12853" d="M122.779,421.412a.7.7,0,0,1-.046-.193,4.042,4.042,0,0,0-.086-.564c-.076-.533-.183-1.229-.3-2.062-.269-1.742-.665-4.144-1.183-6.78s-1.061-5.013-1.473-6.724c-.2-.818-.371-1.5-.508-2.032-.051-.213-.1-.4-.132-.554a.768.768,0,0,1-.036-.193,1.167,1.167,0,0,1,.066.188c.046.152.1.335.163.543.137.472.32,1.163.543,2.032.442,1.706,1.016,4.063,1.524,6.719s.9,5.048,1.133,6.8c.122.874.208,1.579.259,2.072a5.043,5.043,0,0,0,.061.564,1.16,1.16,0,0,1,.015.184Z" transform="translate(-97.277 -367.734)" fill="#fafafa"/>
        <path id="Path_12854" data-name="Path 12854" d="M139.627,421.4a.875.875,0,0,1-.066-.193l-.147-.564c-.132-.508-.3-1.2-.508-2.082-.381-1.762-.833-4.226-1.148-6.963s-.442-5.241-.472-7.044v-2.722a1.073,1.073,0,0,1,0-.2.717.717,0,0,1,0,.2q0,.244,0,.579c0,.508,0,1.234.046,2.138.061,1.8.2,4.292.508,7.029s.747,5.191,1.1,6.963c.178.884.33,1.6.442,2.092.046.218.086.406.117.569a.822.822,0,0,1,.127.2Z" transform="translate(-106.269 -367.399)" fill="#fafafa"/>
        <path id="Path_12855" data-name="Path 12855" d="M153.775,422.091a.853.853,0,0,1-.061-.168l-.157-.508c-.132-.427-.3-1.051-.482-1.828a35.837,35.837,0,0,1-.7-12.4c.1-.792.2-1.432.279-1.869.041-.193.071-.356.1-.508a.681.681,0,0,1,.046-.173.782.782,0,0,1,0,.178,3.668,3.668,0,0,1-.071.508c-.066.442-.147,1.082-.229,1.869a39.513,39.513,0,0,0,.691,12.367c.173.777.32,1.4.437,1.833.046.188.091.35.127.508A.715.715,0,0,1,153.775,422.091Z" transform="translate(-113.576 -368.881)" fill="#fafafa"/>
        <path id="Path_12856" data-name="Path 12856" d="M168.535,415.65a23.423,23.423,0,0,1-.03-2.727,24.766,24.766,0,0,1,.132-2.722,45.7,45.7,0,0,1-.1,5.449Z" transform="translate(-121.622 -371.617)" fill="#fafafa"/>
        <path id="Path_12857" data-name="Path 12857" d="M128.96,409.78s-.142.03-.411.071l-1.183.173c-1.016.152-2.514.345-4.358.559-3.687.437-8.792.9-14.449,1.158s-10.788.229-14.5.127c-1.854-.056-3.352-.117-4.388-.178l-1.194-.066-.416-.036h.416l1.194.036c1.016.041,2.539.086,4.393.122,3.708.081,8.832.081,14.485-.168s10.762-.706,14.444-1.112c1.844-.2,3.337-.376,4.363-.508l1.188-.142C128.813,409.785,128.96,409.78,128.96,409.78Z" transform="translate(-82.047 -371.41)" fill="#fafafa"/>
        <path id="Path_12858" data-name="Path 12858" d="M133.2,427.169h-5.226c-3.225,0-7.684.071-12.611.239s-9.376.411-12.6.62l-3.819.254-1.016.066H97.57a2.423,2.423,0,0,0,.361-.041l1.016-.1c.9-.081,2.2-.188,3.809-.3,3.22-.234,7.674-.508,12.6-.665s9.391-.208,12.616-.193c1.615,0,2.925.025,3.824.046l1.016.025Z" transform="translate(-86.727 -379.906)" fill="#fafafa"/>
        <path id="Path_12859" data-name="Path 12859" d="M174.99,431.86a17.66,17.66,0,0,1-2.4.4,19.252,19.252,0,0,1-2.418.234,18,18,0,0,1,2.4-.391,20.032,20.032,0,0,1,2.418-.243Z" transform="translate(-122.454 -382.276)" fill="#fafafa"/>
        <path id="Path_12860" data-name="Path 12860" d="M174.928,426.628a3.554,3.554,0,0,1-.142-.508c-.086-.325-.193-.792-.31-1.376a39.049,39.049,0,0,1-.736-9.269,13.945,13.945,0,0,1,.086-1.407,4.062,4.062,0,0,1,.066-.508,3.377,3.377,0,0,1,0,.508c0,.391,0,.858-.041,1.407,0,1.188,0,2.829.142,4.637s.386,3.433.594,4.607c.1.533.188,1.016.259,1.381A2.314,2.314,0,0,1,174.928,426.628Z" transform="translate(-124.195 -373.27)" fill="#fafafa"/>
        <path id="Path_12861" data-name="Path 12861" d="M84.016,437.9h40.956a7.8,7.8,0,0,1,7.8,7.8v15.745H76.22V445.7a7.8,7.8,0,0,1,7.8-7.8Z" transform="translate(-76.22 -385.248)" fill="#455a64"/>
        <path id="Path_12862" data-name="Path 12862" d="M130,456.12a1.249,1.249,0,0,1-.264.2l-.792.543c-.681.472-1.7,1.117-2.976,1.884s-2.824,1.625-4.571,2.539-3.723,1.788-5.825,2.646-4.149,1.564-6.024,2.153-3.591,1.046-5.038,1.382-2.626.584-3.449.726l-.945.157a1.247,1.247,0,0,1-.33.036,2.786,2.786,0,0,1,.32-.086l.935-.208c.813-.173,1.986-.442,3.423-.808s3.139-.838,5.008-1.427,3.9-1.326,6-2.169,4.063-1.757,5.815-2.621,3.306-1.717,4.571-2.463,2.311-1.361,3.012-1.808l.818-.508a2.08,2.08,0,0,1,.31-.173Z" transform="translate(-87.819 -394.214)" fill="#263238"/>
        <path id="Path_12863" data-name="Path 12863" d="M91.759,438.076a1.4,1.4,0,0,1-.3.025l-.868.036a20.034,20.034,0,0,0-3.159.427,7.765,7.765,0,0,0-2.032.752,5.4,5.4,0,0,0-1.859,1.62,6.725,6.725,0,0,0-1.016,2.539,18.674,18.674,0,0,0-.274,2.976c-.127,4.109-.239,7.832-.32,10.569-.056,1.326-.1,2.412-.127,3.2,0,.356-.036.64-.051.868a1.056,1.056,0,0,1-.036.3,1.587,1.587,0,0,1,0-.3v-.874c0-.792,0-1.879.046-3.2.061-2.738.147-6.46.244-10.574a18.248,18.248,0,0,1,.284-3.017,6.912,6.912,0,0,1,1.067-2.631,5.587,5.587,0,0,1,1.95-1.676,7.833,7.833,0,0,1,2.108-.742,17.776,17.776,0,0,1,3.195-.345h.874a1.173,1.173,0,0,1,.279.046Z" transform="translate(-78.92 -385.312)" fill="#263238"/>
      </g>
    </g>
  </g>
</svg>
