<svg xmlns="http://www.w3.org/2000/svg" xmlns:xlink="http://www.w3.org/1999/xlink" width="550" height="310" viewBox="0 0 550 310">
  <defs>
    <radialGradient id="radial-gradient" cx="0.5" cy="0.5" r="1.176" gradientTransform="translate(0.167 0.109) scale(0.667 0.783)" gradientUnits="objectBoundingBox">
      <stop offset="0" stop-color="#fff"/>
      <stop offset="0.279" stop-color="#fff"/>
      <stop offset="0.437" stop-color="#fffcfd"/>
      <stop offset="0.612" stop-color="#f7edee"/>
      <stop offset="0.795" stop-color="#f2e4e4"/>
      <stop offset="0.982" stop-color="#f2d5d6"/>
      <stop offset="1" stop-color="#edcccd"/>
    </radialGradient>
  </defs>
  <g id="assign-coordinator" transform="translate(-1165 -139)">
    <path id="Path_12503" data-name="Path 12503" d="M6,0H544a6,6,0,0,1,6,6V310H0V6A6,6,0,0,1,6,0Z" transform="translate(1165 139)" fill="url(#radial-gradient)"/>
    <g id="Group_3301" data-name="Group 3301" transform="translate(1260.5 105.363)">
      <g id="Group_3290" data-name="Group 3290" transform="translate(71.613 79.637)">
        <path id="Path_12504" data-name="Path 12504" d="M120.166,104.978c-14.5,13.951-24.127,32.337-30.29,51.479-4.188,13-6.872,27.1-3.214,40.256s15.168,24.922,28.838,25.054c10.45.106,20.032-6.429,26.4-14.705s10.119-18.208,14.114-27.848,8.475-19.393,15.9-26.736,17.6-11.858,27.9-14.335c7.23-1.735,15.619-2.337,21.351,2.4,7.064,5.827,6.554,17.274,1.822,25.114-7.11,11.772-20.734,17.566-31.774,25.776A80.517,80.517,0,0,0,159.3,256.579c.159,7.886,2.054,16.652,8.614,21.068,6.832,4.635,16.394,2.648,23.193-2.046s11.6-11.593,17.123-17.711c15.274-16.91,35.843-27.908,54.251-41.342s35.783-31.192,39.421-53.677c3.055-18.916-4.533-38.654-17.673-52.611s-31.3-22.512-50.043-26.53C197.471,75.832,148.634,77.586,120.166,104.978Z" transform="translate(-84.939 -79.637)" fill="#d72027"/>
        <path id="Path_12505" data-name="Path 12505" d="M120.166,104.978c-14.5,13.951-24.127,32.337-30.29,51.479-4.188,13-6.872,27.1-3.214,40.256s15.168,24.922,28.838,25.054c10.45.106,20.032-6.429,26.4-14.705s10.119-18.208,14.114-27.848,8.475-19.393,15.9-26.736,17.6-11.858,27.9-14.335c7.23-1.735,15.619-2.337,21.351,2.4,7.064,5.827,6.554,17.274,1.822,25.114-7.11,11.772-20.734,17.566-31.774,25.776A80.517,80.517,0,0,0,159.3,256.579c.159,7.886,2.054,16.652,8.614,21.068,6.832,4.635,16.394,2.648,23.193-2.046s11.6-11.593,17.123-17.711c15.274-16.91,35.843-27.908,54.251-41.342s35.783-31.192,39.421-53.677c3.055-18.916-4.533-38.654-17.673-52.611s-31.3-22.512-50.043-26.53C197.471,75.832,148.634,77.586,120.166,104.978Z" transform="translate(-84.939 -79.637)" fill="#fff" opacity="0.95"/>
      </g>
      <ellipse id="Ellipse_60" data-name="Ellipse 60" cx="128.465" cy="7.495" rx="128.465" ry="7.495" transform="translate(52.525 294.644)" fill="#f5f5f5"/>
      <g id="Group_3294" data-name="Group 3294" transform="translate(175.317 137.249)">
        <path id="Path_12506" data-name="Path 12506" d="M395.09,316.858l3.363-53.538a34.535,34.535,0,0,0-34.469-36.7h0A34.533,34.533,0,0,0,329.509,259.2L326,321.738h63.893A5.211,5.211,0,0,0,395.09,316.858Z" transform="translate(-269.918 -186.914)" fill="#d72027"/>
        <path id="Path_12507" data-name="Path 12507" d="M395.21,314.938l3.244-51.6a34.535,34.535,0,0,0-34.469-36.7h0a34.533,34.533,0,0,0-34.476,32.581L326,321.745h61.966a7.283,7.283,0,0,0,7.244-6.807Z" transform="translate(-269.918 -186.921)" opacity="0.1"/>
        <path id="Path_12508" data-name="Path 12508" d="M379.576,321.738l3.668-58.417a34.542,34.542,0,0,0-34.469-36.7h0A34.529,34.529,0,0,0,314.3,259.211l-3.529,62.527Z" transform="translate(-264.772 -186.914)" fill="#d72027"/>
        <path id="Path_12509" data-name="Path 12509" d="M415.218,380.341h.881a1,1,0,0,0,.94-.894l1.324-9.157H413l1.324,9.157a1.006,1.006,0,0,0,.894.894Z" transform="translate(-299.315 -235.459)" fill="#d72027"/>
        <path id="Path_12510" data-name="Path 12510" d="M415.218,380.341h.881a1,1,0,0,0,.94-.894l1.324-9.157H413l1.324,9.157a1.006,1.006,0,0,0,.894.894Z" transform="translate(-299.315 -235.459)" fill="#fff" opacity="0.7"/>
        <path id="Path_12511" data-name="Path 12511" d="M284.666,380.341h.8a.953.953,0,0,0,.854-.894l1.2-9.157H282.64l1.185,9.157a.953.953,0,0,0,.841.894Z" transform="translate(-255.267 -235.459)" fill="#d72027"/>
        <path id="Path_12512" data-name="Path 12512" d="M284.666,380.341h.8a.953.953,0,0,0,.854-.894l1.2-9.157H282.64l1.185,9.157a.953.953,0,0,0,.841.894Z" transform="translate(-255.267 -235.459)" fill="#fff" opacity="0.5"/>
        <path id="Path_12513" data-name="Path 12513" d="M322.273,380.341h.8a.953.953,0,0,0,.854-.894l1.179-9.157H320.24l1.165,9.157a.953.953,0,0,0,.867.894Z" transform="translate(-267.972 -235.459)" fill="#0761ce"/>
        <path id="Path_12514" data-name="Path 12514" d="M322.273,380.341h.8a.953.953,0,0,0,.854-.894l1.179-9.157H320.24l1.165,9.157a.953.953,0,0,0,.867.894Z" transform="translate(-267.972 -235.459)" fill="#fff" opacity="0.7"/>
        <path id="Path_12515" data-name="Path 12515" d="M374.718,380.341h.881a1.013,1.013,0,0,0,.947-.894l1.324-9.157H372.5l1.324,9.157a1,1,0,0,0,.894.894Z" transform="translate(-285.63 -235.459)" fill="#d72027"/>
        <path id="Path_12516" data-name="Path 12516" d="M374.718,380.341h.881a1.013,1.013,0,0,0,.947-.894l1.324-9.157H372.5l1.324,9.157a1,1,0,0,0,.894.894Z" transform="translate(-285.63 -235.459)" fill="#fff" opacity="0.5"/>
        <path id="Path_12517" data-name="Path 12517" d="M312.982,315.746H289.438l-1.556-22.7-.338-4.873h0l-.152-2.245a14.923,14.923,0,0,0-.232-1.755,2.046,2.046,0,0,0-.079-.391,1.327,1.327,0,0,0-.073-.278,13.58,13.58,0,0,0-3.582-6.1,11.56,11.56,0,0,0-7.356-3.311h22.876a11.488,11.488,0,0,1,8.018,3.311,13.593,13.593,0,0,1,3.589,6.1,1.327,1.327,0,0,1,.073.278,14.947,14.947,0,0,1,.311,2.145l.152,2.245h0Z" transform="translate(-253.047 -202.957)" fill="#d72027"/>
        <path id="Path_12518" data-name="Path 12518" d="M312.982,315.746H289.438l-1.556-22.7-.338-4.873h0l-.152-2.245a14.923,14.923,0,0,0-.232-1.755,2.046,2.046,0,0,0-.079-.391,1.327,1.327,0,0,0-.073-.278,13.58,13.58,0,0,0-3.582-6.1,11.56,11.56,0,0,0-7.356-3.311h22.876a11.488,11.488,0,0,1,8.018,3.311,13.593,13.593,0,0,1,3.589,6.1,1.327,1.327,0,0,1,.073.278,14.947,14.947,0,0,1,.311,2.145l.152,2.245h0Z" transform="translate(-253.047 -202.957)" opacity="0.1"/>
        <g id="Group_3291" data-name="Group 3291" transform="translate(78.593 100.673)" opacity="0.1">
          <path id="Path_12519" data-name="Path 12519" d="M360,318.7h9.455c2.3,0,4.165,1.457,4.165,3.251v5.588c0,1.8-1.861,3.251-4.165,3.251H360Z" transform="translate(-360 -318.7)"/>
        </g>
        <rect id="Rectangle_433" data-name="Rectangle 433" width="48.824" height="12.097" rx="5.42" transform="translate(85.221 112.763) rotate(180)" fill="#d72027"/>
        <path id="Path_12520" data-name="Path 12520" d="M427.493,287.421a13.414,13.414,0,0,1-11.13,13.242l-2.417,32.264c-.212,2.741-2.2,4.84-4.588,4.84H383.39c2.384,0,4.37-2.1,4.582-4.84l1.324-17.215,1.119-15.069a13.361,13.361,0,0,0,9.62-7.058,7.285,7.285,0,0,0,.351-.722,13.242,13.242,0,0,0,1.152-5.443,13.779,13.779,0,0,0-.278-2.735c-.073-.358-.166-.715-.265-1.066a13.6,13.6,0,0,0-2.225-4.363h0A13.447,13.447,0,0,0,388.131,274H414.1a13.177,13.177,0,0,1,5.992,1.417,13.315,13.315,0,0,1,4.635,3.82h0A13.381,13.381,0,0,1,427.493,287.421Z" transform="translate(-289.31 -202.923)" fill="#d72027"/>
        <path id="Path_12521" data-name="Path 12521" d="M427.493,287.421a13.414,13.414,0,0,1-11.13,13.242l-2.417,32.264c-.212,2.741-2.2,4.84-4.588,4.84H383.39c2.384,0,4.37-2.1,4.582-4.84l1.324-17.215,1.119-15.069a13.361,13.361,0,0,0,9.62-7.058,7.285,7.285,0,0,0,.351-.722,13.242,13.242,0,0,0,1.152-5.443,13.779,13.779,0,0,0-.278-2.735c-.073-.358-.166-.715-.265-1.066a13.6,13.6,0,0,0-2.225-4.363h0A13.447,13.447,0,0,0,388.131,274H414.1a13.177,13.177,0,0,1,5.992,1.417,13.315,13.315,0,0,1,4.635,3.82h0A13.381,13.381,0,0,1,427.493,287.421Z" transform="translate(-289.31 -202.923)" opacity="0.1"/>
        <path id="Path_12522" data-name="Path 12522" d="M358.733,287.441c0,6.621-4.363,12.136-10.09,13.242l-2.211,32.258c-.192,2.741-1.986,4.847-4.158,4.847H272.925c-2.158,0-3.973-2.105-4.158-4.847l-2.218-32.317c-5.615-1.179-9.859-6.621-9.859-13.163a14.275,14.275,0,0,1,2.245-7.753,12.58,12.58,0,0,1,4.482-4.244,11.09,11.09,0,0,1,5.436-1.424,11.547,11.547,0,0,1,8.025,3.311,13.56,13.56,0,0,1,3.582,6.091,1.443,1.443,0,0,1,.073.291,14.57,14.57,0,0,1,.311,2.139l.159,2.245h0l1.887,27.61h49.419l2.046-29.8c.291-4.211,2.344-7.72,5.191-9.382a11.256,11.256,0,0,1,6.3-2.443,6.628,6.628,0,0,1,.728-.033,11.011,11.011,0,0,1,5.3,1.324,1.027,1.027,0,0,1,.146.079,12.474,12.474,0,0,1,4.211,3.82h0A14.322,14.322,0,0,1,358.733,287.441Z" transform="translate(-246.498 -202.937)" fill="#d72027"/>
        <path id="Path_12523" data-name="Path 12523" d="M331.15,337.757H272.885c-2.158,0-3.973-2.105-4.158-4.847l-2.218-32.317c-5.615-1.179-9.859-6.621-9.859-13.163a14.275,14.275,0,0,1,2.245-7.753,12.58,12.58,0,0,1,4.482-4.244,11.091,11.091,0,0,1,5.436-1.423,11.547,11.547,0,0,1,8.025,3.31,13.56,13.56,0,0,1,3.582,6.091,1.443,1.443,0,0,1,.073.291,14.569,14.569,0,0,1,.311,2.139l.159,2.245h0l1.914,27.63H332.3Z" transform="translate(-246.485 -202.927)" fill="#fff" opacity="0.1"/>
        <path id="Path_12524" data-name="Path 12524" d="M330.306,227.506c-1.152.662-2.2,1.212-3.31,1.774s-2.192,1.079-3.311,1.6c-2.225,1.013-4.476,1.986-6.793,2.827q-3.5,1.3-7.124,2.251a45.583,45.583,0,0,1-7.654,1.371l-.55.053h-.258a61.958,61.958,0,0,1-6.489-1.126c-2.079-.463-4.138-.92-6.177-1.443s-4.065-1.059-6.091-1.642-4.032-1.185-6.038-1.867l.92-4.6c4.165.265,8.323.662,12.441,1.092l6.151.616c2.026.2,4.1.371,5.913.437h-.8a44.448,44.448,0,0,0,6.131-1.549c2.072-.662,4.145-1.417,6.217-2.3s4.125-1.8,6.164-2.774c1.046-.477,2.059-.98,3.052-1.476s2.053-1.026,2.96-1.5Z" transform="translate(-253.196 -184.423)" fill="#263238"/>
        <path id="Path_12525" data-name="Path 12525" d="M330.306,227.506c-1.152.662-2.2,1.212-3.31,1.774s-2.192,1.079-3.311,1.6c-2.225,1.013-4.476,1.986-6.793,2.827q-3.5,1.3-7.124,2.251a45.583,45.583,0,0,1-7.654,1.371l-.55.053h-.258a61.958,61.958,0,0,1-6.489-1.126c-2.079-.463-4.138-.92-6.177-1.443s-4.065-1.059-6.091-1.642-4.032-1.185-6.038-1.867l.92-4.6c4.165.265,8.323.662,12.441,1.092l6.151.616c2.026.2,4.1.371,5.913.437h-.8a44.448,44.448,0,0,0,6.131-1.549c2.072-.662,4.145-1.417,6.217-2.3s4.125-1.8,6.164-2.774c1.046-.477,2.059-.98,3.052-1.476s2.053-1.026,2.96-1.5Z" transform="translate(-253.196 -184.423)" opacity="0.1"/>
        <path id="Path_12526" data-name="Path 12526" d="M274.119,225.9a11.314,11.314,0,0,0-3.2-1.563l-1.715,6.694,5.138,2.158.583-.715a4.562,4.562,0,0,0-.8-6.575Z" transform="translate(-250.726 -186.143)" fill="#ffc3bd"/>
        <path id="Path_12527" data-name="Path 12527" d="M266.892,229.7l1.715-6.694-4.794-2.615L262.37,225.1Z" transform="translate(-248.418 -184.809)" fill="#ffc3bd"/>
        <path id="Path_12528" data-name="Path 12528" d="M333.41,236.92h.265c2.529-.271,9.965-1.523,15.341-6.826a5.231,5.231,0,0,0-3.244-3.019C342.064,226.373,337.522,229.028,333.41,236.92Z" transform="translate(-272.422 -187.031)" opacity="0.2"/>
        <path id="Path_12529" data-name="Path 12529" d="M340,267.214c6.343-17.129,2.172-32.88,2.966-41.6A9.932,9.932,0,0,1,351,216.755c4.33-.834,9.687-1.774,14.791-2.463a9.985,9.985,0,0,1,11.348,10.051c-.444,25.822-8.72,42.871-8.72,42.871l-13.374-.06Z" transform="translate(-274.649 -182.716)" fill="#0761ce"/>
        <path id="Path_12530" data-name="Path 12530" d="M340,267.214c6.343-17.129,2.172-32.88,2.966-41.6A9.932,9.932,0,0,1,351,216.755c4.33-.834,9.687-1.774,14.791-2.463a9.985,9.985,0,0,1,11.348,10.051c-.444,25.822-8.72,42.871-8.72,42.871l-13.374-.06Z" transform="translate(-274.649 -182.716)" fill="#fff" opacity="0.8"/>
        <g id="Group_3292" data-name="Group 3292" transform="translate(0 80.459)">
          <path id="Path_12531" data-name="Path 12531" d="M262.495,382.54l-1.7,11.143h5.383l3.536-11.143Z" transform="translate(-247.887 -320.057)" fill="#ffc3bd"/>
          <path id="Path_12532" data-name="Path 12532" d="M253.522,395.531l7.2-.172a.4.4,0,0,1,.45.4v5.3a1.212,1.212,0,0,1-1.185,1.079c-2.5,0-3.695-.093-6.859,0a80.912,80.912,0,0,1-10.077-.662c-2.562-.437-1.867-2.84-.708-2.88,5.231-.192,8.157-1.284,10.037-2.648A1.934,1.934,0,0,1,253.522,395.531Z" transform="translate(-241.298 -324.388)" fill="#263238"/>
          <path id="Path_12533" data-name="Path 12533" d="M262.33,387.009l.682-4.469h7.224l-1.735,5.575Z" transform="translate(-248.404 -320.057)" opacity="0.2"/>
          <path id="Path_12534" data-name="Path 12534" d="M310.087,288.2s-43.8.437-44.48,14.308c-.967,19.943-4.337,50.32-4.337,50.32l8.256,2.271s11.785-30.146,12.242-45.725c12.322-2.45,43.99,0,47.711-8.091a21.664,21.664,0,0,0,1.4-13.11Z" transform="translate(-248.046 -288.17)" fill="#d72027"/>
          <path id="Path_12535" data-name="Path 12535" d="M310.087,288.2s-43.8.437-44.48,14.308c-.967,19.943-4.337,50.32-4.337,50.32l8.256,2.271s11.785-30.146,12.242-45.725c12.322-2.45,43.99,0,47.711-8.091a21.664,21.664,0,0,0,1.4-13.11Z" transform="translate(-248.046 -288.17)" opacity="0.6"/>
          <path id="Path_12536" data-name="Path 12536" d="M321.56,388.851l2.92,7.561h5.906l-2.033-7.952Z" transform="translate(-268.418 -322.058)" fill="#ffc3bd"/>
          <path id="Path_12537" data-name="Path 12537" d="M328.257,388.73l-1.145-5.82-7.462.927,1.914,5.058Z" transform="translate(-267.772 -320.182)" opacity="0.2"/>
          <path id="Path_12538" data-name="Path 12538" d="M317.8,396.689h7.541a.464.464,0,0,1,.5.424h0l.364,5.648a1.165,1.165,0,0,1-1.172,1.139c-2.648-.046-3.88-.192-7.2-.192-2.033,0-6.151.2-8.965.2s-2.734-2.648-1.549-2.854c5.363-1.073,7.435-2.549,9.322-3.973a1.986,1.986,0,0,1,1.159-.391Z" transform="translate(-263.345 -324.838)" fill="#263238"/>
          <path id="Path_12539" data-name="Path 12539" d="M333.007,288.207s-39.726,2.7-38.746,16.553c1.066,15.175,16.976,50.366,16.976,50.366h8s-5.3-31.927-7.733-47.393c11.2,0,37.164,1.688,40.9-6.422a21.71,21.71,0,0,0,1.39-13.11Z" transform="translate(-259.188 -288.18)" fill="#d72027"/>
          <path id="Path_12540" data-name="Path 12540" d="M333.007,288.207s-39.726,2.7-38.746,16.553c1.066,15.175,16.976,50.366,16.976,50.366h8s-5.3-31.927-7.733-47.393c11.2,0,37.164,1.688,40.9-6.422a21.71,21.71,0,0,0,1.39-13.11Z" transform="translate(-259.188 -288.18)" opacity="0.5"/>
        </g>
        <path id="Path_12541" data-name="Path 12541" d="M359.475,199.014c.914,3.536,1.2,7.945-3.741,9.766-1.371,2.185-2.039,4.489,3.238,3.668a16.248,16.248,0,0,0,10.653-6.025c-3.158-2.768-2.582-11.256-1.781-16.043Z" transform="translate(-279.637 -174.668)" fill="#ffc3bd"/>
        <path id="Path_12542" data-name="Path 12542" d="M353.083,213.14c-4.535.775-8.263,4.284-10.263,8.422s-2.483,8.852-2.443,13.454.563,9.183.437,13.778c-.139,5.3-1.417,9.051-3.244,14.043,0,1.185,1.794,1.854,3.311,2.165,3.165-6.906,5.244-13.514,5.025-21.1a92.81,92.81,0,0,1,.662-17.215c.9-5.429,7.4-12.52,7.085-13.5Z" transform="translate(-273.828 -182.359)" fill="#263238"/>
        <path id="Path_12543" data-name="Path 12543" d="M365.9,204.144a4.4,4.4,0,0,1-3.35.808,15.224,15.224,0,0,0-.185-2.569l5.482-4.5a12.4,12.4,0,0,1,.232,1.774,5.025,5.025,0,0,1-2.179,4.487Z" transform="translate(-282.204 -177.203)" opacity="0.3"/>
        <path id="Path_12544" data-name="Path 12544" d="M352.719,171.232c-5.793,3.277-5.853,12.54-4.065,17.877a8.025,8.025,0,0,0,14.056,2.357c2.834-3.582,2.423-7.2,2.284-13.421a8.017,8.017,0,0,0-12.275-6.813Z" transform="translate(-277.224 -167.796)" fill="#ffc3bd"/>
        <path id="Path_12545" data-name="Path 12545" d="M355.18,193.594c-1.867.8-3.913,1.841-5.8,1.616a8.018,8.018,0,0,0,13.9,1.986c2.337-2.94,3.059-4.926,2.4-10.276C362.053,191.171,359.173,191.873,355.18,193.594Z" transform="translate(-277.818 -173.499)" opacity="0.2"/>
        <path id="Path_12546" data-name="Path 12546" d="M366.2,173.733a5.3,5.3,0,0,0,.589,6.336c.523.55,1.165.973,1.668,1.536a4.529,4.529,0,0,1,1.139,3.218,3.311,3.311,0,0,1,3.145-2.8q-1.179,3.648-2.357,7.283a10.077,10.077,0,0,0,5.747-7.945C376.634,176.659,370.834,166.589,366.2,173.733Z" transform="translate(-283.236 -168.204)" fill="#263238"/>
        <path id="Path_12547" data-name="Path 12547" d="M345.687,172.5a4.058,4.058,0,0,0-.92,1.728,1.6,1.6,0,0,0,.662,1.708,2.417,2.417,0,0,0,1.576.079l5.3-.92c3.032-.53,6.065-1.053,9.058-1.774,1.324-.318,2.854-.828,3.383-2.1,1.715-4.138-5.608-4.674-8.058-4.562A15.891,15.891,0,0,0,345.687,172.5Z" transform="translate(-276.244 -166.65)" fill="#263238"/>
        <path id="Path_12548" data-name="Path 12548" d="M374.039,185.889c-1.735.391-2.476,2.887-2.43,4.489,0,1.821,1.324,3.006,2.86,1.907a5.608,5.608,0,0,0,2.172-3.5C376.952,187.074,375.78,185.5,374.039,185.889Z" transform="translate(-285.329 -173.131)" fill="#ffc3bd"/>
        <path id="Path_12549" data-name="Path 12549" d="M355.848,193.72a2.152,2.152,0,0,1-1.808.271c.662-1.5.583-1.159.788-3.7Z" transform="translate(-279.393 -174.638)" fill="#ed847e"/>
        <path id="Path_12550" data-name="Path 12550" d="M359.892,182.344a3.528,3.528,0,0,0-2.589-.662h0a.291.291,0,0,1-.324-.238.318.318,0,0,1,.252-.351,4.052,4.052,0,0,1,3.1.834h0a.3.3,0,0,1,0,.417.351.351,0,0,1-.132.086.291.291,0,0,1-.307-.086Z" transform="translate(-280.385 -171.518)" fill="#263238"/>
        <path id="Path_12551" data-name="Path 12551" d="M348.376,183.873h0a.291.291,0,0,1-.079-.4,3.079,3.079,0,0,1,2.271-1.556h0a.271.271,0,0,1,.278.271.311.311,0,0,1-.285.324,2.5,2.5,0,0,0-1.788,1.251.3.3,0,0,1-.238.152.232.232,0,0,1-.159-.046Z" transform="translate(-277.436 -171.81)" fill="#263238"/>
        <path id="Path_12552" data-name="Path 12552" d="M356,198.114a25,25,0,0,1,1.755,2.542l.411-.172c1.867-.808,2.4-1.933,2.423-2.933a4.251,4.251,0,0,0-.708-2.231,8.026,8.026,0,0,1-3.251,2.5C356.238,198.015,356,198.114,356,198.114Z" transform="translate(-280.055 -176.338)" fill="#2e353a"/>
        <path id="Path_12553" data-name="Path 12553" d="M356.93,197.823l.271.371a.556.556,0,0,0,.662.179,5.4,5.4,0,0,0,2.648-2.072.536.536,0,0,0,0-.45,4.178,4.178,0,0,0-.3-.53,8.323,8.323,0,0,1-3.281,2.5Z" transform="translate(-280.369 -176.338)" fill="#fff"/>
        <path id="Path_12554" data-name="Path 12554" d="M359.25,201.623c1.867-.808,2.4-1.933,2.423-2.933a5.422,5.422,0,0,0-1.847,1.4,2.648,2.648,0,0,0-.576,1.536Z" transform="translate(-281.153 -177.476)" fill="#de5753"/>
        <path id="Path_12555" data-name="Path 12555" d="M351.428,188c-.324.06-.5.523-.411,1.02s.444.854.768.788.5-.516.411-1.013A.88.88,0,0,0,351.428,188Z" transform="translate(-278.363 -173.864)" fill="#263238"/>
        <path id="Path_12556" data-name="Path 12556" d="M360.008,186.617c-.324.06-.5.516-.411,1.02s.444.854.768.788.5-.523.41-1.02S360.332,186.557,360.008,186.617Z" transform="translate(-281.262 -173.395)" fill="#263238"/>
        <path id="Path_12557" data-name="Path 12557" d="M347.87,191.58l4.178-.94.073,1.774-3.887.927Z" transform="translate(-277.308 -174.756)" fill="#fff" opacity="0.9"/>
        <g id="Group_3293" data-name="Group 3293" transform="translate(76.011 14.202)" opacity="0.8">
          <path id="Path_12558" data-name="Path 12558" d="M356.1,189.5l.5,1.629,5.363-1.152-.318-1.88Z" transform="translate(-356.1 -188.1)" fill="#fff" opacity="0.9"/>
        </g>
        <path id="Path_12559" data-name="Path 12559" d="M354.206,191.154l-.026-.655,1.271-.278.185.616Z" transform="translate(-279.44 -174.614)" fill="#263238"/>
        <path id="Path_12560" data-name="Path 12560" d="M351.92,265.839s7.541,2.92,9.269,3.489a21.643,21.643,0,0,0,6.2,1.423,7.614,7.614,0,0,0,5.873-2.192c1.8-1.92,2.364-4.833,2.834-7.568q2.066-12.044,4.145-24.087c.662-3.973,2.4-9.932,2.258-12.176-.271-4.171-2.926-9.1-9.687-11.8a6.033,6.033,0,0,0-7.435,1.986,22.217,22.217,0,0,0-6.124,12.07c-.755,5.363-1.933,12.309-1.861,17.758C357.482,251.9,354.621,260.933,351.92,265.839Z" transform="translate(-278.676 -182.103)" fill="#263238"/>
        <path id="Path_12561" data-name="Path 12561" d="M379.638,226.059c.768,6.979-3.092,24.571-3.834,25.63-3.165,10.2-11.858,4.7-13.116,4.231-2.192-.808-4.423-2.39-6.508-3.443a98.894,98.894,0,0,1-11.64-6.124l2.119-4.184c4.125,1.4,15.8,4.423,17.725,4.893.834.218,4.085,1.92,4.052-.324.457-.748,1.092-15.321,2.49-20.472a4.344,4.344,0,0,1,.814-1.582l.126-.159a4.463,4.463,0,0,1,7.773,1.536Z" transform="translate(-276.183 -185.638)" fill="#263238"/>
        <path id="Path_12562" data-name="Path 12562" d="M379.638,226.059c.768,6.979-3.092,24.571-3.834,25.63-3.165,10.2-11.858,4.7-13.116,4.231-2.192-.808-4.423-2.39-6.508-3.443a98.894,98.894,0,0,1-11.64-6.124l2.119-4.184c4.125,1.4,15.8,4.423,17.725,4.893.834.218,4.085,1.92,4.052-.324.457-.748,1.092-15.321,2.49-20.472a4.344,4.344,0,0,1,.814-1.582l.126-.159a4.463,4.463,0,0,1,7.773,1.536Z" transform="translate(-276.183 -185.638)" fill="#fff" opacity="0.1"/>
        <path id="Path_12563" data-name="Path 12563" d="M334.1,254.45H314.5l-2.238-25.57h19.6Z" transform="translate(-265.275 -187.677)" fill="#263238"/>
        <path id="Path_12564" data-name="Path 12564" d="M334.1,254.45H314.5l-2.238-25.57h19.6Z" transform="translate(-265.275 -187.677)" fill="#fff" opacity="0.5"/>
        <path id="Path_12565" data-name="Path 12565" d="M333.046,254.26h-19.6l-2.238-25.57h19.6Z" transform="translate(-264.921 -187.613)" fill="#0761ce"/>
        <path id="Path_12566" data-name="Path 12566" d="M333.046,254.26h-19.6l-2.238-25.57h19.6Z" transform="translate(-264.921 -187.613)" fill="#fff" opacity="0.8"/>
        <path id="Path_12567" data-name="Path 12567" d="M328.1,229.468h-8.243l-.278-3.2h8.237Z" transform="translate(-267.749 -186.795)" fill="#d72027"/>
        <path id="Path_12568" data-name="Path 12568" d="M319.58,226.128l.808-.278h8.534l.119,1.357-.636.735-.04,1.112-.265.271-.285-3.2Z" transform="translate(-267.749 -186.654)" fill="#d72027"/>
        <path id="Path_12569" data-name="Path 12569" d="M319.58,226.128l.808-.278h8.534l.119,1.357-.636.735-.04,1.112-.265.271-.285-3.2Z" transform="translate(-267.749 -186.654)" opacity="0.5"/>
        <path id="Path_12570" data-name="Path 12570" d="M346.687,252.772l.444,2.39C346.072,257.923,340,257.2,340,257.2V250.13l5.356,1.245a1.788,1.788,0,0,1,1.331,1.4Z" transform="translate(-274.649 -194.858)" fill="#ffc3bd"/>
        <path id="Path_12571" data-name="Path 12571" d="M336.621,250.13l.026,7.078-5.376.132-1.231-6.224Z" transform="translate(-271.283 -194.858)" fill="#ffc3bd"/>
        <path id="Path_12572" data-name="Path 12572" d="M370.315,315.743l2.046-29.8c.291-4.211,2.344-7.72,5.191-9.382a11.256,11.256,0,0,1,6.3-2.443,6.628,6.628,0,0,1,.728-.033,11.011,11.011,0,0,1,5.3,1.324,1.024,1.024,0,0,1,.146.079,12.474,12.474,0,0,1,4.211,3.82h0a14.322,14.322,0,0,1,2.516,8.17c0,6.621-4.363,12.136-10.09,13.242l-2.218,32.231c-.192,2.741-1.986,4.847-4.158,4.847H369.17Z" transform="translate(-284.505 -202.954)" fill="#d72027"/>
        <path id="Path_12573" data-name="Path 12573" d="M370.315,315.743l2.046-29.8c.291-4.211,2.344-7.72,5.191-9.382a11.256,11.256,0,0,1,6.3-2.443,6.628,6.628,0,0,1,.728-.033,11.011,11.011,0,0,1,5.3,1.324,1.024,1.024,0,0,1,.146.079,12.474,12.474,0,0,1,4.211,3.82h0a14.322,14.322,0,0,1,2.516,8.17c0,6.621-4.363,12.136-10.09,13.242l-2.218,32.231c-.192,2.741-1.986,4.847-4.158,4.847H369.17Z" transform="translate(-284.505 -202.954)" fill="#fff" opacity="0.1"/>
      </g>
      <g id="Group_3295" data-name="Group 3295" transform="translate(107.458 99.946)">
        <path id="Path_12574" data-name="Path 12574" d="M193.569,126.272v27.683a2.648,2.648,0,0,1-2.648,2.648H162.57l-10.13,7.833a1.933,1.933,0,0,1-3.1-1.549V156.6h-1.582a2.648,2.648,0,0,1-2.648-2.648V126.265a2.609,2.609,0,0,1,2.648-2.6h43.209a2.6,2.6,0,0,1,2.6,2.6Z" transform="translate(-141.065 -114.824)" fill="none" stroke="#d72027" stroke-miterlimit="10" stroke-width="1"/>
        <rect id="Rectangle_434" data-name="Rectangle 434" width="5.409" height="0.662" transform="translate(20.545 4.946)" fill="#d72027"/>
        <path id="Path_12575" data-name="Path 12575" d="M139.662,125.576H139v-3.264a4.549,4.549,0,0,1,4.549-4.542h12.07v.662H143.535a3.893,3.893,0,0,0-3.887,3.88Z" transform="translate(-139 -112.831)" fill="#d72027"/>
        <path id="Path_12576" data-name="Path 12576" d="M194.923,139.436a2.086,2.086,0,0,1-2.092-2.238h0c.708-8.071,7.1-8.813,7.906-17.989.232-2.648-.735-3.642-2.582-3.642s-2.986,1-3.218,3.642l-.132,1.51a2.734,2.734,0,0,1-2.728,2.5h0a2.734,2.734,0,0,1-2.721-2.973l.06-.662c.516-5.906,3.714-9.269,9.362-9.269s8.25,3.377,7.733,9.269c-.841,9.567-7.826,11.051-8.422,17.8a.5.5,0,0,1,0,.1A2.1,2.1,0,0,1,196,139.462Zm2.867,5.615h0a2.781,2.781,0,0,1-2.774,2.542h0a2.781,2.781,0,0,1-2.774-3.026h0a2.781,2.781,0,0,1,2.781-2.542h0a2.788,2.788,0,0,1,2.768,3.026Z" transform="translate(-156.011 -110.31)" fill="#6b1013"/>
        <path id="Path_12577" data-name="Path 12577" d="M178.053,143.158H162.824a1.324,1.324,0,0,1,0-2.648h15.228a1.324,1.324,0,1,1,0,2.648Z" transform="translate(-146.603 -120.514)" fill="#d72027"/>
        <path id="Path_12578" data-name="Path 12578" d="M175.961,151.078h-13.1a1.324,1.324,0,0,1,0-2.648h13.1a1.324,1.324,0,1,1,0,2.648Z" transform="translate(-146.616 -123.191)" fill="#d72027"/>
        <path id="Path_12579" data-name="Path 12579" d="M173.855,158.988H162.864a1.324,1.324,0,1,1,0-2.648h10.991a1.324,1.324,0,1,1,0,2.648Z" transform="translate(-146.616 -125.863)" fill="#d72027"/>
      </g>
      <g id="Group_3299" data-name="Group 3299" transform="translate(45.5 149.045)">
        <path id="Path_12580" data-name="Path 12580" d="M125.967,323.51h-9.673c-2.357,0-4.264,1.49-4.264,3.31v5.721c0,1.841,1.907,3.31,4.264,3.31h9.673Z" transform="translate(-67.98 -231.449)" fill="#0761ce"/>
        <path id="Path_12581" data-name="Path 12581" d="M63.429,318.151l-3.363-53.538A34.529,34.529,0,0,1,94.528,227.92h0a34.536,34.536,0,0,1,34.482,32.592l3.522,62.526H68.606A5.211,5.211,0,0,1,63.429,318.151Z" transform="translate(-50.399 -199.149)" fill="#d72027"/>
        <path id="Path_12582" data-name="Path 12582" d="M63.31,316.211l-3.244-51.6A34.529,34.529,0,0,1,94.528,227.92h0a34.536,34.536,0,0,1,34.482,32.592l3.522,62.526H70.593a7.283,7.283,0,0,1-7.283-6.827Z" transform="translate(-50.399 -199.149)" opacity="0.1"/>
        <path id="Path_12583" data-name="Path 12583" d="M78.933,323.038l-3.668-58.424a34.529,34.529,0,0,1,34.469-36.694h0A34.533,34.533,0,0,1,144.21,260.5l3.529,62.537Z" transform="translate(-55.535 -199.149)" fill="#d72027"/>
        <path id="Path_12584" data-name="Path 12584" d="M77.572,381.637h-.881a1.02,1.02,0,0,1-.947-.9L74.42,371.58h5.37l-1.324,9.157A1.006,1.006,0,0,1,77.572,381.637Z" transform="translate(-55.272 -247.691)" fill="#d72027"/>
        <path id="Path_12585" data-name="Path 12585" d="M77.572,381.637h-.881a1.02,1.02,0,0,1-.947-.9L74.42,371.58h5.37l-1.324,9.157A1.006,1.006,0,0,1,77.572,381.637Z" transform="translate(-55.272 -247.691)" fill="#fff" opacity="0.7"/>
        <path id="Path_12586" data-name="Path 12586" d="M208.384,381.637h-.8a.96.96,0,0,1-.854-.9l-1.179-9.157h4.866l-1.179,9.157a.96.96,0,0,1-.854.9Z" transform="translate(-99.58 -247.691)" fill="#d72027"/>
        <path id="Path_12587" data-name="Path 12587" d="M208.384,381.637h-.8a.96.96,0,0,1-.854-.9l-1.179-9.157h4.866l-1.179,9.157a.96.96,0,0,1-.854.9Z" transform="translate(-99.58 -247.691)" fill="#fff" opacity="0.5"/>
        <path id="Path_12588" data-name="Path 12588" d="M170.767,381.637h-.808a.96.96,0,0,1-.854-.9l-1.185-9.157h4.873l-1.179,9.157a.967.967,0,0,1-.847.9Z" transform="translate(-86.865 -247.691)" fill="#d72027"/>
        <path id="Path_12589" data-name="Path 12589" d="M170.767,381.637h-.808a.96.96,0,0,1-.854-.9l-1.185-9.157h4.873l-1.179,9.157a.967.967,0,0,1-.847.9Z" transform="translate(-86.865 -247.691)" fill="#fff" opacity="0.7"/>
        <path id="Path_12590" data-name="Path 12590" d="M118.072,381.637h-.881a1.013,1.013,0,0,1-.947-.9l-1.324-9.157h5.37l-1.324,9.157A1.006,1.006,0,0,1,118.072,381.637Z" transform="translate(-68.957 -247.691)" fill="#d72027"/>
        <path id="Path_12591" data-name="Path 12591" d="M118.072,381.637h-.881a1.013,1.013,0,0,1-.947-.9l-1.324-9.157h5.37l-1.324,9.157A1.006,1.006,0,0,1,118.072,381.637Z" transform="translate(-68.957 -247.691)" fill="#fff" opacity="0.5"/>
        <path id="Path_12592" data-name="Path 12592" d="M163.71,317.01h23.544l1.556-22.677.331-4.873h0l.159-2.245a15.117,15.117,0,0,1,.225-1.755,2,2,0,0,1,.086-.384,1.382,1.382,0,0,1,.073-.285,13.559,13.559,0,0,1,3.582-6.091,11.553,11.553,0,0,1,7.349-3.311H177.74a11.521,11.521,0,0,0-8.025,3.311,13.56,13.56,0,0,0-3.582,6.091,1.383,1.383,0,0,0-.073.285,14.849,14.849,0,0,0-.311,2.139l-.152,2.245h0Z" transform="translate(-85.443 -215.189)" fill="#d72027"/>
        <path id="Path_12593" data-name="Path 12593" d="M163.71,317.01h23.544l1.556-22.677.331-4.873h0l.159-2.245a15.117,15.117,0,0,1,.225-1.755,2,2,0,0,1,.086-.384,1.382,1.382,0,0,1,.073-.285,13.559,13.559,0,0,1,3.582-6.091,11.553,11.553,0,0,1,7.349-3.311H177.74a11.521,11.521,0,0,0-8.025,3.311,13.56,13.56,0,0,0-3.582,6.091,1.383,1.383,0,0,0-.073.285,14.849,14.849,0,0,0-.311,2.139l-.152,2.245h0Z" transform="translate(-85.443 -215.189)" opacity="0.1"/>
        <g id="Group_3296" data-name="Group 3296" transform="translate(45.99 89.737)" opacity="0.1">
          <path id="Path_12594" data-name="Path 12594" d="M128.579,320h-9.461c-2.3,0-4.158,1.457-4.158,3.251v5.6c0,1.794,1.861,3.251,4.158,3.251h9.461Z" transform="translate(-114.96 -320)"/>
        </g>
        <rect id="Rectangle_435" data-name="Rectangle 435" width="48.824" height="12.097" rx="5.42" transform="translate(52.982 89.731)" fill="#d72027"/>
        <path id="Path_12595" data-name="Path 12595" d="M45.5,288.728A13.414,13.414,0,0,0,56.63,301.97l2.443,32.238c.212,2.741,2.2,4.847,4.582,4.847H89.629c-2.384,0-4.37-2.105-4.582-4.847l-1.324-17.215-1.139-15.036a13.408,13.408,0,0,1-9.607-7.065c-.126-.238-.238-.483-.344-.728a13.182,13.182,0,0,1-1.159-5.436,13.356,13.356,0,0,1,.284-2.736c.073-.363.166-.72.259-1.064a13.718,13.718,0,0,1,2.231-4.37h0a13.461,13.461,0,0,1,4.635-3.82,13.3,13.3,0,0,1,5.959-1.417H58.914a13.44,13.44,0,0,0-10.64,5.237h0A13.381,13.381,0,0,0,45.5,288.728Z" transform="translate(-45.5 -215.165)" fill="#d72027"/>
        <path id="Path_12596" data-name="Path 12596" d="M45.5,288.728A13.414,13.414,0,0,0,56.63,301.97l2.443,32.238c.212,2.741,2.2,4.847,4.582,4.847H89.629c-2.384,0-4.37-2.105-4.582-4.847l-1.324-17.215-1.139-15.036a13.408,13.408,0,0,1-9.607-7.065c-.126-.238-.238-.483-.344-.728a13.182,13.182,0,0,1-1.159-5.436,13.356,13.356,0,0,1,.284-2.736c.073-.363.166-.72.259-1.064a13.718,13.718,0,0,1,2.231-4.37h0a13.461,13.461,0,0,1,4.635-3.82,13.3,13.3,0,0,1,5.959-1.417H58.914a13.44,13.44,0,0,0-10.64,5.237h0A13.381,13.381,0,0,0,45.5,288.728Z" transform="translate(-45.5 -215.165)" opacity="0.1"/>
        <path id="Path_12597" data-name="Path 12597" d="M84.72,288.738c0,6.621,4.363,12.143,10.09,13.242l2.211,32.264c.192,2.748,1.986,4.847,4.158,4.847h69.349c2.158,0,3.973-2.1,4.158-4.847l2.218-32.311c5.608-1.179,9.852-6.621,9.852-13.169a14.275,14.275,0,0,0-2.238-7.753,12.62,12.62,0,0,0-4.489-4.244,11.15,11.15,0,0,0-5.429-1.417,11.507,11.507,0,0,0-8.025,3.311,13.593,13.593,0,0,0-3.589,6.091,1.989,1.989,0,0,0-.066.285,13.985,13.985,0,0,0-.311,2.139l-.159,2.244h0l-1.887,27.57H111.144L109.1,287.2c-.3-4.211-2.344-7.72-5.191-9.382a11.349,11.349,0,0,0-6.3-2.443h-.728a11.011,11.011,0,0,0-5.3,1.324.8.8,0,0,0-.152.073,12.667,12.667,0,0,0-4.211,3.82h0a14.275,14.275,0,0,0-2.5,8.146Z" transform="translate(-58.752 -215.175)" fill="#d72027"/>
        <path id="Path_12598" data-name="Path 12598" d="M125.769,339.051h58.265c2.158,0,3.973-2.1,4.158-4.847l2.218-32.311c5.608-1.179,9.852-6.621,9.852-13.169a14.275,14.275,0,0,0-2.238-7.753,12.619,12.619,0,0,0-4.489-4.244,11.149,11.149,0,0,0-5.429-1.417,11.507,11.507,0,0,0-8.025,3.31,13.593,13.593,0,0,0-3.589,6.091,1.988,1.988,0,0,0-.066.285,13.979,13.979,0,0,0-.311,2.139l-.159,2.245h0l-1.887,27.57H124.63Z" transform="translate(-72.238 -215.162)" fill="#fff" opacity="0.1"/>
        <path id="Path_12599" data-name="Path 12599" d="M153.13,382.015l5.648,1.563L163.85,370.3l-5.65-1.563Z" transform="translate(-81.868 -246.732)" fill="#ffc3bd"/>
        <path id="Path_12600" data-name="Path 12600" d="M160.313,387.34a2.947,2.947,0,0,0-1.808-1.1l-5.793-1.132a.536.536,0,0,0-.662.358l-1.794,5.3a1.159,1.159,0,0,0,.708,1.483H151c2.145.848,3.6.556,6.945,1.2,2.072.4,6.409,1.774,9.309,1.655s2.893-2.986,1.675-3.2a14.811,14.811,0,0,1-8.616-4.569Z" transform="translate(-80.874 -252.255)" fill="#263238"/>
        <g id="Group_3297" data-name="Group 3297" transform="translate(73.719 122.008)" opacity="0.2">
          <path id="Path_12601" data-name="Path 12601" d="M165.1,370.309l-2.615,6.846-5.648-1.576,2.609-6.84Z" transform="translate(-156.84 -368.74)"/>
        </g>
        <path id="Path_12602" data-name="Path 12602" d="M132.4,292.239s34.006-.185,32.946,11.2c-.715,7.694-4.41,15.778-7.283,23.584-4.178,11.315-7.8,21.187-7.8,21.187l-7.747-2.682s6.959-32.721,11.646-36.071H125.406c-9.514,0-13.626-10.448-4.363-22.631C126.7,286.85,132.4,292.239,132.4,292.239Z" transform="translate(-69.266 -219.054)" fill="#d72027"/>
        <path id="Path_12603" data-name="Path 12603" d="M132.4,292.233s34.006-.185,32.946,11.2c.523,7.078-15.089,44.758-15.089,44.758l-7.747-2.682s6.959-32.721,11.646-36.071h-28.75c-9.514,0-13.626-10.448-4.363-22.631C126.7,286.843,132.4,292.233,132.4,292.233Z" transform="translate(-69.266 -219.048)" opacity="0.6"/>
        <path id="Path_12604" data-name="Path 12604" d="M164.583,252.642c-4.185,3.82-12.4-5.224-13.725-6.3-2.834-2.317-11.163-10.09-10.726-12.792,1.324-7.945,14.354,3.311,18.122,11.07Z" transform="translate(-77.47 -200.135)" fill="#263238"/>
        <path id="Path_12605" data-name="Path 12605" d="M117.562,227.5c-2.1.444-4.37-.311-5.846,1.245a9.82,9.82,0,0,0-2.3,5.873,39.063,39.063,0,0,0,.463,8.912q.662,5.383,1.384,10.759a31.993,31.993,0,0,1-.338,8.852h0a1.424,1.424,0,0,0,.808,1.543s16.281.556,21.015.377c2.516-.093.788-6.714,1.563-10.594.172-.861,1.854-4.4,2.1-5.3,1.165-4.271.391-7.21-.662-11.5-.788-3.118-1.112-7.614-2.7-7.945C130.188,229.138,123.4,226.258,117.562,227.5Z" transform="translate(-67.069 -198.904)" fill="#0761ce"/>
        <path id="Path_12606" data-name="Path 12606" d="M117.562,227.5c-2.1.444-4.37-.311-5.846,1.245a9.82,9.82,0,0,0-2.3,5.873,39.063,39.063,0,0,0,.463,8.912q.662,5.383,1.384,10.759a31.993,31.993,0,0,1-.338,8.852h0a1.424,1.424,0,0,0,.808,1.543s16.281.556,21.015.377c2.516-.093.788-6.714,1.563-10.594.172-.861,1.854-4.4,2.1-5.3,1.165-4.271.391-7.21-.662-11.5-.788-3.118-1.112-7.614-2.7-7.945C130.188,229.138,123.4,226.258,117.562,227.5Z" transform="translate(-67.069 -198.904)" fill="#fff" opacity="0.8"/>
        <path id="Path_12607" data-name="Path 12607" d="M114.483,231.131c-.218-.331-5.959-5.151-6.985.417-1.45,7.753,1.549,15.381,1.549,15.381s.662,8.389,3.125,9.23,4.754,1.046,5.575-.391a8.521,8.521,0,0,0,.821-3.582S118.29,236.9,114.483,231.131Z" transform="translate(-66.315 -199.473)" fill="#263238"/>
        <path id="Path_12608" data-name="Path 12608" d="M123.493,211.59c.589,3.569,1.086,10.09-1.463,12.388a33.481,33.481,0,0,1,10.322,8.958,5.4,5.4,0,0,0,1.894-6.025,5.257,5.257,0,0,0-2.648-3.165c-2.417-1.324-2.185-3.827-1.523-6.171Z" transform="translate(-71.359 -193.631)" fill="#e8bfbf"/>
        <path id="Path_12609" data-name="Path 12609" d="M125.47,220.74l2.324.894a7.621,7.621,0,0,0,3.125.5h0a4.979,4.979,0,0,0,0,2.211,4.463,4.463,0,0,1-4.635-1.483,7.674,7.674,0,0,1-.814-2.122Z" transform="translate(-72.522 -196.723)" opacity="0.2"/>
        <path id="Path_12610" data-name="Path 12610" d="M210.258,363.451h6.33L209.96,347.58l-4.29,7.283Z" transform="translate(-99.621 -239.582)" fill="#ffc3bd"/>
        <path id="Path_12611" data-name="Path 12611" d="M216.184,368.41l-7.422-1.688a.523.523,0,0,0-.622.338l-2.072,5.707a1.139,1.139,0,0,0,.781,1.41h0c2.6.543,3.88.662,7.144,1.41,1.986.457,7.1,1.794,9.872,2.423s3.5-2.086,2.4-2.6c-4.953-2.291-7.634-4.482-9.071-6.35a1.788,1.788,0,0,0-1.01-.65Z" transform="translate(-99.74 -246.044)" fill="#263238"/>
        <g id="Group_3298" data-name="Group 3298" transform="translate(106.049 107.998)" opacity="0.2">
          <path id="Path_12612" data-name="Path 12612" d="M209.96,347.58l2.821,6.76-5.694,3.178-1.417-2.648Z" transform="translate(-205.67 -347.58)"/>
        </g>
        <path id="Path_12613" data-name="Path 12613" d="M111.192,283.839,110.529,286c-.086.166.106.338.384.351l24.5.742c.225,0,.4-.093.424-.232l.285-2.172c0-.146-.172-.278-.4-.291l-24.1-.728a.444.444,0,0,0-.43.169Z" transform="translate(-67.466 -217.984)" fill="#263238"/>
        <path id="Path_12614" data-name="Path 12614" d="M140.288,300.724c-8.058,3.436-16.8,6.866-21.551,6.866-9.521,0-17.976-6.873-8.965-22.512,5.668,0,15.513.159,15.513.159s18.539-5.3,32.033-3.734a15.229,15.229,0,0,1,13.169,12.15c3.416,17.215,8.68,35.833,8.68,35.833l-6.773,4.635s-10.561-22.2-16.639-39.806C152.537,295.328,146.625,298.022,140.288,300.724Z" transform="translate(-65.921 -217.157)" fill="#d72027"/>
        <path id="Path_12615" data-name="Path 12615" d="M170.454,293.65a15.228,15.228,0,0,0-13.169-12.163c-13.467-1.536-32.033,3.734-32.033,3.734s-9.845-.179-15.513-.159c-9.157,15.573-.556,22.511,8.965,22.511,4.754,0,13.494-3.43,21.551-6.866,6.336-2.7,12.249-5.4,15.467-6.429,6.078,17.625,16.639,39.832,16.639,39.832l6.773-4.635S173.87,310.864,170.454,293.65Z" transform="translate(-65.888 -217.154)" opacity="0.5"/>
        <path id="Path_12616" data-name="Path 12616" d="M187.437,308.286a63.345,63.345,0,0,1-.993,6.588c-.033-.073-.06-.139-.086-.212s0-.033,0-.053a1.185,1.185,0,0,0-.086-.212c-1.8-4.476-3.562-9.064-5.052-13.388h.046C185.12,302.645,187.748,304.976,187.437,308.286Z" transform="translate(-91.359 -223.846)" fill="#d72027"/>
        <path id="Path_12617" data-name="Path 12617" d="M187.437,308.286a63.345,63.345,0,0,1-.993,6.588c-.033-.073-.06-.139-.086-.212s0-.033,0-.053a1.185,1.185,0,0,0-.086-.212c-1.8-4.476-3.562-9.064-5.052-13.388h.046C185.12,302.645,187.748,304.976,187.437,308.286Z" transform="translate(-91.359 -223.846)" opacity="0.6"/>
        <path id="Path_12618" data-name="Path 12618" d="M117.424,200.832c1.986,5.6,2.715,8,6.436,10.1,5.608,3.165,12.03-.516,11.752-6.621-.252-5.462-3.463-13.7-9.687-14.361a8.1,8.1,0,0,0-8.5,10.852Z" transform="translate(-69.633 -186.303)" fill="#e8bfbf"/>
        <path id="Path_12619" data-name="Path 12619" d="M132.843,204.789c.139.483.49.768.795.662s.424-.53.3-1-.483-.768-.795-.662S132.711,204.325,132.843,204.789Z" transform="translate(-74.995 -190.988)" fill="#263238"/>
        <path id="Path_12620" data-name="Path 12620" d="M140.7,202.309c.139.49.49.775.795.662s.424-.53.3-1-.49-.768-.788-.662A.794.794,0,0,0,140.7,202.309Z" transform="translate(-77.649 -190.15)" fill="#263238"/>
        <path id="Path_12621" data-name="Path 12621" d="M141,201.092l1.02-.662S141.7,201.469,141,201.092Z" transform="translate(-77.769 -189.86)" fill="#263238"/>
        <path id="Path_12622" data-name="Path 12622" d="M137.91,204.43a12.916,12.916,0,0,0,2.5,2.49,2.053,2.053,0,0,1-1.569.761Z" transform="translate(-76.725 -191.212)" fill="#ed847e"/>
        <path id="Path_12623" data-name="Path 12623" d="M110.754,207.5a16.825,16.825,0,0,1,.92,3.118,4.324,4.324,0,0,1-3.675,4.5,4.151,4.151,0,0,0,4.787-2.165,5.648,5.648,0,0,1-2.8,3.085,6,6,0,0,0,4.8-2.311c-.311.808-.662,1.609-.94,2.417a10.375,10.375,0,0,0,3.741-3.92,1.989,1.989,0,0,0,.152-2.1c-.463-.583-1.2-.543-1.874-.556s-1.49-.172-1.735-.8a1.611,1.611,0,0,1,.7-1.688,3.447,3.447,0,0,0,1.258-1.457,2.741,2.741,0,0,0-.093-1.364q-.457-1.827-.9-3.661a3.8,3.8,0,0,0-.457-1.225c-1.324-1.986-2.8.927-3.311,1.914a8.68,8.68,0,0,0-.569,6.217Z" transform="translate(-66.619 -189.274)" fill="#263238"/>
        <path id="Path_12624" data-name="Path 12624" d="M116.832,212.924A4.674,4.674,0,0,0,119.9,214.7c1.622.2,2.192-1.324,1.543-2.708-.589-1.271-2.139-2.893-3.668-2.463a2.09,2.09,0,0,0-.943,3.395Z" transform="translate(-69.432 -192.913)" fill="#e8bfbf"/>
        <path id="Path_12625" data-name="Path 12625" d="M131.517,199.1a.311.311,0,0,1-.245.252,3.529,3.529,0,0,0-2.092,1.86.3.3,0,1,1-.546-.239,4.2,4.2,0,0,1,2.523-2.211.3.3,0,0,1,.344.238.172.172,0,0,1,.013.1Z" transform="translate(-73.583 -189.294)" fill="#263238"/>
        <path id="Path_12626" data-name="Path 12626" d="M138.1,197.268a.324.324,0,0,0-.252.066c-.073.079-.318.219-.179.291.808.411,1.927,1.086,2.787.947.146,0,.49-.152.417-.258a.424.424,0,0,0-.4-.126c-.662.093-1.6-.55-2.231-.881a.6.6,0,0,0-.146-.04Z" transform="translate(-76.629 -188.791)" fill="#263238"/>
        <path id="Path_12627" data-name="Path 12627" d="M133.14,203.562l1.026-.662S133.842,203.953,133.14,203.562Z" transform="translate(-75.113 -190.695)" fill="#263238"/>
        <path id="Path_12628" data-name="Path 12628" d="M125.244,186.04a14.228,14.228,0,0,0-4.84-.417,11.428,11.428,0,0,0-6.416,2.218,10.461,10.461,0,0,0-3.5,5.6,16.189,16.189,0,0,0-.172,6.674,4.343,4.343,0,0,0,1.284,2.794,16.981,16.981,0,0,1,.6-3.516,5.72,5.72,0,0,1,1.986-2.92,3.1,3.1,0,0,0,1.059-.94,3.86,3.86,0,0,0,.238-1.205,3.721,3.721,0,0,1,1.549-2.271,12.707,12.707,0,0,1,2.5-1.285c2.787-1.2,5.827-1.887,8.4-3.5a12.163,12.163,0,0,0-2.688-1.232Z" transform="translate(-67.31 -184.839)" fill="#263238"/>
        <path id="Path_12629" data-name="Path 12629" d="M114.929,194.526A4.383,4.383,0,0,0,117.293,196c1.1.252,3.847.185,4.012-.1s-.814-3.37-1.927-3.555a7.508,7.508,0,0,0,2.688,1.668,8.779,8.779,0,0,0,3.443,0c.583-.132-.722-2.542-1.669-3.231,2.854.6,5.873,1.278,7.945,3.311a11.144,11.144,0,0,1,2.86,8.25,4.105,4.105,0,0,0,1.529-3.258,12.163,12.163,0,0,1-.841,9.448c3.032-2.49,4.165-6.84,3.37-10.68a17.3,17.3,0,0,0-6.363-9.64,15.667,15.667,0,0,0-9.157-3.748C118.783,184.336,110.625,189.342,114.929,194.526Z" transform="translate(-68.549 -184.466)" fill="#263238"/>
        <path id="Path_12630" data-name="Path 12630" d="M116.379,222.266c0-.218.053-.51.079-.814a2.834,2.834,0,0,0-2.3-3.019h0a1.172,1.172,0,0,1-.9-.768c-.51-1.483-.708-1.933-1.2-3.39-1.324-.324-2.92.172-4.3.318a12.064,12.064,0,0,0-.079,5.058,2.271,2.271,0,0,0,.424,1.033,18.055,18.055,0,0,0,4.132,2.542C113.42,223.591,115.1,222.379,116.379,222.266Z" transform="translate(-66.43 -194.502)" fill="#e8bfbf"/>
        <path id="Path_12631" data-name="Path 12631" d="M114.069,227.175s-3.648,23.538.113,27.146c2.2,2.1,4.112.94,5.3-.377a4.7,4.7,0,0,0,1.152-3.628L118.068,226.2a2.874,2.874,0,0,0-4,.975Z" transform="translate(-68.133 -198.418)" fill="#e8bfbf"/>
        <path id="Path_12632" data-name="Path 12632" d="M172.289,249.674a10,10,0,0,0,3.085-4.953,9.659,9.659,0,0,0,.132-2.053,114.112,114.112,0,0,0-1.238-12.083l-3.463-1.145s-1.079,5.959-1.324,9.216c-.046.662-.119,1.4-.2,2.2-.152,1.457-.338,3.059-.5,4.39Z" transform="translate(-87.156 -199.663)" fill="#e8bfbf"/>
        <path id="Path_12633" data-name="Path 12633" d="M173.778,257.371c1.066-.973,1.245-2.152,1.794-4.635.523-2.37-.066-5.3-.556-4.853a.477.477,0,0,0-.132.205c-.841,1.986-4.112.245-5.039-.748a6.758,6.758,0,0,1-1.046-1.271,1.066,1.066,0,0,1,0-1.2c-1.006-.417-1.814,3.542-1.324,4.516l.252.735a10.243,10.243,0,0,0,1.814,3.271l1.821,2.192Z" transform="translate(-86.665 -204.864)" fill="#263238"/>
        <path id="Path_12634" data-name="Path 12634" d="M171.49,227.1l-.411-6.052a24.59,24.59,0,0,0,3.311,1.291c1.682.576,3.973-.437,3.443.662a46.021,46.021,0,0,1-2.821,4.741Z" transform="translate(-87.933 -196.828)" fill="#e8bfbf"/>
        <path id="Path_12635" data-name="Path 12635" d="M171.08,217.958l2.6-6.058,3.39,2.072c.934,2.026.821,5.959.821,5.959S173.172,220.117,171.08,217.958Z" transform="translate(-87.933 -193.736)" fill="#e8bfbf"/>
        <path id="Path_12636" data-name="Path 12636" d="M137.3,213.542c.086.43.4.735.662.662s.43-.457.338-.887-.4-.735-.662-.662A.734.734,0,0,0,137.3,213.542Z" transform="translate(-76.509 -193.987)" fill="#263238"/>
        <path id="Path_12637" data-name="Path 12637" d="M111.138,317.01l-2.046-29.8c-.3-4.211-2.344-7.72-5.191-9.382a11.349,11.349,0,0,0-6.3-2.443h-.728a11.011,11.011,0,0,0-5.3,1.324.8.8,0,0,0-.152.073,12.666,12.666,0,0,0-4.211,3.82h0a14.275,14.275,0,0,0-2.516,8.17c0,6.621,4.363,12.143,10.09,13.242L97,334.284c.192,2.748,1.986,4.847,4.158,4.847h11.1Z" transform="translate(-58.745 -215.189)" fill="#d72027"/>
        <path id="Path_12638" data-name="Path 12638" d="M111.138,317.01l-2.046-29.8c-.3-4.211-2.344-7.72-5.191-9.382a11.349,11.349,0,0,0-6.3-2.443h-.728a11.011,11.011,0,0,0-5.3,1.324.8.8,0,0,0-.152.073,12.666,12.666,0,0,0-4.211,3.82h0a14.275,14.275,0,0,0-2.516,8.17c0,6.621,4.363,12.143,10.09,13.242L97,334.284c.192,2.748,1.986,4.847,4.158,4.847h11.1Z" transform="translate(-58.745 -215.189)" fill="#fff" opacity="0.1"/>
      </g>
      <g id="Group_3300" data-name="Group 3300" transform="translate(102.863 223.255)">
        <ellipse id="Ellipse_61" data-name="Ellipse 61" cx="22.207" cy="5.681" rx="22.207" ry="5.681" transform="translate(52.055 70.686)" fill="#263238"/>
        <ellipse id="Ellipse_62" data-name="Ellipse 62" cx="22.207" cy="4.734" rx="22.207" ry="4.734" transform="translate(52.055 70.686)" fill="#fff" opacity="0.3"/>
        <path id="Path_12639" data-name="Path 12639" d="M242.9,387.128h-3.668l-4.237-45.7h12.143Z" transform="translate(-166.8 -311.714)" fill="#263238"/>
        <path id="Path_12640" data-name="Path 12640" d="M247.133,340.2c0,1.324-2.715,2.41-6.071,2.41s-6.072-1.079-6.072-2.41,2.721-2.41,6.072-2.41S247.133,338.869,247.133,340.2Z" transform="translate(-166.8 -310.485)" fill="#263238"/>
        <path id="Path_12641" data-name="Path 12641" d="M247.133,340.2c0,1.324-2.715,2.41-6.071,2.41s-6.072-1.079-6.072-2.41,2.721-2.41,6.072-2.41S247.133,338.869,247.133,340.2Z" transform="translate(-166.8 -310.485)" fill="#fff" opacity="0.7"/>
        <path id="Path_12642" data-name="Path 12642" d="M132,341.78a2.052,2.052,0,0,1,.708-1.43c5.131,5.164,37.687,9.144,77.082,9.144s71.951-3.973,77.089-9.144a2.052,2.052,0,0,1,.708,1.43c0,5.833-34.833,10.594-77.8,10.594S132,347.613,132,341.78Z" transform="translate(-132 -311.35)" fill="#fff" opacity="0.7"/>
        <path id="Path_12643" data-name="Path 12643" d="M133.11,339.837c5.131-5.164,37.687-9.137,77.082-9.137s71.951,3.973,77.089,9.137c-5.138,5.164-37.694,9.144-77.089,9.144S138.241,345,133.11,339.837Z" transform="translate(-132.375 -308.089)" fill="#fff" opacity="0.7"/>
        <path id="Path_12644" data-name="Path 12644" d="M132,336.794c0-5.84,34.827-10.594,77.791-10.594s77.8,4.727,77.8,10.594a2.026,2.026,0,0,1-.708,1.424c-5.138-5.164-37.694-9.137-77.089-9.137s-71.951,3.973-77.082,9.137A2.026,2.026,0,0,1,132,336.794Z" transform="translate(-132 -306.568)" fill="#fff" opacity="0.7"/>
        <path id="Path_12645" data-name="Path 12645" d="M277.936,333.372l-32.549-.616a.662.662,0,0,1-.589-.742h0a.662.662,0,0,1,.622-.715l32.549.616a.662.662,0,0,1,.6.742h0a.662.662,0,0,1-.629.715Z" transform="translate(-170.112 -308.292)" fill="#263238"/>
        <path id="Path_12646" data-name="Path 12646" d="M277.936,333.372l-32.549-.616a.662.662,0,0,1-.589-.742h0a.662.662,0,0,1,.622-.715l32.549.616a.662.662,0,0,1,.6.742h0a.662.662,0,0,1-.629.715Z" transform="translate(-170.112 -308.292)" fill="#fff" opacity="0.2"/>
        <path id="Path_12647" data-name="Path 12647" d="M310.437,330.1l-15.559,2.35a.662.662,0,0,1-.662-.629h0a.728.728,0,0,1,.536-.814l15.559-2.35a.662.662,0,0,1,.662.629h0A.728.728,0,0,1,310.437,330.1Z" transform="translate(-186.809 -307.4)" fill="#263238"/>
        <path id="Path_12648" data-name="Path 12648" d="M293.921,328.66H261.028l-15.288,1.748,31.662.6Z" transform="translate(-170.432 -307.4)" fill="#263238"/>
        <path id="Path_12649" data-name="Path 12649" d="M293.921,328.66H261.028l-15.288,1.748,31.662.6Z" transform="translate(-170.432 -307.4)" fill="#fff" opacity="0.6"/>
        <path id="Path_12650" data-name="Path 12650" d="M310.437,330.1l-15.559,2.35a.662.662,0,0,1-.662-.629h0a.728.728,0,0,1,.536-.814l15.559-2.35a.662.662,0,0,1,.662.629h0A.728.728,0,0,1,310.437,330.1Z" transform="translate(-186.809 -307.4)" fill="#fff" opacity="0.5"/>
        <path id="Path_12651" data-name="Path 12651" d="M276.552,320.188l-30.351-.569a2.357,2.357,0,0,1-2.059-2.357l-.914-18.327a1.994,1.994,0,0,1,1.827-2.284l30.351.576a2.344,2.344,0,0,1,2.059,2.357l.92,18.32a2,2,0,0,1-1.833,2.284Z" transform="translate(-169.582 -296.583)" fill="#d72027"/>
        <path id="Path_12652" data-name="Path 12652" d="M276.552,320.188l-30.351-.569a2.357,2.357,0,0,1-2.059-2.357l-.914-18.327a1.994,1.994,0,0,1,1.827-2.284l30.351.576a2.344,2.344,0,0,1,2.059,2.357l.92,18.32a2,2,0,0,1-1.833,2.284Z" transform="translate(-169.582 -296.583)" fill="#fff" opacity="0.2"/>
        <path id="Path_12653" data-name="Path 12653" d="M275.208,320.061l-30.351-.576a2.357,2.357,0,0,1-2.066-2.357l-.914-18.294a1.994,1.994,0,0,1,1.834-2.284l30.344.569a2.357,2.357,0,0,1,2.066,2.357l.927,18.3a2.011,2.011,0,0,1-1.84,2.285Z" transform="translate(-169.126 -296.55)" fill="#d72027"/>
        <path id="Path_12654" data-name="Path 12654" d="M275.208,320.061l-30.351-.576a2.357,2.357,0,0,1-2.066-2.357l-.914-18.294a1.994,1.994,0,0,1,1.834-2.284l30.344.569a2.357,2.357,0,0,1,2.066,2.357l.927,18.3a2.011,2.011,0,0,1-1.84,2.285Z" transform="translate(-169.126 -296.55)" fill="#fff" opacity="0.6"/>
        <path id="Path_12655" data-name="Path 12655" d="M262.352,312.2a3.582,3.582,0,0,0,3.5,3.218,2.907,2.907,0,0,0,2.94-3.218,3.6,3.6,0,0,0-3.5-3.2,2.907,2.907,0,0,0-2.94,3.2Z" transform="translate(-176.041 -300.756)" fill="#fff"/>
      </g>
    </g>
  </g>
</svg>
