<svg xmlns="http://www.w3.org/2000/svg" xmlns:xlink="http://www.w3.org/1999/xlink" width="550" height="310" viewBox="0 0 550 310">
  <defs>
    <radialGradient id="radial-gradient" cx="0.5" cy="0.5" r="1.176" gradientTransform="translate(0.167 0.109) scale(0.667 0.783)" gradientUnits="objectBoundingBox">
      <stop offset="0" stop-color="#fff"/>
      <stop offset="0.279" stop-color="#fff"/>
      <stop offset="0.437" stop-color="#fffcfd"/>
      <stop offset="0.612" stop-color="#f7edee"/>
      <stop offset="0.795" stop-color="#f2e4e4"/>
      <stop offset="0.982" stop-color="#f2d5d6"/>
      <stop offset="1" stop-color="#edcccd"/>
    </radialGradient>
  </defs>
  <g id="attendees" transform="translate(-1165 -139)">
    <path id="Path_12864" data-name="Path 12864" d="M6,0H544a6,6,0,0,1,6,6V310H0V6A6,6,0,0,1,6,0Z" transform="translate(1165 139)" fill="url(#radial-gradient)"/>
    <g id="Group_3323" data-name="Group 3323" transform="translate(1308.56 139.307)">
      <path id="Path_12865" data-name="Path 12865" d="M47.983,335.842c46.048,24.665,120.712,24.665,166.766,0s46.053-64.655,0-89.325-120.717-24.665-166.771,0S1.929,311.182,47.983,335.842Z" transform="translate(0 -84.648)" fill="#f5f5f5" opacity="0.7"/>
      <ellipse id="Ellipse_64" data-name="Ellipse 64" cx="21.95" cy="12.674" rx="21.95" ry="12.674" transform="translate(77.352 213.708)" fill="#e0e0e0"/>
      <g id="Group_3318" data-name="Group 3318" transform="translate(26.763 54.093)">
        <path id="Path_12866" data-name="Path 12866" d="M37.646,172.03a4.278,4.278,0,0,1,1.932-3.358l99.1-57.224a4.294,4.294,0,0,1,3.854,0l2.2,1.261a4.283,4.283,0,0,1,1.938,3.353v75.976a4.311,4.311,0,0,1-1.938,3.358l-99.1,57.224a4.327,4.327,0,0,1-3.854,0l-2.2-1.261A4.294,4.294,0,0,1,37.64,248Z" transform="translate(-37.64 -86.138)" fill="#d72027"/>
        <path id="Path_12867" data-name="Path 12867" d="M143.032,91.158,94.066,66.6a5.087,5.087,0,0,0-7.113,1.861L38.67,149.83l2.56,1.475,104.318-58.66Z" transform="translate(-38.103 -65.849)" fill="#d72027"/>
        <path id="Path_12868" data-name="Path 12868" d="M143.032,91.158,94.066,66.6a5.087,5.087,0,0,0-7.113,1.861L38.67,149.83l2.56,1.475,104.318-58.66Z" transform="translate(-38.103 -65.849)" opacity="0.1"/>
        <path id="Path_12869" data-name="Path 12869" d="M37.64,220.308v75.976a4.278,4.278,0,0,0,1.943,3.353l2.2,1.266a3.638,3.638,0,0,0,.551.237,3.933,3.933,0,0,0,.8.182,4.607,4.607,0,0,0,1.531-.055,1.3,1.3,0,0,0,.374-.1,1.389,1.389,0,0,0,.226-.094,1.14,1.14,0,0,1-.925,0,1.343,1.343,0,0,1-.595-1.272V223.826a1.7,1.7,0,0,1,1.007-1.652l-1.007-.584-5.5-3.17a4,4,0,0,0-.6,1.888Z" transform="translate(-37.64 -134.422)" opacity="0.1"/>
        <path id="Path_12870" data-name="Path 12870" d="M148.775,115.94l-44.666,71.478-2.2-.429a9.013,9.013,0,0,0-9.018,3.551l-2.709,3.733L47.237,175.46l-3.947-2.279L147.63,114.52a4.4,4.4,0,0,1,1.145,1.42Z" transform="translate(-40.179 -87.724)" opacity="0.1"/>
        <path id="Path_12871" data-name="Path 12871" d="M147.638,93.833a7.085,7.085,0,0,0-.842-.551L98.749,69.267a5.087,5.087,0,0,0-7.157,1.861L43.32,152.493Z" transform="translate(-40.193 -67.037)" fill="#d72027"/>
        <path id="Path_12872" data-name="Path 12872" d="M197.947,255.552a4.245,4.245,0,0,0,.908-2.373L153.71,246.93Z" transform="translate(-89.808 -147.236)" opacity="0.2"/>
        <path id="Path_12873" data-name="Path 12873" d="M92.618,259.38,49.124,319.34a1.453,1.453,0,0,1-.418-1.145v-.826Z" transform="translate(-42.611 -152.832)" opacity="0.2"/>
      </g>
      <g id="Group_3319" data-name="Group 3319" transform="translate(209.289 39.693)">
        <path id="Path_12874" data-name="Path 12874" d="M404.152,41.783l3.854,2.2a3.974,3.974,0,0,1-.033-.506v-1.1c0-1.971,1.382-2.753,3.094-1.789a6.057,6.057,0,0,1,1.844,1.778c.281-2.483,2.2-3.408,4.592-2.043a10.23,10.23,0,0,1,4.625,8.016v1.652a4.366,4.366,0,0,1-.391,1.927l3.182,1.833a3.788,3.788,0,0,1,1.712,2.973c0,1.1-.765,1.536-1.712.991L404.152,45.747a3.793,3.793,0,0,1-1.712-2.973C402.44,41.679,403.2,41.238,404.152,41.783Z" transform="translate(-386.48 -39.693)" fill="#ebebeb"/>
        <path id="Path_12875" data-name="Path 12875" d="M374.744,62.453l2.89,1.652V62.9c0-1.492,1.046-2.092,2.334-1.349a4.581,4.581,0,0,1,1.393,1.338c.209-1.872,1.679-2.571,3.463-1.542a7.735,7.735,0,0,1,3.49,6.056v1.244a3.3,3.3,0,0,1-.292,1.448l2.4,1.387a2.868,2.868,0,0,1,1.294,2.241c0,.826-.584,1.162-1.294.749l-15.68-9.029A2.879,2.879,0,0,1,373.45,63.2C373.45,62.376,374.034,62.045,374.744,62.453Z" transform="translate(-373.45 -49.214)" fill="#ebebeb"/>
      </g>
      <g id="Group_3322" data-name="Group 3322" transform="translate(84.057 58.592)">
        <g id="Group_3321" data-name="Group 3321" transform="translate(0 34.512)">
          <path id="Path_12876" data-name="Path 12876" d="M205.208,190.445a28.314,28.314,0,0,0-2.9,2.12,6.5,6.5,0,0,1-2.56,1.778c-1.272.5-2.466.352-5.99-.209-4.316-.694-6.172-1.415-8.033-3.006-2.175-1.855-7.036-7.449-9.392-9.651a6.772,6.772,0,0,0-5.907-1.426,35.714,35.714,0,0,0,4.669,9.684c1.883,2.681,5.4,5.247,7,6.574,2.544,2.12,3.9,2.956,9.5,3.375a57.48,57.48,0,0,0,8.258.319c1.25-.039,2.032-.05,4.074-.22a11.76,11.76,0,0,0,2.626-.457,9.734,9.734,0,0,0,2.753-1.1,7.41,7.41,0,0,0,2.61-2.934,4.608,4.608,0,0,0,.485-2.109,3.078,3.078,0,0,0-.76-2,.82.82,0,0,0-.352-.259,1.029,1.029,0,0,0-.76.16,44.452,44.452,0,0,1-4.041,2.147c-1.173.451-2.059.606-1.976.369s.793-.451,1.52-1.272.908-1.96.44-2.312S206.051,189.751,205.208,190.445Z" transform="translate(-154.701 -156.117)" fill="#b16668"/>
          <path id="Path_12877" data-name="Path 12877" d="M168.61,179.641a6.447,6.447,0,0,1,4.278-.462c2.2.622,3.925,2.048,6,4.272s5.577,5.836,5.577,5.836-1.723,4.366-5.6,5.913l-8.126-7.515Z" transform="translate(-153.882 -155.724)" fill="#455a64"/>
          <g id="Group_3320" data-name="Group 3320">
            <rect id="Rectangle_450" data-name="Rectangle 450" width="4.927" height="8.434" transform="translate(7.714 132.111) rotate(180)" fill="#b16668"/>
            <path id="Path_12878" data-name="Path 12878" d="M171.69,357.934l4.922.171.248-8.924-5.17-.171Z" transform="translate(-155.267 -232.133)" fill="#b16668"/>
            <path id="Path_12879" data-name="Path 12879" d="M142.553,241.5c0,4.7.831,32.064.831,32.064-.116,1.354-1.42,3.76-1.52,8.638-.149,7.069,2.577,26.481,2.577,26.481a6.474,6.474,0,0,0,5.505.11s2.235-26.316,3.116-33.314c.771-6.111,2.076-22.7,2.076-22.7l2.323,19.941a28.019,28.019,0,0,0-.611,7.829c.231,3.237,1.14,23.283,1.14,23.283a6.717,6.717,0,0,0,5.687.435s3.474-28.573,3.535-31.546c.066-3.386-1.288-37.949-1.288-37.949Z" transform="translate(-141.859 -180.787)" fill="#37474f"/>
            <path id="Path_12880" data-name="Path 12880" d="M146.357,181.738a4.531,4.531,0,0,0-2.378,2.472,11.605,11.605,0,0,0-.721,4.256v9.657l-.138,18.223a22.008,22.008,0,0,0,23.6-1.531s-.424-23.459-.424-27.3v-.551a8.746,8.746,0,0,0-10.983-7.878l-4.465,1.151Z" transform="translate(-142.426 -155.635)" fill="#f0f0f0"/>
            <circle id="Ellipse_65" data-name="Ellipse 65" cx="6.772" cy="6.772" r="6.772" transform="translate(8.427 13.181) rotate(-76.72)" fill="#263238"/>
            <path id="Path_12881" data-name="Path 12881" d="M150.71,160.27a58.626,58.626,0,0,0,1.542,6,2.3,2.3,0,0,0,1.349,1.1l-.077-3.623Z" transform="translate(-145.837 -147.303)" fill="#263238"/>
            <path id="Path_12882" data-name="Path 12882" d="M151.117,146.846a2.527,2.527,0,0,0-2.1.738c-.9.925-.4,3.815.721,6.645l2.07.237Z" transform="translate(-144.868 -141.262)" fill="#263238"/>
            <path id="Path_12883" data-name="Path 12883" d="M151.712,151.864c-.413.248-1-.551-1.514-1.1a1.793,1.793,0,0,0-3.012.49c-.809,1.751.732,4.146,2.048,4.559,2.263.71,2.6-.738,2.6-.738l.165,8.412h0c2.813,3.606,10.626,3.3,7.372-.468v-2.483a14.281,14.281,0,0,0,3.056.16c1.652-.259,2.709-1.575,3.215-3.375.809-2.9,1.1-5.23.429-10.923-.754-6.238-8.01-6.3-11.925-3.854S151.712,151.864,151.712,151.864Z" transform="translate(-144.153 -138.661)" fill="#b16668"/>
            <path id="Path_12884" data-name="Path 12884" d="M154.131,150.65c-.209,0-1-1.31-1.514-1.784-.716-.65.2-6.535.2-6.535a2.8,2.8,0,0,1,.694-2.978c.98-1.1,2.043-1.762,4.867-1.91a57.364,57.364,0,0,1,5.781.27c2.791.187,3.815-.5,5.417-.947,1.228-.341,1.365,4.08-1.729,5.544a9.533,9.533,0,0,1-3.661.974,39.086,39.086,0,0,1-7.344-.138c-.765-.1-.93.639-1.349,2.676C155.133,147.589,154.836,150.617,154.131,150.65Z" transform="translate(-146.572 -136.73)" fill="#263238"/>
            <path id="Path_12885" data-name="Path 12885" d="M151.175,145.947,148.67,144.6a1.382,1.382,0,0,1,1.9-.622A1.492,1.492,0,0,1,151.175,145.947Z" transform="translate(-144.92 -139.906)" fill="#263238"/>
            <path id="Path_12886" data-name="Path 12886" d="M163.93,173.855a28.637,28.637,0,0,1-5.01-1.437,4.333,4.333,0,0,1-1.8-1.778,5.94,5.94,0,0,0,1.024,2.1c.947,1.211,5.786,2.109,5.786,2.109Z" transform="translate(-148.718 -151.964)" fill="#9a4a4d"/>
            <path id="Path_12887" data-name="Path 12887" d="M167.946,158.393a.743.743,0,1,1-.743-.743A.743.743,0,0,1,167.946,158.393Z" transform="translate(-152.916 -146.126)" fill="#263238"/>
            <path id="Path_12888" data-name="Path 12888" d="M166.341,153.5l-1.591.881a.952.952,0,0,1,.369-1.272.892.892,0,0,1,1.222.391Z" transform="translate(-152.098 -144.039)" fill="#263238"/>
            <path id="Path_12889" data-name="Path 12889" d="M168.84,168.36l1.7.633a.892.892,0,0,1-1.156.551.952.952,0,0,1-.544-1.184Z" transform="translate(-153.964 -150.939)" fill="#9a4a4d"/>
            <path id="Path_12890" data-name="Path 12890" d="M179.643,153.793l-1.453-1.1a.886.886,0,0,1,1.266-.193.958.958,0,0,1,.187,1.293Z" transform="translate(-158.188 -143.728)" fill="#263238"/>
            <path id="Path_12891" data-name="Path 12891" d="M178.778,158a.754.754,0,1,1-.209-.544.754.754,0,0,1,.209.544Z" transform="translate(-157.78 -145.932)" fill="#263238"/>
            <path id="Path_12892" data-name="Path 12892" d="M173.13,157.35l.242,4.476,2.34-.8Z" transform="translate(-155.914 -145.991)" fill="#9a4a4d"/>
            <path id="Path_12893" data-name="Path 12893" d="M150.959,371.7V371c.468.2,1.564,4.4,3.518,6.166,1.553,1.415,3.672,3.05,4.212,4.63s-2.951,2.555-4.4,2.3c-1.685-.3-4.608-1.487-5.34-2.588s-1.1-2.725-1.652-3.529-1.971-1.712-2.3-2.643a5.974,5.974,0,0,1,.281-2.588c.248-.936.479-1.828.776-1.745v.551a3.854,3.854,0,0,0,2.461.831C149.214,372.383,150.965,372.245,150.959,371.7Z" transform="translate(-143.24 -242.012)" fill="#263238"/>
            <path id="Path_12894" data-name="Path 12894" d="M175.463,362.507c.253,0,.462.369,1.024.98a10.79,10.79,0,0,0,2.9,2.087c1.844.925,5.428,2.345,7.053,3.072,1.013.457.963,1.685-.083,2.378s-3.579,1.2-6.607.523c-1.652-.369-3.81-1.9-5.175-1.817s-3.914.061-4.922-.633-.6-2.175-.319-3.446c.314-1.393.7-3.557,1.162-3.463v.479c.589.9,3.645,1.261,4.955.6Z" transform="translate(-154.063 -238.054)" fill="#263238"/>
            <path id="Path_12895" data-name="Path 12895" d="M165.94,264.261a18.224,18.224,0,0,0,6.86-3.931,14.175,14.175,0,0,1-5.258,4.784l.551,17.414Z" transform="translate(-152.682 -192.275)" fill="#263238"/>
          </g>
        </g>
        <path id="Path_12896" data-name="Path 12896" d="M284.122,76.167c-.083-.617-.584-.842-1.178-.5l-64.706,37.366a2.488,2.488,0,0,0-.842.892l-2.235-1.294a2.422,2.422,0,0,1,.842-.886l64.706-37.366a2.2,2.2,0,0,1,3.413,1.784Z" transform="translate(-174.804 -74.02)" fill="#fafafa"/>
        <path id="Path_12897" data-name="Path 12897" d="M217.736,263.458a3.182,3.182,0,0,1-.7.171,2.356,2.356,0,0,1-1.387-.237,2.56,2.56,0,0,1-1.1-2.021V145.338a1.242,1.242,0,0,1,0-.143,2.785,2.785,0,0,1,.05-.3,3.006,3.006,0,0,1,.3-.738l2.235,1.294a2.439,2.439,0,0,0-.347,1.173V262.66c0,.551.27.853.655.853a.726.726,0,0,0,.154,0,.786.786,0,0,0,.143-.055Z" transform="translate(-174.529 -105.551)" fill="#e0e0e0"/>
        <path id="Path_12898" data-name="Path 12898" d="M218.59,116.326V232.355c0,.76.551,1.068,1.189.683l64.706-37.359a2.643,2.643,0,0,0,1.189-2.064V77.585c0-.76-.551-1.068-1.189-.688l-64.706,37.364a2.615,2.615,0,0,0-1.189,2.064Z" transform="translate(-176.346 -75.24)" fill="#fafafa"/>
        <path id="Path_12899" data-name="Path 12899" d="M240.743,164.281a.8.8,0,0,1-.138-.551V152.075a1.651,1.651,0,0,1,.138-.727,1.041,1.041,0,0,1,.44-.473l.952-.551q.325-.182.446-.05a.87.87,0,0,1,.132.584V162.5a1.651,1.651,0,0,1-.132.71,1.035,1.035,0,0,1-.446.468l-.952.551C240.98,164.347,240.82,164.363,240.743,164.281Z" transform="translate(-186.238 -108.269)" fill="#d72027"/>
        <path id="Path_12900" data-name="Path 12900" d="M247.507,157.773a.809.809,0,0,1-.132-.551V145.545a1.714,1.714,0,0,1,.132-.716,1.1,1.1,0,0,1,.451-.468l.793-.451a.33.33,0,0,1,.551.1l3.573,5.7v-7.328a1.783,1.783,0,0,1,.132-.727,1.03,1.03,0,0,1,.44-.468l.958-.551c.209-.127.358-.143.446-.055a.925.925,0,0,1,.127.584v11.65a1.762,1.762,0,0,1-.127.71,1.057,1.057,0,0,1-.446.462l-.8.462a.33.33,0,0,1-.551-.116l-3.584-5.665v7.322a1.773,1.773,0,0,1-.127.716,1.03,1.03,0,0,1-.446.462l-.958.551C247.744,157.856,247.6,157.856,247.507,157.773Z" transform="translate(-189.281 -103.914)" fill="#d72027"/>
        <path id="Path_12901" data-name="Path 12901" d="M267.175,146.016a.633.633,0,0,1-.193-.341L263.756,135.4a1.467,1.467,0,0,1-.039-.292.49.49,0,0,1,.231-.468l1.531-.886c.121-.066.209-.083.275-.039a.44.44,0,0,1,.143.248l2.043,7.251,2.043-9.607a.947.947,0,0,1,.435-.7l1.531-.886c.149-.088.226,0,.226.2a1.687,1.687,0,0,1-.039.336l-3.21,13.989a2.113,2.113,0,0,1-.2.551.82.82,0,0,1-.314.3l-.93.551C267.34,146.032,267.236,146.054,267.175,146.016Z" transform="translate(-196.628 -99.176)" fill="#d72027"/>
        <path id="Path_12902" data-name="Path 12902" d="M281.7,140.631a.826.826,0,0,1-.138-.551V128.425a1.744,1.744,0,0,1,.138-.727,1.04,1.04,0,0,1,.44-.473l.952-.551c.215-.121.363-.138.451-.05a.914.914,0,0,1,.127.584v11.644a1.727,1.727,0,0,1-.127.71,1.1,1.1,0,0,1-.451.468l-.952.551C281.941,140.7,281.8,140.713,281.7,140.631Z" transform="translate(-204.649 -97.639)" fill="#d72027"/>
        <path id="Path_12903" data-name="Path 12903" d="M290.17,133.27a.809.809,0,0,1-.132-.551V122.584l-2.092,1.211c-.2.116-.347.132-.424.055a.919.919,0,0,1-.116-.551v-.727a1.811,1.811,0,0,1,.116-.716.985.985,0,0,1,.424-.44l6.3-3.634c.2-.121.347-.138.429-.055a.958.958,0,0,1,.121.584v.721a1.75,1.75,0,0,1-.121.7,1.013,1.013,0,0,1-.429.446l-2.092,1.206V131.5a1.652,1.652,0,0,1-.132.716,1.051,1.051,0,0,1-.451.468l-.947.551C290.406,133.325,290.258,133.347,290.17,133.27Z" transform="translate(-207.273 -93.642)" fill="#d72027"/>
        <path id="Path_12904" data-name="Path 12904" d="M302.973,126.308a.8.8,0,0,1-.138-.551V114.1a1.653,1.653,0,0,1,.138-.727,1,1,0,0,1,.44-.468l5.291-3.061c.2-.116.347-.132.424-.055a.969.969,0,0,1,.11.551v.727a1.932,1.932,0,0,1-.11.716.986.986,0,0,1-.424.44l-3.76,2.169V117.5l2.626-1.52c.2-.116.341-.138.418-.055a.92.92,0,0,1,.116.551v.688a1.784,1.784,0,0,1-.116.71.942.942,0,0,1-.418.44l-2.626,1.52v3.122l3.749-2.164c.2-.121.341-.132.418-.05a.969.969,0,0,1,.116.584v.7a1.718,1.718,0,0,1-.116.7.947.947,0,0,1-.418.429l-5.28,3.05C303.21,126.4,303.061,126.4,302.973,126.308Z" transform="translate(-214.208 -90.076)" fill="#d72027"/>
        <path id="Path_12905" data-name="Path 12905" d="M240.1,173.539,282.459,149.1c.661-.385,1.2-.077,1.2.688v1.1a2.648,2.648,0,0,1-1.2,2.065L240.115,177.4c-.661.38-1.2.072-1.2-.688v-1.1a2.632,2.632,0,0,1,1.18-2.073Z" transform="translate(-185.483 -107.689)" fill="#e0e0e0"/>
        <path id="Path_12906" data-name="Path 12906" d="M252.275,195.025l28.92-16.7c.661-.38,1.2-.072,1.2.688v1.1a2.632,2.632,0,0,1-1.2,2.065l-28.92,16.693c-.661.38-1.2.072-1.2-.688v-1.1a2.632,2.632,0,0,1,1.2-2.059Z" transform="translate(-190.949 -120.83)" fill="#e6e6e6"/>
        <path id="Path_12907" data-name="Path 12907" d="M252.3,209.282l28.92-16.693c.672-.4,1.222-.072,1.222.7v1.1a2.632,2.632,0,0,1-1.2,2.065l-28.92,16.7c-.661.38-1.2.072-1.2-.688v-1.1a2.632,2.632,0,0,1,1.167-2.081Z" transform="translate(-190.971 -127.236)" fill="#e6e6e6"/>
        <path id="Path_12908" data-name="Path 12908" d="M252.275,223.56l28.92-16.693c.661-.38,1.2-.072,1.2.688v1.1a2.632,2.632,0,0,1-1.2,2.065l-28.92,16.693c-.661.38-1.2.072-1.2-.688v-1.1a2.632,2.632,0,0,1,1.195-2.065Z" transform="translate(-190.949 -133.658)" fill="#e6e6e6"/>
        <path id="Path_12909" data-name="Path 12909" d="M240.1,246.757l42.359-24.45c.661-.38,1.2-.072,1.2.688v1.1a2.648,2.648,0,0,1-1.2,2.065l-42.343,24.45c-.661.38-1.2.072-1.2-.688v-1.1a2.632,2.632,0,0,1,1.179-2.065Z" transform="translate(-185.483 -140.598)" fill="#e0e0e0"/>
        <path id="Path_12910" data-name="Path 12910" d="M252.275,268.3l28.92-16.7c.661-.38,1.2-.072,1.2.688v1.1a2.632,2.632,0,0,1-1.2,2.065l-28.92,16.715c-.661.38-1.2.072-1.2-.688v-1.1a2.632,2.632,0,0,1,1.2-2.081Z" transform="translate(-190.949 -153.768)" fill="#e6e6e6"/>
        <path id="Path_12911" data-name="Path 12911" d="M252.275,282.565l28.92-16.7c.661-.38,1.2-.077,1.2.688v1.1a2.632,2.632,0,0,1-1.2,2.065l-28.92,16.7c-.661.38-1.2.072-1.2-.688v-1.1a2.632,2.632,0,0,1,1.2-2.065Z" transform="translate(-190.949 -160.176)" fill="#e6e6e6"/>
        <path id="Path_12912" data-name="Path 12912" d="M252.275,296.835l28.92-16.7c.661-.38,1.2-.072,1.2.688v1.1a2.631,2.631,0,0,1-1.195,2.065l-28.92,16.693c-.661.38-1.2.072-1.2-.688v-1.1a2.632,2.632,0,0,1,1.2-2.059Z" transform="translate(-190.949 -166.591)" fill="#e6e6e6"/>
        <path id="Path_12913" data-name="Path 12913" d="M182.68,205.64a25.511,25.511,0,0,0-3.166,1.7,5.989,5.989,0,0,1-2.8,1.1c-1.327.325-11.848-2.786-13.687-4.4-2.863-2.5-7.933-11.517-9.827-13.681-1.558-1.784-3.722-4.2-5.643-4.212-3.177.963-2.455,5.687.2,9.937,2.2,3.518,6.728,10.543,11.451,13.643,2.29,1.5,13.488,4.151,17,4.377,1.063.072,2.951.551,4.625.639a9.359,9.359,0,0,0,4.79-.82,7.41,7.41,0,0,0,2.995-2.538,4.756,4.756,0,0,0,.776-2.026,3.127,3.127,0,0,0-.479-2.087.87.87,0,0,0-.314-.3,1.035,1.035,0,0,0-.776.055,43.669,43.669,0,0,1-4.3,1.564c-1.222.281-2.125.314-2,.094s.848-.341,1.679-1.052a2.7,2.7,0,0,0,.286-.275v-2.2a8.252,8.252,0,0,0-.81.482Z" transform="translate(-143.475 -124.415)" fill="#b16668"/>
        <path id="Path_12914" data-name="Path 12914" d="M146.723,184.09c-2.351,1.145-3.3,2.9-2.257,6.8.936,3.5,4.526,9.469,7.35,12.393,0,0,4.828-2.29,7.4-5.263-2.549-3.9-3.771-6.188-6.166-9.486S148.154,183.694,146.723,184.09Z" transform="translate(-142.841 -123.466)" fill="#455a64"/>
      </g>
    </g>
  </g>
</svg>
