<svg xmlns="http://www.w3.org/2000/svg" xmlns:xlink="http://www.w3.org/1999/xlink" width="550" height="310" viewBox="0 0 550 310">
  <defs>
    <radialGradient id="radial-gradient" cx="0.5" cy="0.5" r="1.176" gradientTransform="translate(0.167 0.109) scale(0.667 0.783)" gradientUnits="objectBoundingBox">
      <stop offset="0" stop-color="#fff"/>
      <stop offset="0.279" stop-color="#fff"/>
      <stop offset="0.437" stop-color="#fffcfd"/>
      <stop offset="0.612" stop-color="#f7edee"/>
      <stop offset="0.795" stop-color="#f2e4e4"/>
      <stop offset="0.982" stop-color="#f2d5d6"/>
      <stop offset="1" stop-color="#edcccd"/>
    </radialGradient>
  </defs>
  <g id="banner" transform="translate(-1165 -139)">
    <path id="multiply" d="M6,0H544a6,6,0,0,1,6,6V310H0V6A6,6,0,0,1,6,0Z" transform="translate(1165 139)" fill="url(#radial-gradient)"/>
    <g id="accreditation-manager-illustration" transform="translate(1289.451 148.419)">
      <g id="freepik--background-complete--inject-2" transform="translate(42.55 30.58)">
        <path id="Path_17361" data-name="Path 17361" d="M404.241,87.06v34.107h-49L353.48,87.3Z" transform="translate(-192.237 -57.73)" fill="#e0e0e0"/>
        <rect id="Rectangle_4309" data-name="Rectangle 4309" width="33.801" height="48.995" transform="translate(161.244 63.364) rotate(-90)" fill="#fff"/>
        <path id="Path_17362" data-name="Path 17362" d="M402.473,121.323H353V87.05h49.457Zm-48.99-.462h48.528V87.543H353.483Z" transform="translate(-192.006 -57.726)" fill="#e0e0e0"/>
        <rect id="Rectangle_4310" data-name="Rectangle 4310" width="38.381" height="25.404" transform="translate(166.551 33.764)" fill="#fff"/>
        <path id="Path_17363" data-name="Path 17363" d="M401.922,95.456h-2.846l-7.909.031-27.626.057.109-.114v25.4h0l-.119-.119h38.381l-.1.1c0-7.732.042-14.068.052-18.482,0-2.207,0-3.931.026-5.11v-.042c0,1.179,0,2.892.026,5.089,0,4.43.026,10.786.047,18.544v.093h-.093l-38.381.026h-.119v-.119h0V95.3h.114l27.7.052,7.883.031h2.789Z" transform="translate(-196.991 -61.692)" fill="#e0e0e0"/>
        <path id="Path_17364" data-name="Path 17364" d="M353.48,87.33a4.254,4.254,0,0,1,.841.519c.519.364,1.184.878,1.921,1.464s1.387,1.148,1.843,1.558a3.85,3.85,0,0,1,.7.717,33.834,33.834,0,0,1-2.7-2.077,26.141,26.141,0,0,1-2.612-2.181Z" transform="translate(-192.188 -57.86)" fill="#e0e0e0"/>
        <path id="Path_17365" data-name="Path 17365" d="M442.9,87.52a24.126,24.126,0,0,1-2.6,2.191,24.022,24.022,0,0,1-2.726,2,23.727,23.727,0,0,1,2.6-2.191A22.367,22.367,0,0,1,442.9,87.52Z" transform="translate(-232.664 -57.952)" fill="#e0e0e0"/>
        <path id="Path_17366" data-name="Path 17366" d="M442.693,148.514l-5.463-4.424" transform="translate(-232.496 -85.313)" fill="#fff"/>
        <path id="Path_17367" data-name="Path 17367" d="M437.23,144.09a26.173,26.173,0,0,1,2.809,2.119,26.492,26.492,0,0,1,2.654,2.306,25.359,25.359,0,0,1-2.809-2.119,25.737,25.737,0,0,1-2.654-2.306Z" transform="translate(-232.496 -85.313)" fill="#e0e0e0"/>
        <path id="Path_17368" data-name="Path 17368" d="M353.48,148.764a22.586,22.586,0,0,1,2.55-2.176,23.342,23.342,0,0,1,2.7-1.979,23.548,23.548,0,0,1-2.55,2.171A23.281,23.281,0,0,1,353.48,148.764Z" transform="translate(-192.188 -85.564)" fill="#e0e0e0"/>
        <rect id="Rectangle_4311" data-name="Rectangle 4311" width="8.506" height="24.147" transform="translate(174.345 50.063) rotate(-90)" fill="#e0e0e0"/>
        <path id="Path_17369" data-name="Path 17369" d="M149.055,40.789a.321.321,0,0,1-.119-.036l-.348-.135-1.309-.519-4.8-2.077-15.792-6.881-.545-.239h.114l-15.475,6.616-4.674,1.963L104.832,40a2.727,2.727,0,0,1-.452.161,3.427,3.427,0,0,1,.431-.213l1.251-.571,4.674-2.077,15.439-6.694.057-.026.057.026.545.239L142.589,37.8l4.767,2.139,1.288.592.332.161a.893.893,0,0,1,.079.1Z" transform="translate(-72.314 -30.58)" fill="#e0e0e0"/>
        <rect id="Rectangle_4312" data-name="Rectangle 4312" width="101.412" height="75.936" transform="translate(0 7.945)" fill="#e0e0e0"/>
        <rect id="Rectangle_4313" data-name="Rectangle 4313" width="94.703" height="69.284" transform="translate(3.547 11.476)" fill="#fafafa"/>
        <path id="Path_17370" data-name="Path 17370" d="M89.66,111s.1,11.632.691,15.179l14.587-.691s-1.283-11.424-.789-14.488Z" transform="translate(-65.196 -69.363)" fill="#e0e0e0"/>
        <path id="Path_17371" data-name="Path 17371" d="M100.473,114.138h.213a3.436,3.436,0,0,1,.608.031,3.489,3.489,0,0,1,.93.275,3.116,3.116,0,0,1,1.007.8,3.552,3.552,0,0,1,.7,1.407,3.4,3.4,0,0,1-.156,1.8,5.535,5.535,0,0,1-.41.9c-.161.3-.327.587-.467.909a7.754,7.754,0,0,0-.587,2.077v.047h-.047l-1.438.026H99.263v-.036a4.31,4.31,0,0,0-.7-1.994c-.177-.3-.369-.576-.55-.862a7.533,7.533,0,0,1-.519-.836,2.789,2.789,0,0,1-.228-1.776,3.749,3.749,0,0,1,.561-1.454,2.913,2.913,0,0,1,.95-.857,3.557,3.557,0,0,1,.893-.343,3.853,3.853,0,0,1,.6-.1h0a4.156,4.156,0,0,0-.587.114,3.593,3.593,0,0,0-.878.358,2.788,2.788,0,0,0-.914.846,3.692,3.692,0,0,0-.519,1.428,2.721,2.721,0,0,0,.229,1.719,9.7,9.7,0,0,0,.519.826c.177.275.374.561.55.862a4.393,4.393,0,0,1,.717,2.046l-.052-.057h2.95l-.052.052a7.883,7.883,0,0,1,.6-2.1c.14-.322.312-.628.473-.919a4.675,4.675,0,0,0,.4-.883,3.261,3.261,0,0,0,.14-1.781,3.448,3.448,0,0,0-.67-1.376,3.079,3.079,0,0,0-.976-.795,3.387,3.387,0,0,0-.909-.286,4.589,4.589,0,0,0-.6-.052h-.213Z" transform="translate(-68.828 -70.871)" fill="#fff"/>
        <path id="Path_17372" data-name="Path 17372" d="M102.648,124.794a.34.34,0,0,1,0-.047v-.135a4.621,4.621,0,0,0-.083-.519c-.062-.452-.161-1.111-.229-1.927a3.889,3.889,0,0,0-.036-.639,4.511,4.511,0,0,1,0-.7,1.921,1.921,0,0,1,.166-.727,1.075,1.075,0,0,1,.556-.556.732.732,0,0,1,.795.151.566.566,0,0,1,.171.4.712.712,0,0,1-.151.415.909.909,0,0,1-.353.286,1.745,1.745,0,0,1-.431.14,4.939,4.939,0,0,1-.919.109,5.519,5.519,0,0,1-.93-.047,1.557,1.557,0,0,1-.436-.125,1.158,1.158,0,0,1-.369-.26.847.847,0,0,1-.213-.389.7.7,0,0,1,.052-.436.587.587,0,0,1,.306-.3.545.545,0,0,1,.415,0,.768.768,0,0,1,.312.265,1.039,1.039,0,0,1,.151.363,4.1,4.1,0,0,1,.078.743c0,.478.047.924.068,1.335.042.815.073,1.475.1,1.937v.654a.321.321,0,0,1,0,.047.161.161,0,0,1,0-.047v-.135a3.453,3.453,0,0,0-.036-.519c0-.457-.062-1.122-.109-1.937,0-.4-.047-.852-.078-1.335a4.543,4.543,0,0,0-.073-.737,1.09,1.09,0,0,0-.151-.348.794.794,0,0,0-.291-.249.514.514,0,0,0-.665.275.6.6,0,0,0-.052.4.81.81,0,0,0,.2.369,1.345,1.345,0,0,0,.784.374,5.79,5.79,0,0,0,1.828-.062,1.781,1.781,0,0,0,.426-.14.94.94,0,0,0,.332-.27.649.649,0,0,0,.14-.389.488.488,0,0,0-.156-.369.7.7,0,0,0-.748-.145,1.075,1.075,0,0,0-.519.519,1.947,1.947,0,0,0-.166.717v.691a4.385,4.385,0,0,0,.031.644c.062.815.156,1.47.218,1.921a3.033,3.033,0,0,0,.068.519v.135a.161.161,0,0,0,0,.073Z" transform="translate(-70.25 -73.433)" fill="#fff"/>
        <path id="Path_17373" data-name="Path 17373" d="M101.24,129.765a4.474,4.474,0,0,0,.036.483c.036.3.042.774.068,1.262v-.031l.981,1.132h-.047l1.132-.062h-.047l.566-.691.28-.348v.047c0-.665-.031-1.3-.047-1.869l.062.057h-2.96a1.04,1.04,0,0,1,.2,0l.6-.031,2.16-.083h.057v.062c0,.576.036,1.2.052,1.869h0l-.28.343-.566.691h0l-1.137.057h-.031l-.961-1.148h0v-1.3a2.85,2.85,0,0,1-.118-.44Z" transform="translate(-70.763 -78.34)" fill="#fff"/>
        <path id="Path_17374" data-name="Path 17374" d="M104.241,132.713l-.109-.047a2.6,2.6,0,0,0-.3-.114,2.8,2.8,0,0,0-1.039-.156,2.851,2.851,0,0,0-1.013.218,2.6,2.6,0,0,0-.286.135l-.109.052a.306.306,0,0,1,.1-.067,2.491,2.491,0,0,1,.28-.151,2.783,2.783,0,0,1,1.039-.234,2.866,2.866,0,0,1,1.039.171,2.409,2.409,0,0,1,.291.13.647.647,0,0,1,.1.062Z" transform="translate(-70.835 -79.649)" fill="#fff"/>
        <path id="Path_17375" data-name="Path 17375" d="M104.255,131.842l-.109-.047c-.068-.031-.166-.073-.3-.119a2.867,2.867,0,0,0-2.036.062c-.125.052-.223.1-.291.135a.749.749,0,0,1-.1.052l.1-.068a2.192,2.192,0,0,1,.28-.145,2.685,2.685,0,0,1,1.039-.234,2.6,2.6,0,0,1,1.039.171,2.2,2.2,0,0,1,.3.13.519.519,0,0,1,.083.062Z" transform="translate(-70.849 -79.228)" fill="#fff"/>
        <path id="Path_17376" data-name="Path 17376" d="M104.167,131a.235.235,0,0,1-.109-.042,1.8,1.8,0,0,0-.3-.119,2.945,2.945,0,0,0-1.039-.156,2.825,2.825,0,0,0-1.039.218c-.125.052-.223.1-.291.135a.374.374,0,0,1-.1.052l.1-.068a1.679,1.679,0,0,1,.28-.145,2.752,2.752,0,0,1,1.039-.239,2.835,2.835,0,0,1,1.039.171,2.339,2.339,0,0,1,.291.135Z" transform="translate(-70.787 -78.824)" fill="#fff"/>
        <path id="Path_17377" data-name="Path 17377" d="M58.37,74.35s.1,11.632.691,15.179l14.587-.685s-1.283-11.424-.789-14.493Z" transform="translate(-50.155 -51.621)" fill="#ebebeb"/>
        <path id="Path_17378" data-name="Path 17378" d="M72.939,83.746a42.062,42.062,0,0,1-4.887.436,42.06,42.06,0,0,1-4.9.156,41.323,41.323,0,0,1,4.887-.441,42.667,42.667,0,0,1,4.9-.151Z" transform="translate(-52.453 -56.13)" fill="#fff"/>
        <path id="Path_17379" data-name="Path 17379" d="M72.989,88.494a43.615,43.615,0,0,1-4.887.436,42.677,42.677,0,0,1-4.9.151,42.057,42.057,0,0,1,4.887-.436A41.292,41.292,0,0,1,72.989,88.494Z" transform="translate(-52.477 -58.412)" fill="#fff"/>
        <path id="Path_17380" data-name="Path 17380" d="M72.107,93.094a13.434,13.434,0,0,1-2.778.312,13.84,13.84,0,0,1-2.8,0,13.9,13.9,0,0,1,2.783-.312,13.8,13.8,0,0,1,2.794,0Z" transform="translate(-54.077 -60.597)" fill="#fff"/>
        <path id="Path_17381" data-name="Path 17381" d="M57,140.25s.1,11.627.691,15.179l14.587-.691S71,143.314,71.489,140.25Z" transform="translate(-49.496 -83.47)" fill="#ebebeb"/>
        <path id="Path_17382" data-name="Path 17382" d="M71.649,149.643a43.464,43.464,0,0,1-4.887.436,42.657,42.657,0,0,1-4.9.151,42.064,42.064,0,0,1,4.887-.436,40,40,0,0,1,4.9-.151Z" transform="translate(-51.833 -87.979)" fill="#fff"/>
        <path id="Path_17383" data-name="Path 17383" d="M71.659,154.386a42.2,42.2,0,0,1-4.887.436,41.307,41.307,0,0,1-4.9.151,42.051,42.051,0,0,1,4.887-.436,42.66,42.66,0,0,1,4.9-.151Z" transform="translate(-51.837 -90.267)" fill="#fff"/>
        <path id="Path_17384" data-name="Path 17384" d="M70.777,159a13.874,13.874,0,0,1-2.778.312,14.049,14.049,0,0,1-2.8,0A13.692,13.692,0,0,1,67.983,159,13.8,13.8,0,0,1,70.777,159Z" transform="translate(-53.438 -92.465)" fill="#fff"/>
        <path id="Path_17385" data-name="Path 17385" d="M133.81,80.29l1.444,33.546,41.881.5-1.88-33.608Z" transform="translate(-86.481 -54.476)" fill="#ebebeb"/>
        <rect id="Rectangle_4314" data-name="Rectangle 4314" width="41.6" height="31.412" transform="translate(46.847 25.575)" fill="#f5f5f5"/>
        <path id="Path_17386" data-name="Path 17386" d="M174.409,111.021v-2.259c0-1.475,0-3.635-.026-6.356,0-5.479-.036-13.315-.062-22.8l.114.114h-41.6l.14-.14v31.412l-.13-.13,30,.062,8.532.036h.057l-8.506.031-30.088.062h-.13V79.37h41.86v.119c-.026,9.513-.047,17.375-.062,22.849,0,2.726,0,4.861-.031,6.33v1.651A3.274,3.274,0,0,1,174.409,111.021Z" transform="translate(-85.956 -54.034)" fill="#e0e0e0"/>
        <rect id="Rectangle_4315" data-name="Rectangle 4315" width="16.861" height="21.223" transform="translate(51.866 32.227)" fill="#f5f5f5"/>
        <path id="Path_17387" data-name="Path 17387" d="M159.329,113.738a.86.86,0,0,1,0-.109V112.17c0-1.039,0-2.5-.036-4.357,0-3.734-.036-9.02-.062-15.3l.125.13H142.493c-.031.031.27-.27.145-.14h0v21.213l-.119-.119,12.209.062,3.427.031h1.226a1.9,1.9,0,0,1-.291,0h-.89l-3.4.031-12.286.062H142.4V92.525h0l.145-.145h16.991v.12c0,6.315-.047,11.627-.062,15.381,0,1.849,0,3.308-.036,4.326v1.423C159.438,113.707,159.329,113.744,159.329,113.738Z" transform="translate(-90.607 -60.288)" fill="#e0e0e0"/>
        <rect id="Rectangle_4316" data-name="Rectangle 4316" width="32.315" height="3.059" transform="translate(52.504 27.372)" fill="#f5f5f5"/>
        <path id="Path_17388" data-name="Path 17388" d="M175.96,86.228a.967.967,0,0,1,0-.208v-.6c0-.519,0-1.283-.031-2.254l.057.057c-5.453.052-17.874.088-32.315.088h0l.145-.145h0v3.048l-.145-.145,22.89.062,6.875.042h.068l-6.839.042-23.015.057h-.14V83.18h0l.14-.14h0c14.441,0,26.863.031,32.315.083h.057v.057q0,1.48-.031,2.29v.582C175.992,86.2,175.96,86.234,175.96,86.228Z" transform="translate(-91.146 -55.798)" fill="#e0e0e0"/>
        <rect id="Rectangle_4317" data-name="Rectangle 4317" width="14.036" height="12.79" transform="translate(70.774 32.227)" fill="#f5f5f5"/>
        <path id="Path_17389" data-name="Path 17389" d="M192.9,105.3a1.636,1.636,0,0,1,0-.244v-.7c0-.623,0-1.5-.031-2.6,0-2.249-.036-5.427-.062-9.243l.125.125H178.916l.14-.14h0V105.3l-.171-.151,10.126.062,2.872.036h1.039a1.33,1.33,0,0,1-.244,0h-.743l-2.846.031-10.2.068h-.125V92.515h0l.145-.145h14.14v.119c-.026,3.848-.047,7.052-.062,9.347,0,1.091,0,1.958-.031,2.6v.67A.911.911,0,0,1,192.9,105.3Z" transform="translate(-108.106 -60.283)" fill="#e0e0e0"/>
        <rect id="Rectangle_4318" data-name="Rectangle 4318" width="14.036" height="6.429" transform="translate(70.774 46.887)" fill="#f5f5f5"/>
        <path id="Path_17390" data-name="Path 17390" d="M192.942,127.334a3.118,3.118,0,0,1,0-.467v-1.288c0-1.137-.036-2.721-.057-4.674l.1.1-14.021.042c-.13.13.171-.177.14-.14h0v6.413l-.135-.135,10.038.062,2.924.042h1.075a1.47,1.47,0,0,1-.254,0H192l-2.9.036-10.126.062h-.135v-6.548h0c-.031,0,.275-.275.145-.145l14.021.036h.1v.1c-.026,1.978-.042,3.588-.057,4.736,0,.519,0,.95-.026,1.267a3.165,3.165,0,0,1-.08.5Z" transform="translate(-108.142 -74.018)" fill="#e0e0e0"/>
        <path id="Path_17391" data-name="Path 17391" d="M158.986,92.71c-5.219,7.213-11.227,13.979-16.446,21.187" transform="translate(-90.674 -60.446)" fill="#fff"/>
        <path id="Path_17392" data-name="Path 17392" d="M142.54,113.9a.893.893,0,0,1,.14-.234l.436-.649c.389-.561.966-1.355,1.688-2.326,1.454-1.953,3.526-4.591,5.847-7.473s4.419-5.5,5.91-7.415l1.755-2.269.483-.618c.114-.135.177-.208.187-.2a.956.956,0,0,1-.14.239c-.119.177-.26.389-.436.644-.389.561-.966,1.355-1.688,2.332-1.449,1.947-3.526,4.585-5.847,7.473s-4.419,5.494-5.91,7.41l-1.755,2.274c-.2.244-.353.447-.483.613S142.55,113.9,142.54,113.9Z" transform="translate(-90.674 -60.446)" fill="#e0e0e0"/>
        <line id="Line_133" data-name="Line 133" x2="16.861" y2="21.223" transform="translate(51.866 32.227)" fill="#fff"/>
        <path id="Path_17393" data-name="Path 17393" d="M159.4,113.863c-.062.052-3.884-4.674-8.542-10.521s-8.381-10.651-8.309-10.7,3.884,4.674,8.542,10.526S159.468,113.816,159.4,113.863Z" transform="translate(-90.678 -60.412)" fill="#e0e0e0"/>
        <path id="Path_17394" data-name="Path 17394" d="M131.706,90.288a2.638,2.638,0,1,1-2.638-2.638A2.638,2.638,0,0,1,131.706,90.288Z" transform="translate(-82.918 -58.014)" fill="#e0e0e0"/>
        <path id="Path_17395" data-name="Path 17395" d="M214.8,77.958a2.638,2.638,0,1,1-2.638-2.638A2.638,2.638,0,0,1,214.8,77.958Z" transform="translate(-122.906 -52.087)" fill="#e0e0e0"/>
        <path id="Path_17396" data-name="Path 17396" d="M365.273,432.66v11.824H363.3v1.288h1.973v7.914h36.906v-7.2h-2.731v-1.558h2.731v-2.352h1.215V441.5H401.95v-8.828Z" transform="translate(-196.957 -224.505)" fill="#f5f5f5"/>
        <path id="Path_17397" data-name="Path 17397" d="M419.3,432.7v20.855h9.8v-7.2h-2.732v-1.433l2.732.047V442.61h1.241l-.026-1.215-1.444-.036v-8.7Z" transform="translate(-223.877 -224.505)" fill="#e0e0e0"/>
        <path id="Path_17398" data-name="Path 17398" d="M393.028,457.46c0,.073-6.678.13-14.914.13s-14.914-.057-14.914-.13,6.678-.13,14.914-.13S393.028,457.387,393.028,457.46Z" transform="translate(-196.909 -236.364)" fill="#e0e0e0"/>
        <path id="Path_17399" data-name="Path 17399" d="M393.028,455.145c0,.073-6.678.13-14.914.13s-14.914-.057-14.914-.13,6.678-.135,14.914-.135S393.028,455.072,393.028,455.145Z" transform="translate(-196.909 -235.249)" fill="#e0e0e0"/>
        <path id="Path_17400" data-name="Path 17400" d="M396.718,448.88c0,.073-6.678.13-14.914.13s-14.914-.057-14.914-.13,6.678-.13,14.914-.13S396.718,448.828,396.718,448.88Z" transform="translate(-198.683 -232.24)" fill="#e0e0e0"/>
        <path id="Path_17401" data-name="Path 17401" d="M397.073,465.88c0,.073-6.678.135-14.914.135s-14.919-.062-14.919-.135,6.678-.13,14.919-.13S397.073,465.812,397.073,465.88Z" transform="translate(-198.851 -240.412)" fill="#e0e0e0"/>
        <path id="Path_17402" data-name="Path 17402" d="M152.323,343.465h28.156a3.583,3.583,0,0,0,3.583-3.583V331.2a6.045,6.045,0,0,0-6.045-6.045H152.11Z" transform="translate(-95.286 -172.651)" fill="#ebebeb"/>
        <path id="Path_17403" data-name="Path 17403" d="M152.072,365.868H96.711A2.731,2.731,0,0,1,94,363.142h0a2.737,2.737,0,0,1,2.731-2.732h55.341a2.732,2.732,0,0,1,2.726,2.732h0a2.726,2.726,0,0,1-2.726,2.726Z" transform="translate(-67.283 -189.622)" fill="#ebebeb"/>
        <path id="Path_17404" data-name="Path 17404" d="M70.816,219.959l30.456-.519,19.333,73.069-41.216.389L63.81,228.85a7.187,7.187,0,0,1,7.005-8.89Z" transform="translate(-52.672 -121.769)" fill="#e0e0e0"/>
        <path id="Path_17405" data-name="Path 17405" d="M98.274,370.92,89.16,423.877h2.5l11.98-52.957Z" transform="translate(-64.956 -194.826)" fill="#ebebeb"/>
        <path id="Path_17406" data-name="Path 17406" d="M139.115,370.92l-9.685,52.957h2.5l12.551-52.957Z" transform="translate(-84.364 -194.826)" fill="#e0e0e0"/>
        <path id="Path_17407" data-name="Path 17407" d="M188.869,370.92l10.8,52.957h-2.5L183.5,370.92Z" transform="translate(-110.388 -194.826)" fill="#ebebeb"/>
        <path id="Path_17408" data-name="Path 17408" d="M129.43,219.4l15.059,73.147h11.559l-12.074-64.631A10.412,10.412,0,0,0,133.74,219.4Z" transform="translate(-84.367 -121.749)" fill="#ebebeb"/>
      </g>
      <path id="Path_17409" data-name="Path 17409" d="M257.95,473.335c0,.073-48.035.135-107.28.135s-107.29-.062-107.29-.135,48.02-.135,107.29-.135S257.95,473.257,257.95,473.335Z" transform="translate(-0.399 -213.413)" fill="#263238"/>
      <g id="freepik--Briefcase--inject-2" transform="translate(81.716 224.8)">
        <path id="Path_17410" data-name="Path 17410" d="M157.775,446.773h-39.7l3-28.9,36.7-.239Z" transform="translate(-118.07 -411.5)" fill="#d72027"/>
        <path id="Path_17411" data-name="Path 17411" d="M157.775,446.773h-39.7l3-28.9,36.7-.239Z" transform="translate(-118.07 -411.5)" opacity="0.4"/>
        <rect id="Rectangle_4319" data-name="Rectangle 4319" width="39.705" height="29.137" transform="translate(5.79 6.13)" fill="#d72027"/>
        <rect id="Rectangle_4320" data-name="Rectangle 4320" width="39.705" height="29.137" transform="translate(5.791 6.131)" opacity="0.2"/>
        <path id="Path_17412" data-name="Path 17412" d="M169.382,444.67c0,.073-8.932.135-19.946.135s-19.956-.062-19.956-.135,8.932-.14,19.956-.14S169.382,444.592,169.382,444.67Z" transform="translate(-123.555 -424.431)" fill="#263238"/>
        <path id="Path_17413" data-name="Path 17413" d="M142.715,446.157a17.721,17.721,0,0,1,0-4.367,17.725,17.725,0,0,1,0,4.367Z" transform="translate(-129.852 -423.114)" fill="#263238"/>
        <path id="Path_17414" data-name="Path 17414" d="M195.875,446.29a14.152,14.152,0,0,1,0-3.9,14.153,14.153,0,0,1,0,3.9Z" transform="translate(-155.406 -423.402)" fill="#263238"/>
        <path id="Path_17415" data-name="Path 17415" d="M164.632,412.106a5.673,5.673,0,0,0-.093-.862,5.546,5.546,0,0,0-.883-2.155,6.31,6.31,0,0,0-2.622-2.2,9.349,9.349,0,0,0-4.154-.784,10.116,10.116,0,0,0-4.154.93,6.9,6.9,0,0,0-2.654,2.186,5.972,5.972,0,0,0-.971,2.119c-.125.545-.13.857-.156.857a1.1,1.1,0,0,1,0-.228,3.529,3.529,0,0,1,.062-.649,5.655,5.655,0,0,1,.919-2.207,6.906,6.906,0,0,1,2.7-2.3,10.126,10.126,0,0,1,4.232-.976,9.373,9.373,0,0,1,4.263.831,6.414,6.414,0,0,1,2.674,2.321,5.244,5.244,0,0,1,.826,2.243,3.694,3.694,0,0,1,0,.649.67.67,0,0,1,.01.228Z" transform="translate(-132.909 -405.825)" fill="#263238"/>
      </g>
      <g id="freepik--Plant--inject-2" transform="translate(78.16 93.986)">
        <path id="Path_17416" data-name="Path 17416" d="M148.445,200.34a9.789,9.789,0,0,1,6.086-.737,5.088,5.088,0,0,1,3.007,1.34,2.167,2.167,0,0,1,.031,3,2.887,2.887,0,0,1-1.9.483c-1.61,0-3.391-.3-4.674.665-.732.55-1.22,1.47-2.077,1.74a2.077,2.077,0,0,1-2.28-1.013,3.521,3.521,0,0,1-.26-2.6A3.993,3.993,0,0,1,148.445,200.34Z" transform="translate(-128.049 -175.384)" fill="#d72027"/>
        <path id="Path_17417" data-name="Path 17417" d="M141.33,169.908c1.132,1.62,3.329,1.085,4.352.1a8.229,8.229,0,0,0,1.843-3.78c.893-3.116,1.8-6.387,1.132-9.56a5.323,5.323,0,0,0-1.22-2.6,2.773,2.773,0,0,0-2.628-.872,4.042,4.042,0,0,0-2.3,2.415,22.76,22.76,0,0,0-2.249,9.778,7.925,7.925,0,0,0,1.07,4.523" transform="translate(-125.172 -153.141)" fill="#d72027"/>
        <path id="Path_17418" data-name="Path 17418" d="M124.252,177.034a5.863,5.863,0,0,0,.914-5.411,10.417,10.417,0,0,0-3.2-4.674,17.189,17.189,0,0,0-5.743-3.365,6.06,6.06,0,0,0-2.6-.441,2.7,2.7,0,0,0-2.165,1.314c-.608,1.153,0,2.55.6,3.687a43.8,43.8,0,0,0,3.775,5.743,10.113,10.113,0,0,0,4.154,3.552c1.729.654,3.516.582,4.43-.613" transform="translate(-111.205 -157.945)" fill="#d72027"/>
        <path id="Path_17419" data-name="Path 17419" d="M142.15,218.633a3.984,3.984,0,0,0,.1-.737c.052-.519.114-1.2.192-2a29.376,29.376,0,0,1,.452-2.939,22.229,22.229,0,0,1,1.07-3.469,12.739,12.739,0,0,1,1.771-3.142,6.626,6.626,0,0,1,2.243-1.864,6.284,6.284,0,0,1,1.869-.592,3.555,3.555,0,0,0,.732-.1,3.482,3.482,0,0,0-.748,0,5.856,5.856,0,0,0-1.963.519,6.621,6.621,0,0,0-2.368,1.88,12.4,12.4,0,0,0-1.833,3.2,21.332,21.332,0,0,0-1.039,3.526,24.842,24.842,0,0,0-.389,2.981c-.062.852-.088,1.558-.1,2.015a3.443,3.443,0,0,0,.005.727Z" transform="translate(-126.07 -177.475)" fill="#263238"/>
        <path id="Path_17420" data-name="Path 17420" d="M142.271,198.751a1.268,1.268,0,0,0,0-.343v-.976c0-.841,0-2.077.042-3.578.073-3.027.338-6.278.836-10.869.478-4.31,1.116-9.347,1.792-12.6.145-.743.291-1.407.426-1.994s.244-1.091.353-1.5.166-.7.229-.945a1.451,1.451,0,0,0,.057-.338,1.345,1.345,0,0,0-.119.322l-.28.93c-.125.4-.254.909-.4,1.5s-.317,1.246-.473,1.989a109.947,109.947,0,0,0-1.885,11.689,116.02,116.02,0,0,0-.748,11.814c0,1.516,0,2.742.052,3.588,0,.4.042.717.057.976a1.821,1.821,0,0,0,.061.335Z" transform="translate(-126.056 -159.135)" fill="#263238"/>
        <path id="Path_17421" data-name="Path 17421" d="M132.457,192.969a6.114,6.114,0,0,0,0-1.039c-.036-.654-.13-1.6-.312-2.757a36.2,36.2,0,0,0-.9-4.019,32.84,32.84,0,0,0-1.682-4.757,25.274,25.274,0,0,0-4.933-7.685,11.86,11.86,0,0,0-1.163-1.08,4.846,4.846,0,0,0-.519-.421l-.452-.312a5.967,5.967,0,0,0-.857-.519,29.437,29.437,0,0,1,2.809,2.5,26.7,26.7,0,0,1,4.814,7.66,37.554,37.554,0,0,1,1.688,4.715,39.824,39.824,0,0,1,.955,3.978c.213,1.148.332,2.077.4,2.731a6.884,6.884,0,0,0,.145,1Z" transform="translate(-116.221 -161.428)" fill="#263238"/>
        <path id="Path_17422" data-name="Path 17422" d="M127.45,241.31l.8,11.082h14.239l.81-11.082Z" transform="translate(-119.014 -195.525)" fill="#263238"/>
        <rect id="Rectangle_4321" data-name="Rectangle 4321" width="18.928" height="4.367" transform="translate(7.06 41.413)" fill="#263238"/>
        <path id="Path_17423" data-name="Path 17423" d="M124.8,261.83v1.21h18.617v-1.21Z" transform="translate(-117.74 -205.389)" fill="#455a64"/>
        <path id="Path_17424" data-name="Path 17424" d="M127.382,266.294l-.872-2.134h17.048l-1.018,2.134Z" transform="translate(-118.562 -206.509)" fill="#455a64"/>
        <path id="Path_17425" data-name="Path 17425" d="M143.26,246.819s0,.036-.067.1l-.213.28-.826,1.039-.042.052-.031-.052-2.041-2.82h.119l-2.01,2.841-.062.093-.068-.088c-.743-.878-1.558-1.833-2.378-2.83h.135l-.13.166-2.129,2.664-.073.088-.062-.093-2.01-2.835h.119l-2.472,2.815-.047.052-.031-.057-.774-1.3-.2-.343a.521.521,0,0,1-.062-.125.71.71,0,0,1,.083.109l.218.332.815,1.277h-.078l2.43-2.851.062-.073.057.078c.613.857,1.293,1.812,2.025,2.825h-.14l2.124-2.674.13-.161.067-.088.073.083c.831,1,1.631,1.958,2.373,2.841h-.135l2.025-2.83.062-.083.057.083,1.994,2.851h-.073c.363-.431.654-.779.862-1.039l.234-.265a.439.439,0,0,1,.09-.062Z" transform="translate(-119.235 -197.414)" fill="#e0e0e0"/>
        <path id="Path_17426" data-name="Path 17426" d="M143.607,241.088c0,.047-3.568.088-7.966.088s-7.971-.042-7.971-.088,3.568-.088,7.961-.088S143.607,241.036,143.607,241.088Z" transform="translate(-119.12 -195.376)" fill="#455a64"/>
        <path id="Path_17427" data-name="Path 17427" d="M143.718,264.308c0,.052-3.879.088-8.662.088s-8.657-.036-8.657-.088,3.874-.088,8.657-.088S143.718,264.262,143.718,264.308Z" transform="translate(-118.509 -206.538)" fill="#263238"/>
      </g>
      <g id="freepik--Desk--inject-2" transform="translate(66.754 124.314)">
        <rect id="Rectangle_4322" data-name="Rectangle 4322" width="41.689" height="2.025" transform="translate(151.841 29.298) rotate(180)" fill="#263238"/>
        <path id="Path_17428" data-name="Path 17428" d="M364.872,241.618l7.82-29.3H340.138l-7.078,29.3Z" transform="translate(-206.625 -212.32)" fill="#263238"/>
        <path id="Path_17429" data-name="Path 17429" d="M336.82,240.656H365.9l6.772-25.726H343.436Z" transform="translate(-208.432 -213.575)" fill="#455a64"/>
        <path id="Path_17430" data-name="Path 17430" d="M365.8,240.7H336.2l6.751-26.25h29.766Zm-28.945-.519h28.561l6.631-25.212h-28.68Z" transform="translate(-208.134 -213.344)" fill="#263238"/>
        <rect id="Rectangle_4323" data-name="Rectangle 4323" width="2.103" height="100.514" transform="translate(24.401 34.99)" fill="#455a64"/>
        <rect id="Rectangle_4324" data-name="Rectangle 4324" width="2.103" height="100.223" transform="translate(26.51 35.275)" fill="#263238"/>
        <rect id="Rectangle_4325" data-name="Rectangle 4325" width="2.103" height="100.514" transform="translate(153.885 34.99)" fill="#455a64"/>
        <rect id="Rectangle_4326" data-name="Rectangle 4326" width="2.103" height="100.223" transform="translate(155.988 35.275)" fill="#263238"/>
        <rect id="Rectangle_4327" data-name="Rectangle 4327" width="187.468" height="8.246" transform="translate(0 29.148)" fill="#455a64"/>
        <rect id="Rectangle_4328" data-name="Rectangle 4328" width="70.4" height="13.647" transform="translate(84.6 37.394)" fill="#455a64"/>
        <path id="Path_17431" data-name="Path 17431" d="M323.326,294.208a1.558,1.558,0,1,1-1.558-1.558,1.558,1.558,0,0,1,1.558,1.558Z" transform="translate(-200.371 -250.935)" fill="#263238"/>
        <path id="Path_17432" data-name="Path 17432" d="M316.627,284.2c0,.073-24.407.135-54.474.135s-54.474-.062-54.474-.135,24.407-.135,54.474-.135S316.627,284.132,316.627,284.2Z" transform="translate(-146.353 -246.811)" fill="#263238"/>
      </g>
      <g id="freepik--Character--inject-2" transform="translate(117.193 44.913)">
        <path id="Path_17433" data-name="Path 17433" d="M289.977,97.52c.28,0,4.076.634,4.076.634l5.136,6.47.774,1.226-6.927,4.43-3.059-4.528-2.6-1.688a2.643,2.643,0,0,1,2.742-.286,8.111,8.111,0,0,0,3.235.634l-.914-2.6-2.815-.561Z" transform="translate(-235.005 -77.092)" fill="#eb996e"/>
        <path id="Path_17434" data-name="Path 17434" d="M287.225,88.776a.795.795,0,0,1,.987.649c.421,2.654,1.693,10.64,2.077,12.982a.758.758,0,0,1-.55.862l-6.112,1.708a.758.758,0,0,1-.961-.639l-1.672-13.257a.8.8,0,0,1,.6-.878Z" transform="translate(-231.932 -72.876)" fill="#263238"/>
        <path id="Path_17435" data-name="Path 17435" d="M283.49,104.188l6.231-1.74-1.651-11.03a1.064,1.064,0,0,0-1.329-.872l-4.99,1.324Z" transform="translate(-232.299 -73.722)" fill="#ebebeb"/>
        <path id="Path_17436" data-name="Path 17436" d="M294.259,101.31l-2.8,2.077s.234.737.659.789a17.139,17.139,0,0,0,2.68-.571Z" transform="translate(-236.966 -78.913)" fill="#eb996e"/>
        <path id="Path_17437" data-name="Path 17437" d="M293.417,98.08l-2.934,1.288s-.187.955.909.82l-.981.706s.244.426,1.47.478,2.415-1.651,2.415-1.651Z" transform="translate(-236.462 -77.361)" fill="#eb996e"/>
        <path id="Path_17438" data-name="Path 17438" d="M297.277,103.059c0,.036-.358-.031-.748-.395a8.043,8.043,0,0,0-.675-.566.955.955,0,0,0-.93-.114,17.556,17.556,0,0,1-2.544,1.2,12.7,12.7,0,0,1,2.451-1.459,1.179,1.179,0,0,1,.628-.073,1.439,1.439,0,0,1,.519.239,4.4,4.4,0,0,1,.665.634,5.934,5.934,0,0,0,.634.53Z" transform="translate(-237.409 -79.073)" fill="#d1734a"/>
        <path id="Path_17439" data-name="Path 17439" d="M299.847,114.369a4.009,4.009,0,0,1-.467-4.409,6.4,6.4,0,0,0,.467,4.409Z" transform="translate(-240.556 -83.072)" fill="#d1734a"/>
        <path id="Path_17440" data-name="Path 17440" d="M296.154,99.986c-.036.031-.192-.192-.566-.312a1.989,1.989,0,0,0-1.49.171c-.55.265-1.039.6-1.428.763a1.366,1.366,0,0,1-.67.166,5.326,5.326,0,0,1,.582-.338,13.254,13.254,0,0,1,1.407-.836,2.352,2.352,0,0,1,.9-.244,1.63,1.63,0,0,1,.763.14.96.96,0,0,1,.5.49Z" transform="translate(-237.226 -77.973)" fill="#d1734a"/>
        <path id="Path_17441" data-name="Path 17441" d="M299.53,136l15.262,9.8-4.045,11.57s-10.443-3.225-10.251-3.562S299.53,136,299.53,136Z" transform="translate(-240.846 -95.722)" fill="#d72027"/>
        <path id="Path_17442" data-name="Path 17442" d="M279.138,435.753l-2.4,11.056s10.433,6.154,10.188,8.236l-21.6-3.884,3.033-17.381Z" transform="translate(-224.401 -239.376)" fill="#263238"/>
        <path id="Path_17443" data-name="Path 17443" d="M265.32,465.64l.374-1.74,20.574,4.378s.883.592.654,1.246Z" transform="translate(-224.401 -253.855)" fill="#455a64"/>
        <path id="Path_17444" data-name="Path 17444" d="M234.462,439.92l-.358,11.3s11.378,4.154,11.513,6.257l-21.95.1-.166-17.656Z" transform="translate(-204.297 -242.328)" fill="#263238"/>
        <path id="Path_17445" data-name="Path 17445" d="M223.82,472.281l.052-1.781,21.026.576s.981.421.872,1.106Z" transform="translate(-204.451 -257.029)" fill="#455a64" opacity="0.6"/>
        <path id="Path_17446" data-name="Path 17446" d="M250.707,72.817l2.238,25.965,12.982-1.039c.078-1.516-.031-7.384-.031-7.384s5.406-.841,5.473-6.231c.031-2.628-.343-8.049-.737-12.936a10,10,0,0,0-10.542-9.207h0a10,10,0,0,0-9.384,10.832Z" transform="translate(-217.359 -60.001)" fill="#eb996e"/>
        <path id="Path_17447" data-name="Path 17447" d="M273.477,114.594a12.587,12.587,0,0,1-7.047-2s1.667,3.889,7.057,3.4Z" transform="translate(-224.934 -84.336)" fill="#d1734a"/>
        <path id="Path_17448" data-name="Path 17448" d="M283.672,86.354a.774.774,0,0,1-.748.779.737.737,0,0,1-.8-.7.774.774,0,0,1,.743-.779.743.743,0,0,1,.8.7Z" transform="translate(-232.481 -71.388)" fill="#263238"/>
        <path id="Path_17449" data-name="Path 17449" d="M284.063,84.15c-.094.1-.68-.332-1.511-.327s-1.438.415-1.527.317.052-.228.317-.421a2.145,2.145,0,0,1,1.225-.379,2.036,2.036,0,0,1,1.2.389C284.027,83.922,284.115,84.109,284.063,84.15Z" transform="translate(-231.938 -70.275)" fill="#263238"/>
        <path id="Path_17450" data-name="Path 17450" d="M268.312,86.354a.769.769,0,0,1-.743.779.743.743,0,0,1-.8-.7.779.779,0,0,1,.748-.779.743.743,0,0,1,.795.7Z" transform="translate(-225.098 -71.389)" fill="#263238"/>
        <path id="Path_17451" data-name="Path 17451" d="M268.343,84.45c-.093.1-.68-.332-1.511-.327s-1.438.415-1.527.312.052-.223.317-.415a2.077,2.077,0,0,1,1.225-.379,2.01,2.01,0,0,1,1.2.389C268.307,84.221,268.39,84.4,268.343,84.45Z" transform="translate(-224.381 -70.419)" fill="#263238"/>
        <path id="Path_17452" data-name="Path 17452" d="M276.641,90.657a5.562,5.562,0,0,1,1.35-.244c.208,0,.41-.062.447-.208a1.1,1.1,0,0,0-.14-.628c-.2-.519-.41-1.039-.628-1.615a27.574,27.574,0,0,1-1.407-4.222,28.221,28.221,0,0,1,1.745,4.1c.208.571.41,1.111.6,1.625a1.246,1.246,0,0,1,.114.836.519.519,0,0,1-.353.306,1.386,1.386,0,0,1-.358.052,5.26,5.26,0,0,1-1.37,0Z" transform="translate(-229.656 -70.467)" fill="#263238"/>
        <path id="Path_17453" data-name="Path 17453" d="M272.145,98.17c.135,0,.135.893.909,1.558s1.729.519,1.74.67-.213.171-.623.182a2.244,2.244,0,0,1-1.449-.519,1.942,1.942,0,0,1-.722-1.3C272,98.388,272.083,98.165,272.145,98.17Z" transform="translate(-227.612 -77.404)" fill="#263238"/>
        <path id="Path_17454" data-name="Path 17454" d="M268.089,78.364c-.083.228-.914.119-1.89.239s-1.76.384-1.89.182c-.057-.1.078-.312.4-.519a3.277,3.277,0,0,1,2.877-.317C267.943,78.078,268.12,78.26,268.089,78.364Z" transform="translate(-223.908 -67.589)" fill="#263238"/>
        <path id="Path_17455" data-name="Path 17455" d="M283.7,79.49c-.145.192-.722,0-1.407,0s-1.272.13-1.407-.067c-.057-.1.036-.286.291-.467a2.041,2.041,0,0,1,2.264.073C283.684,79.2,283.762,79.4,283.7,79.49Z" transform="translate(-231.875 -68.019)" fill="#263238"/>
        <path id="Path_17456" data-name="Path 17456" d="M255.467,68.417h-.031a4.253,4.253,0,0,0-1.558,2.752v.109c-.213,1.558-.171,3.116-.4,4.674a6.839,6.839,0,0,1-1.9,4.154c-.467.436-1.293.737-1.677.229a1.278,1.278,0,0,1-.192-.706c-.291-3.723-1.309-7.026-1.3-10.9a3.272,3.272,0,0,1,1.345-2.68c.815-.582,1.807-1.189,2.716-.758s2.077,2.124,2.778,2.841" transform="translate(-216.272 -61.526)" fill="#263238"/>
        <path id="Path_17457" data-name="Path 17457" d="M250.916,87.411c-.093-.042-3.713-1.1-3.6,2.6s3.806,2.815,3.806,2.711S250.916,87.411,250.916,87.411Z" transform="translate(-215.745 -72.15)" fill="#eb996e"/>
        <path id="Path_17458" data-name="Path 17458" d="M250.823,92.464a1.189,1.189,0,0,1-.166.1.644.644,0,0,1-.483.026,1.594,1.594,0,0,1-.784-1.4,2.15,2.15,0,0,1,.151-.93.748.748,0,0,1,.467-.519.338.338,0,0,1,.389.161c.052.1.031.177.052.182s.073-.062.042-.213a.41.41,0,0,0-.156-.228.519.519,0,0,0-.358-.083.924.924,0,0,0-.654.6,2.165,2.165,0,0,0-.187,1.039,1.651,1.651,0,0,0,.987,1.558.691.691,0,0,0,.587-.119C250.823,92.552,250.839,92.469,250.823,92.464Z" transform="translate(-216.618 -73.261)" fill="#d1734a"/>
        <path id="Path_17459" data-name="Path 17459" d="M255.821,62.511c-.909-1.48,1.584-3.6,3.407-4.154s4.227.312,6.039.914a10.162,10.162,0,0,0,3.495.862,8.449,8.449,0,0,0,2.342-.6,5.92,5.92,0,0,1,2.363-.467,2.223,2.223,0,0,1,1.942,1.231,1.393,1.393,0,0,1-.935,1.885,1.812,1.812,0,1,1,.488,3.365c.519-.4,1.329.26,1.262.914a1.906,1.906,0,0,1-1.262,1.4,6.937,6.937,0,0,1-4.933-.078c-1.594-.535-3.074-1.371-4.674-1.947s-4.232-1.615-5.816-1.039c-1.168.415-1.984,1.823-2.643,1.511a2.254,2.254,0,0,1-1.168-1.662,6.505,6.505,0,0,1,.073-2.077" transform="translate(-219.742 -58.181)" fill="#263238"/>
        <path id="Path_17460" data-name="Path 17460" d="M275.847,62.987c-.031,0-.187.27-.587.7a5.063,5.063,0,0,1-2.051,1.324,4.7,4.7,0,0,1-3.526-.14,18,18,0,0,1-3.583-2.747,7.665,7.665,0,0,0-4.154-1.994,4.253,4.253,0,0,0-3.531,1.22,3.214,3.214,0,0,0-.841,2.389,2.416,2.416,0,0,0,.161.68c.067.145.109.218.119.213a5.838,5.838,0,0,1-.14-.9,3.194,3.194,0,0,1,.888-2.207,4.056,4.056,0,0,1,3.344-1.07,7.473,7.473,0,0,1,3.947,1.937,16.21,16.21,0,0,0,3.671,2.783,5.016,5.016,0,0,0,5.821-1.4,3.288,3.288,0,0,0,.384-.571A.753.753,0,0,0,275.847,62.987Z" transform="translate(-220.673 -59.103)" fill="#455a64"/>
        <path id="Path_17461" data-name="Path 17461" d="M251.356,78.356a1,1,0,0,0,.3-.395,2.54,2.54,0,0,0,.187-1.34c-.083-1.189-1.137-2.467-1.272-4.113a3.719,3.719,0,0,1,.41-2.207,2.836,2.836,0,0,1,1.371-1.184,2.415,2.415,0,0,1,1.236-.171c.3.052.457.119.473.088a.909.909,0,0,0-.441-.223,2.29,2.29,0,0,0-1.355.062,3,3,0,0,0-1.558,1.257,3.946,3.946,0,0,0-.483,2.415,6.828,6.828,0,0,0,.711,2.326,7.032,7.032,0,0,1,.649,1.792,2.8,2.8,0,0,1-.228,1.693Z" transform="translate(-217.13 -63.256)" fill="#455a64"/>
        <path id="Path_17462" data-name="Path 17462" d="M278.808,393.9s11.253-55.2,11.263-56.3l-20.1-10.6-7.789,64.782Z" transform="translate(-222.891 -188.046)" fill="#263238"/>
        <path id="Path_17463" data-name="Path 17463" d="M233.51,351.736l15.542-95.669V235.43l-22.506,1.61c-.27.8-5.946,114.82-5.946,114.82l2.191-.125H233.51" transform="translate(-202.903 -144.028)" fill="#263238"/>
        <path id="Path_17464" data-name="Path 17464" d="M281.408,232.62l8.812,59.615-19.7-4.777-8.028-52.9Z" transform="translate(-223.04 -142.406)" fill="#263238"/>
        <line id="Line_134" data-name="Line 134" x1="1.002" y1="8.117" transform="translate(61.764 105.929)" fill="#0761ce"/>
        <path id="Path_17465" data-name="Path 17465" d="M294.332,207.137s3.427-2.944,3.765-5.162-4.108-37.908-4.108-37.908l-2.269-29.506c0,.519.062-3.718-.623-3.973-2.077-.784-6.346-2.207-6.346-2.207l-2.441-2.191s4.383,18.736,5.234,23.856Z" transform="translate(-232.568 -91.041)" fill="#d72027"/>
        <path id="Path_17466" data-name="Path 17466" d="M232.075,122.27l-3.687,2.456-13.829,5.437,6.143,23.166-.826,13.46-.784,8.542s-4.118,21.151-7.753,34c0,0,4.056,7.685,7.389,8.755l1.387.826,4.944-36.2L229.3,177c.41-.55.789-1.116,1.148-1.7,1.039-1.7,3.417-5.556,5.312-8.532,2.5-3.931,5.712-12.863,4.762-16.674S232.075,122.27,232.075,122.27Z" transform="translate(-198.452 -89.168)" fill="#d72027"/>
        <path id="Path_17467" data-name="Path 17467" d="M233.18,267.253a31.677,31.677,0,0,0,7.914-9.513" transform="translate(-208.951 -154.432)" fill="#263238"/>
        <path id="Path_17468" data-name="Path 17468" d="M244.461,120.987l3.329,21.358a30.887,30.887,0,0,1-1.345,8.049L240.5,169.608s-4.674,10.474-3.059,11.814,14.177,0,14.177,0l17-2.467a1.5,1.5,0,0,0,1.272-1.62l-2.524-26.079c-.852-1.8-1.2-5.489-1.558-6.8l-5.234-21.431-1.07-.14-2.326,1.594-1.226.1-10.287-4.98Z" transform="translate(-210.838 -87.706)" fill="#ebebeb"/>
        <path id="Path_17469" data-name="Path 17469" d="M241.36,189.715c2.747-8.563,6.3-22.485,6.3-22.485a41.887,41.887,0,0,1-2.809,21.577c-2.212,5.588-4.887,9.815-6.725,15.542l-.057.234s-1.039.057-.966-1.475,1.558-6.091,2.55-8.615S241.36,189.715,241.36,189.715Z" transform="translate(-210.836 -110.805)" fill="#e0e0e0"/>
        <path id="Path_17470" data-name="Path 17470" d="M274.132,132.49h-2.311l-.691,3.162,2.02,2.446,2.036-.2.665-2.269-.545-1.267Z" transform="translate(-227.194 -94.019)" fill="#470a0d"/>
        <path id="Path_17471" data-name="Path 17471" d="M300.3,141.5c.727.145,8.755,5.546,11.674,4.964s5.281-3.334,5.593-3.7c1.657-1.963.618-6.039.14-7.576a5.2,5.2,0,0,0-.473-1.075l-12.4-21.291-7.306,4.44,7.582,13.829Z" transform="translate(-239.884 -84.446)" fill="#d72027"/>
        <path id="Path_17472" data-name="Path 17472" d="M187.149,179.086a9.513,9.513,0,0,1,.447-7.789c1.682-3.329,4.352-8.7,4.913-10.469.831-2.622,8.6-22.745,10.121-23.368l6.751,22.792-7.841,16.513,9.191,17.318-7.66,8.257s-14.493-20.211-15.688-22.709Q187.258,179.362,187.149,179.086Z" transform="translate(-186.522 -96.466)" fill="#d72027"/>
        <path id="Path_17473" data-name="Path 17473" d="M227.745,260.882a25.743,25.743,0,0,0,3.838-4.528.166.166,0,0,1,0-.14.218.218,0,0,1,.156-.093,22.187,22.187,0,0,0,1.2-2.113c-1.283-.836-2.96-2.077-1.137-2.358,2.249-.322,3.853-1.412,4.082-2.01s-.519-1.132-1.111-.753a8.148,8.148,0,0,1-2.16.748,5.447,5.447,0,0,1-1.833.114c-.711-.078-3.635-1.345-4.154-1.438l-5.468,5.754S225.361,258.535,227.745,260.882Z" transform="translate(-203.173 -149.889)" fill="#eb996e"/>
        <path id="Path_17474" data-name="Path 17474" d="M301.224,153.671a2.758,2.758,0,0,1-.192-.639c-.109-.415-.244-1.039-.395-1.781a58,58,0,0,1-.846-5.946,56.827,56.827,0,0,1-.218-6c0-.769.042-1.386.073-1.817a3.742,3.742,0,0,1,.073-.665,2.842,2.842,0,0,1,.031.67V139.3c0,1.558.088,3.635.3,5.982s.519,4.424.769,5.936c.119.711.223,1.314.306,1.792A3.527,3.527,0,0,1,301.224,153.671Z" transform="translate(-240.863 -96.115)" fill="#263238"/>
        <path id="Path_17475" data-name="Path 17475" d="M311.123,156.642a.581.581,0,0,1-.177-.042,2.812,2.812,0,0,1-.462-.218,3.973,3.973,0,0,1-1.319-1.34,8.4,8.4,0,0,1-.945-2.6,31.542,31.542,0,0,1-.618-3.339c-.218-2.4-.4-4.554-.519-6.122-.052-.743-.093-1.366-.13-1.859a3.15,3.15,0,0,1,0-.685,3.8,3.8,0,0,1,.114.675c.052.519.125,1.111.208,1.849.171,1.558.384,3.734.6,6.112.151,1.184.374,2.306.6,3.313a8.794,8.794,0,0,0,.862,2.6,4.232,4.232,0,0,0,1.215,1.35,3.91,3.91,0,0,1,.571.306Z" transform="translate(-244.405 -97.861)" fill="#263238"/>
        <path id="Path_17476" data-name="Path 17476" d="M305.616,140.48a45.81,45.81,0,0,0-1.309,7.3,11.135,11.135,0,0,0,.229,4.409,4.573,4.573,0,0,0,2.924,3.116q-.981-7.229-1.729-14.483" transform="translate(-243.083 -97.88)" opacity="0.3"/>
        <path id="Path_17477" data-name="Path 17477" d="M225.06,204.422s2.43,4.98,3.775,7.587c2.8-11.585-.753-23.778.4-35.639l-2.025,4.087-.571,9.456-.436,5.546A73.7,73.7,0,0,1,225.06,204.422Z" transform="translate(-205.047 -115.214)" opacity="0.3"/>
        <path id="Path_17478" data-name="Path 17478" d="M228.84,137.88a4,4,0,0,1,.41.644c.13.213.275.478.431.789s.348.67.519,1.075a24.977,24.977,0,0,1,2.2,10.417,23.812,23.812,0,0,1-.213,3.116c-.042.441-.125.836-.187,1.179s-.125.644-.182.883a3.872,3.872,0,0,1-.213.737,4.35,4.35,0,0,1,.109-.758c.042-.244.093-.519.14-.888s.109-.737.145-1.174a27.988,27.988,0,0,0,.151-3.079,29.852,29.852,0,0,0-.286-3.754,30.346,30.346,0,0,0-.8-3.682,26.842,26.842,0,0,0-1.039-2.9c-.156-.41-.338-.763-.478-1.085s-.275-.587-.389-.8a3.864,3.864,0,0,1-.312-.711Z" transform="translate(-206.864 -96.627)" fill="#263238"/>
        <path id="Path_17479" data-name="Path 17479" d="M206.7,208.861c-.036.026-.384-.519-1.039-1.376a13.383,13.383,0,0,0-3.069-2.778,3.147,3.147,0,0,0-2.119-.519,4.154,4.154,0,0,0-1.677.717c-.878.6-1.355,1.075-1.392,1.039a1.517,1.517,0,0,1,.312-.358,9.082,9.082,0,0,1,.971-.841,4.212,4.212,0,0,1,1.729-.774,3.3,3.3,0,0,1,2.3.519,11.943,11.943,0,0,1,3.079,2.892,10.73,10.73,0,0,1,.706,1.07A1.479,1.479,0,0,1,206.7,208.861Z" transform="translate(-191.751 -128.477)" fill="#263238"/>
        <path id="Path_17480" data-name="Path 17480" d="M212,202.91a10.552,10.552,0,0,1,1.714,5.271c-.083,0-.286-1.215-.763-2.664S211.939,202.957,212,202.91Z" transform="translate(-198.765 -127.982)" fill="#263238"/>
        <path id="Path_17481" data-name="Path 17481" d="M221.563,229.77a4.372,4.372,0,0,1,.389.665l.987,1.864c.826,1.584,1.953,3.791,3.2,6.268l.047.088-.067.068-.519.519c-2.041,2.124-3.9,4.04-5.25,5.411l-1.615,1.62a5.112,5.112,0,0,1-.618.571,4.971,4.971,0,0,1,.519-.644l1.558-1.677c1.319-1.412,3.157-3.344,5.193-5.468l.519-.519v.156c-1.246-2.482-2.347-4.674-3.116-6.309l-.909-1.9a4,4,0,0,1-.322-.711Z" transform="translate(-201.711 -140.952)" fill="#263238"/>
        <path id="Path_17482" data-name="Path 17482" d="M244.206,170.39a2.522,2.522,0,0,1,0-.452v-1.283c.026-1.137.062-2.747.109-4.72s.1-4.362.208-6.995a38.116,38.116,0,0,1,1.163-8.506,19.9,19.9,0,0,1,1.641-4.108l.1.2a2.82,2.82,0,0,1-1.662-.94,4.082,4.082,0,0,1-.867-1.615,12.833,12.833,0,0,1-.27-3.365c0-2.113,0-4,0-5.582v-4.7a1.61,1.61,0,0,1,0-.343,1.784,1.784,0,0,1,.026.343c0,.249,0,.582.026,1,0,.893.031,2.145.057,3.7s.036,3.469.057,5.588a12.6,12.6,0,0,0,.28,3.3,3.848,3.848,0,0,0,.815,1.506,2.545,2.545,0,0,0,1.506.852l.187.031-.088.166a19.507,19.507,0,0,0-1.615,4.05,38.945,38.945,0,0,0-1.174,8.444c-.119,2.628-.187,5-.27,6.995s-.145,3.573-.192,4.715l-.062,1.283Q244.2,170.166,244.206,170.39Z" transform="translate(-214.238 -91.868)" fill="#263238"/>
        <path id="Path_17483" data-name="Path 17483" d="M287.08,131a1.43,1.43,0,0,1,.125.286c.073.218.177.519.3.836l1.075,3.116c.447,1.335.981,2.918,1.558,4.674.286.9.639,1.812.9,2.825a3.664,3.664,0,0,1,.068,1.615,2.16,2.16,0,0,1-.924,1.418l.042-.192c.436.649.9,1.34,1.329,2.077a12.466,12.466,0,0,1,1.454,3.365,11.8,11.8,0,0,1,.234,3.407c-.125,2.155-.265,4.092-.379,5.712s-.213,2.918-.286,3.858c-.036.431-.067.779-.088,1.039a1.871,1.871,0,0,1-.052.364,1.838,1.838,0,0,1,0-.369c0-.265.026-.618.042-1.039.047-.945.114-2.259.2-3.863s.2-3.578.327-5.712a12.167,12.167,0,0,0-.244-3.329,12.36,12.36,0,0,0-1.433-3.287c-.426-.717-.883-1.4-1.319-2.077l-.078-.114.119-.073a1.885,1.885,0,0,0,.8-1.241,3.435,3.435,0,0,0-.057-1.506c-.249-.976-.6-1.916-.883-2.8-.571-1.781-1.085-3.37-1.522-4.71s-.753-2.373-.992-3.116c-.109-.348-.192-.634-.26-.852A2.129,2.129,0,0,1,287.08,131Z" transform="translate(-234.861 -93.319)" fill="#263238"/>
        <path id="Path_17484" data-name="Path 17484" d="M241.122,255.26a1.593,1.593,0,0,1-.239.426c-.166.265-.415.639-.732,1.1-.639.914-1.558,2.155-2.6,3.495s-2.046,2.513-2.783,3.344c-.369.415-.675.748-.893.971a1.854,1.854,0,0,1-.358.332,13.674,13.674,0,0,1,1.106-1.428c.7-.862,1.667-2.077,2.716-3.386s1.979-2.555,2.654-3.443a13.747,13.747,0,0,1,1.129-1.411Z" transform="translate(-209.114 -153.236)" fill="#455a64"/>
        <path id="Path_17485" data-name="Path 17485" d="M249.772,242.36v.291c0,.192-.052.488-.093.857-.083.758-.213,1.864-.374,3.282-.338,2.851-.841,6.979-1.506,12.068-1.314,10.183-3.308,24.23-5.453,39.746-1.07,7.763-2.077,15.158-2.887,21.9-.213,1.682-.384,3.329-.623,4.923s-.483,3.116-.711,4.622l-1.257,8.309c-.763,5.079-1.366,9.186-1.76,12.032-.2,1.418-.343,2.524-.431,3.277-.042.374-.073.659-.083.852a1.679,1.679,0,0,0,0,.218c0,.062.036,0,.036,0h0s-.042,0-.036-.026a.805.805,0,0,1,0-.218c0-.192.026-.483.062-.857.068-.753.2-1.864.379-3.287.364-2.851.935-6.964,1.672-12.042.379-2.544.789-5.323,1.226-8.309.228-1.5.457-3.038.7-4.627s.4-3.235.618-4.918c.82-6.751,1.8-14.14,2.861-21.9,2.145-15.522,4.154-29.558,5.536-39.736.67-5.079,1.21-9.2,1.589-12.053.182-1.418.327-2.519.426-3.282.052-.363.088-.649.114-.852A.613.613,0,0,0,249.772,242.36Z" transform="translate(-209.626 -147.359)" fill="#455a64"/>
        <path id="Path_17486" data-name="Path 17486" d="M286.65,354.151a2.683,2.683,0,0,1,.036-.28c.031-.2.073-.473.13-.831.13-.737.312-1.8.519-3.173.483-2.768,1.184-6.751,2.046-11.668l6.875-38.5a8.984,8.984,0,0,0,.166-2.783c-.119-.924-.275-1.859-.41-2.773q-.421-2.758-.836-5.427c-.561-3.552-1.116-6.979-1.657-10.24-1.085-6.522-2.134-12.385-3.069-17.3s-1.76-8.875-2.384-11.6c-.3-1.366-.566-2.42-.732-3.116-.078-.348-.14-.623-.187-.815a2.675,2.675,0,0,1-.057-.28,2.68,2.68,0,0,1,.083.275l.218.81c.182.711.467,1.76.779,3.116.654,2.716,1.506,6.678,2.467,11.585s2.025,10.77,3.116,17.292c.55,3.261,1.106,6.688,1.672,10.24q.415,2.674.841,5.427c.14.924.291,1.838.415,2.783a9.348,9.348,0,0,1-.171,2.872c-2.706,15.013-5.151,28.608-6.927,38.459-.9,4.913-1.625,8.89-2.129,11.653-.254,1.371-.457,2.435-.592,3.168-.067.353-.125.628-.161.821S286.65,354.151,286.65,354.151Z" transform="translate(-234.654 -148.806)" fill="#455a64"/>
        <path id="Path_17487" data-name="Path 17487" d="M271.354,273.87c.078,0-.841,6.19-2.051,13.8s-2.243,13.79-2.3,13.79.846-6.19,2.051-13.8S271.281,273.86,271.354,273.87Z" transform="translate(-225.205 -162.245)" fill="#455a64"/>
        <path id="Path_17488" data-name="Path 17488" d="M233.706,459.051a2.282,2.282,0,0,1-.519.088c-.327.036-.8.083-1.4.13-1.179.093-2.815.182-4.622.208s-3.448,0-4.632-.057a13.651,13.651,0,0,1-1.4-.083,1.691,1.691,0,0,1-.519-.073,15.8,15.8,0,0,1,1.916-.031c1.184,0,2.815,0,4.622-.026s3.432-.083,4.617-.13A14.347,14.347,0,0,1,233.706,459.051Z" transform="translate(-202.913 -251.514)" fill="#455a64"/>
        <path id="Path_17489" data-name="Path 17489" d="M278.813,453.84a3.3,3.3,0,0,1-.659-.036l-1.786-.187c-1.506-.171-3.583-.431-5.878-.727s-4.372-.582-5.873-.8l-1.776-.27a4.256,4.256,0,0,1-.649-.13,2.5,2.5,0,0,1,.665.026c.421.036,1.039.1,1.786.182,1.506.171,3.588.426,5.884.722s4.367.587,5.868.8l1.776.275A2.788,2.788,0,0,1,278.813,453.84Z" transform="translate(-222.896 -247.98)" fill="#455a64"/>
        <path id="Path_17490" data-name="Path 17490" d="M252,128.92a3.509,3.509,0,0,1,.571.369l1.527,1.039c1.3.888,3.116,2.077,5.193,3.261.779.447,1.558.862,2.243,1.236l-.187.083c.436-1.724.82-3.2,1.1-4.248.135-.488.249-.893.343-1.226a1.942,1.942,0,0,1,.151-.431,1.837,1.837,0,0,1-.068.452c-.073.338-.161.748-.265,1.241-.244,1.039-.592,2.545-1.039,4.274l-.036.156-.145-.073c-.711-.369-1.48-.784-2.259-1.231a55.515,55.515,0,0,1-5.162-3.339c-.634-.462-1.137-.857-1.48-1.132A2.961,2.961,0,0,1,252,128.92Z" transform="translate(-217.998 -92.186)" fill="#263238"/>
        <path id="Path_17491" data-name="Path 17491" d="M280.371,132.8a17.66,17.66,0,0,1-2.3,1.558l-.114.073-.062-.125-.7-1.366c-.519-1.039-1.013-2.025-1.34-2.731a5.956,5.956,0,0,1-.488-1.168,5.821,5.821,0,0,1,.654,1.085c.374.68.878,1.631,1.413,2.69l.7,1.4-.177-.052A19.1,19.1,0,0,1,280.371,132.8Z" transform="translate(-229.232 -92.244)" fill="#263238"/>
        <path id="Path_17492" data-name="Path 17492" d="M275.442,135.3a2.6,2.6,0,0,1-.457.358c-.286.213-.691.519-1.142.8s-.862.582-1.163.779a3.467,3.467,0,0,1-.519.3,2.718,2.718,0,0,1,.457-.363c.291-.208.7-.493,1.143-.8l1.163-.779a3.463,3.463,0,0,1,.519-.3Z" transform="translate(-227.689 -95.253)" fill="#263238"/>
        <path id="Path_17493" data-name="Path 17493" d="M273.658,135.524a9.072,9.072,0,0,1-1.039-.956,9.229,9.229,0,0,1-.93-1.039,8.787,8.787,0,0,1,1.007.955A9.179,9.179,0,0,1,273.658,135.524Z" transform="translate(-227.463 -94.402)" fill="#263238"/>
        <path id="Path_17494" data-name="Path 17494" d="M256.592,226.08a12.082,12.082,0,0,0,1.075,3.744,11.942,11.942,0,0,0,2.42,3.048,3.193,3.193,0,0,1-.95-.68,8.023,8.023,0,0,1-2.544-4.944,3.31,3.31,0,0,1,0-1.168Z" transform="translate(-220.18 -139.159)" fill="#263238"/>
        <path id="Path_17495" data-name="Path 17495" d="M258.235,237.271a7.27,7.27,0,0,1-4.565-2.145c.052-.062.945.649,2.2,1.236S258.25,237.188,258.235,237.271Z" transform="translate(-218.8 -143.514)" fill="#263238"/>
        <path id="Path_17496" data-name="Path 17496" d="M282,207.25a2.129,2.129,0,0,1,.192.556c.109.364.249.893.4,1.558.322,1.314.7,3.147,1,5.193s.473,3.9.55,5.26c.036.675.057,1.22.057,1.6a2.259,2.259,0,0,1,0,.587,2.76,2.76,0,0,1-.083-.582c-.042-.436-.088-.966-.145-1.594-.125-1.34-.322-3.194-.623-5.229s-.654-3.869-.924-5.193c-.125-.618-.234-1.142-.322-1.558a2.741,2.741,0,0,1-.1-.6Z" transform="translate(-232.419 -130.086)" fill="#263238"/>
        <path id="Path_17497" data-name="Path 17497" d="M273.957,144.31c-.675,5.4-1.174,17.137-1.361,22.584-.156,4.549-.14,9.1-.125,13.657a10.028,10.028,0,0,0,.628,4.32c1.085,2.4,3.739,3.635,6.174,4.611Z" transform="translate(-227.834 -99.752)" fill="#e0e0e0"/>
        <path id="Path_17498" data-name="Path 17498" d="M281.241,188.026l2.789-6.834L277.056,142.9l-2.036.2s.286,39.8.192,40.157Z" transform="translate(-229.064 -99.071)" fill="#6b1013"/>
        <path id="Path_17499" data-name="Path 17499" d="M277,142.9a3.47,3.47,0,0,1-.971.161,3.733,3.733,0,0,1-.976,0,6.463,6.463,0,0,1,.971-.093A7.8,7.8,0,0,1,277,142.9Z" transform="translate(-229.078 -99.037)" fill="#263238"/>
      </g>
    </g>
  </g>
</svg>
