<svg xmlns="http://www.w3.org/2000/svg" xmlns:xlink="http://www.w3.org/1999/xlink" width="550" height="310" viewBox="0 0 550 310">
  <defs>
    <radialGradient id="radial-gradient" cx="0.5" cy="0.5" r="1.176" gradientTransform="translate(0.167 0.109) scale(0.667 0.783)" gradientUnits="objectBoundingBox">
      <stop offset="0" stop-color="#fff"/>
      <stop offset="0.279" stop-color="#fff"/>
      <stop offset="0.437" stop-color="#fffcfd"/>
      <stop offset="0.612" stop-color="#f7edee"/>
      <stop offset="0.795" stop-color="#f2e4e4"/>
      <stop offset="0.982" stop-color="#f2d5d6"/>
      <stop offset="1" stop-color="#edcccd"/>
    </radialGradient>
  </defs>
  <g id="banner" transform="translate(-1165 -139)">
    <path id="multiply" d="M6,0H544a6,6,0,0,1,6,6V310H0V6A6,6,0,0,1,6,0Z" transform="translate(1165 139)" fill="url(#radial-gradient)"/>
    <g id="verification-mail-sent-illustration" transform="translate(1288.4 111.588)">
      <ellipse id="freepik--floor--inject-25" cx="125.002" cy="73.33" rx="125.002" ry="73.33" transform="translate(26.6 150.752)" fill="#fff9fa"/>
      <g id="freepik--Shadows--inject-25" transform="translate(32.689 165.326)">
        <path id="freepik--Shadow--inject-25" d="M69.107,343.449c7.229,4.174,7.229,10.945,0,15.108s-18.963,4.174-26.2,0-7.235-10.95,0-15.108S61.832,339.269,69.107,343.449Z" transform="translate(-37.483 -285.539)" fill="#e0e0e0"/>
        <path id="freepik--shadow--inject-25-2" data-name="freepik--shadow--inject-25" d="M121.547,309.921,187.159,347.8a5.355,5.355,0,0,0,4.846,0l111.069-64.124c1.337-.772,1.337-2.026,0-2.8l-65.612-37.887a5.355,5.355,0,0,0-4.846,0l-111.07,64.129C120.2,307.9,120.2,309.149,121.547,309.921Z" transform="translate(-74.066 -242.414)" fill="#e0e0e0"/>
      </g>
      <g id="freepik--plants--inject-25" transform="translate(239.296 150.035)">
        <path id="Path_16420" data-name="Path 16420" d="M413.19,258.053l-4.571-2.641s-2.725-11.308-1.639-21.481c1.528-14.3,9.221-20.53,14.52-18.465,3.525,1.388,4.616,5.394-1.309,13.916C416.7,234.424,412.406,244.887,413.19,258.053Z" transform="translate(-406.723 -215.08)" fill="#d72027"/>
        <path id="Path_16421" data-name="Path 16421" d="M413.19,258.053l-4.571-2.641s-2.725-11.308-1.639-21.481c1.528-14.3,9.221-20.53,14.52-18.465,3.525,1.388,4.616,5.394-1.309,13.916C416.7,234.424,412.406,244.887,413.19,258.053Z" transform="translate(-406.724 -215.08)" opacity="0.3"/>
        <path id="Path_16422" data-name="Path 16422" d="M414.108,254.387h.062a.314.314,0,0,0,.252-.369c-2.507-13.188,2.1-28.016,7.834-34.183a.319.319,0,0,0-.47-.431c-5.808,6.284-10.508,21.347-7.962,34.731a.308.308,0,0,0,.284.252Z" transform="translate(-409.538 -216.942)" fill="#fff"/>
        <path id="Path_16423" data-name="Path 16423" d="M427.174,274.242c.722.364,2.641-1.281,3.178-1.679a6.714,6.714,0,0,0,2.1-2.669,6.307,6.307,0,0,0,.364-3.8,14.8,14.8,0,0,0-.56-1.981L431.6,262.2a4.934,4.934,0,0,1-.386-1.947c.1-1.343,1.237-2.333,2.272-3.189,1.119-.951,2.316-2.188,2.238-3.788a5.646,5.646,0,0,0-1.584-3.285c-.811-.929-1.768-1.74-2.512-2.731a3.945,3.945,0,0,1-.929-2.451,4.1,4.1,0,0,1,.464-1.584,22.145,22.145,0,0,0,1.544-3.2,3.153,3.153,0,0,0-.7-3.29,3.755,3.755,0,0,0-2.8-.56,6.356,6.356,0,0,0-2.518,1.03c-2.473,1.544-3.771,4.633-6.418,5.853a27.42,27.42,0,0,1-3.223.968,4.027,4.027,0,0,0-2.6,1.975c-.9,2.031,1.069,4.376.476,6.513-.52,1.891-2.289,2.691-3.217,4.42a3.917,3.917,0,0,0-.352,2.456,11.631,11.631,0,0,0,1.231,4.057,35.634,35.634,0,0,0,2.445,3.755S427.062,274.186,427.174,274.242Z" transform="translate(-408.734 -224.354)" fill="#d72027"/>
        <path id="Path_16424" data-name="Path 16424" d="M427.174,274.242c.722.364,2.641-1.281,3.178-1.679a6.714,6.714,0,0,0,2.1-2.669,6.307,6.307,0,0,0,.364-3.8,14.8,14.8,0,0,0-.56-1.981L431.6,262.2a4.934,4.934,0,0,1-.386-1.947c.1-1.343,1.237-2.333,2.272-3.189,1.119-.951,2.316-2.188,2.238-3.788a5.646,5.646,0,0,0-1.584-3.285c-.811-.929-1.768-1.74-2.512-2.731a3.945,3.945,0,0,1-.929-2.451,4.1,4.1,0,0,1,.464-1.584,22.145,22.145,0,0,0,1.544-3.2,3.153,3.153,0,0,0-.7-3.29,3.755,3.755,0,0,0-2.8-.56,6.356,6.356,0,0,0-2.518,1.03c-2.473,1.544-3.771,4.633-6.418,5.853a27.42,27.42,0,0,1-3.223.968,4.027,4.027,0,0,0-2.6,1.975c-.9,2.031,1.069,4.376.476,6.513-.52,1.891-2.289,2.691-3.217,4.42a3.917,3.917,0,0,0-.352,2.456,11.631,11.631,0,0,0,1.231,4.057,35.634,35.634,0,0,0,2.445,3.755S427.062,274.186,427.174,274.242Z" transform="translate(-408.733 -224.354)" opacity="0.15"/>
        <path id="Path_16425" data-name="Path 16425" d="M426.773,272.616h0a.319.319,0,0,0,.291-.347c-1.158-12.545,4.068-26.724,8.169-30.976a.319.319,0,1,0-.453-.442c-4.191,4.336-9.512,18.756-8.348,31.474A.319.319,0,0,0,426.773,272.616Z" transform="translate(-415.333 -226.376)" fill="#fff"/>
        <path id="Path_16426" data-name="Path 16426" d="M429.144,268.051h.1a42.021,42.021,0,0,1,9.048-1.93.319.319,0,0,0,.285-.347.3.3,0,0,0-.341-.285,43.431,43.431,0,0,0-9.21,1.964.319.319,0,0,0,.123.616Z" transform="translate(-416.456 -237.281)" fill="#fff"/>
      </g>
      <g id="freepik--Laptop--inject-25" transform="translate(78.458 67.412)">
        <path id="Path_16427" data-name="Path 16427" d="M126.34,298.256a5.937,5.937,0,0,0,2.77,4.594l60.269,34.787a6.155,6.155,0,0,0,5.534,0l106.1-61.253a5.193,5.193,0,0,0,0-9.188L240.75,232.4a6.1,6.1,0,0,0-5.534,0L129.11,293.657a5.948,5.948,0,0,0-2.77,4.6Z" transform="translate(-122.389 -139.796)" fill="#37474f"/>
        <path id="Path_16428" data-name="Path 16428" d="M130.388,296.852l60.269,34.8a6.1,6.1,0,0,0,5.534,0l106.1-61.259c1.533-.884,1.533-2.316,0-3.2l-60.257-34.8a6.1,6.1,0,0,0-5.534,0L130.388,293.657C128.861,294.552,128.861,295.973,130.388,296.852Z" transform="translate(-123.667 -139.796)" fill="#455a64"/>
        <path id="Path_16429" data-name="Path 16429" d="M192.136,381.2v5.993a5.646,5.646,0,0,1-2.8-.66l-60.229-34.8a5.181,5.181,0,0,1-.28-9.014c-1.242.89-1.119,2.193.28,3.022l60.269,34.8a5.707,5.707,0,0,0,2.76.659Z" transform="translate(-122.388 -188.68)" fill="#263238"/>
        <path id="Path_16430" data-name="Path 16430" d="M120.633,221.382c-1.432-.828-1.354-2.238-1.354-3.99V134.16a6.155,6.155,0,0,1,2.8-4.8L228.156,68.106a5.937,5.937,0,0,1,5.36-.1c1.438.828,1.36,2.238,1.36,4v83.227a6.121,6.121,0,0,1-2.77,4.8L126,221.281a5.931,5.931,0,0,1-5.366.1Z" transform="translate(-119.279 -67.413)" fill="#37474f"/>
        <path id="Path_16431" data-name="Path 16431" d="M235.519,71.993c0-1.763-1.242-2.473-2.77-1.6L126.643,131.663a5.6,5.6,0,0,0-1.958,2.065l-3.945-2.294h0a5.64,5.64,0,0,1,1.958-2.07L228.794,68.1a5.931,5.931,0,0,1,5.366-.1C235.592,68.86,235.519,70.231,235.519,71.993Z" transform="translate(-119.922 -67.411)" fill="#455a64"/>
        <path id="Path_16432" data-name="Path 16432" d="M125.675,271.844a5.948,5.948,0,0,1-5.036-.067c-1.432-.828-1.36-2.238-1.36-3.99V184.555a5.6,5.6,0,0,1,.811-2.725l3.95,2.289h0a5.674,5.674,0,0,0-.811,2.725v83.238C123.23,271.715,124.3,272.454,125.675,271.844Z" transform="translate(-119.279 -117.812)" fill="#263238"/>
        <path id="Path_16433" data-name="Path 16433" d="M132.679,141.27,234.952,82.221c.918-.56,1.679-.1,1.679.957v72.674a3.665,3.665,0,0,1-1.679,2.876L132.679,217.759c-.918.526-1.679.1-1.679-.962V144.146A3.676,3.676,0,0,1,132.679,141.27Z" transform="translate(-124.441 -73.829)" fill="#fafafa"/>
        <path id="Path_16434" data-name="Path 16434" d="M144.539,297.675l98.48-56.866a3.044,3.044,0,0,1,2.764,0l1.639.9a.844.844,0,0,1,0,1.6l-98.48,56.85a3.06,3.06,0,0,1-2.8,0l-1.623-.89a.839.839,0,0,1,.02-1.594Z" transform="translate(-130.147 -143.644)" fill="#263238"/>
        <path id="Path_16435" data-name="Path 16435" d="M158.271,305.847l98.48-56.861a2.826,2.826,0,0,1,2.529-.14l25.633,14.806c.632.364.526,1.018-.235,1.46l-98.362,56.783a2.859,2.859,0,0,1-2.535.145l-25.739-14.733C157.4,306.944,157.51,306.289,158.271,305.847Z" transform="translate(-136.168 -147.23)" fill="#263238"/>
        <path id="Path_16436" data-name="Path 16436" d="M245.58,274.583l3.089-1.779c.129-.073.14-.19,0-.257l-2.949-1.679a.5.5,0,0,0-.448,0l-3.083,1.785c-.134.073-.145.19,0,.257l2.949,1.679A.487.487,0,0,0,245.58,274.583Zm-4.476-6.155-3.083,1.779c-.134.073-.145.19-.028.257l2.949,1.679a.5.5,0,0,0,.448,0l3.083-1.785c.134-.073.146-.19.028-.257l-2.949-1.679a.487.487,0,0,0-.47.006Zm-9.965,5.752-5.215,3.01c-.134.073-.146.19-.028.257l2.949,1.707a.5.5,0,0,0,.448,0l5.221-3.016c.129-.073.14-.19,0-.257L231.56,274.2a.487.487,0,0,0-.442-.045Zm5.456-3.15-3.083,1.779c-.129.073-.14.19-.028.257l2.954,1.679a.5.5,0,0,0,.448,0l3.083-1.785c.129-.073.14-.19,0-.257l-2.954-1.679a.487.487,0,0,0-.442-.017Zm-12.1,6.983-3.083,1.779c-.129.078-.14.19-.028.257l2.954,1.679a.509.509,0,0,0,.448,0l3.083-1.779c.129-.078.14-.19.028-.263l-2.954-1.679a.487.487,0,0,0-.47-.017Zm-4.5,2.6-3.117,1.757c-.134.078-.145.19,0,.257l2.949,1.707a.5.5,0,0,0,.448,0l3.083-1.779c.134-.078.145-.19.028-.263l-2.949-1.679a.487.487,0,0,0-.464-.022Zm11.56,6.95,3.089-1.779c.129-.078.14-.19,0-.257l-2.949-1.679a.487.487,0,0,0-.448,0l-3.083,1.779c-.134.078-.146.19-.028.257l2.949,1.707a.5.5,0,0,0,.448-.05Zm-4.5,2.6,3.083-1.779c.129-.078.145-.19.028-.257l-2.949-1.707a.5.5,0,0,0-.453,0l-3.083,1.779c-.129.078-.14.19,0,.257l2.949,1.679a.5.5,0,0,0,.4.006Zm-4.51,2.6,3.089-1.779c.129-.078.14-.19,0-.257l-2.949-1.707a.487.487,0,0,0-.448,0l-3.083,1.785c-.134.078-.145.19-.028.257l2.949,1.707a.487.487,0,0,0,.448-.028ZM218,295.342l3.083-1.779c.134-.078.145-.19,0-.257l-2.949-1.707a.487.487,0,0,0-.448,0l-3.044,1.8c-.129.078-.14.19,0,.257l2.949,1.707a.487.487,0,0,0,.4-.016Zm23.064-18.185,3.083-1.779c.129-.073.146-.19.028-.257l-2.949-1.679a.5.5,0,0,0-.448,0l-3.089,1.785c-.129.073-.14.19,0,.257l2.949,1.679a.487.487,0,0,0,.442-.006Zm-5.036,7.778,6.877-3.973c.134-.073.145-.19,0-.257l-7.162-4.135a.515.515,0,0,0-.453,0l-3.553,2.054c-.134.078-.145.2-.028.263l3.794,2.188c.118.067.1.185-.028.257l-2.8,1.639c-.129.078-.14.19,0,.257l2.949,1.707a.5.5,0,0,0,.425,0Zm-20.58-1.746-3.044,1.779c-.129.078-.14.19,0,.257l2.949,1.707a.5.5,0,0,0,.448,0l3.083-1.779c.129-.078.14-.19.028-.257l-2.954-1.707a.486.486,0,0,0-.492,0Zm-4.488,2.579-3.083,1.779c-.134.078-.145.19,0,.257l2.949,1.707a.487.487,0,0,0,.448,0l3.083-1.779c.134-.078.145-.19.028-.257l-2.977-1.707a.487.487,0,0,0-.448,0Zm-24.939,27.781a.486.486,0,0,0,.448,0l3.083-1.779c.129-.073.14-.19.028-.257l-2.954-1.679a.487.487,0,0,0-.448,0l-3.083,1.779c-.129.078-.14.2-.028.263Zm-11.107-6.944-3.083,1.779c-.129.078-.145.2-.028.263l2.954,1.679a.487.487,0,0,0,.448,0l3.083-1.779c.129-.073.14-.19,0-.257l-2.949-1.679a.487.487,0,0,0-.431,0Zm5.713,5.221a.521.521,0,0,0,.453,0l3.083-1.779c.129-.078.14-.2,0-.263l-2.949-1.679a.487.487,0,0,0-.448,0l-3.055,1.757c-.129.073-.145.19-.028.257Zm12.439,2.8,3.083-1.779c.129-.073.14-.19,0-.257l-2.954-1.679a.5.5,0,0,0-.448,0l-3.083,1.785c-.129.073-.14.19,0,.257l2.949,1.679a.487.487,0,0,0,.442-.011Zm-4.958,2.619a.486.486,0,0,0,.448,0l3.083-1.779c.134-.073.145-.19,0-.257l-2.949-1.679a.5.5,0,0,0-.448,0l-3.083,1.785c-.134.073-.145.19-.028.257Zm-8.718-13.239-3.089,1.779c-.129.078-.14.2,0,.263l2.949,1.679a.487.487,0,0,0,.448,0l3.083-1.779c.134-.073.145-.19.028-.257l-2.949-1.707a.5.5,0,0,0-.476.025ZM201.918,291l-3.083,1.779c-.134.078-.145.19-.028.257l2.949,1.679a.487.487,0,0,0,.448,0l3.089-1.779c.129-.078.14-.19,0-.257l-2.949-1.707a.487.487,0,0,0-.4.028ZM183.89,301.407l-3.083,1.779c-.129.078-.145.2-.028.263l2.949,1.679a.5.5,0,0,0,.453,0l3.083-1.779c.129-.078.14-.19,0-.257l-2.949-1.679a.5.5,0,0,0-.4-.006ZM206.423,288.4l-3.083,1.779c-.129.078-.14.19,0,.257l2.949,1.707a.487.487,0,0,0,.448,0l3.083-1.779c.129-.078.14-.19.028-.257l-2.954-1.679a.487.487,0,0,0-.448-.028Zm-8.992,5.209-3.083,1.779c-.129.078-.14.19,0,.257l2.949,1.707a.487.487,0,0,0,.448,0l3.083-1.779c.129-.078.145-.19.028-.257l-2.971-1.707a.5.5,0,0,0-.454,0Zm-4.5,2.6-3.083,1.779c-.134.078-.145.19-.028.257l2.949,1.707a.487.487,0,0,0,.448,0l3.089-1.779c.129-.078.14-.19,0-.257l-2.926-1.729a.5.5,0,0,0-.448.017Zm-4.476,2.6-3.089,1.779c-.129.078-.14.2,0,.263l2.949,1.679a.487.487,0,0,0,.448,0l3.083-1.779c.134-.078.145-.19.028-.257l-2.971-1.707a.5.5,0,0,0-.476.017Zm20.574,1.746,3.083-1.779c.134-.078.145-.19,0-.257l-2.949-1.679a.5.5,0,0,0-.448,0l-3.089,1.779c-.129.078-.14.19,0,.257l2.949,1.707a.487.487,0,0,0,.425-.034Zm42.044-37.9-3.083,1.779c-.129.073-.14.19-.028.257l2.954,1.679a.5.5,0,0,0,.448,0l3.083-1.785c.129-.073.14-.19.028-.257l-2.954-1.679a.487.487,0,0,0-.476,0Zm-5.456,3.145-3.083,1.785c-.129.073-.14.19-.028.257l2.954,1.679a.5.5,0,0,0,.448,0l3.083-1.785c.129-.073.14-.19.028-.257l-2.954-1.679a.5.5,0,0,0-.476-.006Zm9.937-5.769-3.083,1.779c-.134.073-.145.19-.028.257l2.949,1.679a.5.5,0,0,0,.448,0l3.083-1.785c.134-.073.145-.19.028-.257L256,260.029a.487.487,0,0,0-.449.006ZM230.64,283.189l3.083-1.779c.129-.073.14-.19.028-.257l-2.954-1.679a.5.5,0,0,0-.448,0l-3.083,1.785c-.129.073-.14.19-.028.257l2.954,1.679a.487.487,0,0,0,.448-.006Zm29.86-25.74a.5.5,0,0,0-.448,0l-3.083,1.785c-.129.073-.14.19-.028.257l2.954,1.679a.5.5,0,0,0,.448,0l3.083-1.785c.129-.073.14-.19.028-.257Zm-47,40.517,3.083-1.779c.129-.078.14-.19,0-.257l-2.949-1.707a.487.487,0,0,0-.448,0L210.16,296c-.129.078-.145.19,0,.257l2.949,1.707a.5.5,0,0,0,.408-.017Zm55.266-31.894,3.083-1.779c.134-.073.145-.19.028-.257l-2.966-1.763a.5.5,0,0,0-.448,0l-3.083,1.779c-.134.078-.145.2-.028.263l2.949,1.679a.487.487,0,0,0,.47.045Zm-8.723.168,3.089-1.779c.129-.073.14-.19,0-.257l-2.949-1.679a.5.5,0,0,0-.448,0l-3.083,1.785c-.134.073-.145.19-.028.257l2.949,1.679a.487.487,0,0,0,.476-.056Zm4.667-6.34a.5.5,0,0,0-.448,0l-3.083,1.785c-.129.073-.14.19,0,.257l2.949,1.679a.487.487,0,0,0,.448,0l3.083-1.779c.129-.073.146-.19,0-.257Zm.951-.56,7.162,4.135a.5.5,0,0,0,.453,0l3.083-1.779c.129-.073.14-.19,0-.257L269.2,257.3a.5.5,0,0,0-.448,0l-3.083,1.779c-.112.05-.112.168,0,.235Zm-10.408,5.73-3.083,1.785c-.129.073-.14.19,0,.257l2.949,1.679a.487.487,0,0,0,.448,0l3.083-1.779c.129-.073.145-.19.028-.257l-2.949-1.679a.515.515,0,0,0-.476-.006Zm-33.9,19.584-3.083,1.785c-.129.073-.14.19,0,.257l2.954,1.679a.487.487,0,0,0,.448,0l3.038-1.763c.129-.073.14-.19.028-.257l-2.954-1.679a.5.5,0,0,0-.433-.021Zm42.486-16.009a.487.487,0,0,0,.448,0l3.083-1.779c.129-.073.14-.19,0-.257l-2.932-1.712a.5.5,0,0,0-.448,0l-3.083,1.779c-.129.078-.14.2-.028.263Zm-37.976,13.429-3.083,1.785c-.134.073-.145.19,0,.257l2.949,1.679a.487.487,0,0,0,.448,0l3.083-1.779c.134-.073.145-.19.028-.257l-2.949-1.679a.5.5,0,0,0-.509-.017ZM190.52,310.953a.486.486,0,0,0,.448,0l3.083-1.779c.134-.073.145-.19,0-.257l-2.915-1.7a.5.5,0,0,0-.448,0L187.605,309c-.134.078-.145.2-.028.263Zm-5.237-5.489-3.1,1.8c-.129.073-.14.19,0,.257l2.949,1.679a.487.487,0,0,0,.448,0l3.083-1.779c.134-.078.145-.2.028-.263l-2.949-1.679a.487.487,0,0,0-.459.006Zm10.195,2.87,3.083-1.779c.129-.073.14-.19,0-.257l-2.949-1.684a.5.5,0,0,0-.448,0l-3.083,1.779c-.129.078-.14.2,0,.263l2.954,1.679a.487.487,0,0,0,.442.022Zm4.5-2.6,3.083-1.779c.134-.078.145-.19.028-.257L200.14,302a.5.5,0,0,0-.448,0l-3.083,1.779c-.134.078-.145.2,0,.263l2.949,1.679a.487.487,0,0,0,.42.034Zm4.51-2.6,3.083-1.779c.129-.078.14-.19,0-.257l-2.949-1.707a.5.5,0,0,0-.448,0l-3.083,1.779c-.129.078-.145.2-.028.257l2.954,1.679a.487.487,0,0,0,.47.05Zm-14.7-.269-3.083,1.779c-.129.073-.146.19-.028.257l2.949,1.679a.515.515,0,0,0,.453,0l3.083-1.779c.129-.078.14-.2,0-.263l-2.949-1.679a.487.487,0,0,0-.425.028Zm4.51-2.6-3.089,1.779c-.129.073-.14.19,0,.257l2.949,1.679a.5.5,0,0,0,.448,0l3.083-1.785c.129-.073.145-.19.028-.257l-2.949-1.679a.487.487,0,0,0-.47.028Zm18.023-10.408-3.083,1.779c-.129.073-.14.19,0,.257l2.949,1.679a.5.5,0,0,0,.448,0l3.083-1.785c.129-.073.14-.19.028-.257l-2.954-1.679a.487.487,0,0,0-.47.028Zm-4.5,2.635-3.083,1.779c-.134.073-.145.19-.028.257l2.949,1.679a.5.5,0,0,0,.448,0l3.083-1.785c.134-.073.145-.19,0-.257l-2.949-1.679a.487.487,0,0,0-.425,0Zm9.014-5.209-3.083,1.785c-.134.073-.145.19,0,.257L216.7,291a.5.5,0,0,0,.448,0l3.083-1.785c.134-.073.145-.19.028-.257l-2.949-1.679a.5.5,0,0,0-.476-.011Zm-18.029,10.4-3.083,1.779c-.134.073-.145.19-.028.257l2.949,1.679a.5.5,0,0,0,.448,0l3.089-1.785c.129-.073.14-.19,0-.257l-2.949-1.679a.487.487,0,0,0-.432,0Zm4.5-2.6-3.083,1.779c-.129.073-.14.19,0,.257l2.949,1.679a.5.5,0,0,0,.448,0l3.083-1.785c.129-.073.145-.19.028-.257l-2.954-1.679a.487.487,0,0,0-.471,0Zm-5.752,16.943,3.083-1.779c.134-.073.145-.19.028-.257l-2.949-1.679a.5.5,0,0,0-.448,0l-3.083,1.779c-.134.078-.145.2,0,.263l2.949,1.679a.487.487,0,0,0,.42-.006ZM173.79,310.9l-2.949-1.679a.487.487,0,0,0-.448,0L167.311,311c-.134.078-.145.2,0,.263l2.949,1.679a.487.487,0,0,0,.448,0l3.083-1.779C173.9,311.087,173.908,310.953,173.79,310.9Zm5.875,1.472-2.949-1.679a.486.486,0,0,0-.448,0l-4.717,2.731c-.134.078-.145.2,0,.263l2.949,1.679a.487.487,0,0,0,.448,0l4.745-2.736a.151.151,0,0,0-.028-.256Zm-10.279-4.835-2.949-1.679a.487.487,0,0,0-.448,0l-3.8,2.193c-.129.073-.14.19,0,.257l2.949,1.679a.5.5,0,0,0,.448,0l3.794-2.193c.113-.075.12-.194.006-.254Zm2.91-1.679a.487.487,0,0,0,.448,0l3.083-1.779c.134-.078.145-.2.028-.263l-2.949-1.679a.487.487,0,0,0-.448,0l-3.083,1.779c-.134.073-.145.19-.028.257Zm12.769,8.27-2.949-1.679a.5.5,0,0,0-.448,0l-5.931,3.424c-.129.078-.145.19,0,.257l2.949,1.679a.5.5,0,0,0,.453,0l5.926-3.424c.106-.078.118-.2,0-.263Zm2.082,3.665-2.954-1.679a.5.5,0,0,0-.448,0l-3.8,2.177c-.129.078-.14.19,0,.257l2.954,1.707a.509.509,0,0,0,.448,0l3.794-2.193c.106-.09.123-.207.006-.274Zm18.661-31.279a.486.486,0,0,0,.448,0l3.083-1.779c.129-.078.14-.19.028-.257l-2.954-1.679a.51.51,0,0,0-.448,0l-3.077,1.746c-.129.078-.14.19-.028.257Zm-9.014,5.2a.487.487,0,0,0,.448,0l3.083-1.779c.129-.073.145-.19.028-.257l-2.954-1.707a.509.509,0,0,0-.448,0l-3.083,1.779c-.129.078-.14.2,0,.263ZM176.8,303.259a.515.515,0,0,0,.453,0l3.083-1.819c.129-.078.14-.2,0-.263l-2.949-1.679a.487.487,0,0,0-.448,0l-3.083,1.779c-.129.073-.146.19,0,.257Zm24.5-14.129a.487.487,0,0,0,.448,0l3.083-1.779c.134-.073.145-.19.028-.257l-2.949-1.707a.5.5,0,0,0-.448,0l-3.083,1.779c-.134.078-.145.2-.028.263Zm-9.014,5.2a.487.487,0,0,0,.448,0l3.083-1.779c.134-.073.145-.19,0-.257l-2.949-1.707a.5.5,0,0,0-.448,0l-3.083,1.779c-.134.078-.145.2-.028.263Zm-2.926,23.658a.5.5,0,0,0-.448,0l-4.745,2.742c-.129.073-.14.19,0,.257l2.949,1.679a.487.487,0,0,0,.448,0l4.745-2.742c.129-.073.14-.19,0-.257Zm-3.542-19.925a.5.5,0,0,0,.448,0l3.089-1.785c.129-.073.14-.19,0-.257l-2.949-1.679a.486.486,0,0,0-.448,0l-3.083,1.779c-.134.073-.145.19-.028.257Zm-4.5,2.6a.5.5,0,0,0,.448,0l3.083-1.785c.134-.073.146-.19.028-.257l-2.949-1.679a.487.487,0,0,0-.448,0l-3.089,1.779c-.129.073-.14.19,0,.257Zm91.547-30.887a.487.487,0,0,0-.448,0l-7.593,4.381c-.129.078-.146.19-.028.257l2.954,1.707a.487.487,0,0,0,.448,0l7.587-4.381c.134-.078.145-.19.028-.257Zm-9.965,5.752a.487.487,0,0,0-.448,0l-3.083,1.779c-.129.078-.145.19-.028.257l2.949,1.707a.5.5,0,0,0,.453,0l3.083-1.779c.129-.078.14-.19,0-.257ZM202.064,309.42l3.083-1.779c.129-.073.14-.19.028-.257L202.22,305.7a.5.5,0,0,0-.448,0l-3.083,1.779c-.129.078-.14.2,0,.263l2.949,1.679a.487.487,0,0,0,.426,0Zm51.814-28.682a.5.5,0,0,0-.448,0l-3.083,1.779c-.129.078-.145.19-.028.257l2.954,1.707a.486.486,0,0,0,.448,0L256.8,282.7c.129-.078.14-.19,0-.257Zm23.5-13.558a.487.487,0,0,0-.448,0l-3.1,1.807c-.129.078-.145.19-.028.257l2.949,1.679a.5.5,0,0,0,.448,0l3.089-1.779c.129-.078.14-.19,0-.257Zm7.459-.9-7.168-4.141a.487.487,0,0,0-.448,0l-3.1,1.807c-.129.078-.14.19-.028.257l7.168,4.141a.5.5,0,0,0,.448,0l3.083-1.779c.129-.123.145-.235.028-.3Zm-47.819,24.161a.487.487,0,0,0-.448,0l-3.794,2.188c-.129.078-.146.2-.028.263l2.949,1.679a.5.5,0,0,0,.453,0l3.794-2.188c.129-.078.14-.2.028-.263Zm11.387-6.575a.487.487,0,0,0-.448,0l-4.745,2.736c-.129.078-.14.2-.028.263l2.954,1.679a.487.487,0,0,0,.448,0l4.745-2.736c.129-.078.14-.19,0-.257Zm-21.822,12.6a.487.487,0,0,0-.448,0L200.754,311.12c-.129.073-.145.19-.028.257l2.949,1.679a.487.487,0,0,0,.448,0l25.387-14.649c.129-.078.14-.2,0-.263Zm-26.8,15.477a.5.5,0,0,0-.448,0l-3.8,2.193c-.129.078-.14.19,0,.257l2.949,1.707a.5.5,0,0,0,.448,0l3.794-2.193c.129-.073.145-.19.028-.257ZM231.8,293.484a.487.487,0,0,0-.448,0l-3.8,2.193c-.129.073-.14.19,0,.257l2.949,1.679a.487.487,0,0,0,.448,0l3.794-2.193c.134-.073.145-.19.028-.257Zm-37.243,21.5a.486.486,0,0,0-.448,0l-3.794,2.188c-.134.078-.145.2,0,.263l2.949,1.679a.487.487,0,0,0,.448,0l3.794-2.188c.134-.078.145-.19,0-.257Zm47.7-27.53a.5.5,0,0,0-.448,0l-3.794,2.193c-.134.073-.145.19,0,.257l2.949,1.707a.5.5,0,0,0,.448,0l3.794-2.193c.134-.073.146-.19.028-.257Zm16.132-9.316a.487.487,0,0,0-.448,0l-3.089,1.779c-.129.078-.14.19,0,.257l2.926,1.684a.487.487,0,0,0,.448,0l3.083-1.779c.134-.078.145-.19,0-.257Zm10.072-7.045,3.083-1.779c.129-.078.146-.19.028-.257l-2.954-1.679a.509.509,0,0,0-.448,0l-3.083,1.779c-.129.078-.14.19,0,.263l2.949,1.679a.487.487,0,0,0,.448-.022Zm-18.392.884,3.083-1.779c.129-.073.145-.19.028-.257l-2.949-1.679a.514.514,0,0,0-.453,0l-3.083,1.785c-.129.073-.14.19,0,.257l2.949,1.679a.487.487,0,0,0,.448-.022ZM238.138,288.6l9.009-5.2c.134-.078.145-.19.028-.257l-2.949-1.707a.5.5,0,0,0-.448,0l-9.014,5.2c-.129.078-.145.19-.028.257l2.949,1.679a.5.5,0,0,0,.453.028Zm25.4-14.912a.487.487,0,0,0,.448,0l3.083-1.779c.134-.078.145-.19.028-.257l-2.949-1.707a.5.5,0,0,0-.448,0l-3.083,1.779c-.134.078-.145.2,0,.263Zm-3.782-2.468,3.083-1.779c.134-.073.145-.19.028-.257l-2.949-1.679a.5.5,0,0,0-.448,0l-3.083,1.779c-.134.078-.146.2-.028.263l2.949,1.679a.486.486,0,0,0,.448-.006Zm-26.145,19.97,3.083-1.779c.134-.078.145-.19.028-.257l-2.949-1.7a.487.487,0,0,0-.448,0l-3.089,1.779c-.129.078-.14.19,0,.257l2.949,1.707a.487.487,0,0,0,.425.011Zm19.953-11.75a.487.487,0,0,0,.448,0l3.083-1.779c.129-.078.14-.19.028-.257l-2.954-1.679a.509.509,0,0,0-.448,0l-3.083,1.779c-.129.078-.14.19,0,.263Zm-42.486,24.8,3.083-1.779c.129-.073.14-.19,0-.257l-2.954-1.707a.509.509,0,0,0-.448,0l-3.083,1.779c-.129.078-.14.2-.028.263l2.954,1.679a.487.487,0,0,0,.476.021Zm4.5-2.6,3.083-1.779c.134-.073.145-.19.028-.257l-2.938-1.729a.5.5,0,0,0-.448,0l-3.083,1.779c-.134.078-.145.2,0,.263l2.949,1.679a.487.487,0,0,0,.408.022Zm-9.014,5.2,3.083-1.779c.134-.073.146-.19,0-.257l-2.949-1.679a.5.5,0,0,0-.448,0l-3.083,1.779c-.134.078-.145.2-.028.263l2.949,1.679a.487.487,0,0,0,.476-.028ZM224.6,296.4l3.083-1.779c.134-.078.145-.19.028-.257l-2.949-1.707a.5.5,0,0,0-.448,0l-3.083,1.779c-.134.078-.145.19,0,.257l2.921,1.707A.487.487,0,0,0,224.6,296.4Zm-4.5,2.6,3.083-1.779c.129-.073.14-.19.028-.257l-2.971-1.684a.5.5,0,0,0-.448,0l-3.083,1.779c-.129.078-.14.2-.028.263L219.635,299a.487.487,0,0,0,.464.006Zm9.014-5.2,3.083-1.779c.129-.078.14-.19,0-.257l-2.949-1.707a.487.487,0,0,0-.448,0l-3.083,1.779c-.129.078-.145.19-.028.257l2.954,1.707a.487.487,0,0,0,.47.006Zm24.592-36.2a.487.487,0,0,0,.448,0l3.083-1.779c.134-.078.146-.19.028-.257l-.783-.453a.5.5,0,0,0-.448,0l-3.089,1.785c-.129.073-.14.19,0,.257Zm-22.382,14.184a.509.509,0,0,0,.448,0L234.855,270c.129-.078.14-.2,0-.263L231.9,268.07a.487.487,0,0,0-.448,0l-3.083,1.779c-.129.073-.14.19-.028.257Zm9.014-5.2a.509.509,0,0,0,.448,0l3.083-1.779c.129-.078.14-.2,0-.263l-2.926-1.712a.487.487,0,0,0-.448,0l-3.083,1.779c-.129.073-.145.19-.028.257Zm-14.52,8.393a.5.5,0,0,0,.448,0l3.083-1.785c.134-.073.145-.19.028-.257l-2.982-1.712a.487.487,0,0,0-.448,0L222.856,273c-.134.073-.145.19-.028.257Zm10.01-5.775a.5.5,0,0,0,.448,0l3.083-1.779c.134-.078.145-.2.028-.263l-2.949-1.679a.487.487,0,0,0-.448,0l-3.083,1.779c-.134.073-.145.19-.028.257ZM216.8,280.189a.526.526,0,0,0,.448,0l3.083-1.779c.134-.078.145-.2.028-.263l-2.949-1.679a.487.487,0,0,0-.448,0l-3.083,1.779c-.134.073-.145.19-.028.257Zm4.51-2.607a.5.5,0,0,0,.448,0l3.083-1.779c.129-.078.14-.2,0-.263l-2.949-1.679a.487.487,0,0,0-.448,0l-3.083,1.779c-.129.073-.14.19-.028.257Zm23.378-14.75a.486.486,0,0,0,.448,0l3.083-1.779c.134-.078.145-.19.028-.257l-.783-.453a.5.5,0,0,0-.448,0l-3.083,1.785c-.134.073-.145.19-.028.257ZM258.208,255a.487.487,0,0,0,.448,0l3.083-1.779c.129-.078.14-.19,0-.257l-.783-.453a.5.5,0,0,0-.448,0l-3.083,1.785c-.134.073-.146.19-.028.257Zm6.194,3.575a.5.5,0,0,0,.448,0l3.083-1.785c.134-.073.145-.19.028-.257l-2.949-1.679a.5.5,0,0,0-.448,0l-3.083,1.785c-.134.073-.146.19-.028.257Zm8.583,9.887,3.083-1.779c.134-.078.145-.19,0-.257l-2.949-1.707a.5.5,0,0,0-.448,0L269.59,266.5c-.134.078-.146.19-.028.257l2.949,1.707a.487.487,0,0,0,.476.011ZM249.194,260.2a.487.487,0,0,0,.448,0l3.083-1.779c.129-.078.14-.19,0-.257l-.783-.453a.5.5,0,0,0-.448,0l-3.083,1.785c-.129.073-.145.19,0,.257Zm-36.93,22.566a.51.51,0,0,0,.448,0l3.083-1.779c.129-.078.14-.2.028-.263l-2.954-1.679a.487.487,0,0,0-.448,0l-3.083,1.779c-.129.073-.14.19-.028.257Z" transform="translate(-138.135 -148.923)" fill="#455a64"/>
        <path id="Path_16437" data-name="Path 16437" d="M275.61,334.338l.632.364,16.8,9.691,29.863-17.24.621-.358L306.1,316.74Z" transform="translate(-188.136 -177.236)" fill="#37474f"/>
        <path id="Path_16438" data-name="Path 16438" d="M276.74,335.265l16.8,9.691,29.863-17.24-16.8-9.7Z" transform="translate(-188.633 -177.799)" fill="#263238"/>
      </g>
      <g id="freepik--MailBox--inject-25" transform="translate(34.395 144.881)">
        <path id="Path_16439" data-name="Path 16439" d="M100.43,209.972l-6.843-3.917c-.3-.179-.526-.224-.643-.151l-.834.481c-.145.084-.14.33.039.711l1.679,3.447-1.242,1.119a.968.968,0,0,0,.179,1.645l6.843,3.95.834-.487Z" transform="translate(-63.203 -205.87)" fill="#d72027"/>
        <path id="Path_16440" data-name="Path 16440" d="M100.43,209.972l-6.843-3.917c-.3-.179-.526-.224-.643-.151l-.834.481c-.145.084-.14.33.039.711l1.679,3.447-1.242,1.119a.968.968,0,0,0,.179,1.645l6.843,3.95.834-.487Z" transform="translate(-63.203 -205.87)" fill="#fff" opacity="0.5"/>
        <path id="Path_16441" data-name="Path 16441" d="M92.751,206.857c-.666-.386-.94-.134-.6.56l1.679,3.447-1.242,1.119a.968.968,0,0,0,.179,1.645l6.843,3.95v-6.765Z" transform="translate(-63.202 -206.225)" fill="#d72027"/>
        <path id="Path_16442" data-name="Path 16442" d="M106.366,233a.8.8,0,0,1-.806-.806V209.469a.806.806,0,0,1,1.606,0V232.2a.8.8,0,0,1-.8.806Z" transform="translate(-69.173 -207.13)" fill="#455a64"/>
        <path id="Path_16443" data-name="Path 16443" d="M54.39,356.188v-1.416h.341a5.6,5.6,0,0,1,2.3-2.238,14.141,14.141,0,0,1,12.8,0,5.545,5.545,0,0,1,2.3,2.238h.347v1.371c0,1.36-.851,2.725-2.647,3.76a14.141,14.141,0,0,1-12.8,0C55.291,358.879,54.379,357.531,54.39,356.188Z" transform="translate(-46.635 -269.795)" fill="#263238"/>
        <ellipse id="Ellipse_141" data-name="Ellipse 141" cx="9.053" cy="5.226" rx="9.053" ry="5.226" transform="translate(7.75 79.752)" fill="#455a64"/>
        <path id="Path_16444" data-name="Path 16444" d="M71.061,269.77v48.6a1.164,1.164,0,0,1-.683.951,3.637,3.637,0,0,1-3.3,0,1.153,1.153,0,0,1-.683-.951v-48.6Z" transform="translate(-51.925 -234.015)" fill="#37474f"/>
        <path id="Path_16445" data-name="Path 16445" d="M66.4,280.28v4.572l4.661,2.686v-4.56Z" transform="translate(-51.925 -238.645)" fill="#263238"/>
        <path id="Path_16446" data-name="Path 16446" d="M91.2,259.459l8.617,4.98a.643.643,0,0,1-.168.179l-15.074,8.7c-.129.073-.229,0-.229-.14v-10.86A16.982,16.982,0,0,1,85.6,256.23Z" transform="translate(-59.831 -228.052)" fill="#d72027"/>
        <path id="Path_16447" data-name="Path 16447" d="M91.2,259.459l8.617,4.98a.643.643,0,0,1-.168.179l-15.074,8.7c-.129.073-.229,0-.229-.14v-10.86A16.982,16.982,0,0,1,85.6,256.23Z" transform="translate(-59.831 -228.052)" opacity="0.4"/>
        <path id="Path_16448" data-name="Path 16448" d="M100.88,244.616v12.17L86.6,248.528l.05-.117c1.528-3.827,4.09-7.067,6.888-8.679a6.535,6.535,0,0,1,3.229-1C99.307,238.73,100.88,240.985,100.88,244.616Z" transform="translate(-60.822 -220.344)" fill="#d72027"/>
        <path id="Path_16449" data-name="Path 16449" d="M100.88,244.616v12.17L86.6,248.528l.05-.117c1.528-3.827,4.09-7.067,6.888-8.679a6.535,6.535,0,0,1,3.229-1C99.307,238.73,100.88,240.985,100.88,244.616Z" transform="translate(-60.822 -220.344)" opacity="0.3"/>
        <path id="Path_16450" data-name="Path 16450" d="M114.781,286.132v-1.086h-.106v.157a4.706,4.706,0,0,0-.28-.878,8.148,8.148,0,0,0-3.6-3.665l-10.2-5.892a1.729,1.729,0,0,0-1.539,0l-15.6,9a2.4,2.4,0,0,1-.492-.56v1.119h0a.559.559,0,0,0,.313.448l10.206,5.886a19.438,19.438,0,0,0,9.753,2.3,16.9,16.9,0,0,0,8.119-1.975c2.294-1.315,3.424-3.066,3.424-4.851Z" transform="translate(-59.219 -236.137)" fill="#d72027"/>
        <path id="Path_16451" data-name="Path 16451" d="M114.781,286.132v-1.086h-.106v.157a4.706,4.706,0,0,0-.28-.878,8.148,8.148,0,0,0-3.6-3.665l-10.2-5.892a1.729,1.729,0,0,0-1.539,0l-15.6,9a2.4,2.4,0,0,1-.492-.56v1.119h0a.559.559,0,0,0,.313.448l10.206,5.886a19.438,19.438,0,0,0,9.753,2.3,16.9,16.9,0,0,0,8.119-1.975c2.294-1.315,3.424-3.066,3.424-4.851Z" transform="translate(-59.219 -236.137)" opacity="0.4"/>
        <path id="Path_16452" data-name="Path 16452" d="M114.783,284.335a8.148,8.148,0,0,0-3.6-3.665l-10.2-5.892a1.729,1.729,0,0,0-1.539,0l-15.6,9,10.027,5.786a19.5,19.5,0,0,0,9.753,2.305,16.966,16.966,0,0,0,8.119-1.975c2.059-1.186,3.184-2.714,3.391-4.309a4.549,4.549,0,0,0-.347-1.248Z" transform="translate(-59.606 -236.142)" fill="#d72027"/>
        <path id="Path_16453" data-name="Path 16453" d="M114.783,284.335a8.148,8.148,0,0,0-3.6-3.665l-10.2-5.892a1.729,1.729,0,0,0-1.539,0l-15.6,9,10.027,5.786a19.5,19.5,0,0,0,9.753,2.305,16.966,16.966,0,0,0,8.119-1.975c2.059-1.186,3.184-2.714,3.391-4.309a4.549,4.549,0,0,0-.347-1.248Z" transform="translate(-59.606 -236.142)" opacity="0.2"/>
        <path id="Path_16454" data-name="Path 16454" d="M114.738,284.738a4.547,4.547,0,0,0-.347-1.259,8.147,8.147,0,0,0-3.6-3.665l-10.2-5.892a1.729,1.729,0,0,0-1.539,0l-15.6,9-.179-.1a.47.47,0,0,1,0-.89l15.779-9.081a1.679,1.679,0,0,1,1.539,0l10.2,5.892a8.206,8.206,0,0,1,3.6,3.665,4.527,4.527,0,0,1,.358,1.337,4.084,4.084,0,0,1-.011.99Z" transform="translate(-59.215 -235.291)" fill="#d72027"/>
        <path id="Path_16455" data-name="Path 16455" d="M114.738,284.738a4.547,4.547,0,0,0-.347-1.259,8.147,8.147,0,0,0-3.6-3.665l-10.2-5.892a1.729,1.729,0,0,0-1.539,0l-15.6,9-.179-.1a.47.47,0,0,1,0-.89l15.779-9.081a1.679,1.679,0,0,1,1.539,0l10.2,5.892a8.206,8.206,0,0,1,3.6,3.665,4.527,4.527,0,0,1,.358,1.337,4.084,4.084,0,0,1-.011.99Z" transform="translate(-59.215 -235.291)" opacity="0.3"/>
        <path id="Path_16456" data-name="Path 16456" d="M84.14,281.142l15.774-9.109-.353-.823-15.074,8.706Z" transform="translate(-59.738 -234.65)" fill="#d72027"/>
        <path id="Path_16457" data-name="Path 16457" d="M84.14,281.142l15.774-9.109-.353-.823-15.074,8.706Z" transform="translate(-59.738 -234.65)" opacity="0.1"/>
        <g id="freepik--Letter--inject-25" transform="translate(17.536 11.719)">
          <path id="Path_16458" data-name="Path 16458" d="M93,238.678a.823.823,0,0,0-.375-.649l-19.2-11.1a.806.806,0,0,0-.75,0l-.425.246a.822.822,0,0,0-.375.649v14.722a.834.834,0,0,0,.375.649l19.2,11.09a.856.856,0,0,0,.755,0l.42-.246A.834.834,0,0,0,93,253.39Z" transform="translate(-71.87 -226.823)" fill="#f5f5f5"/>
          <path id="Path_16459" data-name="Path 16459" d="M92.98,238.277l-1.069.615L72.07,227.433a.766.766,0,0,1,.263-.285l.425-.241a.806.806,0,0,1,.75,0L92.734,238a.722.722,0,0,1,.246.28Z" transform="translate(-71.958 -226.815)" fill="#e0e0e0"/>
          <path id="Path_16460" data-name="Path 16460" d="M107.38,276Z" transform="translate(-87.511 -248.479)" fill="#0761ce"/>
          <path id="Path_16461" data-name="Path 16461" d="M91.829,239.369l-.2.118a.324.324,0,0,1,.2.319v14.722a.257.257,0,0,1-.118.246.246.246,0,0,1-.179,0l-.078-.034L72.245,243.656a.839.839,0,0,1-.375-.649V228.285a.783.783,0,0,1,.112-.375Z" transform="translate(-71.87 -227.297)" fill="#ebebeb"/>
          <path id="Path_16462" data-name="Path 16462" d="M91.823,239.344l-8.891,3.318a1.438,1.438,0,0,1-1.718-.56l-1.438-2.193L71.909,227.84,79.5,239.993l-7.632,2.988a.738.738,0,0,0,.118.375l7.537-3.329,1.679,2.658a1.449,1.449,0,0,0,1.813.56l1.181-.52,7.537,12.025a.269.269,0,0,0,.112-.246v-.274L84.214,242.7Z" transform="translate(-71.87 -227.266)" opacity="0.2"/>
        </g>
        <g id="freepik--letter--inject-25-2" data-name="freepik--letter--inject-25" transform="translate(12.987 14.327)">
          <path id="Path_16463" data-name="Path 16463" d="M84.874,243.3a.839.839,0,0,0-.375-.649L65.29,231.567a.806.806,0,0,0-.75,0l-.425.241a.839.839,0,0,0-.375.649v14.722a.856.856,0,0,0,.375.655l19.209,11.085a.806.806,0,0,0,.75,0l.425-.241a.839.839,0,0,0,.375-.649Z" transform="translate(-63.74 -231.475)" fill="#f5f5f5"/>
          <path id="Path_16464" data-name="Path 16464" d="M84.85,242.959l-1.063.616L63.94,232.088a.8.8,0,0,1,.263-.28l.425-.241a.806.806,0,0,1,.75,0l19.209,11.085a.8.8,0,0,1,.263.308Z" transform="translate(-63.828 -231.475)" fill="#e0e0e0"/>
          <path id="Path_16465" data-name="Path 16465" d="M99.25,280.67Z" transform="translate(-79.381 -253.143)" fill="#0761ce"/>
          <path id="Path_16466" data-name="Path 16466" d="M83.7,244.029l-.2.117a.325.325,0,0,1,.2.319v14.722a.257.257,0,0,1-.118.246.247.247,0,0,1-.179,0l-.078-.034-19.21-11.083a.839.839,0,0,1-.375-.649V232.945a.784.784,0,0,1,.112-.375Z" transform="translate(-63.74 -231.957)" fill="#ebebeb"/>
          <path id="Path_16467" data-name="Path 16467" d="M83.7,244l-8.9,3.329a1.444,1.444,0,0,1-1.712-.56l-1.432-2.188L63.779,232.5l7.593,12.153-7.632,2.988a.912.912,0,0,0,.118.375l7.537-3.357,1.679,2.658a1.449,1.449,0,0,0,1.807.56l1.186-.52L83.581,259.4a.257.257,0,0,0,.118-.246v-.246l-7.615-11.549Z" transform="translate(-63.74 -231.926)" opacity="0.2"/>
        </g>
        <g id="freepik--letter--inject-25-3" data-name="freepik--letter--inject-25" transform="translate(8.444 16.933)">
          <path id="Path_16468" data-name="Path 16468" d="M76.748,247.96a.822.822,0,0,0-.375-.649l-19.2-11.09a.839.839,0,0,0-.75,0l-.425.246a.822.822,0,0,0-.375.649v14.722a.822.822,0,0,0,.375.649l19.2,11.09a.856.856,0,0,0,.755,0l.42-.246a.823.823,0,0,0,.375-.649Z" transform="translate(-55.62 -236.132)" fill="#f5f5f5"/>
          <path id="Path_16469" data-name="Path 16469" d="M76.73,247.59l-1.069.615L55.82,236.746a.75.75,0,0,1,.263-.28l.425-.246a.839.839,0,0,1,.75,0l19.2,11.09a.761.761,0,0,1,.272.28Z" transform="translate(-55.708 -236.132)" fill="#e0e0e0"/>
          <path id="Path_16470" data-name="Path 16470" d="M91.13,285.32a.15.15,0,0,0,.073,0h0a.073.073,0,0,1-.073,0Z" transform="translate(-71.261 -257.797)" fill="#0761ce"/>
          <path id="Path_16471" data-name="Path 16471" d="M75.579,248.684l-.2.117a.325.325,0,0,1,.2.319v14.727a.252.252,0,0,1-.118.241.246.246,0,0,1-.179,0l-.078-.028L55.995,252.97a.822.822,0,0,1-.375-.649V237.6a.783.783,0,0,1,.112-.375Z" transform="translate(-55.62 -236.616)" fill="#ebebeb"/>
          <path id="Path_16472" data-name="Path 16472" d="M75.573,248.659l-8.891,3.324a1.449,1.449,0,0,1-1.718-.56l-1.427-2.188L55.659,237.16l7.593,12.148L55.62,252.3a.739.739,0,0,0,.118.375l7.537-3.329L64.953,252a1.449,1.449,0,0,0,1.813.56l1.181-.526,7.537,12.025a.257.257,0,0,0,.112-.246v-.246l-7.61-11.549Z" transform="translate(-55.62 -236.585)" opacity="0.2"/>
        </g>
        <path id="Path_16473" data-name="Path 16473" d="M78.59,226.867c-1.528-.8-3.553-.66-5.769.627a17.522,17.522,0,0,0-6.306,6.994,22.02,22.02,0,0,0-.985,2.121,17.844,17.844,0,0,0-1.371,6.53v12.433a1.617,1.617,0,0,1-.767-.185L41.3,242.618a1.718,1.718,0,0,1-.767-1.332V229.5c0-5.886,3.878-12.87,8.656-15.667,2.238-1.309,4.325-1.416,5.87-.56h0Z" transform="translate(-40.53 -208.889)" fill="#d72027"/>
        <path id="Path_16474" data-name="Path 16474" d="M78.59,226.867c-1.528-.8-3.553-.66-5.769.627a17.522,17.522,0,0,0-6.306,6.994,22.02,22.02,0,0,0-.985,2.121,17.844,17.844,0,0,0-1.371,6.53v12.433a1.617,1.617,0,0,1-.767-.185L41.3,242.618a1.718,1.718,0,0,1-.767-1.332V229.5c0-5.886,3.878-12.87,8.656-15.667,2.238-1.309,4.325-1.416,5.87-.56h0Z" transform="translate(-40.53 -208.889)" opacity="0.2"/>
        <path id="Path_16475" data-name="Path 16475" d="M41.3,253.1l22.1,12.786a1.617,1.617,0,0,0,.767.185V253.632a15.7,15.7,0,0,1,.414-3.475L40.938,236.51a15.975,15.975,0,0,0-.408,3.469v11.784a1.718,1.718,0,0,0,.767,1.332Z" transform="translate(-40.53 -219.366)" opacity="0.1"/>
        <path id="Path_16476" data-name="Path 16476" d="M83.911,248.247a17.844,17.844,0,0,0-1.371,6.53v12.416a1.53,1.53,0,0,1-.28-.034V254.776c0-9.126,7.022-14.929,8.953-15.667a17.523,17.523,0,0,0-6.306,6.994,22.014,22.014,0,0,0-1,2.143Z" transform="translate(-58.91 -220.511)" fill="#d72027"/>
        <path id="Path_16477" data-name="Path 16477" d="M83.911,248.247a17.844,17.844,0,0,0-1.371,6.53v12.416a1.53,1.53,0,0,1-.28-.034V254.776c0-9.126,7.022-14.929,8.953-15.667a17.523,17.523,0,0,0-6.306,6.994,22.014,22.014,0,0,0-1,2.143Z" transform="translate(-58.91 -220.511)" opacity="0.4"/>
        <path id="Path_16478" data-name="Path 16478" d="M83.848,264.913a.143.143,0,0,1-.229-.134V253.918a16.932,16.932,0,0,1,1.259-6.088l.05-.117a20.449,20.449,0,0,1,1.052-2.238,16.461,16.461,0,0,1,5.836-6.44,6.535,6.535,0,0,1,3.229-1,3.542,3.542,0,0,1,1.679.408c1.511.806,2.395,2.753,2.395,5.478v11.89a.515.515,0,0,1-.229.4l.347.823.078-.045a1.678,1.678,0,0,0,.319-.308h0A1.679,1.679,0,0,0,100,255.7V243.919c0-3.15-1.119-5.344-2.882-6.272-1.528-.806-3.553-.666-5.769.621a17.466,17.466,0,0,0-6.306,7,22.015,22.015,0,0,0-.985,2.115,17.827,17.827,0,0,0-1.371,6.535v12.405h.173a1.538,1.538,0,0,0,.638-.179Z" transform="translate(-59.1 -219.646)" fill="#d72027"/>
        <path id="Path_16479" data-name="Path 16479" d="M83.848,264.913a.143.143,0,0,1-.229-.134V253.918a16.932,16.932,0,0,1,1.259-6.088l.05-.117a20.449,20.449,0,0,1,1.052-2.238,16.461,16.461,0,0,1,5.836-6.44,6.535,6.535,0,0,1,3.229-1,3.542,3.542,0,0,1,1.679.408c1.511.806,2.395,2.753,2.395,5.478v11.89a.515.515,0,0,1-.229.4l.347.823.078-.045a1.678,1.678,0,0,0,.319-.308h0A1.679,1.679,0,0,0,100,255.7V243.919c0-3.15-1.119-5.344-2.882-6.272-1.528-.806-3.553-.666-5.769.621a17.466,17.466,0,0,0-6.306,7,22.015,22.015,0,0,0-.985,2.115,17.827,17.827,0,0,0-1.371,6.535v12.405h.173a1.538,1.538,0,0,0,.638-.179Z" transform="translate(-59.1 -219.646)" opacity="0.1"/>
      </g>
      <g id="freepik--Envelopes--inject-25" transform="translate(111.841 114.04)">
        <g id="freepik--letter--inject-25-4" data-name="freepik--letter--inject-25">
          <path id="Path_16480" data-name="Path 16480" d="M178.94,195.03a3.2,3.2,0,0,1,1.455-2.518l71.717-41.406a3.212,3.212,0,0,1,2.91,0l1.639.946a3.212,3.212,0,0,1,1.449,2.518v57.006a3.229,3.229,0,0,1-1.449,2.518l-71.722,41.434a3.234,3.234,0,0,1-2.9,0l-1.639-.946a3.229,3.229,0,0,1-1.455-2.518Z" transform="translate(-178.94 -150.753)" fill="#d72027"/>
          <path id="Path_16481" data-name="Path 16481" d="M178.94,195.03a3.2,3.2,0,0,1,1.455-2.518l71.717-41.406a3.212,3.212,0,0,1,2.91,0l1.639.946a3.212,3.212,0,0,1,1.449,2.518v57.006a3.229,3.229,0,0,1-1.449,2.518l-71.722,41.434a3.234,3.234,0,0,1-2.9,0l-1.639-.946a3.229,3.229,0,0,1-1.455-2.518Z" transform="translate(-178.939 -150.754)" fill="#fff" opacity="0.7"/>
          <path id="Path_16482" data-name="Path 16482" d="M179.7,193.594l4.124,2.378,74.2-42.844A3.044,3.044,0,0,0,257,152.043l-1.645-.94a3.156,3.156,0,0,0-2.9,0L180.73,192.509a2.921,2.921,0,0,0-1.03,1.086Z" transform="translate(-179.275 -150.75)" fill="#d72027"/>
          <path id="Path_16483" data-name="Path 16483" d="M179.7,193.594l4.124,2.378,74.2-42.844A3.044,3.044,0,0,0,257,152.043l-1.645-.94a3.156,3.156,0,0,0-2.9,0L180.73,192.509a2.921,2.921,0,0,0-1.03,1.086Z" transform="translate(-179.275 -150.75)" fill="#fff" opacity="0.8"/>
          <path id="Path_16484" data-name="Path 16484" d="M178.94,228.747v57.006a3.2,3.2,0,0,0,1.455,2.518l1.639.951a2.586,2.586,0,0,0,.4.179,3.231,3.231,0,0,0,.6.134,3.587,3.587,0,0,0,1.147-.039l.285-.073.179-.061a.868.868,0,0,1-.705-.028,1,1,0,0,1-.448-.951V231.377a1.27,1.27,0,0,1,.755-1.237l-.755-.442-4.124-2.378a2.96,2.96,0,0,0-.425,1.427Z" transform="translate(-178.94 -184.476)" fill="#0761ce" opacity="0.1"/>
          <path id="Path_16485" data-name="Path 16485" d="M178.94,228.747v57.006a3.2,3.2,0,0,0,1.455,2.518l1.639.951a2.586,2.586,0,0,0,.4.179,3.231,3.231,0,0,0,.6.134,3.587,3.587,0,0,0,1.147-.039l.285-.073.179-.061a.868.868,0,0,1-.705-.028,1,1,0,0,1-.448-.951V231.377a1.27,1.27,0,0,1,.755-1.237l-.755-.442-4.124-2.378a2.96,2.96,0,0,0-.425,1.427Z" transform="translate(-178.94 -184.476)" opacity="0.05"/>
          <path id="Path_16486" data-name="Path 16486" d="M187.056,197.844l34.44,12.87a5.6,5.6,0,0,0,6.647-2.188l5.528-8.477L261.251,155l-26.478,45.362,26.9,13.1a3.043,3.043,0,0,1-.453,1.455L234.69,200.5l-6.424,10.284a5.6,5.6,0,0,1-7.011,2.154l-4.583-2.02-29.18,46.56a1,1,0,0,1-.448-.951v-.951l29.482-44.719Z" transform="translate(-182.507 -152.622)" fill="#d72027" opacity="0.2"/>
          <path id="Path_16487" data-name="Path 16487" d="M187.056,197.844l34.44,12.87a5.6,5.6,0,0,0,6.647-2.188l5.528-8.477L261.251,155l-26.478,45.362,26.9,13.1a3.043,3.043,0,0,1-.453,1.455L234.69,200.5l-6.424,10.284a5.6,5.6,0,0,1-7.011,2.154l-4.583-2.02-29.18,46.56a1,1,0,0,1-.448-.951v-.951l29.482-44.719Z" transform="translate(-182.507 -152.622)" opacity="0.05"/>
        </g>
        <g id="freepik--letter--inject-25-5" data-name="freepik--letter--inject-25" transform="translate(18.169 10.512)">
          <path id="Path_16488" data-name="Path 16488" d="M211.427,213.81a3.212,3.212,0,0,1,1.449-2.518L284.6,169.886a3.2,3.2,0,0,1,2.9,0l1.639.946a3.212,3.212,0,0,1,1.455,2.518v57.006a3.223,3.223,0,0,1-1.455,2.518L217.425,274.28a3.246,3.246,0,0,1-2.91,0l-1.656-.968a3.24,3.24,0,0,1-1.449-2.518Z" transform="translate(-211.41 -169.537)" fill="#d72027"/>
          <path id="Path_16489" data-name="Path 16489" d="M211.427,213.81a3.212,3.212,0,0,1,1.449-2.518L284.6,169.886a3.2,3.2,0,0,1,2.9,0l1.639.946a3.212,3.212,0,0,1,1.455,2.518v57.006a3.223,3.223,0,0,1-1.455,2.518L217.425,274.28a3.246,3.246,0,0,1-2.91,0l-1.656-.968a3.24,3.24,0,0,1-1.449-2.518Z" transform="translate(-211.41 -169.537)" fill="#fff" opacity="0.5"/>
          <path id="Path_16490" data-name="Path 16490" d="M212.19,212.379l4.129,2.378,74.2-42.839a3.043,3.043,0,0,0-1.024-1.086l-1.645-.94a3.167,3.167,0,0,0-2.9,0l-71.739,41.4a2.932,2.932,0,0,0-1.013,1.086Z" transform="translate(-211.754 -169.539)" fill="#d72027"/>
          <path id="Path_16491" data-name="Path 16491" d="M212.19,212.379l4.129,2.378,74.2-42.839a3.043,3.043,0,0,0-1.024-1.086l-1.645-.94a3.167,3.167,0,0,0-2.9,0l-71.739,41.4a2.932,2.932,0,0,0-1.013,1.086Z" transform="translate(-211.754 -169.539)" fill="#fff" opacity="0.6"/>
          <path id="Path_16492" data-name="Path 16492" d="M211.43,247.527v57.006a3.2,3.2,0,0,0,1.438,2.5l1.634.951a2.652,2.652,0,0,0,.4.179,3.131,3.131,0,0,0,.6.134,3.593,3.593,0,0,0,1.147-.039l.28-.078a.923.923,0,0,0,.173-.067.867.867,0,0,1-.694,0,1.013,1.013,0,0,1-.448-.957v-57a1.27,1.27,0,0,1,.755-1.237l-.755-.442-4.129-2.378a3.021,3.021,0,0,0-.4,1.428Z" transform="translate(-211.419 -203.26)" opacity="0.1"/>
          <path id="Path_16493" data-name="Path 16493" d="M219.565,216.629l34.44,12.87a5.6,5.6,0,0,0,6.647-2.188l5.534-8.471,27.58-45.049-26.478,45.362,26.9,13.1a3.044,3.044,0,0,1-.453,1.455L267.2,219.287l-6.429,10.284a5.6,5.6,0,0,1-7.005,2.154l-4.577-2.02L220.014,276.27a1.013,1.013,0,0,1-.448-.957v-.951l29.482-44.719Z" transform="translate(-214.999 -171.411)" fill="#d72027" opacity="0.4"/>
          <path id="Path_16494" data-name="Path 16494" d="M219.565,216.629l34.44,12.87a5.6,5.6,0,0,0,6.647-2.188l5.534-8.471,27.58-45.049-26.478,45.362,26.9,13.1a3.044,3.044,0,0,1-.453,1.455L267.2,219.287l-6.429,10.284a5.6,5.6,0,0,1-7.005,2.154l-4.577-2.02L220.014,276.27a1.013,1.013,0,0,1-.448-.957v-.951l29.482-44.719Z" transform="translate(-214.999 -171.411)" opacity="0.05"/>
        </g>
      </g>
      <g id="freepik--open-envelope--inject-25" transform="translate(148.356 116.482)">
        <path id="Path_16495" data-name="Path 16495" d="M244.2,234.345l74.632-43.085,2.988,1.723a3.117,3.117,0,0,1,1.4,2.428V250.47a3.105,3.105,0,0,1-1.4,2.428L250,294.362a3.106,3.106,0,0,1-2.8,0l-1.584-.912a3.116,3.116,0,0,1-1.4-2.428Z" transform="translate(-244.2 -171.036)" fill="#d72027"/>
        <path id="Path_16496" data-name="Path 16496" d="M244.2,234.345l74.632-43.085,2.988,1.723a3.117,3.117,0,0,1,1.4,2.428V250.47a3.105,3.105,0,0,1-1.4,2.428L250,294.362a3.106,3.106,0,0,1-2.8,0l-1.584-.912a3.116,3.116,0,0,1-1.4-2.428Z" transform="translate(-244.2 -171.036)" opacity="0.2"/>
        <path id="Path_16497" data-name="Path 16497" d="M318.424,172.152l.3-.168-1.158-.671h0a1.712,1.712,0,0,0-.308-.145l-32.845-12.176a2.266,2.266,0,0,0-2.524.806l-36.74,53.655a6.345,6.345,0,0,0-.951,3.066v3.559l1.119.666,73.49-43.751v-3.564a2.406,2.406,0,0,0-.383-1.277Z" transform="translate(-244.2 -156.774)" fill="#d72027"/>
        <path id="Path_16498" data-name="Path 16498" d="M283.637,160.5a1.858,1.858,0,0,0-.38.4l-36.745,53.655a5.707,5.707,0,0,0-.683,1.533l-1.119-.66a7.339,7.339,0,0,1,.3-.811h0c.05-.112.1-.218.157-.325l.028-.05a2.918,2.918,0,0,1,.2-.325l36.74-53.655a1.788,1.788,0,0,1,.185-.224l.2-.179Z" transform="translate(-244.425 -157.205)" opacity="0.1"/>
        <path id="Path_16499" data-name="Path 16499" d="M348.7,171.98a1.79,1.79,0,0,0-.313-.151l-32.851-12.176a2.238,2.238,0,0,0-2.138.4l-1.119-.66a2.277,2.277,0,0,1,2.143-.4l32.845,12.17a1.742,1.742,0,0,1,.308.151Z" transform="translate(-274.186 -156.774)" fill="#fff" opacity="0.35"/>
        <path id="Path_16500" data-name="Path 16500" d="M245.55,256.745a3.556,3.556,0,0,1,.2-.325,3.553,3.553,0,0,0-.2.325Z" transform="translate(-244.795 -199.736)" fill="#0761ce"/>
        <path id="Path_16501" data-name="Path 16501" d="M311.89,159.979l.2-.179Z" transform="translate(-274.014 -157.179)" fill="#0761ce"/>
        <path id="Path_16502" data-name="Path 16502" d="M244.67,258.511a7.331,7.331,0,0,1,.3-.811,7.341,7.341,0,0,0-.3.811Z" transform="translate(-244.407 -200.299)" fill="#0761ce"/>
        <path id="Path_16503" data-name="Path 16503" d="M245.22,257.4c.05-.112.1-.218.157-.325C245.321,257.186,245.27,257.293,245.22,257.4Z" transform="translate(-244.649 -200.026)" fill="#0761ce"/>
        <path id="Path_16504" data-name="Path 16504" d="M245.2,257.7Z" transform="translate(-244.64 -200.299)" opacity="0.2"/>
        <path id="Path_16505" data-name="Path 16505" d="M244.67,259.15Z" transform="translate(-244.407 -200.938)" opacity="0.2"/>
        <path id="Path_16506" data-name="Path 16506" d="M312.24,159.8Z" transform="translate(-274.169 -157.179)" opacity="0.2"/>
        <path id="Path_16507" data-name="Path 16507" d="M245.5,257.04a.228.228,0,0,1,.028-.05.229.229,0,0,0-.028.05Z" transform="translate(-244.773 -199.987)" opacity="0.2"/>
        <path id="Path_16508" data-name="Path 16508" d="M311.56,160.344a2.31,2.31,0,0,1,.185-.224,1.454,1.454,0,0,0-.185.224Z" transform="translate(-273.869 -157.32)" opacity="0.2"/>
        <path id="Path_16509" data-name="Path 16509" d="M283.931,160.979l-36.745,53.655a6.4,6.4,0,0,0-.946,3.066v3.564l74.632-43.085V174.62a2.585,2.585,0,0,0-1.572-2.238l-32.851-12.2a2.238,2.238,0,0,0-2.518.8Z" transform="translate(-245.099 -157.294)" fill="#d72027"/>
        <path id="Path_16510" data-name="Path 16510" d="M320.876,185.073a2.434,2.434,0,0,0-.4-1.253L246.5,226.631h0a5.483,5.483,0,0,0-.257,1.522v3.564l74.632-43.085Z" transform="translate(-245.103 -167.759)" opacity="0.05"/>
        <path id="Path_16511" data-name="Path 16511" d="M322.03,157.289a.867.867,0,0,0-.347-.783l-2.283-1.315a.856.856,0,0,0-.856.09L257.33,190.638a2.675,2.675,0,0,0-1.214,2.1v73.3a.845.845,0,0,0,.353.783l2.272,1.315a.867.867,0,0,0,.856-.084l61.225-35.335a2.686,2.686,0,0,0,1.209-2.1Z" transform="translate(-249.446 -155.115)" fill="#f0f0f0"/>
        <path id="Path_16512" data-name="Path 16512" d="M261.4,269.109l61.22-35.363a2.686,2.686,0,0,0,1.209-2.1V158.319c0-.772-.56-1.086-1.209-.7L261.4,192.977a2.686,2.686,0,0,0-1.209,2.1v73.3C260.19,269.165,260.733,269.478,261.4,269.109Z" transform="translate(-251.243 -156.146)" fill="#fafafa"/>
        <path id="Path_16513" data-name="Path 16513" d="M318.741,223.915a10.774,10.774,0,0,1-.459,2.44,10.393,10.393,0,0,1-.884,2.048,7.829,7.829,0,0,1-1.153,1.567,4.919,4.919,0,0,1-1.281.979,2.686,2.686,0,0,1-1.763.425,1.572,1.572,0,0,1-.912-.56q-.2.437-.42.873a5.2,5.2,0,0,1-.56.878,5.276,5.276,0,0,1-.822.845,6.221,6.221,0,0,1-1.2.783,2.339,2.339,0,0,1-1.522.3,1.791,1.791,0,0,1-1.119-.789,4.607,4.607,0,0,1-.677-1.779,12.244,12.244,0,0,1-.151-2.675,17.282,17.282,0,0,1,.364-2.932,14.037,14.037,0,0,1,.8-2.535,8.4,8.4,0,0,1,1.2-1.992,4.9,4.9,0,0,1,1.55-1.287,1.807,1.807,0,0,1,1.388-.3,1.516,1.516,0,0,1,.716.666v-.3a1.68,1.68,0,0,1,.207-.727,1.164,1.164,0,0,1,.448-.5l1.2-.61a.336.336,0,0,1,.425.045.727.727,0,0,1,.162.56L314,226.456q-.034.806.3,1.058a.7.7,0,0,0,.8,0,2,2,0,0,0,.811-.862,4.175,4.175,0,0,0,.442-1.723c.056-.621.1-1.259.123-1.919s.028-1.27,0-1.83a11.086,11.086,0,0,0-.448-2.966,3.217,3.217,0,0,0-1.119-1.718,2.613,2.613,0,0,0-1.874-.408,8.3,8.3,0,0,0-2.731.934,9.57,9.57,0,0,0-2.417,1.779,12.7,12.7,0,0,0-1.88,2.473,15.2,15.2,0,0,0-1.309,2.994,18.009,18.009,0,0,0-.722,3.3c-.039.308-.073.7-.1,1.186s-.05.99-.073,1.516-.039,1.035-.05,1.528,0,.879,0,1.175a8.91,8.91,0,0,0,.481,2.652,3.855,3.855,0,0,0,1.119,1.712,2.674,2.674,0,0,0,1.757.615,5.158,5.158,0,0,0,2.367-.666,14.1,14.1,0,0,0,1.639-.974,11.054,11.054,0,0,0,1.225-.985,11.748,11.748,0,0,0,.906-.974c.252-.319.481-.627.688-.929s.313-.464.42-.593a1.12,1.12,0,0,1,.408-.325l1.679-.873a.364.364,0,0,1,.436,0,.673.673,0,0,1,.146.6,1.377,1.377,0,0,1-.179.56q-.511.948-1.153,2a15.233,15.233,0,0,1-1.511,2.059,17.1,17.1,0,0,1-2.065,1.975,15.731,15.731,0,0,1-2.8,1.791,7.072,7.072,0,0,1-3.486.946,3.816,3.816,0,0,1-2.473-1.007,5.825,5.825,0,0,1-1.505-2.552,12.92,12.92,0,0,1-.56-3.676v-1.242c0-.52.028-1.069.05-1.639s.05-1.119.078-1.634.056-.929.084-1.225a22.386,22.386,0,0,1,.862-4.376,21.212,21.212,0,0,1,1.779-4.253,18.242,18.242,0,0,1,2.686-3.693,12.812,12.812,0,0,1,3.564-2.7,9.11,9.11,0,0,1,3.945-1.2,3.715,3.715,0,0,1,2.591.912,5.2,5.2,0,0,1,1.427,2.6,16.6,16.6,0,0,1,.492,3.833c0,.56,0,1.237-.039,2.009S318.791,223.272,318.741,223.915Zm-10.508,4.1a4.476,4.476,0,0,0,.336,2.328.791.791,0,0,0,1.2.274,2.876,2.876,0,0,0,1.315-1.544,8.158,8.158,0,0,0,.526-2.8,4.723,4.723,0,0,0-.325-2.35c-.257-.47-.671-.56-1.237-.269a2.881,2.881,0,0,0-1.281,1.556,8.288,8.288,0,0,0-.537,2.781Z" transform="translate(-269.35 -180.336)" fill="#d72027"/>
        <path id="Path_16514" data-name="Path 16514" d="M258.388,296.051a.912.912,0,0,0,.285.739l-2.2-1.265a.845.845,0,0,1-.358-.783v-73.3a2.428,2.428,0,0,1,.358-1.192l2.272,1.309a2.445,2.445,0,0,0-.358,1.2Z" transform="translate(-249.446 -183.804)" fill="#e0e0e0"/>
        <path id="Path_16515" data-name="Path 16515" d="M324.324,289.82a.678.678,0,0,1-.078.112L293.141,280.1a5.361,5.361,0,0,0-6.715,2.07l-33.254,49.408-1.231.711h0a1,1,0,0,1-.951.106l34.194-50.919A5.383,5.383,0,0,1,291.9,279.4Z" transform="translate(-247.191 -209.657)" fill="#d72027"/>
        <path id="Path_16516" data-name="Path 16516" d="M283.36,292.739l.078-.067-30.266,44.652-1.231.711h0a1.019,1.019,0,0,1-.951.106L282.162,292Z" transform="translate(-247.191 -215.407)" fill="#fff" opacity="0.4"/>
        <path id="Path_16517" data-name="Path 16517" d="M351.249,289.811a.685.685,0,0,1-.078.112l-31.1-9.837a5.355,5.355,0,0,0-6.715,2.07l-1.231-.716a5.372,5.372,0,0,1,6.715-2.059Z" transform="translate(-274.116 -209.648)" fill="#fff" opacity="0.4"/>
        <path id="Path_16518" data-name="Path 16518" d="M327.218,195.61h0c-.067-.4-.28-.515-.56-.325a1.62,1.62,0,0,0-.358.369l-.157.218-30.691,46.655-4.583,6.384a2.613,2.613,0,0,1-2.524.946l-3.956-.94L254.174,237.8a1.54,1.54,0,0,0-.615,0,1.119,1.119,0,0,0-.229.073l1.119-.66L283.4,247.849l3.81,1.36a2.6,2.6,0,0,0,2.523-.946l4.583-6.379,30.842-46.873a1.229,1.229,0,0,1,.347-.319l-2.669-1.539,1.119-.643,1.846,1.063a3.2,3.2,0,0,1,1.417,2.037Z" transform="translate(-248.221 -171.586)" fill="#d72027"/>
        <path id="Path_16519" data-name="Path 16519" d="M319.9,281.411l-4.583,6.384a2.613,2.613,0,0,1-2.524.946l-3.956-.94.078-.067.19-.3,2.591.616a2.6,2.6,0,0,0,2.524-.946l4.538-6.312Z" transform="translate(-272.671 -210.47)" fill="#fff" opacity="0.4"/>
        <path id="Path_16520" data-name="Path 16520" d="M358.1,193.483l-1.847-1.063-1.119.643L357.8,194.6h0a1.175,1.175,0,0,0-.347.319l-30.842,46.873-.045.062h0l1.119.621,30.691-46.66.157-.218a1.617,1.617,0,0,1,.358-.369c.274-.19.487-.078.56.325h0a3.2,3.2,0,0,0-1.354-2.07Z" transform="translate(-280.48 -171.546)" opacity="0.1"/>
        <path id="Path_16521" data-name="Path 16521" d="M250.816,272.059l-6.586-3.8v56.676a3.117,3.117,0,0,0,1.4,2.428l1.584.912a3.1,3.1,0,0,0,2.8,0l.789-.453Z" transform="translate(-244.213 -204.951)" fill="#d72027"/>
        <path id="Path_16522" data-name="Path 16522" d="M250.816,272.059l-6.586-3.8v56.676a3.117,3.117,0,0,0,1.4,2.428l1.584.912a3.1,3.1,0,0,0,2.8,0l.789-.453Z" transform="translate(-244.213 -204.951)" opacity="0.15"/>
        <path id="Path_16523" data-name="Path 16523" d="M326.7,198.072v55.054a2.859,2.859,0,0,1-.436,1.421,3.067,3.067,0,0,1-.822.923l-.056.028a.866.866,0,0,1-.09.062l-71.823,41.462h0a1,1,0,0,1-.957.112.85.85,0,0,1-.42-.672,1.8,1.8,0,0,1,0-.252V241.151a1.22,1.22,0,0,1,1.578-1.242l30.215,11.113,3.956.94a2.613,2.613,0,0,0,2.524-.946l4.583-6.384,30.691-46.655.157-.218C326.275,197.042,326.7,197.177,326.7,198.072Z" transform="translate(-247.676 -173.696)" fill="#d72027"/>
        <path id="Path_16524" data-name="Path 16524" d="M359,292.827l.1-.062.05-.034a2.976,2.976,0,0,0,.822-.918,2.859,2.859,0,0,0,.436-1.4l-31.788-8.5,21.263,16.165Z" transform="translate(-281.383 -210.963)" fill="#d72027"/>
        <path id="Path_16525" data-name="Path 16525" d="M359,292.827l.1-.062.05-.034a2.976,2.976,0,0,0,.822-.918,2.859,2.859,0,0,0,.436-1.4l-31.788-8.5,21.263,16.165Z" transform="translate(-281.383 -210.963)" opacity="0.2"/>
        <path id="Path_16526" data-name="Path 16526" d="M252.045,338.5a.968.968,0,0,0,.436.923,1,1,0,0,0,.957-.106h0l24.737-14.285,5.651-31.721-31.782,44.271Z" transform="translate(-247.653 -215.984)" fill="#d72027"/>
        <path id="Path_16527" data-name="Path 16527" d="M286.871,284.111l-34.39,50.963a.968.968,0,0,1-.436-.923v-.912l33.573-49.8h0Z" transform="translate(-247.653 -211.637)" opacity="0.15"/>
        <path id="Path_16528" data-name="Path 16528" d="M326.6,291.011a2.975,2.975,0,0,1-.823.918l-.05.034-71.918,41.524h0a1,1,0,0,1-.957.106l34.4-50.969A5.4,5.4,0,0,1,294,280.547Z" transform="translate(-248.01 -210.16)" fill="#d72027"/>
        <path id="Path_16529" data-name="Path 16529" d="M244.463,259.15l1.119.66a5.6,5.6,0,0,0-.263,1.533V264.9l-1.119-.66v-3.564a5.6,5.6,0,0,1,.263-1.526Z" transform="translate(-244.2 -200.938)" opacity="0.15"/>
        <path id="Path_16530" data-name="Path 16530" d="M251.361,270.564l-1.141.66-1.153-.666-2.837-1.634,1.1-.655Z" transform="translate(-245.094 -204.955)" fill="#d72027"/>
        <path id="Path_16531" data-name="Path 16531" d="M251.4,270.587l-4.079-2.317-1.119.655,2.837,1.634,1.153.666h0l.218-.067a1.539,1.539,0,0,1,.616,0l2.339.878,26.36,9.708.414-.61Z" transform="translate(-245.081 -204.955)" opacity="0.1"/>
      </g>
      <g id="freepik--Clouds--inject-25" transform="translate(41.456 69.887)">
        <path id="Path_16532" data-name="Path 16532" d="M125.312,100.243l-4.264,2.462a4.858,4.858,0,0,0,.034-.56v-1.231c0-2.2-1.544-3.089-3.447-1.992a6.8,6.8,0,0,0-2.054,1.975c-.308-2.764-2.479-3.794-5.114-2.272a11.412,11.412,0,0,0-5.153,8.953v1.846a4.885,4.885,0,0,0,.436,2.143l-3.542,2.042a4.236,4.236,0,0,0-1.908,3.313c0,1.22.856,1.712,1.908,1.119l23.1-13.362a4.225,4.225,0,0,0,1.908-3.307C127.236,100.131,126.38,99.644,125.312,100.243Z" transform="translate(-73.918 -83.326)" fill="#f0f0f0"/>
        <path id="Path_16533" data-name="Path 16533" d="M83.919,74.725,78.67,77.752a5.853,5.853,0,0,0,.045-.694V75.514c0-2.7-1.9-3.8-4.241-2.445A8.253,8.253,0,0,0,71.945,75.5c-.38-3.4-3.049-4.667-6.3-2.8A14.039,14.039,0,0,0,59.3,83.678V85.95a6,6,0,0,0,.56,2.635L55.506,91.1a5.2,5.2,0,0,0-2.356,4.073c0,1.505,1.058,2.109,2.356,1.36L83.942,80.119A5.187,5.187,0,0,0,86.3,76.046C86.275,74.557,85.223,73.953,83.919,74.725Z" transform="translate(-53.15 -71.836)" fill="#f0f0f0"/>
      </g>
      <g id="freepik--paper-plane--inject-25" transform="translate(210.328 73.477)">
        <path id="Path_16534" data-name="Path 16534" d="M404.96,154.744l19.791-12.674,8.723,2.8Z" transform="translate(-376.979 -106.36)" fill="#d72027"/>
        <path id="Path_16535" data-name="Path 16535" d="M404.96,150.035l17.105-14.268-3.8-4.387Z" transform="translate(-376.979 -101.651)" fill="#d72027"/>
        <path id="Path_16536" data-name="Path 16536" d="M422.065,139.22v3.312L404.96,153.488Z" transform="translate(-376.979 -105.105)" fill="#d72027"/>
        <path id="Path_16537" data-name="Path 16537" d="M422.065,139.22v3.312L404.96,153.488Z" transform="translate(-376.979 -105.105)" opacity="0.25"/>
        <path id="Path_16538" data-name="Path 16538" d="M402.894,112.091a.42.42,0,0,1-.285-.727,14.583,14.583,0,0,0,1.617-1.763.42.42,0,1,1,.666.509,15.445,15.445,0,0,1-1.712,1.869.436.436,0,0,1-.286.112Zm3.15-4.18a.4.4,0,0,1-.19-.045.414.414,0,0,1-.185-.56,14.281,14.281,0,0,0,1.119-3.061.421.421,0,1,1,.817.2,14.763,14.763,0,0,1-1.175,3.24A.42.42,0,0,1,406.044,107.911ZM407.577,102h0a.42.42,0,0,1-.4-.436c0-.229,0-.453,0-.677a15.44,15.44,0,0,0-.218-2.58.42.42,0,0,1,.341-.487.425.425,0,0,1,.487.347,16.513,16.513,0,0,1,.229,2.719v.711a.42.42,0,0,1-.436.4Zm-.9-6.049a.42.42,0,0,1-.4-.285,17.978,17.978,0,0,0-1.36-2.977.431.431,0,0,1,.157-.56.425.425,0,0,1,.56.157,18.551,18.551,0,0,1,1.416,3.122.42.42,0,0,1-.257.56.559.559,0,0,1-.123-.017Zm-2.943-5.377a.42.42,0,0,1-.33-.162,21.43,21.43,0,0,0-2.2-2.44.42.42,0,1,1,.56-.61,22.622,22.622,0,0,1,2.294,2.535.42.42,0,0,1-.078.56.414.414,0,0,1-.246.118Zm-4.381-4.3a.414.414,0,0,1-.252-.084,27.029,27.029,0,0,0-2.759-1.819.425.425,0,0,1-.151-.56.414.414,0,0,1,.56-.151,27.761,27.761,0,0,1,2.843,1.874.42.42,0,0,1-.252.755Zm-43.975-1.623a.42.42,0,0,1-.213-.783c.974-.56,1.981-1.086,3-1.572a.42.42,0,0,1,.56.2.414.414,0,0,1-.2.56c-1,.476-1.992.99-2.943,1.539a.414.414,0,0,1-.213.056Zm38.7-1.5a.4.4,0,0,1-.179-.039c-1-.481-2.02-.923-3.05-1.321a.431.431,0,1,1,.319-.8c1.046.4,2.093.856,3.111,1.349a.42.42,0,0,1-.185.795Zm-33.164-1.119a.431.431,0,0,1-.392-.269.42.42,0,0,1,.241-.56c1.046-.408,2.126-.783,3.206-1.119a.421.421,0,0,1,.241.806c-1.058.313-2.115.683-3.139,1.08a.4.4,0,0,1-.157.028Zm27.418-1.119a.319.319,0,0,1-.123,0c-1.052-.319-2.132-.6-3.212-.834a.434.434,0,0,1,.2-.845c1.119.241,2.2.526,3.279.856a.42.42,0,0,1,.28.526.425.425,0,0,1-.4.3Zm-21.542-.733a.42.42,0,0,1-.408-.325.425.425,0,0,1,.319-.5c1.091-.252,2.21-.464,3.329-.627a.42.42,0,1,1,.123.828c-1.119.162-2.193.369-3.268.621Zm15.567-.643h-.062c-1.091-.162-2.2-.28-3.307-.353a.42.42,0,1,1,.056-.834q1.679.109,3.357.353a.42.42,0,0,1-.062.834Zm-9.467-.3a.42.42,0,1,1-.034-.839c1.119-.09,2.266-.14,3.391-.14h0a.42.42,0,1,1,0,.839c-1.119,0-2.238.05-3.324.14Z" transform="translate(-354.954 -78.25)" fill="#e0e0e0"/>
      </g>
    </g>
  </g>
</svg>
