<svg xmlns="http://www.w3.org/2000/svg" xmlns:xlink="http://www.w3.org/1999/xlink" width="550" height="310" viewBox="0 0 550 310">
  <defs>
    <radialGradient id="radial-gradient" cx="0.5" cy="0.5" r="1.176" gradientTransform="translate(0.167 0.109) scale(0.667 0.783)" gradientUnits="objectBoundingBox">
      <stop offset="0" stop-color="#fff"/>
      <stop offset="0.279" stop-color="#fff"/>
      <stop offset="0.437" stop-color="#fffcfd"/>
      <stop offset="0.612" stop-color="#f7edee"/>
      <stop offset="0.795" stop-color="#f2e4e4"/>
      <stop offset="0.982" stop-color="#f2d5d6"/>
      <stop offset="1" stop-color="#edcccd"/>
    </radialGradient>
  </defs>
  <g id="banner" transform="translate(-1165 -139)">
    <path id="multiply" d="M6,0H544a6,6,0,0,1,6,6V310H0V6A6,6,0,0,1,6,0Z" transform="translate(1165 139)" fill="url(#radial-gradient)"/>
    <g id="select-user-illustration" transform="translate(1299.13 140.916)">
      <ellipse id="freepik--floor--inject-23" cx="114" cy="65.928" rx="114" ry="65.928" transform="translate(26.87 136.228)" fill="#f7fbff"/>
      <g id="freepik--clouds--inject-23" transform="translate(50.325 47.385)">
        <path id="Path_16295" data-name="Path 16295" d="M100.748,56.74l-4.8,2.767a4.69,4.69,0,0,0,.041-.632V57.483c0-2.477-1.74-3.481-3.875-2.239a7.437,7.437,0,0,0-2.32,2.222c-.348-3.109-2.79-4.269-5.755-2.558a12.865,12.865,0,0,0-5.8,10.053v2.083a5.482,5.482,0,0,0,.493,2.407l-3.985,2.32A4.751,4.751,0,0,0,72.595,75.5c0,1.375.963,1.932,2.152,1.247l26-15.036a4.751,4.751,0,0,0,2.152-3.724C102.9,56.607,101.937,56.05,100.748,56.74Z" transform="translate(-72.59 -54.116)" fill="#ebebeb"/>
        <path id="Path_16296" data-name="Path 16296" d="M141.149,81.312l-3.62,2.088a4.365,4.365,0,0,0,.029-.476v-1.05c0-1.868-1.311-2.622-2.929-1.688a5.609,5.609,0,0,0-1.74,1.676c-.267-2.32-2.112-3.225-4.345-1.932a9.688,9.688,0,0,0-4.385,7.588V89.09a4.211,4.211,0,0,0,.371,1.816l-3,1.74a3.6,3.6,0,0,0-1.63,2.814c0,1.038.725,1.456,1.624.94l19.624-11.329a3.6,3.6,0,0,0,1.624-2.813C142.773,81.213,142.048,80.8,141.149,81.312Z" transform="translate(-92.456 -64.707)" fill="#ebebeb"/>
      </g>
      <g id="freepik--plants--inject-23" transform="translate(44.3 186.321)">
        <path id="Path_16297" data-name="Path 16297" d="M90.481,347.261l5.992-3.481s1.468-12.826.487-22.757c-1.369-13.957-10.384-30.745-21.139-26.806s4.925,18.192,8.406,30.02S90.481,347.261,90.481,347.261Z" transform="translate(-66.364 -293.634)" fill="#d72027"/>
        <path id="Path_16298" data-name="Path 16298" d="M90.481,347.261l5.992-3.481s1.468-12.826.487-22.757c-1.369-13.957-10.384-30.745-21.139-26.806s4.925,18.192,8.406,30.02S90.481,347.261,90.481,347.261Z" transform="translate(-66.364 -293.634)" opacity="0.2"/>
        <path id="Path_16299" data-name="Path 16299" d="M98.329,348.975h0a.36.36,0,0,1-.348-.371c1.05-31.017-14.386-46.616-14.543-46.767a.365.365,0,1,1,.51-.516c.157.151,15.819,15.982,14.758,47.306a.36.36,0,0,1-.377.348Z" transform="translate(-71.062 -296.804)" fill="#fff"/>
        <path id="Path_16300" data-name="Path 16300" d="M83.126,363.148l4.264-2.46a47.029,47.029,0,0,0-3.591-19.5c-3.759-9.281-13.075-17.026-17.762-15.407s-4.577,4.948-2.32,8.435S79.941,346.018,83.126,363.148Z" transform="translate(-62.205 -307.044)" fill="#d72027"/>
        <path id="Path_16301" data-name="Path 16301" d="M88.4,364.138h0a.365.365,0,0,1-.365-.365c.087-19.607-18.325-32.862-18.511-33a.36.36,0,0,1,.418-.58c.186.133,18.9,13.609,18.818,33.593a.36.36,0,0,1-.36.348Z" transform="translate(-65.229 -308.968)" fill="#fff"/>
      </g>
      <g id="freepik--device--inject-23" transform="translate(64.588 38.084)">
        <path id="Path_16302" data-name="Path 16302" d="M256.9,312.291l-37.126,21.463-.087-.046-14.125-8.162a7.617,7.617,0,0,1-3.423-7.5l5.221-27.218,37.13-21.463-5.221,27.218a7.617,7.617,0,0,0,3.423,7.495Z" transform="translate(-141.478 -135.209)" fill="#37474f"/>
        <path id="Path_16303" data-name="Path 16303" d="M207.468,291.98l-5.2,26.98L239.4,297.526l4.8-24.956-2.344-.47Z" transform="translate(-141.563 -136.355)" fill="#263238"/>
        <path id="Path_16304" data-name="Path 16304" d="M214.672,346.694l-14.206-8.2A7.628,7.628,0,0,1,197.043,331l5.221-27.218-6.19-3.579-5.987,31.139a11.483,11.483,0,0,0,5.163,11.3l19.4,11.2Z" transform="translate(-136.382 -148.155)" fill="#263238"/>
        <path id="Path_16305" data-name="Path 16305" d="M269.717,343.36,232.58,364.818v7.152l37.137-21.458Z" transform="translate(-154.291 -166.278)" fill="#455a64"/>
        <path id="Path_16306" data-name="Path 16306" d="M249.394,38.8a7.063,7.063,0,0,1,3.092,5.6V158.354a7.292,7.292,0,0,1-3.3,5.714L107.139,246.085A6.2,6.2,0,0,1,97.66,240.6V126.642a7.309,7.309,0,0,1,3.3-5.72L243,38.911a7.056,7.056,0,0,1,6.394-.111Z" transform="translate(-97.637 -38.084)" fill="#455a64"/>
        <path id="Path_16307" data-name="Path 16307" d="M106.727,308.038a6.18,6.18,0,0,1-9.107-5.679V188.394a6.77,6.77,0,0,1,.969-3.254l6.213,3.579a6.735,6.735,0,0,0-.969,3.249V305.932C103.815,307.887,105.086,308.763,106.727,308.038Z" transform="translate(-97.62 -99.84)" fill="#263238"/>
        <path id="Path_16308" data-name="Path 16308" d="M256.958,161.231V47.293c0-2.106-1.473-2.958-3.3-1.908L111.611,127.378a7.291,7.291,0,0,0-3.3,5.714V247.053c0,2.106,1.479,2.958,3.3,1.908l142.047-82.017a7.291,7.291,0,0,0,3.3-5.714Z" transform="translate(-102.109 -40.961)" fill="#37474f"/>
        <path id="Path_16309" data-name="Path 16309" d="M251.945,55.44,116.279,133.807a5.835,5.835,0,0,0-2.639,4.571V239.561c0,1.682,1.16,2.367,2.639,1.526l135.672-78.368a5.835,5.835,0,0,0,2.639-4.571V56.965C254.591,55.283,253.407,54.6,251.945,55.44Z" transform="translate(-104.347 -45.221)" fill="#d72027"/>
        <path id="Path_16310" data-name="Path 16310" d="M251.945,55.44,116.279,133.807a5.835,5.835,0,0,0-2.639,4.571V239.561c0,1.682,1.16,2.367,2.639,1.526l135.672-78.368a5.835,5.835,0,0,0,2.639-4.571V56.965C254.591,55.283,253.407,54.6,251.945,55.44Z" transform="translate(-104.347 -45.221)" fill="#fff" opacity="0.8"/>
        <g id="freepik--Window--inject-23" transform="translate(17.525 22.376)">
          <path id="Path_16311" data-name="Path 16311" d="M129.47,243.357c-.719,0-1.16-.58-1.16-1.572V161.654L252.229,90.12v79.794a5.447,5.447,0,0,1-2.454,4.246l-119.29,68.877a2.077,2.077,0,0,1-1.015.319Z" transform="translate(-128.032 -82.311)" fill="#f5f5f5"/>
          <path id="Path_16312" data-name="Path 16312" d="M251.737,90.265v79.3a5.168,5.168,0,0,1-2.32,4l-119.278,68.86a1.827,1.827,0,0,1-.87.278c-.777,0-.859-.893-.859-1.282V161.457L251.737,90.265m.58-1L127.83,161.132V241.42c0,1.16.58,1.862,1.439,1.862a2.321,2.321,0,0,0,1.16-.36l119.284-68.866a5.748,5.748,0,0,0,2.6-4.507V89.25Z" transform="translate(-127.83 -81.945)" fill="#e0e0e0"/>
          <path id="Path_16313" data-name="Path 16313" d="M127.83,161.123v11.271l124.488-71.873V89.25Z" transform="translate(-127.83 -81.945)" fill="#d72027"/>
          <path id="Path_16314" data-name="Path 16314" d="M262.48,126.036v2.425c0,.493.354.7.783.452l38.286-22.1V102.6l-38.286,22.1a1.74,1.74,0,0,0-.783,1.336Z" transform="translate(-184.371 -87.551)" fill="#fafafa"/>
          <path id="Path_16315" data-name="Path 16315" d="M333.911,98.443c.429-.249.777-.046.777.452v2.425a1.74,1.74,0,0,1-.777,1.352l-4.1,2.367V100.81Z" transform="translate(-212.643 -85.761)" fill="#455a64"/>
          <path id="Path_16316" data-name="Path 16316" d="M334.624,102.956l-.452-.139a2.577,2.577,0,0,0,.07-.58,1.073,1.073,0,0,0-.418-.975.644.644,0,0,0-.667,0,2.32,2.32,0,0,0-.911,1.9,1.085,1.085,0,0,0,.418.98.58.58,0,0,0,.29.075.737.737,0,0,0,.377-.11,1.92,1.92,0,0,0,.737-.986l.458.139h.052a.174.174,0,0,0,.162-.122.18.18,0,0,0-.116-.186Zm-1.468.882a.319.319,0,0,1-.325,0,.8.8,0,0,1-.249-.685,2.03,2.03,0,0,1,.748-1.607.412.412,0,0,1,.2-.064.267.267,0,0,1,.122,0,.812.812,0,0,1,.249.685,2.054,2.054,0,0,1-.745,1.671Z" transform="translate(-213.663 -86.95)" fill="#fafafa"/>
          <path id="Path_16317" data-name="Path 16317" d="M127.83,150.389a5.743,5.743,0,0,1,2.6-4.507L249.713,77.013c1.439-.83,2.6-.157,2.6,1.5V83.96L127.83,155.836Z" transform="translate(-127.83 -76.658)" fill="#37474f"/>
          <path id="Path_16318" data-name="Path 16318" d="M316.3,93.981a2.7,2.7,0,0,0-1.218,2.112c0,.783.545,1.1,1.218.708a2.686,2.686,0,0,0,1.224-2.117C317.522,93.923,316.977,93.593,316.3,93.981Z" transform="translate(-206.458 -83.863)" fill="#d72027"/>
          <path id="Path_16319" data-name="Path 16319" d="M323.664,89.739a2.686,2.686,0,0,0-1.224,2.112c0,.777.545,1.1,1.224.708a2.7,2.7,0,0,0,1.218-2.117C324.882,89.664,324.337,89.351,323.664,89.739Z" transform="translate(-209.548 -82.081)" fill="#d72027"/>
          <path id="Path_16320" data-name="Path 16320" d="M331.028,85.508a2.7,2.7,0,0,0-1.218,2.112c0,.777.545,1.1,1.218.708a2.7,2.7,0,0,0,1.218-2.117C332.241,85.433,331.7,85.149,331.028,85.508Z" transform="translate(-212.643 -80.309)" fill="#d72027"/>
        </g>
        <g id="Group_9061" data-name="Group 9061">
          <path id="Path_16325" data-name="Path 16325" d="M269.42,182.952l15.332-8.852c.975-.58,1.74-.11,1.74,1.015v17.7a3.887,3.887,0,0,1-1.74,3.045l-15.332,8.852c-.969.58-1.74.1-1.74-1.015V186a3.887,3.887,0,0,1,1.74-3.048Z" transform="translate(-169.03 -95.096)" fill="#d72027"/>
          <path id="Path_16326" data-name="Path 16326" d="M269.42,182.952l15.332-8.852c.975-.58,1.74-.11,1.74,1.015v17.7a3.887,3.887,0,0,1-1.74,3.045l-15.332,8.852c-.969.58-1.74.1-1.74-1.015V186a3.887,3.887,0,0,1,1.74-3.048Z" transform="translate(-169.03 -95.096)" opacity="0.2"/>
          <path id="Path_16327" data-name="Path 16327" d="M277.029,223.557l9.281-5.348c.69-.4,1.253-.116,1.253.632a2.7,2.7,0,0,1-1.253,2.088l-9.281,5.348c-.7.4-1.259.116-1.259-.632a2.692,2.692,0,0,1,1.259-2.088Z" transform="translate(-172.427 -113.646)" fill="#455a64"/>
          <path id="Path_16328" data-name="Path 16328" d="M281.541,188.128c1.63-.94,2.947-.18,2.947,1.7a6.491,6.491,0,0,1-2.947,5.1c-1.624.94-2.941.18-2.941-1.7A6.514,6.514,0,0,1,281.541,188.128Z" transform="translate(-173.615 -100.922)" fill="#fafafa"/>
          <path id="Path_16329" data-name="Path 16329" d="M285.467,203.164c0-3.08-2.17-4.455-4.838-2.9l-1.671.969a10.681,10.681,0,0,0-4.838,8.377v.83l11.347-6.538Z" transform="translate(-171.734 -105.918)" fill="#fafafa"/>
        </g>
        <g id="Group_9062" data-name="Group 9062">
          <path id="Path_16321" data-name="Path 16321" d="M220.65,211.132l15.338-8.852c.969-.58,1.74-.11,1.74,1.015V221a3.9,3.9,0,0,1-1.74,3.045L220.65,232.9c-.969.58-1.74.1-1.74-1.015V214.2A3.881,3.881,0,0,1,220.65,211.132Z" transform="translate(-148.551 -106.93)" fill="#d72027"/>
          <path id="Path_16322" data-name="Path 16322" d="M228.259,251.735l9.281-5.348c.7-.406,1.253-.116,1.253.632a2.709,2.709,0,0,1-1.253,2.088l-9.281,5.348c-.7.4-1.259.116-1.259-.632a2.692,2.692,0,0,1,1.259-2.088Z" transform="translate(-151.948 -125.479)" fill="#455a64"/>
          <path id="Path_16323" data-name="Path 16323" d="M232.771,216.308c1.63-.94,2.947-.18,2.947,1.7a6.5,6.5,0,0,1-2.947,5.1c-1.624.94-2.941.18-2.941-1.7A6.509,6.509,0,0,1,232.771,216.308Z" transform="translate(-153.136 -112.756)" fill="#fafafa"/>
          <path id="Path_16324" data-name="Path 16324" d="M236.7,231.344c0-3.08-2.17-4.455-4.838-2.9l-1.671.969a10.681,10.681,0,0,0-4.838,8.377v.83l11.347-6.543Z" transform="translate(-151.255 -117.75)" fill="#fafafa"/>
        </g>
        <g id="Group_9063" data-name="Group 9063">
          <path id="Path_16330" data-name="Path 16330" d="M171.93,239.242l15.338-8.852c.969-.58,1.74-.1,1.74,1.015v17.7a3.881,3.881,0,0,1-1.74,3.045L171.93,261c-.969.58-1.74.11-1.74-1.015v-17.7a3.9,3.9,0,0,1,1.74-3.046Z" transform="translate(-128.093 -118.734)" fill="#d72027"/>
          <path id="Path_16331" data-name="Path 16331" d="M171.93,239.242l15.338-8.852c.969-.58,1.74-.1,1.74,1.015v17.7a3.881,3.881,0,0,1-1.74,3.045L171.93,261c-.969.58-1.74.11-1.74-1.015v-17.7a3.9,3.9,0,0,1,1.74-3.046Z" transform="translate(-128.093 -118.734)" fill="#fff" opacity="0.5"/>
          <path id="Path_16332" data-name="Path 16332" d="M179.539,279.847l9.281-5.348c.7-.4,1.253-.116,1.253.632a2.7,2.7,0,0,1-1.253,2.088l-9.281,5.348c-.7.4-1.259.116-1.259-.632a2.692,2.692,0,0,1,1.259-2.088Z" transform="translate(-131.49 -137.285)" fill="#455a64"/>
          <path id="Path_16333" data-name="Path 16333" d="M184.051,244.419c1.63-.94,2.947-.174,2.947,1.7a6.509,6.509,0,0,1-2.947,5.1c-1.624.934-2.941.174-2.941-1.705a6.514,6.514,0,0,1,2.941-5.1Z" transform="translate(-132.678 -124.561)" fill="#fafafa"/>
          <path id="Path_16334" data-name="Path 16334" d="M187.989,259.434c0-3.086-2.17-4.455-4.838-2.9l-1.653.969a10.692,10.692,0,0,0-4.838,8.382v.83l11.347-6.549Z" transform="translate(-130.81 -129.545)" fill="#fafafa"/>
        </g>
      </g>
    </g>
  </g>
</svg>
