<svg xmlns="http://www.w3.org/2000/svg" width="19" height="19" viewBox="0 0 19 19">
  <path id="bullet-icon" d="M-10841-721.5a9.511,9.511,0,0,1,9.5-9.5,9.511,9.511,0,0,1,9.5,9.5,9.511,9.511,0,0,1-9.5,9.5A9.511,9.511,0,0,1-10841-721.5Zm1.212,0a8.3,8.3,0,0,0,8.288,8.288,8.3,8.3,0,0,0,8.288-8.288,8.3,8.3,0,0,0-8.289-8.287,8.3,8.3,0,0,0-8.3,8.285Zm6.4,3.261-3.289-3.123.988-.94,2.795,2.655,5.592-5.308.987.938-6.086,5.778a.719.719,0,0,1-.493.2.715.715,0,0,1-.507-.2Z" transform="translate(10841 731)" fill="#d72027"/>
</svg>
