<svg xmlns="http://www.w3.org/2000/svg" width="215" height="238.004" viewBox="0 0 215 238.004">
  <g id="Business_decisions-pana" data-name="Business decisions-pana" transform="translate(-37.86 -13.52)">
    <g id="freepik--Character--inject-2" transform="translate(108.445 53.89)">
      <path id="Path_17584" data-name="Path 17584" d="M285.228,218.79a2.928,2.928,0,0,1-.544.04l-1.546.03-5.7.06-18.8.05h-1.5v-.18c0-7.022.04-13.316.055-17.9.025-2.249.04-4.075.055-5.381,0-.6.025-1.092.035-1.456a2.375,2.375,0,0,1,.035-.5,3.361,3.361,0,0,1,.03.5c0,.364,0,.853.035,1.456,0,1.307.03,3.132.055,5.381,0,4.588.035,10.882.055,17.9l-.175-.175h1.337l18.8.05,5.7.06,1.546.03a4.265,4.265,0,0,1,.527.035Z" transform="translate(-218.374 -144.085)" fill="#fff"/>
      <path id="Path_17585" data-name="Path 17585" d="M284.9,205.82a6.916,6.916,0,0,1-.833.793l-2.354,2.07c-1.995,1.736-4.783,4.119-7.87,6.728l-.464.4-.12.1-.115-.11-3.491-3.247h.219l-5.137,4.234-1.5,1.192a3.386,3.386,0,0,1-.559.4,3.492,3.492,0,0,1,.5-.5l1.431-1.267,5.052-4.334.11-.1.11.1,3.516,3.232h-.234l.464-.394c3.087-2.613,5.895-4.962,7.935-6.648l2.429-1.995a7.069,7.069,0,0,1,.911-.659Z" transform="translate(-221.151 -150.236)" fill="#fff"/>
      <path id="Path_17586" data-name="Path 17586" d="M300.608,211.354a9.019,9.019,0,0,1-.12-1.741c-.03-1.082-.055-2.578-.055-4.249l.175.18h-.3c-1.736,0-3.312,0-4.449-.055a9.262,9.262,0,0,1-1.84-.125,9.261,9.261,0,0,1,1.84-.125c1.137-.03,2.713-.05,4.449-.05h.5v.175c0,1.671,0,3.167-.055,4.249a8.277,8.277,0,0,1-.145,1.741Z" transform="translate(-236.861 -149.92)" fill="#fff"/>
      <path id="Path_17587" data-name="Path 17587" d="M227.9,456.833l1.212,10.054s-9.785,4.394-9.74,6.279l19.55-1.436L237.673,456Z" transform="translate(-199.441 -275.646)" fill="#d72027"/>
      <path id="Path_17588" data-name="Path 17588" d="M249.737,475.2a.813.813,0,0,1,.633.873.773.773,0,0,1-.858.638.853.853,0,0,1-.668-.928.808.808,0,0,1,.968-.564" transform="translate(-214.213 -285.267)" fill="#e0e0e0"/>
      <path id="Path_17589" data-name="Path 17589" d="M238.825,486.277l-.1-1.257-18.952,1.78a1.5,1.5,0,0,0-.593,1.027Z" transform="translate(-199.346 -290.193)" fill="#263238"/>
      <path id="Path_17590" data-name="Path 17590" d="M238.549,477.879c0,.1.5.1,1,.369s.788.653.873.608-.1-.588-.718-.908S238.519,477.789,238.549,477.879Z" transform="translate(-209.054 -286.553)" fill="#263238"/>
      <path id="Path_17591" data-name="Path 17591" d="M234.55,480.009c0,.1.414.219.778.6s.5.8.589.788.11-.564-.349-1.027S234.545,479.914,234.55,480.009Z" transform="translate(-207.05 -287.655)" fill="#263238"/>
      <path id="Path_17592" data-name="Path 17592" d="M231.7,483.6c.09,0,.185-.5-.11-1s-.758-.678-.793-.593.269.344.5.763S231.6,483.6,231.7,483.6Z" transform="translate(-205.168 -288.674)" fill="#263238"/>
      <path id="Path_17593" data-name="Path 17593" d="M238.505,472.868c.045.085.5-.085,1.022-.1s1,.13,1.032.04-.394-.394-1.037-.374S238.45,472.8,238.505,472.868Z" transform="translate(-209.031 -283.886)" fill="#263238"/>
      <path id="Path_17594" data-name="Path 17594" d="M237.44,467.21a1.84,1.84,0,0,0,1-.085,4.515,4.515,0,0,0,1-.409,4.145,4.145,0,0,0,.544-.349,1.162,1.162,0,0,0,.279-.254.424.424,0,0,0,0-.5.554.554,0,0,0-.439-.184,1.433,1.433,0,0,0-.369.085,3.38,3.38,0,0,0-.594.259,3.491,3.491,0,0,0-.863.678c-.419.459-.549.833-.5.848s.244-.289.683-.678a3.953,3.953,0,0,1,.838-.574,3.452,3.452,0,0,1,.554-.219c.2-.075.379-.09.444,0s.025.045,0,.11a.965.965,0,0,1-.2.19,5.97,5.97,0,0,1-.5.344,5.66,5.66,0,0,1-.923.444,6.623,6.623,0,0,0-.954.294Z" transform="translate(-208.499 -280.372)" fill="#263238"/>
      <g id="Group_9280" data-name="Group 9280" transform="translate(29.285 186.384)" opacity="0.3">
        <path id="Path_17595" data-name="Path 17595" d="M247.581,468.09l.155,2.239-9.451.728-.155-2.035Z" transform="translate(-238.13 -468.09)"/>
      </g>
      <path id="Path_17596" data-name="Path 17596" d="M283.708,455.36l.843,15.824-8.528.623-.873-15.849Z" transform="translate(-227.402 -275.325)" fill="#d72027"/>
      <path id="Path_17597" data-name="Path 17597" d="M284.833,470.95c-.07,0-.269-3.461-.444-7.735s-.254-7.745-.185-7.745.269,3.461.444,7.735S284.9,470.945,284.833,470.95Z" transform="translate(-231.929 -275.38)" fill="#263238"/>
      <path id="Path_17598" data-name="Path 17598" d="M285.308,484.9l-8.528.6.06,1.117,8.528-.623Z" transform="translate(-228.219 -290.133)" fill="#263238"/>
      <path id="Path_17599" data-name="Path 17599" d="M276.34,475.4a1.928,1.928,0,0,1,.2-.354,5.722,5.722,0,0,1,.718-.853,5.985,5.985,0,0,1,1.337-1,4.458,4.458,0,0,1,1.965-.559,4.544,4.544,0,0,1,3.4,1.282,3.991,3.991,0,0,1,.683.893,1,1,0,0,1,.155.384,8.2,8.2,0,0,0-.948-1.147,4.558,4.558,0,0,0-3.267-1.157,5.237,5.237,0,0,0-3.187,1.426C276.7,474.943,276.38,475.427,276.34,475.4Z" transform="translate(-227.999 -283.981)" fill="#263238"/>
      <g id="Group_9281" data-name="Group 9281" transform="translate(48.082 186.423)" opacity="0.3">
        <path id="Path_17600" data-name="Path 17600" d="M284.453,468.17l.015,2.179-8.538.05-.11-1.975Z" transform="translate(-275.82 -468.17)"/>
      </g>
      <path id="Path_17601" data-name="Path 17601" d="M250.977,96.927l.269-.065a5.052,5.052,0,0,1,4.134-2.494,6.553,6.553,0,0,1,4.573,1.736c.873.768,1.561,1.731,2.439,2.494a3.844,3.844,0,0,0,3.177,1.1c.14.424-.653.678-.6,1.122a.5.5,0,0,0,.449.389,5.358,5.358,0,0,0,.938,0,.753.753,0,0,1,.743.459.868.868,0,0,1-.04.449,8.039,8.039,0,0,1-1.845,3.621,4.239,4.239,0,0,1-3.706,1.352,6.681,6.681,0,0,1-2.833-1.591l-4.868-3.9a10.827,10.827,0,0,1-2.07-2,3.685,3.685,0,0,1-.758-2.678Z" transform="translate(-215.274 -94.367)" fill="#263238"/>
      <path id="Path_17602" data-name="Path 17602" d="M243.9,98.8a5.281,5.281,0,0,0-2.264-1.117,3.157,3.157,0,0,0-2.439.464,7.022,7.022,0,0,0-1.5,1.835,2.957,2.957,0,0,1-1.835,1.4.683.683,0,0,0-.389.125c-.18.17-.05.5.175.6a1.122,1.122,0,0,0,.723,0,2.564,2.564,0,0,1-1.526.858,1.117,1.117,0,0,0,1.371.828,11.416,11.416,0,0,0-.449,2.8,3.855,3.855,0,0,0,.908,2.618c.713.768,1.865,1.192,2.174,2.189" transform="translate(-207.201 -95.994)" fill="#263238"/>
      <path id="Path_17603" data-name="Path 17603" d="M253.943,137.017l-12.663-.16,1.416-10.812s-.868-.185-.923-4.877S241.5,108.5,241.5,108.5h0a16.3,16.3,0,0,1,16.383,2.08l.693.539Z" transform="translate(-210.424 -100.794)" fill="#ffbe9d"/>
      <path id="Path_17604" data-name="Path 17604" d="M272.82,126.482c.08-.035,3.227-.953,3.122,2.254s-3.3,2.444-3.3,2.354S272.82,126.482,272.82,126.482Z" transform="translate(-226.144 -110.392)" fill="#ffbe9d"/>
      <path id="Path_17605" data-name="Path 17605" d="M239.955,125.185c-.08-.035-2.937-.8-2.838,2.4s3.3,2.439,3.307,2.349S239.955,125.185,239.955,125.185Z" transform="translate(-208.336 -109.763)" fill="#ffbe9d"/>
      <path id="Path_17606" data-name="Path 17606" d="M257.622,116.115c-.5,2.683-.384,4.1-.828,5.89a9.457,9.457,0,0,1-4.673,6.438,7.354,7.354,0,0,1-8.219-.539,7.5,7.5,0,0,1-2.833-4.873c-.229-2.02-.818-5.805-.833-7.835-.025-3.661.1-6.947.1-6.947l10.473-1.89,5.95,3.536Z" transform="translate(-209.899 -100.379)" fill="#263238"/>
      <path id="Path_17607" data-name="Path 17607" d="M253.46,153.478a3.366,3.366,0,0,0,1.835.16,3.436,3.436,0,0,0,1.751-.554c-.03-.08-.8.16-1.785.264A17.758,17.758,0,0,0,253.46,153.478Z" transform="translate(-216.53 -123.793)" fill="#263238"/>
      <path id="Path_17608" data-name="Path 17608" d="M255.618,116.264c.309-2.758.5-5.9.938-8.807a18.94,18.94,0,0,0,.454-3.76c-.1-1.1-.4-.763-.883-1.755-.608-1.247-2.933-2.08-4.294-2.354s-1.531-1.446-2.573-.534a3.4,3.4,0,0,0-6.189,1.431,2.359,2.359,0,0,0-3.9,2.364,2.3,2.3,0,0,0-1.551,3.531c.5.743,1.357,1.157,1.89,1.865a2.668,2.668,0,0,1,.16,2.9" transform="translate(-208.404 -95.96)" fill="#263238"/>
      <path id="Path_17609" data-name="Path 17609" d="M247.025,133.93a6.114,6.114,0,0,0,1.965,5.172,16.983,16.983,0,0,1-1.322-2.459A21.9,21.9,0,0,1,247.025,133.93Z" transform="translate(-213.287 -114.199)" fill="#455a64"/>
      <path id="Path_17610" data-name="Path 17610" d="M243.946,129.24a4.942,4.942,0,0,0,.878,4.868,13.8,13.8,0,0,1-.8-2.359,15.089,15.089,0,0,1-.078-2.509Z" transform="translate(-211.614 -111.848)" fill="#455a64"/>
      <path id="Path_17611" data-name="Path 17611" d="M263.156,103.723a7.187,7.187,0,0,0-3.267-2.923,4.189,4.189,0,0,0-4.2.529" transform="translate(-217.647 -97.423)" fill="#263238"/>
      <path id="Path_17612" data-name="Path 17612" d="M269.505,115.1a2.7,2.7,0,0,1,.1-.948,12.109,12.109,0,0,0,.244-2.219,4.986,4.986,0,0,0-.5-2.13c-.254-.5-.5-.763-.464-.808s.359.165.693.678a4.279,4.279,0,0,1,.618,2.254,7.785,7.785,0,0,1-.354,2.284,2.494,2.494,0,0,1-.337.889Z" transform="translate(-224.261 -101.696)" fill="#455a64"/>
      <path id="Path_17613" data-name="Path 17613" d="M265.77,120.407c-.1-.055.165-.688.419-1.5a5.992,5.992,0,0,1,.5-1.451,2.633,2.633,0,0,1-.16,1.566C266.264,119.859,265.875,120.457,265.77,120.407Z" transform="translate(-222.69 -105.943)" fill="#455a64"/>
      <path id="Path_17614" data-name="Path 17614" d="M244.5,113.6a2.608,2.608,0,0,1-.723-1.142,5.726,5.726,0,0,1-.309-3.257A5.666,5.666,0,0,1,245,106.318a2.718,2.718,0,0,1,1.107-.783c.035.05-.384.344-.913.958a6.035,6.035,0,0,0-1.172,5.875C244.279,113.141,244.553,113.574,244.5,113.6Z" transform="translate(-211.468 -99.968)" fill="#455a64"/>
      <path id="Path_17615" data-name="Path 17615" d="M262.1,96.356a4.888,4.888,0,0,1-1.027-.434,6.05,6.05,0,0,0-2.524-.618,3.062,3.062,0,0,0-2.289.963,6.718,6.718,0,0,0-.583.913,1.414,1.414,0,0,1,.379-1.077,2.832,2.832,0,0,1,.973-.818,3.491,3.491,0,0,1,1.5-.354,5.326,5.326,0,0,1,2.643.758C261.811,96.037,262.12,96.316,262.1,96.356Z" transform="translate(-217.629 -94.649)" fill="#455a64"/>
      <path id="Path_17616" data-name="Path 17616" d="M239.88,101.461c-.04,0,.035-.374.374-.848a3.461,3.461,0,0,1,4.075-1.187,1.831,1.831,0,0,1,.773.5c-.025,0-.334-.125-.853-.269a3.681,3.681,0,0,0-3.79,1.1C240.1,101.177,239.935,101.486,239.88,101.461Z" transform="translate(-209.718 -96.782)" fill="#455a64"/>
      <path id="Path_17617" data-name="Path 17617" d="M246.81,124.127c0-.045.5-.185,1.361-.564a10.972,10.972,0,0,0,3.1-2.1l.6-.588-.329.778a6.982,6.982,0,0,0-.454,1.526c-.05.259-.095.593,0,.638s.359-.06.6-.229a9.533,9.533,0,0,0,2.15-1.9l.559-.663-.254.828-.708,2.294L253.2,124a14.092,14.092,0,0,0,2.05-2.583,2.652,2.652,0,0,1-.359.838,8.947,8.947,0,0,1-1.5,1.955l-.394.389.15-.539.653-2.309.3.16a9.61,9.61,0,0,1-2.224,2,3.485,3.485,0,0,1-.414.239.6.6,0,0,1-.6-.025.638.638,0,0,1-.209-.554,2.428,2.428,0,0,1,.065-.449,6.859,6.859,0,0,1,.5-1.6l.274.19a9.885,9.885,0,0,1-3.252,2.04,4.584,4.584,0,0,1-1.426.374Z" transform="translate(-213.196 -107.658)" fill="#455a64"/>
      <path id="Path_17618" data-name="Path 17618" d="M253.822,101.714a1.641,1.641,0,0,0-1-.783,2.937,2.937,0,0,0-1.3-.03,4.693,4.693,0,0,0-2.728,1.576c-.155.19-.294.5-.13.658a.559.559,0,0,0,.359.125,20,20,0,0,0,4.728-.17" transform="translate(-214.089 -97.613)" fill="#263238"/>
      <path id="Path_17619" data-name="Path 17619" d="M256.031,162.932a3.1,3.1,0,0,1-.673-.05l-1.82-.214c-1.536-.18-3.666-.4-6.02-.579s-4.489-.259-6.04-.3l-1.835-.055a3.279,3.279,0,0,1-.673-.05,3.656,3.656,0,0,1,.673-.05c.434,0,1.062-.03,1.84-.03,1.551,0,3.691.055,6.054.229s4.488.429,6.025.658c.768.11,1.386.214,1.81.294a3.526,3.526,0,0,1,.659.147Z" transform="translate(-209.266 -128.07)" fill="#455a64"/>
      <path id="Path_17620" data-name="Path 17620" d="M267.552,288.45l5.416,89.59L260,378.569s-3.272-34.866-5.985-49.967-3.4-21.31-3.4-21.31l2.394-17.311Z" transform="translate(-215.106 -191.657)" fill="#263238"/>
      <path id="Path_17621" data-name="Path 17621" d="M217.542,289.963a129.24,129.24,0,0,0,0,24.562c1.282,13.84,7.416,64.131,7.416,64.131l13.57-1.067s-3.99-59.6-1.865-69.183l9.316-8.912,1.332-14.094Z" transform="translate(-198.232 -190.128)" fill="#263238"/>
      <path id="Path_17622" data-name="Path 17622" d="M265.909,309.57a1.5,1.5,0,0,1-.18.189l-.549.5-2.075,1.9-7.1,6.379.045-.09c-.025,1.107-.055,2.254-.085,3.431-.13,4.628-.249,8.812-.339,11.88-.055,1.5-.1,2.718-.13,3.6-.025.4-.04.728-.05,1a1.71,1.71,0,0,1-.035.339,1.688,1.688,0,0,1,0-.344v-1c0-.883.03-2.1.05-3.6.07-3.067.16-7.256.264-11.88.03-1.177.06-2.324.09-3.431v-.055l.045-.04,7.157-6.314,2.125-1.84.574-.5A1.036,1.036,0,0,1,265.909,309.57Z" transform="translate(-217.503 -202.244)" fill="#455a64"/>
      <path id="Path_17623" data-name="Path 17623" d="M288.211,174.31s3.516,3.022,4.07,5.78,2.294,30.3,1.651,32.871-7.481,18.273-7.481,18.273L284.56,215.9V200.588Z" transform="translate(-232.119 -134.441)" fill="#263238"/>
      <path id="Path_17624" data-name="Path 17624" d="M195.573,297.86l-.7,2.618,7.581,1.641.589-2.519Z" transform="translate(-187.16 -196.374)" fill="#fff"/>
      <path id="Path_17625" data-name="Path 17625" d="M214.81,228.607v3.636l27.16-.708s1.371-8.648,1.526-8.184,2.623,8.184,2.623,8.184h8.234l-4.04-33.888,2.957-31.789-10.214-5.486-1.062-2.2s-11.017-1.107-13.964-.583l-1.047,2.628-3.92,1.4-6.6,36.028Z" transform="translate(-197.155 -125.988)" fill="#263238"/>
      <path id="Path_17626" data-name="Path 17626" d="M218.26,160.767l8.054-2.937,3.272-2.937a31.091,31.091,0,0,1,6.045-1.676,13.714,13.714,0,0,1,7.381,1.092l2.1,3.017,10.423,7.556-1,28.861-31.419,2.269Z" transform="translate(-198.885 -123.79)" fill="#263238"/>
      <path id="Path_17627" data-name="Path 17627" d="M200.486,198.83c.254-.339,1.352-24.3,1.77-26.233s2.853-4.194,4.279-4.109,8.643,5.281,8.643,14.682-3.86,28.028-3.86,28.028l-7.8,23.659-8.643-1.995,5.705-34.571" transform="translate(-187.16 -131.521)" fill="#263238"/>
      <path id="Path_17628" data-name="Path 17628" d="M234.63,161.358a33.245,33.245,0,0,1,18.907-.5" transform="translate(-207.091 -127.129)" fill="#263238"/>
      <path id="Path_17629" data-name="Path 17629" d="M253.552,160.74a3.754,3.754,0,0,1-.743-.135c-.474-.1-1.162-.239-1.995-.384a36.407,36.407,0,0,0-6.733-.469,35.411,35.411,0,0,0-6.693.838c-.843.19-1.526.359-1.995.5a3.99,3.99,0,0,1-.733.17,4.427,4.427,0,0,1,.7-.269c.459-.16,1.132-.359,1.995-.574a31.46,31.46,0,0,1,13.5-.369c.858.17,1.541.329,1.995.469a4.387,4.387,0,0,1,.7.223Z" transform="translate(-207.106 -127.01)" fill="#455a64"/>
      <path id="Path_17630" data-name="Path 17630" d="M288.451,193.44v.125a1.918,1.918,0,0,1-.025.354c-.03.334-.065.793-.115,1.371-.11,1.187-.259,2.908-.434,5.037-.334,4.249-.748,10.139-.633,16.647a144.785,144.785,0,0,0,1.357,16.6c.279,2.095.5,3.8.673,4.987.075.574.135,1.032.18,1.361a2.186,2.186,0,0,0,.04.359c.015.1,0,.12,0,.12a.5.5,0,0,1-.035-.12,2.547,2.547,0,0,0-.065-.349l-.224-1.357c-.194-1.177-.459-2.883-.758-4.987a133.475,133.475,0,0,1-1.421-16.612,154.305,154.305,0,0,1,.713-16.667c.195-2.13.369-3.845.5-5.032.07-.574.125-1.032.165-1.367a2.714,2.714,0,0,1,.045-.354.4.4,0,0,1,.04-.12Z" transform="translate(-233.333 -144.03)" fill="#455a64"/>
      <path id="Path_17631" data-name="Path 17631" d="M215.178,197.93c0,9.4-3.86,28.028-3.86,28.028l-7.8,23.659-8.643-1.995,5.705-34.571" transform="translate(-187.16 -146.281)" fill="#263238"/>
      <path id="Path_17632" data-name="Path 17632" d="M200.45,213a.759.759,0,0,1,0,.175,5.012,5.012,0,0,1-.07.5l-.3,1.925c-.269,1.691-.663,4.139-1.152,7.207-1,6.154-2.414,14.8-4.045,24.787l-.1-.14,8.643,1.995-.15.085,1.456-4.429c2.279-6.887,4.439-13.421,6.359-19.231h0c1.661-8.2,2.768-15.2,3.351-20.153.309-2.494.439-4.439.529-5.785.04-.668.045-1.187.065-1.536V198a.469.469,0,0,1,0-.135.55.55,0,0,1,0,.135v1.97c-.065,1.347-.175,3.317-.459,5.8-.549,4.987-1.621,11.969-3.267,20.183h0c-1.91,5.81-4.06,12.348-6.329,19.236-.5,1.521-1,3.017-1.461,4.429l-.04.115-.115-.03-8.638-1.995-.115-.03v-.115l4.134-24.777c.5-3.057.938-5.486,1.222-7.192.15-.828.259-1.471.339-1.92.04-.209.07-.374.1-.5A1.282,1.282,0,0,1,200.45,213Z" transform="translate(-187.034 -146.251)" fill="#455a64"/>
      <path id="Path_17633" data-name="Path 17633" d="M206.13,202.963c.254-.339,1.352-24.3,1.77-26.233" transform="translate(-192.804 -135.654)" fill="#263238"/>
      <path id="Path_17634" data-name="Path 17634" d="M207.946,176.73a1.1,1.1,0,0,1,0,.269,6.187,6.187,0,0,1-.06.763c-.045.7-.1,1.651-.18,2.808-.135,2.409-.319,5.675-.5,9.281s-.409,6.907-.579,9.281a23.652,23.652,0,0,1-.409,3.83V202.7c0-.175.03-.459.05-.768.04-.7.09-1.651.155-2.808.13-2.414.309-5.675.5-9.286s.414-6.907.6-9.276c.09-1.187.18-2.149.259-2.808.04-.334.08-.588.11-.763a.938.938,0,0,1,.054-.261Z" transform="translate(-192.849 -135.654)" fill="#455a64"/>
      <path id="Path_17635" data-name="Path 17635" d="M225.835,177.891c-.05,0-.155-.683-.5-1.741a12.476,12.476,0,0,0-.788-1.8,13.8,13.8,0,0,0-1.317-2,14.177,14.177,0,0,0-1.671-1.726,12.835,12.835,0,0,0-1.586-1.152c-.953-.589-1.606-.843-1.586-.888a1.812,1.812,0,0,1,.469.15,8.007,8.007,0,0,1,1.212.578,11.411,11.411,0,0,1,1.646,1.132,12.939,12.939,0,0,1,1.721,1.741,13.235,13.235,0,0,1,1.327,2.06,11.691,11.691,0,0,1,.748,1.85c.09.269.14.524.2.743a4.713,4.713,0,0,1,.1.569,1.994,1.994,0,0,1,.03.479Z" transform="translate(-198.949 -131.574)" fill="#455a64"/>
      <path id="Path_17636" data-name="Path 17636" d="M290.318,174.64a3.208,3.208,0,0,1,.185,1,15.569,15.569,0,0,1-.284,4.873,3.111,3.111,0,0,1-.3.968c-.075,0,.269-1.5.374-3.406S290.243,174.65,290.318,174.64Z" transform="translate(-234.801 -134.606)" fill="#455a64"/>
      <path id="Path_17637" data-name="Path 17637" d="M262.717,223.739c.05.055-3.656,3.541-8.269,7.795s-8.4,7.655-8.448,7.6,3.651-3.541,8.269-7.8S262.672,223.69,262.717,223.739Z" transform="translate(-212.79 -159.219)" fill="#455a64"/>
      <path id="Path_17638" data-name="Path 17638" d="M270.936,268.594a4.134,4.134,0,0,1,0-.778c0-.549,0-1.262.025-2.12,0-1.79.025-4.264-.045-6.982s-.209-5.2-.324-6.982c-.055-.858-.1-1.571-.14-2.115a4.2,4.2,0,0,1,0-.778,4.637,4.637,0,0,1,.12.768c.065.5.14,1.217.219,2.11.165,1.785.329,4.259.4,6.982s.035,5.212-.03,6.982c-.035.893-.075,1.621-.11,2.12a4.931,4.931,0,0,1-.12.793Z" transform="translate(-225.038 -171.801)" fill="#455a64"/>
      <path id="Path_17639" data-name="Path 17639" d="M254.394,297.378h-.584l-1.676.03-6.174.065h-.07v-.065l-2.758-8.094h.234c-.374,2.494-.783,5.232-1.212,8.084v.11h-.11l-1,.025-18.5.439-5.606.1h-1.526l1.526-.065,5.6-.185,18.5-.5,1-.025-.165.075L243.1,289.3l.075-.5.16.5,2.713,8.079-.09-.065h8.289Z" transform="translate(-197.195 -191.832)" fill="#455a64"/>
      <path id="Path_17640" data-name="Path 17640" d="M195.49,303.52s-1.721,4.673-1.162,5.571,3.356,4.593,3.955,4.593a31.179,31.179,0,0,0,3.6-.9s2.394-3.237,2.1-3.491-1.1-1.172-1.8,0l-1.7,1.865-.6-2.394s1.242-2.494,1.94-3.835Z" transform="translate(-186.832 -199.211)" fill="#ffbe9d"/>
      <path id="Path_17641" data-name="Path 17641" d="M186.756,325.683l-2.075.115-5.271,29.7,24.113.638,3.461-.444-3.825-30.751Z" transform="translate(-179.41 -209.948)" fill="#6b1013"/>
      <path id="Path_17642" data-name="Path 17642" d="M185.64,338.346h18.488l.748-13.276.948,31.13" transform="translate(-182.533 -210.014)" fill="#470a0d"/>
      <path id="Path_17643" data-name="Path 17643" d="M205.9,356.2a.834.834,0,0,1,0-.165c0-.12,0-.274,0-.469,0-.429-.05-1.037-.08-1.81-.06-1.586-.145-3.86-.244-6.663-.18-5.641-.434-13.416-.708-22.019h.259v.319c-.264,4.633-.5,9.032-.738,12.967v.115h-.115l-13.336-.05-3.8-.03h0l3.8-.035,13.336-.05-.115.115c.214-3.925.459-8.324.713-12.967v-.319h.259c.244,8.6.469,16.378.633,22.024.065,2.8.12,5.077.16,6.668,0,.773.025,1.376.03,1.81v.469a.816.816,0,0,1-.055.09Z" transform="translate(-182.613 -210.019)" fill="#263238"/>
      <path id="Path_17644" data-name="Path 17644" d="M205.69,314.1a1.7,1.7,0,0,1,1.92-.214c.923.623,2.364,5.685,2.449,5.68s-2.738.574-2.738.574Z" transform="translate(-192.584 -204.293)" fill="#8f151a"/>
      <path id="Path_17645" data-name="Path 17645" d="M197.333,319.58a9.281,9.281,0,0,0-.733,3.531h2.02l.165-1.87Z" transform="translate(-188.027 -207.262)" fill="#8f151a"/>
    </g>
    <g id="freepik--speech-bubble--inject-2" transform="translate(129.915 13.52)">
      <circle id="Ellipse_160" data-name="Ellipse 160" cx="14.019" cy="14.019" r="14.019" transform="translate(0 19.826) rotate(-45)" fill="#fafafa"/>
      <path id="Path_17646" data-name="Path 17646" d="M234.178,40.276V38.885c0-.19.025-.374.04-.588s.035-.444.055-.688a2.583,2.583,0,0,1,.05-.374,2.313,2.313,0,0,1,.07-.4,13.3,13.3,0,0,1,1.252-3.82,13.925,13.925,0,0,1,3.222-4.214l.564-.5c.2-.155.414-.3.623-.449l.314-.229a2.864,2.864,0,0,1,.329-.214l.693-.4.354-.2.374-.17.758-.344c.259-.11.534-.185.8-.284l.409-.14.2-.065.214-.05a13.026,13.026,0,0,1,1.736-.339c.3-.035.6-.09.9-.1h1.386l.469.035c.314.03.628.04.943.08a14.9,14.9,0,0,1,1.9.4l.469.135.239.065.229.09.933.364c.3.135.6.3.9.449.15.08.3.145.449.234l.434.274a15.551,15.551,0,0,1,1.676,1.217l.763.718.2.185c.06.06.115.13.175.195l.349.4.354.4.314.434.314.439.16.219.135.229.549.943c.15.334.3.663.454,1a14.655,14.655,0,0,1,1.062,4.3,14.747,14.747,0,0,1-.4,4.434c-.1.354-.2.7-.294,1.057a9.421,9.421,0,0,1-.394,1l-.1.254-.12.239-.244.5-.244.5-.284.454-.284.449-.145.224-.16.209-.643.828a15.626,15.626,0,0,1-1.471,1.461l-.384.339c-.13.11-.274.2-.409.3-.274.194-.544.4-.823.584l-.863.5-.219.08a2.227,2.227,0,0,1-.219.1l-.449.2a14.733,14.733,0,0,1-1.8.688c-.309.09-.618.15-.923.224l-.459.1a4.618,4.618,0,0,1-.459.065l-.913.12c-.3.03-.608,0-.908.035A12.966,12.966,0,0,1,246.6,53h-.219l-.209-.035-.424-.075c-.284-.055-.564-.09-.838-.155l-.8-.219-.394-.11-.379-.145-.748-.289a2.932,2.932,0,0,1-.359-.165l-.349-.175c-.229-.12-.459-.229-.683-.349l-.633-.4a13.834,13.834,0,0,1-3.835-3.666l-.339-.469-.279-.5c-.1-.155-.185-.309-.274-.464-.04-.075-.09-.15-.13-.224l-.1-.234-.4-.878c-.12-.279-.2-.564-.3-.823-.045-.13-.085-.259-.13-.384a2.346,2.346,0,0,1-.11-.364l-.16-.668c-.045-.209-.1-.4-.13-.574s-.045-.339-.065-.5c-.04-.289-.07-.5-.1-.658l-.035-.224v.224c0,.15.045.374.075.658,0,.15.04.309.06.5a5.863,5.863,0,0,0,.13.579c.045.209.1.434.155.673a2.12,2.12,0,0,0,.1.364l.13.384c.1.264.175.549.289.833l.4.883.1.234c.04.075.085.15.13.224l.269.469c.1.16.185.324.284.5s.219.314.334.5a13.9,13.9,0,0,0,3.9,3.681l.638.4c.219.125.454.234.688.354l.349.175a2.365,2.365,0,0,0,.359.17l.753.289c.125.05.254.1.384.15l.4.11.808.229c.274.07.554.1.838.16l.429.075.214.035h.219a13.152,13.152,0,0,0,1.78.075,8.109,8.109,0,0,0,.918-.035l.918-.12a2.525,2.525,0,0,0,.469-.065l.459-.11c.309-.075.623-.135.928-.224a14.7,14.7,0,0,0,1.825-.688l.449-.2.229-.1.214-.13.868-.5c.284-.185.554-.389.833-.588a4.826,4.826,0,0,0,.409-.3l.389-.339a15.91,15.91,0,0,0,1.5-1.5l.648-.838.165-.214.145-.224.284-.454.289-.454.249-.5.244-.5.125-.244.1-.254c.13-.339.264-.678.4-1a9.235,9.235,0,0,0,.3-1.067,13.968,13.968,0,0,0-.693-8.847c-.155-.334-.3-.673-.459-1l-.608-.9c-.045-.08-.09-.16-.14-.234l-.16-.224-.314-.439-.319-.439-.354-.4-.354-.4-.18-.2-.194-.185-.773-.728a15.767,15.767,0,0,0-1.691-1.222l-.439-.274a4.787,4.787,0,0,0-.454-.239c-.3-.15-.6-.314-.913-.449l-.938-.364-.229-.095-.239-.065-.5-.135a15.12,15.12,0,0,0-1.91-.4c-.314-.04-.633-.05-.953-.08l-.469-.035h-1.4a7.91,7.91,0,0,0-.908.11,12.634,12.634,0,0,0-1.751.344l-.214.05-.2.07-.409.14c-.274.1-.549.18-.808.289l-.738.409-.374.17-.354.2-.7.409a3,3,0,0,0-.334.219l-.314.229c-.214.155-.424.3-.628.459l-.564.5A13.919,13.919,0,0,0,235.564,33a13.411,13.411,0,0,0-1.237,3.84,2.469,2.469,0,0,1-.065.4,2.637,2.637,0,0,0-.05.379c0,.249-.035.5-.05.688s-.03.414-.035.593,0,.344,0,.5a4.874,4.874,0,0,0,.025.663C234.168,40.221,234.178,40.276,234.178,40.276Z" transform="translate(-228.304 -19.36)" fill="#263238"/>
      <path id="Path_17647" data-name="Path 17647" d="M0,3.7H2A1.686,1.686,0,0,1,3.735,2,1.606,1.606,0,0,1,5.287,3a1.785,1.785,0,0,1-.14,1.611,2.156,2.156,0,0,1-2.414.828V9.93H4.7V7.321a3.835,3.835,0,0,0,2.743-3.74A3.568,3.568,0,0,0,3.721,0,3.392,3.392,0,0,0,0,3.7Z" transform="translate(16.382 13.037)" fill="#263238"/>
      <rect id="Rectangle_4385" data-name="Rectangle 4385" width="1.995" height="1.86" transform="translate(19.1 23.903)" fill="#263238"/>
      <path id="Path_17648" data-name="Path 17648" d="M249.008,85.2a1.8,1.8,0,0,1,.284-.3,1.825,1.825,0,0,1,1.775-.354,1.526,1.526,0,0,1,.693.5,1.661,1.661,0,0,1-1.536,2.708,1.546,1.546,0,0,1-.793-.334,1.755,1.755,0,0,1-.464-.608,1.825,1.825,0,0,1-.145-1.1c.05-.259.125-.394.11-.4s0,.03-.055.1a.692.692,0,0,0-.055.12.8.8,0,0,0-.05.175,1.805,1.805,0,0,0,.11,1.142,1.78,1.78,0,0,0,.5.653,1.631,1.631,0,0,0,.848.374,1.9,1.9,0,0,0,1-.15,1.681,1.681,0,0,0,1.027-1.81,1.88,1.88,0,0,0-.394-.943,1.606,1.606,0,0,0-.753-.539,1.81,1.81,0,0,0-.8-.075,1.85,1.85,0,0,0-1.042.5.931.931,0,0,0-.12.135.67.67,0,0,0-.08.11.39.39,0,0,0-.055.1Z" transform="translate(-235.628 -49.02)" fill="#263238"/>
    </g>
    <g id="freepik--door-2--inject-2" transform="translate(179.353 45.114)">
      <rect id="Rectangle_4386" data-name="Rectangle 4386" width="51.039" height="114.222" transform="translate(3.292 5.047)" fill="#d72027"/>
      <path id="Path_17649" data-name="Path 17649" d="M375.946,76.9H321.61V196.154h4.723V81.932h49.613V196.154h5.122V76.9Z" transform="translate(-321.61 -76.885)" fill="#d72027"/>
      <path id="Path_17650" data-name="Path 17650" d="M435.823,76.9a31.916,31.916,0,0,1-2.543,2.409c-.713.653-1.352,1.252-1.8,1.7a7.328,7.328,0,0,0-.5.549,1.743,1.743,0,0,0-.15.224.4.4,0,0,1,.065-.279,3.545,3.545,0,0,1,.449-.613,21.12,21.12,0,0,1,1.75-1.765c.718-.653,1.386-1.222,1.88-1.621a3.745,3.745,0,0,1,.843-.6Z" transform="translate(-376.36 -76.885)" fill="#455a64"/>
      <path id="Path_17651" data-name="Path 17651" d="M326.333,82.017a23.139,23.139,0,0,1-2.454-2.494,23.669,23.669,0,0,1-2.269-2.653,23.437,23.437,0,0,1,2.459,2.494A23.774,23.774,0,0,1,326.333,82.017Z" transform="translate(-321.61 -76.87)" fill="#455a64"/>
      <path id="Path_17652" data-name="Path 17652" d="M335.486,206.456h0a1.716,1.716,0,0,1-1.716-1.721v-11.82a1.716,1.716,0,0,1,1.716-1.716h0a1.721,1.721,0,0,1,1.721,1.716v11.82a1.721,1.721,0,0,1-1.721,1.721Z" transform="translate(-327.705 -134.181)" fill="#fff"/>
      <path id="Path_17653" data-name="Path 17653" d="M337.447,213.68a.579.579,0,1,0-.838.5v.673a.259.259,0,0,0,.259.259h0a.259.259,0,0,0,.259-.259v-.673a.574.574,0,0,0,.319-.5Z" transform="translate(-328.969 -145.151)" fill="#455a64"/>
      <path id="Path_17654" data-name="Path 17654" d="M345.688,203.325h-7.606a.913.913,0,0,1-.913-.913h0a.913.913,0,0,1,.913-.913h7.63a.913.913,0,0,1,.913.913h0a.913.913,0,0,1-.938.913Z" transform="translate(-329.41 -139.344)" fill="#fff"/>
      <path id="Path_17655" data-name="Path 17655" d="M340.308,203.224a6.349,6.349,0,0,1-1.067.1,6.821,6.821,0,0,1-1.177-.025,1.666,1.666,0,0,1-1.312-.7.918.918,0,0,1-.035-.828.648.648,0,0,1,.284-.3,1.668,1.668,0,0,1,.329-.14,3.62,3.62,0,0,1,1.187-.13,4.34,4.34,0,0,1,1.072.1,4.953,4.953,0,0,1-1.072.085,3.84,3.84,0,0,0-1.107.17c-.2.075-.394.155-.464.329a.673.673,0,0,0,.035.594,1.446,1.446,0,0,0,1.112.583,8.274,8.274,0,0,0,1.142.085,3.55,3.55,0,0,1,1.073.082Z" transform="translate(-329.142 -139.188)" fill="#455a64"/>
      <path id="Path_17656" data-name="Path 17656" d="M375.946,76.9H321.61V196.154h4.723V81.932h49.613V196.154h5.122V76.9Z" transform="translate(-321.61 -76.885)" opacity="0.3"/>
      <path id="Path_17657" data-name="Path 17657" d="M380.593,200.728v-8.673c0-5.611-.025-13.755-.04-23.939,0-20.343-.025-48.76-.045-81.092l.13.13h-49.7l.13-.13c0,32.128-.035,60.345-.045,80.529,0,10.084-.03,18.168-.04,23.734v6.384c0-1.461,0-3.611-.025-6.384,0-5.566,0-13.65-.04-23.734,0-20.188-.025-48.376-.04-80.529V86.9H380.75v.125c0,32.332-.03,60.749-.045,81.092,0,10.164-.025,18.308-.035,23.939v8.1a1.6,1.6,0,0,1-.077.572Z" transform="translate(-326.257 -81.898)" fill="#263238"/>
    </g>
    <g id="freepik--door-1--inject-2" transform="translate(53.131 45.079)">
      <rect id="Rectangle_4387" data-name="Rectangle 4387" width="51.039" height="114.222" transform="translate(3.297 5.047)" fill="#d72027"/>
      <path id="Path_17658" data-name="Path 17658" d="M122.816,76.83H68.48V196.084H73.2V81.862h49.613V196.084h5.127V76.83Z" transform="translate(-68.48 -76.815)" fill="#d72027"/>
      <path id="Path_17659" data-name="Path 17659" d="M182.684,76.83a32.495,32.495,0,0,1-2.543,2.414c-.713.653-1.352,1.247-1.8,1.7-.219.224-.394.409-.5.544s-.13.224-.15.224-.03-.12.065-.274a3.547,3.547,0,0,1,.449-.618,21.28,21.28,0,0,1,1.755-1.765c.713-.638,1.366-1.222,1.865-1.636a4.21,4.21,0,0,1,.859-.589Z" transform="translate(-123.221 -76.815)" fill="#455a64"/>
      <path id="Path_17660" data-name="Path 17660" d="M73.253,81.952A23.725,23.725,0,0,1,70.8,79.458,23.939,23.939,0,0,1,68.53,76.8a23.488,23.488,0,0,1,2.459,2.494,22.942,22.942,0,0,1,2.264,2.658Z" transform="translate(-68.505 -76.8)" fill="#455a64"/>
      <path id="Path_17661" data-name="Path 17661" d="M82.356,206.386h0a1.716,1.716,0,0,1-1.716-1.716V192.85a1.721,1.721,0,0,1,1.716-1.721h0a1.721,1.721,0,0,1,1.721,1.721v11.82a1.716,1.716,0,0,1-1.721,1.716Z" transform="translate(-74.576 -134.111)" fill="#fff"/>
      <path id="Path_17662" data-name="Path 17662" d="M84.317,213.61a.579.579,0,1,0-.838.5v.673a.259.259,0,0,0,.259.259h0a.259.259,0,0,0,.259-.259v-.673a.573.573,0,0,0,.319-.5Z" transform="translate(-75.839 -145.081)" fill="#455a64"/>
      <path id="Path_17663" data-name="Path 17663" d="M92.538,203.26h-7.63a.908.908,0,0,1-.908-.908h0a.913.913,0,0,1,.913-.913h7.63a.913.913,0,0,1,.913.913h0a.908.908,0,0,1-.918.908Z" transform="translate(-76.26 -139.279)" fill="#fff"/>
      <path id="Path_17664" data-name="Path 17664" d="M87.19,203.154a5.319,5.319,0,0,1-1.067.1,6.868,6.868,0,0,1-1.177-.03,1.651,1.651,0,0,1-1.312-.7.923.923,0,0,1-.035-.823.683.683,0,0,1,.284-.309,1.585,1.585,0,0,1,.334-.14,3.581,3.581,0,0,1,1.182-.13,3.871,3.871,0,0,1,1.072.1,5.2,5.2,0,0,1-1.072.08,3.881,3.881,0,0,0-1.107.175.593.593,0,0,0-.429.918,1.5,1.5,0,0,0,1.117.588,8.92,8.92,0,0,0,1.137.08,3.489,3.489,0,0,1,1.072.085Z" transform="translate(-76.019 -139.118)" fill="#455a64"/>
      <path id="Path_17665" data-name="Path 17665" d="M122.816,76.83H68.48V196.084H73.2V81.862h49.613V196.084h5.127V76.83Z" transform="translate(-68.48 -76.815)" opacity="0.3"/>
      <path id="Path_17666" data-name="Path 17666" d="M127.508,200.678V192.01c0-5.611-.025-13.76-.04-23.939,0-20.343,0-48.76-.045-81.087l.13.125H77.87l.13-.125c0,32.128-.035,60.345-.045,80.524-.035,10.1-.035,18.173-.035,23.749h0c0-5.566,0-13.645-.035-23.734,0-20.183-.03-48.376-.045-80.524v-.13h49.872V87c0,32.327-.03,60.744-.04,81.087,0,10.164-.03,18.313-.04,23.939,0,2.8,0,4.962-.025,6.434v1.666A1.2,1.2,0,0,1,127.508,200.678Z" transform="translate(-73.172 -81.848)" fill="#263238"/>
    </g>
    <g id="freepik--Floor--inject-2" transform="translate(37.86 164.24)">
      <path id="Path_17667" data-name="Path 17667" d="M252.86,315.8c0,.07-48.132.13-107.5.13s-107.5-.06-107.5-.13,48.122-.13,107.5-.13S252.86,315.725,252.86,315.8Z" transform="translate(-37.86 -315.67)" fill="#263238"/>
    </g>
  </g>
</svg>
