<svg xmlns="http://www.w3.org/2000/svg" xmlns:xlink="http://www.w3.org/1999/xlink" width="151.5" height="174.999" viewBox="0 0 151.5 174.999"><defs><filter id="a" x="34.2" y="0" width="117.3" height="174.999" filterUnits="userSpaceOnUse"><feOffset dy="2" input="SourceAlpha"/><feGaussianBlur stdDeviation="2.5" result="b"/><feFlood flood-opacity="0.102"/><feComposite operator="in" in2="b"/><feComposite in="SourceGraphic"/></filter></defs><g transform="translate(9172.999 -21718.109)"><g transform="translate(-9172.999 21728.088)"><path d="M79.006,95.336a7.322,7.322,0,0,1,5.647,1.03,12.854,12.854,0,0,1,4,4.265c2,3.235,2.682,7.564,2.746,11.367-4.224-.21-7.779-3.565-9.509-5.377-2.709-2.874-5.821-9.706-2.888-11.285" transform="translate(-59.358 -95.156)" fill="#f5f5f5"/><path d="M119.668,123.418a6.251,6.251,0,0,1-2.1-5.921A8.319,8.319,0,0,1,121.2,112.2a3.507,3.507,0,0,1,2.86-.714,2.682,2.682,0,0,1,1.711,2.1,5.491,5.491,0,0,1-.352,2.8c-1.1,3.066-2.718,5.835-5.748,7.033" transform="translate(-80.859 -103.963)" fill="#f5f5f5"/><path d="M124.525,138.524a12.436,12.436,0,0,1-1.194-2.215,11.441,11.441,0,0,1-.842-2.618,25.4,25.4,0,0,1-.545-3.3,12.593,12.593,0,0,1,.952-6.008,9.258,9.258,0,0,1,.915-1.6,2.732,2.732,0,0,1,.458-.5,12.77,12.77,0,0,0-1.927,8.077,29.7,29.7,0,0,0,.485,3.267,12.85,12.85,0,0,0,.732,2.576A14.524,14.524,0,0,1,124.525,138.524Z" transform="translate(-83.263 -109.866)" fill="#e0e0e0"/><path d="M86.63,106.45a7.112,7.112,0,0,1,.888.915c.545.609,1.327,1.5,2.288,2.608,1.908,2.219,4.512,5.313,7.322,8.8s5.23,6.718,6.924,9.088c.856,1.19,1.538,2.155,2,2.833a7.487,7.487,0,0,1,.682,1.08,7.582,7.582,0,0,1-.815-.979l-2.105-2.746c-1.776-2.325-4.247-5.519-7.038-9l-7.2-8.878-2.178-2.691A8.026,8.026,0,0,1,86.63,106.45Z" transform="translate(-64.135 -101.282)" fill="#e0e0e0"/><path d="M97.491,143.63a14.644,14.644,0,0,0-13.271-1.675c-1.107.412-2.288,1.185-2.343,2.366S83,146.343,84.1,146.8a12.5,12.5,0,0,0,13.554-2.915" transform="translate(-61.557 -120.061)" fill="#f5f5f5"/><path d="M93.47,145.922a2.133,2.133,0,0,1,.636-.22c.412-.114,1.02-.247,1.776-.389a16.6,16.6,0,0,1,6.018-.05,10.379,10.379,0,0,1,3.121,1.194,10.008,10.008,0,0,1,3.258,3.144,2.1,2.1,0,0,1,.325.586c-.069.05-.59-.75-1.67-1.83a10.164,10.164,0,0,0-5.121-2.7,18.62,18.62,0,0,0-5.885-.069C94.417,145.785,93.484,145.968,93.47,145.922Z" transform="translate(-67.845 -122.198)" fill="#e0e0e0"/><path d="M79.6,240.895c13.646-6.626,18.968-22.107,20.757-36.5.3-2.4.966-4.878.16-7.157s-3.226-4.118-5.528-3.464c-1.9.549-3.007,2.494-4.27,4.041a14.186,14.186,0,0,1-6.457,4.462c-1.647.545-3.606.728-4.979-.339-1.881-1.464-1.67-4.352-1.277-6.727l2.2-13.271a22.443,22.443,0,0,0,.407-7.175,7.457,7.457,0,0,0-3.839-5.72c-2.16-.993-5.162-.133-6.008,2.114a21.778,21.778,0,0,0-.54,2.952,2.532,2.532,0,0,1-1.83,2.119c-.975.128-1.83-.7-2.434-1.506a32.079,32.079,0,0,1-4.311-9.468,44.181,44.181,0,0,0-3.885-9.678c-1.812-2.97-4.576-5.537-7.93-6.274s-7.322.792-8.722,3.995,0,6.924,1.711,9.976a53.7,53.7,0,0,0,9.372,12.282,4.554,4.554,0,0,1,1.528,2.288c.265,1.666-1.487,3-3.135,3.272-1.862.307-3.757-.183-5.647-.256s-4.022.421-5,2.059c-1.373,2.288.265,5.144,2,7.13a45.94,45.94,0,0,0,12.2,9.9,15.436,15.436,0,0,1,4.608,3.226c1.213,1.455,1.725,3.725.609,5.263s-3.391,1.725-5.166,1.094-3.258-1.89-4.9-2.805c-3.066-1.753-7.322-2.2-9.862.288a7.62,7.62,0,0,0-1.858,6.526,17.538,17.538,0,0,0,2.668,6.443A46.22,46.22,0,0,0,57.57,236.8c7.162,3.83,14.062,5.665,22.029,4.118" transform="translate(-37.473 -124.426)" fill="#ebebeb"/><path d="M86.644,243.389c.384-5.752.641-2.769-.329-10.324a217.952,217.952,0,0,0-4.8-24.253l-1.588-6.3c-.526-2.064-1.043-4.118-1.679-6.086A107.271,107.271,0,0,0,73.954,185.3c-1.533-3.473-3.116-6.713-4.622-9.729s-2.961-5.816-4.407-8.3a85.637,85.637,0,0,0-7.656-11.193c-1-1.245-1.83-2.183-2.37-2.814l-.641-.714a1.571,1.571,0,0,0-.229-.233,1.743,1.743,0,0,0,.2.265c.151.183.352.426.6.741.535.645,1.322,1.606,2.288,2.865a90.609,90.609,0,0,1,7.519,11.243c1.419,2.485,2.855,5.272,4.352,8.287s3.052,6.265,4.576,9.733a107.768,107.768,0,0,1,4.247,11.106c.627,1.963,1.139,3.995,1.666,6.068s1.048,4.169,1.583,6.292a221.387,221.387,0,0,1,4.832,24.217c.979,7.532.764,4.517.421,10.25" transform="translate(-46.453 -126.161)" fill="#e0e0e0"/><path d="M106.68,218.254a5.157,5.157,0,0,0,.394-.979c.229-.636.531-1.565.883-2.723.714-2.316,1.588-5.542,2.54-9.1s1.872-6.773,2.618-9.065c.366-1.149.677-2.078.915-2.714a4.768,4.768,0,0,0,.3-1.011,5.034,5.034,0,0,0-.458.947c-.27.622-.627,1.533-1.034,2.677-.824,2.288-1.794,5.491-2.746,9.047s-1.771,6.7-2.416,9.152c-.293,1.094-.545,2.018-.746,2.746A4.374,4.374,0,0,0,106.68,218.254Z" transform="translate(-75.01 -148.041)" fill="#e0e0e0"/><path d="M41.89,225.48a6.529,6.529,0,0,0,1.2.343c.769.192,1.89.458,3.263.851,2.746.75,6.512,1.913,10.607,3.382s7.743,2.97,10.351,4.118c1.309.572,2.357,1.062,3.08,1.373a6.371,6.371,0,0,0,1.149.485,6.669,6.669,0,0,0-1.071-.641c-.7-.38-1.734-.915-3.029-1.524-2.581-1.231-6.223-2.778-10.328-4.256a109.073,109.073,0,0,0-10.681-3.267c-1.373-.343-2.521-.577-3.309-.718A6.953,6.953,0,0,0,41.89,225.48Z" transform="translate(-39.869 -165.842)" fill="#e0e0e0"/><path d="M124,284.062a2.839,2.839,0,0,0,.27-.339l.7-1.021c.6-.892,1.437-2.2,2.453-3.835,2.032-3.267,4.7-7.866,7.564-12.982s5.491-9.733,7.45-13.037c.961-1.6,1.748-2.924,2.334-3.9.252-.426.458-.778.631-1.066a1.611,1.611,0,0,0,.192-.389,2.837,2.837,0,0,0-.27.339l-.732,1.02c-.6.892-1.441,2.2-2.457,3.835-2.018,3.276-4.681,7.853-7.551,12.982s-5.491,9.733-7.45,13.037c-.961,1.6-1.748,2.924-2.334,3.9l-.627,1.066A1.55,1.55,0,0,0,124,284.062Z" transform="translate(-84.405 -177.78)" fill="#e0e0e0"/><path d="M39.78,284.7a1.624,1.624,0,0,0,.375.229l1.1.581,4.118,2.1c3.482,1.776,8.264,4.283,13.541,7.061s10.067,5.24,13.609,6.947c1.757.851,3.2,1.524,4.187,1.972l1.153.508a1.671,1.671,0,0,0,.412.146,1.624,1.624,0,0,0-.375-.229l-1.117-.581-4.118-2.1c-3.482-1.776-8.264-4.283-13.541-7.061s-10.067-5.244-13.6-6.947c-1.762-.851-3.2-1.524-4.192-1.972l-1.135-.517a1.668,1.668,0,0,0-.412-.137Z" transform="translate(-38.724 -197.963)" fill="#e0e0e0"/></g><g transform="translate(-9161.593 21807.541)"><path d="M63.924,269.061s3.158-2.132,7.1,5.432a98.933,98.933,0,0,1,5.455,11.934s1.039,1.583,2.123.531,2.553-4.018,4.421-3.5,2.59,2.677,2.251,5.844-.824,10.132-.865,10.758.32,1.524,1.171.915,5.743-6.146,8.237-3.661.105,11.143-.137,12.095-.055,1.373.4,1.588,1.922-1.789,3.377-3.309,3.409-3.034,4.727-1.483,1.8,8.031-4.274,18.62l-3.135,4.723-5.688-.261c-12.14-1.3-17.105-5.491-17.581-7.473s1.885-2.672,3.972-2.956,4.576-.288,4.663-.792-.137-.892-1.052-1.254-9.331-3.514-9.871-6.988,6.818-4.173,7.807-4.517.458-1.162-.064-1.492-6.457-4.032-9.216-5.619-4.118-3.373-3.409-5.253c.677-1.83,3.94-1.258,5.432-1.519s.815-2.032.815-2.032a97.327,97.327,0,0,1-6.457-11.44c-3.8-7.656-.133-8.955-.133-8.955" transform="translate(-62.4 -268.784)" fill="#ffc967"/><path d="M73.48,284.18a1.377,1.377,0,0,1,.078.133l.215.407.8,1.56,2.929,5.757c2.494,4.86,5.949,11.555,9.724,18.954S94.466,325.1,96.9,329.978c1.208,2.435,2.183,4.411,2.865,5.789l.764,1.579.2.416c.041.092.059.142.059.142a1.112,1.112,0,0,1-.082-.133l-.211-.4c-.192-.371-.458-.915-.8-1.565-.7-1.373-1.7-3.331-2.929-5.757-2.453-4.86-5.917-11.559-9.729-18.95s-7.235-14.113-9.656-18.991L74.5,286.317c-.325-.677-.581-1.208-.764-1.579-.082-.174-.146-.311-.192-.416A.536.536,0,0,1,73.48,284.18Z" transform="translate(-68.41 -277.135)" fill="#263238"/><path d="M100.438,310.1a11.289,11.289,0,0,1-.316,1.492c-.22.975-.5,2.21-.819,3.583s-.613,2.659-.851,3.574c-.124.458-.229.819-.311,1.071a1.373,1.373,0,0,1-.151.38,14.615,14.615,0,0,1,.311-1.492l.792-3.588c.32-1.4.632-2.663.883-3.574.128-.458.238-.819.32-1.066A1.4,1.4,0,0,1,100.438,310.1Z" transform="translate(-81.704 -291.193)" fill="#263238"/><path d="M83.149,328.613c0,.055-2.618-.613-5.812-1.5s-5.766-1.647-5.748-1.707,2.613.613,5.807,1.5S83.163,328.554,83.149,328.613Z" transform="translate(-67.384 -299.493)" fill="#263238"/><path d="M100.323,359.88a1.569,1.569,0,0,1-.416.059c-.265.027-.654.055-1.135.078-.961.046-2.288.078-3.762.037s-2.791-.146-3.748-.247c-.458-.05-.865-.1-1.135-.142a1.5,1.5,0,0,1-.407-.087,12.413,12.413,0,0,1,1.551.073c.961.064,2.288.142,3.748.183s2.787.037,3.748.027A12.1,12.1,0,0,1,100.323,359.88Z" transform="translate(-77.218 -318.029)" fill="#263238"/><path d="M117.5,341.34a9.336,9.336,0,0,1-.636,1.29c-.421.783-1.011,1.858-1.675,3.039s-1.277,2.247-1.73,3.011a9.15,9.15,0,0,1-.773,1.213,9.332,9.332,0,0,1,.636-1.29c.421-.783,1.011-1.858,1.675-3.039s1.277-2.247,1.73-3.007A9.448,9.448,0,0,1,117.5,341.34Z" transform="translate(-89.677 -308.138)" fill="#263238"/><path d="M133.059,364.1a1.992,1.992,0,0,1-.206.458l-.645,1.185c-.549.993-1.323,2.361-2.187,3.867s-1.661,2.865-2.247,3.839c-.275.458-.513.837-.7,1.153a2.023,2.023,0,0,1-.284.4,2.139,2.139,0,0,1,.206-.458l.645-1.185c.549-1,1.322-2.366,2.187-3.871s1.661-2.86,2.247-3.835l.7-1.153A2.487,2.487,0,0,1,133.059,364.1Z" transform="translate(-97.324 -320.483)" fill="#263238"/><path d="M111.07,386.362a2.126,2.126,0,0,1-.526.046c-.343,0-.837.023-1.446.027-1.217,0-2.906,0-4.764-.124s-3.542-.261-4.75-.4c-.609-.069-1.1-.137-1.432-.188a2.288,2.288,0,0,1-.522-.105,2.91,2.91,0,0,1,.531,0l1.437.119c1.213.105,2.892.238,4.745.339s3.537.156,4.755.188l1.446.041a2.71,2.71,0,0,1,.526.059Z" transform="translate(-81.508 -332.146)" fill="#263238"/></g><g transform="matrix(1, 0, 0, 1, -9173, 21718.11)" filter="url(#a)"><rect width="102.3" height="159.999" transform="translate(41.7 5.5)" fill="#fafafa"/></g><path d="M171.245,137.765H158.1a1.647,1.647,0,0,1-1.647-1.643v-18.2a1.647,1.647,0,0,1,1.647-1.643h8.338l6.452,6.649v13.193a1.643,1.643,0,0,1-1.643,1.643Z" transform="translate(-9275.195 21621.475)" fill="#cb1218"/><path d="M178.27,116.28V121.4a1.533,1.533,0,0,0,1.528,1.528h4.924Z" transform="translate(-9287.049 21621.475)" fill="#ff725e"/><path d="M178.42,128.45a1.7,1.7,0,0,0,1.345,1.652l.165.037c.641.114,4.874.865,4.874.769v-1.373H179.88S178.653,129.489,178.42,128.45Z" transform="translate(-9287.129 21614.875)" opacity="0.2"/><path d="M178.27,116.28V121.4a1.533,1.533,0,0,0,1.528,1.528h4.924Z" transform="translate(-9287.047 21621.475)" fill="#fff" opacity="0.3"/><path d="M168.652,126.842a38.92,38.92,0,0,1-6.082,0,38.915,38.915,0,0,1,6.082,0Z" transform="translate(-9278.509 21615.818)" fill="#fafafa"/><path d="M172.578,133.2c0,.064-2.238.119-5,.119s-5.006-.055-5.006-.119,2.242-.119,5.006-.119S172.578,133.13,172.578,133.2Z" transform="translate(-9278.515 21612.361)" fill="#fafafa"/><path d="M173.479,138.479c0,.069-2.439.119-5.455.119s-5.455-.05-5.455-.119,2.444-.119,5.455-.119S173.479,138.415,173.479,138.479Z" transform="translate(-9278.516 21609.5)" fill="#fafafa"/><path d="M173.479,143.469c0,.064-2.439.119-5.455.119s-5.455-.055-5.455-.119,2.444-.119,5.455-.119S173.479,143.4,173.479,143.469Z" transform="translate(-9278.516 21606.791)" fill="#fafafa"/><path d="M173.479,148.449c0,.069-2.439.119-5.455.119s-5.455-.05-5.455-.119,2.444-.119,5.455-.119S173.479,148.385,173.479,148.449Z" transform="translate(-9278.516 21604.092)" fill="#fafafa"/><path d="M173.479,153.439c0,.064-2.439.119-5.455.119s-5.455-.055-5.455-.119,2.444-.119,5.455-.119S173.479,153.37,173.479,153.439Z" transform="translate(-9278.516 21601.385)" fill="#fafafa"/><g transform="translate(-9116.883 21773.037)"><g transform="translate(50.465 12.561)" opacity="0.3"><path d="M294.767,220.83c-4.379,11.857-12.255,18.483-23.407,24.423a41.07,41.07,0,0,0,18.391-6.736" transform="translate(-271.36 -220.83)"/></g><path d="M270.523,243.672a13.688,13.688,0,0,1-2.375-.956,13.966,13.966,0,0,1-2.288-1.176,14.146,14.146,0,0,1,2.375.956,13.964,13.964,0,0,1,2.288,1.176Z" transform="translate(-217.912 -219.501)" fill="#fafafa"/><path d="M259.706,263.947A8.613,8.613,0,0,1,257.1,262.8a8.371,8.371,0,0,1-2.238-1.766c.046-.055,1.02.764,2.357,1.565S259.734,263.879,259.706,263.947Z" transform="translate(-211.945 -230.075)" fill="#fafafa"/><path d="M245.793,247.023a19.314,19.314,0,0,1-1.949,2.288,19.68,19.68,0,0,1-2.123,2.151A38.646,38.646,0,0,1,245.793,247Z" transform="translate(-204.818 -222.463)" fill="#fafafa"/><path d="M244.751,225.373a6.7,6.7,0,0,1-2.137-1.194,6.923,6.923,0,0,1-1.743-1.711c.05-.05.819.723,1.89,1.519S244.783,225.314,244.751,225.373Z" transform="translate(-204.357 -209.155)" fill="#fafafa"/><path d="M237.472,232.64a5.778,5.778,0,0,1-.975,1.336,5.947,5.947,0,0,1-1.158,1.185A11.552,11.552,0,0,1,237.472,232.64Z" transform="translate(-201.358 -214.674)" fill="#fafafa"/><path d="M255.542,198.8a18.735,18.735,0,0,1-1.789,2.37,18.1,18.1,0,0,1-1.972,2.224,18.951,18.951,0,0,1,1.789-2.375A18.7,18.7,0,0,1,255.542,198.8Z" transform="translate(-210.275 -196.32)" fill="#fafafa"/><path d="M238.466,197.622a33.579,33.579,0,0,1-3.716-4.242,16.639,16.639,0,0,1,1.949,2.041A16.929,16.929,0,0,1,238.466,197.622Z" transform="translate(-201.038 -193.38)" fill="#fafafa"/><path d="M231.621,217.249c0,.069-15.792.119-35.268.119s-35.273-.05-35.273-.119,15.792-.119,35.273-.119S231.621,217.185,231.621,217.249Z" transform="translate(-161.08 -206.262)" fill="#263238"/><path d="M231.621,228.919c0,.064-15.792.119-35.268.119s-35.273-.055-35.273-.119,15.792-.119,35.273-.119S231.621,228.85,231.621,228.919Z" transform="translate(-161.08 -212.591)" fill="#263238"/><path d="M231.621,240.579c0,.069-15.792.119-35.268.119s-35.273-.05-35.273-.119,15.792-.119,35.273-.119S231.621,240.515,231.621,240.579Z" transform="translate(-161.08 -218.916)" fill="#263238"/><path d="M231.621,252.249c0,.064-15.792.119-35.268.119s-35.273-.055-35.273-.119,15.792-.119,35.273-.119S231.621,252.18,231.621,252.249Z" transform="translate(-161.08 -225.245)" fill="#263238"/><path d="M231.621,263.909c0,.069-15.792.119-35.268.119s-35.273-.05-35.273-.119,15.792-.119,35.273-.119S231.621,263.845,231.621,263.909Z" transform="translate(-161.08 -231.57)" fill="#263238"/><path d="M231.621,275.579c0,.064-15.792.119-35.268.119s-35.273-.055-35.273-.119,15.792-.119,35.273-.119S231.621,275.51,231.621,275.579Z" transform="translate(-161.08 -237.899)" fill="#263238"/><path d="M70.541.119c0,.064-15.792.119-35.268.119S0,.183,0,.119,15.792,0,35.273,0,70.541.064,70.541.119Z" transform="translate(70.541 53.486) rotate(180)" fill="#263238"/><path d="M231.621,319.859c0,.064-15.792.119-35.268.119s-35.273-.055-35.273-.119,15.792-.119,35.273-.119S231.621,319.8,231.621,319.859Z" transform="translate(-161.08 -261.152)" fill="#263238"/><path d="M70.541.119c0,.069-15.792.119-35.268.119S0,.188,0,.119,15.792,0,35.273,0,70.541.055,70.541.119Z" transform="translate(70.541 48.909) rotate(180)" fill="#e0e0e0"/><path d="M231.621,329.859c0,.069-15.792.119-35.268.119s-35.273-.05-35.273-.119,15.792-.119,35.273-.119S231.621,329.795,231.621,329.859Z" transform="translate(-161.08 -266.576)" fill="#e0e0e0"/><path d="M70.541.119c0,.064-15.792.119-35.268.119S0,.183,0,.119,15.792,0,35.273,0,70.541.046,70.541.119Z" transform="translate(70.541 44.333) rotate(180)" fill="#ebebeb"/><path d="M231.621,339.859c0,.064-15.792.119-35.268.119s-35.273-.055-35.273-.119,15.792-.119,35.273-.119S231.621,339.786,231.621,339.859Z" transform="translate(-161.08 -272)" fill="#ebebeb"/></g><path d="M3.656-6.366A2.229,2.229,0,0,1,2-6.963a2.322,2.322,0,0,1-.593-1.71v-2.892H2.36v2.855q0,1.508,1.3,1.508t1.3-1.508v-2.855H5.9v2.892a2.331,2.331,0,0,1-.589,1.71A2.216,2.216,0,0,1,3.656-6.366Zm5.652-4.027a2.075,2.075,0,0,1,1.021.249,1.8,1.8,0,0,1,.707.7,2.093,2.093,0,0,1,.256,1.047,2.114,2.114,0,0,1-.256,1.051,1.789,1.789,0,0,1-.707.707,2.075,2.075,0,0,1-1.021.249,1.578,1.578,0,0,1-1.252-.527v1.9H7.141v-5.33h.871v.513a1.416,1.416,0,0,1,.56-.417A1.891,1.891,0,0,1,9.308-10.393Zm-.1,3.222a1.106,1.106,0,0,0,.831-.337,1.22,1.22,0,0,0,.326-.886,1.22,1.22,0,0,0-.326-.886,1.106,1.106,0,0,0-.831-.337,1.177,1.177,0,0,0-.593.15,1.085,1.085,0,0,0-.417.428,1.31,1.31,0,0,0-.154.644A1.31,1.31,0,0,0,8.2-7.75a1.085,1.085,0,0,0,.417.428A1.177,1.177,0,0,0,9.206-7.171Zm6.787-4.7v5.433h-.879v-.505a1.416,1.416,0,0,1-.56.417,1.891,1.891,0,0,1-.736.139A2.06,2.06,0,0,1,12.8-6.637a1.789,1.789,0,0,1-.707-.707,2.114,2.114,0,0,1-.256-1.051A2.093,2.093,0,0,1,12.1-9.441a1.8,1.8,0,0,1,.707-.7,2.06,2.06,0,0,1,1.014-.249,1.859,1.859,0,0,1,.71.132,1.429,1.429,0,0,1,.549.4v-2.006Zm-2.065,4.7a1.177,1.177,0,0,0,.593-.15,1.085,1.085,0,0,0,.417-.428,1.31,1.31,0,0,0,.154-.644,1.31,1.31,0,0,0-.154-.644,1.085,1.085,0,0,0-.417-.428,1.177,1.177,0,0,0-.593-.15,1.177,1.177,0,0,0-.593.15,1.085,1.085,0,0,0-.417.428,1.31,1.31,0,0,0-.154.644,1.31,1.31,0,0,0,.154.644,1.085,1.085,0,0,0,.417.428A1.177,1.177,0,0,0,13.928-7.171Zm4.759-3.222a1.906,1.906,0,0,1,1.322.414,1.6,1.6,0,0,1,.458,1.248v2.292H19.6v-.476a1.065,1.065,0,0,1-.48.392,1.875,1.875,0,0,1-.75.135,1.839,1.839,0,0,1-.769-.15,1.188,1.188,0,0,1-.509-.417,1.059,1.059,0,0,1-.179-.6,1.035,1.035,0,0,1,.392-.846,1.945,1.945,0,0,1,1.234-.318h1.01v-.059a.8.8,0,0,0-.245-.63,1.061,1.061,0,0,0-.729-.22,2.1,2.1,0,0,0-.648.1,1.592,1.592,0,0,0-.538.286l-.359-.666a2.222,2.222,0,0,1,.739-.359A3.29,3.29,0,0,1,18.687-10.393Zm-.124,3.339a1.182,1.182,0,0,0,.611-.157.857.857,0,0,0,.377-.45v-.454h-.945q-.791,0-.791.52a.467.467,0,0,0,.2.4A.906.906,0,0,0,18.563-7.054Zm5.425.4a1.077,1.077,0,0,1-.392.2,1.764,1.764,0,0,1-.487.066,1.382,1.382,0,0,1-1-.337,1.3,1.3,0,0,1-.351-.981V-9.588h-.644v-.732h.644v-.893h.915v.893h1.047v.732H22.678v1.86a.619.619,0,0,0,.139.436.522.522,0,0,0,.4.15.8.8,0,0,0,.513-.161Zm4.3-1.721q0,.1-.015.271H25.2a1.063,1.063,0,0,0,.421.685,1.38,1.38,0,0,0,.846.253,1.425,1.425,0,0,0,1.062-.425l.491.564a1.653,1.653,0,0,1-.666.476,2.427,2.427,0,0,1-.908.161,2.416,2.416,0,0,1-1.135-.256,1.846,1.846,0,0,1-.758-.714,2.016,2.016,0,0,1-.267-1.036,2.046,2.046,0,0,1,.26-1.029,1.844,1.844,0,0,1,.721-.714,2.1,2.1,0,0,1,1.04-.256,2.051,2.051,0,0,1,1.021.253,1.789,1.789,0,0,1,.7.71A2.154,2.154,0,0,1,28.286-8.372ZM26.309-9.661a1.1,1.1,0,0,0-.743.26,1.093,1.093,0,0,0-.37.692h2.218a1.079,1.079,0,0,0-.359-.688A1.091,1.091,0,0,0,26.309-9.661ZM4.805,2.255,3.758.754a1.952,1.952,0,0,1-.2.007H2.4V2.255H1.452V-2.87H3.561a2.837,2.837,0,0,1,1.161.22,1.687,1.687,0,0,1,.758.63,1.762,1.762,0,0,1,.264.974,1.737,1.737,0,0,1-.282,1,1.677,1.677,0,0,1-.809.622L5.83,2.255Zm-.022-3.3A.919.919,0,0,0,4.461-1.8a1.462,1.462,0,0,0-.945-.264H2.4V-.022H3.517a1.448,1.448,0,0,0,.945-.267A.929.929,0,0,0,4.783-1.047ZM10.392.322q0,.1-.015.271H7.309a1.063,1.063,0,0,0,.421.685,1.38,1.38,0,0,0,.846.253,1.425,1.425,0,0,0,1.062-.425l.491.564a1.653,1.653,0,0,1-.666.476,2.427,2.427,0,0,1-.908.161A2.416,2.416,0,0,1,7.419,2.05a1.846,1.846,0,0,1-.758-.714A2.016,2.016,0,0,1,6.394.3a2.046,2.046,0,0,1,.26-1.029,1.844,1.844,0,0,1,.721-.714A2.1,2.1,0,0,1,8.415-1.7a2.051,2.051,0,0,1,1.021.253,1.789,1.789,0,0,1,.7.71A2.154,2.154,0,0,1,10.392.322ZM8.415-.966a1.1,1.1,0,0,0-.743.26,1.093,1.093,0,0,0-.37.692H9.521A1.079,1.079,0,0,0,9.162-.7,1.091,1.091,0,0,0,8.415-.966Zm6.677-.688v5.33h-.915v-1.9a1.578,1.578,0,0,1-1.252.527A2.075,2.075,0,0,1,11.9,2.058a1.771,1.771,0,0,1-.7-.7A2.133,2.133,0,0,1,10.948.3,2.093,2.093,0,0,1,11.2-.747a1.8,1.8,0,0,1,.7-.7A2.055,2.055,0,0,1,12.925-1.7a1.891,1.891,0,0,1,.736.139,1.416,1.416,0,0,1,.56.417v-.513ZM13.028,1.523a1.118,1.118,0,0,0,.835-.337A1.213,1.213,0,0,0,14.192.3a1.213,1.213,0,0,0-.329-.886,1.118,1.118,0,0,0-.835-.337,1.106,1.106,0,0,0-.831.337A1.22,1.22,0,0,0,11.871.3a1.22,1.22,0,0,0,.326.886A1.106,1.106,0,0,0,13.028,1.523Zm7.051-3.178v3.91h-.871v-.5a1.457,1.457,0,0,1-.549.406,1.767,1.767,0,0,1-.71.143,1.7,1.7,0,0,1-1.234-.436,1.719,1.719,0,0,1-.45-1.292V-1.654h.915V.454a1.133,1.133,0,0,0,.238.787.872.872,0,0,0,.677.26,1.026,1.026,0,0,0,.78-.3,1.221,1.221,0,0,0,.289-.875V-1.654ZM24.955.322q0,.1-.015.271H21.872a1.063,1.063,0,0,0,.421.685,1.38,1.38,0,0,0,.846.253A1.425,1.425,0,0,0,24.2,1.106l.491.564a1.653,1.653,0,0,1-.666.476,2.427,2.427,0,0,1-.908.161,2.416,2.416,0,0,1-1.135-.256,1.846,1.846,0,0,1-.758-.714A2.016,2.016,0,0,1,20.957.3a2.046,2.046,0,0,1,.26-1.029,1.844,1.844,0,0,1,.721-.714,2.1,2.1,0,0,1,1.04-.256A2.051,2.051,0,0,1,24-1.446a1.789,1.789,0,0,1,.7.71A2.154,2.154,0,0,1,24.955.322ZM22.978-.966a1.1,1.1,0,0,0-.743.26,1.093,1.093,0,0,0-.37.692h2.218A1.079,1.079,0,0,0,23.725-.7,1.091,1.091,0,0,0,22.978-.966Zm4.064,3.273a3.5,3.5,0,0,1-.93-.124,2.34,2.34,0,0,1-.725-.315l.351-.7a2.259,2.259,0,0,0,.633.282,2.631,2.631,0,0,0,.729.106q.82,0,.82-.432a.289.289,0,0,0-.209-.286,3.6,3.6,0,0,0-.67-.154A5.435,5.435,0,0,1,26.254.52a1.208,1.208,0,0,1-.527-.333A.93.93,0,0,1,25.5-.476a1.042,1.042,0,0,1,.465-.89A2.116,2.116,0,0,1,27.225-1.7a3.624,3.624,0,0,1,.805.092,2.258,2.258,0,0,1,.659.245l-.351.7a2.168,2.168,0,0,0-1.12-.293,1.242,1.242,0,0,0-.611.121A.36.36,0,0,0,26.4-.52a.318.318,0,0,0,.223.311,3.549,3.549,0,0,0,.692.172,5.339,5.339,0,0,1,.769.168A1.2,1.2,0,0,1,28.6.454a.9.9,0,0,1,.216.644,1.02,1.02,0,0,1-.476.879A2.244,2.244,0,0,1,27.042,2.307Zm4.913-.264a1.077,1.077,0,0,1-.392.2,1.764,1.764,0,0,1-.487.066,1.382,1.382,0,0,1-1-.337,1.3,1.3,0,0,1-.351-.981V-.893h-.644v-.732h.644v-.893h.915v.893h1.047v.732H30.644V.967a.619.619,0,0,0,.139.436.522.522,0,0,0,.4.15.8.8,0,0,0,.513-.161Z" transform="translate(-9099.013 21754.24)" fill="#333"/><path d="M0,1.663H7.066a10.14,10.14,0,0,1,4.6,1,7.434,7.434,0,0,1,3.117,2.84,8.036,8.036,0,0,1,1.108,4.237,8.036,8.036,0,0,1-1.108,4.237,7.434,7.434,0,0,1-3.117,2.84,10.14,10.14,0,0,1-4.6,1H0ZM6.927,15.287a6.86,6.86,0,0,0,3.129-.681,4.874,4.874,0,0,0,2.078-1.94,5.733,5.733,0,0,0,.727-2.921,5.733,5.733,0,0,0-.727-2.921,4.874,4.874,0,0,0-2.078-1.94A6.86,6.86,0,0,0,6.927,4.2H3V15.287Zm23.461-3.556q0,.3-.046.854H20.667a3.354,3.354,0,0,0,1.328,2.159,4.352,4.352,0,0,0,2.667.8A4.5,4.5,0,0,0,28.01,14.2l1.547,1.778a5.213,5.213,0,0,1-2.1,1.5,7.654,7.654,0,0,1-2.863.508,7.62,7.62,0,0,1-3.579-.808,5.821,5.821,0,0,1-2.39-2.251,6.358,6.358,0,0,1-.843-3.267,6.452,6.452,0,0,1,.82-3.244,5.815,5.815,0,0,1,2.275-2.251,6.636,6.636,0,0,1,3.279-.808,6.47,6.47,0,0,1,3.221.8,5.642,5.642,0,0,1,2.217,2.24A6.792,6.792,0,0,1,30.389,11.731ZM24.154,7.666a3.411,3.411,0,0,0-3.51,3h7A3.4,3.4,0,0,0,26.509,8.5,3.441,3.441,0,0,0,24.154,7.666ZM38.817,17.988a7.229,7.229,0,0,1-3.441-.808A5.935,5.935,0,0,1,33,14.929a6.291,6.291,0,0,1-.854-3.267A6.23,6.23,0,0,1,33,8.405a5.979,5.979,0,0,1,2.367-2.24,7.211,7.211,0,0,1,3.452-.808,6.651,6.651,0,0,1,3.2.739,4.794,4.794,0,0,1,2.067,2.124L41.865,9.514a3.521,3.521,0,0,0-1.328-1.282,3.875,3.875,0,0,0-4.422.623,3.769,3.769,0,0,0-1.062,2.806A3.792,3.792,0,0,0,36.1,14.467a3.893,3.893,0,0,0,4.434.623,3.521,3.521,0,0,0,1.328-1.282L44.082,15.1a5,5,0,0,1-2.09,2.136A6.518,6.518,0,0,1,38.817,17.988ZM46.46.693h2.886V17.827H46.46Zm6.673,4.8H56.02V17.827H53.134Zm1.455-2.032a1.854,1.854,0,0,1-1.316-.5,1.622,1.622,0,0,1-.531-1.235A1.622,1.622,0,0,1,53.272.5,1.854,1.854,0,0,1,54.589,0,1.906,1.906,0,0,1,55.9.473a1.526,1.526,0,0,1,.531,1.189,1.741,1.741,0,0,1-.52,1.282A1.8,1.8,0,0,1,54.589,3.464ZM66.8,5.357A5.153,5.153,0,0,1,70.545,6.72a5.374,5.374,0,0,1,1.409,4.041v7.066H69.067v-6.7a3.462,3.462,0,0,0-.762-2.436,2.817,2.817,0,0,0-2.171-.82,3.332,3.332,0,0,0-2.517.958,3.82,3.82,0,0,0-.924,2.759v6.235H59.807V5.5h2.748V7.089a4.513,4.513,0,0,1,1.8-1.293A6.482,6.482,0,0,1,66.8,5.357Zm20.528,6.373q0,.3-.046.854H77.611a3.354,3.354,0,0,0,1.328,2.159,4.352,4.352,0,0,0,2.667.8A4.5,4.5,0,0,0,84.954,14.2L86.5,15.979a5.213,5.213,0,0,1-2.1,1.5,8.327,8.327,0,0,1-6.443-.3,5.821,5.821,0,0,1-2.39-2.251,6.358,6.358,0,0,1-.843-3.267,6.452,6.452,0,0,1,.82-3.244,5.815,5.815,0,0,1,2.275-2.251A6.636,6.636,0,0,1,81.1,5.357a6.47,6.47,0,0,1,3.221.8,5.642,5.642,0,0,1,2.217,2.24A6.792,6.792,0,0,1,87.333,11.731ZM81.1,7.666a3.411,3.411,0,0,0-3.51,3h7A3.4,3.4,0,0,0,83.453,8.5,3.441,3.441,0,0,0,81.1,7.666ZM102.181.693V17.827H99.41V16.233a4.466,4.466,0,0,1-1.767,1.316,5.965,5.965,0,0,1-2.321.439,6.5,6.5,0,0,1-3.2-.785A5.641,5.641,0,0,1,89.9,14.975a6.666,6.666,0,0,1-.808-3.314,6.6,6.6,0,0,1,.808-3.3,5.662,5.662,0,0,1,2.228-2.217,6.5,6.5,0,0,1,3.2-.785,5.862,5.862,0,0,1,2.24.416A4.505,4.505,0,0,1,99.294,7.02V.693ZM95.669,15.518a3.712,3.712,0,0,0,1.87-.473,3.421,3.421,0,0,0,1.316-1.351,4.133,4.133,0,0,0,.485-2.032,4.133,4.133,0,0,0-.485-2.032,3.421,3.421,0,0,0-1.316-1.351,3.932,3.932,0,0,0-3.741,0,3.421,3.421,0,0,0-1.316,1.351A4.133,4.133,0,0,0,92,11.661a4.133,4.133,0,0,0,.485,2.032A3.421,3.421,0,0,0,93.8,15.044,3.712,3.712,0,0,0,95.669,15.518Z" transform="translate(-9126.992 21829.896) rotate(-36)" fill="#cb1218"/></g></svg>