<svg xmlns="http://www.w3.org/2000/svg" width="23" height="30" viewBox="0 0 23 30">
  <path id="delete-icon" d="M5618.023,13491a4.919,4.919,0,0,1-4.967-4.858v-15.762a1.018,1.018,0,0,1,1.031-1.008h18.827a1.018,1.018,0,0,1,1.031,1.008v15.762a4.92,4.92,0,0,1-4.968,4.858Zm7.956-15.555v9.479a1.268,1.268,0,0,0,2.535,0v-9.479a1.268,1.268,0,0,0-2.535,0Zm-7.492,0v9.479a1.268,1.268,0,0,0,2.535,0v-9.479a1.268,1.268,0,0,0-2.535,0Zm-5.839-7.234a.64.64,0,0,1-.646-.63v-1.96a3.091,3.091,0,0,1,3.12-3.054h4.494v-.381a1.2,1.2,0,0,1,1.215-1.187h5.341a1.2,1.2,0,0,1,1.215,1.187v.381h4.494a3.091,3.091,0,0,1,3.12,3.054v1.96a.642.642,0,0,1-.648.63Z" transform="translate(-5612.001 -13461.004)" fill="#86241d"/>
</svg>
