<svg xmlns="http://www.w3.org/2000/svg" width="330.003" height="180" viewBox="0 0 330.003 180">
  <g id="discussion-is-empty-illustration" transform="translate(0.018)">
    <g id="freepik--background-complete--inject-2">
      <path id="Path_17668" data-name="Path 17668" d="M60.38,299.99c11.9-5.554,16.576-18.77,18.213-31.082.271-2.056.861-4.174.176-6.13s-2.775-3.569-4.759-3.017c-1.661.476-2.627,2.108-3.731,3.427a12.2,12.2,0,0,1-5.625,3.765,4.669,4.669,0,0,1-4.317-.333c-1.623-1.271-1.428-3.741-1.071-5.773q1-5.673,1.98-11.351a18.948,18.948,0,0,0,.4-6.139,6.405,6.405,0,0,0-3.3-4.935c-1.875-.871-4.478-.157-5.235,1.761a17.866,17.866,0,0,0-.476,2.522,2.16,2.16,0,0,1-1.609,1.8,2.554,2.554,0,0,1-2.1-1.309,27.448,27.448,0,0,1-3.688-8.148,37.155,37.155,0,0,0-3.331-8.324,11.458,11.458,0,0,0-6.848-5.44c-2.922-.681-6.363.609-7.591,3.331s0,5.93,1.428,8.567a46.416,46.416,0,0,0,8.057,10.6,3.819,3.819,0,0,1,1.318,1.97c.219,1.428-1.309,2.556-2.737,2.775-1.623.247-3.26-.19-4.9-.271s-3.493.328-4.355,1.723c-1.19,1.937.2,4.407,1.694,6.125a40.048,40.048,0,0,0,10.542,8.566,13.631,13.631,0,0,1,3.983,2.8c1.047,1.252,1.475,3.208.5,4.512s-2.951,1.452-4.493.9a27.728,27.728,0,0,1-4.231-2.46c-2.656-1.528-6.339-1.947-8.567.162a6.457,6.457,0,0,0-1.647,5.573,15.087,15.087,0,0,0,2.28,5.544,40.1,40.1,0,0,0,14.939,14.554c6.187,3.341,12.169,4.973,19.089,3.707" transform="translate(-23.974 -145.618)" fill="#ebebeb"/>
      <path id="Path_17669" data-name="Path 17669" d="M66.062,293.13a183.084,183.084,0,0,0-4.036-20.83l-1.342-5.411c-.443-1.775-.88-3.531-1.428-5.235A92.583,92.583,0,0,0,55.6,252.1c-1.314-2.989-2.665-5.778-3.955-8.376s-2.537-4.992-3.774-7.139a74.354,74.354,0,0,0-6.563-9.656c-.866-1.076-1.561-1.9-2.037-2.437-.233-.262-.419-.476-.547-.619a2.459,2.459,0,0,0-.2-.2s.052.076.171.224l.524.638c.476.557,1.142,1.385,1.989,2.47a77.923,77.923,0,0,1,6.468,9.69c1.218,2.142,2.456,4.54,3.736,7.139s2.618,5.392,3.922,8.376a94.531,94.531,0,0,1,3.627,9.518c.533,1.689.952,3.436,1.428,5.211l1.333,5.435a186.38,186.38,0,0,1,4.05,20.793" transform="translate(-31.603 -146.963)" fill="#e0e0e0"/>
      <path id="Path_17670" data-name="Path 17670" d="M82,279.349a4.927,4.927,0,0,0,.333-.838c.2-.543.476-1.342.771-2.332.623-1.975,1.4-4.731,2.242-7.776s1.666-5.782,2.332-7.738c.328-.98.6-1.77.8-2.313a4.282,4.282,0,0,0,.276-.861,5.382,5.382,0,0,0-.385.814c-.238.533-.547,1.314-.9,2.284-.719,1.946-1.575,4.683-2.422,7.734s-1.618,5.749-2.175,7.8l-.681,2.356a4.681,4.681,0,0,0-.191.87Z" transform="translate(-54.384 -164.716)" fill="#e0e0e0"/>
      <path id="Path_17671" data-name="Path 17671" d="M28,283.848a.829.829,0,0,0,.267.09l.771.2c.671.167,1.642.409,2.832.747,2.38.657,5.644,1.685,9.19,2.979s6.7,2.613,8.957,3.631c1.128.5,2.032.952,2.66,1.228l.719.338a.9.9,0,0,0,.267.1.952.952,0,0,0-.233-.152l-.681-.39c-.609-.328-1.5-.8-2.622-1.323-2.232-1.071-5.387-2.422-8.938-3.722a96.844,96.844,0,0,0-9.242-2.9c-1.2-.314-2.18-.523-2.856-.657l-.785-.143a1.03,1.03,0,0,0-.3-.029Z" transform="translate(-26.084 -178.526)" fill="#e0e0e0"/>
      <path id="Path_17672" data-name="Path 17672" d="M95.94,334.157a1.78,1.78,0,0,0,.228-.3l.6-.89c.524-.761,1.256-1.9,2.142-3.27,1.775-2.784,4.107-6.7,6.625-11.06s4.821-8.286,6.544-11.1l2.056-3.331.557-.9a1.7,1.7,0,0,0,.176-.328,2.275,2.275,0,0,0-.228.29l-.59.909c-.524.757-1.256,1.875-2.142,3.27-1.775,2.779-4.107,6.7-6.625,11.06s-4.835,8.276-6.558,11.094l-2.056,3.331-.557.9a1.7,1.7,0,0,0-.176.319Z" transform="translate(-61.69 -188.528)" fill="#e0e0e0"/>
      <path id="Path_17673" data-name="Path 17673" d="M26,332.61a1.7,1.7,0,0,0,.328.19l.952.5,3.569,1.828c3.013,1.542,7.139,3.726,11.712,6.154s8.719,4.578,11.76,6.073c1.523.752,2.756,1.342,3.617,1.737l.995.452a1.745,1.745,0,0,0,.357.138,1.845,1.845,0,0,0-.328-.2l-.952-.5-3.569-1.823c-3.013-1.547-7.139-3.731-11.712-6.154s-8.719-4.583-11.76-6.077c-1.523-.747-2.756-1.342-3.617-1.737l-1-.447A1.748,1.748,0,0,0,26,332.61Z" transform="translate(-25.036 -204.057)" fill="#e0e0e0"/>
      <rect id="Rectangle_4389" data-name="Rectangle 4389" width="260.537" height="157.085" transform="translate(52.796)" fill="#f5f5f5"/>
      <rect id="Rectangle_4390" data-name="Rectangle 4390" width="260.537" height="157.085" transform="translate(44.706 8.091)" fill="#ebebeb"/>
    </g>
    <g id="freepik--Plants--inject-2" transform="translate(10.529 85.381)">
      <path id="Path_17674" data-name="Path 17674" d="M67.05,388.891a7.915,7.915,0,0,0-4.283,2.48,4.074,4.074,0,0,0-1.294,2.332,1.758,1.758,0,0,0,1.428,1.956,2.342,2.342,0,0,0,1.461-.609c1.033-.795,2.051-1.847,3.331-1.847.742,0,1.5.362,2.2.109a1.68,1.68,0,0,0,.985-1.766,2.856,2.856,0,0,0-1.071-1.818,3.246,3.246,0,0,0-2.757-.837Z" transform="translate(-54.152 -318.911)" fill="#d72027"/>
      <path id="Path_17675" data-name="Path 17675" d="M57.764,363.275c.052,1.6-1.632,2.318-2.77,2.175a6.687,6.687,0,0,1-3.032-1.547c-2.094-1.58-4.283-3.255-5.378-5.635a4.283,4.283,0,0,1-.476-2.275,2.246,2.246,0,0,1,1.275-1.842,3.214,3.214,0,0,1,2.66.443,18.465,18.465,0,0,1,6.187,5.235,6.59,6.59,0,0,1,1.509,3.446" transform="translate(-46.099 -300.652)" fill="#d72027"/>
      <path id="Path_17676" data-name="Path 17676" d="M73.2,357.492a4.759,4.759,0,0,1-3.222-3.074,8.462,8.462,0,0,1-.186-4.569,13.95,13.95,0,0,1,2.065-4.95,4.946,4.946,0,0,1,1.456-1.537,2.189,2.189,0,0,1,2.042-.209c.952.452,1.256,1.642,1.428,2.684a35.42,35.42,0,0,1,.352,5.544,8.079,8.079,0,0,1-.952,4.317c-.79,1.261-1.989,2.085-3.16,1.756" transform="translate(-58.394 -294.879)" fill="#d72027"/>
      <path id="Path_17677" data-name="Path 17677" d="M81.627,399.281a2.486,2.486,0,0,1-.424-.424l-1.1-1.2a22.665,22.665,0,0,0-1.723-1.68A17.855,17.855,0,0,0,76,394.245a10.384,10.384,0,0,0-2.67-1.171,5.321,5.321,0,0,0-2.38-.114,4.965,4.965,0,0,0-1.509.538,2.763,2.763,0,0,1-.524.286,2.812,2.812,0,0,1,.476-.371,4.692,4.692,0,0,1,1.523-.623,5.35,5.35,0,0,1,2.441.067,10.189,10.189,0,0,1,2.746,1.18,17.163,17.163,0,0,1,2.4,1.766,21,21,0,0,1,1.7,1.737c.476.519.8.952,1.042,1.256a2.642,2.642,0,0,1,.382.485Z" transform="translate(-58.059 -320.919)" fill="#263238"/>
      <path id="Path_17678" data-name="Path 17678" d="M73.447,383a1.858,1.858,0,0,1-.181-.209l-.476-.633c-.409-.547-1-1.342-1.77-2.3-1.518-1.9-3.265-3.9-5.82-6.62-2.408-2.56-5.259-5.5-7.282-7.282-.476-.409-.876-.771-1.247-1.08s-.69-.59-.952-.8l-.609-.5a1.283,1.283,0,0,1-.2-.19,1.464,1.464,0,0,1,.233.152l.633.476c.281.2.609.476.985.771s.809.652,1.275,1.057a89.1,89.1,0,0,1,6.9,6.663,93.675,93.675,0,0,1,6.23,7.277c.747.952,1.323,1.78,1.709,2.346.181.266.324.476.438.662a1.554,1.554,0,0,1,.134.21Z" transform="translate(-50.716 -305.564)" fill="#263238"/>
      <path id="Path_17679" data-name="Path 17679" d="M80.214,371.77a6.364,6.364,0,0,1-.476-.666c-.29-.438-.695-1.1-1.137-1.932a30.609,30.609,0,0,1-1.375-3.036,27.462,27.462,0,0,1-1.223-3.9,20.526,20.526,0,0,1-.543-7.372,9.735,9.735,0,0,1,.228-1.261c.043-.186.071-.357.114-.514s.1-.29.143-.419a5.832,5.832,0,0,1,.286-.771,25.846,25.846,0,0,0-.6,2.989,21.588,21.588,0,0,0,.595,7.291,30.156,30.156,0,0,0,1.2,3.869,32.785,32.785,0,0,0,1.318,3.032c.419.842.8,1.509,1.061,1.966a4.56,4.56,0,0,1,.409.724Z" transform="translate(-61.424 -299.548)" fill="#263238"/>
      <path id="Path_17680" data-name="Path 17680" d="M672.193,242.2s-2.927-2.127-6.92,4.926a93.879,93.879,0,0,0-5.568,11.151s-1.037,1.466-2.032.433-2.294-3.9-4.079-3.469c-1.856.443-2.546,2.456-2.332,5.473s.476,9.642.476,10.242-.357,1.428-1.147.842-5.235-6.025-7.7-3.755-.476,10.575-.267,11.489,0,1.285-.428,1.49-1.766-1.761-3.1-3.251-3.141-2.984-4.445-1.556-1.966,7.562,3.45,17.814l2.817,4.588,5.411-.062c11.56-.838,16.414-4.654,16.933-6.515s-1.7-2.6-3.674-2.941-4.34-.424-4.4-.9.162-.847,1.038-1.161,8.976-3.027,9.6-6.306-6.339-4.188-7.263-4.54-.4-1.123.1-1.428,6.263-3.617,8.933-5.03,4.017-3.07,3.412-4.873-3.7-1.328-5.107-1.623-.709-1.951-.709-1.951a93.684,93.684,0,0,0,6.506-10.632c3.864-7.124.419-8.5.419-8.5" transform="translate(-354.075 -241.897)" fill="#d72027"/>
      <path id="Path_17681" data-name="Path 17681" d="M671.818,255.79a1.409,1.409,0,0,1-.071.152q-.086.157-.228.443l-.9,1.689c-.785,1.471-1.932,3.588-3.365,6.187-2.856,5.235-6.863,12.4-11.317,20.307s-8.481,15.106-11.37,20.3c-1.428,2.6-2.6,4.7-3.412,6.163-.4.723-.709,1.285-.952,1.675l-.243.433c-.057.1-.09.148-.09.148a1.409,1.409,0,0,1,.071-.152l.228-.443.9-1.694c.785-1.466,1.932-3.584,3.365-6.187,2.856-5.235,6.863-12.374,11.317-20.312s8.476-15.082,11.365-20.284c1.428-2.6,2.6-4.7,3.412-6.187.4-.719.709-1.285.928-1.675l.247-.433C671.78,255.838,671.818,255.79,671.818,255.79Z" transform="translate(-357.284 -249.178)" fill="#263238"/>
      <path id="Path_17682" data-name="Path 17682" d="M678.92,278.5a1.379,1.379,0,0,1,.124.371c.067.238.157.59.262,1.028.2.871.476,2.08.719,3.417s.476,2.513.638,3.436c.081.4.148.752.2,1.037a1.832,1.832,0,0,1,.057.385,1.469,1.469,0,0,1-.129-.371c-.067-.238-.152-.59-.252-1.028-.2-.871-.438-2.085-.7-3.427s-.476-2.5-.666-3.427c-.076-.4-.148-.752-.2-1.038a1.834,1.834,0,0,1-.058-.383Z" transform="translate(-377.749 -261.08)" fill="#263238"/>
      <path id="Path_17683" data-name="Path 17683" d="M684.15,296.136c0-.052,2.456-.685,5.516-1.428s5.549-1.294,5.559-1.242-2.456.685-5.516,1.428S684.16,296.184,684.15,296.136Z" transform="translate(-380.49 -268.922)" fill="#263238"/>
      <path id="Path_17684" data-name="Path 17684" d="M668.62,323.988a1.9,1.9,0,0,1,.4,0l1.08.052c.909.038,2.17.09,3.56.1s2.651,0,3.56-.052l1.08-.033a1.9,1.9,0,0,1,.4,0,1.5,1.5,0,0,1-.4.067c-.252,0-.623.062-1.076.09-.914.067-2.175.119-3.569.109s-2.66-.081-3.569-.152c-.476-.038-.823-.076-1.076-.109A1.505,1.505,0,0,1,668.62,323.988Z" transform="translate(-372.351 -284.914)" fill="#263238"/>
      <path id="Path_17685" data-name="Path 17685" d="M659.8,306.39a1.278,1.278,0,0,1,.2.309c.114.2.281.5.476.876.4.738.952,1.77,1.542,2.913s1.118,2.18,1.49,2.936c.19.381.338.685.438.9a1.337,1.337,0,0,1,.133.343,1.607,1.607,0,0,1-.2-.309c-.119-.2-.281-.5-.476-.871-.4-.742-.952-1.775-1.537-2.917s-1.118-2.18-1.494-2.936c-.186-.376-.333-.685-.433-.9a1.514,1.514,0,0,1-.139-.344Z" transform="translate(-367.729 -275.697)" fill="#263238"/>
      <path id="Path_17686" data-name="Path 17686" d="M643.31,326.62a2.685,2.685,0,0,1,.252.4c.167.3.376.666.623,1.114.523.952,1.233,2.265,2,3.722s1.461,2.779,1.956,3.741c.228.476.424.842.571,1.147a2.522,2.522,0,0,1,.19.428,2.191,2.191,0,0,1-.252-.395l-.623-1.118c-.523-.952-1.233-2.261-2-3.717s-1.461-2.784-1.956-3.745l-.571-1.142a2.461,2.461,0,0,1-.19-.433Z" transform="translate(-359.086 -286.299)" fill="#263238"/>
      <path id="Path_17687" data-name="Path 17687" d="M654.94,347.912a2.479,2.479,0,0,1,.5,0h5.887c1.761,0,3.365-.109,4.521-.171l1.366-.071a3.151,3.151,0,0,1,.5,0,2.614,2.614,0,0,1-.476.076c-.319.038-.785.081-1.366.128-1.152.1-2.751.19-4.521.224s-3.37,0-4.526-.033c-.581-.024-1.047-.048-1.371-.071a3.33,3.33,0,0,1-.514-.082Z" transform="translate(-365.182 -297.325)" fill="#263238"/>
    </g>
    <g id="freepik--work-chat--inject-2" transform="translate(30.457 18.88)">
      <rect id="Rectangle_4391" data-name="Rectangle 4391" width="266.814" height="160.868" transform="translate(0.095 0.133)" fill="#fff"/>
      <path id="Path_17688" data-name="Path 17688" d="M355.607,135.859c0,.071-59.828.133-133.614.133s-133.623-.057-133.623-.133,59.813-.129,133.623-.129S355.607,135.792,355.607,135.859Z" transform="translate(-88.18 -119.834)" fill="#d72027"/>
      <g id="Group_9326" data-name="Group 9326" transform="translate(8.018 143.016)">
        <path id="Path_17689" data-name="Path 17689" d="M544.665,414.725h.171a2.164,2.164,0,0,0,.476-.043,5.735,5.735,0,0,0,1.861-.571,5.592,5.592,0,0,0,2.294-2.137,5.662,5.662,0,0,0,.709-1.9,8.349,8.349,0,0,0,.033-2.294,5.8,5.8,0,0,0-.909-2.38,5.712,5.712,0,0,0-2.108-1.847,5.49,5.49,0,0,0-1.428-.5,7.721,7.721,0,0,0-1.57-.114h-3.35l-15.829.024L305.046,403a5.573,5.573,0,0,0-5.516,4.988,11.536,11.536,0,0,0,0,1.623,5.978,5.978,0,0,0,.386,1.551,5.71,5.71,0,0,0,.809,1.375,5.559,5.559,0,0,0,2.58,1.789,9.452,9.452,0,0,0,3.16.286h30.72l41.21.029,156.09.038,7.553.029h0l-7.553.024-156.09.043H304.842a5.8,5.8,0,0,1-5.573-5.226,12.224,12.224,0,0,1,0-1.671,5.754,5.754,0,0,1,1.29-3.089,6.186,6.186,0,0,1,1.256-1.137,5.711,5.711,0,0,1,3.232-.98l219.968.038h19.2a8.118,8.118,0,0,1,1.6.119,6.106,6.106,0,0,1,1.428.514,5.711,5.711,0,0,1,3.06,4.331,8.38,8.38,0,0,1-.048,2.327,5.711,5.711,0,0,1-3.065,4.05,5.628,5.628,0,0,1-1.9.552,5.9,5.9,0,0,1-.625.122Z" transform="translate(-299.24 -402.67)" fill="#d72027"/>
        <path id="Path_17690" data-name="Path 17690" d="M314.244,412.933h-.9V412.7h2.08v.233h-.9v2.337h-.271Z" transform="translate(-306.629 -407.926)" fill="#263238"/>
        <path id="Path_17691" data-name="Path 17691" d="M319.37,414l-.952,2.165c-.162.376-.367.5-.643.5a.68.68,0,0,1-.476-.176l.124-.2a.476.476,0,0,0,.352.148c.171,0,.29-.081.4-.324l.086-.19-.866-1.9h.271l.728,1.642.728-1.642Z" transform="translate(-308.705 -408.608)" fill="#263238"/>
        <path id="Path_17692" data-name="Path 17692" d="M324.387,414.969a.952.952,0,0,1-.952.985.842.842,0,0,1-.733-.381v1.076h-.262v-2.665h.267v.381a.833.833,0,0,1,.742-.395.952.952,0,0,1,.938,1Zm-.257,0a.723.723,0,1,0-.723.752.714.714,0,0,0,.728-.752Z" transform="translate(-311.399 -408.591)" fill="#263238"/>
        <path id="Path_17693" data-name="Path 17693" d="M329.119,415.071H327.5a.714.714,0,0,0,.761.671.752.752,0,0,0,.59-.252l.148.171a1.023,1.023,0,0,1-1.761-.671.952.952,0,0,1,.952-.98.918.918,0,0,1,.952.98Zm-1.618-.2h1.371a.686.686,0,1,0-1.371,0Z" transform="translate(-313.913 -408.612)" fill="#263238"/>
        <path id="Path_17694" data-name="Path 17694" d="M337.525,414.815v1.118h-.262v-1.1c0-.409-.2-.619-.552-.619a.619.619,0,0,0-.614.714v1.014h-.262v-1.1c0-.409-.2-.619-.557-.619a.623.623,0,0,0-.647.7v1.014h-.262v-1.966h.252v.352a.785.785,0,0,1,.709-.366.7.7,0,0,1,.685.409.838.838,0,0,1,.766-.409.728.728,0,0,1,.742.847Z" transform="translate(-317.651 -408.59)" fill="#263238"/>
        <path id="Path_17695" data-name="Path 17695" d="M344,415.071h-1.618a.714.714,0,0,0,.761.671.752.752,0,0,0,.59-.252l.148.171a1.023,1.023,0,0,1-1.761-.671.952.952,0,0,1,.952-.98.918.918,0,0,1,.952.98Zm-1.618-.2h1.371a.686.686,0,1,0-1.371,0Z" transform="translate(-321.712 -408.612)" fill="#263238"/>
        <path id="Path_17696" data-name="Path 17696" d="M346.63,415.738l.114-.2a1.2,1.2,0,0,0,.69.214c.366,0,.519-.124.519-.314,0-.5-1.256-.109-1.256-.871,0-.319.276-.552.766-.552a1.333,1.333,0,0,1,.685.181l-.114.209a.99.99,0,0,0-.571-.167c-.347,0-.5.138-.5.319,0,.523,1.252.129,1.252.871,0,.333-.29.552-.8.552a1.3,1.3,0,0,1-.785-.238Z" transform="translate(-324.077 -408.613)" fill="#263238"/>
        <path id="Path_17697" data-name="Path 17697" d="M350.4,415.737l.119-.2a1.176,1.176,0,0,0,.685.214c.366,0,.519-.124.519-.314,0-.5-1.252-.11-1.252-.871,0-.319.271-.552.761-.552a1.318,1.318,0,0,1,.685.181l-.114.209a.99.99,0,0,0-.571-.167c-.347,0-.476.138-.476.319,0,.523,1.252.129,1.252.871,0,.333-.3.552-.8.552a1.3,1.3,0,0,1-.808-.242Z" transform="translate(-326.052 -408.613)" fill="#263238"/>
        <path id="Path_17698" data-name="Path 17698" d="M356.018,414.749v1.2h-.247v-.3a.728.728,0,0,1-.666.319c-.438,0-.7-.228-.7-.562s.19-.547.742-.547h.614v-.119c0-.328-.186-.509-.547-.509a.951.951,0,0,0-.642.228l-.119-.2a1.232,1.232,0,0,1,.79-.262.685.685,0,0,1,.781.747Zm-.262.619v-.314h-.6c-.376,0-.476.148-.476.343s.176.366.476.366a.619.619,0,0,0,.595-.4Z" transform="translate(-328.148 -408.605)" fill="#263238"/>
        <path id="Path_17699" data-name="Path 17699" d="M360.73,413.953v1.7a.852.852,0,0,1-.952.952,1.356,1.356,0,0,1-.9-.3l.133-.2a1.138,1.138,0,0,0,.761.266.618.618,0,0,0,.709-.7v-.247a.861.861,0,0,1-.752.376.952.952,0,1,1,0-1.875.88.88,0,0,1,.766.385v-.357Zm-.252.918a.733.733,0,1,0-.733.709.69.69,0,0,0,.733-.676Z" transform="translate(-330.358 -408.56)" fill="#263238"/>
        <path id="Path_17700" data-name="Path 17700" d="M366.052,414.938h-1.618a.719.719,0,0,0,.761.671.742.742,0,0,0,.59-.252l.148.171a1.457,1.457,0,1,1,.124-.671C366.057,414.88,366.052,414.909,366.052,414.938Zm-1.618-.2H365.8a.686.686,0,1,0-1.371,0Z" transform="translate(-333.265 -408.479)" fill="#263238"/>
        <path id="Path_17701" data-name="Path 17701" d="M368.9,417.5a.2.2,0,1,1,.2.2A.2.2,0,0,1,368.9,417.5Z" transform="translate(-335.748 -410.337)" fill="#263238"/>
        <path id="Path_17702" data-name="Path 17702" d="M370.527,417.524a.2.2,0,1,1,.089.2.2.2,0,0,1-.089-.2Z" transform="translate(-336.599 -410.366)" fill="#263238"/>
        <path id="Path_17703" data-name="Path 17703" d="M372.17,417.5a.2.2,0,1,1,.2.2A.2.2,0,0,1,372.17,417.5Z" transform="translate(-337.461 -410.337)" fill="#263238"/>
      </g>
      <g id="Group_9318" data-name="Group 9318" transform="translate(7.618 25.514)">
        <rect id="Rectangle_4394" data-name="Rectangle 4394" width="20.36" height="20.36" rx="10.18" fill="#ebebeb"/>
        <path id="Path_17712" data-name="Path 17712" d="M304.28,190.525a24.082,24.082,0,0,1,6.572-1.494c5.559-.286,8.262,1.237,8.262,1.237A9.969,9.969,0,0,1,311,193.623a8.54,8.54,0,0,1-6.72-3.1Z" transform="translate(-301.397 -173.249)" fill="#263238"/>
        <path id="Path_17713" data-name="Path 17713" d="M314.944,179.929h0a2.917,2.917,0,0,1-2.856-2.794c-.048-1.128-.086-2.161-.086-2.161a2.8,2.8,0,0,1-2.5-2.594c-.124-2.342,0-7.734,0-7.734h0a8.148,8.148,0,0,1,8.229.628l.357.252-.171,11.531a2.913,2.913,0,0,1-2.97,2.87Z" transform="translate(-304.103 -160.055)" fill="#ffbe9d"/>
        <path id="Path_17714" data-name="Path 17714" d="M314.79,186.068a5.464,5.464,0,0,0,3.013-1.018,2.89,2.89,0,0,1-2.989,1.623Z" transform="translate(-306.904 -171.182)" fill="#eb996e"/>
        <path id="Path_17715" data-name="Path 17715" d="M327.23,172.437c.043,0,1.585-.557,1.613,1.047a1.2,1.2,0,0,1-1.59,1.252C327.254,174.688,327.23,172.437,327.23,172.437Z" transform="translate(-313.424 -164.522)" fill="#ffbe9d"/>
        <path id="Path_17716" data-name="Path 17716" d="M328.279,174.674a.141.141,0,0,1,.076.038.281.281,0,0,0,.209,0,.7.7,0,0,0,.309-.628.852.852,0,0,0-.086-.4.319.319,0,0,0-.214-.209.138.138,0,0,0-.162.081v.081s-.033-.029,0-.1a.176.176,0,0,1,.062-.1.214.214,0,0,1,.157-.043.4.4,0,0,1,.3.243.951.951,0,0,1,.1.443.723.723,0,0,1-.4.7.281.281,0,0,1-.252-.038C328.284,174.712,328.274,174.678,328.279,174.674Z" transform="translate(-313.973 -165.074)" fill="#eb996e"/>
        <path id="Path_17717" data-name="Path 17717" d="M311.9,173.338a.338.338,0,0,0,.324.338.324.324,0,0,0,.347-.3.338.338,0,0,0-.324-.338.319.319,0,0,0-.347.3Z" transform="translate(-305.39 -164.886)" fill="#263238"/>
        <path id="Path_17718" data-name="Path 17718" d="M311.043,171.9c.038.043.3-.143.652-.143s.623.181.666.138-.024-.1-.138-.181a.919.919,0,0,0-.533-.167.909.909,0,0,0-.523.171C311.057,171.807,311.019,171.883,311.043,171.9Z" transform="translate(-304.936 -164.107)" fill="#263238"/>
        <path id="Path_17719" data-name="Path 17719" d="M319.17,173.424a.338.338,0,0,0,.324.338.319.319,0,0,0,.343-.3.333.333,0,0,0-.319-.338.324.324,0,0,0-.347.3Z" transform="translate(-309.2 -164.929)" fill="#263238"/>
        <path id="Path_17720" data-name="Path 17720" d="M318.483,172.042c.038.048.3-.143.652-.143s.628.181.666.138-.024-.1-.138-.181a.919.919,0,0,0-.533-.167.88.88,0,0,0-.519.171C318.5,171.947,318.459,172.023,318.483,172.042Z" transform="translate(-308.836 -164.18)" fill="#263238"/>
        <path id="Path_17721" data-name="Path 17721" d="M314.734,174.743a2.1,2.1,0,0,0-.585-.1c-.09,0-.181-.029-.2-.09a.523.523,0,0,1,.062-.276l.271-.7a12.083,12.083,0,0,0,.614-1.832,11.517,11.517,0,0,0-.757,1.78c-.1.247-.181.476-.262.7a.514.514,0,0,0-.048.362.224.224,0,0,0,.152.133.662.662,0,0,0,.152.024,2.446,2.446,0,0,0,.6,0Z" transform="translate(-306.397 -164.206)" fill="#263238"/>
        <path id="Path_17722" data-name="Path 17722" d="M316.737,178.57c-.062,0-.062.39-.4.666s-.752.233-.752.29.09.076.267.081a1,1,0,0,0,.628-.219.838.838,0,0,0,.3-.562.5.5,0,0,0-.043-.256Z" transform="translate(-307.323 -167.786)" fill="#263238"/>
        <path id="Path_17723" data-name="Path 17723" d="M318.288,169.171c.038.1.4.052.819.1s.766.167.819.081-.033-.133-.171-.228a1.342,1.342,0,0,0-.609-.214,1.356,1.356,0,0,0-.638.076C318.35,169.047,318.274,169.123,318.288,169.171Z" transform="translate(-308.737 -162.717)" fill="#263238"/>
        <path id="Path_17724" data-name="Path 17724" d="M311.312,169.7c.067.081.314,0,.614,0s.547.052.609-.033,0-.124-.129-.2a.89.89,0,0,0-.98.029C311.321,169.573,311.288,169.649,311.312,169.7Z" transform="translate(-305.078 -162.943)" fill="#263238"/>
        <path id="Path_17725" data-name="Path 17725" d="M306.993,160.107a.857.857,0,0,1,.319-.776.614.614,0,0,1,.8.062.719.719,0,0,1,.614-.871c.385,0,.709.267,1.08.366a1.742,1.742,0,0,0,1.095-.124c.347-.143.671-.333,1.023-.476a2.993,2.993,0,0,1,3.831,1.761,1.333,1.333,0,0,1,1.428.533,2.194,2.194,0,0,1,.333,1.537,5.019,5.019,0,0,1-.267,1.052v.119c-.024,1.29-.171,2.8-.719,2.813-.952,0-.728-1.794-.728-1.794-1.18-.476-.742-2.218-1.033-2.484s-.909-.885-3.374.371a4.726,4.726,0,0,1-2.922.314h-.1a2.381,2.381,0,0,1-.633-.271,1.242,1.242,0,0,1-.519-.576.685.685,0,0,1,.133-.738A1.471,1.471,0,0,1,306.993,160.107Z" transform="translate(-302.816 -157.061)" fill="#263238"/>
      </g>
      <g id="Group_9319" data-name="Group 9319" transform="translate(35.958 27.885)">
        <path id="Path_17727" data-name="Path 17727" d="M357.784,160.89h47.982a8.566,8.566,0,0,1,8.566,8.567v1.709a8.567,8.567,0,0,1-8.566,8.567h-39.43a8.567,8.567,0,0,1-8.566-8.566V160.89Z" transform="translate(-357.77 -160.89)" fill="#f5f5f5"/>
        <path id="Path_17728" data-name="Path 17728" d="M413.391,173.853c0,.071-8.643.128-19.3.128s-19.308-.057-19.308-.128,8.643-.133,19.308-.133S413.391,173.777,413.391,173.853Z" transform="translate(-366.684 -167.614)" fill="#263238"/>
        <path id="Path_17729" data-name="Path 17729" d="M413.391,180.468c0,.071-8.643.129-19.3.129s-19.308-.057-19.308-.129,8.643-.128,19.308-.128S413.391,180.4,413.391,180.468Z" transform="translate(-366.684 -171.083)" fill="#263238"/>
        <path id="Path_17730" data-name="Path 17730" d="M397.367,186.618c0,.071-5.054.129-11.294.129s-11.294-.057-11.294-.129,5.054-.128,11.294-.128S397.367,186.547,397.367,186.618Z" transform="translate(-366.684 -174.306)" fill="#263238"/>
      </g>
      <g id="Group_9320" data-name="Group 9320" transform="translate(35.973 49.199)">
        <path id="Path_17731" data-name="Path 17731" d="M357.8,205.65h65.6a8.6,8.6,0,0,1,8.6,8.6v1.718a8.6,8.6,0,0,1-8.6,8.6h-57a8.6,8.6,0,0,1-8.6-8.6Z" transform="translate(-357.8 -205.65)" fill="#f5f5f5"/>
        <path id="Path_17732" data-name="Path 17732" d="M432.6,218.773c0,.071-12.945.129-28.907.129s-28.912-.057-28.912-.129,12.94-.133,28.912-.133S432.6,218.7,432.6,218.773Z" transform="translate(-366.699 -212.458)" fill="#263238"/>
        <path id="Path_17733" data-name="Path 17733" d="M432.6,225.4c0,.071-12.945.133-28.907.133s-28.912-.062-28.912-.133,12.94-.129,28.912-.129S432.6,225.327,432.6,225.4Z" transform="translate(-366.699 -215.933)" fill="#263238"/>
        <path id="Path_17734" data-name="Path 17734" d="M408.608,231.549c0,.071-7.577.133-16.914.133s-16.914-.062-16.914-.133,7.572-.128,16.914-.128S408.608,231.477,408.608,231.549Z" transform="translate(-366.699 -219.155)" fill="#263238"/>
      </g>
      <g id="Group_9325" data-name="Group 9325" transform="translate(35.973 81.895)">
        <path id="Path_17731-2" data-name="Path 17731" d="M357.8,205.65h65.6a8.6,8.6,0,0,1,8.6,8.6v1.718a8.6,8.6,0,0,1-8.6,8.6h-57a8.6,8.6,0,0,1-8.6-8.6Z" transform="translate(-357.8 -205.65)" fill="#d72027"/>
        <path id="Path_17732-2" data-name="Path 17732" d="M432.6,218.773c0,.071-12.945.129-28.907.129s-28.912-.057-28.912-.129,12.94-.133,28.912-.133S432.6,218.7,432.6,218.773Z" transform="translate(-366.699 -212.458)" fill="#263238"/>
        <path id="Path_17733-2" data-name="Path 17733" d="M432.6,225.4c0,.071-12.945.133-28.907.133s-28.912-.062-28.912-.133,12.94-.129,28.912-.129S432.6,225.327,432.6,225.4Z" transform="translate(-366.699 -215.933)" fill="#263238"/>
        <path id="Path_17734-2" data-name="Path 17734" d="M408.608,231.549c0,.071-7.577.133-16.914.133s-16.914-.062-16.914-.133,7.572-.128,16.914-.128S408.608,231.477,408.608,231.549Z" transform="translate(-366.699 -219.155)" fill="#263238"/>
      </g>
      <g id="Group_9322" data-name="Group 9322" transform="translate(7.619 78.514)">
        <rect id="Rectangle_4395" data-name="Rectangle 4395" width="20.36" height="20.36" rx="10.18" fill="#ebebeb"/>
        <path id="Path_17736" data-name="Path 17736" d="M598.23,284.421a20.822,20.822,0,0,1,6.434-1.261A36.827,36.827,0,0,1,613,284.74a10.477,10.477,0,0,1-8.333,3.013A7.95,7.95,0,0,1,598.23,284.421Z" transform="translate(-595.584 -267.398)" fill="#455a64"/>
        <path id="Path_17737" data-name="Path 17737" d="M599.7,257.17a2.811,2.811,0,0,0-1.028,2.313,3.113,3.113,0,0,1-.923,2.38c-.585.424-1.518.476-1.761,1.161a.823.823,0,0,0,1.2.985,1.428,1.428,0,0,0,.124,1.661.952.952,0,0,0,1.513-.171.724.724,0,0,0,1.352.519" transform="translate(-594.383 -253.776)" fill="#263238"/>
        <path id="Path_17738" data-name="Path 17738" d="M618.468,263.738a.871.871,0,1,0,1.7-.362c-.09-.357-.4-.657-.366-1.023s.538-.666.952-.78.952-.276,1.057-.7a1.384,1.384,0,0,0-.476-1.142c-.281-.338-.476-.828-.224-1.166.133-.171.362-.243.524-.385a.952.952,0,0,0,0-1.309,1.77,1.77,0,0,0-1.318-.5,13.408,13.408,0,0,0-1.428.162,5.8,5.8,0,0,1-4.421-1.428" transform="translate(-604.095 -252.692)" fill="#263238"/>
        <path id="Path_17739" data-name="Path 17739" d="M603.845,259.026l.338,9.89a3.141,3.141,0,0,0,3.265,3.032h0a3.141,3.141,0,0,0,3.008-2.989c.043-.866.076-1.585.076-1.585a2.991,2.991,0,0,0,2.632-2.779c.062-1.2,0-3.688-.1-5.94a4.645,4.645,0,0,0-4.459-4.445h-.238a4.612,4.612,0,0,0-4.521,4.816Z" transform="translate(-598.525 -252.226)" fill="#eb996e"/>
        <path id="Path_17740" data-name="Path 17740" d="M614.372,280.637a5.811,5.811,0,0,1-3.212-1.047,3.08,3.08,0,0,0,3.193,1.694Z" transform="translate(-602.36 -265.527)" fill="#aa6550"/>
        <path id="Path_17741" data-name="Path 17741" d="M620.214,266.628a.352.352,0,0,1-.357.343.338.338,0,0,1-.357-.333.366.366,0,0,1,.357-.347.343.343,0,0,1,.357.338Z" transform="translate(-606.731 -258.556)" fill="#263238"/>
        <path id="Path_17742" data-name="Path 17742" d="M620.447,265.628c-.048.048-.3-.167-.69-.181s-.671.167-.709.119.029-.1.152-.186a.952.952,0,0,1,.571-.152.918.918,0,0,1,.547.2C620.447,265.523,620.447,265.6,620.447,265.628Z" transform="translate(-606.49 -257.999)" fill="#263238"/>
        <path id="Path_17743" data-name="Path 17743" d="M612.464,266.408a.352.352,0,0,1-.357.343.338.338,0,0,1-.357-.333.367.367,0,0,1,.357-.347.343.343,0,0,1,.357.338Z" transform="translate(-602.669 -258.44)" fill="#263238"/>
        <path id="Path_17744" data-name="Path 17744" d="M612.527,265.468c-.048.043-.309-.167-.69-.181s-.671.167-.709.119.029-.1.152-.186a.952.952,0,0,1,.571-.152.918.918,0,0,1,.547.2C612.513,265.363,612.551,265.449,612.527,265.468Z" transform="translate(-602.338 -257.915)" fill="#263238"/>
        <path id="Path_17745" data-name="Path 17745" d="M616.708,268.478a2.629,2.629,0,0,1,.628-.09c.1,0,.19,0,.209-.086a.475.475,0,0,0-.052-.29c-.086-.243-.171-.476-.262-.757a13.134,13.134,0,0,1-.571-1.975,12.7,12.7,0,0,1,.728,1.9c.086.267.171.519.247.761a.576.576,0,0,1,.038.385.243.243,0,0,1-.167.133.559.559,0,0,1-.167,0A2.788,2.788,0,0,1,616.708,268.478Z" transform="translate(-605.243 -258.027)" fill="#263238"/>
        <path id="Path_17746" data-name="Path 17746" d="M614.3,272.45c.062,0,.043.414.39.723s.785.281.785.338-.1.076-.286.076a1.024,1.024,0,0,1-.661-.262.88.88,0,0,1-.3-.6C614.219,272.55,614.272,272.445,614.3,272.45Z" transform="translate(-603.968 -261.784)" fill="#263238"/>
        <path id="Path_17747" data-name="Path 17747" d="M612.469,262.42c-.038.1-.419.038-.871.071s-.819.147-.876.052.043-.143.19-.238a1.537,1.537,0,0,1,1.333-.1C612.407,262.286,612.488,262.367,612.469,262.42Z" transform="translate(-602.123 -256.361)" fill="#263238"/>
        <path id="Path_17748" data-name="Path 17748" d="M620.34,263.267c-.071.086-.333,0-.647-.033s-.59.038-.647-.057,0-.129.143-.209a.952.952,0,0,1,1.042.076C620.336,263.139,620.369,263.229,620.34,263.267Z" transform="translate(-606.482 -256.752)" fill="#263238"/>
        <path id="Path_17749" data-name="Path 17749" d="M606.17,257.082h0a1.956,1.956,0,0,0-.781,1.237v.048c-.124.709-.133,1.428-.267,2.137a3.232,3.232,0,0,1-.952,1.9c-.224.19-.609.314-.776.071a.591.591,0,0,1-.076-.328c-.067-1.718-.476-3.26-.4-5.054a1.5,1.5,0,0,1,.676-1.2c.385-.257.857-.514,1.266-.3s.919,1.014,1.228,1.356" transform="translate(-598.037 -252.908)" fill="#263238"/>
        <path id="Path_17750" data-name="Path 17750" d="M603.644,266.659c-.043,0-1.69-.571-1.7,1.133a1.282,1.282,0,0,0,1.7,1.318C603.648,269.062,603.644,266.659,603.644,266.659Z" transform="translate(-597.528 -258.701)" fill="#eb996e"/>
        <path id="Path_17751" data-name="Path 17751" d="M603.584,269.049a.138.138,0,0,0-.081.043.3.3,0,0,1-.224,0,.724.724,0,0,1-.333-.662.924.924,0,0,1,.086-.424.343.343,0,0,1,.224-.228.152.152,0,0,1,.176.086v.081a.092.092,0,0,0,.024-.1.172.172,0,0,0-.067-.109.2.2,0,0,0-.162-.043.414.414,0,0,0-.314.262,1.009,1.009,0,0,0-.1.476.776.776,0,0,0,.428.742.319.319,0,0,0,.271-.043C603.579,269.091,603.589,269.053,603.584,269.049Z" transform="translate(-597.983 -259.292)" fill="#aa6550"/>
        <path id="Path_17752" data-name="Path 17752" d="M606.706,254.09c-.39-.7.795-1.628,1.647-1.861a5.011,5.011,0,0,1,2.765.533,4.707,4.707,0,0,0,1.594.476A3.912,3.912,0,0,0,613.8,253a2.731,2.731,0,0,1,1.1-.171,1.018,1.018,0,0,1,.871.6.647.647,0,0,1-.476.857.838.838,0,1,1,.162,1.556c.247-.176.609.143.566.443a.875.875,0,0,1-.609.623,3.179,3.179,0,0,1-2.27-.124c-.723-.276-1.39-.69-2.108-.985a4.862,4.862,0,0,0-2.66-.59c-.547.171-.952.8-1.247.647a1.038,1.038,0,0,1-.509-.785,3.191,3.191,0,0,1,.071-.952" transform="translate(-599.976 -251.154)" fill="#263238"/>
        <path id="Path_17753" data-name="Path 17753" d="M615.056,255.484a.476.476,0,0,1,.424.071.861.861,0,0,1,.319.4.847.847,0,0,1,0,.681,1.509,1.509,0,0,1-1.542.709,4.174,4.174,0,0,1-1.951-.847,10.153,10.153,0,0,0-1.766-1.123,2.6,2.6,0,0,0-.866-.228,2.094,2.094,0,0,0-.766.1,1.589,1.589,0,0,0-.89.662,3.539,3.539,0,0,0-.171.381.381.381,0,0,1,0-.109,1.131,1.131,0,0,1,.109-.3,1.594,1.594,0,0,1,.9-.733,2.11,2.11,0,0,1,.814-.124,2.824,2.824,0,0,1,.914.224,10.2,10.2,0,0,1,1.8,1.128,4.107,4.107,0,0,0,1.875.833,1.39,1.39,0,0,0,1.428-.609.748.748,0,0,0,.028-.6.77.77,0,0,0-.276-.381A.69.69,0,0,0,615.056,255.484Z" transform="translate(-600.622 -252.648)" fill="#455a64"/>
        <path id="Path_17754" data-name="Path 17754" d="M609.881,253.554c0,.029-.228-.052-.585-.081a2.574,2.574,0,0,0-1.352.286,2.513,2.513,0,0,0-.952.98c-.176.314-.224.538-.252.533a1.235,1.235,0,0,1,.152-.585,2.318,2.318,0,0,1,2.437-1.323,1.242,1.242,0,0,1,.552.19Z" transform="translate(-600.044 -251.769)" fill="#455a64"/>
        <path id="Path_17755" data-name="Path 17755" d="M603.315,260.128a.809.809,0,0,1-.129-.476,1.742,1.742,0,0,1,1.285-1.789.8.8,0,0,1,.476-.029c0,.024-.181.033-.447.133a1.809,1.809,0,0,0-1.2,1.685C603.291,259.943,603.339,260.124,603.315,260.128Z" transform="translate(-598.179 -254.113)" fill="#455a64"/>
      </g>
      <g id="Group_9324" data-name="Group 9324" transform="translate(8.016 110.251)">
        <path id="Path_17766" data-name="Path 17766" d="M328.669,364a3.332,3.332,0,0,1-1.009-.214l.029,1.77a15.075,15.075,0,0,1,3.331,1,10.223,10.223,0,0,0,2.822-4.212q-1.556.69-3.165,1.261a5.458,5.458,0,0,1-2.008.39Z" transform="translate(-314.048 -348.791)" fill="#ebebeb"/>
        <path id="Path_17767" data-name="Path 17767" d="M309.24,333.86h0a10.18,10.18,0,0,0-10.18,10.18h0a10.172,10.172,0,0,0,3.952,8.05,13.763,13.763,0,0,1,4.034-1.43v-1.1H306.8a24.153,24.153,0,0,0-4.645-.2,1.18,1.18,0,0,1-.728-.033,1.109,1.109,0,0,1-.433-.785,2.169,2.169,0,0,1,.262-1.956c.324-.333.871-.476.98-.952s-.262-.8-.476-1.176a1.961,1.961,0,0,1,.252-2.232c.366-.4.895-.643,1.161-1.109a3.808,3.808,0,0,0,.271-1.456,2.684,2.684,0,0,1,1.18-1.985,1.9,1.9,0,0,1,1.4-.228c.69-.928,2.156-.4,2.894-.433a5.612,5.612,0,0,1,2.856.381h0a1.68,1.68,0,0,1,.343-1.128,1.842,1.842,0,0,1,1.632-.657,1.29,1.29,0,0,1,.871.447,1.328,1.328,0,0,1,.119,1.218,1.794,1.794,0,0,1-1.49,1.2h0v.033a.908.908,0,0,1,.033.224c.162.3.29.614.447.909a1.994,1.994,0,0,0,.923.952c.295.119.633.124.923.257a1.856,1.856,0,0,1,.895,1.361,4.906,4.906,0,0,0,.171.752.952.952,0,0,0,.519.557,6.083,6.083,0,0,0,.719.1,1.142,1.142,0,0,1,.681.538,3.424,3.424,0,0,1,.328.823c.109.352.214.7.324,1.052a10.437,10.437,0,0,0,.2-2.018h0A10.18,10.18,0,0,0,309.24,333.86Z" transform="translate(-299.06 -333.86)" fill="#ebebeb"/>
        <path id="Path_17768" data-name="Path 17768" d="M310.236,373.721a11.9,11.9,0,0,1-2.855-1.552,9.994,9.994,0,0,0,2.855,1.552Z" transform="translate(-303.42 -353.938)" fill="#ebebeb"/>
        <path id="Path_17769" data-name="Path 17769" d="M317.054,369.391a2.832,2.832,0,0,1-5.659-.057v-.186a13.764,13.764,0,0,0-4.036,1.428h0a11.9,11.9,0,0,0,2.855,1.552,10.094,10.094,0,0,0,3.365.576h0a10.147,10.147,0,0,0,6.782-2.589,15.078,15.078,0,0,0-3.331-1Z" transform="translate(-303.409 -352.334)" fill="#d72027"/>
        <path id="Path_17770" data-name="Path 17770" d="M315.873,358.723a2.827,2.827,0,0,0,2.855-2.77v-.29l-.029-1.77a5.756,5.756,0,0,1-.785-.352,2.337,2.337,0,0,1-1.2-1.989v-.9l.357-2.346c-1.1-.4-1.428-2.046-1.428-2.046a3.585,3.585,0,0,1-1.247.4,1.247,1.247,0,0,1-1.156-.476,1.775,1.775,0,0,1-.1-1.256,1.428,1.428,0,0,0-.214-1.08.795.795,0,0,0-1.266-.114,4.283,4.283,0,0,0-1.042,2.565,27.76,27.76,0,0,0,.029,5.14,3.233,3.233,0,0,0,2.38,2.932,6.592,6.592,0,0,0,3.479-.928,3.29,3.29,0,0,1-3.441,1.542l-.038-.614v1.547a2.827,2.827,0,0,0,2.851,2.808Zm-1.223-11.194a.88.88,0,0,1,.519-.167.952.952,0,0,1,.528.162c.114.086.157.162.138.186a2.619,2.619,0,0,0-.662-.138c-.357,0-.609.186-.652.143S314.55,347.605,314.65,347.529Zm.919,1.485a.081.081,0,0,1-.1.043.076.076,0,0,1-.043-.1.077.077,0,0,1,.143.057Zm-1.142-2.113a1.427,1.427,0,0,1,.638-.076,1.361,1.361,0,0,1,.6.214c.138.1.2.186.171.228a4.25,4.25,0,0,1-.819-.081c-.424-.043-.776,0-.814-.1s.062-.133.219-.2Zm-3.27-.086a.852.852,0,0,1,.476-.167.861.861,0,0,1,.476.133c.109.081.148.162.124.2a4.045,4.045,0,0,1-.609.029c-.3.029-.543.09-.6,0s.033-.128.138-.209Zm.562,1.537a.333.333,0,0,1-.319-.338.319.319,0,0,1,.343-.3.338.338,0,0,1,.324.338.324.324,0,0,1-.347.29Zm.59-.643c-.038.043-.3-.143-.662-.138s-.609.186-.652.143,0-.1.129-.186a.894.894,0,0,1,.519-.167.951.951,0,0,1,.528.167c.114.071.157.148.138.171Zm.395,2.7a.632.632,0,0,1-.152,0,.228.228,0,0,1-.152-.138.528.528,0,0,1,.048-.357l.257-.7a11.137,11.137,0,0,1,.757-1.77,12.476,12.476,0,0,1-.609,1.823l-.271.7a.5.5,0,0,0-.062.271c0,.062.1.081.2.09a2.473,2.473,0,0,1,.581.1,2.136,2.136,0,0,1-.59-.043Zm1.818,1.176a.59.59,0,0,1-.571.357.638.638,0,0,1-.476-.252c-.176,0-.271-.057-.267-.081s.076-.029.186-.048h0a.343.343,0,0,1,.048-.271.328.328,0,0,1,.338-.114.271.271,0,0,1,.19-.286.333.333,0,0,1,.262,0c.052-.138.071-.243.1-.243s.071.1.057.257a.472.472,0,0,1,0,.081.547.547,0,0,1,.133.59Zm.347-3.569a.314.314,0,0,1,.343-.3.333.333,0,0,1,.319.338.314.314,0,0,1-.343.3.328.328,0,0,1-.319-.347Z" transform="translate(-305.06 -338.896)" fill="#ffbe9d"/>
        <path id="Path_17771" data-name="Path 17771" d="M312.723,352.369a.319.319,0,0,0-.343.3.333.333,0,0,0,.319.338.324.324,0,0,0,.347-.3.338.338,0,0,0-.324-.338Z" transform="translate(-306.04 -343.56)" fill="#263238"/>
        <path id="Path_17772" data-name="Path 17772" d="M312.7,351.822a.952.952,0,0,0-.528-.162.9.9,0,0,0-.519.167c-.109.086-.148.167-.128.186a2.392,2.392,0,0,1,.652-.143c.357,0,.623.181.662.138S312.815,351.893,312.7,351.822Z" transform="translate(-305.589 -343.189)" fill="#263238"/>
        <path id="Path_17773" data-name="Path 17773" d="M319.989,353.006a.314.314,0,0,0,.343-.3.333.333,0,0,0-.319-.338.314.314,0,0,0-.343.3.328.328,0,0,0,.319.338Z" transform="translate(-309.861 -343.559)" fill="#263238"/>
        <path id="Path_17774" data-name="Path 17774" d="M318.935,351.982c.043.043.3-.143.652-.143s.623.181.662.138-.024-.1-.138-.186a.951.951,0,0,0-.528-.162.88.88,0,0,0-.519.167C318.964,351.882,318.916,351.963,318.935,351.982Z" transform="translate(-309.474 -343.173)" fill="#263238"/>
        <path id="Path_17775" data-name="Path 17775" d="M314.781,354.639c-.09,0-.181-.029-.2-.09a.5.5,0,0,1,.062-.271l.271-.7a12.477,12.477,0,0,0,.609-1.823,11.127,11.127,0,0,0-.757,1.77l-.257.7a.528.528,0,0,0-.048.357.228.228,0,0,0,.152.138.629.629,0,0,0,.152,0,2.126,2.126,0,0,0,.59,0A2.481,2.481,0,0,0,314.781,354.639Z" transform="translate(-307.126 -343.241)" fill="#263238"/>
        <path id="Path_17776" data-name="Path 17776" d="M315.878,365.922a3.29,3.29,0,0,0,3.441-1.542,6.591,6.591,0,0,1-3.479.928Z" transform="translate(-307.854 -349.855)" fill="#eb996e"/>
        <path id="Path_17777" data-name="Path 17777" d="M317.437,359.031a.333.333,0,0,0-.262,0,.271.271,0,0,0-.19.286.328.328,0,0,0-.338.114.343.343,0,0,0-.048.271,1.181,1.181,0,0,0,.547-.233,1,1,0,0,0,.29-.438Z" transform="translate(-308.246 -347.038)" fill="#eb996e"/>
        <path id="Path_17778" data-name="Path 17778" d="M317.368,359.736a.952.952,0,0,1-.628.219h0a.638.638,0,0,0,.476.252.59.59,0,0,0,.571-.357.547.547,0,0,0-.133-.59.823.823,0,0,1-.286.476Z" transform="translate(-308.325 -347.172)" fill="#eb996e"/>
        <path id="Path_17779" data-name="Path 17779" d="M316.56,360.43Z" transform="translate(-308.231 -347.785)" fill="#eb996e"/>
        <path id="Path_17780" data-name="Path 17780" d="M317.075,359.364a.823.823,0,0,0,.286-.476.466.466,0,0,0,0-.081c0-.162-.029-.257-.057-.257s-.048.1-.1.243a.994.994,0,0,1-.29.424,1.18,1.18,0,0,1-.547.233h0c-.109,0-.186.024-.186.048s.09.076.267.081h0a.952.952,0,0,0,.627-.215Z" transform="translate(-308.031 -346.8)" fill="#263238"/>
        <path id="Path_17781" data-name="Path 17781" d="M319.1,350.853c.424.043.761.167.819.081s-.033-.133-.171-.228a1.359,1.359,0,0,0-.6-.214,1.429,1.429,0,0,0-.638.076c-.157.062-.233.138-.219.186A3.872,3.872,0,0,0,319.1,350.853Z" transform="translate(-309.136 -342.572)" fill="#263238"/>
        <path id="Path_17782" data-name="Path 17782" d="M312.265,350.5c.3,0,.552.052.609-.029s0-.124-.124-.2a.861.861,0,0,0-.476-.133.852.852,0,0,0-.476.167c-.1.081-.138.167-.109.2a2.4,2.4,0,0,0,.576-.005Z" transform="translate(-305.673 -342.387)" fill="#263238"/>
        <path id="Path_17783" data-name="Path 17783" d="M320.507,346.1a1.142,1.142,0,0,0-.681-.538,6.071,6.071,0,0,1-.719-.1.952.952,0,0,1-.528-.576,4.916,4.916,0,0,1-.2-.757,1.856,1.856,0,0,0-.895-1.361c-.29-.133-.628-.138-.923-.257a1.994,1.994,0,0,1-.923-.952c-.157-.3-.286-.614-.447-.909v.109s-.043-.1-.1-.257v.1a1.808,1.808,0,0,1-.385.985,2.767,2.767,0,0,1-3.246.647,1.508,1.508,0,0,1-.728-.7,6.19,6.19,0,0,1-.29-.885,1.9,1.9,0,0,0-.952-1.142,2.066,2.066,0,0,0-.985-.262c-.243,0-.381.033-.381,0s.029,0,.1-.033a1.429,1.429,0,0,1,.286-.043,2.027,2.027,0,0,1,1.033.233,2,2,0,0,1,1.009,1.19,6.527,6.527,0,0,0,.286.861,1.39,1.39,0,0,0,.671.638,2.588,2.588,0,0,0,.928.233,3.254,3.254,0,0,0,.895-.062,2.2,2.2,0,0,0,1.285-.757,1.828,1.828,0,0,0,.4-.952,1.125,1.125,0,0,0,0-.167,2.074,2.074,0,0,0-.376-.59,3.1,3.1,0,0,0-.895-.609.581.581,0,0,1,.328.057,1.755,1.755,0,0,1,.671.476,1.651,1.651,0,0,1,.376.676h0a1.794,1.794,0,0,0,1.49-1.2,1.328,1.328,0,0,0-.119-1.218,1.29,1.29,0,0,0-.871-.447,1.842,1.842,0,0,0-1.632.657,1.68,1.68,0,0,0-.343,1.128h0a5.543,5.543,0,0,0-2.855-.381c-.738.033-2.2-.476-2.894.433a1.9,1.9,0,0,0-1.4.228,2.684,2.684,0,0,0-1.18,1.985,3.808,3.808,0,0,1-.271,1.456c-.267.476-.8.709-1.161,1.109a1.961,1.961,0,0,0-.252,2.232c.214.381.576.752.476,1.176s-.657.614-.98.952a2.162,2.162,0,0,0-.262,1.956,1.109,1.109,0,0,0,.433.785,1.18,1.18,0,0,0,.728.033,24.156,24.156,0,0,1,4.645.2h.247v-.257a3.206,3.206,0,0,1-2.38-2.932,27.76,27.76,0,0,1-.029-5.14,4.283,4.283,0,0,1,1.042-2.565.8.8,0,0,1,1.266.114,1.428,1.428,0,0,1,.214,1.08,1.775,1.775,0,0,0,.1,1.256,1.247,1.247,0,0,0,1.156.476,3.585,3.585,0,0,0,1.247-.4s.319,1.647,1.428,2.046l-.357,2.346v.9a2.337,2.337,0,0,0,1.2,1.989,5.755,5.755,0,0,0,.785.352,3.33,3.33,0,0,0,1.009.214,5.459,5.459,0,0,0,2.023-.357q1.6-.557,3.151-1.252a10.836,10.836,0,0,0,.376-1.361c-.109-.347-.214-.7-.324-1.052A3.422,3.422,0,0,0,320.507,346.1Z" transform="translate(-300.999 -335.775)" fill="#263238"/>
        <path id="Path_17784" data-name="Path 17784" d="M320.834,354.948a.076.076,0,1,0,.041-.042.076.076,0,0,0-.041.042Z" transform="translate(-310.467 -344.887)" fill="#263238"/>
        <path id="Path_17785" data-name="Path 17785" d="M326.238,341.143a.581.581,0,0,0-.328-.057,3.1,3.1,0,0,1,.895.609,2.074,2.074,0,0,1,.376.59v-.219a.435.435,0,0,1,.024.1,1.383,1.383,0,0,1,0,.224c.057.157.081.262.1.257s0-.043,0-.109a.9.9,0,0,0-.033-.224v-.033a1.651,1.651,0,0,0-.376-.676,1.755,1.755,0,0,0-.657-.462Z" transform="translate(-313.131 -337.645)" fill="#0761ce"/>
        <path id="Path_17786" data-name="Path 17786" d="M321.025,342.147a.432.432,0,0,0-.024-.1v.219a1.121,1.121,0,0,1,0,.167,1.828,1.828,0,0,1-.4.952,2.2,2.2,0,0,1-1.285.757,3.254,3.254,0,0,1-.895.062,2.59,2.59,0,0,1-.928-.233,1.39,1.39,0,0,1-.671-.638,6.524,6.524,0,0,1-.286-.861,2,2,0,0,0-1.009-1.19,2.027,2.027,0,0,0-1.033-.233,1.424,1.424,0,0,0-.286.043.127.127,0,0,0-.1.033s.138,0,.381,0a2.067,2.067,0,0,1,.985.262,1.9,1.9,0,0,1,.952,1.142,6.2,6.2,0,0,0,.29.885,1.509,1.509,0,0,0,.671.657,2.767,2.767,0,0,0,3.246-.647,1.809,1.809,0,0,0,.385-.985v-.067A1.385,1.385,0,0,0,321.025,342.147Z" transform="translate(-306.947 -337.626)" fill="#455a64"/>
      </g>
      <g id="Group_9323" data-name="Group 9323" transform="translate(33.369 117.055)">
        <path id="Path_17787" data-name="Path 17787" d="M352.344,348.15h47.987a8.567,8.567,0,0,1,8.567,8.567v1.708a8.567,8.567,0,0,1-8.567,8.567H360.9a8.566,8.566,0,0,1-8.566-8.567V348.15Z" transform="translate(-352.33 -348.15)" fill="#f5f5f5"/>
        <path id="Path_17788" data-name="Path 17788" d="M409.806,361.683c0,.071-8.647.128-19.308.128s-19.308-.057-19.308-.128,8.643-.133,19.308-.133S409.806,361.607,409.806,361.683Z" transform="translate(-362.214 -355.173)" fill="#263238"/>
        <path id="Path_17789" data-name="Path 17789" d="M409.806,368.309c0,.071-8.647.128-19.308.128s-19.308-.057-19.308-.128,8.643-.128,19.308-.128S409.806,368.237,409.806,368.309Z" transform="translate(-362.214 -358.648)" fill="#263238"/>
        <path id="Path_17790" data-name="Path 17790" d="M393.782,374.458c0,.071-5.059.129-11.294.129s-11.3-.057-11.3-.129,5.059-.128,11.3-.128S393.782,374.387,393.782,374.458Z" transform="translate(-362.214 -361.87)" fill="#263238"/>
      </g>
      <path id="Path_17800" data-name="Path 17800" d="M354.874,263.331c0-.824-.038-62.3-.1-160.868l.1.1-266.79.029h0l.129-.129V263.331l-.119-.124,266.809.124-266.809.119H87.97V102.33h.152l266.79.033h.062v.1C354.917,201.032,354.874,262.508,354.874,263.331Z" transform="translate(-87.97 -102.33)" fill="#d72027"/>
    </g>
  </g>
</svg>
