<svg xmlns="http://www.w3.org/2000/svg" width="167" height="161.501" viewBox="0 0 167 161.501">
  <path id="discussion_icon" d="M8.932,107.842a10.756,10.756,0,0,0,20.849-3.685V98.182a12.335,12.335,0,0,1-5.806-.942,19.974,19.974,0,0,1-.5,1.976,12.853,12.853,0,0,1-4.087,6.4,11.938,11.938,0,0,1-8.423,2.438,18.357,18.357,0,0,1-2.034-.212ZM72.3,91.837H93.809V85.085H77.25A4.969,4.969,0,0,0,72.3,90.026Zm21.505,4.886H72.3v7.435a10.753,10.753,0,0,0,21.505,0V96.722Zm67.033,16.311a11.647,11.647,0,0,1,3.421,2.752A11.44,11.44,0,0,1,167,123.211v16.477a2.445,2.445,0,0,1-4.891,0V123.211a6.6,6.6,0,0,0-1.572-4.276,6.72,6.72,0,0,0-3.384-2.143,15.579,15.579,0,0,1-18.621-.194,4.675,4.675,0,0,0-1.442.407,4.474,4.474,0,0,0-1.664,1.357l-13.139,17.383a2.457,2.457,0,0,1-1.951.979H103.5a4.5,4.5,0,1,0,0,9h20.109a4.4,4.4,0,0,0,2.192-.471c1.424-.711,2.755-2.872,3.726-4.165l8.7-11.5a2.438,2.438,0,1,1,3.892,2.937l-8.275,10.954v21.3h28.265v-14.03a2.445,2.445,0,0,1,4.891,0V167.23a2.437,2.437,0,0,1-2.441,2.438H2.45A2.445,2.445,0,0,1,0,167.23V150.753a2.445,2.445,0,0,1,4.891,0v14.03H33.165v-21.3l-8.284-10.954a2.442,2.442,0,0,1,3.9-2.937l8.506,11.25q1.165,1.538,2.33,3.094a4.5,4.5,0,0,0,1.59,1.321,4.282,4.282,0,0,0,2.043.471H63.51a4.535,4.535,0,0,0,3.19-1.321,4.5,4.5,0,0,0-3.19-7.684H46.664a2.443,2.443,0,0,1-1.951-.979L31.575,118.362a4.523,4.523,0,0,0-3.106-1.764,15.6,15.6,0,0,1-18.621.2A6.705,6.705,0,0,0,6.5,118.889a6.612,6.612,0,0,0-1.609,4.322v16.477a2.445,2.445,0,0,1-4.891,0V123.211A11.474,11.474,0,0,1,2.811,115.7a11.772,11.772,0,0,1,3.356-2.669,15.486,15.486,0,0,1-2.783-8.876V90.027A9.844,9.844,0,0,1,13.213,80.2H24.835a9.844,9.844,0,0,1,9.838,9.827v14.131a15.512,15.512,0,0,1-2.534,8.506,9.466,9.466,0,0,1,3.338,2.762l12.4,16.4h9.791v-9.91c0-2.808,1.489-5.348,3.9-7.5a25.715,25.715,0,0,1,7.046-4.258,15.5,15.5,0,0,1-1.2-6V90.026A9.844,9.844,0,0,1,77.25,80.2H96.259a2.453,2.453,0,0,1,2.451,2.448v21.511a15.616,15.616,0,0,1-1.082,5.7,26.629,26.629,0,0,1,7.563,4.341c2.561,2.2,4.142,4.821,4.142,7.721v9.91h9.791l12.4-16.4a9.363,9.363,0,0,1,3.347-2.752,15.5,15.5,0,0,1-2.543-8.516V90.026a9.844,9.844,0,0,1,9.838-9.827h11.622a9.844,9.844,0,0,1,9.837,9.827v14.131a15.558,15.558,0,0,1-2.783,8.876Zm-2.774-5.191a18.135,18.135,0,0,1-2.034.212,11.931,11.931,0,0,1-8.414-2.438,12.8,12.8,0,0,1-4.1-6.4,19.942,19.942,0,0,1-.49-1.976,12.382,12.382,0,0,1-5.815.942v5.976a10.756,10.756,0,0,0,20.85,3.685Zm-20.85-14.556a7.976,7.976,0,0,0,6.074-1.8,2.474,2.474,0,0,1,1.59-.684,2.432,2.432,0,0,1,2.552,2.318,19.447,19.447,0,0,0,.758,4.664,8.089,8.089,0,0,0,2.478,4.036,7.341,7.341,0,0,0,5.132,1.367,17.628,17.628,0,0,0,2.931-.425V90.026a4.986,4.986,0,0,0-4.946-4.942H142.165a4.985,4.985,0,0,0-4.946,4.942Zm-107.438,0V90.026a4.969,4.969,0,0,0-4.946-4.942H13.212a4.969,4.969,0,0,0-4.937,4.942v12.737a17.429,17.429,0,0,0,2.922.425,7.341,7.341,0,0,0,5.131-1.367,8.17,8.17,0,0,0,2.487-4.036,18.986,18.986,0,0,0,.749-4.664,2.447,2.447,0,0,1,4.123-1.653,7.982,7.982,0,0,0,6.093,1.819ZM20.387,26.26a2.443,2.443,0,0,1,0-4.886H65.674a2.443,2.443,0,0,1,0,4.886Zm0,25.713a2.448,2.448,0,0,1,0-4.9H43.031a2.448,2.448,0,1,1,0,4.9Zm0-12.857a2.443,2.443,0,0,1,0-4.886H65.674a2.443,2.443,0,0,1,0,4.886ZM68.179,65.172a6.754,6.754,0,0,0,1.581,2.494,6.84,6.84,0,0,0,4.872,2.023H89.01a2.443,2.443,0,0,1,0,4.886H74.633A11.691,11.691,0,0,1,66.3,71.1a11.873,11.873,0,0,1-3.2-5.929H29L17.919,76.237a2.452,2.452,0,0,1-4.188-1.718v-9.55A14.873,14.873,0,0,1,1.35,50.357V22.982A14.861,14.861,0,0,1,16.181,8.167h53.7a14.861,14.861,0,0,1,14.83,14.815v4.526h41.552a11.8,11.8,0,0,1,11.779,11.767V62.808A11.8,11.8,0,0,1,128.7,74.316v9.605a2.441,2.441,0,0,1-4.17,1.727L113.448,74.575h-13.36a2.443,2.443,0,1,1,0-4.886h14.377a2.417,2.417,0,0,1,1.738.73l7.609,7.6V72.136a2.447,2.447,0,0,1,2.451-2.448,6.91,6.91,0,0,0,6.888-6.881V39.274a6.91,6.91,0,0,0-6.888-6.881H84.711V50.358a14.86,14.86,0,0,1-14.83,14.815h-1.7Zm-40.2-4.886h41.9a9.97,9.97,0,0,0,9.939-9.929V22.982a9.97,9.97,0,0,0-9.939-9.929H16.18a9.971,9.971,0,0,0-9.94,9.929V50.357a9.97,9.97,0,0,0,9.94,9.929,2.445,2.445,0,0,1,2.441,2.448v5.883l7.628-7.61a2.43,2.43,0,0,1,1.729-.721Zm100.975,90.329h-90.9v14.168h90.9V150.614Z" transform="translate(0 -8.167)" fill="#8f151a"/>
</svg>
