<svg xmlns="http://www.w3.org/2000/svg" xmlns:xlink="http://www.w3.org/1999/xlink" width="170" height="50" viewBox="0 0 170 50">
  <defs>
    <linearGradient id="linear-gradient" x1="0.915" y1="5.482" x2="-0.382" y2="4.812" gradientUnits="objectBoundingBox">
      <stop offset="0" stop-color="#00a0ff"/>
      <stop offset="0.007" stop-color="#00a1ff"/>
      <stop offset="0.26" stop-color="#00beff"/>
      <stop offset="0.512" stop-color="#00d2ff"/>
      <stop offset="0.76" stop-color="#00dfff"/>
      <stop offset="1" stop-color="#00e3ff"/>
    </linearGradient>
    <linearGradient id="linear-gradient-2" x1="1.076" y1="13.781" x2="-1.305" y2="13.781" gradientUnits="objectBoundingBox">
      <stop offset="0" stop-color="#ffe000"/>
      <stop offset="0.409" stop-color="#ffbd00"/>
      <stop offset="0.775" stop-color="orange"/>
      <stop offset="1" stop-color="#ff9c00"/>
    </linearGradient>
    <linearGradient id="linear-gradient-3" x1="0.862" y1="8.655" x2="-0.501" y2="6.884" gradientUnits="objectBoundingBox">
      <stop offset="0" stop-color="#ff3a44"/>
      <stop offset="1" stop-color="#c31162"/>
    </linearGradient>
    <linearGradient id="linear-gradient-4" x1="-0.188" y1="11.376" x2="0.421" y2="10.585" gradientUnits="objectBoundingBox">
      <stop offset="0" stop-color="#32a071"/>
      <stop offset="0.068" stop-color="#2da771"/>
      <stop offset="0.476" stop-color="#15cf74"/>
      <stop offset="0.801" stop-color="#06e775"/>
      <stop offset="1" stop-color="#00f076"/>
    </linearGradient>
  </defs>
  <g id="Download-Play-Store-btn" transform="translate(7 -5)">
    <rect id="Rectangle_382" data-name="Rectangle 382" width="170" height="50" rx="6.259" transform="translate(-7 5)"/>
    <g id="Group_3245" data-name="Group 3245">
      <g id="Group_3244" data-name="Group 3244" transform="translate(-7 5)">
        <path id="Path_5861" data-name="Path 5861" d="M156.7,6a5.275,5.275,0,0,1,5.288,5.25v37.5A5.275,5.275,0,0,1,156.7,54H-.7a5.275,5.275,0,0,1-5.288-5.25V11.25A5.275,5.275,0,0,1-.7,6H156.7m0-1H-.7A6.292,6.292,0,0,0-7,11.25v37.5A6.292,6.292,0,0,0-.7,55H156.7a6.292,6.292,0,0,0,6.3-6.25V11.25A6.292,6.292,0,0,0,156.7,5Z" transform="translate(7 -5)" fill="#a6a6a6"/>
      </g>
    </g>
    <g id="Group_3246" data-name="Group 3246">
      <path id="Path_5862" data-name="Path 5862" d="M52.361,17.8a3.384,3.384,0,0,1-.933,2.5,3.647,3.647,0,0,1-2.759,1.109,3.864,3.864,0,0,1-3.9-3.917,3.866,3.866,0,0,1,3.9-3.918,3.862,3.862,0,0,1,1.541.315,3.086,3.086,0,0,1,1.175.838l-.66.659a2.538,2.538,0,0,0-2.056-.89,2.9,2.9,0,0,0-2.917,3,2.954,2.954,0,0,0,5.015,2.158,2.356,2.356,0,0,0,.629-1.519H48.669v-.9h3.639A3.124,3.124,0,0,1,52.361,17.8Z" fill="#fff" stroke="#fff" stroke-miterlimit="10" stroke-width="0.2"/>
      <path id="Path_5863" data-name="Path 5863" d="M58.131,14.672h-3.42V17.05h3.084v.9H54.711v2.377h3.42v.922H53.746v-7.5h4.385Z" fill="#fff" stroke="#fff" stroke-miterlimit="10" stroke-width="0.2"/>
      <path id="Path_5864" data-name="Path 5864" d="M62.2,21.25h-.966V14.672h-2.1V13.75H64.3v.922H62.2Z" fill="#fff" stroke="#fff" stroke-miterlimit="10" stroke-width="0.2"/>
      <path id="Path_5865" data-name="Path 5865" d="M68.033,21.25v-7.5H69v7.5Z" fill="#fff" stroke="#fff" stroke-miterlimit="10" stroke-width="0.2"/>
      <path id="Path_5866" data-name="Path 5866" d="M73.279,21.25h-.966V14.672h-2.1V13.75h5.161v.922h-2.1Z" fill="#fff" stroke="#fff" stroke-miterlimit="10" stroke-width="0.2"/>
      <path id="Path_5867" data-name="Path 5867" d="M85.148,20.281a3.905,3.905,0,0,1-5.507,0,4.047,4.047,0,0,1,0-5.562,3.891,3.891,0,0,1,5.5.005,4.036,4.036,0,0,1,.005,5.557Zm-4.8-.628a2.891,2.891,0,0,0,4.081,0,2.934,2.934,0,0,0,.835-2.153,2.934,2.934,0,0,0-.835-2.153,2.891,2.891,0,0,0-4.081,0A2.936,2.936,0,0,0,79.52,17.5,2.936,2.936,0,0,0,80.353,19.653Z" fill="#fff" stroke="#fff" stroke-miterlimit="10" stroke-width="0.2"/>
      <path id="Path_5868" data-name="Path 5868" d="M87.609,21.25v-7.5h1.175l3.65,5.834h.042l-.042-1.445V13.75H93.4v7.5H92.393l-3.82-6.117h-.041l.041,1.445V21.25Z" fill="#fff" stroke="#fff" stroke-miterlimit="10" stroke-width="0.2"/>
    </g>
    <path id="Path_5869" data-name="Path 5869" d="M78.3,32.189a5.317,5.317,0,1,0,5.345,5.317A5.245,5.245,0,0,0,78.3,32.189Zm0,8.539A3.23,3.23,0,1,1,81.3,37.506,3.078,3.078,0,0,1,78.3,40.728ZM66.637,32.189a5.317,5.317,0,1,0,5.344,5.317A5.245,5.245,0,0,0,66.637,32.189Zm0,8.539a3.23,3.23,0,1,1,3-3.222A3.078,3.078,0,0,1,66.637,40.728ZM52.768,33.821v2.255h5.4a4.706,4.706,0,0,1-1.23,2.84,5.54,5.54,0,0,1-4.175,1.651,6,6,0,0,1,0-12,5.766,5.766,0,0,1,4.074,1.611l1.593-1.591a7.884,7.884,0,0,0-5.667-2.276,8.258,8.258,0,1,0,0,16.513,7.562,7.562,0,0,0,5.768-2.316,7.442,7.442,0,0,0,1.956-5.276,7.312,7.312,0,0,0-.121-1.409Zm56.719,1.752a4.946,4.946,0,0,0-4.558-3.384,5.056,5.056,0,0,0-5.021,5.317,5.206,5.206,0,0,0,5.284,5.316,5.3,5.3,0,0,0,4.436-2.356l-1.815-1.208a3.042,3.042,0,0,1-2.621,1.47,2.71,2.71,0,0,1-2.582-1.611l7.119-2.94Zm-7.26,1.772a2.917,2.917,0,0,1,2.783-3.1,2.062,2.062,0,0,1,1.976,1.127ZM96.439,42.5h2.339V26.873H96.439Zm-3.832-9.122h-.081a3.689,3.689,0,0,0-2.8-1.189,5.321,5.321,0,0,0,0,10.633,3.633,3.633,0,0,0,2.8-1.208h.081v.765c0,2.034-1.089,3.122-2.844,3.122a2.945,2.945,0,0,1-2.682-1.893l-2.037.846A5.075,5.075,0,0,0,89.763,47.6c2.743,0,5.062-1.611,5.062-5.538V32.512H92.607Zm-2.683,7.35a3.233,3.233,0,0,1,0-6.444,3,3,0,0,1,2.844,3.242A2.972,2.972,0,0,1,89.924,40.728Zm30.522-13.855h-5.6V42.5h2.335V36.58h3.262a4.861,4.861,0,1,0,0-9.707Zm.06,7.532h-3.322V29.048h3.322a2.679,2.679,0,1,1,0,5.357Zm14.436-2.244a4.388,4.388,0,0,0-4.168,2.392l2.074.865a2.214,2.214,0,0,1,2.134-1.146,2.248,2.248,0,0,1,2.457,2.01v.161a5.177,5.177,0,0,0-2.436-.6c-2.235,0-4.51,1.226-4.51,3.518a3.613,3.613,0,0,0,3.885,3.438,3.3,3.3,0,0,0,2.98-1.528h.081v1.206h2.255V36.483C139.694,33.709,137.62,32.161,134.942,32.161Zm-.282,8.564c-.765,0-1.832-.382-1.832-1.327,0-1.206,1.329-1.669,2.477-1.669a4.172,4.172,0,0,1,2.134.523A2.831,2.831,0,0,1,134.66,40.725ZM147.908,32.5l-2.677,6.775h-.081L142.372,32.5h-2.517l4.168,9.469-2.376,5.268h2.436L150.506,32.5Zm-21.039,10H129.2V26.873h-2.335Z" fill="#fff"/>
    <g id="Group_3248" data-name="Group 3248">
      <path id="Path_5870" data-name="Path 5870" d="M6.064,14.423a2.5,2.5,0,0,0-.58,1.756V43.824a2.5,2.5,0,0,0,.58,1.756l.092.09L21.665,30.184v-.365L6.156,14.332Z" fill="url(#linear-gradient)"/>
      <path id="Path_5871" data-name="Path 5871" d="M26.835,35.348l-5.17-5.164v-.365l5.171-5.163.117.066L33.078,28.2c1.749.993,1.749,2.616,0,3.61l-6.125,3.475Z" fill="url(#linear-gradient-2)"/>
      <path id="Path_5872" data-name="Path 5872" d="M26.953,35.281,21.665,30,6.064,45.58a2.039,2.039,0,0,0,2.6.077L26.953,35.281" fill="url(#linear-gradient-3)"/>
      <path id="Path_5873" data-name="Path 5873" d="M26.953,24.721,8.665,14.346a2.037,2.037,0,0,0-2.6.077L21.665,30Z" fill="url(#linear-gradient-4)"/>
      <g id="Group_3247" data-name="Group 3247">
        <path id="Path_5874" data-name="Path 5874" d="M26.836,35.165,8.665,45.474a2.086,2.086,0,0,1-2.508.013h0l-.093.093h0l.092.091h0a2.086,2.086,0,0,0,2.508-.013L26.953,35.281Z" opacity="0.2" style="isolation: isolate"/>
        <path id="Path_5875" data-name="Path 5875" d="M6.064,45.4a2.5,2.5,0,0,1-.58-1.756v.182a2.5,2.5,0,0,0,.58,1.756l.093-.093Z" opacity="0.12" style="isolation: isolate"/>
      </g>
      <path id="Path_5876" data-name="Path 5876" d="M33.078,31.623l-6.242,3.542.117.116,6.125-3.475A2.194,2.194,0,0,0,34.39,30h0A2.33,2.33,0,0,1,33.078,31.623Z" opacity="0.12" style="isolation: isolate"/>
      <path id="Path_5877" data-name="Path 5877" d="M8.665,14.529l24.413,13.85A2.329,2.329,0,0,1,34.39,30h0A2.192,2.192,0,0,0,33.078,28.2L8.665,14.346c-1.75-.992-3.181-.168-3.181,1.833v.183C5.484,14.361,6.915,13.537,8.665,14.529Z" fill="#fff" opacity="0.25" style="isolation: isolate"/>
    </g>
  </g>
</svg>
