<svg xmlns="http://www.w3.org/2000/svg" width="150" height="50" viewBox="0 0 150 50">
  <g id="Download-App-Store-btn" transform="translate(0 0)">
    <g id="Group_3252" data-name="Group 3252" transform="translate(0 0)">
      <g id="Group_3250" data-name="Group 3250">
        <path id="Path_5878" data-name="Path 5878" d="M138.055,0H11.952c-.46,0-.914,0-1.372,0-.384,0-.764.01-1.152.016A16.61,16.61,0,0,0,6.916.239a8.371,8.371,0,0,0-2.383.784A8.069,8.069,0,0,0,2.5,2.5,7.824,7.824,0,0,0,1.027,4.523,8.235,8.235,0,0,0,.244,6.9,16.2,16.2,0,0,0,.019,9.4c-.012.383-.013.768-.019,1.151V39.448c.006.388.007.764.019,1.152a16.2,16.2,0,0,0,.225,2.5,8.218,8.218,0,0,0,.783,2.38A7.761,7.761,0,0,0,2.5,47.5a7.864,7.864,0,0,0,2.029,1.473,8.416,8.416,0,0,0,2.383.789,16.912,16.912,0,0,0,2.512.221c.387.008.768.013,1.152.013.458,0,.913,0,1.372,0h126.1c.451,0,.908,0,1.359,0,.382,0,.774,0,1.156-.013a16.69,16.69,0,0,0,2.507-.221,8.546,8.546,0,0,0,2.392-.788A7.868,7.868,0,0,0,147.5,47.5a8,8,0,0,0,1.481-2.018,8.239,8.239,0,0,0,.776-2.38,16.838,16.838,0,0,0,.233-2.5c0-.388,0-.764,0-1.152.01-.454.01-.906.01-1.367V11.92c0-.458,0-.912-.01-1.365,0-.383,0-.768,0-1.151a16.835,16.835,0,0,0-.233-2.5,8.256,8.256,0,0,0-.776-2.379,8.094,8.094,0,0,0-3.508-3.5,8.5,8.5,0,0,0-2.392-.784,16.4,16.4,0,0,0-2.507-.221C140.187.012,139.8,0,139.414,0c-.451,0-.908,0-1.359,0Z" transform="translate(0 0)" fill="#a6a6a6"/>
        <path id="Path_5879" data-name="Path 5879" d="M10.365,48.687c-.382,0-.755,0-1.134-.013a15.949,15.949,0,0,1-2.343-.2,7.39,7.39,0,0,1-2.077-.685A6.776,6.776,0,0,1,3.06,46.514a6.652,6.652,0,0,1-1.279-1.746A7.138,7.138,0,0,1,1.1,42.7a15.474,15.474,0,0,1-.209-2.344C.883,40.09.873,39.212.873,39.212V10.337s.011-.864.018-1.118A15.42,15.42,0,0,1,1.1,6.878,7.18,7.18,0,0,1,1.78,4.8,6.718,6.718,0,0,1,3.053,3.053,6.976,6.976,0,0,1,4.811,1.775,7.314,7.314,0,0,1,6.883,1.1,15.821,15.821,0,0,1,9.234.89L10.365.875H139.192l1.145.016a15.569,15.569,0,0,1,2.33.2,7.459,7.459,0,0,1,2.095.685A7,7,0,0,1,147.788,4.8a7.189,7.189,0,0,1,.671,2.061,16.2,16.2,0,0,1,.218,2.359c0,.354,0,.734,0,1.113.01.469.01.915.01,1.365V37.862c0,.454,0,.9-.01,1.344,0,.406,0,.779,0,1.162a15.872,15.872,0,0,1-.214,2.317,7.159,7.159,0,0,1-.677,2.087,7.057,7.057,0,0,1-3.027,3.01,7.362,7.362,0,0,1-2.091.687,15.767,15.767,0,0,1-2.343.2c-.367.008-.752.013-1.125.013l-1.359,0Z" transform="translate(0.218 0.219)"/>
      </g>
      <g id="_Group_" data-name="&lt;Group&gt;" transform="translate(12.464 10.9)">
        <g id="_Group_2" data-name="&lt;Group&gt;">
          <g id="_Group_3" data-name="&lt;Group&gt;">
            <path id="_Path_" data-name="&lt;Path&gt;" d="M28.468,21.883a6.186,6.186,0,0,1,2.946-5.19A6.332,6.332,0,0,0,26.425,14c-2.1-.22-4.134,1.256-5.2,1.256-1.09,0-2.737-1.234-4.511-1.2a6.644,6.644,0,0,0-5.591,3.41c-2.417,4.186-.614,10.337,1.7,13.72,1.159,1.657,2.513,3.507,4.285,3.442,1.734-.072,2.381-1.106,4.474-1.106,2.073,0,2.681,1.106,4.489,1.064,1.86-.03,3.033-1.664,4.151-3.336a13.7,13.7,0,0,0,1.9-3.866,5.978,5.978,0,0,1-3.649-5.5Z" transform="translate(-9.972 -7.407)" fill="#fff"/>
            <path id="_Path_2" data-name="&lt;Path&gt;" d="M22.849,13.084A6.091,6.091,0,0,0,24.242,8.72a6.2,6.2,0,0,0-4.009,2.075A5.8,5.8,0,0,0,18.8,15a5.124,5.124,0,0,0,4.046-1.913Z" transform="translate(-7.767 -8.72)" fill="#fff"/>
          </g>
        </g>
        <g id="Group_3251" data-name="Group 3251" transform="translate(30.57 11.438)">
          <path id="Path_5880" data-name="Path 5880" d="M44.271,29.405H38.354l-1.421,4.2H34.427l5.6-15.522h2.6L48.24,33.6H45.691Zm-5.3-1.936h4.69L41.345,20.66H41.28Z" transform="translate(-34.427 -17.819)" fill="#fff"/>
          <path id="Path_5881" data-name="Path 5881" d="M57.292,27.126c0,3.517-1.882,5.776-4.723,5.776a3.837,3.837,0,0,1-3.561-1.98h-.054v5.605H46.631V21.467H48.88v1.882h.043a4.015,4.015,0,0,1,3.6-2C55.4,21.348,57.292,23.619,57.292,27.126Zm-2.388,0c0-2.291-1.184-3.8-2.991-3.8-1.775,0-2.969,1.538-2.969,3.8,0,2.28,1.194,3.807,2.969,3.807,1.807,0,2.991-1.5,2.991-3.807Z" transform="translate(-31.376 -17.002)" fill="#fff"/>
          <path id="Path_5882" data-name="Path 5882" d="M67.257,27.126c0,3.517-1.882,5.776-4.723,5.776a3.837,3.837,0,0,1-3.561-1.98h-.054v5.605H56.6V21.466h2.249v1.882h.043a4.014,4.014,0,0,1,3.6-2C65.363,21.348,67.257,23.619,67.257,27.126Zm-2.388,0c0-2.291-1.184-3.8-2.991-3.8-1.775,0-2.969,1.538-2.969,3.8,0,2.28,1.194,3.807,2.969,3.807,1.807,0,2.991-1.5,2.991-3.807Z" transform="translate(-28.885 -17.002)" fill="#fff"/>
          <path id="Path_5883" data-name="Path 5883" d="M72.186,29.327c.172,1.539,1.667,2.55,3.711,2.55,1.958,0,3.367-1.011,3.367-2.4,0-1.2-.85-1.926-2.861-2.421l-2.012-.485c-2.85-.688-4.174-2.021-4.174-4.185,0-2.678,2.334-4.518,5.648-4.518,3.28,0,5.529,1.84,5.6,4.518H79.125C78.984,20.84,77.7,19.9,75.832,19.9s-3.152.946-3.152,2.323c0,1.1.818,1.743,2.819,2.237l1.71.42c3.185.753,4.508,2.032,4.508,4.3,0,2.9-2.313,4.723-5.992,4.723-3.442,0-5.767-1.776-5.917-4.584Z" transform="translate(-25.582 -17.871)" fill="#fff"/>
          <path id="Path_5884" data-name="Path 5884" d="M84.142,19.3v2.678h2.152v1.84H84.142v6.239c0,.969.431,1.421,1.377,1.421a7.258,7.258,0,0,0,.764-.054v1.829a6.379,6.379,0,0,1-1.29.107c-2.291,0-3.185-.861-3.185-3.055V23.818H80.163v-1.84h1.645V19.3Z" transform="translate(-22.994 -17.514)" fill="#fff"/>
          <path id="Path_5885" data-name="Path 5885" d="M86.065,27.129c0-3.561,2.1-5.8,5.367-5.8s5.369,2.237,5.369,5.8-2.076,5.8-5.369,5.8S86.065,30.7,86.065,27.129Zm8.369,0c0-2.443-1.119-3.884-3-3.884s-3,1.453-3,3.884c0,2.452,1.118,3.883,3,3.883s3-1.431,3-3.883Z" transform="translate(-21.518 -17.006)" fill="#fff"/>
          <path id="Path_5886" data-name="Path 5886" d="M96.186,21.466H98.4v1.926h.054a2.7,2.7,0,0,1,2.722-2.045,3.583,3.583,0,0,1,.8.087v2.173a3.247,3.247,0,0,0-1.044-.14,2.341,2.341,0,0,0-2.421,2.6v6.713H96.186Z" transform="translate(-18.988 -17.002)" fill="#fff"/>
          <path id="Path_5887" data-name="Path 5887" d="M111.426,29.463c-.312,2.054-2.313,3.464-4.873,3.464-3.292,0-5.336-2.206-5.336-5.745s2.054-5.852,5.238-5.852c3.131,0,5.1,2.151,5.1,5.582v.8h-7.993v.14a2.948,2.948,0,0,0,3.044,3.206,2.56,2.56,0,0,0,2.614-1.592Zm-7.853-3.378h5.658a2.722,2.722,0,0,0-2.776-2.872,2.865,2.865,0,0,0-2.882,2.872Z" transform="translate(-17.73 -17.006)" fill="#fff"/>
        </g>
      </g>
    </g>
    <g id="_Group_4" data-name="&lt;Group&gt;" transform="translate(44.588 10.546)">
      <g id="Group_3253" data-name="Group 3253">
        <path id="Path_5888" data-name="Path 5888" d="M38.365,8.733a3.3,3.3,0,0,1,3.51,3.706c0,2.383-1.288,3.752-3.51,3.752H35.671V8.733Zm-1.536,6.4h1.406a2.345,2.345,0,0,0,2.46-2.682,2.351,2.351,0,0,0-2.46-2.667H36.829Z" transform="translate(-35.671 -8.365)" fill="#fff"/>
        <path id="Path_5889" data-name="Path 5889" d="M41.683,13.028a2.667,2.667,0,1,1,5.309,0,2.667,2.667,0,1,1-5.309,0Zm4.166,0c0-1.22-.548-1.934-1.51-1.934s-1.509.713-1.509,1.934.543,1.938,1.509,1.938S45.849,14.253,45.849,13.028Z" transform="translate(-34.171 -8.019)" fill="#fff"/>
        <path id="Path_5890" data-name="Path 5890" d="M52.824,15.824H51.672l-1.163-4.146h-.088l-1.158,4.146H48.121l-1.552-5.629H47.7L48.7,14.49h.083l1.157-4.295H51.01l1.157,4.295h.088l1-4.295H54.37Z" transform="translate(-32.946 -7.998)" fill="#fff"/>
        <path id="Path_5891" data-name="Path 5891" d="M53.854,10.218h1.069v.894h.083a1.685,1.685,0,0,1,1.68-1A1.831,1.831,0,0,1,58.634,12.2v3.644H57.523V12.482c0-.9-.393-1.354-1.215-1.354a1.291,1.291,0,0,0-1.344,1.426v3.293H53.854Z" transform="translate(-31.125 -8.02)" fill="#fff"/>
        <path id="Path_5892" data-name="Path 5892" d="M59.094,8.437H60.2v7.826H59.094Z" transform="translate(-29.815 -8.437)" fill="#fff"/>
        <path id="Path_5893" data-name="Path 5893" d="M61.22,13.028a2.667,2.667,0,1,1,5.309,0,2.667,2.667,0,1,1-5.309,0Zm4.166,0c0-1.22-.548-1.934-1.51-1.934s-1.509.713-1.509,1.934.543,1.938,1.509,1.938S65.387,14.253,65.387,13.028Z" transform="translate(-29.287 -8.019)" fill="#fff"/>
        <path id="Path_5894" data-name="Path 5894" d="M66.4,14.253c0-1.013.754-1.6,2.093-1.68l1.525-.088V12c0-.594-.393-.93-1.152-.93-.62,0-1.05.228-1.173.626H66.618c.114-.967,1.023-1.587,2.3-1.587,1.411,0,2.207.7,2.207,1.891v3.846H70.056v-.791h-.088a1.894,1.894,0,0,1-1.691.884A1.7,1.7,0,0,1,66.4,14.253Zm3.618-.481V13.3l-1.375.088c-.775.052-1.127.316-1.127.812s.439.8,1.044.8a1.327,1.327,0,0,0,1.457-1.23Z" transform="translate(-27.989 -8.019)" fill="#fff"/>
        <path id="Path_5895" data-name="Path 5895" d="M71.348,13.446c0-1.779.914-2.905,2.336-2.905a1.855,1.855,0,0,1,1.726.987h.083V8.437H76.6v7.826H75.54v-.889h-.088a1.954,1.954,0,0,1-1.768.982C72.253,16.356,71.348,15.229,71.348,13.446Zm1.147,0c0,1.194.563,1.912,1.5,1.912s1.515-.729,1.515-1.907S74.93,11.539,74,11.539s-1.5.723-1.5,1.907Z" transform="translate(-26.752 -8.437)" fill="#fff"/>
        <path id="Path_5896" data-name="Path 5896" d="M79.233,13.028a2.667,2.667,0,1,1,5.309,0,2.667,2.667,0,1,1-5.309,0Zm4.166,0c0-1.22-.548-1.934-1.51-1.934s-1.509.713-1.509,1.934.543,1.938,1.509,1.938S83.4,14.253,83.4,13.028Z" transform="translate(-24.784 -8.019)" fill="#fff"/>
        <path id="Path_5897" data-name="Path 5897" d="M84.669,10.218h1.069v.894h.083a1.685,1.685,0,0,1,1.68-1A1.831,1.831,0,0,1,89.45,12.2v3.644H88.339V12.482c0-.9-.393-1.354-1.215-1.354a1.291,1.291,0,0,0-1.344,1.426v3.293H84.669Z" transform="translate(-23.421 -8.02)" fill="#fff"/>
        <path id="Path_5898" data-name="Path 5898" d="M93.916,9.074V10.5h1.219v.936H93.916v2.894c0,.59.243.848.8.848a3.708,3.708,0,0,0,.424-.026v.925a3.644,3.644,0,0,1-.6.057c-1.235,0-1.727-.435-1.727-1.52V11.436h-.894V10.5H92.8V9.074Z" transform="translate(-21.611 -8.278)" fill="#fff"/>
        <path id="Path_5899" data-name="Path 5899" d="M95.7,8.437h1.1v3.1h.088a1.732,1.732,0,0,1,1.716-1.008,1.854,1.854,0,0,1,1.938,2.1v3.634H99.436V12.9c0-.9-.419-1.354-1.2-1.354a1.315,1.315,0,0,0-1.417,1.427v3.287H95.7Z" transform="translate(-20.663 -8.437)" fill="#fff"/>
        <path id="Path_5900" data-name="Path 5900" d="M105.774,14.325a2.285,2.285,0,0,1-2.439,1.628,2.557,2.557,0,0,1-2.6-2.905,2.6,2.6,0,0,1,2.6-2.941c1.566,0,2.511,1.07,2.511,2.837v.388h-3.975V13.4a1.488,1.488,0,0,0,1.5,1.612,1.349,1.349,0,0,0,1.339-.682Zm-3.907-1.814h2.843a1.358,1.358,0,0,0-1.386-1.458,1.44,1.44,0,0,0-1.457,1.458Z" transform="translate(-19.411 -8.019)" fill="#fff"/>
      </g>
    </g>
  </g>
</svg>
