<svg xmlns="http://www.w3.org/2000/svg" width="120" height="122.998" viewBox="0 0 120 122.998">
  <g id="faqs-answer-notfound" transform="translate(-90.911 -27.993)">
    <ellipse id="Ellipse_66" data-name="Ellipse 66" cx="55.606" cy="30.176" rx="55.606" ry="30.176" transform="translate(96.943 90.638)" fill="#f5f5f5"/>
    <g id="Group_3324" data-name="Group 3324" transform="translate(129.393 114)">
      <ellipse id="Ellipse_67" data-name="Ellipse 67" cx="10.313" cy="5.956" rx="10.313" ry="5.956" transform="translate(0 0)" fill="#e0e0e0"/>
      <ellipse id="Ellipse_68" data-name="Ellipse 68" cx="16.303" cy="9.412" rx="16.303" ry="9.412" transform="translate(32.471 9.005)" fill="#e0e0e0"/>
    </g>
    <g id="Group_3325" data-name="Group 3325" transform="translate(198.769 106.197)">
      <path id="Path_12915" data-name="Path 12915" d="M446.517,303.989l-3.079-1.259a65.662,65.662,0,0,1-.668-8.034c0-5.031,3.134-11.183,7.111-10.154s-1.121,6.658-1.949,11.006S446.517,303.989,446.517,303.989Z" transform="translate(-442.77 -284.428)" fill="#d72027"/>
      <path id="Path_12916" data-name="Path 12916" d="M446.517,303.989l-3.079-1.259a65.662,65.662,0,0,1-.668-8.034c0-5.031,3.134-11.183,7.111-10.154s-1.121,6.658-1.949,11.006S446.517,303.989,446.517,303.989Z" transform="translate(-442.77 -284.428)" opacity="0.3"/>
      <path id="Path_12917" data-name="Path 12917" d="M449.178,307.234h0a.129.129,0,0,0,.11-.144c-1.468-11.03,3.493-17.158,3.542-17.21a.13.13,0,0,0-.2-.165c-.049.061-5.083,6.263-3.6,17.409a.129.129,0,0,0,.147.11Z" transform="translate(-446.923 -288.062)" fill="#fff"/>
      <path id="Path_12918" data-name="Path 12918" d="M455.808,318.395l-1.608-.729a17.094,17.094,0,0,1,.214-7.479c1.033-3.965,4.47-6.41,6.2-6.005,2.117.493,2.322,2.451,1.7,3.815C461.58,309.611,456.488,313.983,455.808,318.395Z" transform="translate(-450.48 -298.099)" fill="#d72027"/>
      <path id="Path_12919" data-name="Path 12919" d="M455.808,318.395l-1.608-.729a17.094,17.094,0,0,1,.214-7.479c1.033-3.965,4.47-6.41,6.2-6.005,2.117.493,2.322,2.451,1.7,3.815C461.58,309.611,456.488,313.983,455.808,318.395Z" transform="translate(-450.48 -298.099)" opacity="0.1"/>
      <path id="Path_12920" data-name="Path 12920" d="M456.94,320.871h0a.132.132,0,0,0,.116-.144c-.723-7,5.383-12.378,5.448-12.43a.135.135,0,0,0,0-.184.129.129,0,0,0-.184,0c-.064.055-6.269,5.515-5.537,12.654a.135.135,0,0,0,.157.1Z" transform="translate(-452.449 -300.829)" fill="#fff"/>
    </g>
    <g id="Group_3326" data-name="Group 3326" transform="translate(90.91 102.843)">
      <path id="Path_12921" data-name="Path 12921" d="M41.87,293.576l2.114-1.207a36.4,36.4,0,0,0,.254-10.377c-1.066-6.741-5.659-9.072-7.326-8.4s-2.059,2.669.953,6.566A22.492,22.492,0,0,1,41.87,293.576Z" transform="translate(-31.731 -273.479)" fill="#d72027"/>
      <path id="Path_12922" data-name="Path 12922" d="M41.87,293.576l2.114-1.207a36.4,36.4,0,0,0,.254-10.377c-1.066-6.741-5.659-9.072-7.326-8.4s-2.059,2.669.953,6.566A22.492,22.492,0,0,1,41.87,293.576Z" transform="translate(-31.731 -273.479)" opacity="0.15"/>
      <path id="Path_12923" data-name="Path 12923" d="M47.787,293.053h-.021a.147.147,0,0,1-.126-.168c.87-6.315-1.667-13.233-4.522-16.021a.153.153,0,1,1,.211-.217c2.9,2.825,5.494,9.872,4.611,16.275a.153.153,0,0,1-.153.131Z" transform="translate(-36.882 -275.634)" fill="#fff"/>
      <path id="Path_12924" data-name="Path 12924" d="M27.19,310.045c-.334.19-1.02-.227-1.284-.4a3.222,3.222,0,0,1-1.06-1.226,2.981,2.981,0,0,1-.263-1.792,6.941,6.941,0,0,1,.227-.953l.267-.919a2.374,2.374,0,0,0,.135-.919,2.429,2.429,0,0,0-1.152-1.458,2.316,2.316,0,0,1-1.149-1.743,2.653,2.653,0,0,1,.671-1.593c.362-.463.794-.87,1.124-1.357a1.86,1.86,0,0,0,.377-1.192,1.951,1.951,0,0,0-.257-.738,10.254,10.254,0,0,1-.809-1.483,1.49,1.49,0,0,1,.257-1.578,1.737,1.737,0,0,1,1.308-.325,2.982,2.982,0,0,1,1.226.429c1.21.671,1.9,2.1,3.183,2.623a12.557,12.557,0,0,0,1.55.377,1.912,1.912,0,0,1,1.281.879c.472.941-.4,2.1-.07,3.1.306.882,1.152,1.226,1.633,2.019a1.881,1.881,0,0,1,.227,1.155,5.6,5.6,0,0,1-.487,1.955,13.884,13.884,0,0,1-1.075,1.762C33.03,306.68,27.242,310.008,27.19,310.045Z" transform="translate(-22.91 -286.562)" fill="#d72027"/>
      <path id="Path_12925" data-name="Path 12925" d="M37.193,310.414h0a.153.153,0,0,1-.147-.159c.248-5.975-2.568-12.562-4.614-14.492a.15.15,0,0,1,0-.211.153.153,0,0,1,.214,0c2.074,1.946,4.951,8.655,4.7,14.719a.15.15,0,0,1-.15.144Z" transform="translate(-29.484 -288.758)" fill="#fff"/>
      <path id="Path_12926" data-name="Path 12926" d="M34.885,318.828h-.046a20.382,20.382,0,0,0-4.335-.7.153.153,0,0,1,0-.306,20.64,20.64,0,0,1,4.412.714.15.15,0,0,1,.1.187A.153.153,0,0,1,34.885,318.828Z" transform="translate(-28.07 -304.234)" fill="#fff"/>
    </g>
    <g id="Group_3327" data-name="Group 3327" transform="translate(155.933 61.999)">
      <path id="Path_12927" data-name="Path 12927" d="M393.694,349.992l-2.856-.328-.738-5.754,3.49,1.036Z" transform="translate(-363.401 -281.516)" fill="#b16668"/>
      <path id="Path_12928" data-name="Path 12928" d="M381.293,369.55a.861.861,0,0,0,.049.7,3.34,3.34,0,0,0,2.175.849,4.342,4.342,0,0,0,2.555-.447,1.786,1.786,0,0,0,.956-1.4,3.8,3.8,0,0,1,.273-1.6c.273-.45.668-.888.757-1.115a2.282,2.282,0,0,0,0-1.195Z" transform="translate(-357.256 -296.38)" fill="#263238"/>
      <path id="Path_12929" data-name="Path 12929" d="M384.174,359.823a2.379,2.379,0,0,1-.12.653,6,6,0,0,1-.631,1.29,5.279,5.279,0,0,1-.429.613c-.306.371-.7.677-1.029,1.033a2.114,2.114,0,0,0-.637,1.262c-.043.809,1.244,1.085,1.921,1.2a4.961,4.961,0,0,0,2.194-.11,2.013,2.013,0,0,0,1.477-1.609c.04-.227.024-.457.052-.68a3.17,3.17,0,0,1,.628-1.415,4.2,4.2,0,0,0,.481-.769,2.417,2.417,0,0,0-.092-1.56c-.116-.432-.257-.919-.411-.885,0,.224,0,.254-.15.4s-.208.481-.423.65a3.1,3.1,0,0,0,.15-.576.322.322,0,0,0-.046-.227.612.612,0,0,0-.248-.135,5.105,5.105,0,0,0-.98-.224,6.021,6.021,0,0,0-1.37,0,.407.407,0,0,0-.242.141.5.5,0,0,0-.086.276C384.168,359.275,384.18,359.609,384.174,359.823Z" transform="translate(-357.316 -291.777)" fill="#455a64"/>
      <path id="Path_12930" data-name="Path 12930" d="M387.781,367.8a3.877,3.877,0,0,1,1.756-.19,2.225,2.225,0,0,1,1.048.368.239.239,0,0,0,.306-.025h0a.227.227,0,0,0-.025-.343,2.277,2.277,0,0,0-1.177-.438,6.087,6.087,0,0,0-1.587.092S387.693,367.532,387.781,367.8Z" transform="translate(-361.784 -297.641)" fill="#f5f5f5"/>
      <path id="Path_12931" data-name="Path 12931" d="M385.55,370.6a4.686,4.686,0,0,1,1.9-.153,2.093,2.093,0,0,1,1.017.389.242.242,0,0,0,.306-.024h0a.227.227,0,0,0-.025-.343,4.371,4.371,0,0,0-1.615-.472c-.919-.064-1.143.119-1.143.119a.763.763,0,0,0-.444.484Z" transform="translate(-360.245 -299.602)" fill="#f5f5f5"/>
      <path id="Path_12932" data-name="Path 12932" d="M391.249,364.315a4.461,4.461,0,0,0-1.55.1c-.159.089-.267.343-.162.408a4.355,4.355,0,0,1,1.422-.141,3.036,3.036,0,0,1,.98.27c.08.037.172.083.251.129a.211.211,0,0,0,.306-.092h0a.2.2,0,0,0-.077-.26,2.927,2.927,0,0,0-1.17-.414Z" transform="translate(-362.982 -295.649)" fill="#f5f5f5"/>
      <path id="Path_12933" data-name="Path 12933" d="M360.935,341.084l-2.715-.757V334.84l3.367.147Z" transform="translate(-341.289 -275.225)" fill="#b16668"/>
      <path id="Path_12934" data-name="Path 12934" d="M339.39,360.745a1,1,0,0,0,.04.72,3.611,3.611,0,0,0,2.684.729,6.2,6.2,0,0,0,3.064-1.072,3.522,3.522,0,0,1,1.887-.484,2.737,2.737,0,0,0,1.86-.754,1.639,1.639,0,0,0-.025-.935Z" transform="translate(-328.194 -291.948)" fill="#263238"/>
      <path id="Path_12935" data-name="Path 12935" d="M345.28,349.345l-.116-.025a.429.429,0,0,0-.2,0,.414.414,0,0,0-.184.123,3.627,3.627,0,0,0-.377.6,4.455,4.455,0,0,1-1.676,1.308c-.484.26-.959.463-1.458.686a12.118,12.118,0,0,0-1.587.64,1.069,1.069,0,0,0,0,1.765,5.223,5.223,0,0,0,3.655.254c.858-.245,1.814-1.161,2.941-1.25a4.46,4.46,0,0,0,2.537-.8c.172-.242-.058-1.008-.245-1.67-.2-.723-.4-1.838-.637-1.786a.325.325,0,0,1-.126.27,3.84,3.84,0,0,1-.306.233,1.884,1.884,0,0,0-.4.573.432.432,0,0,1-.2.221c-.123.043-.211-.031-.306-.08a.613.613,0,0,0-.429-.031,2.876,2.876,0,0,1,.077-.426.228.228,0,0,0,0-.135.2.2,0,0,0-.092-.1A2.277,2.277,0,0,0,345.28,349.345Z" transform="translate(-328.11 -285.175)" fill="#455a64"/>
      <path id="Path_12936" data-name="Path 12936" d="M352.9,354.114a.662.662,0,0,1,.53-.355,1.93,1.93,0,0,1,1.259.475.267.267,0,0,1-.037.441h0a.264.264,0,0,1-.306-.034,2.053,2.053,0,0,0-1.446-.527Z" transform="translate(-337.599 -288.341)" fill="#f5f5f5"/>
      <path id="Path_12937" data-name="Path 12937" d="M349.59,356.055a.769.769,0,0,1,.628-.325,2.384,2.384,0,0,1,1.382.518.26.26,0,0,1-.037.426h0a.254.254,0,0,1-.306-.034A2.053,2.053,0,0,0,349.59,356.055Z" transform="translate(-335.303 -289.715)" fill="#f5f5f5"/>
      <path id="Path_12938" data-name="Path 12938" d="M346,357.791a.852.852,0,0,1,.65-.291,2.308,2.308,0,0,1,1.324.521.264.264,0,0,1-.037.429h0a.254.254,0,0,1-.306-.034,1.958,1.958,0,0,0-1.631-.625Z" transform="translate(-332.813 -290.942)" fill="#f5f5f5"/>
      <path id="Path_12939" data-name="Path 12939" d="M370.356,231.5c.187,5.659.2,17.915.2,17.915.058.7.12,1.955.172,4.492.077,3.677.254,12.755.254,12.755a4.648,4.648,0,0,1-3.37.153s-2.243-12.764-2.7-16.4c-.4-3.177-1.17-10.629-1.17-10.629l-1.06,9.458s0,2.451-.144,4.614c-.12,1.685-1.756,10.365-1.756,10.365a5.626,5.626,0,0,1-3.245-.107s-.147-13.325-.178-14.872c-.034-1.759.42-20.773.42-20.773Z" transform="translate(-340.688 -201.446)" fill="#455a64"/>
      <path id="Path_12940" data-name="Path 12940" d="M369.04,254.351l-.4-3.208a11.211,11.211,0,0,1-3.646-1.673,8.689,8.689,0,0,0,3.064,2.145l.515,2.911-.582,9.284Z" transform="translate(-345.985 -216.012)" fill="#37474f"/>
      <path id="Path_12941" data-name="Path 12941" d="M319.9,182.908c-.827,1.085-5.083,6.924-5.083,6.924l-3.931-3.046c-.919-.72-1.192-1.664-1.768-2.316a13.731,13.731,0,0,0-1.854-1.354c-.646-.545-.895-.959-1.115-.493s.493,1.278.613,1.474.858.665-.116.613a12.465,12.465,0,0,1-3.3-1.37c-.453-.205-.466.355-.251.723s.107,1.391.358,2.05a2.748,2.748,0,0,0,1.59,1.507c.836.417,2.871.677,3.533,1.094h0c1.452,1.489,4.191,4.268,4.884,4.783.953.708,1.875,1.36,3.333-.043s5.684-6.909,5.684-6.909l.873-5.236a3.658,3.658,0,0,0-3.45,1.6Z" transform="translate(-302.96 -168.731)" fill="#b16668"/>
      <path id="Path_12942" data-name="Path 12942" d="M341.67,208.426a3.5,3.5,0,0,1,1.152,1.694,2.758,2.758,0,0,0-.919-2.01Z" transform="translate(-329.81 -187.324)" fill="#9a4a4d"/>
      <path id="Path_12943" data-name="Path 12943" d="M353,180.9a6.5,6.5,0,0,0-2.911.6c-.889.622-1.547,1.532-2.99,3.631-1.265,1.838-1.878,2.721-1.878,2.721a6.783,6.783,0,0,0,3.435,2.623l3.775-4.676Z" transform="translate(-332.272 -168.451)" fill="#37474f"/>
      <path id="Path_12944" data-name="Path 12944" d="M366,180.549c1.146.11,2.758.123,3.891.239.787.325,2.307,1.648,2.194,2.592-.423,3.527-1.278,9.308-1.278,9.308l.282,6.128c-1.578,1.575-8.962,2.191-12.767-.328,0,0,.123-11.006.386-12.868.469-3.337.879-4.574,2.6-4.869a30.93,30.93,0,0,1,4.692-.2Z" transform="translate(-341.358 -168.198)" fill="#d72027"/>
      <path id="Path_12945" data-name="Path 12945" d="M396.771,183.2c.827,1.085,5.086,6.924,5.086,6.924l3.934-3.045c.919-.723,1.192-1.667,1.768-2.316a14,14,0,0,1,1.854-1.354c.646-.545.895-.959,1.115-.5s-.493,1.281-.613,1.477-.858.665.116.613a12.5,12.5,0,0,0,3.3-1.373c.457-.205.463.355.251.723s-.11,1.394-.358,2.053a2.748,2.748,0,0,1-1.59,1.507c-.836.417-2.871.677-3.533,1.094h0c-1.452,1.486-4.191,4.268-4.884,4.78-.953.708-1.875,1.36-3.333-.04s-4.792-5.76-4.792-5.76L393.33,181.6A3.649,3.649,0,0,1,396.771,183.2Z" transform="translate(-365.641 -168.932)" fill="#b16668"/>
      <path id="Path_12946" data-name="Path 12946" d="M418.552,208.709A3.5,3.5,0,0,0,417.4,210.4a2.757,2.757,0,0,1,.919-2.013Z" transform="translate(-382.337 -187.518)" fill="#9a4a4d"/>
      <path id="Path_12947" data-name="Path 12947" d="M391.835,181.1a5.014,5.014,0,0,1,2.773.613,15.477,15.477,0,0,1,2.99,3.631c1.265,1.838,1.878,2.721,1.878,2.721a6.8,6.8,0,0,1-3.438,2.623l-2.571-3.168C392.129,185.817,390.8,183.234,391.835,181.1Z" transform="translate(-364.349 -168.582)" fill="#37474f"/>
      <path id="Path_12948" data-name="Path 12948" d="M368.218,145.523A3.554,3.554,0,1,1,364.634,142a3.554,3.554,0,0,1,3.584,3.523Z" transform="translate(-343.294 -141.469)" fill="#263238"/>
      <path id="Path_12949" data-name="Path 12949" d="M389.483,161.68a30.728,30.728,0,0,1-.781,3.156,1.225,1.225,0,0,1-.7.579l.021-1.906Z" transform="translate(-361.945 -155.12)" fill="#263238"/>
      <path id="Path_12950" data-name="Path 12950" d="M389.628,149.025a1.327,1.327,0,0,1,1.106.377c.478.481.227,2-.349,3.493l-1.085.135Z" transform="translate(-362.846 -146.335)" fill="#263238"/>
      <path id="Path_12951" data-name="Path 12951" d="M370.743,149.369c.218.129.524-.306.79-.576a.951.951,0,0,1,1.584.242,1.984,1.984,0,0,1-1.054,2.4c-1.186.386-1.373-.377-1.373-.377l-.049,4.418h0c-1.458,1.909-5.561,1.783-3.87-.208v-1.3a7.512,7.512,0,0,1-1.6.1,2.18,2.18,0,0,1-1.707-1.756,12.7,12.7,0,0,1-.276-5.733c.368-3.278,4.176-3.346,6.244-2.068S370.743,149.369,370.743,149.369Z" transform="translate(-344.614 -142.671)" fill="#b16668"/>
      <path id="Path_12952" data-name="Path 12952" d="M369.642,147.332c.107,0,.518-.692.787-.941.371-.346-.138-3.432-.138-3.432a1.5,1.5,0,0,0-.276-1.67c-.518-.561-1.241-1.244-3.569-.95-1.664.211-3.468.748-4.936.043a2.491,2.491,0,0,0,.889,2.635,4.989,4.989,0,0,0,1.927.493,20.644,20.644,0,0,0,3.854-.107c.4-.058.493.331.72,1.4C369.1,145.738,369.274,147.329,369.642,147.332Z" transform="translate(-343.51 -140.269)" fill="#263238"/>
      <path id="Path_12953" data-name="Path 12953" d="M390.175,147.278l1.308-.717a.723.723,0,0,0-1-.322.784.784,0,0,0-.309,1.039Z" transform="translate(-363.393 -144.349)" fill="#263238"/>
      <path id="Path_12954" data-name="Path 12954" d="M375.25,173.239a14.985,14.985,0,0,0,2.626-.778,2.243,2.243,0,0,0,.934-.941,3.063,3.063,0,0,1-.524,1.1c-.493.643-3.03,1.134-3.03,1.134Z" transform="translate(-353.101 -161.945)" fill="#9a4a4d"/>
      <path id="Path_12955" data-name="Path 12955" d="M374.74,160.174a.4.4,0,0,0,.392.4.408.408,0,1,0-.392-.4Z" transform="translate(-352.747 -153.789)" fill="#263238"/>
      <path id="Path_12956" data-name="Path 12956" d="M376.469,155.825l-.87-.4a.5.5,0,0,0,.245.65.469.469,0,0,0,.625-.254Z" transform="translate(-353.315 -150.785)" fill="#263238"/>
      <path id="Path_12957" data-name="Path 12957" d="M364.667,155.15l-.757.594a.457.457,0,0,0,.662.1.509.509,0,0,0,.1-.689Z" transform="translate(-345.235 -150.591)" fill="#263238"/>
      <path id="Path_12958" data-name="Path 12958" d="M364.89,159.912a.374.374,0,1,0,.371-.392.38.38,0,0,0-.371.392Z" transform="translate(-345.915 -153.622)" fill="#263238"/>
      <path id="Path_12959" data-name="Path 12959" d="M368.271,159.77l-.221,2.344-1.21-.466Z" transform="translate(-347.268 -153.795)" fill="#9a4a4d"/>
      <path id="Path_12960" data-name="Path 12960" d="M373.68,169.444a.377.377,0,1,0,.377-.374.377.377,0,0,0-.377.374Z" transform="translate(-352.012 -160.246)" fill="#9a4a4d"/>
    </g>
    <g id="Group_3328" data-name="Group 3328" transform="translate(181.457 46.242)">
      <path id="Path_12961" data-name="Path 12961" d="M391.975,88.558a6.4,6.4,0,0,1,1.673.628,4.8,4.8,0,0,1,1.33,1.057,3.79,3.79,0,0,1,.784,1.434A3.37,3.37,0,0,1,395.8,93.4a3.48,3.48,0,0,1-.527,1.259,4.118,4.118,0,0,1-.824.867,6.715,6.715,0,0,1-.983.634l-.974.515a5.344,5.344,0,0,0-.833.539,1.578,1.578,0,0,0-.521.7.727.727,0,0,1-.248.306.438.438,0,0,1-.374.077l-1.434-.306a.53.53,0,0,1-.337-.233.435.435,0,0,1-.061-.389,3.417,3.417,0,0,1,.613-1.226,4.828,4.828,0,0,1,.882-.852,6.912,6.912,0,0,1,1.008-.613c.349-.175.674-.343.974-.509a4.259,4.259,0,0,0,.769-.521,1.225,1.225,0,0,0,.407-.674,1.461,1.461,0,0,0-.343-1.311,2.629,2.629,0,0,0-1.5-.818,2.532,2.532,0,0,0-2.715,1.082.99.99,0,0,1-.267.267.481.481,0,0,1-.371.028l-1.532-.34a.414.414,0,0,1-.267-.178.389.389,0,0,1-.058-.328,3,3,0,0,1,.7-1.259A4.743,4.743,0,0,1,388.3,89.1a5.647,5.647,0,0,1,1.731-.576,5.031,5.031,0,0,1,1.946.04Zm-1.618,10.889a.53.53,0,0,1,.4.625l-.368,1.661a.524.524,0,0,1-.613.4l-1.624-.358a.506.506,0,0,1-.325-.23.5.5,0,0,1-.07-.392l.368-1.664a.524.524,0,0,1,.613-.4Z" transform="translate(-386.265 -88.442)" fill="#d72027"/>
      <path id="Path_12962" data-name="Path 12962" d="M413.94,139.681a4.291,4.291,0,0,1,1.226-.025,3.313,3.313,0,0,1,1.124.337,2.617,2.617,0,0,1,.864.711,2.3,2.3,0,0,1,.463,1.094,2.344,2.344,0,0,1,0,.941,2.823,2.823,0,0,1-.306.769,4.781,4.781,0,0,1-.466.656l-.493.582a4,4,0,0,0-.4.558,1.1,1.1,0,0,0-.153.579.506.506,0,0,1-.08.27.307.307,0,0,1-.218.144l-1,.165a.377.377,0,0,1-.276-.064.306.306,0,0,1-.138-.233,2.279,2.279,0,0,1,.07-.938,3.112,3.112,0,0,1,.346-.775,4.752,4.752,0,0,1,.487-.653c.181-.2.343-.392.5-.576a2.988,2.988,0,0,0,.358-.53.845.845,0,0,0,.089-.536,1.008,1.008,0,0,0-.558-.754,1.8,1.8,0,0,0-1.17-.141,1.756,1.756,0,0,0-1.465,1.388.717.717,0,0,1-.1.242.34.34,0,0,1-.23.11l-1.066.175a.306.306,0,0,1-.218-.046.273.273,0,0,1-.123-.2,2.069,2.069,0,0,1,.132-.987,3.21,3.21,0,0,1,.582-.99,3.917,3.917,0,0,1,.962-.812,3.485,3.485,0,0,1,1.257-.461Zm1.749,7.412a.361.361,0,0,1,.414.3l.19,1.158a.355.355,0,0,1-.064.27.343.343,0,0,1-.233.144l-1.134.187a.352.352,0,0,1-.267-.064.343.343,0,0,1-.147-.233l-.19-1.161a.365.365,0,0,1,.306-.414Z" transform="translate(-403.414 -123.942)" fill="#d72027"/>
      <path id="Path_12963" data-name="Path 12963" d="M413.94,139.681a4.291,4.291,0,0,1,1.226-.025,3.313,3.313,0,0,1,1.124.337,2.617,2.617,0,0,1,.864.711,2.3,2.3,0,0,1,.463,1.094,2.344,2.344,0,0,1,0,.941,2.823,2.823,0,0,1-.306.769,4.781,4.781,0,0,1-.466.656l-.493.582a4,4,0,0,0-.4.558,1.1,1.1,0,0,0-.153.579.506.506,0,0,1-.08.27.307.307,0,0,1-.218.144l-1,.165a.377.377,0,0,1-.276-.064.306.306,0,0,1-.138-.233,2.279,2.279,0,0,1,.07-.938,3.112,3.112,0,0,1,.346-.775,4.752,4.752,0,0,1,.487-.653c.181-.2.343-.392.5-.576a2.988,2.988,0,0,0,.358-.53.845.845,0,0,0,.089-.536,1.008,1.008,0,0,0-.558-.754,1.8,1.8,0,0,0-1.17-.141,1.756,1.756,0,0,0-1.465,1.388.717.717,0,0,1-.1.242.34.34,0,0,1-.23.11l-1.066.175a.306.306,0,0,1-.218-.046.273.273,0,0,1-.123-.2,2.069,2.069,0,0,1,.132-.987,3.21,3.21,0,0,1,.582-.99,3.917,3.917,0,0,1,.962-.812,3.485,3.485,0,0,1,1.257-.461Zm1.749,7.412a.361.361,0,0,1,.414.3l.19,1.158a.355.355,0,0,1-.064.27.343.343,0,0,1-.233.144l-1.134.187a.352.352,0,0,1-.267-.064.343.343,0,0,1-.147-.233l-.19-1.161a.365.365,0,0,1,.306-.414Z" transform="translate(-403.414 -123.942)" opacity="0.2"/>
      <path id="Path_12964" data-name="Path 12964" d="M448.862,131.354a.432.432,0,0,1,.1.594l-.809,1.134a.432.432,0,0,1-.594.1l-1.109-.787a.413.413,0,0,1-.172-.276.429.429,0,0,1,.07-.306l.809-1.137a.426.426,0,0,1,.276-.172.42.42,0,0,1,.306.074Zm4.682-7.687a5.083,5.083,0,0,1,1.06,1,3.937,3.937,0,0,1,.665,1.226,3.11,3.11,0,0,1,.138,1.321,2.756,2.756,0,0,1-.521,1.308,2.856,2.856,0,0,1-.8.781,3.33,3.33,0,0,1-.9.389,5.513,5.513,0,0,1-.941.165l-.9.077a4.846,4.846,0,0,0-.8.141,1.311,1.311,0,0,0-.613.362.647.647,0,0,1-.288.162.368.368,0,0,1-.306-.064l-.98-.7a.444.444,0,0,1-.178-.282.356.356,0,0,1,.077-.306,2.757,2.757,0,0,1,.843-.732,3.776,3.776,0,0,1,.938-.362,5.728,5.728,0,0,1,.956-.147c.306-.018.613-.043.895-.071a3.37,3.37,0,0,0,.745-.15.99.99,0,0,0,.521-.377,1.186,1.186,0,0,0,.159-1.1,2.145,2.145,0,0,0-.87-1.094,2.074,2.074,0,0,0-2.39-.052.856.856,0,0,1-.285.116.4.4,0,0,1-.291-.1l-1.042-.741a.353.353,0,0,1-.147-.221.325.325,0,0,1,.064-.264,2.429,2.429,0,0,1,.919-.726,3.888,3.888,0,0,1,1.314-.346,4.691,4.691,0,0,1,1.486.116,4.082,4.082,0,0,1,1.472.671Z" transform="translate(-427.888 -112.328)" fill="#d72027"/>
      <path id="Path_12965" data-name="Path 12965" d="M448.862,131.354a.432.432,0,0,1,.1.594l-.809,1.134a.432.432,0,0,1-.594.1l-1.109-.787a.413.413,0,0,1-.172-.276.429.429,0,0,1,.07-.306l.809-1.137a.426.426,0,0,1,.276-.172.42.42,0,0,1,.306.074Zm4.682-7.687a5.083,5.083,0,0,1,1.06,1,3.937,3.937,0,0,1,.665,1.226,3.11,3.11,0,0,1,.138,1.321,2.756,2.756,0,0,1-.521,1.308,2.856,2.856,0,0,1-.8.781,3.33,3.33,0,0,1-.9.389,5.513,5.513,0,0,1-.941.165l-.9.077a4.846,4.846,0,0,0-.8.141,1.311,1.311,0,0,0-.613.362.647.647,0,0,1-.288.162.368.368,0,0,1-.306-.064l-.98-.7a.444.444,0,0,1-.178-.282.356.356,0,0,1,.077-.306,2.757,2.757,0,0,1,.843-.732,3.776,3.776,0,0,1,.938-.362,5.728,5.728,0,0,1,.956-.147c.306-.018.613-.043.895-.071a3.37,3.37,0,0,0,.745-.15.99.99,0,0,0,.521-.377,1.186,1.186,0,0,0,.159-1.1,2.145,2.145,0,0,0-.87-1.094,2.074,2.074,0,0,0-2.39-.052.856.856,0,0,1-.285.116.4.4,0,0,1-.291-.1l-1.042-.741a.353.353,0,0,1-.147-.221.325.325,0,0,1,.064-.264,2.429,2.429,0,0,1,.919-.726,3.888,3.888,0,0,1,1.314-.346,4.691,4.691,0,0,1,1.486.116,4.082,4.082,0,0,1,1.472.671Z" transform="translate(-427.888 -112.328)" fill="#fff" opacity="0.6"/>
    </g>
    <g id="Group_3329" data-name="Group 3329" transform="translate(122.012 27.99)">
      <path id="Path_12966" data-name="Path 12966" d="M237.461,210.68c-.873-.5-4.55-2.626-5.8-3.349-.248-.141-.4-.233-.417-.242a2.935,2.935,0,0,0-2.044-.306,5.328,5.328,0,0,0-1.691.659c-.086.049-.172.107-.254.162a10.685,10.685,0,0,0-3.637,4.225,13.1,13.1,0,0,0-1.609,6.128q0,3.046,1.624,4.274a3.272,3.272,0,0,0,.343.224c1.014.576,6.1,3.523,6.214,3.588h.028a2.867,2.867,0,0,1-.359-.233q-1.627-1.226-1.624-4.271a13.1,13.1,0,0,1,1.609-6.128,10.5,10.5,0,0,1,3.888-4.391q2.175-1.256,3.756-.328Z" transform="translate(-212.925 -152.228)" fill="#d72027"/>
      <path id="Path_12967" data-name="Path 12967" d="M241.644,210.675a3.611,3.611,0,0,0-3.756.325,10.112,10.112,0,0,0-3.661,3.983L228,211.377a10.3,10.3,0,0,1,3.407-3.808c.083-.052.169-.113.254-.162a5.244,5.244,0,0,1,1.691-.656,2.917,2.917,0,0,1,2.044.306l.417.242c1.25.72,4.927,2.846,5.8,3.346Z" transform="translate(-217.08 -152.205)" opacity="0.4"/>
      <path id="Path_12968" data-name="Path 12968" d="M230.218,236.64h-.028c-.113-.064-5.209-3.012-6.214-3.588a3.277,3.277,0,0,1-.343-.224q-1.624-1.226-1.624-4.271a13.08,13.08,0,0,1,1.609-6.128c.074-.144.15-.285.23-.42l6.223,3.594c-.077.135-.153.276-.227.417a13.1,13.1,0,0,0-1.609,6.128q0,3.045,1.624,4.271a2.854,2.854,0,0,0,.359.221Z" transform="translate(-212.925 -162.835)" opacity="0.3"/>
      <path id="Path_12969" data-name="Path 12969" d="M214.18,34.764q4.531-2.62,7.715-2.227a6.434,6.434,0,0,1,2.451.815.656.656,0,0,1-.061-.037c-.729-.411-5.123-2.944-6.128-3.536a6.407,6.407,0,0,0-2.5-.833q-3.186-.389-7.718,2.224A29.87,29.87,0,0,0,196.6,43.119a32.915,32.915,0,0,0-4.243,16.095l6.223,3.594a32.651,32.651,0,0,1,4.246-16.1A30,30,0,0,1,214.18,34.764Z" transform="translate(-192.358 -28.889)" fill="#d72027"/>
      <path id="Path_12970" data-name="Path 12970" d="M233.121,33.3a6.56,6.56,0,0,0-2.4-.781q-3.18-.392-7.715,2.227A29.843,29.843,0,0,0,211.667,46.7c-.119.218-.236.438-.349.656l-6.238-3.6c.113-.218.23-.438.349-.656a30.088,30.088,0,0,1,11.336-11.949q4.538-2.617,7.718-2.224a6.41,6.41,0,0,1,2.5.836C228,30.358,232.392,32.9,233.121,33.3Z" transform="translate(-201.182 -28.873)" opacity="0.2"/>
      <path id="Path_12971" data-name="Path 12971" d="M202.485,81.034a32.409,32.409,0,0,0-3.894,15.439l-6.223-3.594a32.444,32.444,0,0,1,3.894-15.439Z" transform="translate(-192.365 -62.56)" opacity="0.3"/>
      <path id="Path_12972" data-name="Path 12972" d="M241.125,80.557q-1.694-.9-4.525.7a11.281,11.281,0,0,1-.686,3.285A70.931,70.931,0,0,1,231.8,92.4a52.385,52.385,0,0,0-5.111,11.762A41.712,41.712,0,0,0,225.11,115.5l.031,1.909,4.247,2.451L231.367,121l-.034-1.912v-.024a41.854,41.854,0,0,1,1.575-11.3,52.252,52.252,0,0,1,5.114-11.759,70.823,70.823,0,0,0,4.115-7.865,11.191,11.191,0,0,0,.711-3.934Q242.847,81.473,241.125,80.557Z" transform="translate(-215.075 -64.497)" fill="#d72027"/>
      <path id="Path_12973" data-name="Path 12973" d="M241.526,102.486q-1.054,2.194-3.505,6.477a52.124,52.124,0,0,0-5.114,11.762,41.833,41.833,0,0,0-1.575,11.309v.049l.034,1.912-1.979-1.14L225.14,130.4l-.031-1.912a41.729,41.729,0,0,1,1.575-11.336,52.382,52.382,0,0,1,5.111-11.762q2.451-4.289,3.511-6.474Z" transform="translate(-215.075 -77.458)" opacity="0.3"/>
      <path id="Path_12974" data-name="Path 12974" d="M265.93,84.215a11.189,11.189,0,0,1-.708,3.922q-.2.538-.613,1.388l-6.22-3.591q.408-.852.613-1.388a11.281,11.281,0,0,0,.686-3.285q2.831-1.6,4.525-.7T265.93,84.215Z" transform="translate(-238.158 -64.497)" opacity="0.4"/>
      <path id="Path_12975" data-name="Path 12975" d="M221.1,66.043l-8.423,4.865a32.65,32.65,0,0,1,4.246-16.1,30.061,30.061,0,0,1,11.334-11.946q4.531-2.62,7.715-2.227a6.823,6.823,0,0,1,5.1,3.49,14.449,14.449,0,0,1,1.915,7.727,24.976,24.976,0,0,1-.613,5.325,40.086,40.086,0,0,1-1.927,6.128,75.461,75.461,0,0,1-3.7,7.194,69.793,69.793,0,0,0-3.5,6.8,24.348,24.348,0,0,0-1.161,4.4,46.176,46.176,0,0,0-.613,6.783l-8.711,5.031-.034-1.912A41.732,41.732,0,0,1,224.3,80.272a52.251,52.251,0,0,1,5.114-11.759,70.82,70.82,0,0,0,4.115-7.865,11.189,11.189,0,0,0,.7-3.934q0-2.758-1.719-3.658t-4.614.754a13.036,13.036,0,0,0-4.856,5.129,14.707,14.707,0,0,0-1.933,7.1Z" transform="translate(-206.451 -36.995)" fill="#d72027"/>
      <path id="Path_12976" data-name="Path 12976" d="M247.77,219.192q2.344-1.357,4-.169t1.658,4.231a13.145,13.145,0,0,1-1.639,6.155,10.659,10.659,0,0,1-3.956,4.449q-2.319,1.339-3.94.11T242.27,229.7a13.1,13.1,0,0,1,1.609-6.128A10.48,10.48,0,0,1,247.77,219.192Z" transform="translate(-226.978 -160.378)" fill="#d72027"/>
    </g>
  </g>
</svg>
