<svg xmlns="http://www.w3.org/2000/svg" width="233.995" height="240" viewBox="0 0 233.995 240">
  <g id="faqs-illustration" transform="translate(-90.911 -27.993)">
    <ellipse id="Ellipse_66" data-name="Ellipse 66" cx="108.43" cy="58.842" rx="108.43" ry="58.842" transform="translate(102.673 150.308)" fill="#f5f5f5"/>
    <g id="Group_3324" data-name="Group 3324" transform="translate(165.95 195.863)">
      <ellipse id="Ellipse_67" data-name="Ellipse 67" cx="20.11" cy="11.614" rx="20.11" ry="11.614" transform="translate(0 0)" fill="#e0e0e0"/>
      <ellipse id="Ellipse_68" data-name="Ellipse 68" cx="31.79" cy="18.353" rx="31.79" ry="18.353" transform="translate(63.317 17.559)" fill="#e0e0e0"/>
    </g>
    <g id="Group_3325" data-name="Group 3325" transform="translate(301.23 180.61)">
      <path id="Path_12915" data-name="Path 12915" d="M450.077,322.571l-6-2.455a128.041,128.041,0,0,1-1.3-15.666c0-9.81,6.111-21.806,13.866-19.8s-2.186,12.983-3.8,21.461S450.077,322.571,450.077,322.571Z" transform="translate(-442.77 -284.428)" fill="#d72027"/>
      <path id="Path_12916" data-name="Path 12916" d="M450.077,322.571l-6-2.455a128.041,128.041,0,0,1-1.3-15.666c0-9.81,6.111-21.806,13.866-19.8s-2.186,12.983-3.8,21.461S450.077,322.571,450.077,322.571Z" transform="translate(-442.77 -284.428)" opacity="0.3"/>
      <path id="Path_12917" data-name="Path 12917" d="M449.578,323.921h0a.251.251,0,0,0,.214-.281c-2.863-21.508,6.811-33.458,6.907-33.559a.253.253,0,0,0-.39-.322c-.1.119-9.912,12.213-7.02,33.947a.251.251,0,0,0,.287.214Z" transform="translate(-445.181 -286.537)" fill="#fff"/>
      <path id="Path_12918" data-name="Path 12918" d="M457.634,331.938l-3.136-1.422a33.334,33.334,0,0,1,.417-14.584c2.014-7.732,8.716-12.5,12.09-11.71,4.128.961,4.528,4.779,3.315,7.439C468.889,314.81,458.96,323.335,457.634,331.938Z" transform="translate(-447.245 -292.362)" fill="#d72027"/>
      <path id="Path_12919" data-name="Path 12919" d="M457.634,331.938l-3.136-1.422a33.334,33.334,0,0,1,.417-14.584c2.014-7.732,8.716-12.5,12.09-11.71,4.128.961,4.528,4.779,3.315,7.439C468.889,314.81,458.96,323.335,457.634,331.938Z" transform="translate(-447.245 -292.362)" opacity="0.1"/>
      <path id="Path_12920" data-name="Path 12920" d="M457.146,333.027h0a.257.257,0,0,0,.226-.281c-1.41-13.65,10.5-24.137,10.623-24.238a.263.263,0,0,0,0-.359.252.252,0,0,0-.359,0c-.125.107-12.224,10.754-10.8,24.675a.263.263,0,0,0,.306.2Z" transform="translate(-448.389 -293.946)" fill="#fff"/>
    </g>
    <g id="Group_3326" data-name="Group 3326" transform="translate(90.911 174.072)">
      <path id="Path_12921" data-name="Path 12921" d="M47.8,312.665l4.122-2.354a70.98,70.98,0,0,0,.5-20.235c-2.079-13.145-11.035-17.69-14.285-16.38s-4.015,5.2,1.858,12.8A43.859,43.859,0,0,1,47.8,312.665Z" transform="translate(-28.031 -273.481)" fill="#d72027"/>
      <path id="Path_12922" data-name="Path 12922" d="M47.8,312.665l4.122-2.354a70.98,70.98,0,0,0,.5-20.235c-2.079-13.145-11.035-17.69-14.285-16.38s-4.015,5.2,1.858,12.8A43.859,43.859,0,0,1,47.8,312.665Z" transform="translate(-28.031 -273.481)" opacity="0.15"/>
      <path id="Path_12923" data-name="Path 12923" d="M52.283,308.7h-.041a.287.287,0,0,1-.246-.328c1.7-12.314-3.251-25.8-8.818-31.24a.3.3,0,1,1,.411-.423c5.655,5.509,10.713,19.25,8.991,31.736a.3.3,0,0,1-.3.255Z" transform="translate(-31.02 -274.733)" fill="#fff"/>
      <path id="Path_12924" data-name="Path 12924" d="M31.255,326.856c-.651.371-1.989-.443-2.5-.78a6.282,6.282,0,0,1-2.067-2.391,5.813,5.813,0,0,1-.513-3.494,13.534,13.534,0,0,1,.443-1.858l.521-1.792a4.63,4.63,0,0,0,.263-1.792,4.736,4.736,0,0,0-2.246-2.843,4.516,4.516,0,0,1-2.241-3.4,5.173,5.173,0,0,1,1.308-3.106c.706-.9,1.548-1.7,2.192-2.646a3.627,3.627,0,0,0,.735-2.324,3.8,3.8,0,0,0-.5-1.439,20,20,0,0,1-1.578-2.892,2.906,2.906,0,0,1,.5-3.077,3.387,3.387,0,0,1,2.551-.634,5.816,5.816,0,0,1,2.391.836c2.359,1.308,3.7,4.095,6.207,5.115a24.486,24.486,0,0,0,3.022.735,3.728,3.728,0,0,1,2.5,1.714c.92,1.835-.78,4.095-.137,6.045.6,1.72,2.246,2.391,3.184,3.937a3.668,3.668,0,0,1,.443,2.252,10.919,10.919,0,0,1-.95,3.812,27.071,27.071,0,0,1-2.1,3.436C42.643,320.295,31.356,326.784,31.255,326.856Z" transform="translate(-22.911 -281.069)" fill="#d72027"/>
      <path id="Path_12925" data-name="Path 12925" d="M41.757,324.574h0a.3.3,0,0,1-.287-.31c.484-11.651-5.008-24.5-9-28.259a.292.292,0,0,1,0-.411.3.3,0,0,1,.417,0c4.044,3.795,9.654,16.877,9.165,28.7a.292.292,0,0,1-.292.281Z" transform="translate(-26.727 -282.349)" fill="#fff"/>
      <path id="Path_12926" data-name="Path 12926" d="M39.192,319.784H39.1a39.744,39.744,0,0,0-8.453-1.365.3.3,0,0,1,0-.6,40.244,40.244,0,0,1,8.6,1.392.292.292,0,0,1,.195.365A.3.3,0,0,1,39.192,319.784Z" transform="translate(-25.905 -291.33)" fill="#fff"/>
    </g>
    <g id="Group_3327" data-name="Group 3327" transform="translate(217.702 94.462)">
      <path id="Path_12927" data-name="Path 12927" d="M397.108,355.77l-5.569-.64L390.1,343.91l6.805,2.02Z" transform="translate(-338.038 -222.243)" fill="#b16668"/>
      <path id="Path_12928" data-name="Path 12928" d="M381.343,373.547a1.679,1.679,0,0,0,.1,1.365,6.513,6.513,0,0,0,4.241,1.656,8.466,8.466,0,0,0,4.982-.872,3.483,3.483,0,0,0,1.864-2.73,7.41,7.41,0,0,1,.532-3.12c.532-.878,1.3-1.732,1.476-2.174a4.45,4.45,0,0,0,0-2.33Z" transform="translate(-334.471 -230.867)" fill="#263238"/>
      <path id="Path_12929" data-name="Path 12929" d="M386.879,360.895a4.639,4.639,0,0,1-.234,1.273,11.7,11.7,0,0,1-1.23,2.516,10.3,10.3,0,0,1-.836,1.2c-.6.724-1.365,1.32-2.007,2.014a4.123,4.123,0,0,0-1.242,2.461c-.084,1.578,2.426,2.116,3.746,2.34a9.675,9.675,0,0,0,4.278-.215,3.925,3.925,0,0,0,2.88-3.137c.078-.443.047-.891.1-1.326a6.182,6.182,0,0,1,1.224-2.759,8.194,8.194,0,0,0,.938-1.5,4.714,4.714,0,0,0-.18-3.042c-.226-.842-.5-1.792-.8-1.726,0,.437,0,.5-.292.78s-.406.938-.825,1.267a6.042,6.042,0,0,0,.293-1.123.628.628,0,0,0-.09-.443,1.193,1.193,0,0,0-.484-.263,9.956,9.956,0,0,0-1.911-.437,11.742,11.742,0,0,0-2.671,0,.794.794,0,0,0-.472.275.975.975,0,0,0-.168.538C386.867,359.826,386.89,360.477,386.879,360.895Z" transform="translate(-334.506 -228.206)" fill="#455a64"/>
      <path id="Path_12930" data-name="Path 12930" d="M387.793,368.412a7.56,7.56,0,0,1,3.424-.37,4.338,4.338,0,0,1,2.044.718.466.466,0,0,0,.6-.049h0a.443.443,0,0,0-.049-.669,4.44,4.44,0,0,0-2.3-.854,11.869,11.869,0,0,0-3.095.179S387.621,367.889,387.793,368.412Z" transform="translate(-337.1 -231.603)" fill="#f5f5f5"/>
      <path id="Path_12931" data-name="Path 12931" d="M385.554,371.186a9.139,9.139,0,0,1,3.705-.3,4.082,4.082,0,0,1,1.983.759.472.472,0,0,0,.6-.047h0a.443.443,0,0,0-.049-.669,8.524,8.524,0,0,0-3.149-.92c-1.792-.125-2.229.232-2.229.232a1.488,1.488,0,0,0-.866.944Z" transform="translate(-336.21 -232.741)" fill="#f5f5f5"/>
      <path id="Path_12932" data-name="Path 12932" d="M392.915,364.341a8.7,8.7,0,0,0-3.022.2c-.31.174-.521.669-.316.8a8.491,8.491,0,0,1,2.773-.275,5.919,5.919,0,0,1,1.911.526c.156.072.335.162.489.252a.411.411,0,0,0,.6-.179h0a.39.39,0,0,0-.15-.507,5.708,5.708,0,0,0-2.282-.807Z" transform="translate(-337.795 -230.443)" fill="#f5f5f5"/>
      <path id="Path_12933" data-name="Path 12933" d="M363.514,347.016l-5.294-1.476v-10.7l6.566.287Z" transform="translate(-325.205 -218.592)" fill="#b16668"/>
      <path id="Path_12934" data-name="Path 12934" d="M339.436,362.451a1.95,1.95,0,0,0,.078,1.4,7.042,7.042,0,0,0,5.234,1.421,12.09,12.09,0,0,0,5.975-2.09,6.867,6.867,0,0,1,3.68-.944,5.338,5.338,0,0,0,3.627-1.47,3.2,3.2,0,0,0-.049-1.823Z" transform="translate(-317.604 -228.298)" fill="#263238"/>
      <path id="Path_12935" data-name="Path 12935" d="M351.04,349.494l-.226-.049a.836.836,0,0,0-.39,0,.807.807,0,0,0-.359.24,7.071,7.071,0,0,0-.735,1.17,8.689,8.689,0,0,1-3.268,2.551c-.944.507-1.87.9-2.843,1.338a23.625,23.625,0,0,0-3.095,1.248,2.085,2.085,0,0,0,0,3.442,10.184,10.184,0,0,0,7.127.5c1.673-.478,3.537-2.264,5.735-2.438a8.7,8.7,0,0,0,4.947-1.56c.335-.472-.113-1.966-.478-3.256-.4-1.41-.78-3.584-1.242-3.483a.634.634,0,0,1-.246.526q-.287.242-.6.454a3.673,3.673,0,0,0-.78,1.117.842.842,0,0,1-.39.431c-.24.084-.411-.061-.6-.156a1.2,1.2,0,0,0-.836-.061,5.614,5.614,0,0,1,.15-.831.444.444,0,0,0,0-.263.39.39,0,0,0-.179-.2A4.44,4.44,0,0,0,351.04,349.494Z" transform="translate(-317.559 -224.363)" fill="#455a64"/>
      <path id="Path_12936" data-name="Path 12936" d="M352.9,354.451a1.291,1.291,0,0,1,1.033-.692,3.764,3.764,0,0,1,2.455.926.521.521,0,0,1-.072.86h0a.515.515,0,0,1-.6-.066,4,4,0,0,0-2.82-1.028Z" transform="translate(-323.064 -226.195)" fill="#f5f5f5"/>
      <path id="Path_12937" data-name="Path 12937" d="M349.59,356.364a1.5,1.5,0,0,1,1.225-.634,4.648,4.648,0,0,1,2.695,1.01.507.507,0,0,1-.072.831h0a.5.5,0,0,1-.6-.066A4,4,0,0,0,349.59,356.364Z" transform="translate(-321.731 -227.002)" fill="#f5f5f5"/>
      <path id="Path_12938" data-name="Path 12938" d="M346,358.067a1.662,1.662,0,0,1,1.267-.567,4.5,4.5,0,0,1,2.582,1.016.515.515,0,0,1-.072.836h0a.5.5,0,0,1-.6-.066,3.818,3.818,0,0,0-3.18-1.219Z" transform="translate(-320.286 -227.713)" fill="#f5f5f5"/>
      <path id="Path_12939" data-name="Path 12939" d="M382.7,234.377c.365,11.035.39,34.934.39,34.934.113,1.365.234,3.812.335,8.759.15,7.17.5,24.872.5,24.872a9.064,9.064,0,0,1-6.571.3s-4.374-24.889-5.265-31.979c-.78-6.2-2.281-20.726-2.281-20.726l-2.067,18.443s0,4.779-.281,9c-.234,3.286-3.424,20.211-3.424,20.211a10.971,10.971,0,0,1-6.328-.209s-.287-25.983-.347-29c-.066-3.43.819-40.507.819-40.507Z" transform="translate(-324.853 -175.772)" fill="#455a64"/>
      <path id="Path_12940" data-name="Path 12940" d="M372.884,258.988l-.78-6.255a21.859,21.859,0,0,1-7.109-3.262,16.943,16.943,0,0,0,5.975,4.183l1,5.676-1.135,18.1Z" transform="translate(-327.927 -184.227)" fill="#37474f"/>
      <path id="Path_12941" data-name="Path 12941" d="M335.992,184.449c-1.613,2.116-9.912,13.5-9.912,13.5l-7.665-5.94c-1.792-1.4-2.324-3.245-3.448-4.516a26.773,26.773,0,0,0-3.615-2.64c-1.26-1.063-1.745-1.87-2.174-.961s.961,2.492,1.2,2.874,1.673,1.3-.226,1.2a24.3,24.3,0,0,1-6.435-2.671c-.883-.4-.909.692-.489,1.41s.209,2.712.7,4a5.359,5.359,0,0,0,3.1,2.939c1.63.813,5.6,1.32,6.889,2.133h0c2.831,2.9,8.172,8.322,9.524,9.327,1.858,1.381,3.656,2.652,6.5-.084s11.084-13.472,11.084-13.472l1.7-10.21a7.133,7.133,0,0,0-6.727,3.118Z" transform="translate(-302.96 -156.803)" fill="#b16668"/>
      <path id="Path_12942" data-name="Path 12942" d="M341.67,208.726a6.825,6.825,0,0,1,2.246,3.3,5.378,5.378,0,0,0-1.792-3.919Z" transform="translate(-318.543 -167.577)" fill="#9a4a4d"/>
      <path id="Path_12943" data-name="Path 12943" d="M360.39,180.9a12.675,12.675,0,0,0-5.676,1.17c-1.734,1.213-3.017,2.987-5.83,7.08-2.467,3.584-3.662,5.306-3.662,5.306a13.227,13.227,0,0,0,6.7,5.115l7.361-9.118Z" transform="translate(-319.971 -156.626)" fill="#37474f"/>
      <path id="Path_12944" data-name="Path 12944" d="M373.294,180.565c2.235.215,5.378.24,7.587.466,1.535.634,4.5,3.214,4.278,5.054-.825,6.878-2.492,18.15-2.492,18.15l.55,11.949c-3.077,3.071-17.476,4.272-24.9-.64,0,0,.24-21.461.753-25.092.914-6.507,1.714-8.919,5.07-9.494a60.313,60.313,0,0,1,9.149-.394Z" transform="translate(-325.243 -156.48)" fill="#d72027"/>
      <path id="Path_12945" data-name="Path 12945" d="M400.04,184.742c1.613,2.116,9.917,13.5,9.917,13.5l7.671-5.938c1.792-1.41,2.324-3.251,3.448-4.516a27.31,27.31,0,0,1,3.615-2.64c1.26-1.063,1.745-1.87,2.174-.975s-.961,2.5-1.2,2.88-1.673,1.3.226,1.2a24.374,24.374,0,0,0,6.435-2.677c.891-.4.9.692.49,1.41s-.214,2.718-.7,4a5.359,5.359,0,0,1-3.1,2.939c-1.63.813-5.6,1.32-6.889,2.133h0c-2.831,2.9-8.172,8.322-9.524,9.321-1.858,1.381-3.656,2.652-6.5-.078s-9.344-11.232-9.344-11.232l-3.436-12.447A7.115,7.115,0,0,1,400.04,184.742Z" transform="translate(-339.337 -156.918)" fill="#b16668"/>
      <path id="Path_12946" data-name="Path 12946" d="M419.646,209.015a6.825,6.825,0,0,0-2.246,3.3,5.376,5.376,0,0,1,1.792-3.925Z" transform="translate(-349.028 -167.692)" fill="#9a4a4d"/>
      <path id="Path_12947" data-name="Path 12947" d="M392.186,181.112a9.777,9.777,0,0,1,5.407,1.2,30.181,30.181,0,0,1,5.83,7.08c2.467,3.584,3.662,5.306,3.662,5.306a13.26,13.26,0,0,1-6.7,5.115l-5.013-6.177C392.76,190.309,390.168,185.273,392.186,181.112Z" transform="translate(-338.59 -156.701)" fill="#37474f"/>
      <path id="Path_12948" data-name="Path 12948" d="M374.97,148.87a6.93,6.93,0,1,1-6.989-6.87,6.93,6.93,0,0,1,6.989,6.87Z" transform="translate(-326.369 -140.963)" fill="#263238"/>
      <path id="Path_12949" data-name="Path 12949" d="M390.89,161.68a59.913,59.913,0,0,1-1.523,6.154A2.388,2.388,0,0,1,388,168.963l.041-3.717Z" transform="translate(-337.192 -148.887)" fill="#263238"/>
      <path id="Path_12950" data-name="Path 12950" d="M389.94,149.035a2.588,2.588,0,0,1,2.157.735c.932.938.443,3.9-.681,6.811l-2.116.263Z" transform="translate(-337.716 -143.789)" fill="#263238"/>
      <path id="Path_12951" data-name="Path 12951" d="M378.115,154.726c.425.252,1.022-.6,1.54-1.123a1.854,1.854,0,0,1,3.089.472,3.869,3.869,0,0,1-2.055,4.68c-2.313.753-2.677-.735-2.677-.735l-.1,8.615h0c-2.843,3.722-10.844,3.477-7.546-.406v-2.545a14.648,14.648,0,0,1-3.12.185,4.251,4.251,0,0,1-3.329-3.424,24.764,24.764,0,0,1-.538-11.179c.718-6.392,8.143-6.525,12.176-4.032S378.115,154.726,378.115,154.726Z" transform="translate(-327.164 -141.664)" fill="#b16668"/>
      <path id="Path_12952" data-name="Path 12952" d="M377.451,154.042c.209,0,1.01-1.349,1.535-1.835.723-.675-.269-6.692-.269-6.692a2.925,2.925,0,0,0-.538-3.256c-1.01-1.094-2.42-2.426-6.959-1.852-3.245.411-6.762,1.459-9.625.084a4.858,4.858,0,0,0,1.734,5.138,9.729,9.729,0,0,0,3.758.961,40.255,40.255,0,0,0,7.515-.209c.78-.113.961.645,1.4,2.73C376.394,150.934,376.733,154.036,377.451,154.042Z" transform="translate(-326.495 -140.268)" fill="#263238"/>
      <path id="Path_12953" data-name="Path 12953" d="M390.258,148.35l2.551-1.4a1.41,1.41,0,0,0-1.95-.628,1.529,1.529,0,0,0-.6,2.026Z" transform="translate(-338.034 -142.637)" fill="#263238"/>
      <path id="Path_12954" data-name="Path 12954" d="M375.25,174.872a29.223,29.223,0,0,0,5.121-1.517,4.374,4.374,0,0,0,1.821-1.835,5.974,5.974,0,0,1-1.022,2.145c-.961,1.254-5.908,2.211-5.908,2.211Z" transform="translate(-332.06 -152.848)" fill="#9a4a4d"/>
      <path id="Path_12955" data-name="Path 12955" d="M374.74,160.569a.78.78,0,0,0,.765.78.8.8,0,1,0-.765-.78Z" transform="translate(-331.855 -148.117)" fill="#263238"/>
      <path id="Path_12956" data-name="Path 12956" d="M377.334,156.2l-1.7-.78a.975.975,0,0,0,.478,1.267.915.915,0,0,0,1.219-.5Z" transform="translate(-332.185 -146.376)" fill="#263238"/>
      <path id="Path_12957" data-name="Path 12957" d="M365.386,155.15l-1.476,1.158a.891.891,0,0,0,1.291.185.993.993,0,0,0,.185-1.344Z" transform="translate(-327.494 -146.259)" fill="#263238"/>
      <path id="Path_12958" data-name="Path 12958" d="M364.89,160.284a.729.729,0,1,0,.723-.764.741.741,0,0,0-.723.764Z" transform="translate(-327.89 -148.018)" fill="#263238"/>
      <path id="Path_12959" data-name="Path 12959" d="M369.63,159.77l-.431,4.571-2.359-.909Z" transform="translate(-328.675 -148.118)" fill="#9a4a4d"/>
      <path id="Path_12960" data-name="Path 12960" d="M373.68,169.8a.735.735,0,1,0,.735-.729.735.735,0,0,0-.735.729Z" transform="translate(-331.428 -151.862)" fill="#9a4a4d"/>
    </g>
    <g id="Group_3328" data-name="Group 3328" transform="translate(267.483 63.59)">
      <path id="Path_12961" data-name="Path 12961" d="M397.394,88.663a12.48,12.48,0,0,1,3.262,1.225,9.359,9.359,0,0,1,2.594,2.061,7.392,7.392,0,0,1,1.529,2.8,6.573,6.573,0,0,1,.074,3.36,6.787,6.787,0,0,1-1.028,2.455,8.029,8.029,0,0,1-1.607,1.691,13.093,13.093,0,0,1-1.917,1.236l-1.9,1a10.419,10.419,0,0,0-1.624,1.051,3.077,3.077,0,0,0-1.016,1.365,1.417,1.417,0,0,1-.484.6.854.854,0,0,1-.729.15l-2.8-.6a1.033,1.033,0,0,1-.657-.454.848.848,0,0,1-.119-.759,6.662,6.662,0,0,1,1.2-2.391,9.411,9.411,0,0,1,1.72-1.661,13.478,13.478,0,0,1,1.965-1.2c.681-.341,1.314-.669,1.9-.993a8.3,8.3,0,0,0,1.5-1.016,2.389,2.389,0,0,0,.794-1.314,2.849,2.849,0,0,0-.669-2.556,5.126,5.126,0,0,0-2.925-1.6,4.937,4.937,0,0,0-5.294,2.11,1.93,1.93,0,0,1-.521.521.938.938,0,0,1-.723.055l-2.987-.663a.807.807,0,0,1-.521-.347.758.758,0,0,1-.113-.64,5.85,5.85,0,0,1,1.365-2.455,9.248,9.248,0,0,1,2.562-1.983A11.011,11.011,0,0,1,393.6,88.6a9.81,9.81,0,0,1,3.795.078ZM394.239,109.9a1.033,1.033,0,0,1,.77,1.219l-.718,3.239a1.022,1.022,0,0,1-1.2.78l-3.167-.7a.987.987,0,0,1-.634-.449.975.975,0,0,1-.137-.764l.718-3.245a1.022,1.022,0,0,1,1.2-.78Z" transform="translate(-386.27 -88.448)" fill="#d72027"/>
      <path id="Path_12962" data-name="Path 12962" d="M416.738,139.736a8.367,8.367,0,0,1,2.391-.049,6.461,6.461,0,0,1,2.192.657,5.1,5.1,0,0,1,1.685,1.386,4.485,4.485,0,0,1,.9,2.133,4.573,4.573,0,0,1,0,1.835,5.505,5.505,0,0,1-.6,1.5,9.319,9.319,0,0,1-.909,1.279l-.961,1.135a7.8,7.8,0,0,0-.78,1.088,2.144,2.144,0,0,0-.3,1.129.987.987,0,0,1-.156.526.6.6,0,0,1-.425.281l-1.95.322a.735.735,0,0,1-.538-.125.6.6,0,0,1-.269-.454,4.444,4.444,0,0,1,.137-1.829,6.072,6.072,0,0,1,.675-1.511,9.267,9.267,0,0,1,.95-1.273c.353-.39.669-.764.975-1.123a5.826,5.826,0,0,0,.7-1.033,1.648,1.648,0,0,0,.173-1.045,1.966,1.966,0,0,0-1.088-1.47,3.51,3.51,0,0,0-2.281-.275,3.424,3.424,0,0,0-2.857,2.707,1.4,1.4,0,0,1-.195.472.663.663,0,0,1-.449.215l-2.079.341a.6.6,0,0,1-.425-.09.532.532,0,0,1-.24-.39,4.036,4.036,0,0,1,.257-1.925,6.26,6.26,0,0,1,1.135-1.931,7.639,7.639,0,0,1,1.876-1.583,6.8,6.8,0,0,1,2.451-.9Zm3.41,14.453a.7.7,0,0,1,.807.585l.371,2.258a.692.692,0,0,1-.125.526.669.669,0,0,1-.454.281l-2.211.365a.686.686,0,0,1-.521-.125.669.669,0,0,1-.286-.454l-.371-2.264a.712.712,0,0,1,.6-.807Z" transform="translate(-396.223 -109.057)" fill="#d72027"/>
      <path id="Path_12963" data-name="Path 12963" d="M416.738,139.736a8.367,8.367,0,0,1,2.391-.049,6.461,6.461,0,0,1,2.192.657,5.1,5.1,0,0,1,1.685,1.386,4.485,4.485,0,0,1,.9,2.133,4.573,4.573,0,0,1,0,1.835,5.505,5.505,0,0,1-.6,1.5,9.319,9.319,0,0,1-.909,1.279l-.961,1.135a7.8,7.8,0,0,0-.78,1.088,2.144,2.144,0,0,0-.3,1.129.987.987,0,0,1-.156.526.6.6,0,0,1-.425.281l-1.95.322a.735.735,0,0,1-.538-.125.6.6,0,0,1-.269-.454,4.444,4.444,0,0,1,.137-1.829,6.072,6.072,0,0,1,.675-1.511,9.267,9.267,0,0,1,.95-1.273c.353-.39.669-.764.975-1.123a5.826,5.826,0,0,0,.7-1.033,1.648,1.648,0,0,0,.173-1.045,1.966,1.966,0,0,0-1.088-1.47,3.51,3.51,0,0,0-2.281-.275,3.424,3.424,0,0,0-2.857,2.707,1.4,1.4,0,0,1-.195.472.663.663,0,0,1-.449.215l-2.079.341a.6.6,0,0,1-.425-.09.532.532,0,0,1-.24-.39,4.036,4.036,0,0,1,.257-1.925,6.26,6.26,0,0,1,1.135-1.931,7.639,7.639,0,0,1,1.876-1.583,6.8,6.8,0,0,1,2.451-.9Zm3.41,14.453a.7.7,0,0,1,.807.585l.371,2.258a.692.692,0,0,1-.125.526.669.669,0,0,1-.454.281l-2.211.365a.686.686,0,0,1-.521-.125.669.669,0,0,1-.286-.454l-.371-2.264a.712.712,0,0,1,.6-.807Z" transform="translate(-396.223 -109.057)" opacity="0.2"/>
      <path id="Path_12964" data-name="Path 12964" d="M451.321,139.419a.842.842,0,0,1,.2,1.158l-1.578,2.211a.842.842,0,0,1-1.158.2l-2.163-1.535a.805.805,0,0,1-.335-.538.836.836,0,0,1,.137-.6L448,138.1a.83.83,0,0,1,.538-.335.819.819,0,0,1,.6.144Zm9.13-14.989a9.913,9.913,0,0,1,2.067,1.95,7.678,7.678,0,0,1,1.3,2.391,6.063,6.063,0,0,1,.269,2.576,5.374,5.374,0,0,1-1.016,2.551,5.57,5.57,0,0,1-1.56,1.523,6.493,6.493,0,0,1-1.755.759,10.752,10.752,0,0,1-1.835.322l-1.755.15a9.451,9.451,0,0,0-1.56.275,2.557,2.557,0,0,0-1.2.706,1.262,1.262,0,0,1-.562.316.717.717,0,0,1-.6-.125l-1.911-1.365a.866.866,0,0,1-.347-.55.694.694,0,0,1,.15-.6,5.377,5.377,0,0,1,1.644-1.427,7.362,7.362,0,0,1,1.829-.706,11.169,11.169,0,0,1,1.864-.287c.6-.035,1.2-.084,1.745-.138a6.572,6.572,0,0,0,1.453-.292,1.931,1.931,0,0,0,1.016-.735,2.313,2.313,0,0,0,.31-2.145,4.183,4.183,0,0,0-1.7-2.133,4.044,4.044,0,0,0-4.66-.1,1.67,1.67,0,0,1-.556.226.78.78,0,0,1-.567-.2l-2.032-1.445a.688.688,0,0,1-.287-.431.634.634,0,0,1,.125-.515,4.737,4.737,0,0,1,1.792-1.416,7.582,7.582,0,0,1,2.562-.675,9.147,9.147,0,0,1,2.9.226,7.96,7.96,0,0,1,2.871,1.308Z" transform="translate(-410.433 -102.33)" fill="#d72027"/>
      <path id="Path_12965" data-name="Path 12965" d="M451.321,139.419a.842.842,0,0,1,.2,1.158l-1.578,2.211a.842.842,0,0,1-1.158.2l-2.163-1.535a.805.805,0,0,1-.335-.538.836.836,0,0,1,.137-.6L448,138.1a.83.83,0,0,1,.538-.335.819.819,0,0,1,.6.144Zm9.13-14.989a9.913,9.913,0,0,1,2.067,1.95,7.678,7.678,0,0,1,1.3,2.391,6.063,6.063,0,0,1,.269,2.576,5.374,5.374,0,0,1-1.016,2.551,5.57,5.57,0,0,1-1.56,1.523,6.493,6.493,0,0,1-1.755.759,10.752,10.752,0,0,1-1.835.322l-1.755.15a9.451,9.451,0,0,0-1.56.275,2.557,2.557,0,0,0-1.2.706,1.262,1.262,0,0,1-.562.316.717.717,0,0,1-.6-.125l-1.911-1.365a.866.866,0,0,1-.347-.55.694.694,0,0,1,.15-.6,5.377,5.377,0,0,1,1.644-1.427,7.362,7.362,0,0,1,1.829-.706,11.169,11.169,0,0,1,1.864-.287c.6-.035,1.2-.084,1.745-.138a6.572,6.572,0,0,0,1.453-.292,1.931,1.931,0,0,0,1.016-.735,2.313,2.313,0,0,0,.31-2.145,4.183,4.183,0,0,0-1.7-2.133,4.044,4.044,0,0,0-4.66-.1,1.67,1.67,0,0,1-.556.226.78.78,0,0,1-.567-.2l-2.032-1.445a.688.688,0,0,1-.287-.431.634.634,0,0,1,.125-.515,4.737,4.737,0,0,1,1.792-1.416,7.582,7.582,0,0,1,2.562-.675,9.147,9.147,0,0,1,2.9.226,7.96,7.96,0,0,1,2.871,1.308Z" transform="translate(-410.433 -102.33)" fill="#fff" opacity="0.6"/>
    </g>
    <g id="Group_3329" data-name="Group 3329" transform="translate(151.555 27.993)">
      <path id="Path_12966" data-name="Path 12966" d="M252.14,214.444c-1.7-.975-8.872-5.121-11.31-6.53-.484-.275-.78-.454-.813-.472a5.723,5.723,0,0,0-3.986-.6,10.39,10.39,0,0,0-3.3,1.285c-.168.1-.335.209-.5.316a20.835,20.835,0,0,0-7.092,8.239,25.545,25.545,0,0,0-3.137,11.949q0,5.94,3.167,8.334a6.385,6.385,0,0,0,.669.437c1.977,1.123,11.895,6.87,12.117,7h.055a5.594,5.594,0,0,1-.7-.454q-3.173-2.391-3.167-8.328a25.544,25.544,0,0,1,3.137-11.949,20.474,20.474,0,0,1,7.581-8.562q4.241-2.449,7.324-.64Z" transform="translate(-204.294 -100.47)" fill="#d72027"/>
      <path id="Path_12967" data-name="Path 12967" d="M254.605,214.466a7.041,7.041,0,0,0-7.324.634,19.718,19.718,0,0,0-7.139,7.767L228,215.835a20.094,20.094,0,0,1,6.644-7.425c.162-.1.33-.22.5-.316a10.224,10.224,0,0,1,3.3-1.279,5.688,5.688,0,0,1,3.986.6l.813.472c2.437,1.4,9.607,5.55,11.31,6.525Z" transform="translate(-206.704 -100.456)" opacity="0.4"/>
      <path id="Path_12968" data-name="Path 12968" d="M238.016,250.539h-.055c-.22-.125-10.157-5.873-12.117-7a6.39,6.39,0,0,1-.669-.437q-3.167-2.391-3.167-8.328a25.506,25.506,0,0,1,3.137-11.949c.144-.281.292-.556.448-.819l12.135,7.008c-.15.263-.3.538-.443.813a25.544,25.544,0,0,0-3.137,11.949q0,5.938,3.167,8.328a5.566,5.566,0,0,0,.7.431Z" transform="translate(-204.294 -106.627)" opacity="0.3"/>
      <path id="Path_12969" data-name="Path 12969" d="M234.911,40.339Q243.746,35.23,249.955,36a12.546,12.546,0,0,1,4.779,1.589,1.281,1.281,0,0,1-.119-.072c-1.422-.8-9.99-5.741-11.949-6.9a12.494,12.494,0,0,0-4.875-1.624q-6.213-.759-15.05,4.337a58.245,58.245,0,0,0-22.111,23.3,64.183,64.183,0,0,0-8.274,31.385l12.135,7.008a63.668,63.668,0,0,1,8.279-31.4A58.5,58.5,0,0,1,234.911,40.339Z" transform="translate(-192.357 -28.888)" fill="#d72027"/>
      <path id="Path_12970" data-name="Path 12970" d="M259.759,37.5a12.792,12.792,0,0,0-4.68-1.523q-6.2-.764-15.044,4.343a58.193,58.193,0,0,0-22.111,23.31c-.232.425-.46.854-.681,1.279l-12.164-7.02c.22-.425.448-.854.681-1.279a58.671,58.671,0,0,1,22.1-23.3q8.849-5.1,15.05-4.337a12.5,12.5,0,0,1,4.875,1.63C249.773,31.766,258.337,36.723,259.759,37.5Z" transform="translate(-197.477 -28.876)" opacity="0.2"/>
      <path id="Path_12971" data-name="Path 12971" d="M212.1,84.448a63.2,63.2,0,0,0-7.593,30.106l-12.135-7.008a63.264,63.264,0,0,1,7.593-30.106Z" transform="translate(-192.36 -48.43)" opacity="0.3"/>
      <path id="Path_12972" data-name="Path 12972" d="M256.339,80.865q-3.3-1.755-8.824,1.365a22,22,0,0,1-1.338,6.406,138.318,138.318,0,0,1-8.03,15.331,102.147,102.147,0,0,0-9.966,22.936,81.337,81.337,0,0,0-3.071,22.1l.06,3.723,8.281,4.779,3.859,2.229-.066-3.728v-.047a81.615,81.615,0,0,1,3.071-22.035A101.891,101.891,0,0,1,250.288,111a138.108,138.108,0,0,0,8.024-15.336A21.822,21.822,0,0,0,259.7,87.99Q259.7,82.651,256.339,80.865Z" transform="translate(-205.54 -49.554)" fill="#d72027"/>
      <path id="Path_12973" data-name="Path 12973" d="M257.122,105.874q-2.055,4.278-6.835,12.63a101.641,101.641,0,0,0-9.972,22.935,81.573,81.573,0,0,0-3.071,22.052v.1l.066,3.728-3.859-2.223-8.281-4.779-.06-3.728a81.369,81.369,0,0,1,3.071-22.1,102.144,102.144,0,0,1,9.966-22.936q4.779-8.363,6.846-12.624Z" transform="translate(-205.541 -57.075)" opacity="0.3"/>
      <path id="Path_12974" data-name="Path 12974" d="M273.094,88a21.818,21.818,0,0,1-1.381,7.648q-.39,1.049-1.2,2.707l-12.129-7q.8-1.661,1.2-2.707a22,22,0,0,0,1.338-6.406q5.52-3.13,8.824-1.365T273.094,88Z" transform="translate(-218.937 -49.552)" opacity="0.4"/>
      <path id="Path_12975" data-name="Path 12975" d="M229.1,90.231l-16.425,9.487a63.665,63.665,0,0,1,8.279-31.4,58.618,58.618,0,0,1,22.1-23.294q8.835-5.109,15.044-4.343a13.3,13.3,0,0,1,9.945,6.805,28.174,28.174,0,0,1,3.734,15.067,48.7,48.7,0,0,1-1.2,10.384,78.165,78.165,0,0,1-3.758,11.949,147.141,147.141,0,0,1-7.215,14.028,136.1,136.1,0,0,0-6.835,13.26,47.476,47.476,0,0,0-2.264,8.58,90.047,90.047,0,0,0-1.2,13.227l-16.986,9.81-.066-3.728a81.376,81.376,0,0,1,3.075-22.085,101.887,101.887,0,0,1,9.972-22.93,138.093,138.093,0,0,0,8.024-15.336A21.818,21.818,0,0,0,254.7,72.04q0-5.378-3.352-7.133t-9,1.47a25.42,25.42,0,0,0-9.469,10,28.678,28.678,0,0,0-3.769,13.854Z" transform="translate(-200.535 -33.594)" fill="#d72027"/>
      <path id="Path_12976" data-name="Path 12976" d="M252.995,219.879q4.571-2.646,7.8-.33t3.233,8.25a25.633,25.633,0,0,1-3.2,12,20.785,20.785,0,0,1-7.714,8.675q-4.522,2.611-7.683.214t-3.165-8.322a25.544,25.544,0,0,1,3.137-11.949A20.436,20.436,0,0,1,252.995,219.879Z" transform="translate(-212.449 -105.199)" fill="#d72027"/>
    </g>
  </g>
</svg>
