<svg id="file-pdf-icon" xmlns="http://www.w3.org/2000/svg" width="23" height="30" viewBox="0 0 23 30">
  <path id="Path_2379" data-name="Path 2379" d="M32.806,13H17.283c-.433,0-.783.351-.783,1.032V42.464a.805.805,0,0,0,.783.536H38.717a.805.805,0,0,0,.783-.536V19.952c0-.372-.05-.492-.137-.581l-6.224-6.233A.473.473,0,0,0,32.806,13Z" transform="translate(-16.5 -13)" fill="#e9e9e0"/>
  <path id="Path_2380" data-name="Path 2380" d="M33.081,13.081v6.348h6.338Z" transform="translate(-16.5 -13)" fill="#d9d7ca"/>
  <path id="Path_2381" data-name="Path 2381" d="M23.461,30.852h0a.857.857,0,0,1-.517-.174,1.287,1.287,0,0,1-.6-1.2c.1-.872,1.174-1.785,3.2-2.715A35.983,35.983,0,0,0,27.575,21c-.534-1.163-1.053-2.673-.675-3.558a1.028,1.028,0,0,1,.607-.651,2.6,2.6,0,0,1,.543-.092c.27,0,.507.347.675.562s.515.628-.2,3.644a17.137,17.137,0,0,0,2.722,4.051,10.382,10.382,0,0,1,1.8-.192c.838,0,1.345.195,1.552.6a1.087,1.087,0,0,1-.208,1.157,1.42,1.42,0,0,1-1.188.638,3.551,3.551,0,0,1-2.252-1.224,25.627,25.627,0,0,0-4.722,1.512,15.132,15.132,0,0,1-1.275,2.277C24.4,30.493,23.929,30.852,23.461,30.852Zm1.424-2.746c-1.143.643-1.609,1.172-1.643,1.47-.005.049-.02.179.231.371C23.552,29.922,24.018,29.709,24.885,28.106Zm7.294-2.38c.436.336.542.506.828.506A.805.805,0,0,0,33.654,26a.906.906,0,0,0,.123-.222c-.066-.035-.153-.106-.629-.106A7.9,7.9,0,0,0,32.179,25.726Zm-4-3.526a37.988,37.988,0,0,1-1.43,4.052,26.843,26.843,0,0,1,3.475-1.082A18.371,18.371,0,0,1,28.183,22.2Zm-.324-4.533a1.285,1.285,0,0,0,.051,1.723C28.418,18.257,27.882,17.66,27.859,17.667Z" transform="translate(-16.5 -13)" fill="#cc4b4c"/>
  <path id="Path_2382" data-name="Path 2382" d="M38.717,43H17.283a.783.783,0,0,1-.783-.784V33.893h23v8.323A.783.783,0,0,1,38.717,43Z" transform="translate(-16.5 -13)" fill="#cc4b4c"/>
  <g id="Group_733" data-name="Group 733" transform="translate(4.944 22.995)">
    <path id="Path_2383" data-name="Path 2383" d="M22.322,41.393h-.878v-5.4H23a2.154,2.154,0,0,1,.679.11,1.837,1.837,0,0,1,.6.329,1.723,1.723,0,0,1,.431.531,1.473,1.473,0,0,1,.165.7,1.9,1.9,0,0,1-.139.743,1.542,1.542,0,0,1-.388.561,1.752,1.752,0,0,1-.6.351,2.308,2.308,0,0,1-.775.124h-.651v1.949Zm0-4.732V38.8h.805a.95.95,0,0,0,.318-.055.813.813,0,0,0,.289-.18.888.888,0,0,0,.212-.347,1.666,1.666,0,0,0,.08-.553,1.439,1.439,0,0,0-.037-.3.869.869,0,0,0-.149-.329.888.888,0,0,0-.319-.264,1.175,1.175,0,0,0-.541-.106h-.658Z" transform="translate(-21.444 -35.995)" fill="#fff"/>
    <path id="Path_2384" data-name="Path 2384" d="M30.257,38.544a3.979,3.979,0,0,1-.143,1.139,2.846,2.846,0,0,1-.362.791,1.861,1.861,0,0,1-.494.5,2.493,2.493,0,0,1-.53.275,2.189,2.189,0,0,1-.468.117,3.151,3.151,0,0,1-.315.025h-2.04v-5.4h1.624a3.071,3.071,0,0,1,1.2.216,2.47,2.47,0,0,1,.856.575,2.349,2.349,0,0,1,.508.816A2.69,2.69,0,0,1,30.257,38.544Zm-2.6,2.2a1.451,1.451,0,0,0,1.287-.571,2.9,2.9,0,0,0,.395-1.655,2.828,2.828,0,0,0-.08-.666,1.418,1.418,0,0,0-.311-.6,1.633,1.633,0,0,0-.625-.433,2.707,2.707,0,0,0-1.024-.165h-.512v4.087Z" transform="translate(-21.444 -35.995)" fill="#fff"/>
    <path id="Path_2385" data-name="Path 2385" d="M32.421,36.661v1.7h2.253v.6H32.421v2.432h-.892v-5.4H34.9v.666Z" transform="translate(-21.444 -35.995)" fill="#fff"/>
  </g>
</svg>
