<svg xmlns="http://www.w3.org/2000/svg" width="202.641" height="192.995" viewBox="0 0 202.641 192.995">
  <g id="Group_7600" data-name="Group 7600" transform="translate(-163.874 -55.36)">
    <path id="Path_12171" data-name="Path 12171" d="M275.786,143.317a35.7,35.7,0,0,0,11.07,2.328l12.46-34.628,16.747,46.546a42.481,42.481,0,0,0,4.85,2.3,63.81,63.81,0,0,0,14.979,3.382L308.21,86.3l-8.893-24.715L290.424,86.3l-19.469,54.11A18.794,18.794,0,0,0,275.786,143.317Z" fill="#be1f24"/>
    <path id="Path_12172" data-name="Path 12172" d="M366.515,248.355l-19.934-55.4a89.305,89.305,0,0,1-11.09,18.607l13.239,36.794Z" fill="#be1f24"/>
    <path id="Path_12173" data-name="Path 12173" d="M235.985,216.388l5.757-16a49.9,49.9,0,0,1,33.52-93.165l5.759-16.006a66.816,66.816,0,0,0-45.036,125.174Z" fill="#939598"/>
    <path id="Path_12174" data-name="Path 12174" d="M259.314,172.765l-10.9,30.292a49.654,49.654,0,0,0,16.054,2.664c.262,0,.519-.016.781-.02l10.37-28.824A48.341,48.341,0,0,1,259.314,172.765Z" fill="#be1f24"/>
    <path id="Path_12175" data-name="Path 12175" d="M230.248,232.338a83.7,83.7,0,0,1,56.51-157.067l5.733-15.935a100.594,100.594,0,0,0-67.975,188.931Z"/>
    <path id="Path_12176" data-name="Path 12176" d="M345.685,170.813c-2.542-.086-17.5-.754-27.287-4.678-14.991-6.013-19.188-15.671-19.188-15.671s-10.447,4.936-25.8-.822C262.361,145.5,252.2,128.716,252.2,128.716l-14.711,15.031s8.1,14.818,22.547,21.906c19.463,9.554,32.779,1.119,32.779,1.119s1.105,9.407,11.513,15.992c4.808,3.041,13.141,5.467,17.958,6.646a66.76,66.76,0,0,1-86.3,26.989l-5.74,15.956a83.716,83.716,0,0,0,116.625-61.532C346.384,170.835,345.685,170.813,345.685,170.813Z"/>
  </g>
</svg>
