<svg xmlns="http://www.w3.org/2000/svg" width="280.547" height="60" viewBox="0 0 280.547 60">
  <g id="GAC-logo-hor-white" transform="translate(-623.6 -252.847)">
    <g id="en-title">
      <path id="Path_12177" data-name="Path 12177" d="M710.016,303.3a5.786,5.786,0,0,0,1.359-.142,5.694,5.694,0,0,0,1.1-.39v-2.254h-1.552a.489.489,0,0,1-.352-.124.411.411,0,0,1-.128-.305v-1.3h4.125V303.8a6.851,6.851,0,0,1-.982.6,6.265,6.265,0,0,1-1.089.416,8.41,8.41,0,0,1-1.24.244,11.725,11.725,0,0,1-1.424.081,6.472,6.472,0,0,1-2.495-.471,5.854,5.854,0,0,1-3.272-3.318,6.767,6.767,0,0,1-.468-2.545,7.021,7.021,0,0,1,.454-2.563,5.645,5.645,0,0,1,3.32-3.309,7.349,7.349,0,0,1,2.676-.462,6.979,6.979,0,0,1,2.628.45,6.058,6.058,0,0,1,1.882,1.17l-.669,1.045a.594.594,0,0,1-.523.318.782.782,0,0,1-.42-.137q-.274-.164-.562-.326a3.844,3.844,0,0,0-.634-.283,5.258,5.258,0,0,0-.781-.2,5.789,5.789,0,0,0-1-.077,4.273,4.273,0,0,0-1.659.309,3.5,3.5,0,0,0-1.265.883,3.983,3.983,0,0,0-.806,1.38,5.4,5.4,0,0,0-.283,1.8,5.626,5.626,0,0,0,.3,1.907,4.005,4.005,0,0,0,.841,1.41,3.607,3.607,0,0,0,1.286.878A4.266,4.266,0,0,0,710.016,303.3Z" fill="#221e20" stroke="rgba(0,0,0,0)" stroke-width="1"/>
      <path id="Path_12178" data-name="Path 12178" d="M725.247,302.074a.435.435,0,0,1,.325.145l.909.986a4.993,4.993,0,0,1-1.857,1.431,6.406,6.406,0,0,1-2.645.5,6.239,6.239,0,0,1-2.483-.472,5.46,5.46,0,0,1-1.882-1.311,5.735,5.735,0,0,1-1.2-2.006A7.528,7.528,0,0,1,716,298.8a6.85,6.85,0,0,1,.463-2.559,5.782,5.782,0,0,1,3.315-3.308,6.922,6.922,0,0,1,2.585-.467,6.12,6.12,0,0,1,2.415.441,5.638,5.638,0,0,1,1.771,1.171l-.772,1.071a.7.7,0,0,1-.176.179.5.5,0,0,1-.3.077.674.674,0,0,1-.4-.154,4.894,4.894,0,0,0-.523-.334,4.288,4.288,0,0,0-.8-.335,4.638,4.638,0,0,0-2.838.15,3.584,3.584,0,0,0-1.261.871,3.988,3.988,0,0,0-.823,1.375,5.3,5.3,0,0,0-.3,1.822,5.41,5.41,0,0,0,.3,1.86,4.081,4.081,0,0,0,.8,1.372,3.417,3.417,0,0,0,1.192.852,3.674,3.674,0,0,0,1.475.3,6.479,6.479,0,0,0,.853-.051,3.706,3.706,0,0,0,.7-.163,3.139,3.139,0,0,0,.609-.287,3.871,3.871,0,0,0,.57-.433.805.805,0,0,1,.18-.124A.436.436,0,0,1,725.247,302.074Z" fill="#221e20" stroke="rgba(0,0,0,0)" stroke-width="1"/>
      <path id="Path_12179" data-name="Path 12179" d="M736.747,302.074a.435.435,0,0,1,.325.145l.909.986a4.993,4.993,0,0,1-1.857,1.431,6.406,6.406,0,0,1-2.645.5,6.239,6.239,0,0,1-2.483-.472,5.46,5.46,0,0,1-1.882-1.311,5.732,5.732,0,0,1-1.2-2.006,7.527,7.527,0,0,1-.416-2.545,6.85,6.85,0,0,1,.463-2.559,5.782,5.782,0,0,1,3.315-3.308,6.923,6.923,0,0,1,2.586-.467,6.118,6.118,0,0,1,2.414.441,5.638,5.638,0,0,1,1.771,1.171l-.772,1.071a.7.7,0,0,1-.176.179.5.5,0,0,1-.3.077.676.676,0,0,1-.4-.154,4.894,4.894,0,0,0-.523-.334,4.305,4.305,0,0,0-.8-.335,4.641,4.641,0,0,0-2.839.15,3.584,3.584,0,0,0-1.261.871,3.988,3.988,0,0,0-.823,1.375,5.3,5.3,0,0,0-.3,1.822,5.41,5.41,0,0,0,.3,1.86,4.081,4.081,0,0,0,.8,1.372,3.417,3.417,0,0,0,1.192.852,3.674,3.674,0,0,0,1.475.3,6.468,6.468,0,0,0,.853-.051,3.706,3.706,0,0,0,.7-.163,3.111,3.111,0,0,0,.609-.287,3.871,3.871,0,0,0,.57-.433.828.828,0,0,1,.18-.124A.436.436,0,0,1,736.747,302.074Z" fill="#221e20" stroke="rgba(0,0,0,0)" stroke-width="1"/>
      <path id="Path_12180" data-name="Path 12180" d="M753.932,305h-1.783a.776.776,0,0,1-.493-.15.853.853,0,0,1-.279-.373l-.926-2.529h-5.137l-.927,2.529a.8.8,0,0,1-.27.36.755.755,0,0,1-.493.163h-1.792L746.7,292.6h2.359Zm-8.026-4.681h3.953l-1.509-4.123c-.069-.182-.144-.4-.227-.646s-.165-.519-.245-.811c-.08.292-.158.563-.235.815s-.153.471-.228.66Z" fill="#221e20" stroke="rgba(0,0,0,0)" stroke-width="1"/>
      <path id="Path_12181" data-name="Path 12181" d="M761.274,298.062a1.112,1.112,0,0,1-.185.189.421.421,0,0,1-.261.068.578.578,0,0,1-.317-.1c-.1-.066-.226-.14-.369-.223a2.776,2.776,0,0,0-.51-.222,2.343,2.343,0,0,0-.733-.1,2.241,2.241,0,0,0-.978.2,1.849,1.849,0,0,0-.7.579,2.587,2.587,0,0,0-.415.912,4.885,4.885,0,0,0-.138,1.214,4.757,4.757,0,0,0,.15,1.251,2.678,2.678,0,0,0,.433.921,1.864,1.864,0,0,0,.686.566,2.073,2.073,0,0,0,.909.193,2.253,2.253,0,0,0,.819-.125,2.592,2.592,0,0,0,.528-.274c.143-.1.267-.191.373-.274a.559.559,0,0,1,.356-.124.432.432,0,0,1,.386.2l.608.771a3.758,3.758,0,0,1-.763.69,4.14,4.14,0,0,1-.853.446,4.386,4.386,0,0,1-.914.236,6.446,6.446,0,0,1-.935.068,3.9,3.9,0,0,1-1.535-.3,3.586,3.586,0,0,1-1.256-.887,4.27,4.27,0,0,1-.849-1.427,5.526,5.526,0,0,1-.313-1.924,5.583,5.583,0,0,1,.279-1.8,4.059,4.059,0,0,1,.819-1.431,3.742,3.742,0,0,1,1.338-.947,4.6,4.6,0,0,1,1.835-.344,4.356,4.356,0,0,1,1.728.318,4.206,4.206,0,0,1,1.333.908Z" fill="#221e20" stroke="rgba(0,0,0,0)" stroke-width="1"/>
      <path id="Path_12182" data-name="Path 12182" d="M769.455,298.062a1.043,1.043,0,0,1-.185.189.421.421,0,0,1-.261.068.584.584,0,0,1-.318-.1c-.1-.066-.225-.14-.368-.223a2.774,2.774,0,0,0-.51-.222,2.345,2.345,0,0,0-.734-.1,2.24,2.24,0,0,0-.977.2,1.849,1.849,0,0,0-.7.579,2.6,2.6,0,0,0-.416.912,4.934,4.934,0,0,0-.137,1.214,4.757,4.757,0,0,0,.15,1.251,2.676,2.676,0,0,0,.433.921,1.856,1.856,0,0,0,.686.566,2.073,2.073,0,0,0,.909.193,2.253,2.253,0,0,0,.819-.125,2.558,2.558,0,0,0,.527-.274c.144-.1.268-.191.374-.274a.559.559,0,0,1,.356-.124.432.432,0,0,1,.386.2l.608.771a3.786,3.786,0,0,1-.763.69,4.141,4.141,0,0,1-.853.446,4.385,4.385,0,0,1-.914.236,6.445,6.445,0,0,1-.935.068,3.9,3.9,0,0,1-1.535-.3,3.577,3.577,0,0,1-1.256-.887,4.272,4.272,0,0,1-.849-1.427,5.5,5.5,0,0,1-.313-1.924,5.585,5.585,0,0,1,.279-1.8,4.044,4.044,0,0,1,.819-1.431,3.742,3.742,0,0,1,1.338-.947,4.6,4.6,0,0,1,1.835-.344,4.357,4.357,0,0,1,1.728.318,4.221,4.221,0,0,1,1.334.908Z" fill="#221e20" stroke="rgba(0,0,0,0)" stroke-width="1"/>
      <path id="Path_12183" data-name="Path 12183" d="M771.453,305V296.2H772.7a.666.666,0,0,1,.455.12.69.69,0,0,1,.171.411l.129,1.063a4.184,4.184,0,0,1,1.106-1.286,2.335,2.335,0,0,1,1.425-.472,1.841,1.841,0,0,1,1.08.3l-.274,1.585a.325.325,0,0,1-.112.219.376.376,0,0,1-.232.065,1.449,1.449,0,0,1-.351-.06,2.353,2.353,0,0,0-.592-.061,1.793,1.793,0,0,0-1.131.365,2.8,2.8,0,0,0-.8,1.067V305Z" fill="#221e20" stroke="rgba(0,0,0,0)" stroke-width="1"/>
      <path id="Path_12184" data-name="Path 12184" d="M782.1,296.065a4.277,4.277,0,0,1,1.531.266,3.367,3.367,0,0,1,1.2.775,3.566,3.566,0,0,1,.789,1.252,4.742,4.742,0,0,1,.283,1.693,2.922,2.922,0,0,1-.022.4.637.637,0,0,1-.077.249.313.313,0,0,1-.15.129.632.632,0,0,1-.24.038h-5.437a3.025,3.025,0,0,0,.729,1.988,2.271,2.271,0,0,0,1.68.635,2.909,2.909,0,0,0,.888-.12,4.178,4.178,0,0,0,.652-.265q.277-.145.489-.266a.82.82,0,0,1,.407-.12.451.451,0,0,1,.223.052.49.49,0,0,1,.163.146l.618.771a3.555,3.555,0,0,1-.79.69,4.431,4.431,0,0,1-.913.445,5,5,0,0,1-.969.236,6.913,6.913,0,0,1-.957.069,4.675,4.675,0,0,1-1.706-.3,3.814,3.814,0,0,1-1.373-.9,4.216,4.216,0,0,1-.917-1.475,5.7,5.7,0,0,1-.335-2.036,4.854,4.854,0,0,1,.292-1.693,4.076,4.076,0,0,1,.836-1.38,3.932,3.932,0,0,1,1.329-.929A4.38,4.38,0,0,1,782.1,296.065Zm.043,1.518a1.958,1.958,0,0,0-1.449.522,2.577,2.577,0,0,0-.669,1.483H784a2.639,2.639,0,0,0-.111-.775,1.792,1.792,0,0,0-.344-.639,1.6,1.6,0,0,0-.583-.432A1.981,1.981,0,0,0,782.139,297.583Z" fill="#221e20" stroke="rgba(0,0,0,0)" stroke-width="1"/>
      <path id="Path_12185" data-name="Path 12185" d="M793.819,305a.521.521,0,0,1-.54-.386l-.171-.849a5.379,5.379,0,0,1-.575.558,3.722,3.722,0,0,1-.647.428,3.383,3.383,0,0,1-.747.279,3.622,3.622,0,0,1-.862.1,2.9,2.9,0,0,1-1.32-.3,2.94,2.94,0,0,1-1.034-.87,4.159,4.159,0,0,1-.668-1.41,7.08,7.08,0,0,1-.236-1.92,6,6,0,0,1,.265-1.817,4.443,4.443,0,0,1,.764-1.457,3.556,3.556,0,0,1,1.192-.964,3.435,3.435,0,0,1,1.561-.348,3.05,3.05,0,0,1,1.26.236,3.331,3.331,0,0,1,.935.63v-4.646h2.119V305h-1.3ZM791,303.445a2.179,2.179,0,0,0,1.124-.274,3.346,3.346,0,0,0,.875-.78v-3.943a2.088,2.088,0,0,0-.785-.617,2.313,2.313,0,0,0-.913-.18,2.053,2.053,0,0,0-.871.18,1.711,1.711,0,0,0-.661.544,2.688,2.688,0,0,0-.416.926,5.367,5.367,0,0,0-.145,1.324,5.871,5.871,0,0,0,.124,1.307,2.577,2.577,0,0,0,.356.874,1.359,1.359,0,0,0,.566.489A1.8,1.8,0,0,0,791,303.445Z" fill="#221e20" stroke="rgba(0,0,0,0)" stroke-width="1"/>
      <path id="Path_12186" data-name="Path 12186" d="M799.976,293.64a1.208,1.208,0,0,1-.111.514,1.4,1.4,0,0,1-.729.707,1.32,1.32,0,0,1-.532.107,1.264,1.264,0,0,1-.518-.107,1.361,1.361,0,0,1-.712-.707,1.236,1.236,0,0,1-.107-.514,1.324,1.324,0,0,1,.107-.532,1.339,1.339,0,0,1,.712-.715,1.266,1.266,0,0,1,.518-.108,1.321,1.321,0,0,1,.532.108,1.422,1.422,0,0,1,.433.287,1.369,1.369,0,0,1,.3.428A1.293,1.293,0,0,1,799.976,293.64Zm-.317,2.563V305H797.54V296.2Z" fill="#221e20" stroke="rgba(0,0,0,0)" stroke-width="1"/>
      <path id="Path_12187" data-name="Path 12187" d="M804.942,305.133a2.314,2.314,0,0,1-1.758-.646,2.481,2.481,0,0,1-.618-1.787v-4.911h-.892a.406.406,0,0,1-.42-.446v-.84l1.415-.232.446-2.4a.423.423,0,0,1,.158-.266.5.5,0,0,1,.313-.094h1.1v2.769H807v1.508h-2.316v4.766a.937.937,0,0,0,.206.643.7.7,0,0,0,.549.231.985.985,0,0,0,.33-.047,1.858,1.858,0,0,0,.231-.1c.066-.033.125-.067.177-.1a.294.294,0,0,1,.154-.047.241.241,0,0,1,.155.047.713.713,0,0,1,.128.142l.635,1.028a3.208,3.208,0,0,1-1.064.582A3.962,3.962,0,0,1,804.942,305.133Z" fill="#221e20" stroke="rgba(0,0,0,0)" stroke-width="1"/>
      <path id="Path_12188" data-name="Path 12188" d="M815.585,305h-.952a1.037,1.037,0,0,1-.472-.09.578.578,0,0,1-.258-.365l-.188-.625a7.428,7.428,0,0,1-.656.527,4.04,4.04,0,0,1-.665.381,3.351,3.351,0,0,1-.729.231,4.332,4.332,0,0,1-.857.077,3.375,3.375,0,0,1-1.029-.15,2.2,2.2,0,0,1-.81-.452,2.047,2.047,0,0,1-.528-.748,2.658,2.658,0,0,1-.188-1.041,2.057,2.057,0,0,1,.261-.984,2.456,2.456,0,0,1,.871-.877,5.556,5.556,0,0,1,1.62-.649,10.361,10.361,0,0,1,2.513-.259v-.518a1.963,1.963,0,0,0-.373-1.317,1.361,1.361,0,0,0-1.085-.427,2.62,2.62,0,0,0-.857.12,3.222,3.222,0,0,0-.6.269c-.169.1-.325.191-.468.27a.949.949,0,0,1-.472.12.62.62,0,0,1-.369-.111.869.869,0,0,1-.248-.275l-.386-.677a5.231,5.231,0,0,1,3.661-1.389,3.533,3.533,0,0,1,1.377.254,2.906,2.906,0,0,1,1.025.7,3,3,0,0,1,.639,1.075,4.157,4.157,0,0,1,.219,1.372Zm-4.117-1.321a2.884,2.884,0,0,0,.6-.058,2.321,2.321,0,0,0,.519-.178,2.82,2.82,0,0,0,.472-.291,4.175,4.175,0,0,0,.458-.409v-1.472a8.683,8.683,0,0,0-1.548.116,4.129,4.129,0,0,0-1,.3,1.286,1.286,0,0,0-.536.423.94.94,0,0,0-.159.527.927.927,0,0,0,.33.8A1.417,1.417,0,0,0,811.468,303.676Z" fill="#221e20" stroke="rgba(0,0,0,0)" stroke-width="1"/>
      <path id="Path_12189" data-name="Path 12189" d="M820.559,305.133a2.317,2.317,0,0,1-1.758-.646,2.481,2.481,0,0,1-.618-1.787v-4.911h-.892a.408.408,0,0,1-.42-.446v-.84l1.415-.232.446-2.4a.424.424,0,0,1,.159-.266.5.5,0,0,1,.313-.094h1.1v2.769h2.315v1.508H820.3v4.766a.937.937,0,0,0,.205.643.7.7,0,0,0,.549.231.981.981,0,0,0,.33-.047,1.924,1.924,0,0,0,.231-.1c.066-.033.125-.067.177-.1a.294.294,0,0,1,.154-.047.238.238,0,0,1,.154.047.712.712,0,0,1,.129.142l.635,1.028a3.208,3.208,0,0,1-1.064.582A3.962,3.962,0,0,1,820.559,305.133Z" fill="#221e20" stroke="rgba(0,0,0,0)" stroke-width="1"/>
      <path id="Path_12190" data-name="Path 12190" d="M826.879,293.64a1.209,1.209,0,0,1-.111.514,1.41,1.41,0,0,1-.3.42,1.388,1.388,0,0,1-.432.287,1.32,1.32,0,0,1-.532.107,1.261,1.261,0,0,1-.518-.107,1.362,1.362,0,0,1-.712-.707,1.237,1.237,0,0,1-.107-.514,1.325,1.325,0,0,1,.107-.532,1.34,1.34,0,0,1,.712-.715,1.262,1.262,0,0,1,.518-.108,1.322,1.322,0,0,1,.532.108,1.405,1.405,0,0,1,.432.287,1.374,1.374,0,0,1,.3.428A1.294,1.294,0,0,1,826.879,293.64Zm-.317,2.563V305h-2.119V296.2Z" fill="#221e20" stroke="rgba(0,0,0,0)" stroke-width="1"/>
      <path id="Path_12191" data-name="Path 12191" d="M832.711,296.065a4.808,4.808,0,0,1,1.788.318,3.849,3.849,0,0,1,1.368.9,4,4,0,0,1,.875,1.423,5.9,5.9,0,0,1,0,3.763,4.074,4.074,0,0,1-.875,1.432,3.8,3.8,0,0,1-1.368.908,5.213,5.213,0,0,1-3.58,0,3.827,3.827,0,0,1-1.377-.908,4.1,4.1,0,0,1-.883-1.432,5.812,5.812,0,0,1,0-3.763,4.021,4.021,0,0,1,.883-1.423,3.886,3.886,0,0,1,1.377-.9A4.844,4.844,0,0,1,832.711,296.065Zm0,7.432a1.863,1.863,0,0,0,1.625-.737,3.7,3.7,0,0,0,.528-2.161,3.733,3.733,0,0,0-.528-2.168,1.855,1.855,0,0,0-1.625-.746,1.879,1.879,0,0,0-1.646.75,3.712,3.712,0,0,0-.532,2.164,3.671,3.671,0,0,0,.532,2.156A1.887,1.887,0,0,0,832.711,303.5Z" fill="#221e20" stroke="rgba(0,0,0,0)" stroke-width="1"/>
      <path id="Path_12192" data-name="Path 12192" d="M838.706,305V296.2H840a.521.521,0,0,1,.54.386l.146.694a4.834,4.834,0,0,1,.561-.5,4.037,4.037,0,0,1,.626-.386,3.206,3.206,0,0,1,.708-.248,3.713,3.713,0,0,1,.823-.086,3.148,3.148,0,0,1,1.277.244,2.52,2.52,0,0,1,.931.686,3.011,3.011,0,0,1,.566,1.053,4.509,4.509,0,0,1,.193,1.351V305h-2.119v-5.6a1.883,1.883,0,0,0-.372-1.248,1.385,1.385,0,0,0-1.12-.441,2.214,2.214,0,0,0-1.029.248,3.7,3.7,0,0,0-.909.678V305Z" fill="#221e20" stroke="rgba(0,0,0,0)" stroke-width="1"/>
      <path id="Path_12193" data-name="Path 12193" d="M860.411,302.074a.435.435,0,0,1,.326.145l.909.986a5,5,0,0,1-1.856,1.431,6.411,6.411,0,0,1-2.646.5,6.243,6.243,0,0,1-2.483-.472,5.47,5.47,0,0,1-1.882-1.311,5.75,5.75,0,0,1-1.2-2.006,7.528,7.528,0,0,1-.415-2.545,6.85,6.85,0,0,1,.463-2.559,5.775,5.775,0,0,1,3.315-3.308,6.922,6.922,0,0,1,2.585-.467,6.114,6.114,0,0,1,2.414.441,5.638,5.638,0,0,1,1.771,1.171l-.772,1.071a.691.691,0,0,1-.175.179.5.5,0,0,1-.3.077.672.672,0,0,1-.4-.154,5,5,0,0,0-.523-.334,4.29,4.29,0,0,0-.8-.335,4.641,4.641,0,0,0-2.839.15,3.584,3.584,0,0,0-1.261.871,4,4,0,0,0-.823,1.375,5.272,5.272,0,0,0-.3,1.822,5.41,5.41,0,0,0,.3,1.86,4.081,4.081,0,0,0,.8,1.372,3.417,3.417,0,0,0,1.192.852,3.669,3.669,0,0,0,1.474.3,6.484,6.484,0,0,0,.854-.051,3.631,3.631,0,0,0,.7-.163,3.1,3.1,0,0,0,.608-.287,3.827,3.827,0,0,0,.571-.433.782.782,0,0,1,.18-.124A.441.441,0,0,1,860.411,302.074Z" fill="#221e20" stroke="rgba(0,0,0,0)" stroke-width="1"/>
      <path id="Path_12194" data-name="Path 12194" d="M866.9,296.065a4.277,4.277,0,0,1,1.531.266,3.359,3.359,0,0,1,1.2.775,3.566,3.566,0,0,1,.789,1.252,4.72,4.72,0,0,1,.283,1.693,3.112,3.112,0,0,1-.021.4.635.635,0,0,1-.077.249.313.313,0,0,1-.15.129.641.641,0,0,1-.241.038h-5.437a3.025,3.025,0,0,0,.729,1.988,2.272,2.272,0,0,0,1.681.635,2.917,2.917,0,0,0,.888-.12,4.206,4.206,0,0,0,.651-.265q.279-.145.489-.266a.821.821,0,0,1,.408-.12.456.456,0,0,1,.223.052.5.5,0,0,1,.162.146l.618.771a3.53,3.53,0,0,1-.79.69,4.431,4.431,0,0,1-.913.445,4.965,4.965,0,0,1-.969.236,6.9,6.9,0,0,1-.957.069,4.679,4.679,0,0,1-1.706-.3,3.81,3.81,0,0,1-1.372-.9,4.22,4.22,0,0,1-.918-1.475,5.7,5.7,0,0,1-.335-2.036,4.877,4.877,0,0,1,.292-1.693,4.092,4.092,0,0,1,.836-1.38,3.925,3.925,0,0,1,1.33-.929A4.375,4.375,0,0,1,866.9,296.065Zm.043,1.518a1.958,1.958,0,0,0-1.449.522,2.571,2.571,0,0,0-.669,1.483h3.979a2.607,2.607,0,0,0-.112-.775,1.792,1.792,0,0,0-.343-.639,1.61,1.61,0,0,0-.583-.432A1.978,1.978,0,0,0,866.946,297.583Z" fill="#221e20" stroke="rgba(0,0,0,0)" stroke-width="1"/>
      <path id="Path_12195" data-name="Path 12195" d="M872.434,305V296.2h1.295a.521.521,0,0,1,.541.386l.146.694a4.755,4.755,0,0,1,.561-.5,3.991,3.991,0,0,1,.626-.386,3.2,3.2,0,0,1,.707-.248,3.722,3.722,0,0,1,.824-.086,3.149,3.149,0,0,1,1.277.244,2.528,2.528,0,0,1,.931.686,3.009,3.009,0,0,1,.565,1.053,4.477,4.477,0,0,1,.193,1.351V305h-2.118v-5.6a1.878,1.878,0,0,0-.373-1.248,1.384,1.384,0,0,0-1.119-.441,2.214,2.214,0,0,0-1.029.248,3.7,3.7,0,0,0-.909.678V305Z" fill="#221e20" stroke="rgba(0,0,0,0)" stroke-width="1"/>
      <path id="Path_12196" data-name="Path 12196" d="M885.075,305.133a2.317,2.317,0,0,1-1.758-.646,2.481,2.481,0,0,1-.618-1.787v-4.911h-.892a.408.408,0,0,1-.42-.446v-.84l1.415-.232.446-2.4a.424.424,0,0,1,.159-.266.5.5,0,0,1,.313-.094h1.1v2.769h2.315v1.508h-2.315v4.766a.937.937,0,0,0,.205.643.7.7,0,0,0,.549.231.981.981,0,0,0,.33-.047,1.854,1.854,0,0,0,.231-.1c.066-.033.125-.067.177-.1a.294.294,0,0,1,.154-.047.241.241,0,0,1,.155.047.711.711,0,0,1,.128.142l.635,1.028a3.208,3.208,0,0,1-1.064.582A3.962,3.962,0,0,1,885.075,305.133Z" fill="#221e20" stroke="rgba(0,0,0,0)" stroke-width="1"/>
      <path id="Path_12197" data-name="Path 12197" d="M892.459,296.065a4.277,4.277,0,0,1,1.531.266,3.36,3.36,0,0,1,1.205.775,3.553,3.553,0,0,1,.789,1.252,4.721,4.721,0,0,1,.284,1.693,3.076,3.076,0,0,1-.022.4.636.636,0,0,1-.077.249.313.313,0,0,1-.15.129.638.638,0,0,1-.241.038h-5.437a3.024,3.024,0,0,0,.729,1.988,2.272,2.272,0,0,0,1.681.635,2.917,2.917,0,0,0,.888-.12,4.162,4.162,0,0,0,.651-.265q.279-.145.489-.266a.821.821,0,0,1,.408-.12.456.456,0,0,1,.223.052.5.5,0,0,1,.162.146l.618.771a3.549,3.549,0,0,1-.789.69,4.437,4.437,0,0,1-.914.445,4.966,4.966,0,0,1-.969.236,6.888,6.888,0,0,1-.956.069,4.68,4.68,0,0,1-1.707-.3,3.811,3.811,0,0,1-1.372-.9,4.234,4.234,0,0,1-.918-1.475,5.7,5.7,0,0,1-.334-2.036,4.878,4.878,0,0,1,.291-1.693,4.092,4.092,0,0,1,.836-1.38,3.936,3.936,0,0,1,1.33-.929A4.378,4.378,0,0,1,892.459,296.065Zm.043,1.518a1.962,1.962,0,0,0-1.449.522,2.578,2.578,0,0,0-.669,1.483h3.979a2.641,2.641,0,0,0-.111-.775,1.792,1.792,0,0,0-.343-.639,1.619,1.619,0,0,0-.583-.432A1.985,1.985,0,0,0,892.5,297.583Z" fill="#221e20" stroke="rgba(0,0,0,0)" stroke-width="1"/>
      <path id="Path_12198" data-name="Path 12198" d="M897.99,305V296.2h1.244a.663.663,0,0,1,.454.12.69.69,0,0,1,.172.411l.128,1.063a4.186,4.186,0,0,1,1.107-1.286,2.33,2.33,0,0,1,1.424-.472,1.844,1.844,0,0,1,1.081.3l-.275,1.585a.325.325,0,0,1-.112.219.373.373,0,0,1-.231.065,1.448,1.448,0,0,1-.352-.06,2.339,2.339,0,0,0-.591-.061,1.794,1.794,0,0,0-1.132.365,2.824,2.824,0,0,0-.8,1.067V305Z" fill="#221e20" stroke="rgba(0,0,0,0)" stroke-width="1"/>
    </g>
    <g id="ar-title">
      <path id="Path_12199" data-name="Path 12199" d="M721.6,274.184v2.339c-2.524,0-3.242-.39-4.186-1.806a6.588,6.588,0,0,1-6.753,5.211,7,7,0,0,1-7.06-7.119v-2.3h2.3v2.031c0,3.179,1.847,5.169,4.823,5.169,2.668,0,4.679-1.764,4.679-3.856a1.988,1.988,0,0,0-2.072-2.175,2.3,2.3,0,0,0-.37.02v-2.092h.9a4.387,4.387,0,0,1,4.064,2.441c.842,1.538,1.642,2.134,2.812,2.134Zm-11.74,10.278H707.6v-2.277h2.257Zm3.879,0h-2.257v-2.277h2.257Z" fill="#221e20"/>
      <path id="Path_12200" data-name="Path 12200" d="M737.486,276.523h-16.48v-2.339h11.862a5.072,5.072,0,0,0-1.067-3.262,4.287,4.287,0,0,0-3.53-1.559,4.483,4.483,0,0,0-1.724.39,4.986,4.986,0,0,0-1.847,1.292c-.226-.431-.6-1.025-1.108-1.806a7.734,7.734,0,0,1,2.2-1.456,6.769,6.769,0,0,1,2.709-.575,7,7,0,0,1,3.735.985c1.868,1.149,2.894,3.139,3.079,5.991h2.175v2.339Zm-7.9,4.493h-2.257v-2.3h2.257Z" fill="#221e20"/>
      <path id="Path_12201" data-name="Path 12201" d="M739.007,281.016h-2.258v-2.3h2.258Zm7.306-4.493h-9.461v-2.339h2.2a1.426,1.426,0,0,0,1.4-.7,3.6,3.6,0,0,0,.247-1.559v-4.72h2.278v4.6a3.755,3.755,0,0,1-.513,2.38h3.858Zm-3.428,4.493h-2.257v-2.3h2.257Z" fill="#221e20"/>
      <path id="Path_12202" data-name="Path 12202" d="M755.16,276.523h-9.4v-2.339h2.135a1.394,1.394,0,0,0,1.375-.7,3.6,3.6,0,0,0,.246-1.559V263.29h2.279V271.8a3.928,3.928,0,0,1-.493,2.38h3.859v2.339Z" fill="#221e20"/>
      <path id="Path_12203" data-name="Path 12203" d="M771.087,276.523H754.606v-2.339h11.863a5.071,5.071,0,0,0-1.067-3.262,4.287,4.287,0,0,0-3.53-1.559,4.483,4.483,0,0,0-1.724.39,4.986,4.986,0,0,0-1.847,1.292c-.226-.431-.6-1.025-1.108-1.806a7.734,7.734,0,0,1,2.2-1.456,6.77,6.77,0,0,1,2.709-.575,7,7,0,0,1,3.735.985c1.868,1.149,2.894,3.139,3.079,5.991h2.176v2.339Zm-7.9-11.243h-2.257V263h2.257Z" fill="#221e20"/>
      <path id="Path_12204" data-name="Path 12204" d="M776.321,272.81c0,2.482-1.149,3.713-3.448,3.713h-2.421v-2.339h1.95a1.454,1.454,0,0,0,1.457-.677,4.483,4.483,0,0,0,.164-1.477v-8.74h2.3Z" fill="#221e20"/>
      <path id="Path_12205" data-name="Path 12205" d="M780.714,276.523h-2.278V263.269h2.278Z" fill="#221e20"/>
      <path id="Path_12206" data-name="Path 12206" d="M797.318,276.523h-9.749v-2.339H795c0-2.687-1.047-4.247-3.12-4.7a9.483,9.483,0,0,0-2.073-.185v-2.093c1.129,0,1.848.021,2.135.042a5.012,5.012,0,0,1,1.232.286c2.75.924,4.125,3.139,4.145,6.648Z" fill="#221e20"/>
      <path id="Path_12207" data-name="Path 12207" d="M805.488,276.523H802.8a3.1,3.1,0,0,1-2.545-1.067,3.987,3.987,0,0,1-.821-2.667v-9.5h2.278v8.576a2.325,2.325,0,0,0,.657,1.969,3.2,3.2,0,0,0,1.765.349h1.355Z" fill="#221e20"/>
      <path id="Path_12208" data-name="Path 12208" d="M818.172,276.523h-2.935a4.347,4.347,0,0,1-3.714,1.785,4.3,4.3,0,0,1-3.674-1.785h-3.14v-2.339h2.217c-.021-.225-.021-.452-.021-.677a4.709,4.709,0,0,1,1.273-3.385,4.463,4.463,0,0,1,3.345-1.334,4.278,4.278,0,0,1,3.326,1.375,4.881,4.881,0,0,1,1.272,3.426v.6h2.052v2.339Zm-4.412-2.954a3.136,3.136,0,0,0-.555-1.868,2.121,2.121,0,0,0-1.744-.841,1.955,1.955,0,0,0-1.663.821,3,3,0,0,0-.533,1.806,2.44,2.44,0,0,0,2.319,2.687,1.96,1.96,0,0,0,1.642-.779A3.011,3.011,0,0,0,813.76,273.569Z" fill="#221e20"/>
      <path id="Path_12209" data-name="Path 12209" d="M819.63,265.3h-2.257v-2.277h2.257Zm7.348,11.222H817.5v-2.339h2.134a1.392,1.392,0,0,0,1.375-.7,3.587,3.587,0,0,0,.247-1.559v-4.72h2.278v4.6a3.93,3.93,0,0,1-.493,2.38h3.94v2.339ZM823.53,265.3h-2.258v-2.277h2.258Z" fill="#221e20"/>
      <path id="Path_12210" data-name="Path 12210" d="M837.836,276.523h-11.37v-2.339h2.976a5.132,5.132,0,0,1-.452-2.154,5,5,0,0,1,1.314-3.508,4.421,4.421,0,0,1,3.407-1.436,4.226,4.226,0,0,1,4.023,2.646l-1.971.944a2.1,2.1,0,0,0-2.155-1.58,2,2,0,0,0-1.744.9,3.4,3.4,0,0,0-.555,1.99,3.156,3.156,0,0,0,.74,2.195h5.787v2.339Z" fill="#221e20"/>
      <path id="Path_12211" data-name="Path 12211" d="M849.7,263.29V273.3c0,1.949-1.4,3.221-3.612,3.221h-6.137v-2.338h3.14l-2.586-9.437h2.422l2.566,9.437a1.871,1.871,0,0,0,1.4-.452,2.723,2.723,0,0,0,.575-1.97V263.29Z" fill="#221e20"/>
      <path id="Path_12212" data-name="Path 12212" d="M854.134,276.523h-2.278V263.269h2.278Z" fill="#221e20"/>
      <path id="Path_12213" data-name="Path 12213" d="M869.26,276.523h-3.673c-.349,2.195-2.217,3.4-5.008,3.4v-1.969c1.908,0,2.852-.944,2.852-2.913v-7.838h2.3v6.976h3.53v2.339Zm-3.551-11.2h-2.257v-2.277h2.257Z" fill="#221e20"/>
      <path id="Path_12214" data-name="Path 12214" d="M882.191,275.087v1.436h-13.73v-2.339h11.268a4.985,4.985,0,0,0-1.109-3.262,4.355,4.355,0,0,0-3.551-1.559h-4.741l4.044-6.073H877.1l-2.77,3.918h1.005a6.792,6.792,0,0,1,3.94,1.129C881.227,269.63,882.191,271.866,882.191,275.087Z" fill="#221e20"/>
      <path id="Path_12215" data-name="Path 12215" d="M892.393,276.523H888.72c-.349,2.195-2.217,3.4-5.008,3.4v-1.969c1.908,0,2.852-.944,2.852-2.913v-7.838h2.3v6.976h3.53v2.339Z" fill="#221e20"/>
      <path id="Path_12216" data-name="Path 12216" d="M903.6,273.61a4.489,4.489,0,0,1-4.6,4.739,4.356,4.356,0,0,1-3.715-1.826h-3.694v-2.339h2.832l-.021-.1a5.175,5.175,0,0,1-.041-.554A4.494,4.494,0,0,1,899,268.809,4.563,4.563,0,0,1,903.6,273.61Zm-2.361,0a2.455,2.455,0,0,0-2.3-2.729,2.352,2.352,0,0,0-2.217,2.626,2.465,2.465,0,0,0,2.34,2.708C900.336,276.215,901.239,275.169,901.239,273.61Z" fill="#221e20"/>
    </g>
    <g id="logo-icon">
      <path id="Path_12217" data-name="Path 12217" d="M658.392,280.192a11.118,11.118,0,0,0,3.442.724l3.874-10.766,5.206,14.471a13.413,13.413,0,0,0,1.508.715,19.835,19.835,0,0,0,4.657,1.051l-8.606-23.921-2.765-7.684-2.765,7.684-6.052,16.822A5.853,5.853,0,0,0,658.392,280.192Z" fill="#be1e23"/>
      <path id="Path_12218" data-name="Path 12218" d="M686.6,312.847l-6.2-17.223a27.718,27.718,0,0,1-3.448,5.784l4.116,11.439Z" fill="#be1e23"/>
      <path id="Path_12219" data-name="Path 12219" d="M646.019,302.909l1.789-4.975A15.515,15.515,0,0,1,658.23,268.97l1.79-4.976a20.772,20.772,0,0,0-14,38.915Z" fill="#949599"/>
      <path id="Path_12220" data-name="Path 12220" d="M653.271,289.347l-3.388,9.418a15.449,15.449,0,0,0,4.991.828c.082,0,.161,0,.243-.006l3.224-8.962A15.03,15.03,0,0,1,653.271,289.347Z" fill="#be1e23"/>
      <path id="Path_12221" data-name="Path 12221" d="M644.235,307.868A26.023,26.023,0,0,1,661.8,259.037l1.782-4.954a31.274,31.274,0,0,0-21.133,58.737Z" fill="#231f20"/>
      <path id="Path_12222" data-name="Path 12222" d="M680.124,288.74a29.823,29.823,0,0,1-8.484-1.454c-4.66-1.869-5.965-4.872-5.965-4.872s-3.248,1.534-8.02-.256c-3.436-1.288-6.6-6.5-6.6-6.5l-4.573,4.673a18.2,18.2,0,0,0,7.009,6.81c6.051,2.97,10.191.348,10.191.348a7.486,7.486,0,0,0,3.579,4.972,21.852,21.852,0,0,0,5.583,2.066,20.756,20.756,0,0,1-26.831,8.39l-1.784,4.961a26.028,26.028,0,0,0,36.258-19.13C680.341,288.747,680.124,288.74,680.124,288.74Z" fill="#231f20"/>
    </g>
  </g>
</svg>
