<svg xmlns="http://www.w3.org/2000/svg" width="63" height="60" viewBox="0 0 63 60">
  <g id="logo-icon" transform="translate(-623.6 -252.847)">
    <path id="Path_12217" data-name="Path 12217" d="M658.392,280.192a11.118,11.118,0,0,0,3.442.724l3.874-10.766,5.206,14.471a13.413,13.413,0,0,0,1.508.715,19.835,19.835,0,0,0,4.657,1.051l-8.606-23.921-2.765-7.684-2.765,7.684-6.052,16.822A5.853,5.853,0,0,0,658.392,280.192Z" fill="#fff"/>
    <path id="Path_12218" data-name="Path 12218" d="M686.6,312.847l-6.2-17.223a27.718,27.718,0,0,1-3.448,5.784l4.116,11.439Z" fill="#fff"/>
    <path id="Path_12219" data-name="Path 12219" d="M646.019,302.909l1.789-4.975A15.515,15.515,0,0,1,658.23,268.97l1.79-4.976a20.772,20.772,0,0,0-14,38.915Z" fill="#fff"/>
    <path id="Path_12220" data-name="Path 12220" d="M653.271,289.347l-3.388,9.418a15.449,15.449,0,0,0,4.991.828c.082,0,.161,0,.243-.006l3.224-8.962A15.03,15.03,0,0,1,653.271,289.347Z" fill="#fff"/>
    <path id="Path_12221" data-name="Path 12221" d="M644.235,307.868A26.023,26.023,0,0,1,661.8,259.037l1.782-4.954a31.274,31.274,0,0,0-21.133,58.737Z" fill="#fff"/>
    <path id="Path_12222" data-name="Path 12222" d="M680.124,288.74a29.823,29.823,0,0,1-8.484-1.454c-4.66-1.869-5.965-4.872-5.965-4.872s-3.248,1.534-8.02-.256c-3.436-1.288-6.6-6.5-6.6-6.5l-4.573,4.673a18.2,18.2,0,0,0,7.009,6.81c6.051,2.97,10.191.348,10.191.348a7.486,7.486,0,0,0,3.579,4.972,21.852,21.852,0,0,0,5.583,2.066,20.756,20.756,0,0,1-26.831,8.39l-1.784,4.961a26.028,26.028,0,0,0,36.258-19.13C680.341,288.747,680.124,288.74,680.124,288.74Z" fill="#fff"/>
  </g>
</svg>
