<svg xmlns="http://www.w3.org/2000/svg" xmlns:xlink="http://www.w3.org/1999/xlink" width="550" height="310" viewBox="0 0 550 310">
  <defs>
    <radialGradient id="radial-gradient" cx="0.5" cy="0.5" r="1.176" gradientTransform="translate(0.167 0.109) scale(0.667 0.783)" gradientUnits="objectBoundingBox">
      <stop offset="0" stop-color="#fff"/>
      <stop offset="0.279" stop-color="#fff"/>
      <stop offset="0.437" stop-color="#fafcfd"/>
      <stop offset="0.612" stop-color="#edf5f8"/>
      <stop offset="0.795" stop-color="#e4eef2"/>
      <stop offset="0.982" stop-color="#d5ebf3"/>
      <stop offset="1" stop-color="#cce5ee"/>
    </radialGradient>
  </defs>
  <g id="Group_9051" data-name="Group 9051" transform="translate(-1165 -138)">
    <g id="banner" transform="translate(0 -1)">
      <path id="multiply" d="M6,0H544a6,6,0,0,1,6,6V310a0,0,0,0,1,0,0H0a0,0,0,0,1,0,0V6A6,6,0,0,1,6,0Z" transform="translate(1165 139)" fill="url(#radial-gradient)"/>
      <g id="committee-chairperson-illustration" transform="translate(1304.65 141.59)">
        <ellipse id="freepik--floor--inject-138" cx="125" cy="73.778" rx="125" ry="73.778" transform="translate(10.35 119.857)" fill="#f7fbff"/>
        <g id="freepik--Shadows--inject-138" transform="translate(17.551 162.991)">
          <path id="freepik--Shadow--inject-138" d="M73.083,348.909,24.09,320.6l91.4-52.662,48.988,28.307Z" transform="translate(-24.09 -267.94)" fill="#e0e0e0"/>
          <ellipse id="freepik--shadow--inject-138-2" data-name="freepik--shadow--inject-138" cx="33.019" cy="19.067" rx="33.019" ry="19.067" transform="translate(93.181 43.344)" fill="#e0e0e0"/>
          <path id="freepik--shadow--inject-138-3" data-name="freepik--shadow--inject-138" d="M123.113,398.258l5.922,3.417a4.853,4.853,0,0,0,4.4,0l34.785-20.094a1.342,1.342,0,0,0,0-2.542l-5.917-3.417a4.853,4.853,0,0,0-4.4,0l-34.811,20.094A1.347,1.347,0,0,0,123.113,398.258Z" transform="translate(-70.781 -318.935)" fill="#e0e0e0"/>
          <ellipse id="freepik--shadow--inject-138-4" data-name="freepik--shadow--inject-138" cx="35.954" cy="20.76" rx="35.954" ry="20.76" transform="translate(157.787 30.115)" fill="#e0e0e0"/>
        </g>
        <g id="freepik--Diploma--inject-138" transform="translate(200.365 37.41)">
          <g id="freepik--Window--inject-138">
            <path id="Path_17500" data-name="Path 17500" d="M402.592,110.862l-1.064.613-26.6-15.362,1.064-.613Z" transform="translate(-373.866 -70.296)" fill="#455a64"/>
            <path id="Path_17501" data-name="Path 17501" d="M376.96,75.4l25.534,14.743V68.013L376.96,53.27Z" transform="translate(-374.832 -50.199)" fill="#0761ce"/>
            <path id="Path_17502" data-name="Path 17502" d="M376.96,75.4l25.534,14.743V68.013L376.96,53.27Z" transform="translate(-374.832 -50.199)" fill="#fff" opacity="0.9"/>
            <path id="Path_17503" data-name="Path 17503" d="M372.9,74.4l28.726,16.583V65.168L372.9,48.58Zm1.048-23.978,26.6,15.356V89.156L373.964,73.784Z" transform="translate(-372.9 -47.967)" fill="#37474f"/>
            <path id="Path_17504" data-name="Path 17504" d="M374.93,75.459l1.064-.613V52.713L374.93,52.1Z" transform="translate(-373.866 -49.642)" fill="#263238"/>
            <path id="Path_17505" data-name="Path 17505" d="M372.9,48.023l1.064-.613L402.69,64l-1.064.613Z" transform="translate(-372.9 -47.41)" fill="#455a64"/>
            <path id="Path_17506" data-name="Path 17506" d="M428.774,79.06l-1.064.613v25.817l1.064-.613Z" transform="translate(-398.984 -62.472)" fill="#263238"/>
          </g>
          <path id="Path_17507" data-name="Path 17507" d="M413.708,105.368a3.968,3.968,0,0,1,1.792,3.113c0,1.143-.8,1.609-1.792,1.048a3.957,3.957,0,0,1-1.8-3.108C411.91,105.258,412.712,104.8,413.708,105.368Z" transform="translate(-391.465 -74.875)" fill="#0761ce"/>
          <path id="Path_17508" data-name="Path 17508" d="M387.031,64.607l13.522,7.8a1.51,1.51,0,0,1,.681,1.179v.037c0,.435-.309.613-.681.393l-13.522-7.793a1.5,1.5,0,0,1-.681-1.179V65C386.35,64.57,386.654,64.392,387.031,64.607Z" transform="translate(-379.301 -55.551)" opacity="0.2"/>
          <g id="Group_9162" data-name="Group 9162" transform="translate(4.911 12.624)" opacity="0.2">
            <path id="Path_17509" data-name="Path 17509" d="M382.946,71.613l17.82,10.272a1.368,1.368,0,0,1,.681,1.012c0,.335-.3.435-.681.22l-17.82-10.283a1.342,1.342,0,0,1-.676-1.006C382.265,71.493,382.569,71.393,382.946,71.613Z" transform="translate(-382.27 -71.496)"/>
            <path id="Path_17510" data-name="Path 17510" d="M382.946,76.3l17.82,10.278a1.352,1.352,0,0,1,.681,1.006c0,.341-.3.44-.681.22l-17.82-10.283a1.331,1.331,0,0,1-.676-1C382.265,76.177,382.569,76.088,382.946,76.3Z" transform="translate(-382.27 -73.728)"/>
            <path id="Path_17511" data-name="Path 17511" d="M382.946,80.977l17.82,10.278a1.363,1.363,0,0,1,.681,1.006c0,.341-.3.44-.681.225L382.946,82.2a1.331,1.331,0,0,1-.676-1C382.265,80.862,382.569,80.762,382.946,80.977Z" transform="translate(-382.27 -75.954)"/>
          </g>
          <path id="Path_17512" data-name="Path 17512" d="M397.733,99.53a2.258,2.258,0,0,1-.445-.4,1.253,1.253,0,0,1-.33-1.048c0-.115-.162-.493-.252-.435a7.643,7.643,0,0,1-.77.314c-.152.073-.44.3-.807-.2a1.048,1.048,0,0,1-.2-.634.891.891,0,0,0,.241-.833c0-.131-.21-.524-.272-.414a1.573,1.573,0,0,0-.231.755,1.237,1.237,0,0,1-.577.194,1.624,1.624,0,0,1-.367.073.168.168,0,0,1-.147-.031.356.356,0,0,1-.131-.283.524.524,0,0,1,.058-.293h0c0-.126-.152-.477-.215-.4a1.127,1.127,0,0,1-1.048.524.173.173,0,0,1-.068,0,.76.76,0,0,0-.026-.241,3.169,3.169,0,0,0-.084-.582c-.031-.11-.168-.388-.236-.367-.377.11-.681.409-1.184.267a1.623,1.623,0,0,1-.252-.115c-.079-.136.047-.425.063-.472a2.375,2.375,0,0,1,.173-.367.739.739,0,0,0,.147-.309c0-.121-.231-.634-.278-.493a1.942,1.942,0,0,1-.163.33,2.474,2.474,0,0,1-1,.524,1.572,1.572,0,0,1-1.389-.262,1.8,1.8,0,0,1-.629-.645,1.573,1.573,0,0,1-.162-.687,2.7,2.7,0,0,1,.168-1.048,5.111,5.111,0,0,0,1.546.692c.425.115.886.236,1.164.058.157-.1.252-.466-.131-1.048a2.238,2.238,0,0,0-.828-.807,2.1,2.1,0,0,0-.844-.32,1.048,1.048,0,0,0-1.048.713l-.121.283a8.35,8.35,0,0,1-1.96-1.934c-.037-.047-.047,0,0,.068a9.607,9.607,0,0,0,1.918,2.034,2.657,2.657,0,0,0,.43,2.411,1.9,1.9,0,0,0,1.9,1.017,1.541,1.541,0,0,0,.744-.341.22.22,0,0,1,.063,0,1.268,1.268,0,0,0,.409,1.012.75.75,0,0,0,.844.168,3.193,3.193,0,0,0,.524-.183,1.572,1.572,0,0,0,.383,1.048c.288.273.524.052.681,0a1.289,1.289,0,0,0,.341-.168,1.1,1.1,0,0,0,.068.178c.246.524.524.6.7.577a2.8,2.8,0,0,0,.692-.141,2.7,2.7,0,0,0,.293.671c.383.618.739.718.959.687a1.625,1.625,0,0,0,.718-.32,2.017,2.017,0,0,0,.257.666,2.621,2.621,0,0,0,.9.975C397.974,100,397.859,99.609,397.733,99.53ZM389.4,91.4a1.221,1.221,0,0,1,.566.713c0,.183-.152.215-.241.241a2.154,2.154,0,0,1-1.048-.094,5.277,5.277,0,0,1-1.295-.524C387.722,91.014,388.346,90.715,389.4,91.4Z" transform="translate(-378.687 -67.471)" opacity="0.3"/>
        </g>
        <g id="freepik--diploma--inject-138-2" data-name="freepik--diploma--inject-138" transform="translate(38.432 37.934)">
          <g id="freepik--window--inject-138-2" data-name="freepik--window--inject-138">
            <path id="Path_17513" data-name="Path 17513" d="M65.97,111.862l1.064.613,26.6-15.362L92.568,96.5Z" transform="translate(-64.901 -71.296)" fill="#455a64"/>
            <path id="Path_17514" data-name="Path 17514" d="M93.534,76.4,68,91.146V69.013L93.534,54.27Z" transform="translate(-65.867 -51.199)" fill="#0761ce"/>
            <path id="Path_17515" data-name="Path 17515" d="M93.534,76.4,68,91.146V69.013L93.534,54.27Z" transform="translate(-65.867 -51.197)" fill="#fff" opacity="0.9"/>
            <path id="Path_17516" data-name="Path 17516" d="M94.711,49.58,66,66.168V91.985L94.732,75.4Zm-1.048,25.2L67.048,90.156V66.781l26.6-15.356Z" transform="translate(-64.915 -48.967)" fill="#37474f"/>
            <path id="Path_17517" data-name="Path 17517" d="M117.784,76.459l-1.064-.613V53.713l1.064-.613Z" transform="translate(-89.052 -50.642)" fill="#263238"/>
            <path id="Path_17518" data-name="Path 17518" d="M93.725,49.023l-1.064-.613L63.93,65l1.064.613Z" transform="translate(-63.93 -48.41)" fill="#455a64"/>
            <path id="Path_17519" data-name="Path 17519" d="M63.93,80.06l1.064.613L65,106.491l-1.069-.613Z" transform="translate(-63.93 -63.472)" fill="#263238"/>
          </g>
          <path id="Path_17520" data-name="Path 17520" d="M105.532,89.179c1-.571,1.8-.1,1.8,1.048a3.967,3.967,0,0,1-1.8,3.113c-.991.571-1.792.1-1.792-1.048a3.967,3.967,0,0,1,1.792-3.113Z" transform="translate(-82.875 -67.696)" fill="#0761ce"/>
          <path id="Path_17521" data-name="Path 17521" d="M78.851,73.3l13.522-7.814c.377-.215.681-.042.681.393v.037a1.515,1.515,0,0,1-.681,1.184L78.851,74.92c-.377.215-.681.042-.681-.393V74.48A1.5,1.5,0,0,1,78.851,73.3Z" transform="translate(-70.707 -56.493)" opacity="0.2"/>
          <g id="Group_9164" data-name="Group 9164" transform="translate(5.314 12.57)" opacity="0.2">
            <path id="Path_17522" data-name="Path 17522" d="M74.776,82.785,92.6,72.507c.372-.215.681-.115.681.225a1.384,1.384,0,0,1-.681,1.006L74.776,84.022c-.377.215-.676.115-.676-.225A1.389,1.389,0,0,1,74.776,82.785Z" transform="translate(-74.084 -72.394)"/>
            <path id="Path_17523" data-name="Path 17523" d="M74.776,87.466,92.6,77.194c.372-.22.681-.121.681.22A1.368,1.368,0,0,1,92.6,78.42L74.776,88.7c-.377.22-.676.115-.676-.225A1.4,1.4,0,0,1,74.776,87.466Z" transform="translate(-74.084 -74.622)"/>
            <path id="Path_17524" data-name="Path 17524" d="M74.762,92.155l17.82-10.278c.372-.215.681-.115.681.22a1.384,1.384,0,0,1-.681,1.012L74.746,93.418c-.377.215-.676.115-.676-.225A1.389,1.389,0,0,1,74.762,92.155Z" transform="translate(-74.07 -76.853)"/>
          </g>
          <path id="Path_17525" data-name="Path 17525" d="M89.556,98.751a1.048,1.048,0,0,1-.445.115c-.383,0-.346-.388-.335-.655,0-.121-.162-.3-.252-.147-.231.419-.524.8-.77,1.211-.152.246-.44.807-.807.729-.152-.037-.2-.2-.2-.4a1.976,1.976,0,0,0,.236-1.106c0-.121-.21-.262-.267-.1a3.543,3.543,0,0,0-.236,1.048q-.439.7-.943,1.357c-.031.037-.094.131-.147.142s-.11-.052-.131-.136a.9.9,0,0,1,.063-.367h0a.073.073,0,0,1,0-.031h0c0-.121-.152-.3-.215-.152a5.294,5.294,0,0,1-1.048,1.74.257.257,0,0,1-.073.058v-.21a1.7,1.7,0,0,0-.089-.487c0-.073-.162-.194-.236-.094a8.176,8.176,0,0,1-1.184,1.64,2.494,2.494,0,0,1-.246.173c-.084-.047.042-.477.058-.524.052-.194.115-.383.178-.571a1.971,1.971,0,0,0,.141-.472c0-.147-.231-.372-.273-.173a3.988,3.988,0,0,1-.168.524,12.684,12.684,0,0,1-1,1.693,3.915,3.915,0,0,1-1.4,1.268c-.162.084-.456.21-.629.084s-.157-.346-.162-.524a4.087,4.087,0,0,1,.168-1.232,7.337,7.337,0,0,0,1.541-1.09,5.393,5.393,0,0,0,1.169-1.295c.157-.283.252-.755-.131-.917-.267-.11-.608.073-.833.2a3.7,3.7,0,0,0-.849.66,4.911,4.911,0,0,0-1.048,1.939c-.037.11-.079.257-.121.425a3.291,3.291,0,0,1-1.96.33.043.043,0,0,0,0,.084,3.244,3.244,0,0,0,1.918-.183c-.173.744-.267,1.73.425,1.918s1.53-.676,1.9-1.174a8.211,8.211,0,0,0,.744-1.2.927.927,0,0,1,.063-.089c0,.346.068.6.4.524s.655-.524.844-.807.341-.524.524-.765c.031.309.084.666.383.6s.524-.577.681-.786a5.384,5.384,0,0,0,.335-.556.419.419,0,0,0,.068.1c.246.267.524,0,.7-.225.231-.3.482-.613.7-.949a.582.582,0,0,0,.294.335c.377.178.739-.136.959-.419a8.249,8.249,0,0,0,.713-1.148.524.524,0,0,0,.262.362.875.875,0,0,0,.9-.058C89.792,98.94,89.682,98.688,89.556,98.751Zm-8.328,1.483c.173-.089.524-.236.561.058a1.048,1.048,0,0,1-.241.524,6.414,6.414,0,0,1-1.048,1.1,8.317,8.317,0,0,1-1.3.985A4.193,4.193,0,0,1,81.228,100.235Z" transform="translate(-70.091 -72.011)" opacity="0.3"/>
        </g>
        <g id="freepik--Desk--inject-138" transform="translate(21 93.27)">
          <g id="freepik--desk--inject-138-2" data-name="freepik--desk--inject-138" transform="translate(0 15.203)">
            <path id="Path_17526" data-name="Path 17526" d="M75.481,240.094,30.67,214.224l87.164-50.3L162.65,189.8Z" transform="translate(-30.67 -163.92)" fill="#0761ce"/>
            <path id="Path_17527" data-name="Path 17527" d="M75.481,240.094,30.67,214.224l87.164-50.3L162.65,189.8Z" transform="translate(-30.67 -163.92)" fill="#fff" opacity="0.8"/>
            <path id="Path_17528" data-name="Path 17528" d="M30.67,259.9v56.6l2.358,1.363v-5.445L73.123,335.56v5.451l2.358,1.363v-56.6Z" transform="translate(-30.67 -209.596)" fill="#0761ce"/>
            <path id="Path_17529" data-name="Path 17529" d="M30.67,259.9v56.6l2.358,1.363v-5.445L73.123,335.56v5.451l2.358,1.363v-56.6Z" transform="translate(-30.67 -209.596)" fill="#fff" opacity="0.6"/>
            <path id="Path_17530" data-name="Path 17530" d="M35.17,365.546l2.358-1.363v-2.725L35.17,360.1Z" transform="translate(-32.812 -257.281)" fill="#0761ce"/>
            <path id="Path_17531" data-name="Path 17531" d="M35.17,365.546l2.358-1.363v-2.725L35.17,360.1Z" transform="translate(-32.812 -257.281)" fill="#0761ce"/>
            <path id="Path_17532" data-name="Path 17532" d="M116.17,320.192l2.358-1.363V268.568l82.452-47.578v50.036l2.358-1.357V213.29l-87.169,50.3Z" transform="translate(-71.359 -187.415)" fill="#0761ce"/>
            <path id="Path_17533" data-name="Path 17533" d="M116.17,320.192l2.358-1.363V268.568l82.452-47.578v50.036l2.358-1.357V213.29l-87.169,50.3Z" transform="translate(-71.359 -187.415)" fill="#fff" opacity="0.7"/>
            <path id="Path_17534" data-name="Path 17534" d="M238.638,278.016,195.3,253l40.98-23.658,2.358-1.363Z" transform="translate(-109.016 -194.406)" fill="#0761ce"/>
            <path id="Path_17535" data-name="Path 17535" d="M238.638,278.016,195.3,253l43.338-25.021Z" transform="translate(-109.018 -194.404)" fill="#fff" opacity="0.6"/>
            <path id="Path_17536" data-name="Path 17536" d="M238.638,278.016,195.3,253l43.338-25.021Z" transform="translate(-109.018 -194.404)" opacity="0.15"/>
          </g>
          <g id="freepik--Document--inject-138" transform="translate(63.549 29.021)">
            <path id="Path_17537" data-name="Path 17537" d="M194.8,206.457c.037.058,0,.131-.073.178l-17.652,10.194a.414.414,0,0,1-.22.052.356.356,0,0,1-.215-.052L152.011,202.6a.194.194,0,0,1-.079-.084.115.115,0,0,1,.026-.126h0a.068.068,0,0,1,.031-.026l17.652-10.189a.466.466,0,0,1,.44,0l24.633,14.229h.026a.142.142,0,0,1,.058.052Z" transform="translate(-151.924 -191.16)" opacity="0.2"/>
            <g id="freepik--List--inject-138" transform="translate(0.899)">
              <path id="Path_17538" data-name="Path 17538" d="M153.64,200.475v.425a.461.461,0,0,0,.215.367L177.5,214.893a.456.456,0,0,0,.419,0l16.939-9.775a.472.472,0,0,0,.21-.367v-.425a.472.472,0,0,0-.21-.367l-23.648-13.627a.456.456,0,0,0-.419,0l-16.934,9.759A.451.451,0,0,0,153.64,200.475Z" transform="translate(-153.64 -190.283)" fill="#0761ce"/>
              <path id="Path_17539" data-name="Path 17539" d="M216.754,216.46c.089.068.079.162-.026.225l-16.918,9.78a.441.441,0,0,1-.21.047v.912a.388.388,0,0,0,.21-.052l16.939-9.775a.472.472,0,0,0,.21-.367v-.425A.466.466,0,0,0,216.754,216.46Z" transform="translate(-175.512 -202.74)" fill="#fff" opacity="0.4"/>
              <path id="Path_17540" data-name="Path 17540" d="M153.872,209.08h0l-.031.026h0a.477.477,0,0,0-.11.225.162.162,0,0,1,0,.052v.425a.477.477,0,0,0,.215.367L177.587,223.8a.388.388,0,0,0,.21.052v-.912a.44.44,0,0,1-.21-.047l-23.716-13.6a.2.2,0,0,1-.079-.084.11.11,0,0,1,.026-.115Z" transform="translate(-153.683 -199.228)" opacity="0.15"/>
              <path id="Path_17541" data-name="Path 17541" d="M165.86,197.3c0,.383.524.781.676,1.122a.273.273,0,0,1,.031.084c-.073.241-.293.409-.341.571a.4.4,0,0,0,0,.11v.32a1.914,1.914,0,0,0,.026.22,1.792,1.792,0,0,1-.052.236,1.357,1.357,0,0,0-.079.4v.309a.278.278,0,0,0,.162.288l.949.524,7.086-4.072v-.314l-.949-.55a.865.865,0,0,0-.477-.089h-.063a4.106,4.106,0,0,0-.65.042,5.529,5.529,0,0,1-1.048.026h-.273a1.337,1.337,0,0,0-.2,0,4.717,4.717,0,0,1-1.656.183h0a13.5,13.5,0,0,0-1.929-.388h-.094a1.572,1.572,0,0,0-.749.2c-.257.147-.351.3-.351.466Zm1.048.22a.482.482,0,0,1,.173-.168.9.9,0,0,1,.178-.073,1.845,1.845,0,0,1,1.3.194.964.964,0,0,1,.383.372.482.482,0,0,1-.173.168,1.394,1.394,0,0,1-.964.073,1.96,1.96,0,0,1-.524-.194.933.933,0,0,1-.346-.372Z" transform="translate(-159.455 -193.161)" fill="#263238"/>
              <path id="Path_17542" data-name="Path 17542" d="M172.906,196.466h-.063a4.106,4.106,0,0,0-.65.042,5.53,5.53,0,0,1-1.048.026h-.273a1.337,1.337,0,0,0-.2,0,4.717,4.717,0,0,1-1.656.183h0a13.5,13.5,0,0,0-1.929-.388H167a1.572,1.572,0,0,0-.749.2c-.87.524.121,1.106.325,1.572s-.241.729-.309.97.121.367-.042.886-.037.618.084.687l.949.524,7.081-4.062-.949-.55A.865.865,0,0,0,172.906,196.466Zm-5.32,3.988a.461.461,0,0,1-.393-.031c-.121-.073-.147-.173-.058-.225a.424.424,0,0,1,.393.031C167.65,200.3,167.676,200.4,167.587,200.455Zm1.226-2.437a1.394,1.394,0,0,1-.964.073,1.959,1.959,0,0,1-.524-.194c-.466-.273-.561-.65-.21-.854a.906.906,0,0,1,.178-.073,1.845,1.845,0,0,1,1.3.194C169.1,197.436,169.164,197.813,168.813,198.018Zm4.245-.723a.451.451,0,0,1-.388-.031c-.126-.073-.147-.173-.058-.225a.424.424,0,0,1,.393.031C173.127,197.137,173.153,197.237,173.058,197.294Z" transform="translate(-159.474 -193.161)" fill="#37474f"/>
              <path id="Path_17543" data-name="Path 17543" d="M180.283,214.2l14.738-8.506a.294.294,0,0,0,.126-.22v-.162a.283.283,0,0,0-.126-.22l-19.476-11.242a.267.267,0,0,0-.252,0l-14.738,8.506a.293.293,0,0,0-.126.22v.162a.283.283,0,0,0,.126.22L180.026,214.2a.278.278,0,0,0,.257,0Z" transform="translate(-156.871 -191.966)" fill="#f5f5f5"/>
              <path id="Path_17544" data-name="Path 17544" d="M208.25,217.915l5.089-2.935.183.1-5.089,2.935Z" transform="translate(-179.629 -202.036)" fill="#e0e0e0"/>
              <path id="Path_17545" data-name="Path 17545" d="M196.59,224.64l5.089-2.94.183.11-5.089,2.935Z" transform="translate(-174.08 -205.234)" fill="#e0e0e0"/>
              <path id="Path_17546" data-name="Path 17546" d="M212.965,215.37c.037.042,0,.089-.031.126L198.2,224a.262.262,0,0,1-.126.031v.456a.267.267,0,0,0,.131-.031l14.738-8.511a.273.273,0,0,0,.126-.215v-.162a.288.288,0,0,0-.1-.2Z" transform="translate(-174.784 -202.222)" fill="#fafafa"/>
              <path id="Path_17547" data-name="Path 17547" d="M160.556,210.15l-.031.037h0a.431.431,0,0,0-.037.068.152.152,0,0,0,0,.047.068.068,0,0,0,0,.031v.162a.283.283,0,0,0,.126.22l19.471,11.242a.262.262,0,0,0,.126.031v-.456a.267.267,0,0,1-.131-.031L160.609,210.26C160.525,210.244,160.515,210.192,160.556,210.15Z" transform="translate(-156.898 -199.737)" fill="#e0e0e0"/>
              <path id="Path_17548" data-name="Path 17548" d="M198.128,222.868c-.047.058,0,.126.052.178a.586.586,0,0,1-.052.252.309.309,0,0,1-.115.173.2.2,0,0,1-.22-.047c-.047-.047-.063,0-.068,0a.469.469,0,0,0,0,.089.4.4,0,0,1-.084-.047.257.257,0,0,0-.1-.052h-.058a.173.173,0,0,0,0,.126c0,.047.037.11,0,.157s-.115-.031-.131-.047a.792.792,0,0,1-.094-.136h-.073a.761.761,0,0,1,0,.189.877.877,0,0,1-.058.278c0,.031-.052.141-.131.141a.11.11,0,0,1-.094-.058v-.084a.66.66,0,0,0,0-.414.3.3,0,0,0-.068-.079.068.068,0,0,0-.063,0,.147.147,0,0,0-.073.168,1.573,1.573,0,0,0,.037.168.682.682,0,0,0,.042.178.178.178,0,0,0,.031.063.666.666,0,0,1-.11.241c-.063.073-.252.22-.4.121a.451.451,0,0,1-.183-.278v-.089a1,1,0,0,0,.189-.241.65.65,0,0,0,.073-.236.524.524,0,0,0,0-.293.094.094,0,0,0-.073-.073.2.2,0,0,0-.136,0,.241.241,0,0,0-.126.21,1.61,1.61,0,0,0-.037.278,1.311,1.311,0,0,0,.042.372,1.608,1.608,0,0,1-.273.2h0a1.463,1.463,0,0,0,.262-.189h0a.587.587,0,0,0,.178.314.325.325,0,0,0,.173.063.451.451,0,0,0,.246-.063.487.487,0,0,0,.241-.309h.031a.2.2,0,0,0,.246-.073.676.676,0,0,0,.1-.288v-.152l.042.047a.21.21,0,0,0,.21.047c.068-.031.042-.1.037-.141s0-.068-.026-.1,0-.026,0-.037.1.094.21.084a.042.042,0,0,0,.037,0,.126.126,0,0,0,0-.063.393.393,0,0,0,.21.037.246.246,0,0,0,.178-.162.629.629,0,0,0,.068-.2l.11.183a3.145,3.145,0,0,1,.267.6l.121.346h.073a4.513,4.513,0,0,0-.278-.755,3.814,3.814,0,0,0-.21-.377c0-.037-.052-.073-.073-.11a.267.267,0,0,0-.058-.162A.472.472,0,0,1,198.128,222.868Zm-2.049,1.017a1.518,1.518,0,0,1,0-.267.965.965,0,0,1,.031-.215.183.183,0,0,1,.152-.141.073.073,0,0,1,.079.047.482.482,0,0,1,0,.273.725.725,0,0,1-.241.487,1.22,1.22,0,0,1-.021-.183Zm.77,0a.853.853,0,0,0-.037-.157.084.084,0,1,1,.073,0,.9.9,0,0,1,0,.2v.031a.311.311,0,0,1-.037-.068Z" transform="translate(-173.689 -205.762)" fill="#37474f"/>
              <path id="Path_17549" data-name="Path 17549" d="M202.084,221h-.068a.073.073,0,0,0,.037.058h0a.272.272,0,0,1,0,.089.592.592,0,0,1,0,.168v.073a.083.083,0,0,1,0,.037h-.068l-.094-.037h-.063a.32.32,0,0,1,0,.157H201.8c-.031,0-.047,0-.058-.031a.32.32,0,0,0-.094-.058h-.052a.3.3,0,0,0,0,.094s.031.094,0,.11-.068-.031-.1-.079a.1.1,0,0,0-.063-.121h-.058a.157.157,0,0,0,.047.11h0a.493.493,0,0,1-.031.147.351.351,0,0,1-.131.225.162.162,0,0,1-.194-.031.524.524,0,0,0,0-.3.723.723,0,0,0-.372-.44h-.047c-.052.026-.042.079-.037.115a.67.67,0,0,0,.058.162,1.815,1.815,0,0,0,.2.346.634.634,0,0,0,.147.141.335.335,0,0,1-.063.131h.026a.387.387,0,0,0,.073-.115.283.283,0,0,0,.22.031.309.309,0,0,0,.189-.231,1.143,1.143,0,0,0,.037-.126.136.136,0,0,0,.115.037c.115,0,.079-.115.058-.189a.2.2,0,0,0,.068.047.162.162,0,0,0,.131,0h-.01a.278.278,0,0,0,0-.068.414.414,0,0,0,.136.042c.1,0,.11-.073.121-.115a.789.789,0,0,0,.031-.189.068.068,0,0,0,0-.031h0a2.234,2.234,0,0,1,.152.173,1.3,1.3,0,0,1,.173.257.524.524,0,0,0-.231.11c-.079.073-.178.257.042.288a.262.262,0,0,0,.314-.2.352.352,0,0,0-.037-.178.791.791,0,0,1,.194,0c.042,0,.063-.026,0-.031a.813.813,0,0,0-.225,0,1,1,0,0,0-.084-.142l-.152-.189c-.037-.042-.079-.079-.121-.121l-.058-.042A.162.162,0,0,0,202.084,221Zm-1.205.844a1.908,1.908,0,0,1-.178-.294.937.937,0,0,1-.063-.152c0-.026-.031-.079,0-.115a.713.713,0,0,1,.335.4.6.6,0,0,1,0,.273.683.683,0,0,1-.094-.1Zm1.572.058a.194.194,0,0,1-.194,0c-.058-.047,0-.121,0-.168a.383.383,0,0,1,.225-.142.225.225,0,0,1-.026.32Z" transform="translate(-175.989 -204.901)" fill="#37474f"/>
              <path id="Path_17550" data-name="Path 17550" d="M207.478,218.03a.094.094,0,0,0-.047.079.79.79,0,0,0-.037.194.278.278,0,0,0-.11-.063h-.052a.142.142,0,0,0-.058.068.215.215,0,0,0-.2-.068.22.22,0,0,0-.157.162.657.657,0,0,0,0,.084c-.031-.073-.063-.147-.089-.22a.875.875,0,0,0-.183-.377.278.278,0,0,0-.33-.1.3.3,0,0,0-.126.115.524.524,0,0,0-.073.162v.079l-.173-.089h-.037l.21.115a.934.934,0,0,0,0,.241.739.739,0,0,0,.079.252.11.11,0,0,0,.068.068.126.126,0,0,0,.115,0c.131-.094.089-.241.026-.346a.587.587,0,0,0-.231-.2.461.461,0,0,1,.152-.341.119.119,0,0,1,.178-.005.587.587,0,0,1,.11.121,1.227,1.227,0,0,1,.147.33,2.808,2.808,0,0,0,.131.325v.031a.388.388,0,0,0,.052.294h.073a.445.445,0,0,0-.047-.294h0a.932.932,0,0,1,.042-.236.22.22,0,0,1,.084-.1.094.094,0,0,1,.094.026.361.361,0,0,1,.089.136v.052h.079a.334.334,0,0,1,0-.037.309.309,0,0,1,0-.073.152.152,0,0,1,.031-.1c.079.037.11.11.152.157s.084,0,.073,0a.393.393,0,0,1,0-.288.3.3,0,0,1,.026-.073.2.2,0,0,1,.042.073.225.225,0,0,0,.042.157.663.663,0,0,1,.068.168,2.181,2.181,0,0,0,.183.32,1.221,1.221,0,0,0,.293.33h.047a3.528,3.528,0,0,1-.288-.351,2.676,2.676,0,0,1-.2-.383,1.327,1.327,0,0,1-.063-.189.21.21,0,0,0-.073-.147A.094.094,0,0,0,207.478,218.03Zm-1.321.278a.3.3,0,0,1,.1.32.268.268,0,0,1-.047.068h0a.1.1,0,0,1-.047-.068.812.812,0,0,1-.063-.22,1.229,1.229,0,0,1,0-.2.817.817,0,0,1,.068.1Z" transform="translate(-178.463 -203.361)" fill="#37474f"/>
              <path id="Path_17551" data-name="Path 17551" d="M211.233,216.9a.482.482,0,0,0-.231,0l-.1-.089a2.1,2.1,0,0,0-.241-.152h-.073a.712.712,0,0,1,.068.22.194.194,0,0,1,0,.11c-.026.031-.068,0-.1,0h-.063a.393.393,0,0,0,0,.079c0,.005-.089-.042-.11-.047a.16.16,0,0,0-.052,0s.031.073,0,.1l-.084-.052h-.063a.494.494,0,0,1,.031.079s.026.073,0,.089,0,0-.037,0l-.042-.031a.355.355,0,0,0-.089-.047h-.052a1.084,1.084,0,0,0,0,.121v.073s0,.047-.031.058-.22-.2-.236-.231-.068,0-.063,0a1.4,1.4,0,0,1,.073.189c0,.063.031.157-.094.183h0a.147.147,0,0,0,.136-.173s0,0,0-.031a.2.2,0,0,0,.178.079.1.1,0,0,0,.089-.115,1.114,1.114,0,0,0,0-.131c.058.042.115.094.189.063s.042-.058.037-.089a.189.189,0,0,0,0-.052h.084c.058,0,.052-.058.042-.094a.136.136,0,0,0,.115.026c.052,0,.047-.047.047-.073a.2.2,0,0,0,.126,0,.115.115,0,0,0,.058-.1.524.524,0,0,0-.037-.2l.094.058a.832.832,0,0,1,.142.126l-.063.042c-.052.042-.063.126.058.136s.147-.068.131-.115a.157.157,0,0,0-.031-.058.493.493,0,0,1,.178,0C211.244,216.943,211.286,216.906,211.233,216.9Zm-.252.152c0,.031-.052.042-.068,0s0-.058.052-.079h0a.068.068,0,0,1,.016.079Z" transform="translate(-180.29 -202.835)" fill="#37474f"/>
              <path id="Path_17552" data-name="Path 17552" d="M211.951,214.226c.031.11.073.22.1.325a2.371,2.371,0,0,1,.063.335,1.771,1.771,0,0,0,.037.33h0a2.274,2.274,0,0,0-.178-.215,1.048,1.048,0,0,0-.267-.194.325.325,0,0,0-.278,0,.257.257,0,0,0-.094.068h-.121a.293.293,0,0,1-.121,0h-.031c.021,0,.168.026.246.037h0a.346.346,0,0,0-.047.1.262.262,0,0,0,.031.215.257.257,0,0,0,.2.1.183.183,0,0,0,.183-.141.28.28,0,0,0-.173-.241.524.524,0,0,0-.11-.042.188.188,0,0,1,.058-.052.225.225,0,0,1,.236,0,1.049,1.049,0,0,1,.231.183,2.65,2.65,0,0,1,.189.236l.058.079h0a.115.115,0,0,0,.047.11h.068a.2.2,0,0,0-.042-.126h0l-.031-.173a1,1,0,0,0-.037-.325,1.41,1.41,0,0,0-.189-.624S211.946,214.21,211.951,214.226Zm-.362.833a.131.131,0,0,1-.031.2.128.128,0,0,1-.183-.058.246.246,0,0,1-.037-.189.361.361,0,0,1,.047-.1.351.351,0,0,1,.2.152Z" transform="translate(-180.966 -201.669)" fill="#37474f"/>
              <path id="Path_17553" data-name="Path 17553" d="M215.62,214.194a2.144,2.144,0,0,0-.44-.524h-.073a.755.755,0,0,1,.073.278.094.094,0,0,1-.031.073.105.105,0,0,0-.079.037.068.068,0,0,0-.037.058.592.592,0,0,0-.094-.063h-.068a.43.43,0,0,0,0,.115v.089a.666.666,0,0,1-.152-.142h-.079a.657.657,0,0,0,0,.147.523.523,0,0,1,0,.089v.058h-.031a.393.393,0,0,1-.052-.089.387.387,0,0,1-.042-.152c0-.026-.073-.026-.073,0a3.825,3.825,0,0,1,0,.425.4.4,0,0,1-.084.21.414.414,0,0,1-.1.089.434.434,0,0,1-.157.068c-.052,0-.063-.047-.068-.068a.551.551,0,0,1-.031-.126V214.7a.388.388,0,0,0,.178-.409.1.1,0,0,0-.136-.094.084.084,0,0,0-.058.063.938.938,0,0,0,0,.1c0,.089-.031.178-.037.267v.068l-.058.042h.047a.189.189,0,0,0,0,.058.367.367,0,0,0,.042.142c.047.084.189.047.278,0a.487.487,0,0,0,.22-.2.634.634,0,0,0,.052-.325l.037.031a.162.162,0,0,0,.168,0,.157.157,0,0,0,0-.142.4.4,0,0,0,0-.079.72.72,0,0,0,.121.089h.052a.089.089,0,0,0,.063-.1.41.41,0,0,0,0-.084.863.863,0,0,0,.1.052h.063v-.068a.188.188,0,0,1,.079-.042.142.142,0,0,0,.063-.121.377.377,0,0,0-.037-.147,2.1,2.1,0,0,1,.252.341c0,.037.047.068.068.1a.472.472,0,0,0-.241.168.341.341,0,0,0-.068.162.215.215,0,0,0,.058.189.33.33,0,0,0,.293.047.267.267,0,0,0,.178-.162.524.524,0,0,0-.126-.383h.084a.315.315,0,0,0-.115-.073Zm-1.63.236v-.173a.162.162,0,0,1,0-.042v-.026h0a.158.158,0,0,1,0,.042.4.4,0,0,1,0,.194.315.315,0,0,1-.11.168A1.624,1.624,0,0,1,213.99,214.43Zm1.688,0a.262.262,0,0,1,0,.178.215.215,0,0,1-.194.126.168.168,0,0,1-.173-.162.3.3,0,0,1,0-.131.414.414,0,0,1,.231-.22.806.806,0,0,1,.136.225Z" transform="translate(-182.308 -201.413)" fill="#37474f"/>
              <path id="Path_17554" data-name="Path 17554" d="M180.535,198.791l.173.1c.094.052.094.136,0,.194L168.879,205.9a.377.377,0,0,1-.335,0l-.173-.1a.1.1,0,0,1,0-.194l11.829-6.813a.346.346,0,0,1,.335,0Z" transform="translate(-160.613 -194.311)" fill="#e0e0e0"/>
              <path id="Path_17555" data-name="Path 17555" d="M182.51,199.963l.168.094c.094.058.094.142,0,.194l-11.829,6.813a.377.377,0,0,1-.335,0l-.173-.1a.1.1,0,0,1,0-.194l11.84-6.808A.356.356,0,0,1,182.51,199.963Z" transform="translate(-161.551 -194.87)" fill="#e0e0e0"/>
              <path id="Path_17556" data-name="Path 17556" d="M184.465,201.063l.168.1a.1.1,0,0,1,0,.194L172.8,208.17a.377.377,0,0,1-.335,0l-.173-.1a.1.1,0,0,1,0-.194l11.834-6.813A.377.377,0,0,1,184.465,201.063Z" transform="translate(-162.479 -195.394)" fill="#e0e0e0"/>
              <path id="Path_17557" data-name="Path 17557" d="M188.815,203.573l.173.1c.094.052.094.136,0,.194l-11.829,6.813a.388.388,0,0,1-.341,0l-.168-.1a.1.1,0,0,1,0-.194l11.829-6.813a.362.362,0,0,1,.335,0Z" transform="translate(-164.554 -196.588)" fill="#e0e0e0"/>
              <path id="Path_17558" data-name="Path 17558" d="M190.79,204.711l.168.094c.094.058.094.142,0,.2l-11.829,6.813a.377.377,0,0,1-.335,0l-.173-.1a.1.1,0,0,1,0-.194l11.829-6.813A.356.356,0,0,1,190.79,204.711Z" transform="translate(-165.491 -197.128)" fill="#e0e0e0"/>
              <path id="Path_17559" data-name="Path 17559" d="M192.75,205.844l.168.1a.1.1,0,0,1,0,.194l-11.829,6.813a.377.377,0,0,1-.335,0l-.173-.1a.1.1,0,0,1,0-.194l11.834-6.813A.377.377,0,0,1,192.75,205.844Z" transform="translate(-166.424 -197.67)" fill="#e0e0e0"/>
              <path id="Path_17560" data-name="Path 17560" d="M197.109,208.368l.173.1c.094.052.094.136,0,.194l-11.813,6.84a.388.388,0,0,1-.341,0l-.168-.1a.1.1,0,0,1,0-.194l11.829-6.813A.377.377,0,0,1,197.109,208.368Z" transform="translate(-168.508 -198.878)" fill="#e0e0e0"/>
              <path id="Path_17561" data-name="Path 17561" d="M199.07,209.491l.168.1c.094.052.094.136,0,.194L187.409,216.6a.377.377,0,0,1-.335,0l-.173-.1a.1.1,0,0,1,0-.194l11.829-6.813A.356.356,0,0,1,199.07,209.491Z" transform="translate(-169.432 -199.403)" fill="#e0e0e0"/>
              <path id="Path_17562" data-name="Path 17562" d="M201.036,210.624l.168.1a.1.1,0,0,1,0,.194l-11.829,6.813a.346.346,0,0,1-.335,0l-.173-.1c-.094-.052-.094-.136,0-.194l11.834-6.813A.377.377,0,0,1,201.036,210.624Z" transform="translate(-170.37 -199.944)" fill="#e0e0e0"/>
              <path id="Path_17563" data-name="Path 17563" d="M170.2,200.828v.314a.728.728,0,0,0,.168.435l8.684-5.01v-.314a1.871,1.871,0,0,0-.849-.215h0a1.358,1.358,0,0,0-.577.121c-.629.283-.812.372-1.2.524a.613.613,0,0,1-.587-.084h0l-.262-.236-.7-.655a.419.419,0,0,0-.33-.1h0a.655.655,0,0,0-.162,0,2.437,2.437,0,0,1-.723,0,1.494,1.494,0,0,1-.781-.3,1.824,1.824,0,0,0-1.211-.425h-.037a1.808,1.808,0,0,0-.8.194.86.86,0,0,0-.524.938.844.844,0,0,0,.3.807.645.645,0,0,1,.194.372.817.817,0,0,1-.173.4.356.356,0,0,0-.094.21v.32a.21.21,0,0,0,.079.157l.818.744.257.241a.063.063,0,0,1,.026.026.351.351,0,0,1-.058.084l-1.048.823A.875.875,0,0,0,170.2,200.828Zm2.322-4.764a.6.6,0,0,1-.3.32,1.2,1.2,0,0,1-.912.052.969.969,0,0,1-.351-.2.65.65,0,0,1-.168-.241.608.608,0,0,1,.309-.32l.121-.058a1.2,1.2,0,0,1,1.137.2.713.713,0,0,1,.168.246Z" transform="translate(-161.521 -192.47)" fill="#37474f"/>
              <path id="Path_17564" data-name="Path 17564" d="M178.242,196.038h0a1.358,1.358,0,0,0-.577.121c-.629.283-.812.372-1.2.524a.613.613,0,0,1-.587-.084h0l-.262-.236-.7-.655a.419.419,0,0,0-.33-.1h0a.655.655,0,0,0-.162,0,2.437,2.437,0,0,1-.723,0,1.494,1.494,0,0,1-.781-.3,1.824,1.824,0,0,0-1.211-.425h-.037a1.808,1.808,0,0,0-.8.194.828.828,0,0,0-.22,1.431.86.86,0,0,1,0,1.09c-.2.241,0,.372,0,.372l.818.744.257.236c.194.178-.031.43-.031.43l-1.048.823c-.456.409-.43.739-.194,1.048l8.684-5.01A1.871,1.871,0,0,0,178.242,196.038Zm-5.849-.524a.524.524,0,0,1-.136.88,1.2,1.2,0,0,1-.912.052.969.969,0,0,1-.351-.2.524.524,0,0,1,.141-.88l.121-.052a1.2,1.2,0,0,1,1.137.189Z" transform="translate(-161.56 -192.47)" fill="#455a64"/>
            </g>
          </g>
          <g id="freepik--Pen--inject-138" transform="translate(66.313 50.352)">
            <path id="Path_17565" data-name="Path 17565" d="M157.246,234.354l12.862,7.432,2.2.451a.068.068,0,0,0,.073-.1l-.692-1.263-12.862-7.432C158.393,233.191,156.91,234.16,157.246,234.354Z" transform="translate(-157.197 -232.132)" opacity="0.2"/>
            <g id="freepik--pen--inject-138-2" data-name="freepik--pen--inject-138" transform="translate(0.417)">
              <path id="Path_17566" data-name="Path 17566" d="M159.045,231.048h.063l-.126-.068h-.1a.55.55,0,0,0-.262.079,1.305,1.305,0,0,0-.624.98.666.666,0,0,0,0,.147.047.047,0,0,0,0,.026h0a.294.294,0,0,0,.047.089h0l.142.079a.488.488,0,0,1-.063-.047.477.477,0,0,0,.341-.073,1.305,1.305,0,0,0,.587-1.022A.472.472,0,0,0,159.045,231.048Zm-.875,1.4Z" transform="translate(-157.992 -230.98)" fill="#0761ce"/>
              <path id="Path_17567" data-name="Path 17567" d="M171.519,238.213l-.818,1.447-.142-.079-12.133-7.007a.5.5,0,0,1-.063-.047.488.488,0,0,1-.1-.335,1.3,1.3,0,0,1,.587-1.017.524.524,0,0,1,.262-.084h.141Z" transform="translate(-158.119 -231.032)" fill="#f0f0f0"/>
              <path id="Path_17568" data-name="Path 17568" d="M182.227,244.687c.325-.189.592-.031.592.341a1.31,1.31,0,0,1-.592,1.048c-.325.189-.587.037-.587-.341a1.305,1.305,0,0,1,.587-1.048Z" transform="translate(-169.246 -237.465)" fill="#0761ce"/>
              <path id="Path_17569" data-name="Path 17569" d="M183.538,245.605h0l-.749-.828h0a.388.388,0,0,0-.472,0,1.305,1.305,0,0,0-.587,1.048c0,.22.089.362.225.4H182l1.09.236a.272.272,0,0,0,.194-.037.76.76,0,0,0,.335-.587.3.3,0,0,0-.079-.236Z" transform="translate(-169.289 -237.508)" fill="#e0e0e0"/>
              <path id="Path_17570" data-name="Path 17570" d="M166.485,236.175h0a.152.152,0,0,0-.136,0,.451.451,0,0,0-.21.362.157.157,0,0,0,.047.126h.026l8.936,5.178.587-.335Z" transform="translate(-161.869 -233.445)" fill="#455a64"/>
              <path id="Path_17571" data-name="Path 17571" d="M181.74,245.658l.833.477.587-.335-1.127-.65A1.373,1.373,0,0,0,181.74,245.658Z" transform="translate(-169.294 -237.723)" fill="#37474f"/>
              <path id="Path_17572" data-name="Path 17572" d="M184.451,246.447h0l-.681-.749h0a.273.273,0,0,0-.335,0,.912.912,0,0,0-.414.718c0,.157.058.257.157.288h.026l1,.215h0a.178.178,0,0,0,.11,0,.425.425,0,0,0,.189-.33.173.173,0,0,0-.052-.141Z" transform="translate(-169.903 -237.957)" fill="#0761ce"/>
              <path id="Path_17573" data-name="Path 17573" d="M184.451,246.447h0l-.681-.749h0a.273.273,0,0,0-.335,0,.912.912,0,0,0-.414.718c0,.157.058.257.157.288h.026l1,.215h0a.178.178,0,0,0,.11,0,.425.425,0,0,0,.189-.33.173.173,0,0,0-.052-.141Z" transform="translate(-169.903 -237.957)" opacity="0.1"/>
              <path id="Path_17574" data-name="Path 17574" d="M184.949,246.886a.425.425,0,0,1-.189.33.178.178,0,0,1-.11,0h0l-.524-.11c-.084,0-.136-.089-.136-.21a.681.681,0,0,1,.3-.524.2.2,0,0,1,.246,0h0l.341.372h0a.173.173,0,0,1,.068.142Z" transform="translate(-170.364 -238.286)" fill="#0761ce"/>
              <path id="Path_17575" data-name="Path 17575" d="M185.289,247.159a.117.117,0,0,1,.189.11.425.425,0,0,1-.189.33.118.118,0,0,1-.189-.11.425.425,0,0,1,.189-.33Z" transform="translate(-170.893 -238.669)" opacity="0.1"/>
              <path id="Path_17576" data-name="Path 17576" d="M162.225,233.721a.147.147,0,0,0-.152,0,.451.451,0,0,0-.2.362.147.147,0,0,0,.058.136h0l2.206,1.274a.157.157,0,0,1-.047-.126.451.451,0,0,1,.21-.362.152.152,0,0,1,.136,0Z" transform="translate(-159.837 -232.274)" fill="#fafafa"/>
              <path id="Path_17577" data-name="Path 17577" d="M162.283,233.857a.451.451,0,0,1-.21.362.131.131,0,0,1-.142,0,.142.142,0,0,1-.063-.136.451.451,0,0,1,.2-.362.147.147,0,0,1,.152,0A.142.142,0,0,1,162.283,233.857Z" transform="translate(-159.837 -232.274)" fill="#f5f5f5"/>
              <path id="Path_17578" data-name="Path 17578" d="M160.174,231.79h0l-.87-.524h0a.372.372,0,0,0-.362.047,1.163,1.163,0,0,0-.524.917.362.362,0,0,0,.157.341h0l.88.524h0a.377.377,0,0,0,.367-.037,1.179,1.179,0,0,0,.524-.922A.377.377,0,0,0,160.174,231.79Z" transform="translate(-158.194 -231.103)" fill="#0761ce"/>
              <path id="Path_17579" data-name="Path 17579" d="M160.174,231.79h0l-.87-.524h0a.372.372,0,0,0-.362.047,1.163,1.163,0,0,0-.524.917.362.362,0,0,0,.157.341h0l.88.524h0a.377.377,0,0,0,.367-.037,1.179,1.179,0,0,0,.524-.922A.377.377,0,0,0,160.174,231.79Z" transform="translate(-158.194 -231.103)" opacity="0.05"/>
              <path id="Path_17580" data-name="Path 17580" d="M160.524,232.285c.293-.168.524-.031.524.3a1.179,1.179,0,0,1-.524.922c-.294.168-.524.031-.524-.309a1.174,1.174,0,0,1,.524-.917Z" transform="translate(-158.948 -231.567)" opacity="0.1"/>
              <path id="Path_17581" data-name="Path 17581" d="M185.8,247.58h0l-.362-.22h0a.058.058,0,0,0-.068,0,.2.2,0,0,0-.1.168.063.063,0,0,0,.031.063h0l.356.215h0a.147.147,0,0,0,.068,0,.12.12,0,0,0,.073-.225Z" transform="translate(-170.973 -238.77)" fill="#455a64"/>
              <path id="Path_17582" data-name="Path 17582" d="M186.172,247.812h0a.058.058,0,0,0-.063,0,.22.22,0,0,0-.1.168.073.073,0,0,0,.026.063h.063a.136.136,0,0,0,.136-.136.126.126,0,0,0-.063-.094Z" transform="translate(-171.325 -238.986)" fill="#263238"/>
            </g>
          </g>
          <g id="freepik--Keyboard--inject-138" transform="translate(37.188 58.549)">
            <path id="freepik--shadow--inject-138-5" data-name="freepik--shadow--inject-138" d="M101.852,265.159l9.434,5.451a1.158,1.158,0,0,0,1.048,0l27.814-16.038a.325.325,0,0,0,0-.613l-9.434-5.451a1.179,1.179,0,0,0-1.048,0l-27.814,16.038a.32.32,0,0,0,0,.613Z" transform="translate(-101.623 -247.461)" opacity="0.2"/>
            <g id="freepik--keyboard--inject-138-2" data-name="freepik--keyboard--inject-138" transform="translate(0.575)">
              <path id="Path_17583" data-name="Path 17583" d="M140.112,252.161a.372.372,0,0,0-.215-.3l-8.847-5.11a1.164,1.164,0,0,0-1.048,0L103.01,262.36a.372.372,0,0,0-.22.3v.928a.372.372,0,0,0,.22.3l8.842,5.1a1.164,1.164,0,0,0,1.048,0l27-15.587a.367.367,0,0,0,.215-.3Z" transform="translate(-102.753 -246.622)" fill="#ebebeb"/>
              <path id="Path_17584" data-name="Path 17584" d="M111.861,268.052l-8.842-5.084a.32.32,0,0,1,0-.608l26.991-15.613a1.164,1.164,0,0,1,1.048,0l8.847,5.11a.32.32,0,0,1,0,.608l-26.991,15.582A1.164,1.164,0,0,1,111.861,268.052Z" transform="translate(-102.758 -246.622)" fill="#fff"/>
              <path id="Path_17585" data-name="Path 17585" d="M112.3,282.734v.949a1.048,1.048,0,0,1-.524-.121l-8.836-5.1a.372.372,0,0,1-.22-.3v-.933a.383.383,0,0,0,.22.309l8.836,5.084A1.049,1.049,0,0,0,112.3,282.734Z" transform="translate(-102.72 -261.183)" fill="#e0e0e0"/>
              <path id="Path_17586" data-name="Path 17586" d="M113.838,268.2h0l-.875-.524,1.184-.687.907.524-1.205.687Zm-1.368-.791h0l-.875-.524.933-.524.907.524-.933.524Zm3.029-.168h0l-.875-.524.933-.524.907.524-.933.524Zm-4.4-.624h0l-.875-.524,1.509-.87.907.524-1.53.88Zm2.778,0h0L113,266.09l.739-.424.907.524-.739.425Zm3.029-.168h0l-.875-.524.933-.524.907.524-.933.524Zm-1.819-.524h0l-.875-.524.744-.43.9.524-.739.43Zm-5.356-.073h0l-.875-.524,1.19-.687.9.524-1.184.687Zm8.58-.2h0l-.875-.524,6.74-3.894.907.524-6.74,3.889Zm-5.241-.147h0l-.875-.524.739-.424.907.524-.739.425Zm3.218-.278h0l-.875-.524.739-.425.907.524-.739.424Zm-7.93-.168h0l-.875-.524.744-.424.907.524-.744.424Zm3.029-.162h0l-.875-.524.739-.424.907.524-.739.425Zm2.9-.094h0l-.875-.524.744-.43.9.524-.739.43Zm3.223-.278h0l-.875-.524.739-.43.907.524-.739.43Zm-7.919-.168h0l-.875-.524.739-.43.907.524-.739.43Zm3.029-.168h0l-.875-.524.739-.43.907.524-.739.43Zm2.9-.094h0l-.875-.524.739-.43.907.524-.739.425Zm-8.81,0h0l-.875-.524.933-.524.907.524-.933.524Zm12.028-.278h0l-.875-.524.744-.425.9.524-.739.425Zm-7.94-.163h0l-.875-.524.744-.43.9.524-.739.43Zm3.029-.168h0l-.875-.524.744-.425.9.524-.739.425Zm2.9-.089h0l-.875-.524.739-.424.907.524-.739.425Zm3.218-.278h0l-.875-.524.739-.43.907.524-.739.43Zm-11.331-.157h0l-.875-.524.739-.425.907.524-.739.425Zm3.37,0h0l-.875-.524.739-.425.907.524-.739.425Zm3.035-.168h0l-.875-.524.739-.43.907.524-.739.43Zm2.9-.094h0l-.875-.524.744-.43.907.524-.744.43Zm3.223-.278h0l-.875-.524.739-.43.907.524-.739.425Zm-11.31-.136h0l-.875-.524.739-.43.907.524-.739.43Zm3.37-.026h0l-.875-.524.739-.43.907.524-.739.43Zm3.029-.168h0l-.875-.524.739-.43.907.524-.739.425Zm2.9-.094h0l-.875-.524.739-.425.907.524-.739.425Zm3.218-.273h0l-.875-.524.744-.425.9.524-.739.424Zm-11.31-.142h0l-.875-.524.744-.43.907.524-.744.425Zm3.37-.026h0l-.875-.524.744-.424.9.524-.739.425Zm11.1-.073h0l-.875-.524.933-.524.9.524-.928.524Zm-8.066-.094h0l-.875-.524.744-.43.907.524Zm2.9-.094h0l-.875-.524.744-.43.9.524-.739.43Zm3.223-.278h0l-.875-.524.739-.43.907.524-.739.43Zm-11.315-.152h0l-.875-.524.739-.43.907.524-.739.425Zm3.37,0h0l-.875-.524.739-.43.907.524-.739.43Zm3.029-.168h0l-.875-.524.739-.43.907.524-.739.43Zm8.26,0h0l-.875-.524.933-.524.9.524-.928.524Zm-5.362-.073h0l-.875-.524.744-.424.907.524-.744.425Zm3.228-.283h0l-.875-.524.744-.424.9.524Zm-7.94-.162h0l-.875-.524.739-.424.907.524-.739.425Zm3.029-.168h0l-.875-.524.744-.424.9.524-.739.425Zm2.9-.089h0l-.875-.524.739-.43.907.524-.739.43Zm-8.774,0h0l-.875-.524.739-.43.907.524-.739.43Zm14.319,0h0l-.875-.524.933-.524.9.524-.928.524ZM126,259.68h0l-.881-.524.744-.43.907.524-.744.43Zm-7.94-.162h0l-.875-.524.744-.43.907.524-.744.43Zm3.029-.168h0l-.881-.524.744-.43.907.524-.739.367Zm2.9-.094h0l-.875-.524.744-.43.9.524-.739.424Zm-8.774,0h0l-.875-.524.744-.425.9.524-.739.425Zm14.512-.126h0l-.88-.524,1.19-.687.907.524-1.19.687ZM127.218,259h0l-.875-.524,2.338-1.347.9.524L127.25,259Zm-7.951-.236h0l-.875-.524.739-.43.907.524-.739.424Zm3.035-.168h0l-.875-.524.739-.425.907.524-.739.425Zm2.9-.089h0l-.875-.524.739-.424.907.524-.744.425Zm-8.774,0h0l-.881-.524.744-.43.907.524-.744.43Zm4.057-.419h0l-.875-.524.744-.425.9.524-.739.424Zm11.163-.115h0l-.875-.524.739-.43.907.524-.739.43Zm-8.134-.052h0l-.875-.524.744-.43.9.524-.739.43Zm2.9-.094h0l-.875-.524.676-.393a.147.147,0,0,0,.079-.121.157.157,0,0,0-.084-.131l-1.148-.666.87-.5,2.275,1.3-1.761,1.017Zm-8.774,0h0l-.875-.524.739-.43.907.524-.739.424Zm4.051-.419h0l-.875-.524.739-.43.907.524-.744.43Zm11.163-.115h0l-.875-.524.744-.43.9.524-.739.425Zm-8.134-.052h0l-.881-.524.744-.43.907.524-.744.425Zm-5.341-.419h0l-.875-.524.739-.425.907.524-.739.424Zm3.527-.115h0l-.875-.524.739-.425.907.524-.739.425Zm11.158-.11h0l-.875-.524.744-.425.907.524-.744.424Zm-2.584-.094h0l-.875-.524.739-.43.907.524-.739.425Zm-10.886-.435h0l-.875-.524.744-.43.9.524-.739.43Zm3.527-.115h0l-.875-.524,1.316-.76.907.524-1.315.76Zm11.415-.262h0l-.875-.524,1.95-1.127.907.524-1.955,1.127Zm-8-.126h0l-.875-.524.744-.43.9.524-.739.43Zm-5.728-.2h0l-.875-.524.739-.425.907.524-.739.425Zm12.364-.466h0l-.875-.524.744-.43.9.524-.739.43Zm-5.424-.037h0l-.875-.524.739-.425.907.524-.739.425Zm-2.579-.089h0l-.875-.524.739-.43.907.524-.739.43Zm-3.145-.1h0l-.875-.524.739-.43.907.524-.739.43Zm14.942-.377h0l-.875-.524.744-.43.9.524-.739.43Zm-2.584-.094h0l-.875-.524.744-.425.9.524-.739.425Zm-5.419-.031h0l-.875-.524.739-.43.907.524-.739.43Zm2.835-.058h0l-.875-.524.739-.43.907.524-.739.43Zm-5.425-.058h0l-.875-.524.744-.425.9.524-.734.425Zm-2.877-.257h0l-.88-.524.744-.43.907.524-.744.43Zm14.675-.225h0l-2.248-1.3.739-.43,2.28,1.3-.739.43Zm-2.579-.089h0l-.875-.524.739-.43.907.524-.739.43Zm-2.584-.094h0l-.875-.524.739-.425.907.524-.739.425Zm-5.425-.031h0l-.87-.524.739-.43.907.524-.744.43Zm2.841-.058h0l-.875-.524.739-.43.907.524-.739.43Zm-5.713-.2h0l-.875-.524.739-.43.907.524-.739.43Zm9.507-.4h0l-.875-.524.744-.43.9.524-.739.43Zm-2.584-.094h0l-.88-.524.744-.425.907.524-.744.425Zm-2.584-.089h0l-.875-.524.739-.43.907.524-.744.43Zm-3.145-.11h0l-.875-.524.744-.425.9.524-.739.425Zm9.507-.409h0l-2.248-1.3.744-.424,2.275,1.295-.739.43Zm-2.579-.089h0l-.875-.524.739-.43.907.524-.739.43Zm-2.584-.089h0l-.875-.524.739-.425.907.524-.739.425Zm-3.229-.466h0l-.377-.215.739-.425.409.22-.739.425Zm4.439-.236h0l-.875-.524.744-.43.9.524-.739.43Zm-3.229-.466h0l-.377-.215.739-.43.409.22-.739.425Zm4.439-.236h0l-.875-.524.739-.425.907.524-.739.425Zm-3.223-.461h0l-.383-.215.744-.425.4.22-.734.425Zm1.211-.7h0l-.377-.215.739-.43.409.22-.739.425Z" transform="translate(-104.205 -247.559)" fill="#0761ce"/>
              <path id="Path_17587" data-name="Path 17587" d="M113.838,268.2h0l-.875-.524,1.184-.687.907.524-1.205.687Zm-1.368-.791h0l-.875-.524.933-.524.907.524-.933.524Zm3.029-.168h0l-.875-.524.933-.524.907.524-.933.524Zm-4.4-.624h0l-.875-.524,1.509-.87.907.524-1.53.88Zm2.778,0h0L113,266.09l.739-.424.907.524-.739.425Zm3.029-.168h0l-.875-.524.933-.524.907.524-.933.524Zm-1.819-.524h0l-.875-.524.744-.43.9.524-.739.43Zm-5.356-.073h0l-.875-.524,1.19-.687.9.524-1.184.687Zm8.58-.2h0l-.875-.524,6.74-3.894.907.524-6.74,3.889Zm-5.241-.147h0l-.875-.524.739-.424.907.524-.739.425Zm3.218-.278h0l-.875-.524.739-.425.907.524-.739.424Zm-7.93-.168h0l-.875-.524.744-.424.907.524-.744.424Zm3.029-.162h0l-.875-.524.739-.424.907.524-.739.425Zm2.9-.094h0l-.875-.524.744-.43.9.524-.739.43Zm3.223-.278h0l-.875-.524.739-.43.907.524-.739.43Zm-7.919-.168h0l-.875-.524.739-.43.907.524-.739.43Zm3.029-.168h0l-.875-.524.739-.43.907.524-.739.43Zm2.9-.094h0l-.875-.524.739-.43.907.524-.739.425Zm-8.81,0h0l-.875-.524.933-.524.907.524-.933.524Zm12.028-.278h0l-.875-.524.744-.425.9.524-.739.425Zm-7.94-.163h0l-.875-.524.744-.43.9.524-.739.43Zm3.029-.168h0l-.875-.524.744-.425.9.524-.739.425Zm2.9-.089h0l-.875-.524.739-.424.907.524-.739.425Zm3.218-.278h0l-.875-.524.739-.43.907.524-.739.43Zm-11.331-.157h0l-.875-.524.739-.425.907.524-.739.425Zm3.37,0h0l-.875-.524.739-.425.907.524-.739.425Zm3.035-.168h0l-.875-.524.739-.43.907.524-.739.43Zm2.9-.094h0l-.875-.524.744-.43.907.524-.744.43Zm3.223-.278h0l-.875-.524.739-.43.907.524-.739.425Zm-11.31-.136h0l-.875-.524.739-.43.907.524-.739.43Zm3.37-.026h0l-.875-.524.739-.43.907.524-.739.43Zm3.029-.168h0l-.875-.524.739-.43.907.524-.739.425Zm2.9-.094h0l-.875-.524.739-.425.907.524-.739.425Zm3.218-.273h0l-.875-.524.744-.425.9.524-.739.424Zm-11.31-.142h0l-.875-.524.744-.43.907.524-.744.425Zm3.37-.026h0l-.875-.524.744-.424.9.524-.739.425Zm11.1-.073h0l-.875-.524.933-.524.9.524-.928.524Zm-8.066-.094h0l-.875-.524.744-.43.907.524Zm2.9-.094h0l-.875-.524.744-.43.9.524-.739.43Zm3.223-.278h0l-.875-.524.739-.43.907.524-.739.43Zm-11.315-.152h0l-.875-.524.739-.43.907.524-.739.425Zm3.37,0h0l-.875-.524.739-.43.907.524-.739.43Zm3.029-.168h0l-.875-.524.739-.43.907.524-.739.43Zm8.26,0h0l-.875-.524.933-.524.9.524-.928.524Zm-5.362-.073h0l-.875-.524.744-.424.907.524-.744.425Zm3.228-.283h0l-.875-.524.744-.424.9.524Zm-7.94-.162h0l-.875-.524.739-.424.907.524-.739.425Zm3.029-.168h0l-.875-.524.744-.424.9.524-.739.425Zm2.9-.089h0l-.875-.524.739-.43.907.524-.739.43Zm-8.774,0h0l-.875-.524.739-.43.907.524-.739.43Zm14.319,0h0l-.875-.524.933-.524.9.524-.928.524ZM126,259.68h0l-.881-.524.744-.43.907.524-.744.43Zm-7.94-.162h0l-.875-.524.744-.43.907.524-.744.43Zm3.029-.168h0l-.881-.524.744-.43.907.524-.739.367Zm2.9-.094h0l-.875-.524.744-.43.9.524-.739.424Zm-8.774,0h0l-.875-.524.744-.425.9.524-.739.425Zm14.512-.126h0l-.88-.524,1.19-.687.907.524-1.19.687ZM127.218,259h0l-.875-.524,2.338-1.347.9.524L127.25,259Zm-7.951-.236h0l-.875-.524.739-.43.907.524-.739.424Zm3.035-.168h0l-.875-.524.739-.425.907.524-.739.425Zm2.9-.089h0l-.875-.524.739-.424.907.524-.744.425Zm-8.774,0h0l-.881-.524.744-.43.907.524-.744.43Zm4.057-.419h0l-.875-.524.744-.425.9.524-.739.424Zm11.163-.115h0l-.875-.524.739-.43.907.524-.739.43Zm-8.134-.052h0l-.875-.524.744-.43.9.524-.739.43Zm2.9-.094h0l-.875-.524.676-.393a.147.147,0,0,0,.079-.121.157.157,0,0,0-.084-.131l-1.148-.666.87-.5,2.275,1.3-1.761,1.017Zm-8.774,0h0l-.875-.524.739-.43.907.524-.739.424Zm4.051-.419h0l-.875-.524.739-.43.907.524-.744.43Zm11.163-.115h0l-.875-.524.744-.43.9.524-.739.425Zm-8.134-.052h0l-.881-.524.744-.43.907.524-.744.425Zm-5.341-.419h0l-.875-.524.739-.425.907.524-.739.424Zm3.527-.115h0l-.875-.524.739-.425.907.524-.739.425Zm11.158-.11h0l-.875-.524.744-.425.907.524-.744.424Zm-2.584-.094h0l-.875-.524.739-.43.907.524-.739.425Zm-10.886-.435h0l-.875-.524.744-.43.9.524-.739.43Zm3.527-.115h0l-.875-.524,1.316-.76.907.524-1.315.76Zm11.415-.262h0l-.875-.524,1.95-1.127.907.524-1.955,1.127Zm-8-.126h0l-.875-.524.744-.43.9.524-.739.43Zm-5.728-.2h0l-.875-.524.739-.425.907.524-.739.425Zm12.364-.466h0l-.875-.524.744-.43.9.524-.739.43Zm-5.424-.037h0l-.875-.524.739-.425.907.524-.739.425Zm-2.579-.089h0l-.875-.524.739-.43.907.524-.739.43Zm-3.145-.1h0l-.875-.524.739-.43.907.524-.739.43Zm14.942-.377h0l-.875-.524.744-.43.9.524-.739.43Zm-2.584-.094h0l-.875-.524.744-.425.9.524-.739.425Zm-5.419-.031h0l-.875-.524.739-.43.907.524-.739.43Zm2.835-.058h0l-.875-.524.739-.43.907.524-.739.43Zm-5.425-.058h0l-.875-.524.744-.425.9.524-.734.425Zm-2.877-.257h0l-.88-.524.744-.43.907.524-.744.43Zm14.675-.225h0l-2.248-1.3.739-.43,2.28,1.3-.739.43Zm-2.579-.089h0l-.875-.524.739-.43.907.524-.739.43Zm-2.584-.094h0l-.875-.524.739-.425.907.524-.739.425Zm-5.425-.031h0l-.87-.524.739-.43.907.524-.744.43Zm2.841-.058h0l-.875-.524.739-.43.907.524-.739.43Zm-5.713-.2h0l-.875-.524.739-.43.907.524-.739.43Zm9.507-.4h0l-.875-.524.744-.43.9.524-.739.43Zm-2.584-.094h0l-.88-.524.744-.425.907.524-.744.425Zm-2.584-.089h0l-.875-.524.739-.43.907.524-.744.43Zm-3.145-.11h0l-.875-.524.744-.425.9.524-.739.425Zm9.507-.409h0l-2.248-1.3.744-.424,2.275,1.295-.739.43Zm-2.579-.089h0l-.875-.524.739-.43.907.524-.739.43Zm-2.584-.089h0l-.875-.524.739-.425.907.524-.739.425Zm-3.229-.466h0l-.377-.215.739-.425.409.22-.739.425Zm4.439-.236h0l-.875-.524.744-.43.9.524-.739.43Zm-3.229-.466h0l-.377-.215.739-.43.409.22-.739.425Zm4.439-.236h0l-.875-.524.739-.425.907.524-.739.425Zm-3.223-.461h0l-.383-.215.744-.425.4.22-.734.425Zm1.211-.7h0l-.377-.215.739-.43.409.22-.739.425Z" transform="translate(-104.205 -247.559)" opacity="0.5"/>
            </g>
          </g>
          <g id="freepik--PC--inject-138" transform="translate(6.84)">
            <path id="freepik--shadow--inject-138-6" data-name="freepik--shadow--inject-138" d="M52.876,242.844l-9.156-5.288L89.511,211.12l9.156,5.283Z" transform="translate(-43.72 -171.179)" opacity="0.15"/>
            <g id="freepik--Monitor--inject-138" transform="translate(6.105)">
              <path id="Path_17588" data-name="Path 17588" d="M102.695,239.138l6.541-3.784a1.719,1.719,0,0,0,1.012-1.4v-.912l-7.862-4.455a1.436,1.436,0,0,1-.65-1.132V219.39L90.31,226v8.066a1.436,1.436,0,0,0,.65,1.127l6.855,3.957A5.409,5.409,0,0,0,102.695,239.138Z" transform="translate(-71.997 -175.114)" fill="#e6e6e6"/>
              <path id="Path_17589" data-name="Path 17589" d="M93.046,240.339v.907l-2.1-1.205a1.436,1.436,0,0,1-.65-1.132v-8.05l2.175-1.258c.042.524.094,1.122.136,1.682l-1.525.88v6.289a1.436,1.436,0,0,0,.65,1.127Z" transform="translate(-71.992 -179.973)" fill="#e0e0e0"/>
              <path id="Path_17590" data-name="Path 17590" d="M91.81,234.8a1.452,1.452,0,0,0,.65,1.127l6.069,3.5a5.372,5.372,0,0,0,4.879,0l6.541-3.779c1.352-.776,1.352-2.039,0-2.814l-6.069-3.506a1.452,1.452,0,0,1-.65-1.127V221.91L91.81,228.5Z" transform="translate(-72.71 -176.313)" fill="#f5f5f5"/>
              <path id="Path_17591" data-name="Path 17591" d="M105.206,230.091h0l-1.326-.765a1.452,1.452,0,0,1-.65-1.127V221.91L91.81,228.5v6.289a1.452,1.452,0,0,0,.65,1.127l1.305.755Z" transform="translate(-72.71 -176.313)" fill="#ebebeb"/>
              <path id="Path_17592" data-name="Path 17592" d="M119.379,245.43v.912a1.73,1.73,0,0,1-1.012,1.41l-6.541,3.779a4.932,4.932,0,0,1-2.327.577V251.2a4.874,4.874,0,0,0,2.327-.577l6.541-3.784A1.719,1.719,0,0,0,119.379,245.43Z" transform="translate(-81.129 -187.506)" fill="#ebebeb"/>
              <path id="Path_17593" data-name="Path 17593" d="M56.13,202.091a1.745,1.745,0,0,0,1.572,0l44.166-25.5a1.8,1.8,0,0,0,.812-1.41V136.5a1.525,1.525,0,0,0-2.338-1.352L56.182,160.639a1.8,1.8,0,0,0-.812,1.41v38.658A1.74,1.74,0,0,0,56.13,202.091Z" transform="translate(-55.369 -134.911)" fill="#455a64"/>
              <path id="Path_17594" data-name="Path 17594" d="M59.092,202.954l44.166-25.5a1.782,1.782,0,0,0,.812-1.4V137.409c0-.524-.362-.734-.812-.472l-44.166,25.5a1.813,1.813,0,0,0-.812,1.41V202.5C58.28,203.022,58.657,203.232,59.092,202.954Z" transform="translate(-56.754 -135.822)" fill="#0761ce"/>
              <path id="Path_17595" data-name="Path 17595" d="M59.092,202.954l44.166-25.5a1.782,1.782,0,0,0,.812-1.4V137.409c0-.524-.362-.734-.812-.472l-44.166,25.5a1.813,1.813,0,0,0-.812,1.41V202.5C58.28,203.022,58.657,203.232,59.092,202.954Z" transform="translate(-56.754 -135.822)" fill="#37474f"/>
              <path id="Path_17596" data-name="Path 17596" d="M57.586,257.92a1.52,1.52,0,0,1-2.217-1.41v-4.35l1.525.886v4.345C56.894,257.841,57.193,258.077,57.586,257.92Z" transform="translate(-55.368 -190.709)" fill="#e0e0e0"/>
              <path id="Path_17597" data-name="Path 17597" d="M58.28,229.836v4.35c0,.524.367.729.812.472l44.166-25.5a1.782,1.782,0,0,0,.812-1.4V203.4Z" transform="translate(-56.754 -167.505)" fill="#fff"/>
              <path id="Path_17598" data-name="Path 17598" d="M61.19,197.219V166.627a1.09,1.09,0,0,1,.487-.849l41.766-24.109c.267-.157.487-.031.487.283v30.592a1.09,1.09,0,0,1-.487.849L61.677,197.5C61.41,197.659,61.19,197.533,61.19,197.219Z" transform="translate(-58.139 -138.095)" fill="#0761ce"/>
              <path id="Path_17599" data-name="Path 17599" d="M61.19,197.219V166.627a1.09,1.09,0,0,1,.487-.849l41.766-24.109c.267-.157.487-.031.487.283v30.592a1.09,1.09,0,0,1-.487.849L61.677,197.5C61.41,197.659,61.19,197.533,61.19,197.219Z" transform="translate(-58.139 -138.095)" fill="#fff" opacity="0.5"/>
              <path id="Path_17600" data-name="Path 17600" d="M65.457,169.287,102.643,147.8c.273-.157.487-.031.487.283v27.1a1.048,1.048,0,0,1-.487.844L65.463,197.51c-.273.157-.493.026-.493-.283V170.136A1.09,1.09,0,0,1,65.457,169.287Z" transform="translate(-59.937 -141.012)" fill="#455a64"/>
              <path id="Path_17601" data-name="Path 17601" d="M103.13,148.116c0-.309-.215-.435-.487-.278L65.457,169.327a1.09,1.09,0,0,0-.487.849v2.1l38.16-22.012Z" transform="translate(-59.937 -141.031)" fill="#37474f"/>
              <path id="Path_17602" data-name="Path 17602" d="M101.305,231.9a1.672,1.672,0,0,0-.765,1.321c0,.487.341.681.765.44a1.7,1.7,0,0,0,.76-1.321C102.049,231.849,101.709,231.649,101.305,231.9Z" transform="translate(-76.865 -181.016)" fill="#455a64"/>
              <path id="Path_17603" data-name="Path 17603" d="M57.136,186.045a1.751,1.751,0,0,0-.241.807v34.313l-1.525-.886V185.972a1.672,1.672,0,0,1,.241-.8Z" transform="translate(-55.369 -158.829)" fill="#263238"/>
              <path id="Path_17604" data-name="Path 17604" d="M76.55,179.706V202.07l26.315-15.2V164.512c0-.341-.241-.482-.524-.309l-25.236,14.57A1.2,1.2,0,0,0,76.55,179.706Z" transform="translate(-65.448 -148.816)" fill="#fafafa"/>
              <path id="Path_17605" data-name="Path 17605" d="M84.183,193.306a1.8,1.8,0,0,0,0,.183v.482a1.743,1.743,0,0,0,0,.183.839.839,0,0,0,.026.2.351.351,0,0,0,.073.147.173.173,0,0,0,.126.052.33.33,0,0,0,.183-.058.671.671,0,0,0,.189-.147.87.87,0,0,0,.115-.168.665.665,0,0,0,.068-.168,1.133,1.133,0,0,0,.042-.152.492.492,0,0,1,.037-.136.162.162,0,0,1,.073-.073l.43-.252a.031.031,0,0,1,.047,0,.089.089,0,0,1,0,.068,1.908,1.908,0,0,1-.079.524,2.411,2.411,0,0,1-.524.97,1.573,1.573,0,0,1-.4.33.87.87,0,0,1-.419.136.524.524,0,0,1-.314-.115.676.676,0,0,1-.2-.32,1.63,1.63,0,0,1-.079-.482v-.9a2.72,2.72,0,0,1,.079-.571,2.92,2.92,0,0,1,.2-.556,2.448,2.448,0,0,1,.32-.477,1.662,1.662,0,0,1,.419-.351,1,1,0,0,1,.4-.136.6.6,0,0,1,.325.079.634.634,0,0,1,.215.273,1.1,1.1,0,0,1,.079.435.173.173,0,0,1,0,.089.126.126,0,0,1-.047.063l-.43.246c-.037.026-.063.026-.073,0a.2.2,0,0,1-.037-.094.472.472,0,0,0-.042-.11.194.194,0,0,0-.068-.089.2.2,0,0,0-.115-.031.525.525,0,0,0-.189.068.6.6,0,0,0-.183.157.713.713,0,0,0-.126.2,1.131,1.131,0,0,0-.073.225A1.305,1.305,0,0,0,84.183,193.306Z" transform="translate(-68.789 -161.855)" fill="#e0e0e0"/>
              <path id="Path_17606" data-name="Path 17606" d="M88.288,190.921a2.762,2.762,0,0,1,.278-1.127,2.463,2.463,0,0,1,.314-.472,1.64,1.64,0,0,1,.43-.356.833.833,0,0,1,.425-.136.461.461,0,0,1,.314.11.681.681,0,0,1,.2.314,1.687,1.687,0,0,1,.084.487v.9a2.783,2.783,0,0,1-.084.582,2.464,2.464,0,0,1-.2.55,2.212,2.212,0,0,1-.314.477,1.8,1.8,0,0,1-.425.351.88.88,0,0,1-.43.142.477.477,0,0,1-.314-.11.765.765,0,0,1-.2-.325,1.63,1.63,0,0,1-.079-.482v-.44C88.288,191.225,88.283,191.068,88.288,190.921Zm1.436.042v-.844a1.169,1.169,0,0,0-.031-.215.372.372,0,0,0-.079-.136.173.173,0,0,0-.126-.052.335.335,0,0,0-.178.058.681.681,0,0,0-.178.147.713.713,0,0,0-.126.2,1.049,1.049,0,0,0-.079.225,1.39,1.39,0,0,0-.037.252v.849a.524.524,0,0,0,.115.351c.068.073.168.073.3,0a.7.7,0,0,0,.3-.341,1.358,1.358,0,0,0,.1-.493Z" transform="translate(-71.033 -160.571)" fill="#e0e0e0"/>
              <path id="Path_17607" data-name="Path 17607" d="M94.764,189.158H94.67a.152.152,0,0,1-.042-.042l-.749-1.295v1.709a.283.283,0,0,1,0,.11.126.126,0,0,1-.063.073l-.43.252a.052.052,0,0,1-.063,0,.121.121,0,0,1,0-.084v-3.255a.33.33,0,0,1,0-.115.178.178,0,0,1,.063-.073l.341-.2a.079.079,0,0,1,.089,0,.131.131,0,0,1,.047.047l.749,1.289v-1.7a.283.283,0,0,1,.026-.11.163.163,0,0,1,.063-.079l.43-.246a.042.042,0,0,1,.063,0,.11.11,0,0,1,.026.079v3.26a.283.283,0,0,1-.026.11.257.257,0,0,1-.063.079Z" transform="translate(-73.427 -158.949)" fill="#e0e0e0"/>
              <path id="Path_17608" data-name="Path 17608" d="M99.685,182.79a.042.042,0,0,1,.058,0,.089.089,0,0,1,0,.079v.524a.215.215,0,0,1,0,.11.163.163,0,0,1-.058.079l-.577.335V186.5a.33.33,0,0,1,0,.115.3.3,0,0,1-.063.073l-.43.246h-.063a.11.11,0,0,1,0-.079v-2.589l-.577.335a.052.052,0,0,1-.063,0,.11.11,0,0,1,0-.079V184a.309.309,0,0,1,0-.115.147.147,0,0,1,.063-.073Z" transform="translate(-75.612 -157.691)" fill="#e0e0e0"/>
              <path id="Path_17609" data-name="Path 17609" d="M103.365,180.974a1.226,1.226,0,0,1,.388-.152.4.4,0,0,1,.288.047.43.43,0,0,1,.183.252,1.352,1.352,0,0,1,.068.477,2.17,2.17,0,0,1-.1.687,1.751,1.751,0,0,1-.288.524l.409.97a.152.152,0,0,1,0,.047.246.246,0,0,1,0,.089.131.131,0,0,1-.052.063l-.445.257c-.047.026-.073.031-.094,0a.183.183,0,0,1-.042-.068l-.367-.865-.3.173v1.106a.283.283,0,0,1,0,.11.184.184,0,0,1-.063.073l-.43.252a.052.052,0,0,1-.063,0,.115.115,0,0,1,0-.084v-3.255a.33.33,0,0,1,0-.115.173.173,0,0,1,.063-.073ZM103,182.719l.367-.215a.7.7,0,0,0,.231-.215.608.608,0,0,0,.089-.341c0-.141-.031-.225-.089-.241a.288.288,0,0,0-.231.047l-.367.215Z" transform="translate(-77.771 -156.756)" fill="#e0e0e0"/>
              <path id="Path_17610" data-name="Path 17610" d="M108.022,178.172c.042-.026.079-.026.1,0a.22.22,0,0,1,.047.084l.713,2.762a.236.236,0,0,1,0,.068.3.3,0,0,1,0,.094.141.141,0,0,1-.052.058l-.414.241c-.042.026-.073.026-.089,0a.1.1,0,0,1-.037-.063l-.094-.367-.87.524-.089.472a.362.362,0,0,1-.037.1.231.231,0,0,1-.094.094l-.414.241a.031.031,0,0,1-.047,0,.078.078,0,0,1,0-.063.715.715,0,0,1,0-.084l.713-3.59a.681.681,0,0,1,.052-.142.2.2,0,0,1,.1-.11Zm-.524,2.51.524-.3-.267-1.048Z" transform="translate(-79.767 -155.49)" fill="#e0e0e0"/>
              <path id="Path_17611" data-name="Path 17611" d="M112.075,177.19a1.747,1.747,0,0,0,0,.183v.482a1.641,1.641,0,0,0,0,.178.776.776,0,0,0,0,.2.351.351,0,0,0,.073.147.178.178,0,0,0,.126.058.346.346,0,0,0,.183-.063.581.581,0,0,0,.183-.147.687.687,0,0,0,.121-.162.87.87,0,0,0,.068-.168,1.185,1.185,0,0,0,.042-.157.8.8,0,0,1,.031-.131.188.188,0,0,1,.079-.079l.43-.246a.031.031,0,0,1,.047,0s0,.031,0,.063a1.876,1.876,0,0,1-.079.524,2.516,2.516,0,0,1-.215.524,2.354,2.354,0,0,1-.325.451,1.572,1.572,0,0,1-.4.33.818.818,0,0,1-.419.136.461.461,0,0,1-.314-.11.7.7,0,0,1-.2-.32,1.687,1.687,0,0,1-.079-.482v-.9a2.767,2.767,0,0,1,.278-1.122,2.3,2.3,0,0,1,.32-.477,1.683,1.683,0,0,1,.419-.356.954.954,0,0,1,.4-.131.556.556,0,0,1,.325.079.587.587,0,0,1,.215.267,1.1,1.1,0,0,1,.079.44.2.2,0,0,1,0,.089.126.126,0,0,1-.047.063l-.43.246c-.037,0-.063.026-.079,0a.314.314,0,0,1-.031-.094.761.761,0,0,0-.042-.11.178.178,0,0,0-.068-.084.2.2,0,0,0-.121-.031.419.419,0,0,0-.183.063.781.781,0,0,0-.183.157.8.8,0,0,0-.126.2,1.178,1.178,0,0,0-.073.231,1.21,1.21,0,0,0,0,.257Z" transform="translate(-82.043 -154.188)" fill="#e0e0e0"/>
              <path id="Path_17612" data-name="Path 17612" d="M117.936,172.25H118a.089.089,0,0,1,0,.079v.524a.215.215,0,0,1,0,.11.163.163,0,0,1-.063.079l-.577.33v2.589a.215.215,0,0,1,0,.11.194.194,0,0,1-.058.079l-.43.246a.047.047,0,0,1-.063,0,.089.089,0,0,1-.026-.079v-2.589l-.577.335a.052.052,0,0,1-.063,0,.131.131,0,0,1,0-.084v-.524a.283.283,0,0,1,0-.11.162.162,0,0,1,.063-.079Z" transform="translate(-84.287 -152.681)" fill="#e0e0e0"/>
              <path id="Path_17613" data-name="Path 17613" d="M81.008,192.991l21.3-12.306a.239.239,0,0,1,.388.22h0a.844.844,0,0,1-.388.671L81.013,193.834c-.215.121-.393.031-.393-.2A.849.849,0,0,1,81.008,192.991Z" transform="translate(-67.385 -156.671)" fill="#e0e0e0"/>
              <path id="Path_17614" data-name="Path 17614" d="M81.008,197.482l21.3-12.311c.215-.126.388-.026.388.225h0a.86.86,0,0,1-.388.708L81.013,198.32c-.215.121-.393.031-.393-.2a.833.833,0,0,1,.388-.639Z" transform="translate(-67.385 -158.804)" fill="#e0e0e0"/>
              <path id="Path_17615" data-name="Path 17615" d="M81.008,201.978l21.3-12.311a.241.241,0,0,1,.388.225h0a.859.859,0,0,1-.388.671L81.013,202.817c-.215.126-.393.037-.393-.194a.833.833,0,0,1,.388-.645Z" transform="translate(-67.385 -160.946)" fill="#e0e0e0"/>
              <path id="Path_17616" data-name="Path 17616" d="M81.008,208.651l21.3-12.306a.239.239,0,0,1,.388.22h0a.839.839,0,0,1-.388.666L81.013,209.494c-.215.121-.393.031-.393-.2a.849.849,0,0,1,.388-.645Z" transform="translate(-67.385 -164.123)" fill="#e0e0e0"/>
              <path id="Path_17617" data-name="Path 17617" d="M81.008,213.148l21.3-12.311a.241.241,0,0,1,.388.225h0a.859.859,0,0,1-.388.671L81.013,214c-.215.126-.393.037-.393-.194A.833.833,0,0,1,81.008,213.148Z" transform="translate(-67.385 -166.262)" fill="#e0e0e0"/>
              <path id="Path_17618" data-name="Path 17618" d="M81.008,217.638l21.3-12.311a.241.241,0,0,1,.388.225h0a.844.844,0,0,1-.388.671L81.013,218.477c-.215.126-.393.037-.393-.194A.849.849,0,0,1,81.008,217.638Z" transform="translate(-67.385 -168.399)" fill="#e0e0e0"/>
            </g>
          </g>
        </g>
        <g id="freepik--Chair--inject-138" transform="translate(177.685 121.727)">
          <path id="Path_17619" data-name="Path 17619" d="M392.109,351.592a.739.739,0,0,0,.739-.739V303.259a.739.739,0,0,0-1.478,0v47.594a.739.739,0,0,0,.739.739Z" transform="translate(-359.01 -243.131)" fill="#455a64"/>
          <path id="Path_17620" data-name="Path 17620" d="M335.919,328.213a.744.744,0,0,0,.692-.466L351.2,290.808a.739.739,0,1,0-1.373-.545l-14.6,36.939a.739.739,0,0,0,.414.959.718.718,0,0,0,.273.052Z" transform="translate(-332.27 -237.074)" fill="#455a64"/>
          <path id="Path_17621" data-name="Path 17621" d="M339.291,326.681a.718.718,0,0,0,.524-.236l27.159-28.737,27.117,28.637a.74.74,0,0,0,1.074-1.017l-27.647-29.2a.713.713,0,0,0-.524-.236h0a.734.734,0,0,0-.524.236l-27.694,29.3a.744.744,0,0,0,.031,1.048.728.728,0,0,0,.482.2Z" transform="translate(-333.887 -239.977)" fill="#455a64"/>
          <path id="Path_17622" data-name="Path 17622" d="M435.076,328.213a.717.717,0,0,0,.273-.052.739.739,0,0,0,.419-.959l-14.6-36.939a.741.741,0,1,0-1.378.545l14.6,36.939A.744.744,0,0,0,435.076,328.213Z" transform="translate(-372.512 -237.074)" fill="#455a64"/>
          <path id="Path_17623" data-name="Path 17623" d="M336.755,352.46l-1.929,5.089a.591.591,0,0,0,0,.131.282.282,0,0,0,0,.094.587.587,0,0,0,.288.32,1.289,1.289,0,0,0,1.174,0,.524.524,0,0,0,.231-.241h0v-.073l1.792-4.769Z" transform="translate(-332.1 -266.898)" fill="#0761ce"/>
          <path id="Path_17624" data-name="Path 17624" d="M445.591,352.46l1.929,5.089a.4.4,0,0,1,0,.131v.094a.624.624,0,0,1-.294.32,1.289,1.289,0,0,1-1.174,0,.493.493,0,0,1-.225-.241h0v-.073l-1.787-4.769Z" transform="translate(-384.076 -266.898)" fill="#0761ce"/>
          <path id="Path_17625" data-name="Path 17625" d="M391.15,387.517v4.193a.419.419,0,0,0,.252.346,1.321,1.321,0,0,0,1.205,0,.419.419,0,0,0,.252-.346v-4.193A1.824,1.824,0,0,0,391.15,387.517Z" transform="translate(-358.906 -283.48)" fill="#0761ce"/>
          <path id="Path_17626" data-name="Path 17626" d="M329.629,242.438c0-1.326,1.158-2.736,3.616-4.329,4.539-2.945,17.746-10.32,24.109-13.836a.073.073,0,0,1,.052-.052c4.885-2.966,6.373-15.618,9.754-26.347,1.153-3.669,2.563-5.728,4.24-6.7.393-.231,1.861-1.048,2.186-1.232,3.318-1.986,7.673.4,13.1,3.37,4.995,2.736,8.91,6.237,9.685,15.524.477,5.655,0,16.467-1.127,24.633h0c-1.667,13.684-3.706,13.711-6.672,16-5.1,3.941-16.588,9.481-21.431,11.384-8.784,3.454-15.959-1.871-21.3-4.513a125.258,125.258,0,0,1-14.151-8.386c-1.336-.975-2.034-1.96-2.018-2.993C329.634,244.55,329.624,242.868,329.629,242.438Z" transform="translate(-329.627 -189.207)" fill="#0761ce"/>
          <path id="Path_17627" data-name="Path 17627" d="M329.629,242.438c0-1.326,1.158-2.736,3.616-4.329,4.539-2.945,17.746-10.32,24.109-13.836a.073.073,0,0,1,.052-.052c4.885-2.966,6.373-15.618,9.754-26.347,1.153-3.669,2.563-5.728,4.24-6.7.393-.231,1.861-1.048,2.186-1.232,3.318-1.986,7.673.4,13.1,3.37,4.995,2.736,8.91,6.237,9.685,15.524.477,5.655,0,16.467-1.127,24.633h0c-1.667,13.684-3.706,13.711-6.672,16-5.1,3.941-16.588,9.481-21.431,11.384-8.784,3.454-15.959-1.871-21.3-4.513a125.258,125.258,0,0,1-14.151-8.386c-1.336-.975-2.034-1.96-2.018-2.993C329.634,244.55,329.624,242.868,329.629,242.438Z" transform="translate(-329.627 -189.207)" opacity="0.2"/>
          <path id="Path_17628" data-name="Path 17628" d="M345.842,283.9a124.471,124.471,0,0,1-14.151-8.386c-3.045-2.212-2.762-4.471,1.572-7.3,6.059-3.931,27.584-15.765,27.584-15.765s31.226,18.433,29.874,21.834-17.495,11.745-23.585,14.151C358.363,291.868,351.188,286.543,345.842,283.9Z" transform="translate(-329.646 -219.305)" fill="#0761ce"/>
          <path id="Path_17629" data-name="Path 17629" d="M345.842,283.9a124.471,124.471,0,0,1-14.151-8.386c-3.045-2.212-2.762-4.471,1.572-7.3,6.059-3.931,27.584-15.765,27.584-15.765s31.226,18.433,29.874,21.834-17.495,11.745-23.585,14.151C358.363,291.868,351.188,286.543,345.842,283.9Z" transform="translate(-329.646 -219.305)" fill="#fff" opacity="0.5"/>
          <path id="Path_17630" data-name="Path 17630" d="M409.67,191.059c3.286-1.724,7.558.624,12.841,3.517,3.386,1.855,6.289,4.051,8.024,8.166l2.227-1.289c-1.751-4.093-4.628-6.289-8-8.145-5.424-2.972-9.78-5.356-13.1-3.37C411.373,190.105,410.22,190.75,409.67,191.059Z" transform="translate(-367.719 -189.207)" fill="#0761ce"/>
          <path id="Path_17631" data-name="Path 17631" d="M409.67,191.059c3.286-1.724,7.558.624,12.841,3.517,3.386,1.855,6.289,4.051,8.024,8.166l2.227-1.289c-1.751-4.093-4.628-6.289-8-8.145-5.424-2.972-9.78-5.356-13.1-3.37C411.373,190.105,410.22,190.75,409.67,191.059Z" transform="translate(-367.719 -189.207)" fill="#fff" opacity="0.5"/>
          <path id="Path_17632" data-name="Path 17632" d="M409.619,195.723c-8.118-4.444-13.847-7.6-17.3,3.3-3.381,10.728-4.869,23.38-9.754,26.347,0,0,3.187,1.048,14.549,6.625,4.665,2.29,7.725,4.6,12.1,7.337,6.426,4.041,5.938,7.049,5.938,7.049,3.192-2.647,4.916-25.849,4.135-35.141S414.614,198.459,409.619,195.723Z" transform="translate(-354.822 -190.355)" fill="#0761ce"/>
        </g>
        <g id="freepik--Briefcase--inject-138" transform="translate(72.488 191.234)">
          <path id="Path_17633" data-name="Path 17633" d="M128.91,342.8v27.3c0,1.326.938,2.1,2.1,2.762l2.872,1.661a2.767,2.767,0,0,0,2.243.44,6.1,6.1,0,0,0,1.53-.629.142.142,0,0,0,.063-.031l.152-.089,29.35-16.939a6.929,6.929,0,0,0,3.438-6V326.415a1.986,1.986,0,0,0-.9-1.546l-4.9-2.825a1.934,1.934,0,0,0-1.777,0L129.8,341.257a1.808,1.808,0,0,0-.634.666A1.856,1.856,0,0,0,128.91,342.8Z" transform="translate(-128.91 -321.828)" fill="#0761ce"/>
          <path id="Path_17634" data-name="Path 17634" d="M128.91,361.045v27.3c0,1.326.938,2.1,2.1,2.762l2.872,1.661a2.767,2.767,0,0,0,2.243.44,6.1,6.1,0,0,0,1.53-.629h0c-1.143.524-2.044-.063-2.044-1.415V365.432A2.8,2.8,0,0,1,136,364.1l-6.813-3.931a1.855,1.855,0,0,0-.278.875Z" transform="translate(-128.91 -340.074)" opacity="0.3"/>
          <path id="Path_17635" data-name="Path 17635" d="M141.66,351.32a2.987,2.987,0,0,1,1.347-2.332l31.446-18.166c1.242-.718,2.259-.126,2.259,1.31V355.4a6.929,6.929,0,0,1-3.428,6l-29.35,16.939c-1.242.718-2.259.131-2.259-1.305Z" transform="translate(-134.979 -325.963)" opacity="0.2"/>
          <path id="Path_17636" data-name="Path 17636" d="M168.841,324,135.5,343.439a3.145,3.145,0,0,0-1.572,2.694v28.092l.524.293V346.128a2.621,2.621,0,0,1,1.3-2.254l33.59-19.586Z" transform="translate(-131.299 -322.861)" fill="#0761ce"/>
          <path id="Path_17637" data-name="Path 17637" d="M134.389,363.26a3.145,3.145,0,0,0-.419,1.572v28.092l.524.294V364.811a2.62,2.62,0,0,1,.351-1.3Z" transform="translate(-131.318 -341.545)" opacity="0.4"/>
          <path id="Path_17638" data-name="Path 17638" d="M135.2,344.823a2.547,2.547,0,0,1,.949-.954l33.59-19.586-.524-.293-33.338,19.439a3.113,3.113,0,0,0-1.132,1.143" transform="translate(-131.686 -322.857)" opacity="0.3"/>
          <path id="Path_17639" data-name="Path 17639" d="M177,330.111v4.23l1.651.954v-5.587c0-.288-.2-.4-.451-.262Z" transform="translate(-151.795 -325.424)" fill="#263238"/>
          <path id="Path_17640" data-name="Path 17640" d="M154.83,331.722v6.845l1.572.912,1.048-.613v-5.613a1.017,1.017,0,0,1,.451-.786l8.056-4.649,1.672-.964c.252-.142.451-.026.451.262v5.613l1.048-.613v-6.84a.48.48,0,0,0,0-.089,1.006,1.006,0,0,0-.451-.7l-.671-.393a1.048,1.048,0,0,0-.907,0l-11.85,6.845A.985.985,0,0,0,154.83,331.722Z" transform="translate(-141.246 -322.859)" fill="#455a64"/>
          <path id="Path_17641" data-name="Path 17641" d="M157.84,333.508v6.84l1.048-.613v-5.613a1.017,1.017,0,0,1,.451-.786l8.056-4.649,1.672-.964c.252-.142.451-.026.451.262V333.6l1.048-.613v-6.84a.472.472,0,0,0,0-.089c-.042-.225-.225-.3-.451-.173l-11.824,6.845a1.017,1.017,0,0,0-.451.781Z" transform="translate(-142.678 -323.727)" fill="#37474f"/>
        </g>
        <g id="freepik--Character--inject-138" transform="translate(91.153 58.489)">
          <path id="Path_17642" data-name="Path 17642" d="M298.018,109.668c.524-.3.949-3.894.524-6.494s.755-3.145,1.284-2.338a4.3,4.3,0,0,1,.629,1.536,6.814,6.814,0,0,1,3.145,1.939,7.458,7.458,0,0,1,2.212,7.107c-.131.734-.875,1.714-1.242,2.778-.577,1.661,7.154,14.827,7.154,22.133,0,7.049-4.486,6.174-8.91,3.857-5.089-2.662-13.008-11.09-13.008-11.09L286,115.381c5.178.377,5.765,1.184,8.941,5.136,3.559,4.465,7.243,9.256,7.243,9.256-1.336-5.241-2.678-12.652-4.843-14.476" transform="translate(-222.332 -83.752)" fill="#ffa8a7"/>
          <path id="Path_17643" data-name="Path 17643" d="M284.1,128.59c2.987.031,4.659.241,6.5,1.352s3.38,3.669,4.554,5.005,5.875,7.678,5.875,7.678l-1.457-6.572,6.483-1.792s1.955,4.361,3.223,7.521a18.623,18.623,0,0,1,1.541,9.911c-.556,3.37-2.353,4.24-5.241,3.553s-6-2.332-13.15-8.826-7.862-7.259-7.862-7.259Z" transform="translate(-221.428 -97.123)" fill="#455a64"/>
          <path id="Path_17644" data-name="Path 17644" d="M312.15,136.005l.98,3.669a12.725,12.725,0,0,0,3.669-.566c2.322-.634,2.893-1.541,2.893-1.541l-1.431-3.307A11.141,11.141,0,0,1,312.15,136.005Z" transform="translate(-234.777 -99.822)" fill="#37474f"/>
          <path id="Path_17645" data-name="Path 17645" d="M315.415,154.038a15.117,15.117,0,0,0,3.957,7.757s-4.544-2.264-5.052-9.224Z" transform="translate(-235.811 -108.535)" fill="#37474f"/>
          <path id="Path_17646" data-name="Path 17646" d="M310.169,98.2l-12.489-6.813a.744.744,0,0,0-.776-.031c-.183.11-.922.524-1.127.639a.776.776,0,0,0-.383.639l-.818,7.4a1.829,1.829,0,0,0,.87,1.677l12.489,6.813a.791.791,0,0,0,.734.058c.2-.1,1.006-.561,1.211-.692a.791.791,0,0,0,.341-.613c.2-1.861.613-5.556.818-7.421a1.813,1.813,0,0,0-.87-1.656Z" transform="translate(-226.412 -79.359)" fill="#0761ce"/>
          <path id="Path_17647" data-name="Path 17647" d="M310.041,98.876l-12.489-6.813a.739.739,0,0,0-.8,0l.063-.042c.2-.1.938-.524,1.127-.634a.755.755,0,0,1,.776.031L311.2,98.231a1.6,1.6,0,0,1,.445.4l-1.143.634a.527.527,0,0,1,.042.058,1.608,1.608,0,0,0-.508-.445Z" transform="translate(-227.449 -79.375)" opacity="0.35"/>
          <path id="Path_17648" data-name="Path 17648" d="M295.445,102.333l12.489,6.813a.708.708,0,0,0,1.122-.587c.2-1.861.613-5.556.818-7.416a1.814,1.814,0,0,0-.87-1.672l-12.49-6.813a.708.708,0,0,0-1.122.587l-.818,7.39a1.829,1.829,0,0,0,.87,1.7Z" transform="translate(-226.41 -79.959)" opacity="0.45"/>
          <path id="Path_17649" data-name="Path 17649" d="M321.26,114.41a.833.833,0,0,1,.362.739.3.3,0,0,1-.472.246.8.8,0,0,1-.362-.734.3.3,0,0,1,.472-.252Z" transform="translate(-238.887 -90.35)" opacity="0.35"/>
          <path id="Path_17650" data-name="Path 17650" d="M297.633,102.706a.917.917,0,0,1-.4-.776l.875-7.39,11.179,6.127a.938.938,0,0,1,.4.776l-.875,7.379Z" transform="translate(-227.676 -80.92)" fill="#0761ce"/>
          <path id="Path_17651" data-name="Path 17651" d="M297.633,102.706a.917.917,0,0,1-.4-.776l.875-7.39,11.179,6.127a.938.938,0,0,1,.4.776l-.875,7.379Z" transform="translate(-227.676 -80.92)" fill="#fff" opacity="0.7"/>
          <path id="Path_17652" data-name="Path 17652" d="M308.844,108.518l-.037.309-11.174-6.122a.954.954,0,0,1-.4-.776l.875-7.39.273.152-.839,7.081a.933.933,0,0,0,.4.781Z" transform="translate(-227.678 -80.92)" fill="#0761ce"/>
          <path id="Path_17653" data-name="Path 17653" d="M323.8,106.515c-.2,1.861-.618,5.561-.823,7.421a.786.786,0,0,1-.341.613c-.2.131-1.006.587-1.211.692a.084.084,0,0,1-.047,0,.734.734,0,0,0,.435-.66c.2-1.861.613-5.556.818-7.416a1.829,1.829,0,0,0-.414-1.289l1.158-.655a1.819,1.819,0,0,1,.425,1.295Z" transform="translate(-239.17 -86.002)" opacity="0.55"/>
          <path id="Path_17654" data-name="Path 17654" d="M305.46,114.924c-.4-.372-.5-1.53-1.158-2.568-.765-1.195-2.668-.985-2.128,0s.7,1.824,1.017,4.235.854,2.621,1.824,3.983l.655-5.508Z" transform="translate(-229.984 -89.008)" fill="#ffa8a7"/>
          <path id="Path_17655" data-name="Path 17655" d="M318.368,90.323a1.284,1.284,0,0,1-.44-1.048L318,87.624c0-.409.246-.608.524-.445a1.289,1.289,0,0,1,.435,1.048l-.073,1.651C318.85,90.292,318.625,90.491,318.368,90.323Z" transform="translate(-237.525 -77.389)" fill="#e0e0e0"/>
          <path id="Path_17656" data-name="Path 17656" d="M311.19,88.79a1.075,1.075,0,0,1-.388-.634l-.461-1.766c-.11-.44,0-.844.22-.907s.524.246.629.681l.461,1.766c.11.44,0,.849-.22.907a.315.315,0,0,1-.241-.047Z" transform="translate(-233.896 -76.605)" fill="#e0e0e0"/>
          <path id="Path_17657" data-name="Path 17657" d="M329.327,132.109a.839.839,0,0,1-.231-.252l-.865-1.4a1.263,1.263,0,0,1-.131-1.127c.147-.273.44-.21.655.142l.87,1.4a1.279,1.279,0,0,1,.126,1.127.273.273,0,0,1-.425.11Z" transform="translate(-242.332 -97.393)" fill="#e0e0e0"/>
          <path id="Path_17658" data-name="Path 17658" d="M331.761,121.985l-1.048-.666a1.279,1.279,0,0,1-.435-1.048c0-.414.241-.613.524-.445l1.048.666a1.284,1.284,0,0,1,.44,1.048C332.227,121.985,332.017,122.158,331.761,121.985Z" transform="translate(-243.402 -92.924)" fill="#e0e0e0"/>
          <path id="Path_17659" data-name="Path 17659" d="M329.412,109.47a1.048,1.048,0,0,1-.393-.634c-.115-.44,0-.849.22-.907l.938-.246c.236-.063.524.241.634.681s0,.844-.22.907l-.943.246a.3.3,0,0,1-.236-.047Z" transform="translate(-242.783 -87.17)" fill="#e0e0e0"/>
          <path id="Path_17660" data-name="Path 17660" d="M324.889,97.89a.838.838,0,0,1-.231-.252,1.289,1.289,0,0,1-.126-1.122l.592-1.1c.142-.273.435-.21.655.142a1.279,1.279,0,0,1,.126,1.127l-.587,1.1a.278.278,0,0,1-.43.11Z" transform="translate(-240.635 -81.256)" fill="#e0e0e0"/>
          <path id="Path_17661" data-name="Path 17661" d="M233.6,387.669c-.194.77-.6,2.951-4.659,2.951s-6.378-1.661-7.175-3.721-.341-3.585-.267-5.383-1.258-2.94-1.572-3.91c-.435-1.431.76-3.4.76-3.4Z" transform="translate(-190.842 -214.012)" fill="#263238"/>
          <path id="Path_17662" data-name="Path 17662" d="M298.169,376.627a2.463,2.463,0,0,1-.189,1.955,8.414,8.414,0,0,1-6.368,1.96,15.513,15.513,0,0,1-6.908-2.416,9,9,0,0,0-5.309-1.316c-2,.005-3.36-.372-3.527-.87-.288-.88-.309-1.447.115-1.431Z" transform="translate(-217.41 -214.154)" fill="#263238"/>
          <path id="Path_17663" data-name="Path 17663" d="M224.07,361.232c0,3.695,7.07,4.366,6.9,1.394l2.469-8.637-8-.849Z" transform="translate(-192.861 -203.984)" fill="#ffa8a7"/>
          <path id="Path_17664" data-name="Path 17664" d="M233.763,382.168a22.823,22.823,0,0,0-1.53-2.437,19.858,19.858,0,0,1-2.662-11.121c0-.215.042-.634-.152-.791s-.435,0-.676.063h0a4.365,4.365,0,0,1-1.279.152,23.227,23.227,0,0,1-3.3-.592c-.278,0-.477.839-.582,1.756-.456-.383-.524-1.048-.938-1.462-.215-.231-.32-.252-.267-.582.031-.21.068-.4.1-.613-.346-.152-.839,1.19-1.284,2.212a6.125,6.125,0,0,0-.818,3.81,10.819,10.819,0,0,0,.854,2.1,8,8,0,0,1,.964,3.721c-.026.566-.147,1.127-.142,1.693a4.969,4.969,0,0,0,2.914,4.518c2.322,1.09,5.98,1.473,8.354.068C234.119,384.154,234.035,382.87,233.763,382.168Z" transform="translate(-191.059 -210.355)" fill="#263238"/>
          <path id="Path_17665" data-name="Path 17665" d="M277.834,351.8a5.382,5.382,0,0,0,6.2.435l1.185-12.579H276.55Z" transform="translate(-217.836 -197.57)" fill="#ffa8a7"/>
          <path id="Path_17666" data-name="Path 17666" d="M234.13,208.444c-1.572,14.675-3.721,43.773-3.721,43.773a35.962,35.962,0,0,0-3.333,11.483c-1.158,8.737-2.516,25.351-2.516,25.351s4.083,2.652,8.056,1.368c0,0,9.088-26.205,10.9-34.822,1.572-7.505,4.387-22.919,4.387-22.919l3.5,20.964a32.919,32.919,0,0,0-1.132,10.22c.173,4.041,1.761,19.481,1.761,19.481,1.316,1.247,6.373,1.41,8.061.335,0,0,2.427-25.707,2.778-29.953.466-5.582,1.331-45.6,1.331-45.6Z" transform="translate(-193.094 -134.977)" fill="#263238"/>
          <path id="Path_17667" data-name="Path 17667" d="M269.1,243.631l1.955-9.015a21.361,21.361,0,0,0,7.495-3.506s-1.143,2.877-5.933,5.084l-2,8.433,1.719,18.527Z" transform="translate(-214.289 -145.912)"/>
          <path id="Path_17668" data-name="Path 17668" d="M296.324,366.354a41.112,41.112,0,0,1-8.574-4.119,17.219,17.219,0,0,1-1.378-1.048c-.844-.844-1.357-2.689-1.719-2.9-.121-.068-.288,0-.524.162a.6.6,0,0,0-.388-.231l-.047.524a5.471,5.471,0,0,1-2.264.828c-2.034.257-2.1-.147-2.18.524a4.537,4.537,0,0,0,0,.734c-1.085-.136-1.944-.451-2.007-.859l-.168-1.342c-1.074-.052-1.074,1.866-1.347,4.036-.22,1.75-.592,3.029-.063,4.3,1.672,1.352,4.518.9,6.158,1.111,2.322.293,3.459,1.96,6.7,2.951,5.241,1.572,8.417-.592,9.35-1.525C298.473,368.335,298.133,367.015,296.324,366.354Z" transform="translate(-217.285 -206.402)" fill="#263238"/>
          <path id="Path_17669" data-name="Path 17669" d="M252.137,129.018c-4.093.624-8.779.949-11.651,1.342-3.145.425-4.256,2.987-4.256,8.386,0,7.9,4.041,21.069,4.041,21.069l-1.1,13.47c3.669,3.926,21.279,5.645,30.665-.115,0,0,.252-26.787,0-31.3-.445-7.945-5.042-13.029-7.972-13.255C261.864,128.583,259.17,127.949,252.137,129.018Z" transform="translate(-198.646 -97.031)" fill="#37474f"/>
          <path id="Path_17670" data-name="Path 17670" d="M275.916,146.57c-.068,1.85-.875,15.079-1.174,17.191s2.956,6.593,3.669,6.541,2.207-3.705,2.526-6.053c-.183-2.9-1.882-14.785-3.218-17.9Z" transform="translate(-216.967 -105.574)" fill="#0761ce"/>
          <path id="Path_17671" data-name="Path 17671" d="M278.935,146.6c-.031-.089-.068-.173-.1-.252l-1.824.22a6.3,6.3,0,0,1-.031.692h0A3.485,3.485,0,0,0,278.935,146.6Z" transform="translate(-218.039 -105.574)" opacity="0.15"/>
          <path id="Path_17672" data-name="Path 17672" d="M274.679,138.946a7.179,7.179,0,0,0,2.741-.246,10.374,10.374,0,0,1,.708,2.007,5.5,5.5,0,0,1-.692,2,2.2,2.2,0,0,1-1.824.22,7.044,7.044,0,0,1-1.572-1.494A12.572,12.572,0,0,1,274.679,138.946Z" transform="translate(-216.641 -101.936)" fill="#0761ce"/>
          <path id="Path_17673" data-name="Path 17673" d="M255.842,82.74a4.338,4.338,0,0,0-3.066,2c-.718,1.473-.461,5.026.493,8.91a35.577,35.577,0,0,0,2.416,7.28A2.966,2.966,0,0,0,257.4,102.3l-.11-4.6-.168-3.2s2.055-2.809,2.285-5.11a8.381,8.381,0,0,0-.335-4.193Z" transform="translate(-206.326 -75.303)" fill="#263238"/>
          <path id="Path_17674" data-name="Path 17674" d="M255.145,81.48,252,80.033a1.855,1.855,0,0,1,2.4-.985,1.793,1.793,0,0,1,.749,2.432Z" transform="translate(-206.152 -73.482)" fill="#263238"/>
          <path id="Path_17675" data-name="Path 17675" d="M265.94,83.4a8.585,8.585,0,1,0,8.553-8.611A8.585,8.585,0,0,0,265.94,83.4Z" transform="translate(-212.785 -71.52)" fill="#263238"/>
          <path id="Path_17676" data-name="Path 17676" d="M256.1,93.759c-.77.671-1.4-1.048-2.049-1.735a2.285,2.285,0,0,0-3.815.629c-1.048,2.2.97,5.351,2.552,6.085a2.48,2.48,0,0,0,3.36-1.263l.246,9.665c2.442,4.4,7.448,2.94,8.213,4.953.456-1.787,2.809-2.621,1.127-4.575v-3.145a18.2,18.2,0,0,0,3.868.189c2.1-.335,3.213-1.923,3.847-4.193,1.017-3.669,1.426-9.843,0-16.971-2.358-1.829-10.55-1.525-15.508,1.614C258.293,91.317,256.878,93.093,256.1,93.759Z" transform="translate(-205.176 -75.08)" fill="#ffa8a7"/>
          <path id="Path_17677" data-name="Path 17677" d="M284.134,95.225l-.466-.042a13.668,13.668,0,0,0-4.659.33c-1.483.524-2.007,1.048-2.83,1.09s-1.436-.466-3.024-.865a15.261,15.261,0,0,0-4.974.037l-.5.079a.833.833,0,0,0-.556.86,1.856,1.856,0,0,0,.482.964,1.259,1.259,0,0,1,.162.388,16.772,16.772,0,0,0,.613,2.678,3.322,3.322,0,0,0,.634.949,3.194,3.194,0,0,0,.325.273l.189.121a2.75,2.75,0,0,0,.561.252l.094.026.147.042.157.031a3.439,3.439,0,0,0,.493.058h.477a3.526,3.526,0,0,0,3.4-2.138c.508-1.043.372-2.49,1.316-2.521h.173c.7.136.613,1.467,1.048,2.406a3.669,3.669,0,0,0,.671,1.022,1.446,1.446,0,0,0,.157.152l.084.073.089.073.084.058.089.058.068.042.047.031a2.809,2.809,0,0,0,.812.3h.079a4.245,4.245,0,0,0,1,.063,2.993,2.993,0,0,0,2.883-1.986,18.527,18.527,0,0,0,.582-2.725.834.834,0,0,1,.173-.362,1.981,1.981,0,0,0,.43-1.012A.763.763,0,0,0,284.134,95.225Zm-9.8,4.193a3.213,3.213,0,0,1-.708,1.452h0a2.914,2.914,0,0,1-2.222.9,2.39,2.39,0,0,1-2.144-.959l-.068-.1-.063-.1a.85.85,0,0,1-.052-.094l-.047-.084-.031-.068a.319.319,0,0,1-.026-.063l-.047-.1h0c-.042-.1-.073-.2-.1-.294h0l-.052-.178c-.026-.1-.047-.2-.068-.283a.274.274,0,0,1,0-.058v-.052c-.157-.708-.346-2.1,0-2.437a3.9,3.9,0,0,1,2.8-.6h.162a5.182,5.182,0,0,1,.7.094l.267.058a4.948,4.948,0,0,1,.681.2l.2.079.225.1h.047l.079.047a1.3,1.3,0,0,1,.456.356,3.646,3.646,0,0,1,.016,2.191Zm8.873-.645a3.237,3.237,0,0,1-1.436,2.348,2.62,2.62,0,0,1-1.132.293,2.374,2.374,0,0,1-2.275-.985h0a.433.433,0,0,1-.042-.063l-.047-.073v-.042l-.063-.11a.992.992,0,0,1-.058-.131l-.031-.063a.334.334,0,0,1,0-.037.156.156,0,0,1,0-.052v-.042a3.871,3.871,0,0,1-.147-.524,3.537,3.537,0,0,1,.042-2.165,4.274,4.274,0,0,1,2.489-1.153c.252-.042.482-.068.7-.084h.718a3.242,3.242,0,0,1,.346.047h.225l.1.031.183.142h.031a1.383,1.383,0,0,1,.372.231c.351.293.168,1.719.021,2.437Z" transform="translate(-213.35 -81.199)" fill="#263238"/>
          <path id="Path_17678" data-name="Path 17678" d="M278.238,71.8a.393.393,0,0,0-.309-.241.524.524,0,0,0-.288.126,13.528,13.528,0,0,1-1.866,1.295,6.813,6.813,0,0,0,.031-2.563c-.094-.524-.241-1.724-.881-1.855-.388-.073-.718.246-1.006.524-2.579,2.411-5.943,1.295-9.051,1.394-2.621.084-5.734,1.137-6.908,3.669-.524,1.153-.629,2.369.435,3.145a7.285,7.285,0,0,0,3.145,1.179c5.178.9,12.579,3.029,16.42-1.792a3.837,3.837,0,0,0,.8-2.542,5.241,5.241,0,0,0-.524-2.311Z" transform="translate(-208.807 -68.551)" fill="#263238"/>
          <path id="Path_17679" data-name="Path 17679" d="M272.153,120.756a35.869,35.869,0,0,1-6.357-1.8,5.409,5.409,0,0,1-2.285-2.243,7.479,7.479,0,0,0,1.3,2.652c1.211,1.536,7.337,2.652,7.337,2.652Z" transform="translate(-211.629 -91.469)" fill="#f28f8f"/>
          <path id="Path_17680" data-name="Path 17680" d="M276.207,100.58a.943.943,0,1,1-.943-.98.959.959,0,0,1,.943.98Z" transform="translate(-216.775 -83.326)" fill="#263238"/>
          <path id="Path_17681" data-name="Path 17681" d="M275.237,94.095l-2.1.943a1.211,1.211,0,0,1,.6-1.572,1.127,1.127,0,0,1,1.5.629Z" transform="translate(-216.166 -80.363)" fill="#263238"/>
          <path id="Path_17682" data-name="Path 17682" d="M278.5,113.48l3.008,1.122a1.572,1.572,0,0,1-2.039,1,1.677,1.677,0,0,1-.97-2.123Z" transform="translate(-218.719 -89.932)" fill="#b16668"/>
          <path id="Path_17683" data-name="Path 17683" d="M279.5,116.316a1.52,1.52,0,0,0,.833.063,1.462,1.462,0,0,0-1.457-1.4,1.337,1.337,0,0,0-.409.068A1.63,1.63,0,0,0,279.5,116.316Z" transform="translate(-218.748 -90.646)" fill="#f28f8f"/>
          <path id="Path_17684" data-name="Path 17684" d="M292.37,94.45l-2.18-.8a1.111,1.111,0,0,1,1.473-.718,1.221,1.221,0,0,1,.708,1.52Z" transform="translate(-224.326 -80.115)" fill="#263238"/>
          <path id="Path_17685" data-name="Path 17685" d="M291.077,99.98a.943.943,0,1,1-.938-.98A.959.959,0,0,1,291.077,99.98Z" transform="translate(-223.852 -83.041)" fill="#263238"/>
          <path id="Path_17686" data-name="Path 17686" d="M283.88,100.349l.309,5.383,2.961-1.048L284.2,100.26a.713.713,0,0,0-.32.089Z" transform="translate(-221.324 -83.641)" fill="#f28f8f"/>
          <path id="Path_17687" data-name="Path 17687" d="M262.132,96.55l-6.9,1.572a3.008,3.008,0,0,1,1.572,1.048l5.32-1.006Z" transform="translate(-207.689 -81.875)" fill="#263238"/>
          <path id="Path_17688" data-name="Path 17688" d="M259.94,124.55c-.6.047-.865.136-1.352,1.111-.556,1.106-1.048,2.1-1.048,2.1a6.677,6.677,0,0,0,2.023,4.3c2,2.028,6.441,3.407,6.441,3.407s.367-2.054.65-2.9c.624-1.845,1.572-.377,1.572-.377a2.154,2.154,0,0,0-.524-1.1c-.4-.351-2.94-.571-4.963-1.845a7.385,7.385,0,0,1-2.783-3.527Z" transform="translate(-208.789 -95.201)" fill="#455a64"/>
          <path id="Path_17689" data-name="Path 17689" d="M277.909,132.931a2.1,2.1,0,0,1,.524-1.63,3.962,3.962,0,0,0,.571-2.469c0-.854,0-2.773,0-2.773a1.683,1.683,0,0,1,1.63,1.279,10.534,10.534,0,0,1,.86,5.393,4.577,4.577,0,0,1-1.274,2.846s-.524-1.808-.86-2.621S278.407,131.883,277.909,132.931Z" transform="translate(-218.477 -95.92)" fill="#455a64"/>
          <path id="Path_17690" data-name="Path 17690" d="M206.785,132a9.051,9.051,0,0,0-8.181,6.389c-1.19,3.459-4.119,12.306-5.9,17.772-3.108-1.5-10.639-5.141-12.138-6.467a27.777,27.777,0,0,1-3.836-4.114,18.5,18.5,0,0,1-1.834-2.767,17.866,17.866,0,0,1-1.478-3.784c-.4-1.158-1.887.063-1.866,2.133a10.546,10.546,0,0,0,.66,3.312c-.749-.073-2.925-.294-3.26-.32-1.169-.094-4.764-.031-4.408,1.871.084.425.372.818.33,1.253a2.725,2.725,0,0,1-.173.592,2.18,2.18,0,0,0,.524,2.165,1.745,1.745,0,0,1,.524.886,2.714,2.714,0,0,0,.341,1.048,4.313,4.313,0,0,0,.676.592,3.469,3.469,0,0,1,.666.954,4.192,4.192,0,0,0,.639.98c.639.666,1.672.493,2.505.482,1.116,0,2.526-.278,3.732-.157,2.206.524,10.257,7.62,17.149,11.368,2.358,1.284,4.287,1.923,5.765,1.132h0c1.263-.5,1.882-1.882,2.689-3.857,1.829-4.633,6.562-16.986,6.562-16.986C208.274,141.361,208.132,134.51,206.785,132Z" transform="translate(-164.521 -98.746)" fill="#ffa8a7"/>
          <path id="Path_17691" data-name="Path 17691" d="M174.947,157.05c1.111,0,1.614.556,2.07,2.013.267.865,1.048,2.369,2.2,2.689a2.306,2.306,0,0,1-1.389-.121c-.592-.3-.729-.314-.886.026a1.745,1.745,0,0,1-.524.587,1.169,1.169,0,0,1,.55,1.289c-.2.9-2.207,1.572-4.135,1.279,0,0,2.951-.058,3.286-1.116s-1.436-1.651-2.589-1.572c0,0,2.788-.246,2.9-1.226s-1.169-1.263-2.82-1.143c0,0,2.264-.33,2.39-1.174C176.142,157.548,175.325,157.244,174.947,157.05Z" transform="translate(-168.475 -110.668)" fill="#f28f8f"/>
          <path id="Path_17692" data-name="Path 17692" d="M222.121,131.8a9.617,9.617,0,0,0-6.111,1.625c-1.8,1.305-2.621,2.06-4.984,9.261s-4.3,13-4.3,13l-8.616-4.015a17.3,17.3,0,0,1-3.522,6.923s5.681,4.486,8.6,6.326,6.226,3.5,7.767,2.982,2.1-.875,4.161-6.116,6.321-16.074,6.321-16.074S223.919,138.107,222.121,131.8Z" transform="translate(-178.83 -98.646)" fill="#455a64"/>
          <path id="Path_17693" data-name="Path 17693" d="M198.472,169.712l-4.387-2.322s-1.226,4.193-3.705,6.541l4.607,3.464A10.605,10.605,0,0,0,198.472,169.712Z" transform="translate(-176.828 -115.588)" fill="#37474f"/>
          <path id="Path_17694" data-name="Path 17694" d="M217.75,176.071a11.916,11.916,0,0,1,4.575,4.23,8.879,8.879,0,0,0-4.093-5.671Z" transform="translate(-189.854 -119.033)" fill="#37474f"/>
        </g>
      </g>
    </g>
  </g>
</svg>
