<svg xmlns="http://www.w3.org/2000/svg" width="256" height="232" viewBox="0 0 256 232">
  <g id="Group_9459" data-name="Group 9459" transform="translate(-17528.049 -15215.249)">
    <g id="Background_Complete" data-name="Background Complete" transform="translate(17542.533 15214.248)">
      <g id="Group_12" data-name="Group 12">
        <g id="Group_10" data-name="Group 10" transform="translate(0 30.352)" opacity="0.2">
          <g id="Group_3" data-name="Group 3" transform="translate(117.773)">
            <rect id="Rectangle_8" data-name="Rectangle 8" width="47.126" height="135.054" transform="translate(48.214 136.887) rotate(180)" fill="#fafafa"/>
            <rect id="Rectangle_9" data-name="Rectangle 9" width="49.301" height="6.627" transform="translate(49.301 6.627) rotate(180)" fill="#f0f0f0"/>
            <g id="Group_2" data-name="Group 2" transform="translate(0 7.362)">
              <rect id="Rectangle_10" data-name="Rectangle 10" width="49.301" height="3.314" transform="translate(49.301 3.314) rotate(180)" fill="#f0f0f0"/>
              <rect id="Rectangle_11" data-name="Rectangle 11" width="49.301" height="3.314" transform="translate(49.301 8.232) rotate(180)" fill="#f0f0f0"/>
              <rect id="Rectangle_12" data-name="Rectangle 12" width="49.301" height="3.314" transform="translate(49.301 13.15) rotate(180)" fill="#f0f0f0"/>
              <rect id="Rectangle_13" data-name="Rectangle 13" width="49.301" height="3.314" transform="translate(49.301 18.068) rotate(180)" fill="#f0f0f0"/>
              <rect id="Rectangle_14" data-name="Rectangle 14" width="49.301" height="3.314" transform="translate(49.301 22.986) rotate(180)" fill="#f0f0f0"/>
              <rect id="Rectangle_15" data-name="Rectangle 15" width="49.301" height="3.314" transform="translate(49.301 27.904) rotate(180)" fill="#f0f0f0"/>
              <rect id="Rectangle_16" data-name="Rectangle 16" width="49.301" height="3.314" transform="translate(49.301 32.822) rotate(180)" fill="#f0f0f0"/>
              <rect id="Rectangle_17" data-name="Rectangle 17" width="49.301" height="3.314" transform="translate(49.301 37.74) rotate(180)" fill="#f0f0f0"/>
              <rect id="Rectangle_18" data-name="Rectangle 18" width="49.301" height="3.314" transform="translate(49.301 42.658) rotate(180)" fill="#f0f0f0"/>
              <rect id="Rectangle_19" data-name="Rectangle 19" width="49.301" height="3.314" transform="translate(49.301 47.576) rotate(180)" fill="#f0f0f0"/>
              <rect id="Rectangle_20" data-name="Rectangle 20" width="49.301" height="3.314" transform="translate(49.301 52.494) rotate(180)" fill="#f0f0f0"/>
              <rect id="Rectangle_21" data-name="Rectangle 21" width="49.301" height="3.314" transform="translate(49.301 57.412) rotate(180)" fill="#f0f0f0"/>
              <rect id="Rectangle_22" data-name="Rectangle 22" width="49.301" height="3.314" transform="translate(49.301 62.33) rotate(180)" fill="#f0f0f0"/>
              <rect id="Rectangle_23" data-name="Rectangle 23" width="49.301" height="3.314" transform="translate(49.301 67.248) rotate(180)" fill="#f0f0f0"/>
              <rect id="Rectangle_24" data-name="Rectangle 24" width="49.301" height="3.314" transform="translate(49.301 72.166) rotate(180)" fill="#f0f0f0"/>
              <rect id="Rectangle_25" data-name="Rectangle 25" width="49.301" height="3.314" transform="translate(49.301 77.084) rotate(180)" fill="#f0f0f0"/>
              <rect id="Rectangle_26" data-name="Rectangle 26" width="49.301" height="3.314" transform="translate(49.301 82.002) rotate(180)" fill="#f0f0f0"/>
              <rect id="Rectangle_27" data-name="Rectangle 27" width="49.301" height="3.314" transform="translate(49.301 86.92) rotate(180)" fill="#f0f0f0"/>
              <rect id="Rectangle_28" data-name="Rectangle 28" width="49.301" height="3.314" transform="translate(49.301 91.838) rotate(180)" fill="#f0f0f0"/>
              <rect id="Rectangle_29" data-name="Rectangle 29" width="49.301" height="3.314" transform="translate(49.301 96.756) rotate(180)" fill="#f0f0f0"/>
              <rect id="Rectangle_30" data-name="Rectangle 30" width="49.301" height="3.314" transform="translate(49.301 101.674) rotate(180)" fill="#f0f0f0"/>
              <rect id="Rectangle_31" data-name="Rectangle 31" width="49.301" height="3.314" transform="translate(49.301 106.592) rotate(180)" fill="#f0f0f0"/>
              <rect id="Rectangle_32" data-name="Rectangle 32" width="49.301" height="3.314" transform="translate(49.301 111.51) rotate(180)" fill="#f0f0f0"/>
              <rect id="Rectangle_33" data-name="Rectangle 33" width="49.301" height="3.314" transform="translate(49.301 116.428) rotate(180)" fill="#f0f0f0"/>
              <rect id="Rectangle_34" data-name="Rectangle 34" width="49.301" height="3.314" transform="translate(49.301 121.346) rotate(180)" fill="#f0f0f0"/>
              <rect id="Rectangle_35" data-name="Rectangle 35" width="49.301" height="3.314" transform="translate(49.301 126.264) rotate(180)" fill="#f0f0f0"/>
              <rect id="Rectangle_36" data-name="Rectangle 36" width="49.301" height="3.314" transform="translate(49.301 131.182) rotate(180)" fill="#f0f0f0"/>
            </g>
          </g>
          <g id="Group_5" data-name="Group 5" transform="translate(176.659)">
            <rect id="Rectangle_37" data-name="Rectangle 37" width="47.126" height="135.054" transform="translate(48.214 136.887) rotate(180)" fill="#fafafa"/>
            <rect id="Rectangle_38" data-name="Rectangle 38" width="49.301" height="6.627" transform="translate(49.301 6.627) rotate(180)" fill="#f0f0f0"/>
            <g id="Group_4" data-name="Group 4" transform="translate(0 7.362)">
              <rect id="Rectangle_39" data-name="Rectangle 39" width="49.301" height="3.314" transform="translate(49.301 3.314) rotate(180)" fill="#f0f0f0"/>
              <rect id="Rectangle_40" data-name="Rectangle 40" width="49.301" height="3.314" transform="translate(49.301 8.232) rotate(180)" fill="#f0f0f0"/>
              <rect id="Rectangle_41" data-name="Rectangle 41" width="49.301" height="3.314" transform="translate(49.301 13.15) rotate(180)" fill="#f0f0f0"/>
              <rect id="Rectangle_42" data-name="Rectangle 42" width="49.301" height="3.314" transform="translate(49.301 18.068) rotate(180)" fill="#f0f0f0"/>
              <rect id="Rectangle_43" data-name="Rectangle 43" width="49.301" height="3.314" transform="translate(49.301 22.986) rotate(180)" fill="#f0f0f0"/>
              <rect id="Rectangle_44" data-name="Rectangle 44" width="49.301" height="3.314" transform="translate(49.301 27.904) rotate(180)" fill="#f0f0f0"/>
              <rect id="Rectangle_45" data-name="Rectangle 45" width="49.301" height="3.314" transform="translate(49.301 32.822) rotate(180)" fill="#f0f0f0"/>
              <rect id="Rectangle_46" data-name="Rectangle 46" width="49.301" height="3.314" transform="translate(49.301 37.74) rotate(180)" fill="#f0f0f0"/>
              <rect id="Rectangle_47" data-name="Rectangle 47" width="49.301" height="3.314" transform="translate(49.301 42.658) rotate(180)" fill="#f0f0f0"/>
              <rect id="Rectangle_48" data-name="Rectangle 48" width="49.301" height="3.314" transform="translate(49.301 47.576) rotate(180)" fill="#f0f0f0"/>
              <rect id="Rectangle_49" data-name="Rectangle 49" width="49.301" height="3.314" transform="translate(49.301 52.494) rotate(180)" fill="#f0f0f0"/>
              <rect id="Rectangle_50" data-name="Rectangle 50" width="49.301" height="3.314" transform="translate(49.301 57.412) rotate(180)" fill="#f0f0f0"/>
              <rect id="Rectangle_51" data-name="Rectangle 51" width="49.301" height="3.314" transform="translate(49.301 62.33) rotate(180)" fill="#f0f0f0"/>
              <rect id="Rectangle_52" data-name="Rectangle 52" width="49.301" height="3.314" transform="translate(49.301 67.248) rotate(180)" fill="#f0f0f0"/>
              <rect id="Rectangle_53" data-name="Rectangle 53" width="49.301" height="3.314" transform="translate(49.301 72.166) rotate(180)" fill="#f0f0f0"/>
              <rect id="Rectangle_54" data-name="Rectangle 54" width="49.301" height="3.314" transform="translate(49.301 77.084) rotate(180)" fill="#f0f0f0"/>
              <rect id="Rectangle_55" data-name="Rectangle 55" width="49.301" height="3.314" transform="translate(49.301 82.002) rotate(180)" fill="#f0f0f0"/>
              <rect id="Rectangle_56" data-name="Rectangle 56" width="49.301" height="3.314" transform="translate(49.301 86.92) rotate(180)" fill="#f0f0f0"/>
              <rect id="Rectangle_57" data-name="Rectangle 57" width="49.301" height="3.314" transform="translate(49.301 91.838) rotate(180)" fill="#f0f0f0"/>
              <rect id="Rectangle_58" data-name="Rectangle 58" width="49.301" height="3.314" transform="translate(49.301 96.756) rotate(180)" fill="#f0f0f0"/>
              <rect id="Rectangle_59" data-name="Rectangle 59" width="49.301" height="3.314" transform="translate(49.301 101.674) rotate(180)" fill="#f0f0f0"/>
              <rect id="Rectangle_60" data-name="Rectangle 60" width="49.301" height="3.314" transform="translate(49.301 106.592) rotate(180)" fill="#f0f0f0"/>
              <rect id="Rectangle_61" data-name="Rectangle 61" width="49.301" height="3.314" transform="translate(49.301 111.51) rotate(180)" fill="#f0f0f0"/>
              <rect id="Rectangle_62" data-name="Rectangle 62" width="49.301" height="3.314" transform="translate(49.301 116.428) rotate(180)" fill="#f0f0f0"/>
              <rect id="Rectangle_63" data-name="Rectangle 63" width="49.301" height="3.314" transform="translate(49.301 121.346) rotate(180)" fill="#f0f0f0"/>
              <rect id="Rectangle_64" data-name="Rectangle 64" width="49.301" height="3.314" transform="translate(49.301 126.264) rotate(180)" fill="#f0f0f0"/>
              <rect id="Rectangle_65" data-name="Rectangle 65" width="49.301" height="3.314" transform="translate(49.301 131.182) rotate(180)" fill="#f0f0f0"/>
            </g>
          </g>
          <g id="Group_7" data-name="Group 7" transform="translate(58.886 0.828)">
            <rect id="Rectangle_66" data-name="Rectangle 66" width="47.126" height="135.054" transform="translate(48.214 136.887) rotate(180)" fill="#fafafa"/>
            <rect id="Rectangle_67" data-name="Rectangle 67" width="49.301" height="6.627" transform="translate(49.301 6.627) rotate(180)" fill="#f0f0f0"/>
            <g id="Group_6" data-name="Group 6" transform="translate(0 7.362)">
              <rect id="Rectangle_68" data-name="Rectangle 68" width="49.301" height="0.61" transform="translate(49.301 0.61) rotate(180)" fill="#f0f0f0"/>
              <rect id="Rectangle_69" data-name="Rectangle 69" width="49.301" height="0.61" transform="translate(49.301 1.993) rotate(180)" fill="#f0f0f0"/>
              <rect id="Rectangle_70" data-name="Rectangle 70" width="49.301" height="0.61" transform="translate(49.301 3.377) rotate(180)" fill="#f0f0f0"/>
              <rect id="Rectangle_71" data-name="Rectangle 71" width="49.301" height="0.61" transform="translate(49.301 4.761) rotate(180)" fill="#f0f0f0"/>
              <rect id="Rectangle_72" data-name="Rectangle 72" width="49.301" height="0.61" transform="translate(49.301 6.144) rotate(180)" fill="#f0f0f0"/>
              <rect id="Rectangle_73" data-name="Rectangle 73" width="49.301" height="0.61" transform="translate(49.301 7.528) rotate(180)" fill="#f0f0f0"/>
              <rect id="Rectangle_74" data-name="Rectangle 74" width="49.301" height="0.61" transform="translate(49.301 8.912) rotate(180)" fill="#f0f0f0"/>
              <rect id="Rectangle_75" data-name="Rectangle 75" width="49.301" height="0.61" transform="translate(49.301 10.296) rotate(180)" fill="#f0f0f0"/>
              <rect id="Rectangle_76" data-name="Rectangle 76" width="49.301" height="0.61" transform="translate(49.301 11.679) rotate(180)" fill="#f0f0f0"/>
              <rect id="Rectangle_77" data-name="Rectangle 77" width="49.301" height="0.61" transform="translate(49.301 13.063) rotate(180)" fill="#f0f0f0"/>
              <rect id="Rectangle_78" data-name="Rectangle 78" width="49.301" height="0.61" transform="translate(49.301 14.447) rotate(180)" fill="#f0f0f0"/>
              <rect id="Rectangle_79" data-name="Rectangle 79" width="49.301" height="0.61" transform="translate(49.301 15.83) rotate(180)" fill="#f0f0f0"/>
              <rect id="Rectangle_80" data-name="Rectangle 80" width="49.301" height="0.61" transform="translate(49.301 17.214) rotate(180)" fill="#f0f0f0"/>
              <rect id="Rectangle_81" data-name="Rectangle 81" width="49.301" height="0.61" transform="translate(49.301 18.598) rotate(180)" fill="#f0f0f0"/>
              <rect id="Rectangle_82" data-name="Rectangle 82" width="49.301" height="0.61" transform="translate(49.301 19.982) rotate(180)" fill="#f0f0f0"/>
              <rect id="Rectangle_83" data-name="Rectangle 83" width="49.301" height="0.61" transform="translate(49.301 21.365) rotate(180)" fill="#f0f0f0"/>
              <rect id="Rectangle_84" data-name="Rectangle 84" width="49.301" height="0.61" transform="translate(49.301 22.749) rotate(180)" fill="#f0f0f0"/>
              <rect id="Rectangle_85" data-name="Rectangle 85" width="49.301" height="0.61" transform="translate(49.301 24.133) rotate(180)" fill="#f0f0f0"/>
            </g>
          </g>
          <g id="Group_9" data-name="Group 9" transform="translate(0 0.828)">
            <rect id="Rectangle_86" data-name="Rectangle 86" width="47.126" height="135.054" transform="translate(48.214 136.887) rotate(180)" fill="#fafafa"/>
            <rect id="Rectangle_87" data-name="Rectangle 87" width="49.302" height="6.627" transform="translate(49.302 6.627) rotate(180)" fill="#f0f0f0"/>
            <g id="Group_8" data-name="Group 8" transform="translate(0 7.362)">
              <rect id="Rectangle_88" data-name="Rectangle 88" width="49.302" height="0.61" transform="translate(49.302 0.61) rotate(180)" fill="#f0f0f0"/>
              <rect id="Rectangle_89" data-name="Rectangle 89" width="49.302" height="0.61" transform="translate(49.302 1.993) rotate(180)" fill="#f0f0f0"/>
              <rect id="Rectangle_90" data-name="Rectangle 90" width="49.302" height="0.61" transform="translate(49.302 3.377) rotate(180)" fill="#f0f0f0"/>
              <rect id="Rectangle_91" data-name="Rectangle 91" width="49.302" height="0.61" transform="translate(49.302 4.761) rotate(180)" fill="#f0f0f0"/>
              <rect id="Rectangle_92" data-name="Rectangle 92" width="49.302" height="0.61" transform="translate(49.302 6.144) rotate(180)" fill="#f0f0f0"/>
              <rect id="Rectangle_93" data-name="Rectangle 93" width="49.302" height="0.61" transform="translate(49.302 7.528) rotate(180)" fill="#f0f0f0"/>
              <rect id="Rectangle_94" data-name="Rectangle 94" width="49.302" height="0.61" transform="translate(49.302 8.912) rotate(180)" fill="#f0f0f0"/>
              <rect id="Rectangle_95" data-name="Rectangle 95" width="49.302" height="0.61" transform="translate(49.302 10.296) rotate(180)" fill="#f0f0f0"/>
              <rect id="Rectangle_96" data-name="Rectangle 96" width="49.302" height="0.61" transform="translate(49.302 11.679) rotate(180)" fill="#f0f0f0"/>
              <rect id="Rectangle_97" data-name="Rectangle 97" width="49.302" height="0.61" transform="translate(49.302 13.063) rotate(180)" fill="#f0f0f0"/>
              <rect id="Rectangle_98" data-name="Rectangle 98" width="49.302" height="0.61" transform="translate(49.302 14.447) rotate(180)" fill="#f0f0f0"/>
              <rect id="Rectangle_99" data-name="Rectangle 99" width="49.302" height="0.61" transform="translate(49.302 15.83) rotate(180)" fill="#f0f0f0"/>
              <rect id="Rectangle_100" data-name="Rectangle 100" width="49.302" height="0.61" transform="translate(49.302 17.214) rotate(180)" fill="#f0f0f0"/>
              <rect id="Rectangle_101" data-name="Rectangle 101" width="49.302" height="0.61" transform="translate(49.302 18.598) rotate(180)" fill="#f0f0f0"/>
              <rect id="Rectangle_102" data-name="Rectangle 102" width="49.302" height="0.61" transform="translate(49.302 19.982) rotate(180)" fill="#f0f0f0"/>
              <rect id="Rectangle_103" data-name="Rectangle 103" width="49.302" height="0.61" transform="translate(49.302 21.365) rotate(180)" fill="#f0f0f0"/>
              <rect id="Rectangle_104" data-name="Rectangle 104" width="49.302" height="0.61" transform="translate(49.302 22.749) rotate(180)" fill="#f0f0f0"/>
              <rect id="Rectangle_105" data-name="Rectangle 105" width="49.302" height="0.61" transform="translate(49.302 24.133) rotate(180)" fill="#f0f0f0"/>
            </g>
          </g>
        </g>
        <g id="Group_11" data-name="Group 11" transform="translate(100.931 1)">
          <circle id="Ellipse_1" data-name="Ellipse 1" cx="10.016" cy="10.016" r="10.016" transform="translate(0 19.497) rotate(-76.717)" fill="#f0f0f0"/>
          <circle id="Ellipse_2" data-name="Ellipse 2" cx="8.516" cy="8.516" r="8.516" transform="translate(2.279 19.092) rotate(-80.783)" fill="#fafafa"/>
          <path id="Path_3" data-name="Path 3" d="M246.549,84.489v5.953L242.6,88.21" transform="translate(-234.901 -78.281)" fill="none" stroke="#e0e0e0" stroke-linecap="round" stroke-linejoin="round" stroke-width="2"/>
        </g>
      </g>
    </g>
    <g id="Shadow" transform="translate(17528.049 15432.295)">
      <ellipse id="_Path_" data-name="&lt;Path&gt;" cx="128" cy="7.477" rx="128" ry="7.477" transform="translate(0 0)" fill="#f5f5f5"/>
    </g>
    <g id="Cubicle_2" data-name="Cubicle 2" transform="translate(17684.15 15284.142)">
      <g id="Group_26" data-name="Group 26">
        <g id="Group_19" data-name="Group 19" transform="translate(1.602)">
          <rect id="Rectangle_106" data-name="Rectangle 106" width="45.171" height="63.127" fill="#e9e9e9"/>
          <g id="Group_17" data-name="Group 17" transform="translate(45.171)">
            <path id="Path_27" data-name="Path 27" d="M394.074,243.665H363.428V180.539l30.646,11.017Z" transform="translate(-363.428 -180.539)" fill="#444"/>
            <path id="Path_28" data-name="Path 28" d="M394.074,243.665H363.428V180.539l30.646,11.017Z" transform="translate(-363.428 -180.539)" fill="#fff" opacity="0.2"/>
          </g>
          <g id="Group_18" data-name="Group 18" transform="translate(0 54.629)">
            <rect id="Rectangle_107" data-name="Rectangle 107" width="75.817" height="8.498" fill="#263238"/>
            <rect id="Rectangle_108" data-name="Rectangle 108" width="75.817" height="8.498" fill="#fff" opacity="0.3"/>
          </g>
        </g>
        <g id="Group_20" data-name="Group 20" transform="translate(28.393 34.611)">
          <path id="Path_29" data-name="Path 29" d="M352.415,243.143l8.724-10.187,14.735,12.655-12.763,9.7-18.411-.239-9.108-14.443Z" transform="translate(-335.591 -232.956)" fill="#407bff"/>
          <path id="Path_30" data-name="Path 30" d="M352.415,247.092l10.7,12.171-18.411-.239L335.6,244.581Z" transform="translate(-335.591 -236.905)" fill="#fff"/>
          <path id="Path_31" data-name="Path 31" d="M361.07,243.143l8.724-10.187,14.735,12.655-12.763,9.7Z" transform="translate(-344.247 -232.956)" fill="#fff" opacity="0.8"/>
        </g>
        <g id="Group_24" data-name="Group 24" transform="translate(1.602)">
          <path id="Path_32" data-name="Path 32" d="M325.662,243.665H295.017V180.539l30.646,11.017Z" transform="translate(-295.017 -180.539)" fill="#999"/>
          <path id="Path_33" data-name="Path 33" d="M325.662,243.665H295.017V180.539l30.646,11.017Z" transform="translate(-295.017 -180.539)" fill="#fff" opacity="0.6"/>
          <path id="Path_34" data-name="Path 34" d="M309.432,199.541l13.281,28.892-24.206,7.022Z" transform="translate(-296.203 -186.994)" fill="#fff" opacity="0.5"/>
        </g>
        <g id="Group_25" data-name="Group 25" transform="translate(0 61.659)">
          <path id="Path_44" data-name="Path 44" d="M371.237,273.92v94.917H368.18V277.043H340.864v91.794h-3.057V277.043H326.338v91.794H323.28V277.043H295.654v91.794H292.59V273.92Z" transform="translate(-292.59 -273.92)" fill="#263238"/>
          <path id="Path_45" data-name="Path 45" d="M324.839,273.92v94.917H323.28V277.043H294.2v91.794h-1.6V273.92Z" transform="translate(-292.59 -273.92)" fill="#fff" opacity="0.3"/>
          <rect id="Rectangle_109" data-name="Rectangle 109" width="1.557" height="91.794" transform="translate(45.217 3.123)" fill="#fff" opacity="0.3"/>
          <rect id="Rectangle_110" data-name="Rectangle 110" width="1.557" height="91.794" transform="translate(75.562 3.123)" fill="#fff" opacity="0.3"/>
        </g>
      </g>
    </g>
    <g id="Cubicle_1" data-name="Cubicle 1" transform="translate(17552.137 15284.142)">
      <g id="Group_36" data-name="Group 36">
        <g id="Group_29" data-name="Group 29" transform="translate(1.228)">
          <rect id="Rectangle_111" data-name="Rectangle 111" width="45.171" height="63.127" transform="translate(75.817 63.127) rotate(180)" fill="#e9e9e9"/>
          <g id="Group_27" data-name="Group 27">
            <path id="Path_46" data-name="Path 46" d="M94.45,243.665H125.1V180.539L94.45,191.556Z" transform="translate(-94.45 -180.539)" fill="#696969"/>
            <path id="Path_47" data-name="Path 47" d="M94.45,243.665H125.1V180.539L94.45,191.556Z" transform="translate(-94.45 -180.539)" fill="#fff" opacity="0.2"/>
          </g>
          <g id="Group_28" data-name="Group 28" transform="translate(0 54.629)">
            <rect id="Rectangle_112" data-name="Rectangle 112" width="75.817" height="8.498" transform="translate(75.817 8.498) rotate(180)" fill="#263238"/>
            <rect id="Rectangle_113" data-name="Rectangle 113" width="75.817" height="8.498" transform="translate(75.817 8.498) rotate(180)" fill="#fff" opacity="0.3"/>
          </g>
        </g>
        <g id="Group_30" data-name="Group 30" transform="translate(20.215 44.298)">
          <path id="Path_48" data-name="Path 48" d="M134.734,251.8l17.961,4.554-11.459,8.256-18.03-4.841Z" transform="translate(-123.205 -249.045)" fill="#407bff"/>
          <path id="Path_49" data-name="Path 49" d="M134.734,251.8l17.961,4.554-11.459,8.256-18.03-4.841Z" transform="translate(-123.205 -249.045)" fill="#fff" opacity="0.8"/>
          <path id="Path_50" data-name="Path 50" d="M123.2,258.352l11.529-7.969,17.248-2.757-13.9,9.689Z" transform="translate(-123.205 -247.626)" fill="#fff"/>
        </g>
        <g id="Group_34" data-name="Group 34" transform="translate(46.399)">
          <path id="Path_51" data-name="Path 51" d="M162.861,243.665h30.646V180.539l-30.646,11.017Z" transform="translate(-162.861 -180.539)" fill="#d6d6d6"/>
          <path id="Path_52" data-name="Path 52" d="M162.861,243.665h30.646V180.539l-30.646,11.017Z" transform="translate(-162.861 -180.539)" fill="#d6d6d6" opacity="0.6"/>
          <path id="Path_53" data-name="Path 53" d="M182.4,199.541l-13.281,28.892,24.206,7.022Z" transform="translate(-164.988 -186.994)" fill="#fff" opacity="0.5"/>
        </g>
        <g id="Group_35" data-name="Group 35" transform="translate(0 61.659)">
          <path id="Path_63" data-name="Path 63" d="M92.59,273.92v94.917h3.057V277.043h27.316v91.794h3.057V277.043h11.47v91.794h3.057V277.043h27.627v91.794h3.064V273.92Z" transform="translate(-92.59 -273.92)" fill="#263238"/>
          <path id="Path_64" data-name="Path 64" d="M162.86,273.92v94.917h1.558V277.043H193.5v91.794h1.6V273.92Z" transform="translate(-116.461 -273.92)" fill="#fff" opacity="0.3"/>
          <rect id="Rectangle_114" data-name="Rectangle 114" width="1.557" height="91.794" transform="translate(31.874 3.123)" fill="#fff" opacity="0.3"/>
          <rect id="Rectangle_115" data-name="Rectangle 115" width="1.557" height="91.794" transform="translate(1.529 3.123)" fill="#fff" opacity="0.3"/>
        </g>
      </g>
    </g>
    <g id="Character_2" data-name="Character 2" transform="translate(17718.859 15295.193)">
      <g id="Group_43" data-name="Group 43">
        <path id="Path_65" data-name="Path 65" d="M390.6,309.687l-.872,2.637-1.043,3.161-1.838,5.55-.325,1-1.909,5.748-3.233,9.792c-.447,14.977-8.65,35.239-8.65,35.239l-2.913-.794c1.064-14.685,3.95-32.4,6.394-45.693q.579-3.128,1.114-5.886c.172-.872.331-1.71.491-2.516.26-1.313.5-2.537.728-3.657.458-2.273.839-4.116,1.114-5.418.3-1.418.469-2.2.469-2.2Z" transform="translate(-353.537 -234.432)" fill="#e4897b"/>
        <path id="Path_66" data-name="Path 66" d="M418.062,306.338l-.673,4.507L416.5,316.8l-.1.668-.193,1.3-.673,4.512-1.815,12.1c2.107,14.834-2.526,36.2-2.526,36.2l-3.007-.286c-1.572-15.926-1.632-35.758-1.418-49.532.034-2.135.072-4.132.116-5.941,0-.055,0-.116.005-.171v-.094c.089-3.585.182-6.438.248-8.242.061-1.418.089-2.19.089-2.19Z" transform="translate(-366.061 -233.913)" fill="#e4897b"/>
        <path id="Path_67" data-name="Path 67" d="M384.669,306.653l6.908,2.107-.57,2.9-.7,3.2-7.11-.57a53.7,53.7,0,0,1,.889-5.534,12.892,12.892,0,0,1,.583-2.1Z" transform="translate(-364.685 -196.796)" opacity="0.2"/>
        <path id="Path_68" data-name="Path 68" d="M414.252,306.155l-.264,4.572s.184.926-.3,5.965c0,.174-6.778-1.064-6.778-1.064l-.109-4.6c.061-3.585-.112-2.108-.066-3.912a4.221,4.221,0,0,1,.409-1.99Z" transform="translate(-365.967 -196.276)" opacity="0.2"/>
        <g id="Group_37" data-name="Group 37" transform="translate(18.645 26.554)">
          <path id="Path_69" data-name="Path 69" d="M392.85,237.491s-4.223,6.067-5.825,7.123-13.042.209-13.042.209l-.582,2.491s11.742,2.148,14.21.829,8.651-8.159,8.651-8.159Z" transform="translate(-373.401 -237.491)" fill="#e4897b"/>
          <path id="Path_70" data-name="Path 70" d="M392.85,237.491s-4.223,6.067-5.825,7.123-13.042.209-13.042.209l-.582,2.491s11.742,2.148,14.21.829,8.651-8.159,8.651-8.159Z" transform="translate(-373.401 -237.491)" opacity="0.2"/>
          <path id="Path_71" data-name="Path 71" d="M379.035,245.763l.384,4.1s14.884,1.832,16.482.959,2.981-8.948,2.981-8.948l-6.693-.582s-5.408,4-6.014,4.471S379.035,245.763,379.035,245.763Z" transform="translate(-375.315 -238.782)" fill="#263238"/>
          <path id="Path_72" data-name="Path 72" d="M379.035,245.763l.384,4.1s14.884,1.832,16.482.959,2.981-8.948,2.981-8.948l-6.693-.582s-5.408,4-6.014,4.471S379.035,245.763,379.035,245.763Z" transform="translate(-375.315 -238.782)" fill="#fff" opacity="0.3"/>
        </g>
        <path id="Path_73" data-name="Path 73" d="M371.381,247.334a9.475,9.475,0,0,0-2.25-1.8,8.811,8.811,0,0,0-2.918-.648l-.471,3.226a15.478,15.478,0,0,0,2.353,1.529,8.036,8.036,0,0,0,2.7.187Z" transform="translate(-352.154 -213.449)" fill="#e4897b"/>
        <path id="Path_74" data-name="Path 74" d="M371.381,247.334a9.475,9.475,0,0,0-2.25-1.8,8.811,8.811,0,0,0-2.918-.648l-.471,3.226a15.478,15.478,0,0,0,2.353,1.529,8.036,8.036,0,0,0,2.7.187Z" transform="translate(-352.154 -213.449)" opacity="0.2"/>
        <g id="Group_39" data-name="Group 39" transform="translate(21.199 3.317)">
          <path id="Path_75" data-name="Path 75" d="M378.268,214.418a2.086,2.086,0,0,1,1.782.461" transform="translate(-377.608 -206.403)" fill="none" stroke="#263238" stroke-linecap="round" stroke-linejoin="round" stroke-width="0.5"/>
          <path id="Path_76" data-name="Path 76" d="M379.235,218.32a8.457,8.457,0,0,1-1.025,1.751,1.1,1.1,0,0,0,1.089.365Z" transform="translate(-377.589 -207.742)" fill="#de5753"/>
          <g id="Group_38" data-name="Group 38" transform="translate(0.586 8.693)">
            <path id="Path_77" data-name="Path 77" d="M378.576,216.427c.02.329.213.585.432.572s.381-.29.362-.618-.213-.585-.432-.572S378.557,216.1,378.576,216.427Z" transform="translate(-378.299 -215.581)" fill="#263238"/>
            <path id="Path_78" data-name="Path 78" d="M378.889,215.7l-.732-.238S378.549,216.044,378.889,215.7Z" transform="translate(-378.157 -215.464)" fill="#263238"/>
          </g>
          <path id="Path_79" data-name="Path 79" d="M388.536,219.09a.805.805,0,0,1-.116.112,5.969,5.969,0,0,1-1.936,1.3c-2.126.81-3.668.715-4.783-.143h0c-1.577-1.3-2.283-3.894-2.528-7.1a12.069,12.069,0,0,1,.183-3.815v-.058c.014-.042.021-.1.036-.143a4.389,4.389,0,0,1,2.829-3.093,8.867,8.867,0,0,1,1.853-.471C390.272,204.758,392.806,214.888,388.536,219.09Z" transform="translate(-377.893 -203.427)" fill="#e4897b"/>
          <path id="Path_80" data-name="Path 80" d="M389.744,226.054a5.806,5.806,0,0,1-1.948,1.215c-2.126.81-3.677.644-4.794-.23a6.247,6.247,0,0,0,3.894-.866,3.259,3.259,0,0,1,2.848-.119Z" transform="translate(-379.216 -210.279)" opacity="0.2"/>
          <path id="Path_81" data-name="Path 81" d="M385.665,202.6s-4.3-.478-6.365,1.509c-2.413,2.32-3.152,4.478.455,7.173,0,0,6.663-3.222,9.047-3.063a25.287,25.287,0,0,1,4.136.607C392.792,204.153,387.854,201.34,385.665,202.6Z" transform="translate(-377.269 -202.299)" fill="#263238"/>
          <path id="Path_82" data-name="Path 82" d="M388.63,226.847a2.757,2.757,0,0,1,1.151,4.076l8.969-2.51s-4.253-1.857-4.6-4.852C394.154,223.56,389.44,223.179,388.63,226.847Z" transform="translate(-381.128 -209.518)" fill="#e4897b"/>
          <path id="Path_83" data-name="Path 83" d="M379.466,208.466a6.589,6.589,0,0,0,4.642,5.7s2.395,4.279,5.012,3.984c3.568-.4,6-5.9,4.063-10.879C390.665,200.81,380.464,201.662,379.466,208.466Z" transform="translate(-378.015 -202.491)" fill="#263238"/>
          <path id="Path_84" data-name="Path 84" d="M383.063,217.556c-.092-.679.3-1.9,1.374-1.886,1.115.01,2.091,2.62-.511,3.592C383.553,219.4,383.256,218.974,383.063,217.556Z" transform="translate(-379.233 -206.841)" fill="#e4897b"/>
        </g>
        <path id="Path_85" data-name="Path 85" d="M403.641,262.653s8.124,49.865,2.053,71.876l-40.215-2.5c3.649-17.861,19.262-62.3,19.262-62.3l.883-8.989Z" transform="translate(-352.065 -218.836)" fill="#d72027"/>
        <path id="Path_86" data-name="Path 86" d="M389.806,229.826a8.548,8.548,0,0,1,6.681-3.787l2.289,2.423Z" transform="translate(-360.329 -207.047)" fill="#d72027"/>
        <g id="Group_40" data-name="Group 40" transform="translate(32.669 44.587)">
          <path id="Path_87" data-name="Path 87" d="M412.061,267.733l-9.984,1.045V266.51l9.692-.959C411.844,266.1,411.966,267.008,412.061,267.733Z" transform="translate(-397.167 -265.057)" fill="#263238"/>
          <path id="Path_88" data-name="Path 88" d="M398.771,267.119v2.272l-4.131.432v-2.3Z" transform="translate(-394.64 -265.59)" fill="#263238"/>
          <path id="Path_89" data-name="Path 89" d="M417.957,265.218l4.2-.415.527,2.13-4.331.453Z" transform="translate(-402.561 -264.803)" fill="#263238"/>
        </g>
        <path id="Path_90" data-name="Path 90" d="M350.739,260.457a9.489,9.489,0,0,0-2.587-1.273,8.813,8.813,0,0,0-2.989,0l.238,3.251a15.485,15.485,0,0,0,2.628.984,8.037,8.037,0,0,0,2.681-.4Z" transform="translate(-345.163 -218.26)" fill="#e4897b"/>
        <g id="Group_41" data-name="Group 41" transform="translate(24.016 21.189)">
          <path id="Path_91" data-name="Path 91" d="M409.1,252l-18.408,2.061-9.15-20.622s6.372-5.488,18.169-3.713C399.708,229.722,403.934,231.6,409.1,252Z" transform="translate(-381.536 -229.368)" fill="#263238"/>
          <path id="Path_92" data-name="Path 92" d="M409.1,251.995l-18.408,2.063-4.347-9.8L384.5,240.1l-2.957-6.669s6.372-5.489,18.172-3.718C399.707,229.719,403.932,231.6,409.1,251.995Z" transform="translate(-381.535 -229.367)" fill="#fff" opacity="0.5"/>
          <path id="Path_93" data-name="Path 93" d="M387.861,249.286l-1.847-4.155a3.267,3.267,0,0,1,.7-.971,5.324,5.324,0,0,1,1.147,5.126Z" transform="translate(-383.057 -234.393)" opacity="0.2"/>
        </g>
        <path id="Path_94" data-name="Path 94" d="M370.428,244.163s-2.812,6.837-4.148,8.214-12.688,3.024-12.688,3.024l-.029,2.558s11.928-.442,14.053-2.263,6.683-9.837,6.683-9.837Z" transform="translate(-348.017 -213.204)" fill="#e4897b"/>
        <g id="Group_42" data-name="Group 42" transform="translate(7.113 25.257)">
          <path id="Path_95" data-name="Path 95" d="M373.137,235.527c-1.579,1.432-5.3,13.611-5.755,13.916s-10.577,2.693-10.577,2.693,1.143,3.512,1.139,3.32,10.181-.783,11.418-1.251,7.943-11.089,7.943-11.089a23.6,23.6,0,0,0-1.9-5.311C374.235,235.769,373.137,235.527,373.137,235.527Z" transform="translate(-356.231 -235.527)" fill="#263238"/>
          <path id="Path_96" data-name="Path 96" d="M373.137,235.527c-1.579,1.432-5.3,13.611-5.755,13.916s-10.577,2.693-10.577,2.693,1.143,3.512,1.139,3.32,10.181-.783,11.418-1.251,7.943-11.089,7.943-11.089a23.6,23.6,0,0,0-1.9-5.311C374.235,235.769,373.137,235.527,373.137,235.527Z" transform="translate(-356.231 -235.527)" fill="#fff" opacity="0.5"/>
          <path id="Path_97" data-name="Path 97" d="M355.936,260.449l.927-.566,1.419,4.092h-1.419Z" transform="translate(-355.936 -243.801)" fill="#d72027"/>
        </g>
        <path id="Path_98" data-name="Path 98" d="M362.482,411.6a5.432,5.432,0,0,1,1.73-.941h0s1.881-1.865,2.786-7.484l2.463-.642a2.1,2.1,0,0,1,2.24.875,1.19,1.19,0,0,1,.157.324,14.284,14.284,0,0,1,.263,1.825,50.8,50.8,0,0,1,.036,6.169h-.445l-.177-3.873c-.066-1.315-1.072.228-1.36,1.643s-.9,2.923-3.783,2.994C363.028,412.56,361.633,412.429,362.482,411.6Z" transform="translate(-350.964 -266.985)" fill="#263238"/>
        <path id="Path_99" data-name="Path 99" d="M373.993,402.422a20.436,20.436,0,0,1,.687-2.985l-5.947-.008a10.551,10.551,0,0,1,.116,4.551C371.606,403.257,373.993,402.422,373.993,402.422Z" transform="translate(-353.17 -265.949)" fill="#263238"/>
        <path id="Path_100" data-name="Path 100" d="M400.914,411.6a5.425,5.425,0,0,1,1.729-.941h0s1.881-1.865,2.786-7.484l2.463-.642a2.1,2.1,0,0,1,2.24.875,1.21,1.21,0,0,1,.156.324,14.3,14.3,0,0,1,.263,1.825,50.654,50.654,0,0,1,.036,6.169h-.445l-.177-3.873c-.066-1.315-1.072.228-1.36,1.643s-.9,2.923-3.783,2.994C401.46,412.56,400.064,412.429,400.914,411.6Z" transform="translate(-364.019 -266.985)" fill="#263238"/>
        <path id="Path_101" data-name="Path 101" d="M412.424,402.422a20.436,20.436,0,0,1,.687-2.985l-5.947-.008a10.551,10.551,0,0,1,.116,4.551C410.037,403.257,412.424,402.422,412.424,402.422Z" transform="translate(-366.226 -265.949)" fill="#263238"/>
        <path id="Path_102" data-name="Path 102" d="M391.78,201.387s2.1-5.91,7.666-3.558,1.247,8.428,3.06,11.747-.749,6.365-2.167,5.495a1.306,1.306,0,0,0,1.107-1.756c-.436-1.552-2.928-1.038-3.99-5.562s-2.7-2.668-2.7-2.668Z" transform="translate(-360.999 -197.276)" fill="#263238"/>
      </g>
    </g>
    <g id="Character_1" data-name="Character 1" transform="translate(17544.77 15280.375)">
      <g id="_Group_" data-name="&lt;Group&gt;">
        <path id="Path_103" data-name="Path 103" d="M124.452,232.241c-1.55,2.108-12.48,0-12.48,0v-2.878l8.868-.7Z" transform="translate(-91.809 -193.122)" fill="#263238"/>
        <path id="Path_104" data-name="Path 104" d="M124.452,232.241c-1.55,2.108-12.48,0-12.48,0v-2.878l8.868-.7Z" transform="translate(-91.809 -193.122)" opacity="0.2"/>
        <path id="Path_105" data-name="Path 105" d="M82.928,210.666c-2.208,1.134,1.159,11.992,4.526,15.611s1.274-8.333,1.274-8.333Z" transform="translate(-81.702 -187.006)" fill="#263238"/>
        <path id="Path_106" data-name="Path 106" d="M82.928,210.666c-2.208,1.134,1.159,11.992,4.526,15.611s1.274-8.333,1.274-8.333Z" transform="translate(-81.702 -187.006)" opacity="0.2"/>
        <path id="Path_107" data-name="Path 107" d="M107.564,204.206l.044,3.249-2.483-.3v-2.949s-.275-.44-.568-1a8.823,8.823,0,0,1-.651-1.436c-.3-.932,2.847-3.67,2.847-3.67s.2.185.479.466a11.2,11.2,0,0,1,1.991,2.311C109.415,201.512,107.564,204.206,107.564,204.206Z" transform="translate(-89.062 -182.739)" fill="#9f5b53"/>
        <path id="Path_108" data-name="Path 108" d="M107.232,198.57c-.345,1.417-1.13,3.69-2.674,4.641a8.823,8.823,0,0,1-.651-1.436c-.3-.932,2.847-3.67,2.847-3.67S106.951,198.289,107.232,198.57Z" transform="translate(-89.062 -182.739)" opacity="0.2"/>
        <path id="Path_109" data-name="Path 109" d="M118.368,406.254l4.565.478.231-2.646.625-7.2-4.565-.484-.692,7.953Z" transform="translate(-93.982 -250.103)" fill="#9f5b53"/>
        <path id="Path_110" data-name="Path 110" d="M83.861,405.231h4.424l.039-1,.006-.124.225-6.417.006-.129.09-2.46h-4.43Z" transform="translate(-82.259 -249.66)" fill="#9f5b53"/>
        <path id="Path_111" data-name="Path 111" d="M119.308,396.4l-.692,7.953,4.632-.27.625-7.2Z" transform="translate(-94.066 -250.103)" opacity="0.2"/>
        <path id="Path_112" data-name="Path 112" d="M83.9,406.116h.006l4.43-.563h.006l.231-6.192h-.006l-4.435.355-.225,6.206Z" transform="translate(-82.274 -251.108)" opacity="0.2"/>
        <path id="Path_113" data-name="Path 113" d="M88.074,410.04H82.7a.389.389,0,0,0-.377.3l-.872,3.94a.653.653,0,0,0,.5.774.7.7,0,0,0,.143.014c1.739-.028,3.006-.135,5.19-.135,1.345,0,5.4.141,7.261.141s2.1-1.835,1.34-2c-3.411-.743-5.978-1.773-7.07-2.752a1.069,1.069,0,0,0-.741-.282Z" transform="translate(-81.435 -254.735)" fill="#263238"/>
        <path id="Path_114" data-name="Path 114" d="M122.6,409.827h-5.375a.39.39,0,0,0-.378.3l-.872,3.94a.652.652,0,0,0,.647.788c1.739-.028,3.006-.135,5.19-.135,1.346,0,5.4.141,7.261.141s2.1-1.835,1.34-2c-3.411-.743-5.978-1.773-7.07-2.752a1.07,1.07,0,0,0-.743-.282Z" transform="translate(-93.163 -254.663)" fill="#263238"/>
        <path id="Path_115" data-name="Path 115" d="M112.194,356.936H105.7s.529-55.867-6.49-74.735c-.5,6.237-1.053,12.709-1.6,18.1-.343,3.338-.681,6.2-1,8.389-2.043,14.071-7.2,48.809-7.2,48.809H83s.76-33.285,1.52-47.115c.839-15.012,1.2-48.01,1.233-50.825h23.483C111.474,271.38,117.2,318.66,112.194,356.936Z" transform="translate(-81.968 -203.616)" fill="#d72027"/>
        <path id="Path_116" data-name="Path 116" d="M112.194,356.936H105.7s.529-55.867-6.49-74.735c-.5,6.237-1.053,12.709-1.6,18.1-.343,3.338-.681,6.2-1,8.389-2.043,14.071-7.2,48.809-7.2,48.809H83s.76-33.285,1.52-47.115c.839-15.012,1.2-48.01,1.233-50.825h23.483C111.474,271.38,117.2,318.66,112.194,356.936Z" transform="translate(-81.968 -203.616)" fill="#fff" opacity="0.7"/>
        <path id="Path_117" data-name="Path 117" d="M103.471,287.874c-.5,6.236-1.053,12.72-1.6,18.113-.8-7.785-1.779-13.335-1.779-13.335s-.918-.754-3.439-4.779,0-11.539,0-11.539C96.576,283.315,103.471,287.874,103.471,287.874Z" transform="translate(-86.225 -209.314)" opacity="0.2"/>
        <path id="Path_118" data-name="Path 118" d="M124.206,404.264l-.317,1.829H116.22V404.4Z" transform="translate(-93.252 -252.773)" fill="#d72027"/>
        <path id="Path_119" data-name="Path 119" d="M89.924,405.329l-.736,1.689H82.757l-.422-1.689Z" transform="translate(-81.741 -253.135)" fill="#d72027"/>
        <g id="Group_44" data-name="Group 44" transform="translate(3.647 53.434)">
          <path id="Path_120" data-name="Path 120" d="M86.959,256.656v2.1h23.678l-.278-2.4Z" transform="translate(-86.959 -255.963)"/>
          <rect id="Rectangle_116" data-name="Rectangle 116" width="0.715" height="3.325" transform="translate(7.239 0.02)" fill="#407bff"/>
          <rect id="Rectangle_117" data-name="Rectangle 117" width="0.715" height="3.325" transform="translate(18.972 0.048) rotate(-3.81)" fill="#407bff"/>
          <rect id="Rectangle_118" data-name="Rectangle 118" width="0.715" height="3.325" transform="translate(7.239 0.02)" fill="#fff" opacity="0.7"/>
          <rect id="Rectangle_119" data-name="Rectangle 119" width="0.715" height="3.325" transform="translate(18.972 0.048) rotate(-3.81)" fill="#fff" opacity="0.7"/>
        </g>
        <g id="Group_45" data-name="Group 45" transform="translate(2.71)">
          <path id="Path_121" data-name="Path 121" d="M110.262,189.429c.028.352-.14.652-.375.671s-.447-.252-.474-.6.14-.652.374-.671S110.234,189.077,110.262,189.429Z" transform="translate(-93.649 -179.586)" fill="#2e353a"/>
          <path id="Path_122" data-name="Path 122" d="M109.852,186.762a2.236,2.236,0,0,0-1.825.75" transform="translate(-93.179 -178.885)" fill="none" stroke="#2e353a" stroke-linecap="round" stroke-linejoin="round" stroke-width="0.5"/>
          <path id="Path_123" data-name="Path 123" d="M109.409,190.757a11.5,11.5,0,0,0,1.7,2.166,1.5,1.5,0,0,1-1.4.693Z" transform="translate(-93.649 -180.243)" fill="#a24e3f"/>
          <path id="Path_124" data-name="Path 124" d="M103.531,190.767a6.445,6.445,0,0,1-.191.626,6.221,6.221,0,0,1-2.99,3.412,5.546,5.546,0,0,1-6.624-1.054c-2.217-2.239-2.158-4.824-2.407-9.2a6,6,0,0,1,8.28-5.986C103.891,180.316,104.48,186.827,103.531,190.767Z" transform="translate(-87.498 -175.945)" fill="#9f5b53"/>
          <path id="Path_125" data-name="Path 125" d="M103.339,202.213a6.112,6.112,0,0,1-.8.5,5.575,5.575,0,0,1-4.794.212,6.551,6.551,0,0,1,.782-1.485,8.642,8.642,0,0,1,4.812.773Z" transform="translate(-89.686 -183.848)" opacity="0.2"/>
          <path id="Path_126" data-name="Path 126" d="M92.88,205.392c2.156,1.958,7.438,1.234,7.438,1.234s3.3-.9,2.6-1.932c-1.942-.321-2.882-1.228-3.27-2.387a5.652,5.652,0,0,1-.2-2.217,11.705,11.705,0,0,1,.164-1.239l-6.53-4.835C93.944,197.207,94.991,203.078,92.88,205.392Z" transform="translate(-88.034 -181.35)" fill="#9f5b53"/>
          <path id="Path_127" data-name="Path 127" d="M96.4,175.567s1.158-.707,3.132,1.155c1.665,1.569-.012,2.829,1,4.843a4.245,4.245,0,0,1-.35,4s-.961,2.069-2.631,1.939a5.13,5.13,0,0,0-1.146,3.358c.217,1.707-2.232,3.056-5.572,3.013s-2-2.129-2-2.129A13.763,13.763,0,0,1,86.5,188a12.91,12.91,0,0,1-.95-5.23,7.011,7.011,0,0,1,1.93-5.062C89.71,175.2,95.024,173.934,96.4,175.567Z" transform="translate(-85.54 -174.834)" fill="#263238"/>
          <path id="Path_128" data-name="Path 128" d="M102.4,191.1a2.837,2.837,0,0,0,1.457,1.944c.891.378,1.476-.878,1.348-2.193-.122-1.166-.726-2.808-1.68-2.591S102.092,189.926,102.4,191.1Z" transform="translate(-91.237 -179.389)" fill="#9f5b53"/>
        </g>
        <g id="Group_46" data-name="Group 46" transform="translate(7.025 20.903)">
          <path id="Path_129" data-name="Path 129" d="M92.075,209.217l.965-2.487s6.5-1.255,8.708,1.989S92.075,209.217,92.075,209.217Z" transform="translate(-92.075 -206.491)" fill="#d72027" opacity="0.6"/>
          <path id="Path_130" data-name="Path 130" d="M92.075,209.217l.965-2.487s6.5-1.255,8.708,1.989S92.075,209.217,92.075,209.217Z" transform="translate(-92.075 -206.491)" fill="#fff" opacity="0.6"/>
        </g>
        <path id="Path_131" data-name="Path 131" d="M85.276,241.03a103.643,103.643,0,0,0-.44-20.534c-.351-3.191-.843-6.658-1.538-10.34,0,0,12.766-2.254,21.67,0,0,0,.37,1.506.868,4.072.083.415.172.855.262,1.321.243,1.277.5,2.745.759,4.366l.007.007.038.249c.287,1.742.658,3.746,1.028,5.91a102.06,102.06,0,0,1,1.71,14.63Z" transform="translate(-82.068 -186.493)" fill="#263238"/>
        <path id="Path_132" data-name="Path 132" d="M118.67,228.681c-4.207-3.9-3.741-11.872-3.741-11.872l1.908,1.34c.243,1.277.5,2.745.759,4.366l.007.007.038.249C117.929,224.513,118.3,226.517,118.67,228.681Z" transform="translate(-92.808 -189.093)" opacity="0.2"/>
        <path id="Path_133" data-name="Path 133" d="M115.694,210.666c3.3,1.386,10.063,11.739,10.179,13.844s-1.483,2.951-4.513,1.1-5.983-8.588-6.4-10.608a7.8,7.8,0,0,1,.734-4.336Z" transform="translate(-92.791 -187.006)" fill="#263238"/>
      </g>
    </g>
  </g>
</svg>
