<svg xmlns="http://www.w3.org/2000/svg" width="280" height="242.001" viewBox="0 0 280 242.001">
  <g id="in-process" transform="translate(-30 -55)">
    <g id="Group_3336" data-name="Group 3336" transform="translate(30 55)">
      <rect id="Rectangle_451" data-name="Rectangle 451" width="280" height="0.14" transform="translate(0 212.619)" fill="#ebebeb"/>
      <rect id="Rectangle_452" data-name="Rectangle 452" width="21.556" height="0.163" transform="translate(247.693 223.079)" fill="#ebebeb"/>
      <rect id="Rectangle_453" data-name="Rectangle 453" width="5.656" height="0.163" transform="translate(186.12 224.85)" fill="#ebebeb"/>
      <rect id="Rectangle_454" data-name="Rectangle 454" width="12.49" height="0.163" transform="translate(234.552 217.04)" fill="#ebebeb"/>
      <rect id="Rectangle_455" data-name="Rectangle 455" width="28.111" height="0.163" transform="translate(9.858 218.133)" fill="#ebebeb"/>
      <rect id="Rectangle_456" data-name="Rectangle 456" width="4.12" height="0.163" transform="translate(43.768 218.133)" fill="#ebebeb"/>
      <rect id="Rectangle_457" data-name="Rectangle 457" width="60.973" height="0.163" transform="translate(61.483 220.88)" fill="#ebebeb"/>
      <path id="Path_13039" data-name="Path 13039" d="M167.6,239.063H41.92a3.716,3.716,0,0,1-3.71-3.716V58.684A3.716,3.716,0,0,1,41.92,55H167.6a3.716,3.716,0,0,1,3.716,3.716v176.63A3.716,3.716,0,0,1,167.6,239.063ZM41.92,55.13a3.554,3.554,0,0,0-3.547,3.554V235.347A3.554,3.554,0,0,0,41.92,238.9H167.6a3.56,3.56,0,0,0,3.554-3.554V58.684a3.56,3.56,0,0,0-3.554-3.554Z" transform="translate(-37.626 -55)" fill="#ebebeb"/>
      <path id="Path_13040" data-name="Path 13040" d="M383.9,239.063H258.216a3.723,3.723,0,0,1-3.716-3.716V58.684A3.723,3.723,0,0,1,258.216,55H383.9a3.716,3.716,0,0,1,3.7,3.684V235.347a3.716,3.716,0,0,1-3.7,3.716ZM258.216,55.13a3.56,3.56,0,0,0-3.554,3.554V235.347a3.56,3.56,0,0,0,3.554,3.554H383.9a3.56,3.56,0,0,0,3.554-3.554V58.684A3.56,3.56,0,0,0,383.9,55.13Z" transform="translate(-112.429 -55)" fill="#ebebeb"/>
      <rect id="Rectangle_458" data-name="Rectangle 458" width="147.244" height="84.469" transform="translate(102.883 17.847)" fill="#e6e6e6"/>
      <rect id="Rectangle_459" data-name="Rectangle 459" width="149.34" height="84.469" transform="translate(104.725 17.847)" fill="#f0f0f0"/>
      <rect id="Rectangle_460" data-name="Rectangle 460" width="147.244" height="7.316" transform="translate(102.883 102.088)" fill="#e6e6e6"/>
      <rect id="Rectangle_461" data-name="Rectangle 461" width="149.34" height="7.316" transform="translate(111.279 102.088)" fill="#f0f0f0"/>
      <rect id="Rectangle_462" data-name="Rectangle 462" width="73.45" height="138.321" transform="translate(248.552 23.353) rotate(90)" fill="#fafafa"/>
      <path id="Path_13041" data-name="Path 13041" d="M221.2,164.33l32.335-73.45H268.8l-32.341,73.45Z" transform="translate(-101.147 -67.527)" fill="#fff"/>
      <path id="Path_13042" data-name="Path 13042" d="M209.291,160.587a.4.4,0,0,1-.391-.4V96.2a.4.4,0,0,1,.788,0v63.99a.4.4,0,0,1-.4.4Z" transform="translate(-96.935 -69.265)" fill="#f0f0f0"/>
      <path id="Path_13043" data-name="Path 13043" d="M249.69,164.33l32.341-73.45h5.949l-32.341,73.45Z" transform="translate(-111.054 -67.527)" fill="#fff"/>
      <rect id="Rectangle_463" data-name="Rectangle 463" width="73.45" height="0.696" transform="translate(248.552 23.353) rotate(90)" fill="#e6e6e6"/>
      <path id="Path_13044" data-name="Path 13044" d="M349.312,100.34H202.068l-.508-6.17H348.8Z" transform="translate(-93.945 -68.676)" fill="#ebebeb" opacity="0.6"/>
      <path id="Path_13045" data-name="Path 13045" d="M349.312,115.874H202.068l-.508-6.164H348.8Z" transform="translate(-93.945 -74.101)" fill="#ebebeb" opacity="0.6"/>
      <path id="Path_13046" data-name="Path 13046" d="M349.312,131.414H202.068l-.508-6.164H348.8Z" transform="translate(-93.945 -79.628)" fill="#ebebeb" opacity="0.6"/>
      <path id="Path_13047" data-name="Path 13047" d="M349.312,146.95H202.068l-.508-6.17H348.8Z" transform="translate(-93.945 -85.073)" fill="#ebebeb" opacity="0.6"/>
      <path id="Path_13048" data-name="Path 13048" d="M349.312,162.49H202.068l-.508-6.17H348.8Z" transform="translate(-93.945 -90.521)" fill="#ebebeb" opacity="0.6"/>
      <path id="Path_13049" data-name="Path 13049" d="M349.312,178.024H202.068l-.508-6.164H348.8Z" transform="translate(-93.945 -95.968)" fill="#ebebeb" opacity="0.6"/>
      <rect id="Rectangle_464" data-name="Rectangle 464" width="50.494" height="67.768" transform="translate(17.727 41.728)" fill="#e6e6e6"/>
      <rect id="Rectangle_465" data-name="Rectangle 465" width="53.253" height="67.768" transform="translate(18.489 41.728)" fill="#f0f0f0"/>
      <rect id="Rectangle_466" data-name="Rectangle 466" width="58.844" height="44.33" transform="translate(67.277 46.181) rotate(90)" fill="#fff"/>
      <path id="Path_13050" data-name="Path 13050" d="M100.149,178.519l-8.136-8.136a10.511,10.511,0,0,1,0-14.846l8.136-8.142a.436.436,0,0,1,.605,0l8.142,8.162a10.511,10.511,0,0,1,0,14.846l-8.142,8.136a.423.423,0,0,1-.605-.02Zm.306-30.213-7.81,7.81a9.659,9.659,0,0,0,0,13.636l7.81,7.81,7.81-7.81a9.646,9.646,0,0,0,0-13.636Z" transform="translate(-55.34 -87.366)" fill="#f0f0f0"/>
      <path id="Path_13051" data-name="Path 13051" d="M215.618,275.27h0c-.332,0-.651,0-1.009.033-7.159.573-12.9,7.368-13.356,15.738a19.812,19.812,0,0,0,.475,5.532,98.487,98.487,0,0,1,2.258,21.98v21.589a2.649,2.649,0,0,0,2.415,2.831h47.643v-67.69Z" transform="translate(-94.205 -132.39)" fill="#f0f0f0"/>
      <path id="Path_13052" data-name="Path 13052" d="M289.033,292.146c0-9.711-7-17.508-15.406-16.838-7.159.573-12.907,7.368-13.356,15.738a19.57,19.57,0,0,0,.462,5.526,98.489,98.489,0,0,1,2.258,21.98v21.589a2.649,2.649,0,0,0,2.415,2.831h18.458a2.671,2.671,0,0,0,2.415-2.831V317.256a89.76,89.76,0,0,1,2.232-20.6,19.679,19.679,0,0,0,.521-4.51Z" transform="translate(-114.732 -132.389)" fill="#fafafa"/>
      <rect id="Rectangle_467" data-name="Rectangle 467" width="50.279" height="38.264" transform="translate(89.652 172.286)" fill="#f5f5f5"/>
      <path id="Path_13053" data-name="Path 13053" d="M119.8,250h55.239a11.8,11.8,0,0,1,11.8,11.8v40.523H108V261.8A11.8,11.8,0,0,1,119.8,250Z" transform="translate(-61.829 -123.437)" fill="#e6e6e6"/>
      <path id="Path_13054" data-name="Path 13054" d="M133.077,250h49.745a11.631,11.631,0,0,1,11.631,11.631v40.692H121.44V261.631A11.631,11.631,0,0,1,133.077,250Z" transform="translate(-66.496 -123.437)" fill="#f5f5f5"/>
      <path id="Path_13055" data-name="Path 13055" d="M179.205,318.33H226.2a2.532,2.532,0,0,1,2.532,2.532v4.074a2.532,2.532,0,0,1-2.532,2.532H179.205a.755.755,0,0,1-.755-.755v-7.628A.755.755,0,0,1,179.205,318.33Z" transform="translate(-86.304 -147.323)" fill="#ebebeb"/>
      <path id="Path_13056" data-name="Path 13056" d="M98.937,379.24h120.1v.156a1.9,1.9,0,0,1-1.9,1.9H100.831a1.9,1.9,0,0,1-1.9-1.9v-.156Z" transform="translate(-58.826 -168.69)" fill="#e6e6e6"/>
      <path id="Path_13057" data-name="Path 13057" d="M92.328,275.256h0c-.332,0-.651,0-1.009.033-7.159.573-12.907,7.368-13.356,15.738a19.812,19.812,0,0,0,.462,5.493,98.489,98.489,0,0,1,2.258,21.98v21.589A2.649,2.649,0,0,0,83.1,342.92h58.454V275.23Z" transform="translate(-51.495 -132.376)" fill="#f0f0f0"/>
      <path id="Path_13058" data-name="Path 13058" d="M182.355,292.146c0-9.711-7-17.508-15.406-16.838-7.159.573-12.9,7.368-13.356,15.738a19.812,19.812,0,0,0,.462,5.493,98.488,98.488,0,0,1,2.258,21.98v21.589a2.649,2.649,0,0,0,2.415,2.831h18.458a2.676,2.676,0,0,0,2.421-2.831V317.256a89.754,89.754,0,0,1,2.226-20.6A19.676,19.676,0,0,0,182.355,292.146Z" transform="translate(-77.685 -132.389)" fill="#fafafa"/>
      <path id="Path_13059" data-name="Path 13059" d="M394.767,280.163a2.87,2.87,0,0,0,2.07-4.868c-1.3-1.341-3.437-2.434-6.834-2.434s-5.506,1.093-6.828,2.434a2.87,2.87,0,0,0,2.063,4.868Z" transform="translate(-157.072 -131.378)" fill="#f5f5f5"/>
      <path id="Path_13060" data-name="Path 13060" d="M411.823,279.926a1.842,1.842,0,0,0,1.3-3.124,6.941,6.941,0,0,0-8.774,0,1.842,1.842,0,0,0,1.3,3.124Z" transform="translate(-164.566 -132.209)" fill="#f5f5f5"/>
      <path id="Path_13061" data-name="Path 13061" d="M379,281.17s.371,3.8,14.631,3.8,14.638-3.8,14.638-3.8Z" transform="translate(-155.897 -134.287)" fill="#f0f0f0"/>
      <path id="Path_13062" data-name="Path 13062" d="M351.5,270.128a2.315,2.315,0,0,0-.365.039v-1.3a1.028,1.028,0,0,0-1.028-1.035h-5.526a1.035,1.035,0,0,0-1.028,1.035v11.442h7.583v-1.848a3.462,3.462,0,0,0,.365.039,3.046,3.046,0,0,0,3.039-3.04v-2.311a3.046,3.046,0,0,0-3.039-3.02Zm1.738,5.331A1.744,1.744,0,0,1,351.5,277.2a1.693,1.693,0,0,1-.365-.039v-5.689a1.7,1.7,0,0,1,.365-.039,1.744,1.744,0,0,1,1.738,1.738Z" transform="translate(-143.703 -129.622)" fill="#e6e6e6"/>
      <rect id="Rectangle_468" data-name="Rectangle 468" width="28.26" height="62.092" transform="translate(185.765 150.515)" fill="#e6e6e6"/>
      <rect id="Rectangle_469" data-name="Rectangle 469" width="49.713" height="62.092" transform="translate(263.919 212.607) rotate(180)" fill="#f5f5f5"/>
      <rect id="Rectangle_470" data-name="Rectangle 470" width="59.489" height="44.506" transform="translate(261.315 153.119) rotate(90)" fill="#e6e6e6"/>
      <rect id="Rectangle_471" data-name="Rectangle 471" width="59.489" height="11.234" transform="translate(227.912 153.119) rotate(90)" fill="#e0e0e0"/>
      <rect id="Rectangle_472" data-name="Rectangle 472" width="2.603" height="45.912" transform="translate(262.728 181.561) rotate(90)" fill="#f5f5f5"/>
      <path id="Path_13063" data-name="Path 13063" d="M387.093,323.227H377.33l2.9-21.387H387.1Z" transform="translate(-155.441 -141.563)" fill="#e6e6e6"/>
      <path id="Path_13064" data-name="Path 13064" d="M402.564,321.272H384.073L380.63,296.24h18.491Z" transform="translate(-156.466 -139.606)" fill="#f0f0f0"/>
      <path id="Path_13065" data-name="Path 13065" d="M405.959,321.272H386.713L383.27,296.24h19.246Z" transform="translate(-157.388 -139.606)" fill="#f5f5f5"/>
      <path id="Path_13066" data-name="Path 13066" d="M389.616,320.358l-2.9-21.088h15.3l2.9,21.088Z" transform="translate(-158.592 -140.661)" fill="#fff"/>
      <path id="Path_13067" data-name="Path 13067" d="M396.474,316.31l-.963-6.984a1.953,1.953,0,0,1,1.953-2.206h1.875a1.953,1.953,0,0,1,1.953,1.679l.957,6.977a1.953,1.953,0,0,1-1.953,2.213h-1.868A1.953,1.953,0,0,1,396.474,316.31Z" transform="translate(-161.656 -143.395)" fill="#f5f5f5"/>
    </g>
    <g id="Group_3337" data-name="Group 3337" transform="translate(42.234 282.265)">
      <ellipse id="Ellipse_72" data-name="Ellipse 72" cx="126.552" cy="7.368" rx="126.552" ry="7.368" transform="translate(0 0)" fill="#f5f5f5"/>
    </g>
    <g id="Group_3338" data-name="Group 3338" transform="translate(46.813 94.942)">
      <circle id="Ellipse_73" data-name="Ellipse 73" cx="30.545" cy="30.545" r="30.545" transform="translate(0 75.066) rotate(-80.78)" fill="#d72027"/>
      <circle id="Ellipse_74" data-name="Ellipse 74" cx="30.545" cy="30.545" r="30.545" transform="translate(0 75.066) rotate(-80.78)" fill="#fafafa" opacity="0.7"/>
      <path id="Path_13068" data-name="Path 13068" d="M91.609,186.726q0-5.76,2.076-8.064t6.32-2.3a9.548,9.548,0,0,1,3.352.5,6.261,6.261,0,0,1,2.141,1.3,7.056,7.056,0,0,1,1.3,1.692,8.9,8.9,0,0,1,.762,2.076,19.356,19.356,0,0,1,.566,4.719q0,5.493-1.861,8.051t-6.411,2.551a8.949,8.949,0,0,1-4.126-.814,6.645,6.645,0,0,1-2.6-2.382A9.04,9.04,0,0,1,91.986,191a21.138,21.138,0,0,1-.377-4.274Zm5.571,0A14.318,14.318,0,0,0,97.831,192a2.141,2.141,0,0,0,1.953,1.412,2.1,2.1,0,0,0,1.484-.6,3.768,3.768,0,0,0,.924-1.894,20.125,20.125,0,0,0,.293-4.042,14.728,14.728,0,0,0-.651-5.415,2.187,2.187,0,0,0-2.044-1.386,2.1,2.1,0,0,0-2.018,1.419,15.622,15.622,0,0,0-.592,5.252Z" transform="translate(-73.083 -137.435)" fill="#fafafa"/>
      <path id="Path_13069" data-name="Path 13069" d="M133.885,176.36v20.593H128.2V183.48a17.222,17.222,0,0,1-2.669,1.7,20.682,20.682,0,0,1-3.254,1.237v-4.6a13.753,13.753,0,0,0,4.452-2.219,9.06,9.06,0,0,0,2.486-3.2Z" transform="translate(-83.792 -137.438)" fill="#fafafa"/>
      <circle id="Ellipse_75" data-name="Ellipse 75" cx="30.545" cy="30.545" r="30.545" transform="translate(59.61 72.51) rotate(-76.72)" fill="#d72027"/>
      <circle id="Ellipse_76" data-name="Ellipse 76" cx="30.545" cy="30.545" r="30.545" transform="translate(59.61 72.51) rotate(-76.72)" fill="#fafafa" opacity="0.7"/>
      <path id="Path_13070" data-name="Path 13070" d="M183.529,186.726q0-5.76,2.076-8.064t6.32-2.3a9.548,9.548,0,0,1,3.352.5,6.17,6.17,0,0,1,2.135,1.3,6.927,6.927,0,0,1,1.3,1.692,8.9,8.9,0,0,1,.762,2.076,19.355,19.355,0,0,1,.566,4.719q0,5.493-1.861,8.051t-6.411,2.551a8.93,8.93,0,0,1-4.126-.814,6.645,6.645,0,0,1-2.6-2.382A9.04,9.04,0,0,1,183.9,191,21.14,21.14,0,0,1,183.529,186.726Zm5.571,0a14.318,14.318,0,0,0,.651,5.272,2.141,2.141,0,0,0,1.953,1.412,2.076,2.076,0,0,0,1.477-.6,3.664,3.664,0,0,0,.924-1.894,19.526,19.526,0,0,0,.3-4.042q0-4.035-.683-5.415a2.187,2.187,0,0,0-2.05-1.386,2.1,2.1,0,0,0-2.011,1.419,16.97,16.97,0,0,0-.56,5.252Z" transform="translate(-104.941 -137.435)" fill="#fafafa"/>
      <path id="Path_13071" data-name="Path 13071" d="M228.687,196.946H211.83a10.543,10.543,0,0,1,1.764-4.693,23.964,23.964,0,0,1,5.506-5.207,16.129,16.129,0,0,0,3.157-2.786,3.1,3.1,0,0,0,.69-1.8,2.109,2.109,0,0,0-.651-1.582,2.6,2.6,0,0,0-3.476,0,4.192,4.192,0,0,0-.918,2.389l-5.623-.456a8.9,8.9,0,0,1,1.217-3.7,5.623,5.623,0,0,1,2.486-2.044,11.331,11.331,0,0,1,4.445-.709,12.581,12.581,0,0,1,4.615.651,5.546,5.546,0,0,1,2.6,2.076,5.461,5.461,0,0,1,.944,3.137,6.4,6.4,0,0,1-1.08,3.528,14.7,14.7,0,0,1-3.9,3.7q-1.7,1.172-2.265,1.64t-1.347,1.23h8.774Z" transform="translate(-114.768 -137.43)" fill="#fafafa"/>
      <circle id="Ellipse_77" data-name="Ellipse 77" cx="30.545" cy="30.545" r="30.545" transform="translate(123.515 3.069) rotate(-2.865)" fill="#d72027"/>
      <circle id="Ellipse_78" data-name="Ellipse 78" cx="30.545" cy="30.545" r="30.545" transform="translate(123.515 3.069) rotate(-2.865)" fill="#fafafa" opacity="0.7"/>
      <path id="Path_13072" data-name="Path 13072" d="M276.672,167.516q-2.193-5.331-1.152-8.246t4.966-4.556a9.463,9.463,0,0,1,3.293-.807,6.046,6.046,0,0,1,2.473.4,6.957,6.957,0,0,1,1.848,1.067A8.942,8.942,0,0,1,289.6,157a19.426,19.426,0,0,1,2.317,4.146q2.1,5.083,1.347,8.155t-4.953,4.842a9.112,9.112,0,0,1-4.126.82,6.756,6.756,0,0,1-3.293-1.224,9.112,9.112,0,0,1-2.213-2.389,21.268,21.268,0,0,1-2.007-3.834Zm5.161-2.109a13.828,13.828,0,0,0,2.636,4.615,2.148,2.148,0,0,0,2.369.553,2.076,2.076,0,0,0,1.146-1.119,3.684,3.684,0,0,0,.13-2.1,19.559,19.559,0,0,0-1.263-3.853q-1.543-3.723-2.695-4.745a2.18,2.18,0,0,0-2.421-.495,2.089,2.089,0,0,0-1.3,2.07,14.462,14.462,0,0,0,1.4,5.074Z" transform="translate(-136.762 -129.595)" fill="#fafafa"/>
      <path id="Path_13073" data-name="Path 13073" d="M306.643,150.53l-5.272,1.139a6.691,6.691,0,0,1,.872-4.556,9.044,9.044,0,0,1,4.413-3.254c2.441-1.009,4.393-1.3,5.858-.82a4.628,4.628,0,0,1,3.046,2.76,4.075,4.075,0,0,1,.241,2.467,6.046,6.046,0,0,1-1.3,2.545,6.509,6.509,0,0,1,1.914-.059,4.335,4.335,0,0,1,2.07.918,4.875,4.875,0,0,1,1.438,2.024,6.743,6.743,0,0,1,.436,3.482,6.157,6.157,0,0,1-1.51,3.319,10.173,10.173,0,0,1-3.9,2.551,11.794,11.794,0,0,1-4.27,1.054,6.509,6.509,0,0,1-3.144-.748,8.767,8.767,0,0,1-2.655-2.3l4.908-2.825a4.361,4.361,0,0,0,1.842,1.783,2.48,2.48,0,0,0,1.888-.072,2.434,2.434,0,0,0,1.425-1.484,3.138,3.138,0,0,0-.143-2.324,3.072,3.072,0,0,0-1.5-1.738,2.564,2.564,0,0,0-2.109,0,7.044,7.044,0,0,0-1.556,1l-1.263-3.821a6.006,6.006,0,0,0,.7-.215A2.6,2.6,0,0,0,310.5,150a2.2,2.2,0,0,0,.046-1.822,1.953,1.953,0,0,0-1.067-1.152,2.037,2.037,0,0,0-1.614.065,2.226,2.226,0,0,0-1.263,1.172,3.638,3.638,0,0,0,.041,2.267Z" transform="translate(-145.82 -125.725)" fill="#fafafa"/>
      <circle id="Ellipse_79" data-name="Ellipse 79" cx="30.545" cy="30.545" r="30.545" transform="translate(182.262 72.516) rotate(-76.72)" fill="#d72027"/>
      <circle id="Ellipse_80" data-name="Ellipse 80" cx="30.545" cy="30.545" r="30.545" transform="translate(182.262 72.516) rotate(-76.72)" fill="#fafafa" opacity="0.7"/>
      <path id="Path_13074" data-name="Path 13074" d="M370.339,186.726q0-5.76,2.076-8.064t6.32-2.3a9.548,9.548,0,0,1,3.352.5,6.17,6.17,0,0,1,2.135,1.3,6.922,6.922,0,0,1,1.3,1.692,8.9,8.9,0,0,1,.762,2.076,19.36,19.36,0,0,1,.566,4.719q0,5.493-1.862,8.051t-6.411,2.564a8.93,8.93,0,0,1-4.126-.814,6.645,6.645,0,0,1-2.6-2.382,9.04,9.04,0,0,1-1.139-3.059,21.141,21.141,0,0,1-.373-4.283Zm5.571,0a13.686,13.686,0,0,0,.683,5.272,2.141,2.141,0,0,0,1.953,1.412,2.076,2.076,0,0,0,1.477-.6,3.665,3.665,0,0,0,.924-1.894,19.52,19.52,0,0,0,.3-4.042q0-4.035-.683-5.415a2.187,2.187,0,0,0-2.05-1.386,2.1,2.1,0,0,0-2.011,1.419,15.855,15.855,0,0,0-.592,5.252Z" transform="translate(-169.801 -137.435)" fill="#fafafa"/>
      <path id="Path_13075" data-name="Path 13075" d="M408.622,193.146H398.39v-4.621l10.232-12.165h4.894v12.425h2.538v4.361h-2.538v3.808h-4.894Zm0-4.361v-6.359l-5.409,6.359Z" transform="translate(-179.48 -137.438)" fill="#fafafa"/>
      <path id="Path_13076" data-name="Path 13076" d="M282.729,208.088a3.255,3.255,0,0,1,0-6.509,27.291,27.291,0,1,0-27.362-27.288,33.9,33.9,0,1,1-67.8,0h.005a27.368,27.368,0,0,0-54.736,0,33.9,33.9,0,1,1-33.882-33.8,3.254,3.254,0,1,1,0,6.509,27.291,27.291,0,1,0,27.368,27.291,33.9,33.9,0,1,1,67.795,0h0a27.368,27.368,0,1,0,54.736,0,33.9,33.9,0,1,1,33.893,33.8Z" transform="translate(-63.811 -124.914)" fill="#d72027"/>
      <path id="Path_13077" data-name="Path 13077" d="M347.5,223.887l-.5-.41a35.707,35.707,0,0,0,3.873-5.9l.579.306a36.886,36.886,0,0,1-3.952,6Z" transform="translate(-161.725 -151.829)" fill="#d72027"/>
      <path id="Path_13078" data-name="Path 13078" d="M325.041,239.838l-.241-.6a35.368,35.368,0,0,0,11.065-7.023l.443.475a36.032,36.032,0,0,1-11.267,7.153Z" transform="translate(-154.001 -156.937)" fill="#d72027"/>
    </g>
    <g id="Group_3339" data-name="Group 3339" transform="translate(92.207 87.725)">
      <path id="Path_13079" data-name="Path 13079" d="M190.18,402.8h4.777l.475-11.078h-4.777Z" transform="translate(-152.652 -205.772)" fill="#ffc3bd"/>
      <path id="Path_13080" data-name="Path 13080" d="M195.555,391.73l-.241,5.708H190.53l.241-5.708Z" transform="translate(-152.774 -205.776)" opacity="0.2"/>
      <path id="Path_13081" data-name="Path 13081" d="M136.33,397.436l4.67,1.009,4.693-10.31-4.673-1.015Z" transform="translate(-133.851 -204.166)" fill="#ffc3bd"/>
      <path id="Path_13082" data-name="Path 13082" d="M142.235,387.13l4.68,1.009-2.421,5.318-4.673-1.009Z" transform="translate(-135.07 -204.17)" opacity="0.2"/>
      <path id="Path_13083" data-name="Path 13083" d="M165.507,167.249c-1.64,2.883-3.293,5.858-4.875,8.819s-3.131,5.942-4.445,8.91c-.345.748-.651,1.484-.937,2.219h0v.1a2.257,2.257,0,0,0,0,.566,7.6,7.6,0,0,0,.579,1.783,20.67,20.67,0,0,0,1.015,2,72.506,72.506,0,0,0,5.63,8.045l-2.46,2.6a42.091,42.091,0,0,1-7.81-7.478,17.144,17.144,0,0,1-3.013-5.37,8.187,8.187,0,0,1-.365-1.953,6.653,6.653,0,0,1,0-1.185,5.664,5.664,0,0,1,.1-.651,1.573,1.573,0,0,1,.078-.325l.085-.28c.286-.872.566-1.757.885-2.6a99.113,99.113,0,0,1,4.27-9.724c1.575-3.137,3.222-6.17,5.057-9.2Z" transform="translate(-138.205 -125.726)" fill="#ffc3bd"/>
      <path id="Path_13084" data-name="Path 13084" d="M167.091,217.81l3.358,1.106-2.825,4.751a5.571,5.571,0,0,1-2.955-3.378Z" transform="translate(-143.746 -144.749)" fill="#ffc3bd"/>
      <path id="Path_13085" data-name="Path 13085" d="M176.61,221.345,173.343,225l-4.133-.742,2.825-4.751Z" transform="translate(-145.331 -145.345)" fill="#ffc3bd"/>
      <path id="Path_13086" data-name="Path 13086" d="M199.117,128.94c.078.378.338.651.586.592s.384-.4.306-.775-.338-.651-.586-.592S199.032,128.563,199.117,128.94Z" transform="translate(-155.764 -113.268)" fill="#263238"/>
      <path id="Path_13087" data-name="Path 13087" d="M199.6,130.36a13.8,13.8,0,0,0,2.46,2.864,2.213,2.213,0,0,1-1.738.7Z" transform="translate(-155.941 -114.036)" fill="#ed847e"/>
      <path id="Path_13088" data-name="Path 13088" d="M196.231,125.954a.241.241,0,0,1-.156-.065.228.228,0,0,1,0-.319,2.258,2.258,0,0,1,1.953-.748.228.228,0,0,1,.189.26.234.234,0,0,1-.26.189h0a1.8,1.8,0,0,0-1.523.605.215.215,0,0,1-.2.078Z" transform="translate(-154.688 -112.098)" fill="#263238"/>
      <path id="Path_13089" data-name="Path 13089" d="M182.01,137.52c.651,3.5,1.367,9.913-1.08,12.243,0,0,.957,3.547,7.459,3.547,7.159,0,3.417-3.547,3.417-3.547-3.9-.931-3.8-3.821-3.124-6.541Z" transform="translate(-149.423 -116.536)" fill="#ffc3bd"/>
      <path id="Path_13090" data-name="Path 13090" d="M179.106,156.449c-.521-.651-1.087-1.464.085-1.712,1.3-.267,8.377-.547,10.817-.039s1.744,1.894,1.744,1.894Z" transform="translate(-148.575 -122.435)" fill="#fff"/>
      <path id="Path_13091" data-name="Path 13091" d="M145.636,404.976a1.549,1.549,0,0,0,1.191-.065.462.462,0,0,0,.111-.527.514.514,0,0,0-.293-.332c-.651-.312-2.128.293-2.193.319a.114.114,0,0,0-.007.208A5.971,5.971,0,0,0,145.636,404.976Zm.775-.768.137.046a.3.3,0,0,1,.169.2c.065.2,0,.267-.039.286-.254.221-1.211,0-1.881-.254a3.788,3.788,0,0,1,1.614-.273Z" transform="translate(-136.662 -210.047)" fill="#d72027"/>
      <path id="Path_13092" data-name="Path 13092" d="M144.467,403.888h.052c.547-.156,1.7-.983,1.712-1.523a.364.364,0,0,0-.286-.365.612.612,0,0,0-.5.039c-.651.325-1.041,1.647-1.061,1.705a.111.111,0,0,0,0,.111.13.13,0,0,0,.085.033Zm1.354-1.692h.046c.143.046.143.117.143.143,0,.319-.775.963-1.3,1.23a2.747,2.747,0,0,1,.872-1.347.41.41,0,0,1,.241-.026Z" transform="translate(-136.657 -209.349)" fill="#d72027"/>
      <path id="Path_13093" data-name="Path 13093" d="M199.638,408.493c.618,0,1.211-.085,1.406-.358a.43.43,0,0,0,0-.495.579.579,0,0,0-.364-.267c-.794-.215-2.467.735-2.532.781a.1.1,0,0,0-.059.117.117.117,0,0,0,.091.091,8.643,8.643,0,0,0,1.458.131Zm.762-.924a.75.75,0,0,1,.215,0,.319.319,0,0,1,.221.156c.085.143.052.215,0,.254-.221.306-1.432.312-2.324.189a5.122,5.122,0,0,1,1.887-.6Z" transform="translate(-155.413 -211.226)" fill="#d72027"/>
      <path id="Path_13094" data-name="Path 13094" d="M198.18,407.751h.046c.579-.26,1.725-1.3,1.634-1.835,0-.13-.111-.286-.417-.319a.866.866,0,0,0-.651.2,3.274,3.274,0,0,0-.742,1.842.111.111,0,0,0,.046.1.123.123,0,0,0,.084.012Zm1.172-1.953h.065c.2,0,.215.1.221.124.052.325-.722,1.139-1.3,1.49a2.7,2.7,0,0,1,.651-1.471.651.651,0,0,1,.365-.13Z" transform="translate(-155.399 -210.615)" fill="#d72027"/>
      <path id="Path_13095" data-name="Path 13095" d="M140.122,403.187l-5.252-1.133a.4.4,0,0,0-.462.234l-1.822,3.951a.7.7,0,0,0,.5.976c1.842.371,2.753.456,5.064.957,1.419.306,4.628,1.087,6.587,1.51s2.636-1.458,1.874-1.809c-3.43-1.569-4.862-2.948-5.793-4.231A1.178,1.178,0,0,0,140.122,403.187Z" transform="translate(-132.521 -209.377)" fill="#263238"/>
      <path id="Path_13096" data-name="Path 13096" d="M193.942,407.89h-5.207a.423.423,0,0,0-.41.325l-.944,4.25a.7.7,0,0,0,.69.846c1.881,0,4.608-.137,6.971-.137,2.773,0,5.161.15,8.409.15,1.953,0,2.506-1.985,1.686-2.167-3.742-.814-6.795-.9-10.03-2.9a2.22,2.22,0,0,0-1.165-.371Z" transform="translate(-151.669 -211.418)" fill="#263238"/>
      <path id="Path_13097" data-name="Path 13097" d="M200.11,149.443c3.71-.384,7.55-.872,11.266-1.458a70.105,70.105,0,0,0,10.791-2.408c.41-.137.8-.286,1.191-.443a7.41,7.41,0,0,0,.937-.456c.716-.4,1.5-.892,2.272-1.406,1.549-1.035,3.124-2.128,4.68-3.254l9.444-6.788,2.4,2.675c-2.656,2.935-5.422,5.721-8.331,8.409-1.458,1.341-2.942,2.669-4.556,3.944a25.338,25.338,0,0,1-2.545,1.894,13.713,13.713,0,0,1-1.621.95c-.508.241-1.015.469-1.516.651a46.211,46.211,0,0,1-5.962,1.953c-1.953.534-3.951.957-5.923,1.334a111.762,111.762,0,0,1-11.943,1.627Z" transform="translate(-156.119 -115.038)" fill="#ffc3bd"/>
      <path id="Path_13098" data-name="Path 13098" d="M161.338,157.921c-4.484,1.028-12.008,23.281-12.008,23.281l7.322,2.434s7.472-11.065,10.01-16.408C169.292,161.631,165.92,156.867,161.338,157.921Z" transform="translate(-138.39 -123.701)" fill="#263238"/>
      <path id="Path_13099" data-name="Path 13099" d="M157.3,194.542s-7.159-1.367-8.806-2.382c-.573.827-1.3,3.84-.794,4.725s7.159,2.174,8.051,1.647S157.3,194.542,157.3,194.542Z" transform="translate(-137.76 -135.753)" fill="#505a5e"/>
      <path id="Path_13100" data-name="Path 13100" d="M194.569,157.574s5.083,5.747.28,41.33H169.277c-.176-3.9,2.291-23.08-1.5-41.577a66.748,66.748,0,0,1,8.559-1.08,94.659,94.659,0,0,1,10.876,0,48.035,48.035,0,0,1,7.355,1.328Z" transform="translate(-144.831 -123.12)" fill="#263238"/>
      <path id="Path_13101" data-name="Path 13101" d="M193.748,163.727c4.589,4.732,27.59-4.706,27.59-4.706l-3.69-7.1s-14.384,2.987-20.294,2.87C190.064,154.641,190.279,160.127,193.748,163.727Z" transform="translate(-153.083 -121.564)" fill="#263238"/>
      <path id="Path_13102" data-name="Path 13102" d="M230,150.915s3.664,6.32,3.957,8.214c1.009-.1,3.742-1.543,4.1-2.493s-3.04-6.821-4.029-7.159S230,150.915,230,150.915Z" transform="translate(-166.555 -120.696)" fill="#505a5e"/>
      <path id="Path_13103" data-name="Path 13103" d="M262.23,131.274l3.254-3.834,3.5,3.9s-2.161,3.625-5.591,3.053Z" transform="translate(-177.808 -113.017)" fill="#ffc3bd"/>
      <path id="Path_13104" data-name="Path 13104" d="M271.82,124.66l3.157,1.809-4.2,3.886-3.508-3.886Z" transform="translate(-179.567 -112.046)" fill="#ffc3bd"/>
      <path id="Path_13105" data-name="Path 13105" d="M179.38,127.648c1.23,4.589,1.718,7.329,4.556,9.236,4.257,2.87,9.555-.423,9.717-5.278.15-4.374-1.881-11.136-6.8-12.06a6.47,6.47,0,0,0-7.472,8.1Z" transform="translate(-148.797 -110.218)" fill="#ffc3bd"/>
      <path id="Path_13106" data-name="Path 13106" d="M185.887,105.28c3.254,6.847-13.636,3.053-13.753,9.268h0v.722c-.482-.449-1.451-.944-3.124-.267a7.218,7.218,0,0,1,2.6,1.7c-.651.553-1.64.846-1.217,3.5.2,1.3,1.5,3.254,3.183,4.986.735,1.178,3.124,3.853,3.079,4.5a2.6,2.6,0,0,0,1.061-.221,1.7,1.7,0,0,1,.137.775c.885.169,1.582.046,1.66-.566.722.065,1.243-.13,1.269-.709.69.1,1.165-.124,1.133-.866,1.64-.9,2.2-2.792,2.5-4.907a10.765,10.765,0,0,1,3.755-6.86C191.484,113.676,192.786,109.5,185.887,105.28Z" transform="translate(-145.261 -105.28)" fill="#263238"/>
      <path id="Path_13107" data-name="Path 13107" d="M189.585,130.472a5.344,5.344,0,0,0,1.953,2.851c1.25.924,2.174,0,2.089-1.393-.078-1.3-.827-3.254-2.2-3.651S189.227,129.093,189.585,130.472Z" transform="translate(-152.415 -113.283)" fill="#ffc3bd"/>
      <path id="Path_13108" data-name="Path 13108" d="M175.222,221.856s-5.428,36.533-8.4,50.2c-3.254,14.97-20.71,63.055-20.71,63.055l-8.559-1.855s13.063-44.994,14.924-59.84c2.018-16.109,6.248-51.587,6.248-51.587Z" transform="translate(-134.277 -146.457)" fill="#d72027"/>
      <path id="Path_13109" data-name="Path 13109" d="M175.222,221.856s-5.428,36.533-8.4,50.2c-3.254,14.97-20.71,63.055-20.71,63.055l-8.559-1.855s13.063-44.994,14.924-59.84c2.018-16.109,6.248-51.587,6.248-51.587Z" transform="translate(-134.277 -146.457)" opacity="0.5"/>
      <path id="Path_13110" data-name="Path 13110" d="M187.3,241.842c-6.274,1.23-5.61,24.629-4.855,36.663,1.809-8.507,4.458-24.876,6.268-36.494a2.141,2.141,0,0,0-1.412-.169Z" transform="translate(-149.787 -153.201)" opacity="0.3"/>
      <path id="Path_13111" data-name="Path 13111" d="M200.355,221.87s.651,35.752.137,50.331c-.54,15.165-5.858,64.826-5.858,64.826h-8.077s-.3-48.775-.651-63.667c-.4-16.272-2.356-51.49-2.356-51.49Z" transform="translate(-150.337 -146.471)" fill="#d72027"/>
      <path id="Path_13112" data-name="Path 13112" d="M200.355,221.87s.651,35.752.137,50.331c-.54,15.165-5.858,64.826-5.858,64.826h-8.077s-.3-48.775-.651-63.667c-.4-16.272-2.356-51.49-2.356-51.49Z" transform="translate(-150.337 -146.471)" opacity="0.5"/>
      <path id="Path_13113" data-name="Path 13113" d="M197.961,332.639h0a.078.078,0,0,1-.072-.091c1.425-13.733,4.79-46.979,5.207-58.922.436-12.2.046-39.494-.091-47.571a.085.085,0,0,1,.085-.085h0a.078.078,0,0,1,.078.078c.137,8.077.527,35.381.091,47.584-.423,11.95-3.788,45.2-5.207,58.935a.078.078,0,0,1-.091.072Z" transform="translate(-155.343 -147.902)" fill="#fafafa" opacity="0.2"/>
      <path id="Path_13114" data-name="Path 13114" d="M147.831,390.517c.039,0-1.6,3.092-1.6,3.092l-9.626-2.083.807-2.9Z" transform="translate(-133.949 -204.693)" fill="#263238"/>
      <path id="Path_13115" data-name="Path 13115" d="M197.33,393.84c.039,0-.456,3.365-.456,3.365h-9.848l-.267-3Z" transform="translate(-151.458 -206.512)" fill="#263238"/>
    </g>
  </g>
</svg>
