<svg xmlns="http://www.w3.org/2000/svg" width="16" height="15" viewBox="0 0 16 15">
  <path id="insert-picture-icon" d="M14.191,9.35H1.81A1.812,1.812,0,0,0,0,11.161V22.541A1.811,1.811,0,0,0,1.81,24.35H14.191A1.81,1.81,0,0,0,16,22.541V11.161A1.811,1.811,0,0,0,14.191,9.35Zm-3.845,2.693A1.748,1.748,0,1,1,8.6,13.791,1.748,1.748,0,0,1,10.346,12.043Zm3.277,10.634h-11a.494.494,0,0,1-.48-.78l3-5.942a.505.505,0,0,1,.925-.086l3.016,3.942a.739.739,0,0,0,1.145.073l.738-.747a.7.7,0,0,1,1.115.094L14,21.96C14.273,22.356,14.106,22.677,13.624,22.677Z" transform="translate(0 -9.35)" fill="#fff"/>
</svg>
