<svg xmlns="http://www.w3.org/2000/svg" width="20" height="20" viewBox="0 0 20 20">
  <path id="instagram-icon" d="M8.375,3.225h8.451A5.771,5.771,0,0,1,22.6,9V17.45a5.771,5.771,0,0,1-5.775,5.775H8.375A5.771,5.771,0,0,1,2.6,17.45V9A5.771,5.771,0,0,1,8.375,3.225ZM8.187,5.192a3.6,3.6,0,0,0-3.616,3.62v8.827a3.6,3.6,0,0,0,3.616,3.615h8.827a3.6,3.6,0,0,0,3.615-3.615V8.812a3.6,3.6,0,0,0-3.616-3.62ZM17.857,6.7a1.364,1.364,0,0,1,.868.4,1.221,1.221,0,1,1-1.733,0,1.364,1.364,0,0,1,.865-.4ZM12.6,8.2A5.049,5.049,0,1,1,9.055,9.68,4.98,4.98,0,0,1,12.6,8.2Zm0,2.019a3.035,3.035,0,0,0-2.113.892,2.867,2.867,0,0,0-.845,2.113A2.888,2.888,0,0,0,12.6,16.182a2.888,2.888,0,0,0,2.957-2.957,2.867,2.867,0,0,0-.845-2.113A3.035,3.035,0,0,0,12.6,10.22Z" transform="translate(-2.6 -3.225)" fill="#4990e1"/>
</svg>
