<svg xmlns="http://www.w3.org/2000/svg" width="373" height="65" viewBox="0 0 373 65">
  <g id="Logo" transform="translate(-405 -136)">
    <text id="Enterprise_Modernization_and_Innovation_Programme_EMIP_" data-name="Enterprise Modernization and
Innovation Programme (EMIP)" transform="translate(496 163)" fill="#4990e1" font-size="18" font-family="Montserrat-SemiBold, Montserrat" font-weight="600"><tspan x="0" y="0">Enterprise Modernization and</tspan><tspan x="0" y="24">Innovation Programme (EMIP)</tspan></text>
    <g id="UNIDO-Logo" transform="translate(6.833 346.333)">
      <g id="Group_4" data-name="Group 4" transform="translate(410.657 -209.333)">
        <path id="Path_1" data-name="Path 1" d="M472.6-184.881a20.975,20.975,0,0,0-26.76-12.791,20.972,20.972,0,0,0-12.794,12.791" transform="translate(-427.271 204.36)" fill="none" stroke="#4990e1" stroke-width="2"/>
        <path id="Path_2" data-name="Path 2" d="M437.758-136.244a21,21,0,0,0,29.19,5.417,20.988,20.988,0,0,0,5.419-5.417" transform="translate(-429.511 174.586)" fill="none" stroke="#4990e1" stroke-width="2"/>
        <path id="Path_3" data-name="Path 3" d="M472.057-180.308a15.95,15.95,0,0,0-21.332-7.323,15.949,15.949,0,0,0-7.325,7.323" transform="translate(-432.194 199.787)" fill="none" stroke="#4990e1" stroke-width="2"/>
        <path id="Path_4" data-name="Path 4" d="M450.469-136.244a15.949,15.949,0,0,0,21.273,0" transform="translate(-435.554 174.586)" fill="none" stroke="#4990e1" stroke-width="2"/>
        <path id="Path_5" data-name="Path 5" d="M471.446-175.368a10.5,10.5,0,0,0-14.825-.82,10.438,10.438,0,0,0-.82.82" transform="translate(-438.089 194.848)" fill="none" stroke="#4990e1" stroke-width="2"/>
        <path id="Path_6" data-name="Path 6" d="M441.876-136.244l-6.847,6.845,6.847-6.845" transform="translate(-428.214 174.586)" fill="none" stroke="#4990e1" stroke-width="2"/>
        <path id="Path_7" data-name="Path 7" d="M470.714-136.244h0" transform="translate(-445.179 174.586)" fill="none" stroke="#4990e1" stroke-width="2"/>
        <path id="Path_8" data-name="Path 8" d="M493.345-136.244l6.847,6.845-6.847-6.845" transform="translate(-455.938 174.586)" fill="none" stroke="#4990e1" stroke-width="2"/>
        <path id="Path_9" data-name="Path 9" d="M425.6-136.244a26.49,26.49,0,0,0,35.554,11.788,26.484,26.484,0,0,0,11.79-11.788" transform="translate(-423.733 174.586)" fill="none" stroke="#4990e1" stroke-width="2"/>
        <path id="Path_10" data-name="Path 10" d="M446.756-182.824l-11.727-11.724,11.727,11.724" transform="translate(-428.214 202.304)" fill="none" stroke="#4990e1" stroke-width="2"/>
        <path id="Path_11" data-name="Path 11" d="M447.571-189.853v-19.48a26.48,26.48,0,0,0-25.533,19.48" transform="translate(-422.038 209.333)" fill="none" stroke="#4990e1" stroke-width="2"/>
        <path id="Path_12" data-name="Path 12" d="M484.044-182.824l11.727-11.724-11.727,11.724" transform="translate(-451.516 202.304)" fill="none" stroke="#4990e1" stroke-width="2"/>
        <path id="Path_13" data-name="Path 13" d="M496.277-189.853a26.48,26.48,0,0,0-25.533-19.48h0v19.48" transform="translate(-445.193 209.333)" fill="none" stroke="#4990e1" stroke-width="2"/>
      </g>
      <g id="Group_3" data-name="Group 3" transform="translate(398.167 -207.853)">
        <path id="Path_14" data-name="Path 14" d="M538.33-129.3" transform="translate(-464.867 169.805)" fill="#4990e1"/>
        <path id="Path_15" data-name="Path 15" d="M494.191-111.9a5.181,5.181,0,0,1-2,.244,10.5,10.5,0,0,1,1.984-.65c3.708-1.4,4.277-5.366,6.31-8.1-2.586,1.723-4.733,4.081-7.159,6.29a12.062,12.062,0,0,1-5.969,2.65c.52.2,1.2.146,1.773.293,3.921.976,8.246,2.5,12.409,1.122a12.373,12.373,0,0,0,6.847-5.642l-.016.016C504.795-111.608,498.956-112.91,494.191-111.9Z" transform="translate(-440.635 165.576)" fill="#4990e1"/>
        <path id="Path_16" data-name="Path 16" d="M511.395-123.724a10.5,10.5,0,0,1-2.2,1.5l-.032-.033a16.6,16.6,0,0,0,2.456-2.666c2.13-3.089,1.413-7.333,3.057-10.6a23.079,23.079,0,0,0-3.757,5.674c-1.383,3.285-1.854,7.041-4.961,9.545,3.351-1.106,7.237-.894,10.246-2.862,3.172-2.082,6.115-5.366,6.734-9.071C520.713-127.221,515.119-126.831,511.395-123.724Z" transform="translate(-449.479 172.766)" fill="#4990e1"/>
        <path id="Path_17" data-name="Path 17" d="M523.225-178.739a4.515,4.515,0,0,1-1.14-1.675,13.489,13.489,0,0,0,1.236,4.26c.016.017.016.049.033.066h2.618C525.11-177.016,524.118-177.877,523.225-178.739Z" transform="translate(-457.144 194.105)" fill="#4990e1"/>
        <path id="Path_18" data-name="Path 18" d="M524.715-186.558c.293-3.138.472-6.65-1.675-9.041l-.016-.017a7.278,7.278,0,0,0-3.546-2.374c2.651,1.838,2.521,5.105,3.334,7.837.293,1.008.732,1.935.976,2.975l-.065.049a8.749,8.749,0,0,0-2.2-3.219c-1.869-1.773-4.684-2.83-5.61-5.414.049,3.593,3.106,6.325,5.9,8.422a10.158,10.158,0,0,1,2.586,2.878h.309A11.292,11.292,0,0,1,524.715-186.558Z" transform="translate(-454.212 202.46)" fill="#4990e1"/>
        <path id="Path_19" data-name="Path 19" d="M536.777-180.483h0a12.893,12.893,0,0,0-3.09-8.146c-.049-.033-.1-.081-.163-.065,1.676,2.553.716,5.658.472,8.65h2.766A3.821,3.821,0,0,0,536.777-180.483Z" transform="translate(-462.583 198.043)" fill="#4990e1"/>
        <path id="Path_20" data-name="Path 20" d="M513.707-198.964c1.268,1.674,2.992,2.7,4.488,4.1-.8-1.674-.957-3.577-1.968-5.187-1.74-2.765-4.635-3.822-7.319-4.878h0C510.877-203.191,512.195-200.966,513.707-198.964Z" transform="translate(-450.88 205.76)" fill="#4990e1"/>
        <path id="Path_21" data-name="Path 21" d="M524.8-132.356a9.672,9.672,0,0,1-1.675,2.212,9.185,9.185,0,0,1,.715-1.368,10.225,10.225,0,0,0,.912-4.764h-2.407a45.872,45.872,0,0,1-.878,6.746,23.118,23.118,0,0,1-1.236,2.845c1.919-1.463,4.423-2.748,6.52-4.407a14.592,14.592,0,0,0,4.391-5.171h-2.96A23.128,23.128,0,0,0,524.8-132.356Z" transform="translate(-456.262 173.121)" fill="#4990e1"/>
        <path id="Path_22" data-name="Path 22" d="M531.209-135.61c.114-.211.244-.422.374-.634h-.471c-.033.26-.066.536-.1.8Z" transform="translate(-461.389 173.106)" fill="#4990e1"/>
        <path id="Path_23" data-name="Path 23" d="M475.573-100.407c-3.22-1.333-6.49-3.106-10.149-3.106-5.4,0-10.539,3.658-14.149,7.089h0a12.6,12.6,0,0,0,1.545,1.4c3.448-3.561,7.514-7.529,11.368-7.529,2.391,0,4.115,1.823,6.115,3.106,2.781,1.788,6.6,2.78,9.889,1.479a10.9,10.9,0,0,0,4.749-3.252A10.4,10.4,0,0,1,475.573-100.407Z" transform="translate(-423.458 157.545)" fill="#4990e1"/>
        <path id="Path_24" data-name="Path 24" d="M433.265-111.168c.569-.146,1.253-.1,1.773-.293a11.991,11.991,0,0,1-5.969-2.65c-2.424-2.211-4.57-4.569-7.159-6.291,2.033,2.732,2.6,6.7,6.31,8.1a10.954,10.954,0,0,1,1.985.65,5.5,5.5,0,0,1-2-.244c-4.765-1.008-10.6.293-14.18-3.772l-.017-.016a12.253,12.253,0,0,0,6.847,5.643C425.019-108.664,429.345-110.193,433.265-111.168Z" transform="translate(-405.698 165.574)" fill="#4990e1"/>
        <path id="Path_25" data-name="Path 25" d="M404.984-188.693c-.065-.017-.114.032-.163.065a12.846,12.846,0,0,0-3.09,8.13v.016a3.957,3.957,0,0,0,.016.439h2.765C404.269-183.035,403.293-186.14,404.984-188.693Z" transform="translate(-399.861 198.042)" fill="#4990e1"/>
        <path id="Path_26" data-name="Path 26" d="M411.531-187.339c2.8-2.114,5.854-4.829,5.9-8.422-.927,2.585-3.739,3.642-5.611,5.414a8.7,8.7,0,0,0-2.18,3.219l-.065-.049c.228-1.041.666-1.967.957-2.975.815-2.732.669-6.014,3.336-7.837a7.392,7.392,0,0,0-3.545,2.374l-.016.017c-2.163,2.391-1.968,5.9-1.692,9.041a15.034,15.034,0,0,1,0,2.1h.31A10.468,10.468,0,0,1,411.531-187.339Z" transform="translate(-403.057 202.46)" fill="#4990e1"/>
        <path id="Path_27" data-name="Path 27" d="M403.1-129.333" transform="translate(-400.51 169.82)" fill="#4990e1"/>
        <path id="Path_28" data-name="Path 28" d="M414.846-194.881c1.5-1.4,3.22-2.423,4.489-4.1,1.512-2,2.83-4.227,4.814-5.967v-.016c-2.684,1.057-5.578,2.114-7.319,4.877C415.8-198.458,415.643-196.555,414.846-194.881Z" transform="translate(-406.096 205.775)" fill="#4990e1"/>
        <path id="Path_29" data-name="Path 29" d="M409.832-123.205c3.009,1.984,6.9,1.756,10.246,2.862-3.106-2.5-3.578-6.26-4.961-9.545a22.616,22.616,0,0,0-3.739-5.674c1.641,3.268.927,7.512,3.057,10.6a15.317,15.317,0,0,0,2.456,2.666l-.032.033a10.5,10.5,0,0,1-2.2-1.5c-3.725-3.106-9.319-3.5-11.564-8.537C403.716-128.571,406.66-125.287,409.832-123.205Z" transform="translate(-400.512 172.782)" fill="#4990e1"/>
        <path id="Path_30" data-name="Path 30" d="M414.612-176.185a13.494,13.494,0,0,0,1.236-4.26,4.393,4.393,0,0,1-1.14,1.675c-.912.862-1.886,1.723-2.748,2.65h2.618C414.6-176.136,414.6-176.169,414.612-176.185Z" transform="translate(-404.724 194.119)" fill="#4990e1"/>
        <path id="Path_31" data-name="Path 31" d="M445.538-103.513c-3.659,0-6.93,1.773-10.149,3.106a10.381,10.381,0,0,1-9.352-.813,10.9,10.9,0,0,0,4.749,3.252c3.269,1.3,7.107.293,9.888-1.479,2-1.285,3.725-3.106,6.115-3.106,3.855,0,7.9,3.966,11.368,7.529a12.64,12.64,0,0,0,1.545-1.4h0C456.06-99.855,450.938-103.513,445.538-103.513Z" transform="translate(-411.439 157.545)" fill="#4990e1"/>
        <path id="Path_32" data-name="Path 32" d="M407.732-131.464a8.442,8.442,0,0,1,.716,1.368,10.032,10.032,0,0,1-1.676-2.211,22.985,22.985,0,0,0-3.366-3.9H400.43a14.779,14.779,0,0,0,4.391,5.17c2.1,1.658,4.6,2.959,6.52,4.407a23.123,23.123,0,0,1-1.236-2.845,45.268,45.268,0,0,1-.878-6.732h-2.405A10.2,10.2,0,0,0,407.732-131.464Z" transform="translate(-399.243 173.09)" fill="#4990e1"/>
        <path id="Path_33" data-name="Path 33" d="M409.928-135.447c-.032-.261-.065-.52-.1-.8h-.471c.13.211.26.422.374.634Z" transform="translate(-403.488 173.106)" fill="#4990e1"/>
        <path id="Path_34" data-name="Path 34" d="M441.034-206.512l-.26.163-.178-.114-.081.146.211.13.049.033.049-.033.292-.179-.081-.146m1.235.666-.212.179-.146-.146-.114.114.2.2.049.049.049-.049.276-.228-.1-.114m-1.852.474c-.13-.016-.309.049-.325.114-.032.114-.195.13-.195.13l-.617.065c-.049.163-.374.276-.407.163-.065-.244-.406.309-.049.407a1.277,1.277,0,0,0,.7,0l.081-.163,1.349.033a.96.96,0,0,0,.163-.276s.325-.114.455-.049.033-.39-.114-.325a1.153,1.153,0,0,1-.406.032h-.487c0-.081-.065-.114-.146-.13m-2.421.553-.357.13-.374.244-.406.049-.211.244.861.081.163.276.617.049.407.407c.357.114.438-.049.211-.244l-.357-.358v-.31l-.114-.114-.114-.39L438-204.82m10.741,3.317c-.228,0-.536.146-.5.31a.458.458,0,0,0,.357.325l.406.13s.5.6.487.293a1.078,1.078,0,0,0-.569-1.009.215.215,0,0,0-.178-.048m-12.528.146c-.032,0-.049.033-.065.1-.032.276-.195.276-.162.472s.114.488.211.52c.422.13.569.033.6-.081s.049-.13.212-.163-.033-.358-.2-.325a.31.31,0,0,1-.358-.2c0-.1-.162-.325-.244-.325m4.079.179-.114.244.146.065.114-.244-.146-.065m7.117.26-.081.13-.519.033-.033.163c-.276.13-1.349.032-1.381.114-.081.244-.114.569-.244.569s-.081.358-.081.358a2.136,2.136,0,0,1,.455.032c.114.033.114.293.114.293.406-.033.568.52.519.65s.163.13.163.13a2.072,2.072,0,0,1-.065.553c-.049.114.358.2.455.358a1,1,0,0,1-.129.748c-.081.033.211.114.195.244s.081,0,.114.228.081.684.081.684l.373.032c.049-.358.748-.374.862-.325a1.649,1.649,0,0,1,.812,1.041c0,.163-.292.2-.292.2l.049.8a1.305,1.305,0,0,1,.78.912c-.049.114.325.081.325.081.049-.488.52-.325.536-.163a4.765,4.765,0,0,0,.114.52l.13.244.2.2.292-.033.081.163.357.049a3.988,3.988,0,0,1,.325.407c.032.081.439.049.536.081s.276.114.292.244a1.519,1.519,0,0,0,.195.358s.324.081.357.2a2.341,2.341,0,0,0,.162.358l.276.212.033.243.292.033.081.325.487-.033.276-.2a1.4,1.4,0,0,0,.617-.553c.032-.114.081-.52.357-.439s.081-.6.081-.6-.374-.276-.358-.407-.373-.407-.357-.52-.357-.325-.325-.439-.195-.407-.195-.407l-.406-.39-.065-.244-.325-.033-.65-.8.033-.211-.195-.032v-.31l-.195-.114-.292-.032-.6-.65-.049-.293h-.292l.049-.585a1,1,0,0,0,.081-.716s-.374.2-.569.114.081-.276.081-.276v-.228l-.163-.163s-.455.049-.487-.033-.114-.439-.114-.439l-.033-.471-.195-.081-.033-.163-.292.032v-.325l-.162-.049-.163-.081-.037-.328-.585-.033-.195-.276-.211-.325-.667-.049-.162-.163-.26-.066-.162-.049m-6.614.017c-.016-.017-.163.2-.276.26.129.065.309.163.309.163a.352.352,0,0,1,.357.244c0,.081.292.049.292.049l.033-.2-.211-.276-.195-.13c-.017,0-.309-.033-.309-.114h0m-.276.243c-.13-.065-.212-.1-.081,0a.074.074,0,0,0,.081,0m-.911-.065-.016.163.228.033.163.26.13-.081-.179-.293-.016-.033h-.033l-.276-.049m-6.241.684c-.146,0-.276.033-.276.081.033.13.244.293.244.293s.407.033.439.114.292.114.325.033.13-.244-.114-.244-.195-.13-.276-.211a.517.517,0,0,0-.341-.065m6.857.276v.244l.292.033-.081-.228-.212-.049m1.316,1.268c-.032,0-.049.016-.049.032,0,.081.114.081.163.244s.032.439.276.488.292.114.325.211.325.13.325.13l.211.114.65.553v-.212s-.033-.211-.162-.211-.374-.163-.325-.276-.456-.211-.456-.211-.455-.439-.292-.39.081-.2.081-.2a1.707,1.707,0,0,1-.407.033c-.081-.033-.049-.276-.049-.276a1.95,1.95,0,0,0-.292-.033m-14.851.211-.114.114.163.163.114-.114-.162-.163m18.037,1.2a.109.109,0,0,0-.081.065c-.049.163-.162.276,0,.358s.13-.13.325.049.536.439.406.6a.754.754,0,0,1-.292.212l.195.211h.292l.049.471s.325.163.407.358.081.31,0,.407a.714.714,0,0,0-.212.488.417.417,0,0,0,.244.276l.212.033.163.081v.358c.211-.049.569.244.536.439s.049.081.325.276.195.211.373.358.358.049.439-.2l.195-.6c-.276-.049-.211-.358-.211-.358-.033-.244-.406-.52-.536-.439s-.081-.585-.081-.585.244-.163.358-.081-.911-1.368-1.139-1.236-.7-.13-.667-.39-.975-1.073-.975-1.073a.86.86,0,0,0-.324-.081m-.536.585s-.033.211-.212.13a.538.538,0,0,0-.244-.081c-.162-.033-.114.358-.081.471a4.757,4.757,0,0,0-.13.553c-.016.163.325.163.439.13a.664.664,0,0,0,.244-.585c-.049-.2.211-.276.357-.049l.276-.033.049-.244-.374-.292h-.325m-12.588,3.332-.1.13.162.13.1-.13-.162-.13m-.617.114.033.309h.406c.162,0-.13-.2-.13-.2s-.341.016-.309-.114m17.956.049-.162.016.032.244.163-.016-.033-.244m-.228.716-.341.228-.357.472c0,.358.195.2.357.2s-.049.634.374.569.033.2.357.211.244-.243.358-.439.049-.293-.13-.358-.195-.049-.244-.276a.4.4,0,0,0-.276-.276l-.1-.325m1.367.342a.075.075,0,0,0-.066.081c0,.114.13.163.081.309a.169.169,0,0,0,.084.223l.014.005a.1.1,0,0,0,.065.016.585.585,0,0,1,.292.114,1,1,0,0,1,.276.244l.276-.081s.032-.276-.081-.2-.2-.2-.292-.163-.163-.114-.276-.244-.081-.163-.211-.244a.26.26,0,0,0-.163-.065m.8,1.2-.325.032c.081.114.244.2.244.309s-.049.2.114.212.276-.033.324.114a.917.917,0,0,1,.032.471c-.032.114.033.276.163.276s.163.033.163.114.162-.309.162-.309a1.385,1.385,0,0,1-.244-.358,4.437,4.437,0,0,1-.13-.439c0-.049-.195-.114-.276-.13s-.227-.292-.227-.292m-2.568.114-.276.032.016.163.276-.033-.017-.163m.179.2v.13h.162v-.13h-.162m1.852.032s-.292.049-.276.212-.439.163-.65.276l.211.293.081.276.65-.033s-.2-.13.114-.211a.966.966,0,0,1,.211-.049l-.016-.293-.244-.163-.081-.309m.357.78h0m-2.438-.553a.425.425,0,0,1-.488.114s-.049.52-.211.634h-.374a1.03,1.03,0,0,0,.163.211c.081.081.276.244.081.358s.033.081.033.081a1.4,1.4,0,0,1-.033.26h.276c-.081-.114.162-.146.195-.146s.292-.2.195-.325,0-.39,0-.276.292.163.357.081a.39.39,0,0,0-.129-.407c-.13-.081.244-.13.129-.276a.714.714,0,0,1-.195-.309m.536.829v.2h.163v-.2h-.163m.374.1-.081.163.146.065.081-.163-.146-.066m.911.033a.4.4,0,0,0-.309.228l-.439.049v.422h1.822l-.136-.262h-.358c.017-.016-.016-.065-.26-.309a.452.452,0,0,0-.325-.13m-7.653.065c-.049,0-.081.016-.065.081.032.163-.2.244-.244.2s-.212.163-.212.163c0,.065-.032.163.049.195h.309a.342.342,0,0,1,.178,0h2.1c-.114-.146-.26-.26-.324-.195-.13.114-.163,0-.407.081s-.764.033-.78-.081-.406-.163-.406-.276a.327.327,0,0,0-.195-.163m9.376.114c-.066.016.049.325-.017.374a1.036,1.036,0,0,0-.129.146h.39a.659.659,0,0,0-.017-.178c-.049-.114-.049-.244-.2-.325a.054.054,0,0,0-.032-.016m-37.471,19.4.162.439.114.244.212.309.292.276.114-.2-.179-.407-.195-.146-.13-.39-.292-.146-.1.016m2.616,0a.758.758,0,0,0,.162.081l.374-.033v-.065l-.536.016m.747,0a.55.55,0,0,1,.179.276c0,.163.731.8.731.8l.731.163.683.553.519-.049h.212c.129-.471.78.033.829.2s.487.439.536.309.357-.049.406.358.244.325.244.325l1.544-.033.536-.471,1.382-.033c.7-.033.276-.992.129-.992-.244-.2.081-.992.081-.992l-.439-.407h-8.3m14.9,0-.016.114-.163.114v.244l-.195.049v.13l-.276.033.162.407.211.114c.374.049.211.52.211.52l.212.032.114.31.211.439c.081.325.325.244.439.228s.212.325.212.325l1.072.033s-.049.114.129.163a5.719,5.719,0,0,0,1.479.033c-.049-.244.667-.309.975-.081a.82.82,0,0,0,.7.081l.406.488.276.6.455.13.324.081.114.472.244.032.081.309c.292.228-.081.684-.081.684v.6l.211.114-.033.228.358.358.406.032,1.04,1.106.813.244.129.439.212-.033.162-.13.65-.033.325-.309.357-.049,3.006-2.553-.276-.163v-.6c.487-.358.519-.992.049-1.041-.341-.033-.195-.407.129-.471l.2-.081v-.244l.617-.569v-.439l-1.351-1.121c-.455-.163-.227-.957.081-1.317l-14.381-.051m17.55.1a.017.017,0,0,0-.017.016h0c-.049.114-.406.033-.406.13s-.211.65-.114.846-.081.2-.114.39-.292.52-.244.684l.244.114.033.471c.325.325,1.381.049,1.381-.033s-.049-1.008-.049-1.008l-.129-.13-.032-.684c.1-.358-.439-.829-.552-.8m-1.4.894c-.033,0-.081.033-.081.065-.049.212-.244.325-.357.244s.13.13.195.244a.16.16,0,0,0,.22.054l.008-.005.049-.049c.049-.114.032-.358.081-.471.033-.049-.049-.1-.114-.081m-16.526,3.675-.162.13-.081.065.081.066.195.13.1-.13-.1-.081.081-.065-.114-.114M434.143-163l-.065.146.162.081-.049.066.114.114.13-.146.081-.081-.1-.049-.276-.13m-13.7,1.4.211.325.032.244.276.081.114.163.195-.114-.129-.358-.358-.309-.341-.033m41.843-17.545c0-2.537.828-5.268,3.445-5.252,2.876.033,3.591,2.715,3.591,5.252s-.715,5.414-3.591,5.414c-2.795,0-3.445-3.024-3.445-5.414m3.447,9.01c5.574.033,8.434-4.065,8.434-9.008s-3.038-8.878-8.434-8.878-8.417,3.951-8.417,8.894,3.055,8.991,8.417,8.991m-20.377-13.839h1.462c3.038,0,4.712,1.626,4.712,4.732,0,3.431-1.332,4.748-4.712,4.813h-1.462Zm-4.843,13.383h7.361c5.184,0,8.417-3.009,8.417-8.617,0-5.3-3.168-8.358-8.417-8.358H440.53l-.016,16.975m-7.133-16.977h4.81v16.894h-4.81Zm-17.7-.032h6.629l4.68,10.895-.033-10.813,4.127-.032v16.828h-6.207l-4.68-10.535v10.5h-4.518V-187.6m-2.308,9.935c0,4.96-2.453,7.415-7.637,7.415s-7.572-2.456-7.572-7.415v-9.918H402.9v10.179c0,2.195.731,3.48,2.909,3.48s2.973-1.268,2.973-3.48v-10.211h4.615l-.016,9.951" transform="translate(-398.167 206.512)" fill="#4990e1"/>
      </g>
    </g>
  </g>
</svg>
