<svg xmlns="http://www.w3.org/2000/svg" xmlns:xlink="http://www.w3.org/1999/xlink" width="60" height="60" viewBox="0 0 60 60">
  <defs>
    <linearGradient id="linear-gradient" x1="0.5" x2="0.5" y2="1" gradientUnits="objectBoundingBox">
      <stop offset="0" stop-color="#4990e1"/>
      <stop offset="1" stop-color="#79b1f1"/>
    </linearGradient>
  </defs>
  <g id="manage-everything-easily-icon" transform="translate(-226 -225.965)">
    <path id="Path_5910" data-name="Path 5910" d="M254.77,226.411c-.446.246-1.922,1.09-3.27,1.875l-2.449,1.418h-3.7c-3.375,0-3.75.024-4.2.223-.574.27-.41.023-2.589,3.809L236.8,236.76l-3.024,1.758c-3.785,2.181-3.539,2.016-3.808,2.591-.2.445-.223.809-.223,4.184V249l-1.594,2.743c-1.968,3.4-2.156,3.774-2.156,4.219s.176.786,2.156,4.22l1.594,2.754v3.692c0,3.376.023,3.739.223,4.185.269.574.023.41,3.808,2.59l3.024,1.758,1.758,3.024c2.179,3.786,2.015,3.54,2.589,3.81.446.2.821.222,4.2.222h3.7l2.742,1.594c3.387,1.969,3.762,2.157,4.207,2.157s.832-.188,4.219-2.157l2.754-1.594h3.691c3.363,0,3.738-.023,4.184-.222.574-.27.41-.024,2.59-3.8l1.746-3.024,3.152-1.829c1.734-1,3.223-1.875,3.316-1.945a2.3,2.3,0,0,0,.375-.61c.2-.422.223-.844.223-4.161v-3.692l1.594-2.754c1.98-3.434,2.156-3.774,2.156-4.22s-.176-.785-2.156-4.219l-1.594-2.755v-3.692c0-3.317-.023-3.739-.223-4.161a2.027,2.027,0,0,0-.375-.6c-.093-.082-1.582-.961-3.316-1.957l-3.152-1.828-1.746-3.024c-2.18-3.775-2.016-3.528-2.59-3.8-.446-.2-.821-.223-4.184-.223h-3.691l-2.754-1.594C255.906,225.614,256.105,225.672,254.77,226.411Zm3.925,12.963a6.637,6.637,0,0,1,4.512,4.688,12.349,12.349,0,0,1,.176,2.6v1.91h2.789c3.047,0,3.668.094,4.758.68a5.641,5.641,0,0,1,2.765,5.567c-.058.4-.609,2.942-1.207,5.65a45.125,45.125,0,0,1-1.406,5.509,5.64,5.64,0,0,1-3.387,2.8c-.668.176-1.875.2-13.2.164l-12.457-.035-.469-.492-.457-.493V259.8c0-7.9.012-8.135.235-8.51a2.141,2.141,0,0,1,.609-.609c.363-.223.6-.235,4.207-.235h3.82l.692-.633a5.3,5.3,0,0,0,1.008-1.207c.6-1.09.679-1.688.679-4.981,0-3.2.047-3.54.563-4,.539-.481,1.031-.563,3.129-.5A12.174,12.174,0,0,1,258.7,239.374Z" fill="url(#linear-gradient)"/>
    <path id="Path_5911" data-name="Path 5911" d="M255.848,245.07c-.059,2.825-.153,3.329-.9,4.853a8.344,8.344,0,0,1-2.215,2.8l-.6.446v12.283h7.277c6.528,0,7.324-.023,7.688-.2.785-.363.879-.645,2.086-6.107,1.23-5.567,1.23-5.567.574-6.352-.551-.645-.528-.645-4.758-.7-3.75-.058-3.961-.07-4.266-.3-.808-.6-.8-.575-.867-3.95a23.515,23.515,0,0,0-.2-3.388,3.886,3.886,0,0,0-1.523-1.523,5.046,5.046,0,0,0-1.36-.282l-.879-.082Z" fill="#3e74b3"/>
    <path id="Path_5912" data-name="Path 5912" d="M244.574,259.71v5.743h4.043V253.967h-4.043Z" fill="#3e74b3"/>
  </g>
</svg>
