<svg xmlns="http://www.w3.org/2000/svg" width="248" height="238.001" viewBox="0 0 248 238.001">
  <g id="no-assigned-vector" transform="translate(-9960.11 16133.755)">
    <g id="freepik--Shadow--inject-2" transform="translate(9960.11 -15910.248)">
      <ellipse id="freepik--path--inject-2" cx="124" cy="7.247" rx="124" ry="7.247" transform="translate(0 0)" fill="#f5f5f5"/>
    </g>
    <path id="Path_15925" data-name="Path 15925" d="M246.506,88.625S305.763,75.27,331.544,76.82l12.5,146.273s-19.616-5.122-38.412-1.536c-19.332,3.68-59.132,10.108-59.132,10.108Z" transform="translate(9835.241 -16196.721)" fill="#0761ce"/>
    <path id="Path_15927" data-name="Path 15927" d="M254.568,81.542s32.221-13.348,52.624-14.507L327.73,65.87l11.684,148.27s-19.136-7.772-38.758-2.958S255.8,224.364,247.18,227.469V84.263Z" transform="translate(9834.997 -16192.826)" fill="#d72027"/>
    <path id="Path_15930" data-name="Path 15930" d="M194.49,82.479S139.311,62.287,113.7,60.77L100.72,216.684s19.961-5.307,38.54-1.357,55.24,10.608,55.24,10.608Z" transform="translate(9887.949 -16190.991)" fill="#d72027"/>
    <path id="Path_15932" data-name="Path 15932" d="M192.417,77.126s-30.589-16.107-49.859-18.988L123.231,55.25,112.29,201.523s17.958-5.864,36.44.845,42.509,17.6,50.723,21.581V80.493Z" transform="translate(9883.786 -16189.005)" fill="#d72027"/>
    <path id="Path_15924" data-name="Path 15924" d="M247,84.917l87.515-17.285a4.065,4.065,0,0,1,4.866,3.508l15.6,151.413a4.027,4.027,0,0,1-4,4.392L247,228.373Z" transform="translate(9835.062 -16193.429)" fill="#d72027"/>
    <path id="Path_15926" data-name="Path 15926" d="M246.506,88.625S305.763,75.27,331.544,76.82l12.5,146.273s-19.616-5.122-38.412-1.536c-19.332,3.68-59.132,10.108-59.132,10.108Z" transform="translate(9835.241 -16196.721)" fill="#fff" opacity="0.7"/>
    <path id="Path_15928" data-name="Path 15928" d="M254.745,81.542s32.228-13.348,52.631-14.507L327.92,65.87,339.6,214.14s-19.142-7.772-38.758-2.958-44.852,13.182-53.476,16.287V84.263Z" transform="translate(9834.928 -16192.826)" fill="#fff" opacity="0.8"/>
    <path id="Path_15929" data-name="Path 15929" d="M187.84,84.921,102.265,67.636A4,4,0,0,0,97.5,71.144L82.259,222.57a3.995,3.995,0,0,0,3.912,4.392l101.676,1.415Z" transform="translate(9894.599 -16193.434)" fill="#d72027"/>
    <path id="Path_15931" data-name="Path 15931" d="M194.49,82.479S139.311,62.287,113.7,60.77L100.72,216.684s19.961-5.307,38.54-1.357,55.24,10.608,55.24,10.608Z" transform="translate(9887.949 -16190.991)" fill="#fff" opacity="0.6"/>
    <path id="Path_15933" data-name="Path 15933" d="M192.417,77.126s-30.589-16.107-49.859-18.988L123.231,55.25,112.29,201.523s17.958-5.864,36.44.845,42.509,17.6,50.723,21.581V80.493Z" transform="translate(9883.786 -16189.005)" fill="#fff" opacity="0.7"/>
    <g id="Group_9036" data-name="Group 9036" transform="translate(10106.891 -16081.206)">
      <path id="Path_16077" data-name="Path 16077" d="M62.192,281.44a25.453,25.453,0,0,0-9.04,6.639c-4.245,4.558-7.766,10.883-5.845,16.824.909,2.81,3.924,5.422,6.613,4.206,2.081-.941,2.721-3.579,2.785-5.858s-.154-4.757,1.12-6.658c1.6-2.394,5.218-2.868,7.734-1.46a9.509,9.509,0,0,1,4.366,7.113,13.585,13.585,0,0,1-2.215,9.4c-1.607,2.362-3.982,4.238-5.045,6.889-1.434,3.56-.173,7.574,1.1,11.2a1.524,1.524,0,0,0,.333.64,1.281,1.281,0,0,0,.64.275,4.481,4.481,0,0,0,5.09-4.4c-.077-1.5-.935-2.874-1-4.373-.122-2.971,2.7-5.064,4.763-7.2,5.627-5.858,6.479-14.757,6.236-22.874a15.879,15.879,0,0,0-1.223-6.62C76.085,280.051,66.827,279.584,62.192,281.44Z" transform="translate(-46.77 -280.445)" fill="#f8d9db"/>
      <path id="Path_16078" data-name="Path 16078" d="M78.805,363.244a5.474,5.474,0,0,0-3.521,6.6,5.858,5.858,0,0,0,6.517,3.88,5.96,5.96,0,0,0,4.059-2.983,5.6,5.6,0,0,0-.749-6.4C83.53,362.719,78.805,363.244,78.805,363.244Z" transform="translate(-56.962 -310.207)" fill="#f8d9db"/>
    </g>
    <g id="freepik--Character--inject-2" transform="translate(10036.55 -16071.348)">
      <g id="freepik--group--inject-2">
        <path id="Path_16035" data-name="Path 16035" d="M216.845,193.094a3.2,3.2,0,0,1,5.73,2.862v.051c-1.146,2.369-2.279,4.859-3.355,7.3s-2.106,4.917-2.939,7.375c-.218.64-.4,1.223-.583,1.837l-.1.333a.493.493,0,0,0-.045.166,2.561,2.561,0,0,0-.038.538,11.32,11.32,0,0,0,.73,3.2,56.472,56.472,0,0,0,3.329,7.106l.038.07a1.6,1.6,0,0,1-2.561,1.882,31.888,31.888,0,0,1-5.358-6.978,15.039,15.039,0,0,1-1.748-4.661,8.2,8.2,0,0,1-.1-1.536,7.274,7.274,0,0,1,.2-1.53c.16-.723.32-1.453.512-2.151A70.19,70.19,0,0,1,213.3,200.8c1.076-2.631,2.215-5.179,3.553-7.746Z" transform="translate(-187.971 -166.616)" fill="#cb7a63"/>
        <path id="Path_16036" data-name="Path 16036" d="M221.672,241.981l-.448.333a1.28,1.28,0,0,0-.493,1.408,6.2,6.2,0,0,0,1.69,2.618l3.137-3.745-2.7-.819a1.325,1.325,0,0,0-1.191.2Z" transform="translate(-191.869 -184.748)" fill="#cb7a63"/>
        <path id="Path_16037" data-name="Path 16037" d="M226.557,243.09l-3.137,3.745,3.508,1.242,3.367-2.74Z" transform="translate(-192.855 -185.243)" fill="#cb7a63"/>
        <path id="Path_16038" data-name="Path 16038" d="M251.661,163.127c.218-.045.455.186.525.519s-.045.64-.263.685-.455-.186-.525-.519S251.443,163.165,251.661,163.127Z" transform="translate(-202.915 -156.47)" fill="#263238"/>
        <path id="Path_16039" data-name="Path 16039" d="M252.512,168.23a1.921,1.921,0,0,0,1.53-.64,12.272,12.272,0,0,1-2.2-2.51Z" transform="translate(-203.081 -157.174)" fill="#b74d3c"/>
        <path id="Path_16040" data-name="Path 16040" d="M248.913,161.1a1.607,1.607,0,0,1,1.338-.583h.064a.205.205,0,0,0,0-.41,1.985,1.985,0,0,0-1.684.679.2.2,0,0,0,.149.334A.186.186,0,0,0,248.913,161.1Z" transform="translate(-201.908 -155.382)" fill="#263238"/>
        <path id="Path_16041" data-name="Path 16041" d="M241.93,187.5c-5.762.058-6.62-3.067-6.62-3.067,1.709-1.665,1.793-4.731,1.428-7.465a6.146,6.146,0,0,0,1.709,1.633,5.25,5.25,0,0,0,4.206.755.122.122,0,0,0,.07,0,.764.764,0,0,0,0,.166c-.346,2.189-.038,4.533,2.26,5.218C244.951,184.716,248.255,187.431,241.93,187.5Z" transform="translate(-197.133 -161.453)" fill="#cb7a63"/>
        <path id="Path_16042" data-name="Path 16042" d="M243.5,177.4a6.4,6.4,0,0,0-.16.807.122.122,0,0,1-.07,0,5.25,5.25,0,0,1-4.206-.755,6.146,6.146,0,0,1-1.709-1.633c-.083-.691-.211-1.37-.339-1.985l6.248,3.412Z" transform="translate(-197.745 -160.323)" fill="#cb7a63"/>
        <path id="Path_16043" data-name="Path 16043" d="M232.58,187.178s.909-2.8,2.279-3.688,7.382.032,8.323.4,1.921,2.561,1.921,2.561Z" transform="translate(-196.151 -163.664)" fill="#d72027"/>
        <path id="Path_16044" data-name="Path 16044" d="M224.927,197.874a12.631,12.631,0,0,1-4.846,7.349l-6.671-4.91s3.937-10.826,7.881-11.78C225.311,187.58,226.214,192.561,224.927,197.874Z" transform="translate(-189.254 -165.571)" fill="#263238"/>
        <path id="Path_16045" data-name="Path 16045" d="M228.654,201.221c-.051.314-.122.64-.2.947a12.631,12.631,0,0,1-4.833,7.349l-.352-.269a13.726,13.726,0,0,1,3.611-8.9Z" transform="translate(-192.801 -169.865)" opacity="0.2"/>
        <path id="Path_16046" data-name="Path 16046" d="M211.6,203.25l-.845,3.38,8.342,5.39,1.408-2.663Z" transform="translate(-188.297 -170.908)" fill="#d72027"/>
        <path id="Path_16047" data-name="Path 16047" d="M244.461,187.326c-.928-.154-1.965-.295-3.028-.378a82.965,82.965,0,0,0-9.6.1,39.686,39.686,0,0,0-6.12.935c1.639,22.567.64,33.63.282,36.856l22.6-.243c2.337-18.6,1.69-27.983.781-32.535a6,6,0,0,0-4.915-4.735Z" transform="translate(-193.679 -165.009)" fill="#263238"/>
        <path id="Path_16048" data-name="Path 16048" d="M256.567,228.424h.2a159.984,159.984,0,0,0,1.53-25.173l-9.936-5.762C249.884,213,253.93,220.076,256.567,228.424Z" transform="translate(-201.829 -168.836)" opacity="0.2"/>
        <path id="Path_16049" data-name="Path 16049" d="M246.344,166.073a5.813,5.813,0,0,1-2.83,4.885h0a4.884,4.884,0,0,1-1.408.6.122.122,0,0,1-.07,0,5.25,5.25,0,0,1-4.206-.755,6.146,6.146,0,0,1-1.709-1.632c-1.127-1.543-1.594-3.6-2.4-6.5a5.73,5.73,0,0,1,6.5-7.2C244.571,156.24,246.428,162.181,246.344,166.073Z" transform="translate(-196.484 -153.686)" fill="#cb7a63"/>
        <path id="Path_16050" data-name="Path 16050" d="M248.3,178.625a4.885,4.885,0,0,1-1.408.6l.154-2.561S248,178.625,248.3,178.625Z" transform="translate(-201.3 -161.341)" opacity="0.2"/>
        <path id="Path_16051" data-name="Path 16051" d="M246.538,165.1a6.4,6.4,0,0,1-2.561,4.545,1.875,1.875,0,0,1-.64.294c-.73.166-1.415-.461-1.748-1.133a7.043,7.043,0,0,1-.557-2.842c-.083-2.286.2-4.8,1.812-6.4a2.164,2.164,0,0,1,1.4-.736C246.308,158.727,246.679,163.791,246.538,165.1Z" transform="translate(-199.188 -154.925)" fill="#263238"/>
        <path id="Path_16052" data-name="Path 16052" d="M242.494,154.741a5.038,5.038,0,0,0-2.3-1.28,14.231,14.231,0,0,0-3.79-.723,5.429,5.429,0,0,0-3.611,1.165,8.331,8.331,0,0,0-2.087,3.7l-.871,2.42a2.452,2.452,0,0,0,.256,2.734q1.191,1.921,2.388,3.841a5.761,5.761,0,0,1,.819,1.767,1.882,1.882,0,0,1-.5,1.793,2.939,2.939,0,0,0,2.023-1.21,2.2,2.2,0,0,1-.9,1.965,5.685,5.685,0,0,0,2.394-1.677,2.279,2.279,0,0,1-.717,1.063c1.28.192,2.33-.96,3.06-2.029.9-1.319,1.748-2.983,1.108-4.443-.211-.48-.57-.89-.781-1.376a3.31,3.31,0,0,1,.6-3.2,9.75,9.75,0,0,1,2.618-2.164S243.467,155.81,242.494,154.741Z" transform="translate(-195.054 -152.731)" fill="#263238"/>
        <path id="Path_16053" data-name="Path 16053" d="M247.053,163.842c1.2.359,1.837,2.138,1.921,3.265.058,1.28-.775,2.036-1.863,1.2a4.8,4.8,0,0,1-1.671-2.561C245.133,164.559,245.85,163.49,247.053,163.842Z" transform="translate(-200.753 -156.704)" fill="#cb7a63"/>
        <path id="Path_16054" data-name="Path 16054" d="M244.631,412.993a.1.1,0,0,1-.083-.083.09.09,0,0,1,.045-.109c.083-.038,1.633-.96,2.382-.775a.5.5,0,0,1,.346.243.4.4,0,0,1,0,.461c-.179.263-.711.352-1.28.365a7.836,7.836,0,0,1-1.41-.1Zm2.081-.794a4.866,4.866,0,0,0-1.748.608c.839.1,1.972.07,2.177-.218.045-.045.07-.1,0-.237a.327.327,0,0,0-.218-.147.744.744,0,0,0-.2,0Z" transform="translate(-200.455 -246.017)" fill="#0761ce"/>
        <path id="Path_16055" data-name="Path 16055" d="M244.585,412.376a.134.134,0,0,1-.045-.1,2.785,2.785,0,0,1,.64-1.741.749.749,0,0,1,.6-.192c.294,0,.4.173.4.288.1.519-.947,1.492-1.492,1.748h-.038a.109.109,0,0,1-.065,0Zm1.133-1.825a.531.531,0,0,0-.371.16,2.561,2.561,0,0,0-.563,1.4c.551-.346,1.28-1.12,1.2-1.428,0,0,0-.115-.211-.115h-.058Z" transform="translate(-200.454 -245.42)" fill="#0761ce"/>
        <path id="Path_16056" data-name="Path 16056" d="M237.186,397.323l4.475-.083-.166,10.333-4.494.09Z" transform="translate(-197.742 -240.706)" fill="#cb7a63"/>
        <path id="Path_16057" data-name="Path 16057" d="M241.621,412.9c3.1,1.812,4.04,1.876,7.593,2.561.775.154.32,2.029-1.53,2.068-3.06.058-3.38-.077-5.992-.032-2.234.045-4.8.2-6.575.262a.678.678,0,0,1-.16,0,.64.64,0,0,1-.506-.775l.787-4.014a.4.4,0,0,1,.378-.314l4.917-.09a2.062,2.062,0,0,1,1.088.333Z" transform="translate(-196.818 -246.222)" fill="#263238"/>
        <path id="Path_16058" data-name="Path 16058" d="M237.23,397.333l-.09,5.314,4.488-.09.083-5.307Z" transform="translate(-197.792 -240.71)" opacity="0.2"/>
        <path id="Path_16059" data-name="Path 16059" d="M185.555,413.047a.109.109,0,0,1-.083.09.1.1,0,0,1-.109-.058c-.045-.077-.935-1.633-.73-2.382a.583.583,0,0,1,.243-.339.4.4,0,0,1,.467,0c.262.186.333.717.339,1.319a7.683,7.683,0,0,1-.127,1.37Zm-.749-2.081a4.789,4.789,0,0,0,.563,1.748c.115-.832.109-1.965-.179-2.17-.038-.045-.1-.07-.237,0a.3.3,0,0,0-.147.211,1.1,1.1,0,0,0,0,.2Z" transform="translate(-178.889 -245.399)" fill="#0761ce"/>
        <path id="Path_16060" data-name="Path 16060" d="M184.947,413.757a.109.109,0,0,1-.1.045,2.749,2.749,0,0,1-1.729-.679.768.768,0,0,1-.186-.6c.032-.288.179-.391.3-.391.512-.09,1.479.967,1.722,1.5v.045A.1.1,0,0,1,184.947,413.757Zm-1.818-1.14a.589.589,0,0,0,.154.365,2.516,2.516,0,0,0,1.389.576c-.339-.551-1.095-1.28-1.4-1.216,0,0-.122,0-.122.2v.07Z" transform="translate(-178.288 -246.064)" fill="#0761ce"/>
        <path id="Path_16061" data-name="Path 16061" d="M188.372,398.26l4.366.224-2.356,10.467-4.392-.23Z" transform="translate(-179.388 -241.073)" fill="#cb7a63"/>
        <path id="Path_16062" data-name="Path 16062" d="M181.217,413.181c-1.178,1.421-1.8,2.151-5.237,3.3-.755.25-.07,2.055,1.773,1.857,3.047-.327,1.364-.288,3.963-.57,2.221-.243,4.782-.41,6.556-.57a.821.821,0,0,0,.173-.032.64.64,0,0,0,.416-.832l-1.28-3.88a.391.391,0,0,0-.416-.262l-4.878.519a1.511,1.511,0,0,0-1.069.474Z" transform="translate(-175.678 -246.084)" fill="#263238"/>
        <path id="Path_16063" data-name="Path 16063" d="M189.016,398.27l-1.216,5.378,4.373.224,1.216-5.384Z" transform="translate(-180.039 -241.077)" opacity="0.2"/>
        <path id="Path_16064" data-name="Path 16064" d="M211.836,246.021a66.11,66.11,0,0,0-3.8,8.7,70.8,70.8,0,0,0-3.508,14.225c-1.28,7.746-1.921,13.521-3.291,19.411C197,306.782,186.35,345.706,186.35,345.706l7.919,1.568s15.365-45.288,19.251-58.482c3.5-11.876,12.439-43.073,12.439-43.073Z" transform="translate(-179.518 -186.189)" fill="#d72027"/>
        <path id="Path_16065" data-name="Path 16065" d="M211.836,246.021a66.11,66.11,0,0,0-3.8,8.7,70.8,70.8,0,0,0-3.508,14.225c-1.28,7.746-1.921,13.521-3.291,19.411C197,306.782,186.35,345.706,186.35,345.706l7.919,1.568s15.365-45.288,19.251-58.482c3.5-11.876,12.439-43.073,12.439-43.073Z" transform="translate(-179.518 -186.189)" opacity="0.5"/>
        <path id="Path_16066" data-name="Path 16066" d="M184.86,399.62v2.8l9.513.826s.781-3.079.743-3.079Z" transform="translate(-178.981 -241.562)" fill="#d72027"/>
        <path id="Path_16067" data-name="Path 16067" d="M236.921,268.1c-2.817,9.8-6.4,22.183-8.323,28.687-.09.314-.192.64-.288.986.576-10.807,2.318-28.937,7.727-29.718a2.036,2.036,0,0,1,.884.045Z" transform="translate(-194.615 -194.214)" opacity="0.3"/>
        <path id="Path_16068" data-name="Path 16068" d="M236.581,245.861S234.9,275.643,234.93,289.7c0,13.111.211,57.445.211,57.445l7.6-.147s4.385-45.23,5.454-58.559c1.018-12.625,3.72-42.631,3.72-42.631Z" transform="translate(-196.996 -186.221)" fill="#d72027"/>
        <path id="Path_16069" data-name="Path 16069" d="M236.581,245.861S234.9,275.643,234.93,289.7c0,13.111.211,57.445.211,57.445l7.6-.147s4.385-45.23,5.454-58.559c1.018-12.625,3.72-42.631,3.72-42.631Z" transform="translate(-196.996 -186.221)" opacity="0.5"/>
        <path id="Path_16070" data-name="Path 16070" d="M233.42,399.7l.314,2.778,9.238-.179s.371-3.131.333-3.131Z" transform="translate(-196.453 -241.4)" fill="#d72027"/>
        <path id="Path_16071" data-name="Path 16071" d="M266.77,206.1c2.17.243,4.129-2.644,4.558-4.782.736-3.656-1.28-7.247-3.252-10.422l-7.093-11.524c-.339-.551,1.825,2.971.64.864-.64-1.178-2.964-1.191-3.892.762,2.484,4.552,2.932,8.323,4.4,13.3a6.883,6.883,0,0,1,.365,3.547c-.531,2.17-4.923.378-3.841,2.484A11.043,11.043,0,0,0,266.77,206.1Z" transform="translate(-205.2 -162.297)" fill="#cb7a63"/>
        <path id="Path_16072" data-name="Path 16072" d="M256.538,189.788c3.841,3.585,5.762,10.794,5.762,10.794l-6.825,3.681s-8.137-6.684-7.042-12.407C249.246,187.47,251.839,185.338,256.538,189.788Z" transform="translate(-201.819 -165.179)" fill="#263238"/>
        <path id="Path_16073" data-name="Path 16073" d="M253.81,208.094l2.138,2.618,9.4-5.147-1.184-2.945Z" transform="translate(-203.79 -170.681)" fill="#d72027"/>
        <path id="Path_16074" data-name="Path 16074" d="M259.545,178.428c-.64-1.28-2.061-3.956-2.689-5.269a1.376,1.376,0,0,0-.416-.57,1.473,1.473,0,0,0-.519-.179,9.46,9.46,0,0,0-4.27-.141.531.531,0,0,0-.275.154.576.576,0,0,0-.083.256c-.1.787-.211,1.575-.32,2.356a1.12,1.12,0,0,0,0,.525,1.1,1.1,0,0,0,.327.4c.679.589,1.351,1.184,2.023,1.78a2.663,2.663,0,0,0,1.159.7,3.461,3.461,0,0,0,1.991-.531C257.118,177.641,259.545,178.428,259.545,178.428Z" transform="translate(-202.758 -159.691)" fill="#cb7a63"/>
      </g>
    </g>
  </g>
</svg>
