<svg xmlns="http://www.w3.org/2000/svg" width="184" height="156" viewBox="0 0 184 156">
  <g id="no-action-needed-illustrastion" transform="translate(0 0)">
    <g id="freepik--background-complete--inject-2" transform="translate(0 53.774)">
      <rect id="Rectangle_4274" data-name="Rectangle 4274" width="183.796" height="0.116" transform="translate(0.19 86.544)" fill="#ebebeb"/>
      <rect id="Rectangle_4275" data-name="Rectangle 4275" width="15.348" height="0.116" transform="translate(168.652 94)" fill="#ebebeb"/>
      <rect id="Rectangle_4276" data-name="Rectangle 4276" width="4.027" height="0.116" transform="translate(125.03 95.261)" fill="#ebebeb"/>
      <rect id="Rectangle_4277" data-name="Rectangle 4277" width="8.893" height="0.116" transform="translate(159.295 89.7)" fill="#ebebeb"/>
      <rect id="Rectangle_4278" data-name="Rectangle 4278" width="20.015" height="0.116" transform="translate(0 90.478)" fill="#ebebeb"/>
      <rect id="Rectangle_4279" data-name="Rectangle 4279" width="2.933" height="0.116" transform="translate(24.144 90.478)" fill="#ebebeb"/>
      <rect id="Rectangle_4280" data-name="Rectangle 4280" width="43.413" height="0.116" transform="translate(36.568 92.434)" fill="#ebebeb"/>
      <rect id="Rectangle_4281" data-name="Rectangle 4281" width="3.661" height="25.071" transform="translate(81.919 83.161) rotate(180)" fill="#f0f0f0"/>
      <rect id="Rectangle_4282" data-name="Rectangle 4282" width="75.295" height="3.383" transform="translate(79.582 86.544) rotate(180)" fill="#f0f0f0"/>
      <rect id="Rectangle_4283" data-name="Rectangle 4283" width="76.468" height="25.071" transform="translate(1.868 58.09)" fill="#f5f5f5"/>
      <rect id="Rectangle_4284" data-name="Rectangle 4284" width="66.574" height="14.319" transform="translate(6.812 62.456)" fill="#f0f0f0"/>
      <rect id="Rectangle_4285" data-name="Rectangle 4285" width="34.589" height="2.4" rx="1.2" transform="translate(57.398 64.253) rotate(180)" fill="#f5f5f5"/>
      <rect id="Rectangle_4286" data-name="Rectangle 4286" width="78.145" height="2.238" transform="translate(78.335 57.95) rotate(180)" fill="#f0f0f0"/>
      <rect id="Rectangle_4287" data-name="Rectangle 4287" width="5.417" height="2.238" transform="translate(78.257 55.711)" fill="#e6e6e6"/>
      <rect id="Rectangle_4288" data-name="Rectangle 4288" width="7.137" height="54.924" transform="translate(167.498 31.62)" fill="#f0f0f0"/>
      <rect id="Rectangle_4289" data-name="Rectangle 4289" width="62.464" height="54.924" transform="translate(167.498 86.544) rotate(180)" fill="#f5f5f5"/>
      <rect id="Rectangle_4290" data-name="Rectangle 4290" width="54.84" height="29.376" transform="translate(159.305 81.72) rotate(180)" fill="#fafafa"/>
      <rect id="Rectangle_4291" data-name="Rectangle 4291" width="54.84" height="9.671" transform="translate(159.305 49.047) rotate(180)" fill="#fafafa"/>
      <rect id="Rectangle_4292" data-name="Rectangle 4292" width="0.491" height="29.376" transform="translate(159.305 52.344)" fill="#e6e6e6" opacity="0.7"/>
      <rect id="Rectangle_4293" data-name="Rectangle 4293" width="0.491" height="9.671" transform="translate(159.305 39.376)" fill="#e6e6e6" opacity="0.7"/>
      <rect id="Rectangle_4294" data-name="Rectangle 4294" width="69.758" height="1.242" transform="translate(104.877 33.712)" fill="#e6e6e6" opacity="0.7"/>
      <rect id="Rectangle_4295" data-name="Rectangle 4295" width="7.971" height="3.591" transform="translate(167.498 30.638)" fill="#f0f0f0"/>
      <rect id="Rectangle_4296" data-name="Rectangle 4296" width="63.298" height="3.591" transform="translate(167.498 34.229) rotate(180)" fill="#f5f5f5"/>
      <path id="Path_17271" data-name="Path 17271" d="M327.814,219.511a5.769,5.769,0,0,1-.834-2.234,11.269,11.269,0,0,1-.121-2.4,15.825,15.825,0,0,1,1.01-4.662,23.084,23.084,0,0,1,.927-2.178c.371-.7.741-1.39,1.159-2.053s.876-1.3,1.349-1.923a18.639,18.639,0,0,1,1.557-1.761,22.833,22.833,0,0,1-.927,2.155c-.338.7-.6,1.413-.927,2.1l-.9,2.085-.413,1.052-.213.524-.185.528a28.641,28.641,0,0,0-1.256,4.282,16.1,16.1,0,0,0-.324,2.21,8.552,8.552,0,0,0,.1,2.275Z" transform="translate(-199.817 -199.529)" fill="#e6e6e6"/>
      <path id="Path_17272" data-name="Path 17272" d="M301.224,231.083a11.933,11.933,0,0,0-.292-3.332,6.607,6.607,0,0,0-1.358-2.706,9.141,9.141,0,0,0-2.447-1.928c-.95-.551-2-.982-3.077-1.492a8.481,8.481,0,0,1,3.559.38,7.742,7.742,0,0,1,1.687.788,6.8,6.8,0,0,1,1.45,1.256,5.885,5.885,0,0,1,1.39,3.536,5.983,5.983,0,0,1-.913,3.5Z" transform="translate(-182.208 -209.852)" fill="#e6e6e6"/>
      <path id="Path_17273" data-name="Path 17273" d="M303.135,226.614a30.725,30.725,0,0,0-.366-3.893,15.241,15.241,0,0,0-1.015-3.573,11.246,11.246,0,0,0-1.965-3.077,18.033,18.033,0,0,0-2.929-2.521,8.077,8.077,0,0,1,3.754,1.631,8.554,8.554,0,0,1,2.553,3.355,10.058,10.058,0,0,1,.8,4.092,9.668,9.668,0,0,1-.832,3.986Z" transform="translate(-183.716 -205.553)" fill="#e6e6e6"/>
      <path id="Path_17274" data-name="Path 17274" d="M321.545,215.011A21.778,21.778,0,0,1,319,210.789a30.277,30.277,0,0,1-1.719-4.634,26.277,26.277,0,0,1-.894-4.875,18.013,18.013,0,0,1,.227-4.94c.338,1.627.6,3.2.969,4.759s.741,3.1,1.182,4.634.885,3.068,1.362,4.6S321.086,213.426,321.545,215.011Z" transform="translate(-194.159 -196.34)" fill="#e6e6e6"/>
      <path id="Path_17275" data-name="Path 17275" d="M318.027,216.414a22.243,22.243,0,0,1-3.049-3.707,30.7,30.7,0,0,1-2.317-4.2,26.042,26.042,0,0,1-1.594-4.546,17.736,17.736,0,0,1-.533-4.787c.584,1.511,1.089,2.975,1.687,4.416s1.191,2.869,1.854,4.282,1.3,2.822,1.979,4.24S317.383,214.94,318.027,216.414Z" transform="translate(-191.057 -197.856)" fill="#e6e6e6"/>
      <path id="Path_17276" data-name="Path 17276" d="M318.689,223.649a17.38,17.38,0,0,1-3.591-2.53,23.423,23.423,0,0,1-2.98-3.244,20.256,20.256,0,0,1-2.317-3.763,14.249,14.249,0,0,1-1.251-4.222c.8,1.247,1.5,2.465,2.317,3.629s1.6,2.317,2.47,3.425,1.733,2.22,2.632,3.323S317.781,222.49,318.689,223.649Z" transform="translate(-189.997 -203.594)" fill="#e6e6e6"/>
      <path id="Path_17277" data-name="Path 17277" d="M314.3,221.778a12.707,12.707,0,0,1-3.466-2.132,17.029,17.029,0,0,1-2.781-2.975,18.188,18.188,0,0,1-1.131-1.71,16.912,16.912,0,0,1-.894-1.854,12.741,12.741,0,0,1-.969-3.958c.728,1.163,1.325,2.317,2.048,3.4.324.561.714,1.08,1.052,1.627a17.637,17.637,0,0,0,1.131,1.566q1.149,1.548,2.41,3.035C312.516,219.785,313.374,220.763,314.3,221.778Z" transform="translate(-188.122 -203.201)" fill="#e6e6e6"/>
      <path id="Path_17278" data-name="Path 17278" d="M326.7,219.93a4.231,4.231,0,0,1-1.39-1.659,7.787,7.787,0,0,1-.672-2.1,11.656,11.656,0,0,1,.12-4.338,20.993,20.993,0,0,1,.556-2.071c.264-.663.5-1.335.816-1.97a21.173,21.173,0,0,1,1.024-1.854,20.743,20.743,0,0,1,1.247-1.715c-.148.7-.357,1.362-.556,2.025s-.366,1.33-.584,1.974-.348,1.311-.547,1.956l-.227.978c-.079.324-.171.649-.218.978a18.692,18.692,0,0,0-.426,3.916,10.015,10.015,0,0,0,.176,1.96,5.954,5.954,0,0,0,.681,1.915Z" transform="translate(-198.553 -200.564)" fill="#e6e6e6"/>
      <path id="Path_17279" data-name="Path 17279" d="M324.373,216.29a9.167,9.167,0,0,1-2.146-3.837,11.441,11.441,0,0,1-.4-4.467c.023-.375.116-.741.176-1.112l.107-.556.162-.538c.121-.357.222-.714.357-1.061s.31-.681.463-1.015l.25-.5.3-.463.612-.927a16.944,16.944,0,0,1,1.478-1.617c-.241.7-.561,1.335-.82,1.993l-.366.987-.185.463-.148.5c-.1.329-.2.658-.306.982l-.227,1-.12.5-.069.5c-.042.334-.125.667-.144,1a17.22,17.22,0,0,0,.056,4.055,19.182,19.182,0,0,0,.97,4.113Z" transform="translate(-197.086 -198.409)" fill="#e6e6e6"/>
      <path id="Path_17280" data-name="Path 17280" d="M315.491,226.858l-6.641-5.909.982,8.022Z" transform="translate(-190.155 -209.52)" fill="#e6e6e6"/>
      <path id="Path_17281" data-name="Path 17281" d="M295.56,231.37h19.269L312.3,245.685H298.086Z" transform="translate(-183.027 -215.079)" fill="#f5f5f5"/>
      <path id="Path_17282" data-name="Path 17282" d="M321.54,231.37h7.229l-2.526,14.315h-3.8Z" transform="translate(-196.971 -215.079)" fill="#ebebeb"/>
      <path id="Path_17283" data-name="Path 17283" d="M364.711,225.205a5.2,5.2,0,0,0-.079-1.9,7.876,7.876,0,0,0-.57-1.729,14.367,14.367,0,0,0-1.96-3.086c-.176-.255-.4-.463-.6-.709s-.4-.463-.616-.709c-.463-.463-.862-.927-1.321-1.39s-.9-.927-1.362-1.39-.927-.927-1.39-1.432c.626.236,1.219.528,1.821.825a19.5,19.5,0,0,1,1.7,1.052,9.3,9.3,0,0,1,.8.612c.259.213.514.436.769.653a16.221,16.221,0,0,1,1.39,1.488,9.732,9.732,0,0,1,1.9,3.666,6.317,6.317,0,0,1,.181,2.085,3.744,3.744,0,0,1-.663,1.964Z" transform="translate(-215.914 -205.185)" fill="#e6e6e6"/>
      <path id="Path_17284" data-name="Path 17284" d="M395.783,223.725a3.462,3.462,0,0,1-1.043-1.585,4.331,4.331,0,0,1-.209-.978,4.7,4.7,0,0,1,0-.51,2.054,2.054,0,0,1,.046-.5,6.275,6.275,0,0,1,1.965-3.411c.232-.227.5-.408.742-.612a5.9,5.9,0,0,1,.779-.547c.269-.158.538-.32.816-.463.134-.074.269-.158.412-.222l.426-.181c.287-.12.575-.232.862-.343a5.879,5.879,0,0,1,.88-.278,17.434,17.434,0,0,1,1.812-.371,16.59,16.59,0,0,1-1.5,1.057c-.255.153-.5.324-.737.5s-.463.334-.732.5c-.505.3-.927.686-1.39,1.01a6.11,6.11,0,0,0-.658.533,7.586,7.586,0,0,0-.64.547,7.17,7.17,0,0,0-1.854,2.577,5.744,5.744,0,0,0-.213.76,5.226,5.226,0,0,0-.065.811A5.1,5.1,0,0,0,395.783,223.725Z" transform="translate(-236.187 -205.65)" fill="#e6e6e6"/>
      <path id="Path_17285" data-name="Path 17285" d="M394.667,220.677a6.275,6.275,0,0,1-1.3-3.8,7.877,7.877,0,0,1,1.038-4.018l.556-.881c.213-.273.44-.533.667-.792l.347-.385.38-.334.779-.653a18.215,18.215,0,0,1,1.71-1.052,18.467,18.467,0,0,1,1.854-.723,16.754,16.754,0,0,1-1.423,1.344c-.5.417-.9.894-1.335,1.335-.2.241-.4.463-.612.7l-.31.338-.264.371c-.176.246-.371.463-.542.723l-.463.765a9.888,9.888,0,0,0-1.172,3.332,10.575,10.575,0,0,0,.088,3.73Z" transform="translate(-235.566 -202.607)" fill="#e6e6e6"/>
      <path id="Path_17286" data-name="Path 17286" d="M375.14,217.409c.385-1.432.8-2.813,1.2-4.171s.8-2.743,1.159-4.115.663-2.753.927-4.171a41.881,41.881,0,0,0,.533-4.282,12.511,12.511,0,0,1,.677,4.4,20.772,20.772,0,0,1-.644,4.412,23.964,23.964,0,0,1-1.525,4.171,18.224,18.224,0,0,1-2.327,3.756Z" transform="translate(-225.785 -198.659)" fill="#e6e6e6"/>
      <path id="Path_17287" data-name="Path 17287" d="M376.18,217.263c.6-1.39,1.251-2.78,1.891-4.11s1.284-2.683,1.9-4.027,1.21-2.692,1.761-4.059,1.024-2.781,1.488-4.236a14.067,14.067,0,0,1-.329,4.592,24.143,24.143,0,0,1-1.515,4.347,28.8,28.8,0,0,1-2.257,3.985,21,21,0,0,1-2.938,3.508Z" transform="translate(-226.343 -198.745)" fill="#e6e6e6"/>
      <path id="Path_17288" data-name="Path 17288" d="M372.11,223.375c.9-1.242,1.854-2.414,2.78-3.587s1.854-2.317,2.753-3.5,1.779-2.354,2.623-3.568,1.613-2.465,2.4-3.791a14.1,14.1,0,0,1-1.349,4.4,24.047,24.047,0,0,1-2.447,3.9,28.858,28.858,0,0,1-3.091,3.378,21.055,21.055,0,0,1-3.666,2.767Z" transform="translate(-224.159 -203.08)" fill="#e6e6e6"/>
      <path id="Path_17289" data-name="Path 17289" d="M378.23,220.4c.885-1.108,1.77-2.155,2.641-3.216s1.715-2.113,2.539-3.184,1.59-2.173,2.317-3.3,1.39-2.317,2.1-3.55a12.315,12.315,0,0,1-1.038,4.124,18.035,18.035,0,0,1-2.183,3.661,21.313,21.313,0,0,1-2.9,3.091,15.972,15.972,0,0,1-3.476,2.374Z" transform="translate(-227.443 -202.13)" fill="#e6e6e6"/>
      <path id="Path_17290" data-name="Path 17290" d="M368.978,224.45a6.706,6.706,0,0,0,.7-3.244,8.092,8.092,0,0,0-.806-3.086l-.158-.375-.2-.361-.389-.732c-.31-.463-.589-.959-.927-1.437s-.644-.955-.987-1.432a17.829,17.829,0,0,1-1.006-1.492,16.86,16.86,0,0,1,1.548.964,15.886,15.886,0,0,1,1.39,1.191,7.224,7.224,0,0,1,.616.686q.3.357.584.723l.5.8.236.408.2.436a6.682,6.682,0,0,1,.6,3.781,4.634,4.634,0,0,1-1.9,3.17Z" transform="translate(-220.423 -204.881)" fill="#e6e6e6"/>
      <path id="Path_17291" data-name="Path 17291" d="M371.278,220.75a17.481,17.481,0,0,0,.779-3.536,9.142,9.142,0,0,0-.246-3.346,7.746,7.746,0,0,0-.6-1.552,9.381,9.381,0,0,0-.9-1.45,24.408,24.408,0,0,0-2.419-2.716,8.277,8.277,0,0,1,3.323,1.909,7.3,7.3,0,0,1,1.27,1.539,6.9,6.9,0,0,1,.816,1.854,7.336,7.336,0,0,1-.06,3.99A7.415,7.415,0,0,1,371.278,220.75Z" transform="translate(-221.862 -202.666)" fill="#e6e6e6"/>
      <path id="Path_17292" data-name="Path 17292" d="M380.09,224.91l7.248-6.96-.292,6.826Z" transform="translate(-228.441 -207.918)" fill="#e6e6e6"/>
      <path id="Path_17293" data-name="Path 17293" d="M362.98,231.37h19.269l-2.526,14.315H365.506Z" transform="translate(-219.26 -215.079)" fill="#f5f5f5"/>
      <path id="Path_17294" data-name="Path 17294" d="M388.95,231.37h7.234l-2.526,14.315h-3.8Z" transform="translate(-233.195 -215.079)" fill="#ebebeb"/>
      <rect id="Rectangle_4300" data-name="Rectangle 4300" width="8.986" height="8.986" transform="translate(59.793 9.557)" fill="#fff"/>
    </g>
    <g id="freepik--Hourglass--inject-2" transform="translate(59.595 65.857)">
      <path id="Path_17303" data-name="Path 17303" d="M230.156,320.73S196.1,340.838,196.1,359.888h68.122C264.217,340.838,230.156,320.73,230.156,320.73Z" transform="translate(-189.237 -274.847)" fill="#d72027" opacity="0.2"/>
      <path id="Path_17304" data-name="Path 17304" d="M233.177,372.5s-31.447,7.79-31.447,15.168h62.9C264.625,380.29,233.177,372.5,233.177,372.5Z" transform="translate(-192.258 -302.626)" fill="#f9ad24" opacity="0.5"/>
      <path id="Path_17305" data-name="Path 17305" d="M278.51,332.71c6.4,6.289,18.824,20.223,18.824,33.607h-8.522C288.812,352.933,282.009,339,278.51,332.71Z" transform="translate(-233.457 -281.276)" fill="#fff" opacity="0.3"/>
      <path id="Path_17306" data-name="Path 17306" d="M230.156,275.388S196.1,255.281,196.1,236.23h68.122C264.217,255.281,230.156,275.388,230.156,275.388Z" transform="translate(-189.237 -229.506)" fill="#d72027" opacity="0.2"/>
      <path id="Path_17307" data-name="Path 17307" d="M249.457,297.936S232.07,289.6,232.07,281.67h34.779C266.849,289.58,249.457,297.936,249.457,297.936Z" transform="translate(-208.538 -253.888)" fill="#f9ad24" opacity="0.5"/>
      <path id="Path_17308" data-name="Path 17308" d="M239.8,269.837c-6.39-6.289-18.8-20.224-18.8-33.607h8.522C229.5,249.613,236.293,263.548,239.8,269.837Z" transform="translate(-202.598 -229.506)" fill="#fff" opacity="0.3"/>
      <path id="Path_17309" data-name="Path 17309" d="M278.51,269.837c6.4-6.289,18.513-21.836,18.824-33.607h-2.271C294,250.582,283.571,263.752,278.51,269.837Z" transform="translate(-233.457 -229.506)" fill="#fff" opacity="0.3"/>
      <rect id="Rectangle_4303" data-name="Rectangle 4303" width="3.86" height="0.463" transform="translate(66.495)" fill="#d72027"/>
      <path id="Path_17310" data-name="Path 17310" d="M349.306,228.087h-.463a5.909,5.909,0,0,0-5.9-5.9H338.87v-.463h4.073a6.377,6.377,0,0,1,6.363,6.363Z" transform="translate(-265.845 -221.72)" fill="#d72027"/>
      <rect id="Rectangle_4304" data-name="Rectangle 4304" width="81.839" height="10.204" rx="5.102" transform="translate(0 1.622)" fill="#d72027"/>
      <rect id="Rectangle_4305" data-name="Rectangle 4305" width="81.839" height="10.204" rx="5.102" transform="translate(0 79.939)" fill="#d72027"/>
    </g>
    <g id="freepik--Character--inject-2" transform="translate(30.58)">
      <path id="Path_17311" data-name="Path 17311" d="M137.082,291.765l-3.142-2.79,5.357-8.226,3.142,2.785Z" transform="translate(-126.811 -187.931)" fill="#ff8b7b"/>
      <path id="Path_17312" data-name="Path 17312" d="M126.335,291.9l4,2.78a.306.306,0,0,1,.1.422l-2,3.3a.769.769,0,0,1-1.061.2c-1.39-.987-1.9-1.469-3.568-2.813a61.787,61.787,0,0,1-4.727-4.12c-1.233-1.279.07-2.516.723-2.076,1.543,1.047,4.226,2.2,5.779,2.109A1.2,1.2,0,0,1,126.335,291.9Z" transform="translate(-118.557 -192.628)" fill="#263238"/>
      <path id="Path_17313" data-name="Path 17313" d="M145.648,283.54l-3.142-2.79-2.577,3.962,3.221,2.674Z" transform="translate(-130.026 -187.931)" opacity="0.2"/>
      <path id="Path_17314" data-name="Path 17314" d="M177.969,197.962s-21.085-1.441-23.7,5.7c-5.946,16.247-13.68,33.482-13.68,33.482l6.214,4.5s13.138-20.089,17.146-32.986c8.11,1.97,22.772,3.652,27.494-1.77,4.032-4.634,1.015-8.93,1.015-8.93Z" transform="translate(-130.38 -143.444)" fill="#263238"/>
      <path id="Path_17315" data-name="Path 17315" d="M180.311,225.35c-.491,1.983-1.237,7.665-1.7,11.432,1.024-1.983,2-3.995,2.873-5.96Z" transform="translate(-150.781 -158.204)" opacity="0.3"/>
      <path id="Path_17316" data-name="Path 17316" d="M144.979,286.78l-7.049-5.524,1.441-3.1,7.878,6.02Z" transform="translate(-128.952 -186.541)" fill="#d72027"/>
      <path id="Path_17317" data-name="Path 17317" d="M131.061,292.643a5.668,5.668,0,0,0,1.038.533.1.1,0,0,0,.13-.13c-.06-.158-.589-1.543-1.14-1.678a.385.385,0,0,0-.357.1.565.565,0,0,0-.209.524A1.186,1.186,0,0,0,131.061,292.643Zm.894.255c-.728-.315-1.182-.663-1.233-.927a.362.362,0,0,1,.148-.338.176.176,0,0,1,.171-.051c.3.074.683.765.914,1.318Z" transform="translate(-124.975 -193.624)" fill="#d72027"/>
      <path id="Path_17318" data-name="Path 17318" d="M133.682,292.869a.084.084,0,0,0,.046,0,.107.107,0,0,0,.093-.037c.032-.037.82-1.006.7-1.6a.51.51,0,0,0-.273-.357.385.385,0,0,0-.463.042,2.231,2.231,0,0,0-.13,1.9A.125.125,0,0,0,133.682,292.869Zm.514-1.775a.3.3,0,0,1,.13.2c.07.352-.306.959-.551,1.293a2.052,2.052,0,0,1,.139-1.5c.046-.042.111-.083.246,0Z" transform="translate(-126.582 -193.331)" fill="#d72027"/>
      <path id="Path_17319" data-name="Path 17319" d="M194.936,303.377l-4.055.811-.751-10.858,4.12.13Z" transform="translate(-156.962 -194.681)" fill="#ff8b7b"/>
      <path id="Path_17320" data-name="Path 17320" d="M183.25,311.263l4.634-1.951a.315.315,0,0,1,.426.153l1.77,3.559a.8.8,0,0,1-.412,1.038c-1.622.653-2.428.88-4.463,1.742a57.768,57.768,0,0,1-6.441,2.507c-1.807.449-2.215-1.362-1.483-1.715a16.424,16.424,0,0,0,5.38-4.782A1.284,1.284,0,0,1,183.25,311.263Z" transform="translate(-149.883 -203.24)" fill="#263238"/>
      <path id="Path_17321" data-name="Path 17321" d="M186.663,315.353a5.684,5.684,0,0,0,1.033-.612.1.1,0,0,0-.042-.185c-.167-.037-1.668-.338-2.09.07a.385.385,0,0,0-.107.366.57.57,0,0,0,.338.463,1.214,1.214,0,0,0,.868-.1Zm.709-.639c-.672.463-1.223.663-1.5.556a.366.366,0,0,1-.213-.315.185.185,0,0,1,.046-.181c.23-.218,1.064-.163,1.667-.061Z" transform="translate(-154.449 -205.995)" fill="#d72027"/>
      <path id="Path_17322" data-name="Path 17322" d="M188.325,313.219a.144.144,0,0,0,.042-.032.107.107,0,0,0,0-.1c0-.051-.426-1.274-1.01-1.5a.514.514,0,0,0-.463.042.389.389,0,0,0-.222.436c.093.463,1.07,1.089,1.585,1.159a.093.093,0,0,0,.068-.005Zm-1.265-1.432a.31.31,0,0,1,.241,0c.348.134.667.8.825,1.2-.463-.153-1.172-.63-1.233-.955a.212.212,0,0,1,.125-.213Z" transform="translate(-155.101 -204.458)" fill="#d72027"/>
      <path id="Path_17323" data-name="Path 17323" d="M194.254,293.464l-4.124-.134.394,5.672,4.106-.074Z" transform="translate(-156.962 -194.681)" opacity="0.2"/>
      <path id="Path_17324" data-name="Path 17324" d="M209.694,198.1s-30.122,2.85-29.038,11.919c1.585,13.082,2.743,35.989,2.743,35.989l7.679.3s2.882-20.14,1.2-33.537c7.8,0,24.742.412,27.721-3.619,3.536-4.782,1.9-11.052,1.9-11.052Z" transform="translate(-151.864 -143.582)" fill="#263238"/>
      <path id="Path_17325" data-name="Path 17325" d="M193.956,297.977l-9.217-.459-.329-4.009,10.107.7Z" transform="translate(-153.893 -194.778)" fill="#d72027"/>
      <path id="Path_17326" data-name="Path 17326" d="M200.484,136.9c-.065.83-.139,1.566-.241,2.34s-.2,1.529-.32,2.294c-.222,1.525-.528,3.04-.871,4.565a42.927,42.927,0,0,1-1.293,4.578,24.4,24.4,0,0,1-2.1,4.634,11.583,11.583,0,0,1-1.854,2.359,7.123,7.123,0,0,1-.6.5c-.19.158-.38.292-.575.426a11.824,11.824,0,0,1-1.154.718,22.434,22.434,0,0,1-4.634,1.886c-.765.236-1.534.426-2.317.6s-1.529.32-2.317.44a37.269,37.269,0,0,1-4.634.463,1.585,1.585,0,0,1-.556-3.091l.06-.023a74.455,74.455,0,0,0,7.985-3.04,21.785,21.785,0,0,0,3.42-1.937c.246-.176.463-.357.686-.538.1-.088.209-.176.3-.269a2.625,2.625,0,0,0,.232-.236,6.357,6.357,0,0,0,.788-1.21,19.927,19.927,0,0,0,1.349-3.564c.375-1.3.7-2.66.969-4.041s.51-2.78.737-4.2.4-2.864.556-4.208v-.079a3.184,3.184,0,0,1,6.33.63Z" transform="translate(-149.34 -108.935)" fill="#d72027"/>
      <path id="Path_17327" data-name="Path 17327" d="M177.137,188l-2.317.144,1.854,4.263s4.009-.088,3.925-2.062l-.723-.927A3.772,3.772,0,0,0,177.137,188Z" transform="translate(-148.747 -138.163)" fill="#ff8b7b"/>
      <path id="Path_17328" data-name="Path 17328" d="M169.34,188.673l2,3.921h2.387l-1.854-4.263Z" transform="translate(-145.807 -138.34)" fill="#ff8b7b"/>
      <path id="Path_17329" data-name="Path 17329" d="M221.2,124.841l4.481-.927,3.568-.514a6.618,6.618,0,0,1,1.543-.07,6.757,6.757,0,0,1,5.9,4.935c.894,3.244,1.7,7.225,2.317,10.751a132.133,132.133,0,0,1,1.39,18.949H219.171c-.463-12.118-3.04-19.927-3.916-24.769A6.775,6.775,0,0,1,219,125.879Z" transform="translate(-170.386 -103.453)" fill="#d72027"/>
      <path id="Path_17330" data-name="Path 17330" d="M223.83,129.859c.051,1.993.463,9.1,2.6,13.133.375-3.781,4.866-15.293,4.866-15.293Z" transform="translate(-175.045 -105.807)" fill="#f5f5f5"/>
      <path id="Path_17331" data-name="Path 17331" d="M260.094,146.141h0a.623.623,0,0,0-.028-.222l-.042-.334c-.023-.181-.046-.361-.069-.533l-.07-.5-.07-.463a2.714,2.714,0,0,0-.06-.389c-.046-.3-.093-.584-.144-.867-.153-.867-.315-1.766-.491-2.669v-.074c-.176-.927-.357-1.821-.551-2.725v-.06c-.079-.389-.162-.769-.25-1.154l-.1-.426-.167-.737-.139-.575-.028-.12h0c-.185-.76-.375-1.506-.57-2.21l-3.221-1.7c.371,1.423.723,2.989,1.057,4.592a4.7,4.7,0,0,0-1.057.755c-.769.686-.741,2.146.028,3.874a42.843,42.843,0,0,1,3.476,15.622c.1,2.183.158,4.393.185,6.539h3.244C260.938,156.457,260.641,150.729,260.094,146.141Z" transform="translate(-190.984 -107.25)" opacity="0.3"/>
      <path id="Path_17332" data-name="Path 17332" d="M228.485,107.34l-1.821,2.78-2.475,3.777a3.868,3.868,0,0,1,.765,1.117c.463.927.825,1.594-1.089,2.9a1.067,1.067,0,0,0-.329,1.2c.111.593.463,1.214,2.521.848a9.523,9.523,0,0,0,5.181-2.873c.686-.69.528-1.2-.134-1.919C229.231,113.156,228.67,109.935,228.485,107.34Z" transform="translate(-174.862 -94.882)" fill="#ff8b7b"/>
      <path id="Path_17333" data-name="Path 17333" d="M224.83,133.517l1.311.825,2.132-.9a3.443,3.443,0,0,0-1.854-.969,3.671,3.671,0,0,0-1.589,1.044Z" transform="translate(-175.582 -108.366)" fill="#263238"/>
      <path id="Path_17334" data-name="Path 17334" d="M228.21,127.608a3.9,3.9,0,0,1,1.914,2.359s4.685-3.55,4.782-5.89c-.25-.8-1.423-.658-1.423-.658a11.729,11.729,0,0,1-5.273,4.189Z" transform="translate(-177.395 -103.505)" fill="#fff"/>
      <path id="Path_17335" data-name="Path 17335" d="M225.273,129.551a2.377,2.377,0,0,0-1.483,2.317s-2.085-2.447-.389-4.3a6.153,6.153,0,0,1,1.455-.542A2.7,2.7,0,0,0,225.273,129.551Z" transform="translate(-174.458 -105.447)" fill="#fff"/>
      <path id="Path_17336" data-name="Path 17336" d="M227.2,135.68h-.6a63.153,63.153,0,0,0-.57,6.993,20.7,20.7,0,0,0,1.256,3.934.193.193,0,0,0,0,.046c.032.074.065.144.1.213.065.139.13.278.2.408a26.142,26.142,0,0,1,1-4.231C227.976,140.365,227.2,135.68,227.2,135.68Z" transform="translate(-176.226 -110.089)" fill="#263238"/>
      <path id="Path_17337" data-name="Path 17337" d="M225.617,116.362l1.52-2.692c.028.065.065.144.1.218a7.375,7.375,0,0,1,.324,1.033,4.332,4.332,0,0,1-1.673,3.707c-.042-.074-.079-.153-.12-.232a4.635,4.635,0,0,0-.7-1.075l-.06-.046Z" transform="translate(-175.678 -98.278)" opacity="0.2"/>
      <path id="Path_17338" data-name="Path 17338" d="M208.545,101.21c-.366-1.645,2.252-3.92,2.252-3.92l-3.1-1.08C206.3,97.216,207.206,100.084,208.545,101.21Z" transform="translate(-166.012 -88.909)" fill="#263238"/>
      <path id="Path_17339" data-name="Path 17339" d="M219.8,91.382c.732,4.115,1.39,6.488-.158,9.115a5.427,5.427,0,0,1-9.607-.278c-1.738-3.392-2.641-9.546.894-12.248a5.491,5.491,0,0,1,8.87,3.411Z" transform="translate(-166.823 -83.836)" fill="#ff8b7b"/>
      <path id="Path_17340" data-name="Path 17340" d="M228.291,95.184l-1.946-.533v-2.5s-2.461-1.39-2.081-3.128a19,19,0,0,1,.792-2.873s3.9-.25,5.1.25a8.476,8.476,0,0,1-1.006.927,8.869,8.869,0,0,1,2.363,2.419,3.244,3.244,0,0,0-1.335.644S230.687,93.822,228.291,95.184Z" transform="translate(-175.257 -83.477)" fill="#263238"/>
      <path id="Path_17341" data-name="Path 17341" d="M223.34,80.458a1.972,1.972,0,0,1,.6,2.549l3.832.079C227.571,81.876,224.248,80.4,223.34,80.458Z" transform="translate(-174.782 -80.456)" fill="#263238"/>
      <path id="Path_17342" data-name="Path 17342" d="M211.025,87.023c-.273.769-3.378,1.715-6.21,1.807a12.846,12.846,0,0,1-4.134-.779,4.726,4.726,0,0,1,1.39-.987,7.908,7.908,0,0,1-4.472-3.147,7.081,7.081,0,0,1,3.893-.25,4.171,4.171,0,0,1-1.469-2.878s7.248,2.873,10.038,1.682c3.031-1.3,5.334,1.135,3.341,2.989S211.025,87.023,211.025,87.023Z" transform="translate(-160.971 -80.635)" fill="#263238"/>
      <path id="Path_17343" data-name="Path 17343" d="M234.077,101.311a3.707,3.707,0,0,1-.83,2.5c-.751.894-1.919.181-2.187-.927-.241-1.006.074-2.558,1.061-3.04S234.026,100.185,234.077,101.311Z" transform="translate(-178.884 -90.785)" fill="#ff8b7b"/>
      <path id="Path_17344" data-name="Path 17344" d="M218.436,104.444a.6.6,0,0,1-.185.723c-.185.079-.463-.125-.57-.463a.586.586,0,0,1,.185-.723C218.052,103.9,218.33,104.1,218.436,104.444Z" transform="translate(-171.723 -93.07)" fill="#263238"/>
      <path id="Path_17345" data-name="Path 17345" d="M210.686,107.246c.1.32,0,.644-.185.718s-.463-.12-.57-.463,0-.644.185-.718S210.58,106.922,210.686,107.246Z" transform="translate(-167.564 -94.575)" fill="#263238"/>
      <path id="Path_17346" data-name="Path 17346" d="M213.874,107.43a10.844,10.844,0,0,1-.334,2.845,1.627,1.627,0,0,0,1.353-.32Z" transform="translate(-169.524 -94.93)" fill="#a02724"/>
      <path id="Path_17347" data-name="Path 17347" d="M218.422,113.64a2.943,2.943,0,0,0,1.715-1.511.1.1,0,0,0-.186-.079,2.78,2.78,0,0,1-1.951,1.5.1.1,0,0,0,.042.2,3.03,3.03,0,0,0,.38-.107Z" transform="translate(-171.876 -97.378)" fill="#263238"/>
      <path id="Path_17348" data-name="Path 17348" d="M218.892,100.127a.2.2,0,0,0,.07-.07.2.2,0,0,0-.056-.273,1.923,1.923,0,0,0-1.789-.185.2.2,0,1,0,.171.361,1.506,1.506,0,0,1,1.39.158.2.2,0,0,0,.214.009Z" transform="translate(-171.382 -90.653)" fill="#263238"/>
      <path id="Path_17349" data-name="Path 17349" d="M208.417,103.336a.181.181,0,0,0,0-.1.2.2,0,0,0-.26-.107,1.9,1.9,0,0,0-1.168,1.362.2.2,0,0,0,.389.065,1.525,1.525,0,0,1,.927-1.061.2.2,0,0,0,.112-.159Z" transform="translate(-166.009 -92.616)" fill="#263238"/>
      <path id="Path_17350" data-name="Path 17350" d="M252.913,128.3c.51.63.955,1.2,1.39,1.807s.89,1.21,1.316,1.826c.867,1.228,1.673,2.5,2.461,3.8a40.186,40.186,0,0,1,2.178,4.083,25.157,25.157,0,0,1,1.691,4.634,12.275,12.275,0,0,1,.361,2.836,10.91,10.91,0,0,1-.408,2.827,18.734,18.734,0,0,1-2,4.56c-.4.681-.83,1.335-1.279,1.965s-.927,1.242-1.39,1.831a31.723,31.723,0,0,1-3.147,3.327,1.59,1.59,0,0,1-2.433-1.983l.042-.07a53.679,53.679,0,0,0,3.763-7.3A16.42,16.42,0,0,0,256.5,148.9a6.357,6.357,0,0,0,.06-1.478,7.212,7.212,0,0,0-.315-1.437,21.4,21.4,0,0,0-1.506-3.429c-.616-1.163-1.311-2.317-2.053-3.489s-1.52-2.317-2.317-3.443l-1.219-1.7c-.408-.551-.834-1.14-1.219-1.645l-.028-.037a3.183,3.183,0,1,1,5-3.939Z" transform="translate(-187.594 -105.477)" fill="#d72027"/>
      <g id="Group_9148" data-name="Group 9148" transform="translate(20.265 55.22)">
        <path id="Path_17352" data-name="Path 17352" d="M163.188,201.4l39.427-1.784a.927.927,0,0,1,.987.9l-41.313,1.854a.927.927,0,0,1,.9-.969Z" transform="translate(-162.288 -199.616)" fill="#d72027"/>
      </g>
      <path id="Path_17353" data-name="Path 17353" d="M150.156,162.53l28.05-1.27a.876.876,0,0,1,.816.589l5.385,17.086a.463.463,0,0,1-.431.64l-28.05,1.27a.867.867,0,0,1-.811-.584L149.73,163.17a.463.463,0,0,1,.426-.64Z" transform="translate(-135.265 -123.814)" fill="#d72027"/>
      <path id="Path_17354" data-name="Path 17354" d="M150.156,162.53l28.05-1.27a.876.876,0,0,1,.816.589l5.385,17.086a.463.463,0,0,1-.431.64l-28.05,1.27a.867.867,0,0,1-.811-.584L149.73,163.17a.463.463,0,0,1,.426-.64Z" transform="translate(-135.265 -123.814)" fill="#fff" opacity="0.6"/>
      <path id="Path_17355" data-name="Path 17355" d="M212.056,161.839l5.385,17.086a.463.463,0,0,1-.431.644l-5.77-18.319a.876.876,0,0,1,.816.589Z" transform="translate(-168.29 -123.809)" fill="#d72027" opacity="0.5"/>
      <path id="Path_17356" data-name="Path 17356" d="M225.9,200.091l10.367-.463a.927.927,0,0,1,.987.9l-12.254.55a.927.927,0,0,1,.9-.987Z" transform="translate(-175.671 -144.401)" fill="#6b1013" opacity="0.9"/>
      <path id="Path_17357" data-name="Path 17357" d="M252.131,197.226l-2.651.385,2.716,3.777s4.314-.691,3.814-2.6l-.927-.769a3.763,3.763,0,0,0-2.952-.793Z" transform="translate(-188.809 -143.088)" fill="#ff8b7b"/>
      <path id="Path_17358" data-name="Path 17358" d="M242.48,199.241l3.323,2.9,2.637-.25-2.716-3.777Z" transform="translate(-185.052 -143.588)" fill="#ff8b7b"/>
    </g>
  </g>
</svg>
