<svg xmlns="http://www.w3.org/2000/svg" width="327" height="240.001" viewBox="0 0 327 240.001">
  <g id="no-data-illustration" transform="translate(-86.702)">
    <g id="Group_3346" data-name="Group 3346" transform="translate(97.952)">
      <rect id="Rectangle_499" data-name="Rectangle 499" width="73.47" height="108.182" transform="translate(0 107.391) rotate(-33.78)" fill="#f5f5f5"/>
      <path id="Path_13173" data-name="Path 13173" d="M246.42,276l-.691,4.289-30.359-4.376.691-4.289Z" transform="translate(-156.767 -123.788)" fill="#e0e0e0"/>
      <path id="Path_13174" data-name="Path 13174" d="M240.283,251.55l4.354.626-4.828,29.891-4.359-.631Z" transform="translate(-165.919 -114.642)" fill="#e0e0e0"/>
      <path id="Path_13175" data-name="Path 13175" d="M169.98,181.749c.044.06-6.074,4.234-13.666,9.307s-13.781,9.144-13.824,9.078,6.074-4.234,13.666-9.312S169.91,181.684,169.98,181.749Z" transform="translate(-123.546 -82.83)" fill="#e0e0e0"/>
      <path id="Path_13176" data-name="Path 13176" d="M196.02,171.39c.044.065-10.134,6.945-22.728,15.37S150.433,201.96,150.4,201.9s10.123-6.95,22.734-15.375S195.976,171.324,196.02,171.39Z" transform="translate(-127.151 -78.109)" fill="#e0e0e0"/>
      <path id="Path_13177" data-name="Path 13177" d="M204.29,183.75c.044.065-10.134,6.95-22.728,15.375s-22.859,15.2-22.892,15.136,10.134-6.945,22.734-15.375S204.246,183.684,204.29,183.75Z" transform="translate(-130.92 -83.742)" fill="#e0e0e0"/>
      <path id="Path_13178" data-name="Path 13178" d="M212.587,196.12c.044.065-10.134,6.95-22.728,15.37S167,226.7,167,226.631s10.129-6.95,22.728-15.375S212.544,196.054,212.587,196.12Z" transform="translate(-134.716 -89.379)" fill="#e0e0e0"/>
      <path id="Path_13179" data-name="Path 13179" d="M220.8,208.49c.044.065-10.134,6.945-22.728,15.37s-22.855,15.2-22.882,15.14,10.145-6.945,22.755-15.37S220.8,208.424,220.8,208.49Z" transform="translate(-138.449 -95.017)" fill="#e0e0e0"/>
      <rect id="Rectangle_500" data-name="Rectangle 500" width="61.703" height="90.853" transform="translate(213.949 161.099) rotate(-33.78)" fill="#f5f5f5"/>
      <path id="Path_13180" data-name="Path 13180" d="M617.361,362.1l-.582,3.6-25.5-3.674.588-3.6Z" transform="translate(-328.108 -163.351)" fill="#e0e0e0"/>
      <path id="Path_13181" data-name="Path 13181" d="M612.21,341.57l3.657.528-4.055,25.1-3.663-.528Z" transform="translate(-335.796 -155.667)" fill="#e0e0e0"/>
      <path id="Path_13182" data-name="Path 13182" d="M553.123,283c.044.065-5.089,3.576-11.468,7.837s-11.582,7.669-11.625,7.62,5.094-3.57,11.468-7.837S553.079,282.906,553.123,283Z" transform="translate(-300.187 -128.973)" fill="#e0e0e0"/>
      <path id="Path_13183" data-name="Path 13183" d="M575.053,274.25c.044.065-8.5,5.856-19.049,12.926s-19.19,12.763-19.234,12.7,8.5-5.856,19.049-12.932S574.993,274.184,575.053,274.25Z" transform="translate(-303.265 -124.986)" fill="#e0e0e0"/>
      <path id="Path_13184" data-name="Path 13184" d="M582,284.63c.043.065-8.5,5.856-19.049,12.932s-19.191,12.757-19.234,12.692,8.469-5.829,19.049-12.9S581.97,284.57,582,284.63Z" transform="translate(-306.433 -129.717)" fill="#e0e0e0"/>
      <path id="Path_13185" data-name="Path 13185" d="M588.943,295c.044.065-8.5,5.856-19.049,12.932S550.7,320.689,550.66,320.623s8.5-5.851,19.049-12.932S588.9,294.945,588.943,295Z" transform="translate(-309.596 -134.443)" fill="#e0e0e0"/>
      <path id="Path_13186" data-name="Path 13186" d="M595.943,305.41c.044.065-8.5,5.851-19.049,12.926s-19.191,12.757-19.234,12.7,8.5-5.856,19.049-12.932S595.872,305.344,595.943,305.41Z" transform="translate(-312.786 -139.187)" fill="#e0e0e0"/>
      <rect id="Rectangle_501" data-name="Rectangle 501" width="63.461" height="93.444" transform="translate(128.157 39.921) rotate(28.14)" fill="#f5f5f5"/>
      <path id="Path_13187" data-name="Path 13187" d="M336.9,211.506l-3.549,1.214-9.013-24.911,3.554-1.219Z" transform="translate(-206.434 -85.037)" fill="#e0e0e0"/>
      <path id="Path_13188" data-name="Path 13188" d="M336.7,199.53l1.3,3.576-24.742,8.474-1.3-3.58Z" transform="translate(-200.792 -90.934)" fill="#e0e0e0"/>
      <path id="Path_13189" data-name="Path 13189" d="M368.624,120.719c-.044.082-5.715-2.868-12.676-6.586s-12.561-6.8-12.518-6.885,5.72,2.868,12.681,6.586S368.667,120.632,368.624,120.719Z" transform="translate(-215.136 -48.877)" fill="#e0e0e0"/>
      <path id="Path_13190" data-name="Path 13190" d="M379.4,140.507c-.044.082-9.437-4.86-20.981-11.032s-20.861-11.244-20.818-11.326,9.432,4.855,20.976,11.032S379.443,140.426,379.4,140.507Z" transform="translate(-212.479 -53.845)" fill="#e0e0e0"/>
      <path id="Path_13191" data-name="Path 13191" d="M373.339,151.837c-.044.082-9.437-4.855-20.981-11.032S331.5,129.561,331.54,129.479s9.432,4.86,20.976,11.032S373.383,151.756,373.339,151.837Z" transform="translate(-209.717 -59.008)" fill="#e0e0e0"/>
      <path id="Path_13192" data-name="Path 13192" d="M367.279,163.172c-.044.082-9.437-4.855-20.981-11.027s-20.861-11.228-20.818-11.326,9.432,4.855,20.976,11.027S367.323,163.09,367.279,163.172Z" transform="translate(-206.955 -64.176)" fill="#e0e0e0"/>
      <path id="Path_13193" data-name="Path 13193" d="M361.219,174.5c-.044.082-9.437-4.855-20.981-11.027s-20.867-11.244-20.818-11.326,9.432,4.853,20.98,11.029S361.262,174.42,361.219,174.5Z" transform="translate(-204.193 -69.34)" fill="#e0e0e0"/>
      <rect id="Rectangle_502" data-name="Rectangle 502" width="1.404" height="23.937" transform="translate(155.908)" opacity="0.2"/>
    </g>
    <g id="Group_3347" data-name="Group 3347" transform="translate(221.781)">
      <path id="Path_13194" data-name="Path 13194" d="M335.23,72.949h65.561S394.739,44,367.515,44C343.3,44,335.23,72.949,335.23,72.949Z" transform="translate(-335.23 -20.053)" fill="#d72027"/>
      <rect id="Rectangle_503" data-name="Rectangle 503" width="1.404" height="23.937" transform="translate(32.079)" fill="#d72027"/>
    </g>
    <path id="Path_13195" data-name="Path 13195" d="M400.15,439.712c0,.076-70.255.142-156.9.142s-156.92-.054-156.92-.142,70.245-.142,156.916-.142S400.15,439.63,400.15,439.712Z" transform="translate(0.372 -200.77)" fill="#263238"/>
    <g id="Group_3348" data-name="Group 3348" transform="translate(97.949 205.289)">
      <path id="Path_13196" data-name="Path 13196" d="M116.594,377.2a6.869,6.869,0,0,1,4.779,2.449,12.056,12.056,0,0,1,2.433,4.9c.92,3.44.354,7.505-.626,10.929-3.723-1.333-6.025-5.306-7.075-7.4-1.633-3.3-2.607-10.265.474-10.885" transform="translate(-110.818 -377.19)" fill="#d72027"/>
      <path id="Path_13197" data-name="Path 13197" d="M139.459,410.188a5.845,5.845,0,0,1-.272-5.867,7.761,7.761,0,0,1,4.681-3.761,3.258,3.258,0,0,1,2.754.131,2.493,2.493,0,0,1,.963,2.346,5.045,5.045,0,0,1-1.089,2.406c-1.812,2.455-4.011,4.5-7.075,4.746" transform="translate(-121.737 -387.732)" fill="#d72027"/>
      <path id="Path_13198" data-name="Path 13198" d="M140.111,425.17a3.537,3.537,0,0,1-.169-.713c-.1-.512-.229-1.17-.386-1.959a20.556,20.556,0,0,1-.4-6.591,12.518,12.518,0,0,1,2.444-6.1,8.336,8.336,0,0,1,1.41-1.431,4.965,4.965,0,0,1,.446-.316.624.624,0,0,1,.163-.1,13.808,13.808,0,0,0-1.878,1.954,12.981,12.981,0,0,0-2.329,6.03,22.13,22.13,0,0,0,.332,6.531c.131.833.239,1.508.3,1.976A4.477,4.477,0,0,1,140.111,425.17Z" transform="translate(-121.976 -391.213)" fill="#263238"/>
      <path id="Path_13199" data-name="Path 13199" d="M120.49,386.83a1.277,1.277,0,0,1,.152.278c.1.218.229.49.381.833.332.724.795,1.774,1.355,3.075,1.121,2.607,2.623,6.232,4.191,10.27s2.9,7.723,3.81,10.406c.468,1.339.833,2.427,1.089,3.184.114.359.2.648.272.871a1.423,1.423,0,0,1,.082.31,1.339,1.339,0,0,1-.131-.294c-.082-.218-.185-.5-.321-.854l-1.148-3.157c-.974-2.661-2.335-6.341-3.9-10.374s-3.042-7.669-4.12-10.292c-.544-1.29-.963-2.34-1.274-3.108-.142-.348-.256-.626-.343-.849a1.9,1.9,0,0,1-.1-.3Z" transform="translate(-113.517 -381.583)" fill="#263238"/>
      <path id="Path_13200" data-name="Path 13200" d="M121.389,420.059a13.7,13.7,0,0,0-10.624-6.6c-1.089-.076-2.427.109-2.917,1.089s.163,2.177.914,2.972a11.7,11.7,0,0,0,12.665,2.83" transform="translate(-107.678 -393.711)" fill="#d72027"/>
      <path id="Path_13201" data-name="Path 13201" d="M116.43,418.886a3.891,3.891,0,0,1,.691.027,6.565,6.565,0,0,1,.8.093c.31.06.675.093,1.056.2a10.568,10.568,0,0,1,1.257.348,12.474,12.474,0,0,1,1.4.544,15.13,15.13,0,0,1,2.95,1.747,14.864,14.864,0,0,1,2.438,2.416,12.236,12.236,0,0,1,.855,1.225,11.934,11.934,0,0,1,.642,1.137,9.475,9.475,0,0,1,.435.98,6.169,6.169,0,0,1,.278.762,3.71,3.71,0,0,1,.18.669c-.06,0-.321-.936-1.056-2.329a11.958,11.958,0,0,0-.659-1.089,13.79,13.79,0,0,0-.86-1.192,14.5,14.5,0,0,0-5.3-4.093c-.474-.207-.925-.4-1.366-.544a11.909,11.909,0,0,0-1.235-.375C117.41,418.995,116.425,418.946,116.43,418.886Z" transform="translate(-111.667 -396.19)" fill="#263238"/>
    </g>
    <g id="Group_3350" data-name="Group 3350" transform="translate(133.295 102.435)">
      <path id="Path_13202" data-name="Path 13202" d="M280.77,228.957,261.5,327.9,259,340.857l128.445-.62c5.769-.027,10.885-5.149,12.73-12.757l22.783-93.411c1.41-5.775-1.682-11.783-6.058-11.778l-130.034.136C284.036,222.421,281.5,225.1,280.77,228.957Z" transform="translate(-211.988 -203.742)" fill="#d72027"/>
      <path id="Path_13203" data-name="Path 13203" d="M280.77,228.957,261.5,327.9,259,340.857l128.445-.62c5.769-.027,10.885-5.149,12.73-12.757l22.783-93.411c1.41-5.775-1.682-11.783-6.058-11.778l-130.034.136C284.036,222.421,281.5,225.1,280.77,228.957Z" transform="translate(-211.988 -203.742)" opacity="0.5"/>
      <path id="Path_13204" data-name="Path 13204" d="M335.774,305.656l-13.607-109.62a8.612,8.612,0,0,0-8.36-7.826l-29.825.093a8.164,8.164,0,0,0-5.894,2.612l-14.151,15.06-82.945.446c-5.067.027-8.964,4.828-8.295,10.216L185.329,317.95a8.623,8.623,0,0,0,8.349,7.826l144.582-.288c16.1.332,17.639-4.419,17.639-4.419C337.417,325.156,335.774,305.683,335.774,305.656Z" transform="translate(-172.622 -188.21)" fill="#d72027"/>
      <g id="Group_3349" data-name="Group 3349" transform="translate(58.376 60.576)" opacity="0.5">
        <path id="Path_13205" data-name="Path 13205" d="M322.31,335.428l-4.877,5.236L279.88,306.876l4.877-5.236Z" transform="translate(-279.88 -300.481)" fill="#fff"/>
        <path id="Path_13206" data-name="Path 13206" d="M316.674,299.51l5.388,4.849-33.978,36.493L282.69,336Z" transform="translate(-281.161 -299.51)" fill="#fff"/>
      </g>
    </g>
  </g>
</svg>
