<svg xmlns="http://www.w3.org/2000/svg" width="12.505" height="12.512" viewBox="0 0 12.505 12.512">
  <path id="point" d="M-10305,7468.138l.254,0h.016a4.7,4.7,0,0,0,1.49-.243l.241-.08.414,1.3-.254.067a9.426,9.426,0,0,1-1.895.311l-.264.013Zm-1.669,1.048a6.5,6.5,0,0,1-1.741-.893l-.2-.15.813-1.084.2.143a5.256,5.256,0,0,0,1.351.7l.23.078-.409,1.289Zm4.564-1.835.21-.15a4.645,4.645,0,0,0,1.1-1.1l.147-.21,1.095.818-.149.2a6.853,6.853,0,0,1-1.38,1.382l-.2.147Zm-7.69-.4a6.524,6.524,0,0,1-.893-1.739l-.08-.244,1.291-.4.078.23a5.208,5.208,0,0,0,.7,1.348l.143.2-1.087.815Zm9.611-1.957.082-.243a4.637,4.637,0,0,0,.244-1.5l0-.251h1.366l0,.253a6.9,6.9,0,0,1-.313,1.913l-.075.238Zm-10.812-1.5,0-.246a5.553,5.553,0,0,1,.313-1.93l.08-.228,1.288.407-.08.243a4.594,4.594,0,0,0-.245,1.5v.251Zm10.855-1.8a5.306,5.306,0,0,0-.7-1.349l-.143-.2,1.082-.815.149.207a6.392,6.392,0,0,1,.894,1.739l.08.244-1.286.4Zm-9.8-1.913.143-.2a6.579,6.579,0,0,1,1.338-1.382l.2-.155.815,1.087-.194.15a5.421,5.421,0,0,0-1.066,1.1l-.147.207Zm8-.536a5.287,5.287,0,0,0-1.354-.7l-.23-.081.409-1.286.243.078a6.507,6.507,0,0,1,1.736.89l.207.15-.812,1.087Zm-4.966-1.858.228-.08a5.907,5.907,0,0,1,1.931-.313l.245,0v1.353h-.261a4.726,4.726,0,0,0-1.5.244l-.24.08Z" transform="translate(10311 -7457)" fill="#d4d4d4"/>
</svg>
