<svg xmlns="http://www.w3.org/2000/svg" width="280" height="240" viewBox="0 0 280 240">
  <g id="Posts-rafiki" transform="translate(-28.657 -55)">
    <g id="Group_3342" data-name="Group 3342" transform="translate(28.657 55)">
      <rect id="Rectangle_473" data-name="Rectangle 473" width="280" height="0.149" transform="translate(0 210.84)" fill="#e0e0e0"/>
      <rect id="Rectangle_474" data-name="Rectangle 474" width="6.852" height="0.161" transform="translate(243.079 219.895)" fill="#e0e0e0"/>
      <rect id="Rectangle_475" data-name="Rectangle 475" width="27.868" height="0.161" transform="translate(210.471 219.972)" fill="#e0e0e0"/>
      <rect id="Rectangle_476" data-name="Rectangle 476" width="47.03" height="0.161" transform="translate(128.678 218.435)" fill="#e0e0e0"/>
      <rect id="Rectangle_477" data-name="Rectangle 477" width="14.925" height="0.161" transform="translate(86.539 221.238)" fill="#e0e0e0"/>
      <rect id="Rectangle_478" data-name="Rectangle 478" width="20.551" height="0.161" transform="translate(30.949 218.513)" fill="#e0e0e0"/>
      <rect id="Rectangle_479" data-name="Rectangle 479" width="19.207" height="0.161" transform="translate(55.233 218.513)" fill="#e0e0e0"/>
      <rect id="Rectangle_480" data-name="Rectangle 480" width="19.614" height="0.161" transform="translate(17.49 215.691)" fill="#e0e0e0"/>
      <path id="Path_13116" data-name="Path 13116" d="M166.6,237.644H41.891a3.688,3.688,0,0,1-3.681-3.688V58.655A3.688,3.688,0,0,1,41.891,55H166.6a3.688,3.688,0,0,1,3.688,3.688V233.956a3.688,3.688,0,0,1-3.688,3.688ZM41.891,55.129a3.526,3.526,0,0,0-3.52,3.526v175.3a3.526,3.526,0,0,0,3.52,3.526H166.6a3.533,3.533,0,0,0,3.526-3.526V58.655a3.533,3.533,0,0,0-3.526-3.526Z" transform="translate(-38.21 -55)" fill="#e0e0e0"/>
      <path id="Path_13117" data-name="Path 13117" d="M382.9,237.644H258.188a3.694,3.694,0,0,1-3.688-3.688V58.655A3.694,3.694,0,0,1,258.188,55H382.9a3.688,3.688,0,0,1,3.675,3.655v175.3a3.688,3.688,0,0,1-3.675,3.689ZM258.188,55.129a3.533,3.533,0,0,0-3.526,3.526v175.3a3.533,3.533,0,0,0,3.526,3.526H382.9a3.533,3.533,0,0,0,3.526-3.526V58.655a3.533,3.533,0,0,0-3.526-3.526Z" transform="translate(-114.109 -55)" fill="#e0e0e0"/>
      <rect id="Rectangle_481" data-name="Rectangle 481" width="244.829" height="185.091" rx="7.52" transform="translate(14.073 13.22)" fill="#e0e0e0"/>
      <rect id="Rectangle_482" data-name="Rectangle 482" width="244.829" height="185.091" rx="7.52" transform="translate(15.365 13.22)" fill="#ebebeb"/>
      <path id="Path_13118" data-name="Path 13118" d="M62,94.91v167.7a4.868,4.868,0,0,0,4.871,4.833H301.985a4.868,4.868,0,0,0,4.871-4.84V94.91Z" transform="translate(-46.635 -69.134)" fill="#e0e0e0"/>
      <rect id="Rectangle_483" data-name="Rectangle 483" width="243.034" height="159.619" transform="translate(16.263 32.234)" fill="#fafafa"/>
      <path id="Path_13119" data-name="Path 13119" d="M302.511,256.138H76.618a.084.084,0,0,1-.078-.084v-135.1a.078.078,0,0,1,.078-.077H302.511a.078.078,0,0,1,.078.078v135.1a.078.078,0,0,1-.078.084ZM76.7,255.977H302.426V121.041H76.7Z" transform="translate(-51.785 -78.633)" fill="#e0e0e0"/>
      <path id="Path_13120" data-name="Path 13120" d="M76.906,86.563a2.906,2.906,0,1,1,2.906-2.906A2.906,2.906,0,0,1,76.906,86.563Zm0-5.167a2.26,2.26,0,1,0,2.26,2.26,2.26,2.26,0,0,0-2.26-2.26Z" transform="translate(-50.885 -64.12)" fill="#fafafa"/>
      <path id="Path_13121" data-name="Path 13121" d="M91.076,86.563a2.906,2.906,0,1,1,2.906-2.906A2.906,2.906,0,0,1,91.076,86.563Zm0-5.167a2.26,2.26,0,1,0,2.26,2.26,2.26,2.26,0,0,0-2.26-2.26Z" transform="translate(-55.904 -64.12)" fill="#fafafa"/>
      <path id="Path_13122" data-name="Path 13122" d="M105.256,86.563a2.906,2.906,0,1,1,2.906-2.906A2.906,2.906,0,0,1,105.256,86.563Zm0-5.167a2.26,2.26,0,1,0,2.26,2.26,2.26,2.26,0,0,0-2.26-2.26Z" transform="translate(-60.926 -64.12)" fill="#fafafa"/>
      <rect id="Rectangle_484" data-name="Rectangle 484" width="244.829" height="0.646" transform="translate(15.365 25.453)" fill="#e0e0e0"/>
      <rect id="Rectangle_485" data-name="Rectangle 485" width="31.452" height="16.682" transform="translate(210.477 105.755)" fill="#fafafa"/>
      <rect id="Rectangle_486" data-name="Rectangle 486" width="31.452" height="31.452" transform="translate(210.477 126.35)" fill="#fafafa"/>
      <g id="Group_3341" data-name="Group 3341" transform="translate(-24.256 47.539)">
        <rect id="Rectangle_487" data-name="Rectangle 487" width="111.679" height="113.823" transform="translate(168.397)" fill="#ebebeb"/>
        <g id="Group_3340" data-name="Group 3340" transform="translate(-134.776)">
          <rect id="Rectangle_488" data-name="Rectangle 488" width="73.736" height="37.026" transform="translate(195.438)" fill="#ebebeb"/>
          <circle id="Ellipse_81" data-name="Ellipse 81" cx="8.396" cy="8.396" r="8.396" transform="translate(200.856 5.451)" fill="#fafafa"/>
          <rect id="Rectangle_489" data-name="Rectangle 489" width="36.38" height="3.442" transform="translate(225.398 5.451)" fill="#fafafa"/>
          <rect id="Rectangle_490" data-name="Rectangle 490" width="23.612" height="3.442" transform="translate(225.398 11.768)" fill="#fafafa"/>
          <rect id="Rectangle_491" data-name="Rectangle 491" width="73.736" height="93.44" transform="translate(195.438 50.873)" fill="#ebebeb"/>
          <rect id="Rectangle_492" data-name="Rectangle 492" width="31.452" height="31.452" transform="translate(198.712 57.919)" fill="#fafafa"/>
          <rect id="Rectangle_493" data-name="Rectangle 493" width="31.452" height="31.452" transform="translate(198.958 93.369)" fill="#fafafa"/>
          <rect id="Rectangle_494" data-name="Rectangle 494" width="31.452" height="15.726" transform="translate(198.958 128.587)" fill="#fafafa"/>
          <rect id="Rectangle_495" data-name="Rectangle 495" width="31.452" height="30.49" transform="translate(234.453 113.823)" fill="#fafafa"/>
        </g>
      </g>
    </g>
    <g id="Group_3343" data-name="Group 3343" transform="translate(40.218 280.378)">
      <ellipse id="Ellipse_82" data-name="Ellipse 82" cx="125.573" cy="7.311" rx="125.573" ry="7.311" transform="translate(0 0)" fill="#f5f5f5"/>
    </g>
    <g id="Group_3345" data-name="Group 3345" transform="translate(176.146 112.773)">
      <path id="Path_13123" data-name="Path 13123" d="M396.807,261.11l-4.237,2.2,4.747,3.69s3.19-2.674,1.938-4.521Z" transform="translate(-293.705 -186.384)" fill="#e4897b"/>
      <path id="Path_13124" data-name="Path 13124" d="M388.82,269.009l4.049,2.816,3.119-3.617-4.747-3.688Z" transform="translate(-292.377 -187.591)" fill="#e4897b"/>
      <path id="Path_13125" data-name="Path 13125" d="M398.536,204.4c.581.762,1.079,1.447,1.582,2.189s.982,1.46,1.46,2.2c.943,1.485,1.841,3.01,2.667,4.573a53.145,53.145,0,0,1,2.3,4.857l.51,1.292.459,1.292c.161.426.284.878.42,1.324l.2.646.045.168.077.278a5.865,5.865,0,0,1,.116.607,9.57,9.57,0,0,1-.258,3.655,21.309,21.309,0,0,1-.911,2.8,40.433,40.433,0,0,1-2.377,4.863,65.807,65.807,0,0,1-5.871,8.641l-2.971-1.937c1.427-2.977,2.822-6.045,4.043-9.042a44.56,44.56,0,0,0,1.556-4.476,14.859,14.859,0,0,0,.459-2.08,3.812,3.812,0,0,0,0-1.382h0l-.052-.129-.213-.536c-.136-.355-.265-.7-.433-1.059l-.465-1.059-.51-1.066q-1.059-2.112-2.273-4.2c-.82-1.382-1.666-2.764-2.583-4.12s-1.828-2.732-2.693-3.978Z" transform="translate(-293.793 -166.299)" fill="#e4897b"/>
      <path id="Path_13126" data-name="Path 13126" d="M406.17,212.568l-10.637,7.459s-.646-1.4-1.544-3.429c-.73-1.621-1.64-3.643-2.545-5.683-.368-.827-.73-1.653-1.085-2.461-2.461-5.606.413-9.642,5.464-8.893C400.273,200.226,406.17,212.568,406.17,212.568Z" transform="translate(-292.605 -164.554)" fill="#263238"/>
      <path id="Path_13127" data-name="Path 13127" d="M395.585,207.73a52.787,52.787,0,0,1-.51,11.793c-.73-1.621-1.64-3.643-2.545-5.683Z" transform="translate(-293.691 -167.479)" fill="#0761ce"/>
      <path id="Path_13128" data-name="Path 13128" d="M395.585,207.73a52.787,52.787,0,0,1-.51,11.793c-.73-1.621-1.64-3.643-2.545-5.683Z" transform="translate(-293.691 -167.479)" fill="#0761ce" opacity="0.8"/>
      <g id="Group_3344" data-name="Group 3344" transform="translate(98.839 40.251)" opacity="0.8">
        <path id="Path_13129" data-name="Path 13129" d="M395.585,207.73a52.787,52.787,0,0,1-.51,11.793c-.73-1.621-1.64-3.643-2.545-5.683Z" transform="translate(-392.53 -207.73)"/>
        <path id="Path_13130" data-name="Path 13130" d="M395.585,207.73a52.787,52.787,0,0,1-.51,11.793c-.73-1.621-1.64-3.643-2.545-5.683Z" transform="translate(-392.53 -207.73)" opacity="0.8"/>
      </g>
      <path id="Path_13131" data-name="Path 13131" d="M357.3,252.49l-113.526-30.2a5.813,5.813,0,0,1-4.095-7.065l5.386-20.254a5.813,5.813,0,0,1,7.065-4.075L365.655,221.09a5.813,5.813,0,0,1,4.1,7.072l-5.386,20.215a5.813,5.813,0,0,1-7.064,4.113Z" transform="translate(-239.49 -161.45)" fill="#d72027"/>
      <path id="Path_13132" data-name="Path 13132" d="M357.3,252.49l-113.526-30.2a5.813,5.813,0,0,1-4.095-7.065l5.386-20.254a5.813,5.813,0,0,1,7.065-4.075L365.655,221.09a5.813,5.813,0,0,1,4.1,7.072l-5.386,20.215a5.813,5.813,0,0,1-7.064,4.113Z" transform="translate(-239.49 -161.45)" fill="#fafafa" opacity="0.8"/>
      <path id="Path_13133" data-name="Path 13133" d="M358.788,255.093,245.269,224.861a5.813,5.813,0,0,1-4.1-7.066l5.393-20.247a5.813,5.813,0,0,1,7.066-4.1l113.519,30.2a5.813,5.813,0,0,1,4.1,7.066l-5.386,20.254A5.813,5.813,0,0,1,358.788,255.093Z" transform="translate(-240.018 -162.354)" fill="#d72027"/>
      <path id="Path_13134" data-name="Path 13134" d="M358.788,255.093,245.269,224.861a5.813,5.813,0,0,1-4.1-7.066l5.393-20.247a5.813,5.813,0,0,1,7.066-4.1l113.519,30.2a5.813,5.813,0,0,1,4.1,7.066l-5.386,20.254A5.813,5.813,0,0,1,358.788,255.093Z" transform="translate(-240.018 -162.354)" fill="#fafafa" opacity="0.4"/>
      <path id="Path_13135" data-name="Path 13135" d="M360.288,257.65l-113.519-30.2a5.813,5.813,0,0,1-4.1-7.066l5.386-20.254a5.813,5.813,0,0,1,7.072-4.095l113.519,30.193a5.813,5.813,0,0,1,4.1,7.1l-5.393,20.247a5.812,5.812,0,0,1-7.065,4.075Z" transform="translate(-240.549 -163.27)" fill="#f8d9db"/>
      <rect id="Rectangle_496" data-name="Rectangle 496" width="77.159" height="4.921" rx="1.91" transform="matrix(0.966, 0.257, -0.257, 0.966, 39.973, 45.223)" fill="#6b1013"/>
      <rect id="Rectangle_497" data-name="Rectangle 497" width="49.646" height="4.921" rx="1.91" transform="matrix(0.966, 0.257, -0.257, 0.966, 37.843, 53.239)" fill="#6b1013"/>
      <rect id="Rectangle_498" data-name="Rectangle 498" width="70.184" height="1.854" rx="0.927" transform="matrix(0.966, 0.257, -0.257, 0.966, 35.709, 61.255)" fill="#470a0d"/>
      <circle id="Ellipse_83" data-name="Ellipse 83" cx="11.564" cy="11.564" r="11.564" transform="matrix(0.571, -0.821, 0.821, 0.571, 3.419, 53.448)" fill="#d72027"/>
      <path id="Path_13136" data-name="Path 13136" d="M274.392,221.609a9.5,9.5,0,1,1-.947-7.265A9.5,9.5,0,0,1,274.392,221.609Z" transform="translate(-245.193 -168.137)" fill="#fafafa"/>
      <path id="Path_13137" data-name="Path 13137" d="M272.249,231.738A9.552,9.552,0,0,1,256,227.417a15.158,15.158,0,0,1,16.243,4.321Z" transform="translate(-245.337 -174.165)" fill="#d72027"/>
      <path id="Path_13138" data-name="Path 13138" d="M273.481,218.264a4.256,4.256,0,1,1-.43-3.233A4.256,4.256,0,0,1,273.481,218.264Z" transform="translate(-248.564 -169.313)" fill="#d72027"/>
      <path id="Path_13139" data-name="Path 13139" d="M381.992,178.12c-1.208,3.294-2.874,9.416-.859,12.064,0,0-1.479,3.3-7.8,2.286-6.949-1.117-2.771-3.978-2.771-3.978,3.94-.3,4.288-3.126,4.056-5.877Z" transform="translate(-285.471 -156.992)" fill="#e4897b"/>
      <path id="Path_13140" data-name="Path 13140" d="M369,194.163c.355-.6.039-2.945.039-2.945s10.049-.743,13.563.743c1.879.794,0,4.14,0,4.14Z" transform="translate(-285.357 -161.565)" fill="#d72027"/>
      <path id="Path_13141" data-name="Path 13141" d="M369,194.163c.355-.6.039-2.945.039-2.945s10.049-.743,13.563.743c1.879.794,0,4.14,0,4.14Z" transform="translate(-285.357 -161.565)" opacity="0.1"/>
      <path id="Path_13142" data-name="Path 13142" d="M370.5,168.747c-.065.375-.31.646-.555.607s-.394-.375-.336-.749.31-.646.555-.607S370.543,168.373,370.5,168.747Z" transform="translate(-285.57 -153.406)" fill="#263238"/>
      <path id="Path_13143" data-name="Path 13143" d="M369.666,169.45a13.408,13.408,0,0,1-2.306,2.913,2.183,2.183,0,0,0,1.737.646Z" transform="translate(-284.776 -153.921)" fill="#de5753"/>
      <path id="Path_13144" data-name="Path 13144" d="M372.426,166.524a.213.213,0,0,1-.2-.116,1.763,1.763,0,0,0-1.292-.962.226.226,0,0,1,.039-.446,2.222,2.222,0,0,1,1.647,1.2.226.226,0,0,1-.09.3A.206.206,0,0,1,372.426,166.524Z" transform="translate(-285.981 -152.345)" fill="#263238"/>
      <path id="Path_13145" data-name="Path 13145" d="M323.033,392.873l-4.663-.626.22-10.966,4.663.626Z" transform="translate(-267.426 -228.943)" fill="#e4897b"/>
      <path id="Path_13146" data-name="Path 13146" d="M374.9,401.232h-4.708l-3.662-10.9h4.7Z" transform="translate(-284.482 -232.148)" fill="#e4897b"/>
      <path id="Path_13147" data-name="Path 13147" d="M367.2,406.36h5.742a.42.42,0,0,1,.4.323l.93,4.185a.691.691,0,0,1-.691.833c-1.847-.032-3.19-.136-5.516-.136-1.434,0-4.379.149-6.355.149s-2.235-1.938-1.427-2.131c3.63-.794,4.992-1.886,6.155-2.932A1.143,1.143,0,0,1,367.2,406.36Z" transform="translate(-282.119 -237.825)" fill="#263238"/>
      <path id="Path_13148" data-name="Path 13148" d="M311.964,396.6l5.1.685a.407.407,0,0,1,.349.375l.362,4.269a.685.685,0,0,1-.781.736c-1.834-.284-4.469-.749-6.781-1.059-2.7-.368-4.521-.568-7.666-.995-1.938-.258-2.183-2.267-1.356-2.338,3.752-.3,6.194.052,9.6-1.466a2.2,2.2,0,0,1,1.175-.207Z" transform="translate(-261.181 -234.366)" fill="#263238"/>
      <path id="Path_13149" data-name="Path 13149" d="M318.646,381.28l-.116,5.658,4.669.626.11-5.651Z" transform="translate(-267.483 -228.943)" fill="#ce6f64"/>
      <path id="Path_13150" data-name="Path 13150" d="M371.238,390.34H366.53l1.892,5.619h4.708Z" transform="translate(-284.482 -232.152)" fill="#ce6f64"/>
      <path id="Path_13151" data-name="Path 13151" d="M356.728,194.715s-7.408,13.337-5.716,40.268l24.936,3.365c.691-3.8.807-22.8,6.936-40.346a64.773,64.773,0,0,0-8.209-2.183,91.518,91.518,0,0,0-10.6-1.434A47.04,47.04,0,0,0,356.728,194.715Z" transform="translate(-278.898 -162.743)" fill="#263238"/>
      <path id="Path_13152" data-name="Path 13152" d="M344.451,203.4c-1.033,1.789-2.131,3.52-3.229,5.277l-3.339,5.167c-1.111,1.731-2.273,3.436-3.442,5.167-.581.853-1.182,1.7-1.782,2.545l-.911,1.292c-.336.459-.73.982-1.1,1.414a36.715,36.715,0,0,1-4.844,4.611c-1.686,1.343-3.4,2.583-5.167,3.746a93.776,93.776,0,0,1-10.908,6.213L308,235.767c3.229-2.37,6.458-4.87,9.533-7.408,1.531-1.292,3.029-2.583,4.43-3.933a33.584,33.584,0,0,0,3.759-4.146,10.764,10.764,0,0,0,.723-1.053l.794-1.292,1.582-2.583,3.165-5.212,3.165-5.231c1.079-1.731,2.131-3.488,3.229-5.2Z" transform="translate(-263.753 -164.638)" fill="#e4897b"/>
      <path id="Path_13153" data-name="Path 13153" d="M357.442,200.642c-.6,4.456-8.4,15.061-8.4,15.061l-10.857-9.164a99.6,99.6,0,0,1,10.333-9.972C353.18,192.944,358.088,195.747,357.442,200.642Z" transform="translate(-274.445 -162.942)" fill="#263238"/>
      <path id="Path_13154" data-name="Path 13154" d="M309.392,253.46l-4.062,1.382,4.069,4.243s2.48-.3,2.254-3.72Z" transform="translate(-262.808 -183.674)" fill="#e4897b"/>
      <path id="Path_13155" data-name="Path 13155" d="M301.16,258.829l4.644,2.28,2.118-1.266-4.069-4.243Z" transform="translate(-261.331 -184.432)" fill="#e4897b"/>
      <path id="Path_13156" data-name="Path 13156" d="M383.218,166c-1.02,4.56-1.389,7.279-4.088,9.268-4.069,2.99-9.41,0-9.772-4.8-.329-4.295,1.4-11.024,6.2-12.135a6.368,6.368,0,0,1,7.66,7.666Z" transform="translate(-285.47 -149.925)" fill="#e4897b"/>
      <path id="Path_13157" data-name="Path 13157" d="M385.843,161.329a2.512,2.512,0,0,0-1.156-1.711c2.209-.969,1.1-2.092-.781-3.733h0a12.263,12.263,0,0,1-3.339-7.524c-.769,1.169-.562,2.893.09,4.443a10.7,10.7,0,0,1-1.937-3.035c-1.886-4.734-5.961-.594-9.894-.459-6.607.226-1.376-3.229,3.475-3.126-7.227-2.215-14.435.53-13.259,5.36s9.261-1.292,9.216,3.165c0,.9.988,1.8,2.454,2.5-2.034,4.185,2.926,12.594,5.813,12.865s7.944-4.753,8.157-9.106a3.23,3.23,0,0,1,1.163.362Z" transform="translate(-281.785 -145.406)" fill="#263238"/>
      <path id="Path_13158" data-name="Path 13158" d="M378.271,170.484a4.469,4.469,0,0,1-2.015,2.725c-1.343.788-2.409-.31-2.377-1.789.032-1.324.775-3.339,2.28-3.526a2,2,0,0,1,2.112,2.59Z" transform="translate(-287.085 -153.366)" fill="#e4897b"/>
      <path id="Path_13159" data-name="Path 13159" d="M367.7,348.38h-8.641s-11.38-29.018-12.587-44.072a45.506,45.506,0,0,1,1.214-12.064,192.439,192.439,0,0,1,6.846-23.25c2.086-5.813,3.759-9.914,3.759-9.914l16.1,2.176c-1.582,11.683-14.357,30.264-14.506,46.242C359.765,322.237,367.7,348.38,367.7,348.38Z" transform="translate(-277.356 -185.665)" fill="#d72027"/>
      <path id="Path_13160" data-name="Path 13160" d="M367.7,348.38h-8.641s-11.38-29.018-12.587-44.072a45.506,45.506,0,0,1,1.214-12.064,192.439,192.439,0,0,1,6.846-23.25c2.086-5.813,3.759-9.914,3.759-9.914l16.1,2.176c-1.582,11.683-14.357,30.264-14.506,46.242C359.765,322.237,367.7,348.38,367.7,348.38Z" transform="translate(-277.356 -185.665)" opacity="0.1"/>
      <path id="Path_13161" data-name="Path 13161" d="M359.341,278.1c-.562,7.808-6.568,16.114-10.921,19.582a192.448,192.448,0,0,1,6.846-23.25C356.487,274.278,358.418,276.687,359.341,278.1Z" transform="translate(-278.069 -191.097)" fill="#d72027"/>
      <path id="Path_13162" data-name="Path 13162" d="M359.341,278.1c-.562,7.808-6.568,16.114-10.921,19.582a192.448,192.448,0,0,1,6.846-23.25C356.487,274.278,358.418,276.687,359.341,278.1Z" transform="translate(-278.069 -191.097)" opacity="0.2"/>
      <path id="Path_13163" data-name="Path 13163" d="M337.968,257.26s-22.139,29.483-23.554,43.749c-1.473,14.854.885,40.688.885,40.688l7.9,1.066s2.383-24.258,4.7-38.75c2.519-15.784,26.479-32.1,28.152-44.324Z" transform="translate(-265.854 -185.02)" fill="#d72027"/>
      <path id="Path_13164" data-name="Path 13164" d="M337.968,257.26s-22.139,29.483-23.554,43.749c-1.473,14.854.885,40.688.885,40.688l7.9,1.066s2.383-24.258,4.7-38.75c2.519-15.784,26.479-32.1,28.152-44.324Z" transform="translate(-265.854 -185.02)" opacity="0.1"/>
      <path id="Path_13165" data-name="Path 13165" d="M362.944,395.869h11.27v-3.035l-12.594-.194Z" transform="translate(-282.743 -232.966)" fill="#d72027"/>
      <path id="Path_13166" data-name="Path 13166" d="M362.944,395.869h11.27v-3.035l-12.594-.194Z" transform="translate(-282.743 -232.966)" fill="#fafafa" opacity="0.4"/>
      <path id="Path_13167" data-name="Path 13167" d="M313.1,386.068l10.973,1.5.407-3.035L312.21,382.69Z" transform="translate(-265.244 -229.442)" fill="#d72027"/>
      <path id="Path_13168" data-name="Path 13168" d="M313.1,386.068l10.973,1.5.407-3.035L312.21,382.69Z" transform="translate(-265.244 -229.442)" fill="#fafafa" opacity="0.4"/>
      <path id="Path_13169" data-name="Path 13169" d="M368.193,406.984a1.414,1.414,0,0,1-.9-.245.646.646,0,0,1-.232-.588.355.355,0,0,1,.194-.316c.517-.258,2.041.646,2.209.775a.116.116,0,0,1,.052.11.1.1,0,0,1-.084.09,5.249,5.249,0,0,1-1.234.174Zm-.7-.975a.31.31,0,0,0-.142,0,.185.185,0,0,0-.071.129.459.459,0,0,0,.149.407,2.286,2.286,0,0,0,1.673.084,4.521,4.521,0,0,0-1.608-.62Z" transform="translate(-284.667 -237.623)" fill="#d72027"/>
      <path id="Path_13170" data-name="Path 13170" d="M369.928,406.219h-.052c-.491-.265-1.427-1.292-1.33-1.821a.362.362,0,0,1,.355-.291.581.581,0,0,1,.471.142c.549.446.646,1.8.646,1.86a.1.1,0,0,1-.052.1Zm-.949-1.938h-.052c-.142,0-.155.084-.161.11-.058.31.543,1.091,1.027,1.46a2.712,2.712,0,0,0-.555-1.473.387.387,0,0,0-.258-.071Z" transform="translate(-285.194 -237.025)" fill="#d72027"/>
      <path id="Path_13171" data-name="Path 13171" d="M315.133,396.8a2.812,2.812,0,0,1-1.938-.491.646.646,0,0,1-.136-.568.387.387,0,0,1,.226-.271c.607-.232,2.351.969,2.551,1.1a.116.116,0,0,1,.045.123.11.11,0,0,1-.1.077A5.976,5.976,0,0,1,315.133,396.8Zm-1.666-1.137a.258.258,0,0,0-.123,0,.123.123,0,0,0-.084.1.42.42,0,0,0,.084.375,3,3,0,0,0,2.067.407,5.38,5.38,0,0,0-1.944-.885Z" transform="translate(-265.539 -233.959)" fill="#d72027"/>
      <path id="Path_13172" data-name="Path 13172" d="M316.459,396.28H316.4c-.53-.329-1.5-1.485-1.35-2,.032-.116.136-.258.42-.258h.032a.846.846,0,0,1,.588.278,3.165,3.165,0,0,1,.478,1.892.1.1,0,0,1-.058.1Zm-.988-2.054c-.181,0-.2.071-.207.1-.1.31.555,1.2,1.085,1.628a2.635,2.635,0,0,0-.426-1.524.581.581,0,0,0-.426-.2Z" transform="translate(-266.245 -233.455)" fill="#d72027"/>
    </g>
  </g>
</svg>
