<svg xmlns="http://www.w3.org/2000/svg" width="22" height="22" viewBox="0 0 22 22">
  <path id="resend-verification-mail-icon" d="M4.294,19.865A10.532,10.532,0,0,1-.36,8.159a10.673,10.673,0,0,1,3.728-5.7A10.864,10.864,0,0,1,8.458.218v-1.69a.612.612,0,0,1,.926-.518l3.864,2.7a.638.638,0,0,1,0,1.064L9.383,4.467a.6.6,0,0,1-.926-.519L8.43,2.483A8.672,8.672,0,0,0,4.512,4.011,9.059,9.059,0,0,0,1.082,8.6,9.3,9.3,0,0,0,4.7,19.237a.384.384,0,0,1,.082.519.366.366,0,0,1-.3.166A.335.335,0,0,1,4.294,19.865Zm.733-1.294a1.244,1.244,0,0,1-1.167-1.314V8.812L12.2,12.518a1.1,1.1,0,0,0,.375.094,1.094,1.094,0,0,0,.375-.094l8.338-3.706v8.445a1.285,1.285,0,0,1-1.25,1.314ZM3.9,7.826V7.263A1.278,1.278,0,0,1,5.109,5.949H20.117a1.244,1.244,0,0,1,1.167,1.314v.563l-8.713,3.847Z" transform="translate(0.715 2.078)" fill="#fff" opacity="0.85"/>
</svg>
