<svg xmlns="http://www.w3.org/2000/svg" xmlns:xlink="http://www.w3.org/1999/xlink" width="351.128" height="77" viewBox="0 0 351.128 77">
  <defs>
    <linearGradient id="linear-gradient" x1="-0.35" y1="1.21" x2="1.493" y2="-0.33" gradientUnits="objectBoundingBox">
      <stop offset="0.229" stop-color="#4f2428"/>
      <stop offset="0.261" stop-color="#582628"/>
      <stop offset="0.315" stop-color="#712b2b"/>
      <stop offset="0.383" stop-color="#9b352f"/>
      <stop offset="0.463" stop-color="#d34234"/>
      <stop offset="0.472" stop-color="#db4435"/>
      <stop offset="0.528" stop-color="#b7392d"/>
      <stop offset="0.651" stop-color="#5f1e19"/>
      <stop offset="0.708" stop-color="#351210"/>
    </linearGradient>
    <linearGradient id="linear-gradient-2" y1="0.5" x2="1" y2="0.5" gradientUnits="objectBoundingBox">
      <stop offset="0.089" stop-color="#cf9f98"/>
      <stop offset="0.111" stop-color="#d3a8a2"/>
      <stop offset="0.19" stop-color="#e3c7c3"/>
      <stop offset="0.27" stop-color="#efe0dd"/>
      <stop offset="0.353" stop-color="#f8f1f0"/>
      <stop offset="0.439" stop-color="#fdfbfb"/>
      <stop offset="0.534" stop-color="#fff"/>
      <stop offset="0.611" stop-color="#fdfbfb"/>
      <stop offset="0.676" stop-color="#f8f2f1"/>
      <stop offset="0.735" stop-color="#f0e2e0"/>
      <stop offset="0.792" stop-color="#e5cbc7"/>
      <stop offset="0.847" stop-color="#d6aea8"/>
      <stop offset="0.872" stop-color="#cf9f98"/>
    </linearGradient>
    <filter id="Path_3937" x="0" y="18.426" width="76.693" height="57.452" filterUnits="userSpaceOnUse">
      <feOffset dx="-1" dy="2" input="SourceAlpha"/>
      <feGaussianBlur stdDeviation="1" result="blur"/>
      <feFlood flood-opacity="0.89"/>
      <feComposite operator="in" in2="blur"/>
      <feComposite in="SourceGraphic"/>
    </filter>
    <filter id="Ellipse_42" x="27.458" y="5.482" width="20.213" height="20.171" filterUnits="userSpaceOnUse">
      <feOffset dx="-2" dy="3" input="SourceAlpha"/>
      <feGaussianBlur stdDeviation="1" result="blur-2"/>
      <feFlood flood-opacity="0.851"/>
      <feComposite operator="in" in2="blur-2"/>
      <feComposite in="SourceGraphic"/>
    </filter>
  </defs>
  <g id="SCOT-Logo_En" data-name="SCOT-Logo En" transform="translate(314.141 -66.5)">
    <g id="Group_8453" data-name="Group 8453" transform="translate(89)">
      <g id="Group_1855" data-name="Group 1855" transform="translate(-313.014 104.25)">
        <path id="Path_3938" data-name="Path 3938" d="M75.934,138.478h2.347l-.21,1.451a3.753,3.753,0,0,0-3.685,1.19q-1.35,3.857,4.092,2.745l-.407,1.7H71.122l.013-1.908h1.587Q72.21,139.525,75.934,138.478Z" transform="translate(-71.122 -131.143)" fill="#fff"/>
        <path id="Path_3939" data-name="Path 3939" d="M77.265,147.216V134.247h1.653v11.191h2.15v1.778Z" transform="translate(-68.704 -132.809)" fill="#fff"/>
        <path id="Path_3940" data-name="Path 3940" d="M91.677,142.277v1.778H79.824v-1.778Z" transform="translate(-67.697 -129.648)" fill="#fff"/>
        <path id="Path_3941" data-name="Path 3941" d="M88.74,145.113v-6.132l1.653-.627v6.759h9.7a2.539,2.539,0,0,0,1.625-.379,1.861,1.861,0,0,0,.511-1.288,1.932,1.932,0,0,0-.393-1.47,1.764,1.764,0,0,0-1.055-.661,14.909,14.909,0,0,0-2.17-.085H90.59v-1.791h9.086a5.488,5.488,0,0,1,2.9.654q2.136,1.635,1.035,5.02A3.714,3.714,0,0,1,101,146.891H88.151v-1.778Zm6.55-8.178a.994.994,0,0,0,1.462,0,1.173,1.173,0,0,0,.013-1.555.932.932,0,0,0-.708-.307,1.025,1.025,0,0,0-.754.326,1.05,1.05,0,0,0-.322.758A1.077,1.077,0,0,0,95.29,136.935Zm9.839,8.178v1.778h-3.421q1.9-.888,2.1-1.778Z" transform="translate(-64.419 -132.484)" fill="#fff"/>
        <path id="Path_3942" data-name="Path 3942" d="M106.07,136.957q3.894-.341,5.94,3.477l.8,1.8-1.927.013q-1.442-4.262-5.074-3.465-3.593.679-2.963,4.524a2.863,2.863,0,0,0,1,1.072h8.837l-.906,1.778H99.92v-1.778h1.561a4.7,4.7,0,0,1-.577-2.313Q101.468,137.9,106.07,136.957Z" transform="translate(-59.787 -131.753)" fill="#fff"/>
        <path id="Path_3943" data-name="Path 3943" d="M116.466,134.653h1.653v10.564a3.612,3.612,0,0,1-.839,1.5,4.537,4.537,0,0,1-2.412,1.4,5.435,5.435,0,0,1-4.853-1.412l1.129-1.125q2.072,1.7,3.789.838,1.507-.811,1.533-1.516Zm-5.009-1.438h.656l-.066.406a1.033,1.033,0,0,0-1.023.328q-.38,1.085,1.141.771l-.118.484-1.941-.013v-.524h.446A1.174,1.174,0,0,1,111.457,133.215Zm1.4,12.354-2.5-9.308,1.587-.51,2.5,9.308Z" transform="translate(-55.813 -133.215)" fill="#fff"/>
        <path id="Path_3944" data-name="Path 3944" d="M117.053,147.216V134.247H118.7v12.969Z" transform="translate(-53.043 -132.809)" fill="#fff"/>
        <path id="Path_3945" data-name="Path 3945" d="M135.032,138.739v6.655h.812v1.778l-9.164.013a3.749,3.749,0,0,1-2.649-2.393q-.615-3.541,2.885-5.712a6.024,6.024,0,0,1,6.451.877v-1.217Zm-5.782,1.348q-4,.483-3.566,4.248a1.45,1.45,0,0,0,1.377,1.072h6.018c.157-.017.245-.13.262-.339Q133.957,140.32,129.25,140.086Zm-1.58-3.865a.976.976,0,0,0,.729.321.966.966,0,0,0,.733-.321,1.171,1.171,0,0,0,.014-1.555.934.934,0,0,0-.708-.307,1.023,1.023,0,0,0-.754.326,1.05,1.05,0,0,0-.322.758A1.082,1.082,0,0,0,127.67,136.222Zm2.5,0a.994.994,0,0,0,1.462,0,1.171,1.171,0,0,0,.014-1.555.934.934,0,0,0-.708-.307,1.023,1.023,0,0,0-.754.326,1.05,1.05,0,0,0-.322.758A1.082,1.082,0,0,0,130.174,136.222Z" transform="translate(-50.333 -132.764)" fill="#fff"/>
        <path id="Path_3946" data-name="Path 3946" d="M138.415,136.957q3.894-.341,5.94,3.477l.8,1.8-1.927.013q-1.442-4.262-5.074-3.465-3.591.679-2.963,4.524a2.862,2.862,0,0,0,1,1.072h8.837l-.9,1.778H132.266v-1.778h1.561a4.7,4.7,0,0,1-.577-2.313Q133.812,137.9,138.415,136.957Z" transform="translate(-47.055 -131.753)" fill="#fff"/>
        <path id="Path_3947" data-name="Path 3947" d="M142.5,147.216V134.247h1.651v12.969Z" transform="translate(-43.026 -132.809)" fill="#fff"/>
        <path id="Path_3948" data-name="Path 3948" d="M150.562,145.488q-1.062,4.392-6.517,3.555l.184-1.66a4.442,4.442,0,0,0,3.3-.137,3.042,3.042,0,0,0,1.343-1.759v-6.851h1.692Z" transform="translate(-42.419 -131.081)" fill="#fff"/>
        <path id="Path_3949" data-name="Path 3949" d="M156.561,146.448h-1.023q-1.062,4.392-6.517,3.555l.184-1.66a4.442,4.442,0,0,0,3.3-.137,3.042,3.042,0,0,0,1.343-1.759V139.6h1.692v5.073h1.023Zm-2.72-8.387a.994.994,0,0,0,1.462,0,1.173,1.173,0,0,0,.012-1.555.931.931,0,0,0-.708-.308,1.027,1.027,0,0,0-.754.328,1.046,1.046,0,0,0-.321.758A1.076,1.076,0,0,0,153.841,138.061Z" transform="translate(-40.46 -132.041)" fill="#fff"/>
        <path id="Path_3950" data-name="Path 3950" d="M154.065,147.216v-1.778h2.15V134.247h1.651v12.969Z" transform="translate(-38.475 -132.809)" fill="#fff"/>
        <path id="Path_3951" data-name="Path 3951" d="M167.944,136.78l.5,1.686a4.712,4.712,0,0,0-3.959,2.366,3.278,3.278,0,0,0-.145,2.68q.512,1.045,2.4.928h13.281q.684-.51.014-.955H171.9a2.459,2.459,0,0,1-2.2-1.849q-.525-1.654,1.784-3.589,4.143-2.471,9.178.654l-1,1.5a7.214,7.214,0,0,0-6.727-1.295q-1.888.851-1.782,1.824t.773.973h7.736a2.65,2.65,0,0,1,2.018,1.034q1.221,2.862-2.635,3.477h-13.57a4.367,4.367,0,0,1-2.347-1.151,3.549,3.549,0,0,1-.787-2.1Q162.568,138.022,167.944,136.78Zm1.173,12.9a.994.994,0,0,0,1.462,0,1.173,1.173,0,0,0,.012-1.555.935.935,0,0,0-.708-.308,1.022,1.022,0,0,0-.754.328,1.046,1.046,0,0,0-.321.758A1.076,1.076,0,0,0,169.117,149.677Zm2.5,0a.992.992,0,0,0,1.46,0,1.171,1.171,0,0,0,.014-1.555.933.933,0,0,0-.708-.308,1.019,1.019,0,0,0-.754.328,1.046,1.046,0,0,0-.321.758A1.076,1.076,0,0,0,171.621,149.677Z" transform="translate(-35.216 -131.812)" fill="#fff"/>
        <path id="Path_3952" data-name="Path 3952" d="M183.614,136.883q5.7.393,5.887,5.831a4.534,4.534,0,0,1-1.979,3.36,9.219,9.219,0,0,1-2.033.1H178.6l-.878-1.778h8.653a1.442,1.442,0,0,0,1.076-.719q1.087-5.124-4.3-4.929a4.665,4.665,0,0,0-3.449,3.518h-1.782Q178.71,137.512,183.614,136.883Z" transform="translate(-29.161 -131.771)" fill="#fff"/>
        <path id="Path_3953" data-name="Path 3953" d="M199.108,144.3v1.778h-9.991a3.316,3.316,0,0,1-1.8-1.686q-1.39-5.688,3.8-7.2,7.105-.64,6.5,7.112-.42,5.124-3.683,5.517h-3.855l-.971-1.778h5.207a4.689,4.689,0,0,0,1.743-3.922q.418-5.974-4.9-5.374a3.439,3.439,0,0,0-2.582,3.6,1.87,1.87,0,0,0,.982,1.961Z" transform="translate(-25.501 -131.67)" fill="#fff"/>
        <path id="Path_3954" data-name="Path 3954" d="M195.141,144.414h1.338a6.2,6.2,0,0,1,1.062-5.765h-1.154l.787-1.778h3.474q7.826-.378,7.906,5.687a5.592,5.592,0,0,1-.315,1.856h1.547v1.778H195.141Zm7.041-5.765q-3.84.341-4.26,3.608a3.865,3.865,0,0,0,.59,2.157H206.1a3.416,3.416,0,0,0-.17-4.575A5.732,5.732,0,0,0,202.182,138.649Z" transform="translate(-22.307 -131.785)" fill="#fff"/>
        <path id="Path_3955" data-name="Path 3955" d="M211.862,144.186H213.7v-6.132l1.653-.627v6.759h1.4v1.778H205.359v-1.778H206.8v-6.132l1.651-.627v6.759h1.757v-6.132l1.651-.627Z" transform="translate(-18.285 -131.557)" fill="#fff"/>
        <path id="Path_3956" data-name="Path 3956" d="M213.14,147.216v-1.778h2.149V134.247h1.653v12.969Z" transform="translate(-15.222 -132.809)" fill="#fff"/>
        <path id="Path_3957" data-name="Path 3957" d="M217.053,147.216V134.247h1.653v12.969Z" transform="translate(-13.682 -132.809)" fill="#fff"/>
        <path id="Path_3958" data-name="Path 3958" d="M230.839,146.448h-1.023Q228.755,150.84,223.3,150l.184-1.66a4.442,4.442,0,0,0,3.3-.137,3.05,3.05,0,0,0,1.345-1.759V139.6h1.69v5.073h1.023Zm-2.72-8.387a.994.994,0,0,0,1.462,0,1.173,1.173,0,0,0,.013-1.555.931.931,0,0,0-.708-.308,1.029,1.029,0,0,0-.754.328,1.046,1.046,0,0,0-.321.758A1.081,1.081,0,0,0,228.119,138.061Z" transform="translate(-11.223 -132.041)" fill="#fff"/>
        <path id="Path_3959" data-name="Path 3959" d="M242.7,134.21l-.262,2.1-7.985,3.465h5.389a5.488,5.488,0,0,1,2.9.654q2.138,1.635,1.035,5.02a3.714,3.714,0,0,1-2.609,1.778H228.315v-1.778H240.26a2.544,2.544,0,0,0,1.626-.379,1.867,1.867,0,0,0,.511-1.288,1.938,1.938,0,0,0-.394-1.47,1.76,1.76,0,0,0-1.055-.661,14.922,14.922,0,0,0-2.17-.085h-7.971q-1.01,0-1.24-.517t.492-1.1Z" transform="translate(-9.249 -132.823)" fill="#fff"/>
        <path id="Path_3960" data-name="Path 3960" d="M247.548,145.488h-1.023q-1.062,4.392-6.517,3.555l.184-1.66a4.442,4.442,0,0,0,3.3-.137,3.042,3.042,0,0,0,1.343-1.759v-6.851h1.692v5.073h1.023Z" transform="translate(-4.646 -131.081)" fill="#fff"/>
        <path id="Path_3961" data-name="Path 3961" d="M247.321,143.508a4.225,4.225,0,0,1,3.8-4.354,3.613,3.613,0,0,1,3.92,2.837q.629,2.628-1.993,4.536l-.5.183-3.028-1.961.184-1.686,2.49,1.426q1.141.144,1.154-1.073a2.189,2.189,0,0,0-.577-2,3.276,3.276,0,0,0-2.189-.406q-.918.224-1.455,1.674l-.315,1.883q-.184.719-1.9.719h-1.8v-1.778Zm9.1,0v1.778h-2.2v-1.778Z" transform="translate(-2.636 -130.879)" fill="#fff"/>
        <path id="Path_3962" data-name="Path 3962" d="M252.993,147.216v-1.778h2.149V134.247h1.653v12.969Z" transform="translate(0.464 -132.809)" fill="#fff"/>
        <path id="Path_3963" data-name="Path 3963" d="M256.907,147.216V134.247h1.651v12.969Z" transform="translate(2.005 -132.809)" fill="#fff"/>
      </g>
      <g id="Group_1856" data-name="Group 1856" transform="translate(-311.127 87.5)">
        <path id="Path_3964" data-name="Path 3964" d="M78.229,153.461a2.332,2.332,0,0,0-.874-1.748,3.171,3.171,0,0,0-1.909-.541,4.564,4.564,0,0,0-.927.093,2.453,2.453,0,0,0-.81.314,1.647,1.647,0,0,0-.566.588,1.807,1.807,0,0,0-.212.917,1.165,1.165,0,0,0,.307.839,2.258,2.258,0,0,0,.817.524,6.85,6.85,0,0,0,1.155.337q.644.134,1.32.29t1.321.368a4.268,4.268,0,0,1,1.147.573,2.747,2.747,0,0,1,.81.917,3.159,3.159,0,0,1-.095,2.9,3.3,3.3,0,0,1-1.028,1.034,4.613,4.613,0,0,1-1.408.588,6.677,6.677,0,0,1-3.332-.047,4.284,4.284,0,0,1-1.477-.721,3.437,3.437,0,0,1-1.006-1.231,3.916,3.916,0,0,1-.369-1.763h1.415a2.536,2.536,0,0,0,.275,1.215,2.507,2.507,0,0,0,.723.838,3.048,3.048,0,0,0,1.038.486,4.778,4.778,0,0,0,1.233.158,5.574,5.574,0,0,0,1.013-.095,3.007,3.007,0,0,0,.92-.321,1.724,1.724,0,0,0,.913-1.622,1.4,1.4,0,0,0-.307-.941,2.268,2.268,0,0,0-.811-.588,6.185,6.185,0,0,0-1.147-.376q-.644-.148-1.32-.29t-1.321-.337a4.563,4.563,0,0,1-1.155-.524,2.581,2.581,0,0,1-.817-.831,2.4,2.4,0,0,1-.307-1.27,2.951,2.951,0,0,1,.346-1.466,3.033,3.033,0,0,1,.92-1.019,4.134,4.134,0,0,1,1.3-.6,5.761,5.761,0,0,1,1.5-.2,6.029,6.029,0,0,1,1.6.2,3.6,3.6,0,0,1,1.29.642,3.245,3.245,0,0,1,.879,1.105,3.876,3.876,0,0,1,.362,1.592Z" transform="translate(-71.092 -149.918)" fill="#fff"/>
        <path id="Path_3965" data-name="Path 3965" d="M86.027,160.45a1.831,1.831,0,0,1-.957.219,1.133,1.133,0,0,1-.826-.3,1.289,1.289,0,0,1-.307-.956,3.252,3.252,0,0,1-1.281.956,4.13,4.13,0,0,1-1.579.3,4.237,4.237,0,0,1-1.045-.125,2.352,2.352,0,0,1-.857-.4,1.957,1.957,0,0,1-.574-.705,2.348,2.348,0,0,1-.212-1.042,2.376,2.376,0,0,1,.236-1.129,2,2,0,0,1,.62-.7,3.094,3.094,0,0,1,.881-.415,8.973,8.973,0,0,1,1.015-.244c.367-.072.715-.128,1.045-.164a5.771,5.771,0,0,0,.872-.156,1.453,1.453,0,0,0,.6-.3.723.723,0,0,0,.22-.571,1.332,1.332,0,0,0-.164-.707,1.138,1.138,0,0,0-.424-.407,1.745,1.745,0,0,0-.583-.188,4.516,4.516,0,0,0-.637-.047,2.828,2.828,0,0,0-1.415.322,1.366,1.366,0,0,0-.613,1.215H78.7a2.9,2.9,0,0,1,.315-1.271,2.4,2.4,0,0,1,.754-.838,3.191,3.191,0,0,1,1.084-.463,5.786,5.786,0,0,1,1.29-.141,7.7,7.7,0,0,1,1.091.078,2.888,2.888,0,0,1,.984.321,1.9,1.9,0,0,1,.707.683,2.173,2.173,0,0,1,.268,1.144v4.168a3.148,3.148,0,0,0,.054.69c.036.146.16.22.369.22a1.2,1.2,0,0,0,.408-.079ZM83.859,156.3a1.407,1.407,0,0,1-.471.22c-.19.052-.389.1-.6.132s-.432.068-.668.095-.464.06-.684.1a5.523,5.523,0,0,0-.629.156,1.705,1.705,0,0,0-.518.259,1.231,1.231,0,0,0-.354.415,1.322,1.322,0,0,0-.134.627,1.081,1.081,0,0,0,.134.556,1.094,1.094,0,0,0,.346.368,1.448,1.448,0,0,0,.495.2,2.76,2.76,0,0,0,.6.063,3.143,3.143,0,0,0,1.132-.181,2.38,2.38,0,0,0,.771-.454,1.8,1.8,0,0,0,.439-.6,1.5,1.5,0,0,0,.142-.6Z" transform="translate(-68.22 -149.024)" fill="#fff"/>
        <path id="Path_3966" data-name="Path 3966" d="M91.489,160.428H90.232v-1.285H90.2a2.772,2.772,0,0,1-1.093,1.112,3.209,3.209,0,0,1-1.55.361,3.53,3.53,0,0,1-1.335-.219,2.2,2.2,0,0,1-.864-.612,2.278,2.278,0,0,1-.464-.932,5,5,0,0,1-.134-1.2v-5.328H86.1v5.485A1.61,1.61,0,0,0,86.537,159a1.642,1.642,0,0,0,1.211.439,2.726,2.726,0,0,0,1.061-.188,1.986,1.986,0,0,0,.747-.534,2.282,2.282,0,0,0,.447-.807,3.248,3.248,0,0,0,.151-1.01v-4.577h1.335Z" transform="translate(-65.711 -148.971)" fill="#fff"/>
        <path id="Path_3967" data-name="Path 3967" d="M98.418,161.3H97.083v-1.1h-.032a2.006,2.006,0,0,1-1.037.98,3.888,3.888,0,0,1-1.557.305,3.7,3.7,0,0,1-1.643-.344,3.365,3.365,0,0,1-1.162-.932,4.134,4.134,0,0,1-.7-1.356,5.525,5.525,0,0,1-.236-1.631,5.628,5.628,0,0,1,.227-1.622,3.91,3.91,0,0,1,.693-1.339,3.281,3.281,0,0,1,1.162-.917,3.694,3.694,0,0,1,1.626-.337,3.976,3.976,0,0,1,.677.063,3.475,3.475,0,0,1,.722.212,3.08,3.08,0,0,1,.684.392,2.13,2.13,0,0,1,.542.6h.032v-4.17h1.335Zm-6.287-3.98a4.142,4.142,0,0,0,.149,1.1,2.976,2.976,0,0,0,.456.964,2.25,2.25,0,0,0,.786.675,2.406,2.406,0,0,0,1.123.251,2.215,2.215,0,0,0,1.919-.964,2.93,2.93,0,0,0,.432-.98,4.752,4.752,0,0,0,.132-1.114,4.634,4.634,0,0,0-.141-1.151,2.881,2.881,0,0,0-.447-.98,2.3,2.3,0,0,0-.794-.681,2.481,2.481,0,0,0-1.179-.259,2.3,2.3,0,0,0-1.155.266,2.162,2.162,0,0,0-.747.707,3.063,3.063,0,0,0-.408,1A5.338,5.338,0,0,0,92.132,157.32Z" transform="translate(-63.367 -149.843)" fill="#fff"/>
        <path id="Path_3968" data-name="Path 3968" d="M99.113,151.74H97.777v-1.631h1.336ZM97.777,153.2h1.336v8.1H97.777Z" transform="translate(-60.589 -149.843)" fill="#fff"/>
        <path id="Path_3969" data-name="Path 3969" d="M111.564,153.554a3.152,3.152,0,0,0-.408-1.042,2.663,2.663,0,0,0-.7-.744,3.036,3.036,0,0,0-.935-.446,3.928,3.928,0,0,0-1.1-.149,3.648,3.648,0,0,0-1.72.376,3.382,3.382,0,0,0-1.179,1.01,4.355,4.355,0,0,0-.684,1.451,6.467,6.467,0,0,0-.22,1.692,7.256,7.256,0,0,0,.22,1.81,4.3,4.3,0,0,0,.684,1.488,3.358,3.358,0,0,0,1.186,1.012,3.722,3.722,0,0,0,1.729.376,3.314,3.314,0,0,0,1.311-.244,2.96,2.96,0,0,0,.991-.673,3.088,3.088,0,0,0,.652-1.027,4.226,4.226,0,0,0,.283-1.285h1.494a5.1,5.1,0,0,1-1.47,3.29,4.7,4.7,0,0,1-3.386,1.192,5.33,5.33,0,0,1-2.28-.454,4.571,4.571,0,0,1-1.619-1.238,5.281,5.281,0,0,1-.966-1.849,7.829,7.829,0,0,1-.323-2.288,7.428,7.428,0,0,1,.347-2.3,5.546,5.546,0,0,1,1.013-1.873,4.747,4.747,0,0,1,1.658-1.261,5.378,5.378,0,0,1,2.3-.463,5.77,5.77,0,0,1,1.667.236,4.458,4.458,0,0,1,1.4.69,3.867,3.867,0,0,1,1.021,1.136,4.141,4.141,0,0,1,.535,1.575Z" transform="translate(-58.484 -149.918)" fill="#fff"/>
        <path id="Path_3970" data-name="Path 3970" d="M118.559,157.911a3.29,3.29,0,0,1-1.179,2.053,3.642,3.642,0,0,1-2.3.705,4.085,4.085,0,0,1-1.689-.322,3.4,3.4,0,0,1-1.2-.885,3.714,3.714,0,0,1-.73-1.348,6.391,6.391,0,0,1-.275-1.709,4.892,4.892,0,0,1,.281-1.685,4.052,4.052,0,0,1,.794-1.339,3.6,3.6,0,0,1,1.21-.878,3.71,3.71,0,0,1,1.533-.314,3.355,3.355,0,0,1,1.8.446,3.563,3.563,0,0,1,1.147,1.137,4.455,4.455,0,0,1,.6,1.5,6.368,6.368,0,0,1,.134,1.553H112.6a3.213,3.213,0,0,0,.127,1.01,2.255,2.255,0,0,0,.456.846,2.232,2.232,0,0,0,.8.588,2.772,2.772,0,0,0,1.148.22,2.319,2.319,0,0,0,1.382-.393,1.88,1.88,0,0,0,.723-1.19Zm-1.289-2.258a2.738,2.738,0,0,0-.212-.893,2.236,2.236,0,0,0-1.218-1.214,2.313,2.313,0,0,0-.911-.181,2.336,2.336,0,0,0-.935.181,2.13,2.13,0,0,0-.715.493,2.363,2.363,0,0,0-.472.729,2.792,2.792,0,0,0-.2.885Z" transform="translate(-55.31 -149.024)" fill="#fff"/>
        <path id="Path_3971" data-name="Path 3971" d="M117.56,152.378h1.257v1.285h.032a2.758,2.758,0,0,1,1.093-1.114,3.211,3.211,0,0,1,1.548-.36,3.534,3.534,0,0,1,1.335.219,2.19,2.19,0,0,1,.864.612,2.244,2.244,0,0,1,.464.932,5,5,0,0,1,.134,1.2v5.329h-1.335V155a1.606,1.606,0,0,0-.442-1.192,1.634,1.634,0,0,0-1.21-.439,2.727,2.727,0,0,0-1.061.188,2,2,0,0,0-.747.534,2.307,2.307,0,0,0-.449.807,3.29,3.29,0,0,0-.149,1.01v4.577H117.56Z" transform="translate(-52.802 -149.024)" fill="#fff"/>
        <path id="Path_3972" data-name="Path 3972" d="M125.93,153.011h1.618v1.175H125.93v5.031a1.432,1.432,0,0,0,.039.376.383.383,0,0,0,.15.22.672.672,0,0,0,.305.1,4.541,4.541,0,0,0,.51.024h.613v1.175h-1.022a4.776,4.776,0,0,1-.888-.071,1.289,1.289,0,0,1-.6-.258,1.1,1.1,0,0,1-.339-.532,3.107,3.107,0,0,1-.11-.91v-5.156h-1.382v-1.175h1.382v-2.429h1.336Z" transform="translate(-50.577 -149.657)" fill="#fff"/>
        <path id="Path_3973" data-name="Path 3973" d="M134.44,157.911a3.29,3.29,0,0,1-1.179,2.053,3.642,3.642,0,0,1-2.3.705,4.085,4.085,0,0,1-1.689-.322,3.4,3.4,0,0,1-1.2-.885,3.714,3.714,0,0,1-.73-1.348,6.446,6.446,0,0,1-.276-1.709,4.892,4.892,0,0,1,.283-1.685,4.028,4.028,0,0,1,.794-1.339,3.6,3.6,0,0,1,1.21-.878,3.71,3.71,0,0,1,1.533-.314,3.347,3.347,0,0,1,1.8.446,3.554,3.554,0,0,1,1.148,1.137,4.485,4.485,0,0,1,.6,1.5,6.439,6.439,0,0,1,.134,1.553h-6.083a3.214,3.214,0,0,0,.127,1.01,2.222,2.222,0,0,0,1.257,1.434,2.772,2.772,0,0,0,1.148.22,2.322,2.322,0,0,0,1.382-.393,1.88,1.88,0,0,0,.723-1.19Zm-1.289-2.258a2.737,2.737,0,0,0-.212-.893,2.3,2.3,0,0,0-2.129-1.4,2.332,2.332,0,0,0-.935.181,2.13,2.13,0,0,0-.715.493,2.339,2.339,0,0,0-.472.729,2.756,2.756,0,0,0-.2.885Z" transform="translate(-49.059 -149.024)" fill="#fff"/>
        <path id="Path_3974" data-name="Path 3974" d="M133.407,152.379h1.257v1.709h.032a3.6,3.6,0,0,1,1.194-1.458,3.008,3.008,0,0,1,1.792-.439v1.41a3.793,3.793,0,0,0-1.369.219,2.184,2.184,0,0,0-.911.642,2.661,2.661,0,0,0-.5,1.035,5.491,5.491,0,0,0-.158,1.38v3.6h-1.336Z" transform="translate(-46.564 -149.024)" fill="#fff"/>
        <path id="Path_3975" data-name="Path 3975" d="M141.112,154.408h-1.367v-1.175h1.367v-1.207a1.894,1.894,0,0,1,.574-1.5,2.446,2.446,0,0,1,1.674-.51,3.45,3.45,0,0,1,.433.032,2.39,2.39,0,0,1,.431.093v1.161a1.618,1.618,0,0,0-.376-.086,3.1,3.1,0,0,0-.378-.024,1.293,1.293,0,0,0-.754.188.827.827,0,0,0-.268.721v1.129h1.572v1.175h-1.572v6.928h-1.336Z" transform="translate(-44.07 -149.878)" fill="#fff"/>
        <path id="Path_3976" data-name="Path 3976" d="M143.354,156.436a5.35,5.35,0,0,1,.252-1.668,3.756,3.756,0,0,1,.754-1.348,3.549,3.549,0,0,1,1.235-.9,4.566,4.566,0,0,1,3.4,0,3.564,3.564,0,0,1,1.242.9,3.777,3.777,0,0,1,.754,1.348,5.39,5.39,0,0,1,.251,1.668,5.329,5.329,0,0,1-.251,1.663,3.788,3.788,0,0,1-.754,1.339,3.582,3.582,0,0,1-1.242.9,4.566,4.566,0,0,1-3.4,0,3.567,3.567,0,0,1-1.235-.9,3.766,3.766,0,0,1-.754-1.339A5.289,5.289,0,0,1,143.354,156.436Zm1.415,0a4.027,4.027,0,0,0,.2,1.31,2.758,2.758,0,0,0,.542.956,2.36,2.36,0,0,0,.81.587,2.458,2.458,0,0,0,1.965,0,2.36,2.36,0,0,0,.81-.587,2.736,2.736,0,0,0,.542-.956,4.456,4.456,0,0,0,0-2.617,2.8,2.8,0,0,0-.542-.964,2.312,2.312,0,0,0-.81-.6,2.459,2.459,0,0,0-1.965,0,2.313,2.313,0,0,0-.81.6,2.824,2.824,0,0,0-.542.964A4.009,4.009,0,0,0,144.769,156.436Z" transform="translate(-42.649 -149.024)" fill="#fff"/>
        <path id="Path_3977" data-name="Path 3977" d="M150.111,152.379h1.257v1.709h.031a3.609,3.609,0,0,1,1.194-1.458,3.014,3.014,0,0,1,1.792-.439v1.41a3.78,3.78,0,0,0-1.367.219,2.166,2.166,0,0,0-.911.642,2.644,2.644,0,0,0-.5,1.035,5.491,5.491,0,0,0-.157,1.38v3.6h-1.335Z" transform="translate(-39.989 -149.024)" fill="#fff"/>
        <path id="Path_3978" data-name="Path 3978" d="M156.742,155.78a7.179,7.179,0,0,1,.339-2.2,5.538,5.538,0,0,1,1.013-1.873,4.949,4.949,0,0,1,1.682-1.3,5.882,5.882,0,0,1,4.684,0,4.935,4.935,0,0,1,1.682,1.3,5.565,5.565,0,0,1,1.015,1.873,7.357,7.357,0,0,1,0,4.4,5.565,5.565,0,0,1-1.015,1.873,4.955,4.955,0,0,1-1.682,1.3,5.9,5.9,0,0,1-4.684,0,4.969,4.969,0,0,1-1.682-1.3,5.538,5.538,0,0,1-1.013-1.873A7.179,7.179,0,0,1,156.742,155.78Zm1.494,0a6.4,6.4,0,0,0,.22,1.67,4.532,4.532,0,0,0,.691,1.481,3.551,3.551,0,0,0,1.21,1.058,4.076,4.076,0,0,0,3.522,0,3.556,3.556,0,0,0,1.211-1.058,4.561,4.561,0,0,0,.691-1.481,6.44,6.44,0,0,0,0-3.339,4.568,4.568,0,0,0-.691-1.48,3.541,3.541,0,0,0-1.211-1.058,4.076,4.076,0,0,0-3.522,0,3.537,3.537,0,0,0-1.21,1.058,4.539,4.539,0,0,0-.691,1.48A6.4,6.4,0,0,0,158.236,155.78Z" transform="translate(-37.379 -149.918)" fill="#fff"/>
        <path id="Path_3979" data-name="Path 3979" d="M165.574,152.379h1.257v1.709h.032a3.6,3.6,0,0,1,1.194-1.458,3.008,3.008,0,0,1,1.792-.439v1.41a3.793,3.793,0,0,0-1.368.219,2.183,2.183,0,0,0-.911.642,2.682,2.682,0,0,0-.5,1.035,5.556,5.556,0,0,0-.158,1.38v3.6h-1.335Z" transform="translate(-33.903 -149.024)" fill="#fff"/>
        <path id="Path_3980" data-name="Path 3980" d="M176.181,159.791a4.27,4.27,0,0,1-.92,2.987,3.706,3.706,0,0,1-2.853,1,5.548,5.548,0,0,1-1.155-.125,3.569,3.569,0,0,1-1.068-.408,2.479,2.479,0,0,1-.794-.736,2.087,2.087,0,0,1-.346-1.113h1.336a.975.975,0,0,0,.227.612,1.666,1.666,0,0,0,.52.407,2.467,2.467,0,0,0,.668.227,3.582,3.582,0,0,0,.691.071,2.478,2.478,0,0,0,1.116-.227,2.1,2.1,0,0,0,.754-.627,2.581,2.581,0,0,0,.432-.964,5.43,5.43,0,0,0,.134-1.253V159.1h-.031a2.3,2.3,0,0,1-.44.651,2.468,2.468,0,0,1-.6.454,3.115,3.115,0,0,1-.723.275,3.216,3.216,0,0,1-.762.095,3.582,3.582,0,0,1-1.589-.33,3.286,3.286,0,0,1-1.132-.893,3.83,3.83,0,0,1-.683-1.309,5.345,5.345,0,0,1-.229-1.575,5.993,5.993,0,0,1,.19-1.473,4.108,4.108,0,0,1,.629-1.38,3.408,3.408,0,0,1,1.162-1.027,3.633,3.633,0,0,1,1.777-.4,2.989,2.989,0,0,1,1.415.337,2.371,2.371,0,0,1,1.006,1.01h.015v-1.159h1.257Zm-3.74-.392a2.1,2.1,0,0,0,1.87-1,3.28,3.28,0,0,0,.417-1.012,4.858,4.858,0,0,0,.134-1.127,4.449,4.449,0,0,0-.125-1.051,2.948,2.948,0,0,0-.4-.932,2.088,2.088,0,0,0-.715-.666,2.124,2.124,0,0,0-1.069-.251,2.289,2.289,0,0,0-1.1.244,2.132,2.132,0,0,0-.747.649,2.734,2.734,0,0,0-.424.941,4.487,4.487,0,0,0-.135,1.114,5.629,5.629,0,0,0,.11,1.1,3.132,3.132,0,0,0,.378,1,2.11,2.11,0,0,0,.708.72A2.043,2.043,0,0,0,172.441,159.4Z" transform="translate(-32.66 -149.024)" fill="#fff"/>
        <path id="Path_3981" data-name="Path 3981" d="M182.844,160.45a1.833,1.833,0,0,1-.959.219,1.129,1.129,0,0,1-.825-.3,1.283,1.283,0,0,1-.307-.956,3.262,3.262,0,0,1-1.281.956,4.137,4.137,0,0,1-1.58.3,4.245,4.245,0,0,1-1.045-.125,2.363,2.363,0,0,1-.857-.4,1.94,1.94,0,0,1-.573-.705,2.329,2.329,0,0,1-.212-1.042,2.376,2.376,0,0,1,.236-1.129,1.986,1.986,0,0,1,.62-.7,3.084,3.084,0,0,1,.879-.415,9.119,9.119,0,0,1,1.015-.244c.367-.072.716-.128,1.045-.164a5.739,5.739,0,0,0,.872-.156,1.451,1.451,0,0,0,.6-.3.728.728,0,0,0,.22-.571,1.346,1.346,0,0,0-.164-.707,1.142,1.142,0,0,0-.425-.407,1.737,1.737,0,0,0-.581-.188,4.535,4.535,0,0,0-.638-.047,2.832,2.832,0,0,0-1.415.322,1.363,1.363,0,0,0-.612,1.215H175.52a2.867,2.867,0,0,1,.315-1.271,2.374,2.374,0,0,1,.754-.838,3.179,3.179,0,0,1,1.084-.463,5.773,5.773,0,0,1,1.289-.141,7.724,7.724,0,0,1,1.093.078,2.89,2.89,0,0,1,.982.321,1.886,1.886,0,0,1,.707.683,2.173,2.173,0,0,1,.268,1.144v4.168a3.043,3.043,0,0,0,.056.69c.036.146.159.22.369.22a1.207,1.207,0,0,0,.408-.079Zm-2.168-4.154a1.428,1.428,0,0,1-.472.22c-.188.052-.387.1-.6.132s-.433.068-.669.095-.464.06-.684.1a5.523,5.523,0,0,0-.629.156,1.738,1.738,0,0,0-.518.259,1.228,1.228,0,0,0-.353.415,1.305,1.305,0,0,0-.135.627,1.068,1.068,0,0,0,.135.556,1.09,1.09,0,0,0,.344.368,1.443,1.443,0,0,0,.5.2,2.747,2.747,0,0,0,.6.063,3.143,3.143,0,0,0,1.132-.181,2.379,2.379,0,0,0,.771-.454,1.8,1.8,0,0,0,.44-.6,1.5,1.5,0,0,0,.142-.6Z" transform="translate(-30.112 -149.024)" fill="#fff"/>
        <path id="Path_3982" data-name="Path 3982" d="M181.578,152.378h1.257v1.285h.032a2.767,2.767,0,0,1,1.093-1.114,3.211,3.211,0,0,1,1.548-.36,3.534,3.534,0,0,1,1.335.219,2.205,2.205,0,0,1,.865.612,2.259,2.259,0,0,1,.463.932,5,5,0,0,1,.134,1.2v5.329H186.97V155a1.606,1.606,0,0,0-.442-1.192,1.634,1.634,0,0,0-1.21-.439,2.727,2.727,0,0,0-1.061.188,2,2,0,0,0-.747.534,2.307,2.307,0,0,0-.449.807,3.29,3.29,0,0,0-.149,1.01v4.577h-1.335Z" transform="translate(-27.604 -149.024)" fill="#fff"/>
        <path id="Path_3983" data-name="Path 3983" d="M194.027,151.363h-3.742v-1.254h8.976v1.254h-3.742V161.3h-1.493Z" transform="translate(-24.177 -149.843)" fill="#fff"/>
        <path id="Path_3984" data-name="Path 3984" d="M196.387,152.379h1.258v1.709h.031a3.609,3.609,0,0,1,1.194-1.458,3.011,3.011,0,0,1,1.792-.439v1.41a3.78,3.78,0,0,0-1.367.219,2.166,2.166,0,0,0-.911.642,2.644,2.644,0,0,0-.5,1.035,5.491,5.491,0,0,0-.157,1.38v3.6h-1.336Z" transform="translate(-21.775 -149.024)" fill="#fff"/>
        <path id="Path_3985" data-name="Path 3985" d="M207.5,160.45a1.84,1.84,0,0,1-.959.219,1.135,1.135,0,0,1-.826-.3,1.289,1.289,0,0,1-.307-.956,3.258,3.258,0,0,1-1.279.956,4.137,4.137,0,0,1-1.58.3,4.237,4.237,0,0,1-1.045-.125,2.363,2.363,0,0,1-.857-.4,1.958,1.958,0,0,1-.574-.705,2.348,2.348,0,0,1-.212-1.042,2.377,2.377,0,0,1,.236-1.129,1.989,1.989,0,0,1,.622-.7,3.085,3.085,0,0,1,.879-.415,9.045,9.045,0,0,1,1.015-.244c.367-.072.715-.128,1.045-.164a5.738,5.738,0,0,0,.872-.156,1.469,1.469,0,0,0,.6-.3.728.728,0,0,0,.22-.571,1.332,1.332,0,0,0-.166-.707,1.138,1.138,0,0,0-.424-.407,1.735,1.735,0,0,0-.583-.188,4.516,4.516,0,0,0-.637-.047,2.832,2.832,0,0,0-1.414.322,1.363,1.363,0,0,0-.612,1.215h-1.336a2.886,2.886,0,0,1,.314-1.271,2.4,2.4,0,0,1,.754-.838,3.186,3.186,0,0,1,1.086-.463,5.773,5.773,0,0,1,1.289-.141,7.705,7.705,0,0,1,1.091.078,2.888,2.888,0,0,1,.984.321,1.9,1.9,0,0,1,.707.683,2.172,2.172,0,0,1,.268,1.144v4.168a3.149,3.149,0,0,0,.054.69c.036.146.16.22.369.22a1.214,1.214,0,0,0,.41-.079Zm-2.17-4.154a1.407,1.407,0,0,1-.471.22c-.188.052-.387.1-.6.132s-.432.068-.668.095-.464.06-.684.1a5.522,5.522,0,0,0-.628.156,1.7,1.7,0,0,0-.518.259,1.247,1.247,0,0,0-.354.415,1.322,1.322,0,0,0-.134.627,1.081,1.081,0,0,0,.134.556,1.108,1.108,0,0,0,.346.368,1.448,1.448,0,0,0,.495.2,2.759,2.759,0,0,0,.6.063,3.143,3.143,0,0,0,1.132-.181,2.379,2.379,0,0,0,.771-.454,1.823,1.823,0,0,0,.44-.6,1.5,1.5,0,0,0,.141-.6Z" transform="translate(-20.407 -149.024)" fill="#fff"/>
        <path id="Path_3986" data-name="Path 3986" d="M206.234,152.378h1.257v1.285h.031a2.776,2.776,0,0,1,1.093-1.114,3.221,3.221,0,0,1,1.55-.36,3.534,3.534,0,0,1,1.335.219,2.21,2.21,0,0,1,.864.612,2.261,2.261,0,0,1,.464.932,5,5,0,0,1,.134,1.2v5.329h-1.336V155a1.605,1.605,0,0,0-.44-1.192,1.636,1.636,0,0,0-1.21-.439,2.727,2.727,0,0,0-1.061.188,1.975,1.975,0,0,0-.747.534,2.307,2.307,0,0,0-.449.807,3.289,3.289,0,0,0-.149,1.01v4.577h-1.335Z" transform="translate(-17.899 -149.024)" fill="#fff"/>
        <path id="Path_3987" data-name="Path 3987" d="M213.468,157.926a1.477,1.477,0,0,0,.2.753,1.441,1.441,0,0,0,.5.478,2.214,2.214,0,0,0,.691.258,3.914,3.914,0,0,0,.793.079,5.029,5.029,0,0,0,.661-.047,2.446,2.446,0,0,0,.637-.173,1.2,1.2,0,0,0,.479-.368.983.983,0,0,0,.188-.619.892.892,0,0,0-.227-.636,1.75,1.75,0,0,0-.6-.4,4.67,4.67,0,0,0-.849-.258c-.319-.068-.647-.138-.982-.212a9.434,9.434,0,0,1-.974-.266,3.523,3.523,0,0,1-.849-.408,1.815,1.815,0,0,1-.833-1.614,1.943,1.943,0,0,1,.275-1.049,2.248,2.248,0,0,1,.708-.714,3.279,3.279,0,0,1,.974-.408,4.556,4.556,0,0,1,1.077-.132,6.5,6.5,0,0,1,1.265.117,2.958,2.958,0,0,1,1.037.408,2.1,2.1,0,0,1,.715.783,2.972,2.972,0,0,1,.315,1.231h-1.336a1.292,1.292,0,0,0-.212-.651,1.452,1.452,0,0,0-.44-.415,1.908,1.908,0,0,0-.581-.227,3.016,3.016,0,0,0-.652-.071,4.065,4.065,0,0,0-.6.047,2.074,2.074,0,0,0-.559.164,1.078,1.078,0,0,0-.408.322.788.788,0,0,0-.157.5.742.742,0,0,0,.244.58,2.036,2.036,0,0,0,.62.368,5.579,5.579,0,0,0,.849.251c.315.068.63.138.945.212a9.863,9.863,0,0,1,.981.266,3.167,3.167,0,0,1,.849.415,2.011,2.011,0,0,1,.6.651,1.9,1.9,0,0,1,.227.971,2.253,2.253,0,0,1-.307,1.214,2.341,2.341,0,0,1-.8.792,3.472,3.472,0,0,1-1.116.424,6.206,6.206,0,0,1-1.233.125,5.419,5.419,0,0,1-1.3-.149,3.3,3.3,0,0,1-1.077-.47,2.353,2.353,0,0,1-.754-.846,2.919,2.919,0,0,1-.315-1.278Z" transform="translate(-15.577 -149.024)" fill="#fff"/>
        <path id="Path_3988" data-name="Path 3988" d="M218.178,152.378h1.335v1.1h.032a2,2,0,0,1,1.037-.98,3.892,3.892,0,0,1,1.557-.305,3.7,3.7,0,0,1,1.643.344,3.336,3.336,0,0,1,1.162.932,4.107,4.107,0,0,1,.7,1.356,5.526,5.526,0,0,1,.237,1.631,5.7,5.7,0,0,1-.229,1.629,3.851,3.851,0,0,1-.691,1.341,3.341,3.341,0,0,1-1.164.909,3.714,3.714,0,0,1-1.626.337,3.95,3.95,0,0,1-.676-.063,3.44,3.44,0,0,1-.723-.212,3.079,3.079,0,0,1-.684-.392,2.131,2.131,0,0,1-.542-.6h-.032v4.185h-1.335Zm6.287,3.98a4.1,4.1,0,0,0-.149-1.105,2.954,2.954,0,0,0-.456-.963,2.21,2.21,0,0,0-.786-.675,2.389,2.389,0,0,0-1.123-.251,2.206,2.206,0,0,0-1.918.964,2.917,2.917,0,0,0-.433.98,4.764,4.764,0,0,0,.008,2.265,2.88,2.88,0,0,0,.447.98,2.3,2.3,0,0,0,.794.681,2.48,2.48,0,0,0,1.179.259,2.3,2.3,0,0,0,1.148-.268,2.119,2.119,0,0,0,.754-.705,3.063,3.063,0,0,0,.408-1A5.339,5.339,0,0,0,224.465,156.358Z" transform="translate(-13.198 -149.024)" fill="#fff"/>
        <path id="Path_3989" data-name="Path 3989" d="M224.888,150.109h1.336V161.3h-1.336Z" transform="translate(-10.556 -149.843)" fill="#fff"/>
        <path id="Path_3990" data-name="Path 3990" d="M234.658,160.45a1.831,1.831,0,0,1-.957.219,1.133,1.133,0,0,1-.826-.3,1.283,1.283,0,0,1-.307-.956,3.252,3.252,0,0,1-1.281.956,4.135,4.135,0,0,1-1.579.3,4.248,4.248,0,0,1-1.047-.125,2.375,2.375,0,0,1-.857-.4,1.969,1.969,0,0,1-.573-.705,2.348,2.348,0,0,1-.212-1.042,2.376,2.376,0,0,1,.236-1.129,1.985,1.985,0,0,1,.62-.7,3.094,3.094,0,0,1,.881-.415,8.972,8.972,0,0,1,1.015-.244c.367-.072.715-.128,1.044-.164a5.76,5.76,0,0,0,.874-.156,1.453,1.453,0,0,0,.6-.3.723.723,0,0,0,.22-.571,1.332,1.332,0,0,0-.164-.707,1.131,1.131,0,0,0-.425-.407,1.727,1.727,0,0,0-.581-.188,4.516,4.516,0,0,0-.637-.047,2.825,2.825,0,0,0-1.415.322,1.364,1.364,0,0,0-.613,1.215h-1.336a2.9,2.9,0,0,1,.315-1.271,2.387,2.387,0,0,1,.754-.838,3.191,3.191,0,0,1,1.084-.463,5.786,5.786,0,0,1,1.29-.141,7.7,7.7,0,0,1,1.091.078,2.9,2.9,0,0,1,.984.321,1.907,1.907,0,0,1,.707.683,2.173,2.173,0,0,1,.266,1.144v4.168a3.044,3.044,0,0,0,.056.69c.036.146.16.22.369.22a1.207,1.207,0,0,0,.408-.079ZM232.49,156.3a1.42,1.42,0,0,1-.471.22c-.19.052-.389.1-.6.132s-.432.068-.669.095-.463.06-.683.1a5.522,5.522,0,0,0-.629.156,1.705,1.705,0,0,0-.518.259,1.217,1.217,0,0,0-.354.415,1.322,1.322,0,0,0-.134.627,1.081,1.081,0,0,0,.134.556,1.094,1.094,0,0,0,.346.368,1.436,1.436,0,0,0,.495.2,2.75,2.75,0,0,0,.6.063,3.148,3.148,0,0,0,1.132-.181,2.387,2.387,0,0,0,.769-.454,1.784,1.784,0,0,0,.44-.6,1.5,1.5,0,0,0,.142-.6Z" transform="translate(-9.717 -149.024)" fill="#fff"/>
        <path id="Path_3991" data-name="Path 3991" d="M233.392,152.378h1.258v1.285h.031a2.767,2.767,0,0,1,1.093-1.114,3.215,3.215,0,0,1,1.548-.36,3.542,3.542,0,0,1,1.336.219,2.21,2.21,0,0,1,.864.612,2.261,2.261,0,0,1,.464.932,5,5,0,0,1,.134,1.2v5.329h-1.337V155a1.611,1.611,0,0,0-.44-1.192,1.638,1.638,0,0,0-1.21-.439,2.734,2.734,0,0,0-1.062.188,2,2,0,0,0-.747.534,2.283,2.283,0,0,0-.447.807,3.249,3.249,0,0,0-.149,1.01v4.577h-1.337Z" transform="translate(-7.209 -149.024)" fill="#fff"/>
        <path id="Path_3992" data-name="Path 3992" d="M241.763,153.011h1.618v1.175h-1.618v5.031a1.443,1.443,0,0,0,.038.376.39.39,0,0,0,.151.22.672.672,0,0,0,.307.1,4.523,4.523,0,0,0,.51.024h.613v1.175H242.36a4.765,4.765,0,0,1-.888-.071,1.3,1.3,0,0,1-.6-.258,1.1,1.1,0,0,1-.337-.532,3.055,3.055,0,0,1-.111-.91v-5.156h-1.382v-1.175h1.382v-2.429h1.338Z" transform="translate(-4.985 -149.657)" fill="#fff"/>
        <path id="Path_3993" data-name="Path 3993" d="M244.608,151.74h-1.337v-1.631h1.337Zm-1.337,1.458h1.337v8.1h-1.337Z" transform="translate(-3.32 -149.843)" fill="#fff"/>
        <path id="Path_3994" data-name="Path 3994" d="M245.4,156.436a5.351,5.351,0,0,1,.252-1.668,3.756,3.756,0,0,1,.754-1.348,3.549,3.549,0,0,1,1.235-.9,4.566,4.566,0,0,1,3.4,0,3.563,3.563,0,0,1,1.242.9,3.776,3.776,0,0,1,.754,1.348,5.39,5.39,0,0,1,.251,1.668,5.328,5.328,0,0,1-.251,1.663,3.787,3.787,0,0,1-.754,1.339,3.581,3.581,0,0,1-1.242.9,4.566,4.566,0,0,1-3.4,0,3.567,3.567,0,0,1-1.235-.9,3.767,3.767,0,0,1-.754-1.339A5.29,5.29,0,0,1,245.4,156.436Zm1.415,0a4.027,4.027,0,0,0,.2,1.31,2.758,2.758,0,0,0,.542.956,2.36,2.36,0,0,0,.81.587,2.458,2.458,0,0,0,1.965,0,2.36,2.36,0,0,0,.81-.587,2.736,2.736,0,0,0,.542-.956,4.456,4.456,0,0,0,0-2.617,2.8,2.8,0,0,0-.542-.964,2.312,2.312,0,0,0-.81-.6,2.459,2.459,0,0,0-1.965,0,2.313,2.313,0,0,0-.81.6,2.824,2.824,0,0,0-.542.964A4.01,4.01,0,0,0,246.819,156.436Z" transform="translate(-2.481 -149.024)" fill="#fff"/>
        <path id="Path_3995" data-name="Path 3995" d="M252.194,152.378h1.258v1.285h.031a2.767,2.767,0,0,1,1.093-1.114,3.211,3.211,0,0,1,1.548-.36,3.542,3.542,0,0,1,1.336.219,2.21,2.21,0,0,1,.864.612,2.261,2.261,0,0,1,.464.932,5,5,0,0,1,.134,1.2v5.329h-1.336V155a1.611,1.611,0,0,0-.44-1.192,1.638,1.638,0,0,0-1.21-.439,2.734,2.734,0,0,0-1.062.188,2,2,0,0,0-.747.534,2.283,2.283,0,0,0-.447.807,3.248,3.248,0,0,0-.149,1.01v4.577h-1.337Z" transform="translate(0.191 -149.024)" fill="#fff"/>
      </g>
    </g>
    <g id="Group_7650" data-name="Group 7650" transform="translate(-313.014 66.5)">
      <ellipse id="Ellipse_41" data-name="Ellipse 41" cx="38" cy="38.5" rx="38" ry="38.5" fill="url(#linear-gradient)"/>
      <g id="Group_1861" data-name="Group 1861" transform="translate(2.872 5.482)">
        <g transform="matrix(1, 0, 0, 1, -4, -5.48)" filter="url(#Path_3937)">
          <path id="Path_3937-2" data-name="Path 3937" d="M163.314,123.394l7.8-.134.941-28.677s7.794-.8,20.562,14.473c0-2.949-.4-10.453-9-16.483,0,0,5.241-2.948,17.337,4.691,0,0,1.881-6.567-16.262-12.865,0,0,3.091-2.413,17.741.4,0,0-1.21-8.04-24.461-8.576a9.785,9.785,0,0,1,5.376-3.216,10.517,10.517,0,0,0-11.63,1.616,10.3,10.3,0,0,0-.783.749,4.863,4.863,0,0,1-3.631,1.189h-.077a4.668,4.668,0,0,1-3.543-1.713c-.933-1.131-4.179-3.929-12.458-1.974,0,0,4.57,1.206,4.839,3.216,0,0-18.413-.67-24.326,7.906,0,0,13.439-3.619,18.009.267a29.046,29.046,0,0,0-17.069,12.865A47.742,47.742,0,0,1,150.816,91.9s-8.6,6.567-8.871,17.287c0,0,10.886-13.8,20.966-14.07Z" transform="translate(-127.73 -52.52)" fill="url(#linear-gradient-2)"/>
        </g>
        <g transform="matrix(1, 0, 0, 1, -4, -5.48)" filter="url(#Ellipse_42)">
          <ellipse id="Ellipse_42-2" data-name="Ellipse 42" cx="7.106" cy="7.086" rx="7.106" ry="7.086" transform="translate(32.46 5.48)" fill="#fff"/>
        </g>
      </g>
    </g>
  </g>
</svg>
