<svg xmlns="http://www.w3.org/2000/svg" xmlns:xlink="http://www.w3.org/1999/xlink" width="205" height="117.002" viewBox="0 0 205 117.002">
  <defs>
    <linearGradient id="linear-gradient" x1="-0.35" y1="1.21" x2="1.493" y2="-0.33" gradientUnits="objectBoundingBox">
      <stop offset="0.229" stop-color="#4f2428"/>
      <stop offset="0.261" stop-color="#582628"/>
      <stop offset="0.315" stop-color="#712b2b"/>
      <stop offset="0.383" stop-color="#9b352f"/>
      <stop offset="0.463" stop-color="#d34234"/>
      <stop offset="0.472" stop-color="#db4435"/>
      <stop offset="0.528" stop-color="#b7392d"/>
      <stop offset="0.651" stop-color="#5f1e19"/>
      <stop offset="0.708" stop-color="#351210"/>
    </linearGradient>
    <linearGradient id="linear-gradient-2" y1="0.5" x2="1" y2="0.5" gradientUnits="objectBoundingBox">
      <stop offset="0.089" stop-color="#cf9f98"/>
      <stop offset="0.111" stop-color="#d3a8a2"/>
      <stop offset="0.19" stop-color="#e3c7c3"/>
      <stop offset="0.27" stop-color="#efe0dd"/>
      <stop offset="0.353" stop-color="#f8f1f0"/>
      <stop offset="0.439" stop-color="#fdfbfb"/>
      <stop offset="0.534" stop-color="#fff"/>
      <stop offset="0.611" stop-color="#fdfbfb"/>
      <stop offset="0.676" stop-color="#f8f2f1"/>
      <stop offset="0.735" stop-color="#f0e2e0"/>
      <stop offset="0.792" stop-color="#e5cbc7"/>
      <stop offset="0.847" stop-color="#d6aea8"/>
      <stop offset="0.872" stop-color="#cf9f98"/>
    </linearGradient>
    <filter id="Path_3937" x="62.872" y="18.426" width="76.693" height="57.452" filterUnits="userSpaceOnUse">
      <feOffset dx="-1" dy="2" input="SourceAlpha"/>
      <feGaussianBlur stdDeviation="1" result="blur"/>
      <feFlood flood-opacity="0.89"/>
      <feComposite operator="in" in2="blur"/>
      <feComposite in="SourceGraphic"/>
    </filter>
    <filter id="Ellipse_42" x="90.33" y="5.482" width="20.213" height="20.171" filterUnits="userSpaceOnUse">
      <feOffset dx="-2" dy="3" input="SourceAlpha"/>
      <feGaussianBlur stdDeviation="1" result="blur-2"/>
      <feFlood flood-opacity="0.851"/>
      <feComposite operator="in" in2="blur-2"/>
      <feComposite in="SourceGraphic"/>
    </filter>
  </defs>
  <g id="SCOT-Logo" transform="translate(-71.092 -53.5)">
    <g id="Group_1856" data-name="Group 1856" transform="translate(71.092 158.9)">
      <path id="Path_3964" data-name="Path 3964" d="M76.706,152.7a1.834,1.834,0,0,0-.687-1.375,2.5,2.5,0,0,0-1.5-.425,3.591,3.591,0,0,0-.729.073,1.93,1.93,0,0,0-.637.247,1.3,1.3,0,0,0-.445.463,1.422,1.422,0,0,0-.167.721.917.917,0,0,0,.241.66,1.776,1.776,0,0,0,.642.412,5.388,5.388,0,0,0,.909.265q.506.105,1.038.228t1.039.289a3.358,3.358,0,0,1,.9.451,2.161,2.161,0,0,1,.637.721,2.485,2.485,0,0,1-.075,2.28,2.593,2.593,0,0,1-.809.813,3.628,3.628,0,0,1-1.107.463,5.253,5.253,0,0,1-2.621-.037,3.37,3.37,0,0,1-1.162-.567,2.7,2.7,0,0,1-.791-.968,3.08,3.08,0,0,1-.291-1.387H72.2a2,2,0,0,0,.216.956,1.972,1.972,0,0,0,.569.659,2.4,2.4,0,0,0,.817.383,3.759,3.759,0,0,0,.97.124,4.385,4.385,0,0,0,.8-.075,2.365,2.365,0,0,0,.724-.252,1.356,1.356,0,0,0,.718-1.276,1.1,1.1,0,0,0-.241-.74,1.784,1.784,0,0,0-.638-.463,4.865,4.865,0,0,0-.9-.3q-.506-.117-1.038-.228t-1.039-.265a3.589,3.589,0,0,1-.909-.412,2.03,2.03,0,0,1-.642-.653,1.885,1.885,0,0,1-.241-1,2.321,2.321,0,0,1,.272-1.153,2.386,2.386,0,0,1,.724-.8,3.252,3.252,0,0,1,1.026-.468,4.532,4.532,0,0,1,1.181-.155,4.742,4.742,0,0,1,1.261.16,2.831,2.831,0,0,1,1.015.505,2.553,2.553,0,0,1,.692.869,3.049,3.049,0,0,1,.285,1.252Z" transform="translate(-71.092 -149.918)" fill="#fff"/>
      <path id="Path_3965" data-name="Path 3965" d="M84.4,158.688a1.44,1.44,0,0,1-.753.172.891.891,0,0,1-.65-.235,1.014,1.014,0,0,1-.241-.752,2.558,2.558,0,0,1-1.007.752,3.249,3.249,0,0,1-1.242.235,3.333,3.333,0,0,1-.822-.1,1.85,1.85,0,0,1-.674-.315,1.54,1.54,0,0,1-.452-.555,1.847,1.847,0,0,1-.167-.82,1.869,1.869,0,0,1,.185-.888,1.573,1.573,0,0,1,.488-.554,2.433,2.433,0,0,1,.693-.327,7.056,7.056,0,0,1,.8-.192c.288-.057.562-.1.822-.129a4.538,4.538,0,0,0,.686-.123,1.143,1.143,0,0,0,.469-.235.569.569,0,0,0,.173-.449,1.048,1.048,0,0,0-.129-.556.9.9,0,0,0-.333-.32,1.373,1.373,0,0,0-.458-.148,3.551,3.551,0,0,0-.5-.037,2.225,2.225,0,0,0-1.113.253,1.075,1.075,0,0,0-.482.956H78.636a2.285,2.285,0,0,1,.248-1,1.888,1.888,0,0,1,.593-.659,2.51,2.51,0,0,1,.853-.364,4.551,4.551,0,0,1,1.015-.111,6.063,6.063,0,0,1,.858.061,2.272,2.272,0,0,1,.774.252,1.492,1.492,0,0,1,.556.537,1.709,1.709,0,0,1,.21.9v3.279a2.477,2.477,0,0,0,.043.543c.029.115.126.173.291.173a.945.945,0,0,0,.321-.062Zm-1.706-3.268a1.107,1.107,0,0,1-.371.173c-.149.041-.306.076-.47.1s-.34.054-.525.075-.365.047-.538.08a4.343,4.343,0,0,0-.494.123,1.342,1.342,0,0,0-.408.2.969.969,0,0,0-.278.327A1.04,1.04,0,0,0,79.5,157a.85.85,0,0,0,.105.437.861.861,0,0,0,.272.289,1.139,1.139,0,0,0,.389.161,2.171,2.171,0,0,0,.47.049,2.473,2.473,0,0,0,.89-.143,1.872,1.872,0,0,0,.606-.357,1.414,1.414,0,0,0,.345-.468,1.178,1.178,0,0,0,.112-.475Z" transform="translate(-70.39 -149.699)" fill="#fff"/>
      <path id="Path_3966" data-name="Path 3966" d="M90.054,158.7h-.989v-1.011h-.024a2.18,2.18,0,0,1-.859.875,2.525,2.525,0,0,1-1.219.284,2.777,2.777,0,0,1-1.05-.172,1.731,1.731,0,0,1-.68-.481,1.792,1.792,0,0,1-.365-.733,3.936,3.936,0,0,1-.105-.944v-4.191h1.051v4.315a1.266,1.266,0,0,0,.345.937,1.291,1.291,0,0,0,.953.345,2.145,2.145,0,0,0,.834-.148,1.562,1.562,0,0,0,.588-.42,1.8,1.8,0,0,0,.352-.635,2.555,2.555,0,0,0,.118-.795v-3.6h1.05Z" transform="translate(-69.776 -149.686)" fill="#fff"/>
      <path id="Path_3967" data-name="Path 3967" d="M96.775,158.912h-1.05v-.863H95.7a1.578,1.578,0,0,1-.816.771,3.058,3.058,0,0,1-1.225.24,2.908,2.908,0,0,1-1.292-.271,2.647,2.647,0,0,1-.914-.733,3.252,3.252,0,0,1-.55-1.067,4.346,4.346,0,0,1-.185-1.283,4.427,4.427,0,0,1,.179-1.276,3.076,3.076,0,0,1,.545-1.054,2.581,2.581,0,0,1,.914-.721,2.906,2.906,0,0,1,1.279-.265,3.128,3.128,0,0,1,.533.049,2.733,2.733,0,0,1,.568.167,2.422,2.422,0,0,1,.538.308,1.676,1.676,0,0,1,.426.475h.025v-3.28h1.05Zm-4.945-3.131a3.258,3.258,0,0,0,.117.868,2.341,2.341,0,0,0,.358.759,1.769,1.769,0,0,0,.618.531,1.892,1.892,0,0,0,.884.2,1.742,1.742,0,0,0,1.51-.759,2.3,2.3,0,0,0,.34-.771,3.738,3.738,0,0,0,.1-.876,3.645,3.645,0,0,0-.111-.906,2.266,2.266,0,0,0-.352-.771,1.813,1.813,0,0,0-.625-.536,1.951,1.951,0,0,0-.927-.2,1.807,1.807,0,0,0-.909.209,1.7,1.7,0,0,0-.588.556,2.409,2.409,0,0,0-.321.788A4.2,4.2,0,0,0,91.83,155.781Z" transform="translate(-69.203 -149.9)" fill="#fff"/>
      <path id="Path_3968" data-name="Path 3968" d="M98.828,151.392H97.777v-1.283h1.051Zm-1.051,1.147h1.051v6.374H97.777Z" transform="translate(-68.523 -149.9)" fill="#fff"/>
      <path id="Path_3969" data-name="Path 3969" d="M109.763,152.778a2.48,2.48,0,0,0-.321-.82,2.1,2.1,0,0,0-.55-.585,2.388,2.388,0,0,0-.736-.351,3.09,3.09,0,0,0-.866-.117,2.87,2.87,0,0,0-1.353.3,2.661,2.661,0,0,0-.927.795,3.425,3.425,0,0,0-.538,1.141,5.087,5.087,0,0,0-.173,1.331,5.708,5.708,0,0,0,.173,1.424,3.381,3.381,0,0,0,.538,1.171,2.642,2.642,0,0,0,.933.8,2.928,2.928,0,0,0,1.36.3,2.607,2.607,0,0,0,1.032-.192,2.328,2.328,0,0,0,.779-.529,2.428,2.428,0,0,0,.513-.808,3.324,3.324,0,0,0,.223-1.011h1.175a4.014,4.014,0,0,1-1.157,2.588,3.7,3.7,0,0,1-2.664.937,4.193,4.193,0,0,1-1.793-.357,3.6,3.6,0,0,1-1.274-.973,4.154,4.154,0,0,1-.76-1.455,6.158,6.158,0,0,1-.254-1.8,5.843,5.843,0,0,1,.273-1.807,4.363,4.363,0,0,1,.8-1.473,3.734,3.734,0,0,1,1.3-.992,4.23,4.23,0,0,1,1.806-.364,4.539,4.539,0,0,1,1.311.185,3.506,3.506,0,0,1,1.1.543,3.042,3.042,0,0,1,.8.893,3.257,3.257,0,0,1,.421,1.239Z" transform="translate(-68.009 -149.918)" fill="#fff"/>
      <path id="Path_3970" data-name="Path 3970" d="M116.986,156.69a2.588,2.588,0,0,1-.927,1.615,2.865,2.865,0,0,1-1.806.555,3.214,3.214,0,0,1-1.329-.253,2.673,2.673,0,0,1-.946-.7,2.921,2.921,0,0,1-.574-1.06,5.027,5.027,0,0,1-.216-1.344,3.848,3.848,0,0,1,.221-1.325,3.187,3.187,0,0,1,.625-1.053,2.834,2.834,0,0,1,.952-.691,2.918,2.918,0,0,1,1.206-.247,2.639,2.639,0,0,1,1.416.351,2.8,2.8,0,0,1,.9.895,3.5,3.5,0,0,1,.469,1.183,5.009,5.009,0,0,1,.105,1.221H112.3a2.528,2.528,0,0,0,.1.795,1.748,1.748,0,0,0,.989,1.128,2.18,2.18,0,0,0,.9.173,1.824,1.824,0,0,0,1.087-.309,1.479,1.479,0,0,0,.569-.936Zm-1.014-1.776a2.154,2.154,0,0,0-.167-.7,1.759,1.759,0,0,0-.958-.955,1.819,1.819,0,0,0-.717-.143,1.838,1.838,0,0,0-.736.143,1.675,1.675,0,0,0-.562.388,1.859,1.859,0,0,0-.372.573,2.2,2.2,0,0,0-.161.7Z" transform="translate(-67.233 -149.699)" fill="#fff"/>
      <path id="Path_3971" data-name="Path 3971" d="M117.56,152.338h.989v1.011h.025a2.17,2.17,0,0,1,.859-.876,2.526,2.526,0,0,1,1.218-.283,2.78,2.78,0,0,1,1.05.172,1.723,1.723,0,0,1,.68.481,1.765,1.765,0,0,1,.365.733,3.933,3.933,0,0,1,.105.943v4.192H121.8V154.4a1.263,1.263,0,0,0-.348-.937,1.285,1.285,0,0,0-.952-.345,2.145,2.145,0,0,0-.834.148,1.571,1.571,0,0,0-.588.42,1.815,1.815,0,0,0-.353.635,2.588,2.588,0,0,0-.117.795v3.6h-1.05Z" transform="translate(-66.619 -149.699)" fill="#fff"/>
      <path id="Path_3972" data-name="Path 3972" d="M125.35,152.493h1.273v.924H125.35v3.957a1.127,1.127,0,0,0,.031.3.3.3,0,0,0,.118.173.528.528,0,0,0,.24.08,3.572,3.572,0,0,0,.4.019h.482v.924h-.8a3.756,3.756,0,0,1-.7-.056,1.014,1.014,0,0,1-.469-.2.869.869,0,0,1-.266-.419,2.444,2.444,0,0,1-.087-.716v-4.056h-1.087v-.924H124.3v-1.911h1.051Z" transform="translate(-66.075 -149.854)" fill="#fff"/>
      <path id="Path_3973" data-name="Path 3973" d="M132.867,156.69a2.588,2.588,0,0,1-.927,1.615,2.865,2.865,0,0,1-1.806.555,3.214,3.214,0,0,1-1.329-.253,2.673,2.673,0,0,1-.946-.7,2.921,2.921,0,0,1-.574-1.06,5.072,5.072,0,0,1-.217-1.344,3.848,3.848,0,0,1,.223-1.325,3.168,3.168,0,0,1,.625-1.053,2.834,2.834,0,0,1,.952-.691,2.918,2.918,0,0,1,1.206-.247,2.633,2.633,0,0,1,1.415.351,2.8,2.8,0,0,1,.9.895,3.528,3.528,0,0,1,.469,1.183,5.064,5.064,0,0,1,.105,1.221h-4.785a2.528,2.528,0,0,0,.1.795,1.748,1.748,0,0,0,.989,1.128,2.18,2.18,0,0,0,.9.173,1.826,1.826,0,0,0,1.087-.309,1.479,1.479,0,0,0,.569-.936Zm-1.014-1.776a2.153,2.153,0,0,0-.167-.7,1.806,1.806,0,0,0-1.675-1.1,1.834,1.834,0,0,0-.736.143,1.675,1.675,0,0,0-.562.388,1.84,1.84,0,0,0-.372.573,2.168,2.168,0,0,0-.161.7Z" transform="translate(-65.704 -149.699)" fill="#fff"/>
      <path id="Path_3974" data-name="Path 3974" d="M133.407,152.338h.989v1.344h.025a2.83,2.83,0,0,1,.939-1.147,2.366,2.366,0,0,1,1.41-.345V153.3a2.984,2.984,0,0,0-1.077.172,1.718,1.718,0,0,0-.717.505,2.093,2.093,0,0,0-.395.815,4.319,4.319,0,0,0-.124,1.085v2.835h-1.051Z" transform="translate(-65.094 -149.699)" fill="#fff"/>
      <path id="Path_3975" data-name="Path 3975" d="M140.82,153.471h-1.075v-.924h1.075V151.6a1.49,1.49,0,0,1,.452-1.177,1.924,1.924,0,0,1,1.317-.4,2.712,2.712,0,0,1,.341.025,1.882,1.882,0,0,1,.339.073v.913a1.273,1.273,0,0,0-.3-.068,2.436,2.436,0,0,0-.3-.019,1.017,1.017,0,0,0-.593.148.65.65,0,0,0-.21.567v.888h1.237v.924h-1.237v5.45H140.82Z" transform="translate(-64.484 -149.908)" fill="#fff"/>
      <path id="Path_3976" data-name="Path 3976" d="M143.354,155.53a4.208,4.208,0,0,1,.2-1.312,2.954,2.954,0,0,1,.593-1.06,2.792,2.792,0,0,1,.971-.709,3.592,3.592,0,0,1,2.677,0,2.8,2.8,0,0,1,.977.709,2.971,2.971,0,0,1,.593,1.06,4.24,4.24,0,0,1,.2,1.312,4.192,4.192,0,0,1-.2,1.308,2.98,2.98,0,0,1-.593,1.054,2.817,2.817,0,0,1-.977.709,3.592,3.592,0,0,1-2.677,0,2.806,2.806,0,0,1-.971-.709,2.963,2.963,0,0,1-.593-1.054A4.16,4.16,0,0,1,143.354,155.53Zm1.113,0a3.168,3.168,0,0,0,.155,1.03,2.169,2.169,0,0,0,.426.752,1.857,1.857,0,0,0,.637.462,1.934,1.934,0,0,0,1.546,0,1.856,1.856,0,0,0,.637-.462,2.152,2.152,0,0,0,.426-.752,3.5,3.5,0,0,0,0-2.059,2.2,2.2,0,0,0-.426-.759,1.819,1.819,0,0,0-.637-.468,1.934,1.934,0,0,0-1.546,0,1.819,1.819,0,0,0-.637.468,2.221,2.221,0,0,0-.426.759A3.154,3.154,0,0,0,144.467,155.53Z" transform="translate(-64.136 -149.699)" fill="#fff"/>
      <path id="Path_3977" data-name="Path 3977" d="M150.111,152.338h.989v1.344h.024a2.839,2.839,0,0,1,.939-1.147,2.371,2.371,0,0,1,1.41-.345V153.3a2.974,2.974,0,0,0-1.075.172,1.7,1.7,0,0,0-.717.505,2.08,2.08,0,0,0-.4.815,4.319,4.319,0,0,0-.124,1.085v2.835h-1.05Z" transform="translate(-63.486 -149.699)" fill="#fff"/>
      <path id="Path_3978" data-name="Path 3978" d="M156.742,154.529a5.647,5.647,0,0,1,.266-1.732,4.356,4.356,0,0,1,.8-1.473,3.893,3.893,0,0,1,1.323-1.023,4.627,4.627,0,0,1,3.685,0,3.882,3.882,0,0,1,1.323,1.023,4.377,4.377,0,0,1,.8,1.473,5.787,5.787,0,0,1,0,3.464,4.378,4.378,0,0,1-.8,1.473,3.9,3.9,0,0,1-1.323,1.024,4.639,4.639,0,0,1-3.685,0,3.909,3.909,0,0,1-1.323-1.024,4.356,4.356,0,0,1-.8-1.473A5.647,5.647,0,0,1,156.742,154.529Zm1.175,0a5.031,5.031,0,0,0,.173,1.313,3.566,3.566,0,0,0,.544,1.165,2.793,2.793,0,0,0,.952.832,3.206,3.206,0,0,0,2.77,0,2.8,2.8,0,0,0,.953-.832,3.588,3.588,0,0,0,.544-1.165,5.066,5.066,0,0,0,0-2.627,3.594,3.594,0,0,0-.544-1.164,2.786,2.786,0,0,0-.953-.832,3.206,3.206,0,0,0-2.77,0,2.782,2.782,0,0,0-.952.832,3.571,3.571,0,0,0-.544,1.164A5.031,5.031,0,0,0,157.917,154.529Z" transform="translate(-62.848 -149.918)" fill="#fff"/>
      <path id="Path_3979" data-name="Path 3979" d="M165.574,152.338h.989v1.344h.025a2.83,2.83,0,0,1,.939-1.147,2.366,2.366,0,0,1,1.41-.345V153.3a2.984,2.984,0,0,0-1.077.172,1.718,1.718,0,0,0-.717.505,2.11,2.11,0,0,0-.4.815,4.37,4.37,0,0,0-.124,1.085v2.835h-1.05Z" transform="translate(-61.997 -149.699)" fill="#fff"/>
      <path id="Path_3980" data-name="Path 3980" d="M174.592,158.169a3.358,3.358,0,0,1-.724,2.349,2.915,2.915,0,0,1-2.244.783,4.365,4.365,0,0,1-.909-.1,2.808,2.808,0,0,1-.84-.321,1.95,1.95,0,0,1-.625-.579,1.641,1.641,0,0,1-.272-.876h1.051a.767.767,0,0,0,.179.481,1.311,1.311,0,0,0,.409.32,1.94,1.94,0,0,0,.525.179,2.818,2.818,0,0,0,.544.056,1.949,1.949,0,0,0,.878-.179,1.653,1.653,0,0,0,.593-.493,2.031,2.031,0,0,0,.34-.759,4.272,4.272,0,0,0,.105-.986v-.42h-.024a1.808,1.808,0,0,1-.346.512,1.941,1.941,0,0,1-.476.357,2.451,2.451,0,0,1-.569.216,2.53,2.53,0,0,1-.6.075,2.818,2.818,0,0,1-1.25-.26,2.585,2.585,0,0,1-.89-.7,3.013,3.013,0,0,1-.537-1.029,4.2,4.2,0,0,1-.18-1.239,4.714,4.714,0,0,1,.149-1.159,3.232,3.232,0,0,1,.494-1.085,2.682,2.682,0,0,1,.914-.808,2.858,2.858,0,0,1,1.4-.314,2.351,2.351,0,0,1,1.113.265,1.865,1.865,0,0,1,.792.795h.012v-.912h.989Zm-2.942-.308a1.655,1.655,0,0,0,1.471-.783,2.579,2.579,0,0,0,.328-.8,3.821,3.821,0,0,0,.105-.887,3.5,3.5,0,0,0-.1-.827,2.319,2.319,0,0,0-.316-.733,1.642,1.642,0,0,0-.562-.524,1.671,1.671,0,0,0-.841-.2,1.8,1.8,0,0,0-.865.192,1.677,1.677,0,0,0-.588.511,2.15,2.15,0,0,0-.333.74,3.531,3.531,0,0,0-.106.876,4.429,4.429,0,0,0,.087.863,2.463,2.463,0,0,0,.3.783,1.66,1.66,0,0,0,.557.567A1.607,1.607,0,0,0,171.649,157.861Z" transform="translate(-61.694 -149.699)" fill="#fff"/>
      <path id="Path_3981" data-name="Path 3981" d="M181.215,158.688a1.442,1.442,0,0,1-.754.172.888.888,0,0,1-.649-.235,1.009,1.009,0,0,1-.241-.752,2.566,2.566,0,0,1-1.007.752,3.255,3.255,0,0,1-1.243.235,3.339,3.339,0,0,1-.822-.1,1.859,1.859,0,0,1-.674-.315,1.526,1.526,0,0,1-.451-.555,1.832,1.832,0,0,1-.167-.82,1.869,1.869,0,0,1,.185-.888,1.562,1.562,0,0,1,.488-.554,2.427,2.427,0,0,1,.692-.327,7.17,7.17,0,0,1,.8-.192c.288-.057.563-.1.822-.129a4.512,4.512,0,0,0,.686-.123,1.141,1.141,0,0,0,.47-.235.573.573,0,0,0,.173-.449,1.058,1.058,0,0,0-.129-.556.9.9,0,0,0-.334-.32,1.366,1.366,0,0,0-.457-.148,3.566,3.566,0,0,0-.5-.037,2.228,2.228,0,0,0-1.113.253,1.072,1.072,0,0,0-.481.956h-1.051a2.255,2.255,0,0,1,.248-1,1.867,1.867,0,0,1,.593-.659,2.5,2.5,0,0,1,.853-.364,4.541,4.541,0,0,1,1.014-.111,6.078,6.078,0,0,1,.859.061,2.274,2.274,0,0,1,.773.252,1.484,1.484,0,0,1,.556.537,1.709,1.709,0,0,1,.21.9v3.279a2.394,2.394,0,0,0,.044.543c.029.115.125.173.29.173a.949.949,0,0,0,.321-.062Zm-1.706-3.268a1.123,1.123,0,0,1-.372.173c-.148.041-.3.076-.469.1s-.341.054-.526.075-.365.047-.538.08a4.343,4.343,0,0,0-.494.123,1.367,1.367,0,0,0-.408.2.966.966,0,0,0-.277.327,1.027,1.027,0,0,0-.106.493.84.84,0,0,0,.106.437.858.858,0,0,0,.271.289,1.136,1.136,0,0,0,.39.161,2.161,2.161,0,0,0,.469.049,2.473,2.473,0,0,0,.89-.143,1.872,1.872,0,0,0,.606-.357,1.419,1.419,0,0,0,.346-.468,1.179,1.179,0,0,0,.112-.475Z" transform="translate(-61.07 -149.699)" fill="#fff"/>
      <path id="Path_3982" data-name="Path 3982" d="M181.578,152.338h.989v1.011h.025a2.177,2.177,0,0,1,.859-.876,2.526,2.526,0,0,1,1.218-.283,2.78,2.78,0,0,1,1.05.172,1.735,1.735,0,0,1,.681.481,1.777,1.777,0,0,1,.364.733,3.934,3.934,0,0,1,.105.943v4.192h-1.05V154.4a1.263,1.263,0,0,0-.348-.937,1.285,1.285,0,0,0-.952-.345,2.145,2.145,0,0,0-.834.148,1.571,1.571,0,0,0-.588.42,1.815,1.815,0,0,0-.353.635,2.588,2.588,0,0,0-.117.795v3.6h-1.05Z" transform="translate(-60.457 -149.699)" fill="#fff"/>
      <path id="Path_3983" data-name="Path 3983" d="M193.228,151.1h-2.943v-.987h7.061v.987H194.4v7.816h-1.174Z" transform="translate(-59.619 -149.9)" fill="#fff"/>
      <path id="Path_3984" data-name="Path 3984" d="M196.387,152.338h.99v1.344h.024a2.839,2.839,0,0,1,.94-1.147,2.368,2.368,0,0,1,1.41-.345V153.3a2.974,2.974,0,0,0-1.075.172,1.7,1.7,0,0,0-.717.505,2.08,2.08,0,0,0-.4.815,4.318,4.318,0,0,0-.124,1.085v2.835h-1.051Z" transform="translate(-59.032 -149.699)" fill="#fff"/>
      <path id="Path_3985" data-name="Path 3985" d="M205.871,158.688a1.447,1.447,0,0,1-.754.172.893.893,0,0,1-.65-.235,1.014,1.014,0,0,1-.241-.752,2.563,2.563,0,0,1-1.006.752,3.254,3.254,0,0,1-1.243.235,3.333,3.333,0,0,1-.822-.1,1.859,1.859,0,0,1-.674-.315,1.54,1.54,0,0,1-.452-.555,1.847,1.847,0,0,1-.167-.82,1.869,1.869,0,0,1,.185-.888,1.565,1.565,0,0,1,.489-.554,2.427,2.427,0,0,1,.692-.327,7.112,7.112,0,0,1,.8-.192c.288-.057.562-.1.822-.129a4.512,4.512,0,0,0,.686-.123,1.155,1.155,0,0,0,.47-.235.573.573,0,0,0,.173-.449,1.048,1.048,0,0,0-.13-.556.9.9,0,0,0-.333-.32,1.365,1.365,0,0,0-.458-.148,3.552,3.552,0,0,0-.5-.037,2.228,2.228,0,0,0-1.113.253,1.072,1.072,0,0,0-.481.956h-1.051a2.27,2.27,0,0,1,.247-1,1.888,1.888,0,0,1,.593-.659,2.507,2.507,0,0,1,.854-.364,4.541,4.541,0,0,1,1.014-.111,6.063,6.063,0,0,1,.858.061,2.272,2.272,0,0,1,.774.252,1.492,1.492,0,0,1,.556.537,1.709,1.709,0,0,1,.21.9v3.279a2.476,2.476,0,0,0,.043.543c.029.115.126.173.291.173a.955.955,0,0,0,.322-.062Zm-1.707-3.268a1.107,1.107,0,0,1-.371.173c-.148.041-.3.076-.47.1s-.34.054-.525.075-.365.047-.538.08a4.343,4.343,0,0,0-.494.123,1.341,1.341,0,0,0-.408.2.981.981,0,0,0-.278.327,1.04,1.04,0,0,0-.105.493.85.85,0,0,0,.105.437.871.871,0,0,0,.272.289,1.139,1.139,0,0,0,.389.161,2.171,2.171,0,0,0,.47.049,2.473,2.473,0,0,0,.89-.143,1.872,1.872,0,0,0,.606-.357,1.434,1.434,0,0,0,.346-.468,1.176,1.176,0,0,0,.111-.475Z" transform="translate(-58.697 -149.699)" fill="#fff"/>
      <path id="Path_3986" data-name="Path 3986" d="M206.234,152.338h.989v1.011h.024a2.183,2.183,0,0,1,.859-.876,2.534,2.534,0,0,1,1.219-.283,2.78,2.78,0,0,1,1.05.172,1.739,1.739,0,0,1,.68.481,1.779,1.779,0,0,1,.365.733,3.932,3.932,0,0,1,.105.943v4.192h-1.051V154.4a1.263,1.263,0,0,0-.346-.937,1.287,1.287,0,0,0-.952-.345,2.145,2.145,0,0,0-.834.148,1.554,1.554,0,0,0-.588.42,1.815,1.815,0,0,0-.353.635,2.588,2.588,0,0,0-.117.795v3.6h-1.05Z" transform="translate(-58.084 -149.699)" fill="#fff"/>
      <path id="Path_3987" data-name="Path 3987" d="M213.183,156.7a1.162,1.162,0,0,0,.16.592,1.134,1.134,0,0,0,.39.376,1.741,1.741,0,0,0,.544.2,3.078,3.078,0,0,0,.624.063,3.955,3.955,0,0,0,.52-.037,1.924,1.924,0,0,0,.5-.136.941.941,0,0,0,.377-.289.773.773,0,0,0,.148-.487.7.7,0,0,0-.179-.5,1.376,1.376,0,0,0-.47-.315,3.674,3.674,0,0,0-.668-.2c-.251-.054-.509-.109-.773-.167a7.421,7.421,0,0,1-.766-.209,2.771,2.771,0,0,1-.668-.321,1.427,1.427,0,0,1-.656-1.269,1.529,1.529,0,0,1,.216-.826,1.768,1.768,0,0,1,.557-.561,2.579,2.579,0,0,1,.766-.321,3.585,3.585,0,0,1,.847-.1,5.112,5.112,0,0,1,1,.092,2.327,2.327,0,0,1,.816.321,1.65,1.65,0,0,1,.562.616,2.338,2.338,0,0,1,.248.968h-1.051a1.017,1.017,0,0,0-.167-.512,1.142,1.142,0,0,0-.346-.327,1.5,1.5,0,0,0-.457-.179,2.372,2.372,0,0,0-.513-.056,3.2,3.2,0,0,0-.476.037,1.632,1.632,0,0,0-.44.129.848.848,0,0,0-.321.253.62.62,0,0,0-.124.395.583.583,0,0,0,.192.456,1.6,1.6,0,0,0,.488.289,4.388,4.388,0,0,0,.668.2c.248.054.5.109.743.167a7.761,7.761,0,0,1,.772.209,2.491,2.491,0,0,1,.668.327,1.582,1.582,0,0,1,.47.512,1.5,1.5,0,0,1,.179.764,1.772,1.772,0,0,1-.241.955,1.842,1.842,0,0,1-.63.623,2.732,2.732,0,0,1-.878.333,4.882,4.882,0,0,1-.97.1,4.263,4.263,0,0,1-1.02-.117,2.6,2.6,0,0,1-.847-.369,1.851,1.851,0,0,1-.593-.665,2.3,2.3,0,0,1-.248-1.005Z" transform="translate(-57.516 -149.699)" fill="#fff"/>
      <path id="Path_3988" data-name="Path 3988" d="M218.178,152.338h1.05v.863h.025a1.574,1.574,0,0,1,.816-.771,3.062,3.062,0,0,1,1.225-.24,2.908,2.908,0,0,1,1.292.271,2.624,2.624,0,0,1,.914.733,3.231,3.231,0,0,1,.55,1.067,4.346,4.346,0,0,1,.186,1.283,4.48,4.48,0,0,1-.18,1.282,3.029,3.029,0,0,1-.544,1.055,2.628,2.628,0,0,1-.915.715,2.922,2.922,0,0,1-1.279.265,3.106,3.106,0,0,1-.532-.049,2.705,2.705,0,0,1-.569-.167,2.421,2.421,0,0,1-.538-.308,1.677,1.677,0,0,1-.426-.475h-.025v3.292h-1.05Zm4.945,3.131a3.227,3.227,0,0,0-.117-.869,2.323,2.323,0,0,0-.358-.758,1.739,1.739,0,0,0-.618-.531,1.879,1.879,0,0,0-.884-.2,1.735,1.735,0,0,0-1.508.759,2.294,2.294,0,0,0-.341.771,3.747,3.747,0,0,0,.007,1.781,2.266,2.266,0,0,0,.352.771,1.812,1.812,0,0,0,.625.536,1.951,1.951,0,0,0,.927.2,1.808,1.808,0,0,0,.9-.21,1.667,1.667,0,0,0,.593-.555,2.409,2.409,0,0,0,.321-.788A4.2,4.2,0,0,0,223.123,155.469Z" transform="translate(-56.934 -149.699)" fill="#fff"/>
      <path id="Path_3989" data-name="Path 3989" d="M224.888,150.109h1.051v8.8h-1.051Z" transform="translate(-56.288 -149.9)" fill="#fff"/>
      <path id="Path_3990" data-name="Path 3990" d="M233.029,158.688a1.44,1.44,0,0,1-.753.172.891.891,0,0,1-.65-.235,1.009,1.009,0,0,1-.241-.752,2.558,2.558,0,0,1-1.007.752,3.253,3.253,0,0,1-1.242.235,3.342,3.342,0,0,1-.823-.1,1.867,1.867,0,0,1-.674-.315,1.549,1.549,0,0,1-.451-.555,1.847,1.847,0,0,1-.167-.82,1.869,1.869,0,0,1,.185-.888,1.562,1.562,0,0,1,.488-.554,2.433,2.433,0,0,1,.693-.327,7.054,7.054,0,0,1,.8-.192c.288-.057.562-.1.821-.129a4.529,4.529,0,0,0,.687-.123,1.143,1.143,0,0,0,.469-.235.569.569,0,0,0,.173-.449,1.048,1.048,0,0,0-.129-.556.89.89,0,0,0-.334-.32,1.359,1.359,0,0,0-.457-.148,3.551,3.551,0,0,0-.5-.037,2.222,2.222,0,0,0-1.113.253,1.073,1.073,0,0,0-.482.956h-1.051a2.285,2.285,0,0,1,.248-1,1.877,1.877,0,0,1,.593-.659,2.51,2.51,0,0,1,.853-.364,4.551,4.551,0,0,1,1.015-.111,6.063,6.063,0,0,1,.858.061,2.28,2.28,0,0,1,.774.252,1.5,1.5,0,0,1,.556.537,1.709,1.709,0,0,1,.209.9v3.279a2.4,2.4,0,0,0,.044.543c.029.115.126.173.291.173a.949.949,0,0,0,.321-.062Zm-1.706-3.268a1.117,1.117,0,0,1-.371.173c-.149.041-.306.076-.47.1s-.34.054-.526.075-.364.047-.537.08a4.343,4.343,0,0,0-.494.123,1.342,1.342,0,0,0-.408.2.957.957,0,0,0-.278.327,1.04,1.04,0,0,0-.105.493.85.85,0,0,0,.105.437.861.861,0,0,0,.272.289,1.13,1.13,0,0,0,.389.161,2.164,2.164,0,0,0,.47.049,2.477,2.477,0,0,0,.89-.143,1.878,1.878,0,0,0,.605-.357,1.4,1.4,0,0,0,.346-.468,1.179,1.179,0,0,0,.112-.475Z" transform="translate(-56.083 -149.699)" fill="#fff"/>
      <path id="Path_3991" data-name="Path 3991" d="M233.392,152.338h.99v1.011h.024a2.177,2.177,0,0,1,.859-.876,2.529,2.529,0,0,1,1.218-.283,2.786,2.786,0,0,1,1.051.172,1.739,1.739,0,0,1,.68.481,1.779,1.779,0,0,1,.365.733,3.933,3.933,0,0,1,.105.943v4.192h-1.051V154.4a1.267,1.267,0,0,0-.346-.937,1.289,1.289,0,0,0-.952-.345,2.151,2.151,0,0,0-.835.148,1.571,1.571,0,0,0-.588.42,1.8,1.8,0,0,0-.352.635,2.555,2.555,0,0,0-.117.795v3.6h-1.051Z" transform="translate(-55.47 -149.699)" fill="#fff"/>
      <path id="Path_3992" data-name="Path 3992" d="M241.183,152.493h1.273v.924h-1.273v3.957a1.135,1.135,0,0,0,.03.3.307.307,0,0,0,.118.173.529.529,0,0,0,.241.08,3.558,3.558,0,0,0,.4.019h.482v.924h-.8a3.747,3.747,0,0,1-.7-.056,1.019,1.019,0,0,1-.47-.2.867.867,0,0,1-.265-.419,2.4,2.4,0,0,1-.088-.716v-4.056h-1.087v-.924h1.087v-1.911h1.052Z" transform="translate(-54.926 -149.854)" fill="#fff"/>
      <path id="Path_3993" data-name="Path 3993" d="M244.323,151.392h-1.051v-1.283h1.051Zm-1.051,1.147h1.051v6.374h-1.051Z" transform="translate(-54.519 -149.9)" fill="#fff"/>
      <path id="Path_3994" data-name="Path 3994" d="M245.4,155.53a4.208,4.208,0,0,1,.2-1.312,2.954,2.954,0,0,1,.593-1.06,2.792,2.792,0,0,1,.971-.709,3.592,3.592,0,0,1,2.677,0,2.8,2.8,0,0,1,.977.709,2.97,2.97,0,0,1,.593,1.06,4.24,4.24,0,0,1,.2,1.312,4.192,4.192,0,0,1-.2,1.308,2.979,2.979,0,0,1-.593,1.054,2.817,2.817,0,0,1-.977.709,3.592,3.592,0,0,1-2.677,0,2.806,2.806,0,0,1-.971-.709,2.963,2.963,0,0,1-.593-1.054A4.161,4.161,0,0,1,245.4,155.53Zm1.113,0a3.168,3.168,0,0,0,.155,1.03,2.17,2.17,0,0,0,.426.752,1.857,1.857,0,0,0,.637.462,1.934,1.934,0,0,0,1.546,0,1.856,1.856,0,0,0,.637-.462,2.152,2.152,0,0,0,.426-.752,3.5,3.5,0,0,0,0-2.059,2.2,2.2,0,0,0-.426-.759,1.819,1.819,0,0,0-.637-.468,1.934,1.934,0,0,0-1.546,0,1.819,1.819,0,0,0-.637.468,2.222,2.222,0,0,0-.426.759A3.154,3.154,0,0,0,246.517,155.53Z" transform="translate(-54.313 -149.699)" fill="#fff"/>
      <path id="Path_3995" data-name="Path 3995" d="M252.194,152.338h.99v1.011h.024a2.177,2.177,0,0,1,.859-.876,2.526,2.526,0,0,1,1.218-.283,2.786,2.786,0,0,1,1.051.172,1.738,1.738,0,0,1,.68.481,1.778,1.778,0,0,1,.365.733,3.933,3.933,0,0,1,.105.943v4.192h-1.051V154.4a1.267,1.267,0,0,0-.346-.937,1.289,1.289,0,0,0-.952-.345,2.151,2.151,0,0,0-.835.148,1.571,1.571,0,0,0-.588.42,1.8,1.8,0,0,0-.352.635,2.555,2.555,0,0,0-.117.795v3.6h-1.051Z" transform="translate(-53.66 -149.699)" fill="#fff"/>
    </g>
    <g id="Group_1855" data-name="Group 1855" transform="translate(71.125 140.59)">
      <path id="Path_3938" data-name="Path 3938" d="M74.907,138.478h1.846l-.166,1.141a2.952,2.952,0,0,0-2.9.936q-1.062,3.034,3.219,2.16l-.32,1.336H71.122l.01-1.5h1.249Q71.978,139.3,74.907,138.478Z" transform="translate(-71.122 -132.708)" fill="#fff"/>
      <path id="Path_3939" data-name="Path 3939" d="M77.265,144.449v-10.2h1.3v8.8h1.692v1.4Z" transform="translate(-70.531 -133.116)" fill="#fff"/>
      <path id="Path_3940" data-name="Path 3940" d="M89.148,142.277v1.4H79.824v-1.4Z" transform="translate(-70.284 -132.343)" fill="#fff"/>
      <path id="Path_3941" data-name="Path 3941" d="M88.615,142.97v-4.824l1.3-.493v5.317h7.632a2,2,0,0,0,1.278-.3,1.464,1.464,0,0,0,.4-1.013,1.52,1.52,0,0,0-.309-1.157,1.388,1.388,0,0,0-.83-.52,11.73,11.73,0,0,0-1.707-.067H90.069v-1.409h7.148a4.317,4.317,0,0,1,2.279.514q1.681,1.286.815,3.949a2.922,2.922,0,0,1-2.052,1.4H88.151v-1.4Zm5.152-6.433a.782.782,0,0,0,1.15,0,.923.923,0,0,0,.01-1.223.733.733,0,0,0-.557-.241.807.807,0,0,0-.593.257.826.826,0,0,0-.253.6A.847.847,0,0,0,93.767,136.538Zm7.74,6.433v1.4H98.815q1.495-.7,1.65-1.4Z" transform="translate(-69.483 -133.036)" fill="#fff"/>
      <path id="Path_3942" data-name="Path 3942" d="M104.758,136.951a4.559,4.559,0,0,1,4.672,2.735l.629,1.42-1.516.01q-1.135-3.353-3.991-2.725-2.827.534-2.331,3.558a2.252,2.252,0,0,0,.784.843h6.951l-.713,1.4H99.92v-1.4h1.228a3.694,3.694,0,0,1-.454-1.82Q101.138,137.691,104.758,136.951Z" transform="translate(-68.35 -132.858)" fill="#fff"/>
      <path id="Path_3943" data-name="Path 3943" d="M115.09,134.346h1.3v8.31a2.841,2.841,0,0,1-.66,1.177,3.569,3.569,0,0,1-1.9,1.105,4.275,4.275,0,0,1-3.817-1.111l.888-.885q1.63,1.337,2.981.659,1.186-.638,1.206-1.193Zm-3.94-1.131h.516l-.052.319a.812.812,0,0,0-.8.258q-.3.853.9.606l-.093.38-1.527-.01v-.412h.351A.924.924,0,0,1,111.15,133.215Zm1.1,9.718-1.97-7.322,1.249-.4,1.97,7.322Z" transform="translate(-67.378 -133.215)" fill="#fff"/>
      <path id="Path_3944" data-name="Path 3944" d="M117.053,144.449v-10.2h1.3v10.2Z" transform="translate(-66.701 -133.116)" fill="#fff"/>
      <path id="Path_3945" data-name="Path 3945" d="M132.665,137.8v5.235h.639v1.4l-7.209.01a2.949,2.949,0,0,1-2.084-1.882,4.169,4.169,0,0,1,2.269-4.494,4.739,4.739,0,0,1,5.075.69V137.8Zm-4.548,1.06q-3.146.38-2.805,3.341a1.141,1.141,0,0,0,1.083.843h4.734c.124-.013.193-.1.206-.266Q131.819,139.048,128.117,138.865Zm-1.243-3.04a.768.768,0,0,0,.573.252.76.76,0,0,0,.577-.252.921.921,0,0,0,.011-1.223.735.735,0,0,0-.557-.241.8.8,0,0,0-.593.257.826.826,0,0,0-.253.6A.851.851,0,0,0,126.874,135.825Zm1.97,0a.782.782,0,0,0,1.15,0A.921.921,0,0,0,130,134.6a.735.735,0,0,0-.557-.241.8.8,0,0,0-.593.257.826.826,0,0,0-.253.6A.851.851,0,0,0,128.844,135.825Z" transform="translate(-66.038 -133.105)" fill="#fff"/>
      <path id="Path_3946" data-name="Path 3946" d="M137.1,136.951a4.559,4.559,0,0,1,4.672,2.735l.629,1.42-1.516.01q-1.135-3.353-3.991-2.725-2.825.534-2.331,3.558a2.252,2.252,0,0,0,.784.843H142.3l-.711,1.4h-9.324v-1.4h1.228a3.694,3.694,0,0,1-.454-1.82Q133.482,137.691,137.1,136.951Z" transform="translate(-65.236 -132.858)" fill="#fff"/>
      <path id="Path_3947" data-name="Path 3947" d="M142.5,144.449v-10.2h1.3v10.2Z" transform="translate(-64.251 -133.116)" fill="#fff"/>
      <path id="Path_3948" data-name="Path 3948" d="M149.171,144.026q-.835,3.455-5.126,2.8l.145-1.306a3.5,3.5,0,0,0,2.594-.107,2.393,2.393,0,0,0,1.057-1.383v-5.389h1.331Z" transform="translate(-64.103 -132.693)" fill="#fff"/>
      <path id="Path_3949" data-name="Path 3949" d="M154.953,144.261h-.8q-.835,3.455-5.126,2.8l.145-1.306a3.5,3.5,0,0,0,2.594-.107,2.393,2.393,0,0,0,1.057-1.383v-5.389h1.331v3.99h.8Zm-2.14-6.6a.782.782,0,0,0,1.15,0,.923.923,0,0,0,.01-1.223.732.732,0,0,0-.557-.242.808.808,0,0,0-.593.258.823.823,0,0,0-.252.6A.846.846,0,0,0,152.813,137.664Z" transform="translate(-63.624 -132.928)" fill="#fff"/>
      <path id="Path_3950" data-name="Path 3950" d="M154.065,144.449v-1.4h1.692v-8.8h1.3v10.2Z" transform="translate(-63.138 -133.116)" fill="#fff"/>
      <path id="Path_3951" data-name="Path 3951" d="M166.749,136.78l.391,1.326a3.706,3.706,0,0,0-3.114,1.861,2.578,2.578,0,0,0-.114,2.108q.4.822,1.888.73h10.447q.538-.4.011-.751h-6.394a1.934,1.934,0,0,1-1.733-1.455q-.413-1.3,1.4-2.823,3.259-1.944,7.22.514l-.784,1.183a5.675,5.675,0,0,0-5.292-1.018q-1.485.669-1.4,1.435t.608.765h6.085a2.084,2.084,0,0,1,1.587.813q.96,2.251-2.073,2.735H164.809a3.435,3.435,0,0,1-1.846-.905,2.792,2.792,0,0,1-.619-1.655Q162.52,137.757,166.749,136.78Zm.923,10.145a.782.782,0,0,0,1.15,0,.923.923,0,0,0,.01-1.223.736.736,0,0,0-.557-.242.8.8,0,0,0-.593.258.823.823,0,0,0-.252.6A.846.846,0,0,0,167.672,146.925Zm1.97,0a.78.78,0,0,0,1.149,0,.921.921,0,0,0,.011-1.223.734.734,0,0,0-.557-.242.8.8,0,0,0-.593.258.823.823,0,0,0-.252.6A.846.846,0,0,0,169.642,146.925Z" transform="translate(-62.341 -132.872)" fill="#fff"/>
      <path id="Path_3952" data-name="Path 3952" d="M182.358,136.883q4.486.309,4.631,4.587a3.566,3.566,0,0,1-1.557,2.643,7.252,7.252,0,0,1-1.6.082h-5.414l-.691-1.4h6.807a1.134,1.134,0,0,0,.846-.566q.855-4.03-3.383-3.877a3.669,3.669,0,0,0-2.713,2.767h-1.4A4.714,4.714,0,0,1,182.358,136.883Z" transform="translate(-60.861 -132.862)" fill="#fff"/>
      <path id="Path_3953" data-name="Path 3953" d="M196.53,142.772v1.4h-7.859a2.608,2.608,0,0,1-1.413-1.326q-1.094-4.474,2.992-5.667,5.589-.5,5.115,5.594-.331,4.03-2.9,4.34h-3.032l-.764-1.4h4.1a3.689,3.689,0,0,0,1.371-3.085q.329-4.7-3.858-4.227a2.706,2.706,0,0,0-2.031,2.828,1.471,1.471,0,0,0,.773,1.542Z" transform="translate(-59.965 -132.837)" fill="#fff"/>
      <path id="Path_3954" data-name="Path 3954" d="M195.141,142.8h1.052a4.879,4.879,0,0,1,.835-4.535h-.908l.619-1.4h2.733q6.157-.3,6.219,4.474a4.4,4.4,0,0,1-.248,1.46h1.217v1.4H195.141Zm5.538-4.535q-3.021.268-3.351,2.838a3.04,3.04,0,0,0,.464,1.7h5.971a2.687,2.687,0,0,0-.134-3.6A4.509,4.509,0,0,0,200.679,138.264Z" transform="translate(-59.184 -132.865)" fill="#fff"/>
      <path id="Path_3955" data-name="Path 3955" d="M210.474,142.744h1.444V137.92l1.3-.493v5.317h1.1v1.4h-8.963v-1.4h1.135V137.92l1.3-.493v5.317h1.382V137.92l1.3-.493Z" transform="translate(-58.201 -132.81)" fill="#fff"/>
      <path id="Path_3956" data-name="Path 3956" d="M213.14,144.449v-1.4h1.69v-8.8h1.3v10.2Z" transform="translate(-57.452 -133.116)" fill="#fff"/>
      <path id="Path_3957" data-name="Path 3957" d="M217.053,144.449v-10.2h1.3v10.2Z" transform="translate(-57.075 -133.116)" fill="#fff"/>
      <path id="Path_3958" data-name="Path 3958" d="M229.231,144.261h-.8q-.835,3.455-5.126,2.8l.145-1.306a3.5,3.5,0,0,0,2.594-.107,2.4,2.4,0,0,0,1.058-1.383v-5.389h1.33v3.99h.8Zm-2.14-6.6a.782.782,0,0,0,1.15,0,.923.923,0,0,0,.01-1.223.732.732,0,0,0-.557-.242.81.81,0,0,0-.593.258.823.823,0,0,0-.252.6A.851.851,0,0,0,227.091,137.664Z" transform="translate(-56.474 -132.928)" fill="#fff"/>
      <path id="Path_3959" data-name="Path 3959" d="M239.629,134.21l-.206,1.655-6.282,2.725h4.239a4.317,4.317,0,0,1,2.279.514q1.682,1.286.815,3.949a2.922,2.922,0,0,1-2.052,1.4H228.315v-1.4h9.4a2,2,0,0,0,1.279-.3,1.469,1.469,0,0,0,.4-1.013,1.525,1.525,0,0,0-.31-1.157,1.384,1.384,0,0,0-.83-.52,11.739,11.739,0,0,0-1.707-.067h-6.271q-.794,0-.976-.407t.387-.868Z" transform="translate(-55.991 -133.119)" fill="#fff"/>
      <path id="Path_3960" data-name="Path 3960" d="M245.94,144.026h-.8q-.835,3.455-5.126,2.8l.145-1.306a3.5,3.5,0,0,0,2.594-.107,2.393,2.393,0,0,0,1.057-1.383v-5.389h1.331v3.99h.8Z" transform="translate(-54.866 -132.693)" fill="#fff"/>
      <path id="Path_3961" data-name="Path 3961" d="M246.851,142.578a3.324,3.324,0,0,1,2.991-3.425,2.842,2.842,0,0,1,3.084,2.232,3.268,3.268,0,0,1-1.568,3.568l-.392.144-2.382-1.542.145-1.326,1.959,1.121q.9.113.908-.844a1.722,1.722,0,0,0-.454-1.573,2.577,2.577,0,0,0-1.722-.319q-.722.176-1.145,1.317l-.248,1.481q-.145.566-1.5.566h-1.413v-1.4Zm7.157,0v1.4h-1.733v-1.4Z" transform="translate(-54.374 -132.644)" fill="#fff"/>
      <path id="Path_3962" data-name="Path 3962" d="M252.993,144.449v-1.4h1.69v-8.8h1.3v10.2Z" transform="translate(-53.616 -133.116)" fill="#fff"/>
      <path id="Path_3963" data-name="Path 3963" d="M256.907,144.449v-10.2h1.3v10.2Z" transform="translate(-53.239 -133.116)" fill="#fff"/>
    </g>
    <ellipse id="Ellipse_41" data-name="Ellipse 41" cx="38" cy="38.5" rx="38" ry="38.5" transform="translate(135.092 53.5)" fill="url(#linear-gradient)"/>
    <g id="Group_1861" data-name="Group 1861" transform="translate(137.964 58.982)">
      <g transform="matrix(1, 0, 0, 1, -66.87, -5.48)" filter="url(#Path_3937)">
        <path id="Path_3937-2" data-name="Path 3937" d="M163.314,123.394l7.8-.134.941-28.677s7.794-.8,20.562,14.473c0-2.949-.4-10.453-9-16.483,0,0,5.241-2.948,17.337,4.691,0,0,1.881-6.567-16.262-12.865,0,0,3.091-2.413,17.741.4,0,0-1.21-8.04-24.461-8.576a9.785,9.785,0,0,1,5.376-3.216,10.517,10.517,0,0,0-11.63,1.616,10.3,10.3,0,0,0-.783.749,4.863,4.863,0,0,1-3.631,1.189h-.077a4.668,4.668,0,0,1-3.543-1.713c-.933-1.131-4.179-3.929-12.458-1.974,0,0,4.57,1.206,4.839,3.216,0,0-18.413-.67-24.326,7.906,0,0,13.439-3.619,18.009.267a29.046,29.046,0,0,0-17.069,12.865A47.742,47.742,0,0,1,150.816,91.9s-8.6,6.567-8.871,17.287c0,0,10.886-13.8,20.966-14.07Z" transform="translate(-64.86 -52.52)" fill="url(#linear-gradient-2)"/>
      </g>
      <g transform="matrix(1, 0, 0, 1, -66.87, -5.48)" filter="url(#Ellipse_42)">
        <ellipse id="Ellipse_42-2" data-name="Ellipse 42" cx="7.106" cy="7.086" rx="7.106" ry="7.086" transform="translate(95.33 5.48)" fill="#fff"/>
      </g>
    </g>
  </g>
</svg>
