<svg xmlns="http://www.w3.org/2000/svg" xmlns:xlink="http://www.w3.org/1999/xlink" width="500" height="370" viewBox="0 0 500 370">
  <defs>
    <clipPath id="clip-path">
      <ellipse id="Ellipse_60" data-name="Ellipse 60" cx="30.333" cy="28.319" rx="30.333" ry="28.319" transform="translate(0 40.731) rotate(-42.175)" fill="none"/>
    </clipPath>
    <clipPath id="clip-path-2">
      <ellipse id="Ellipse_61" data-name="Ellipse 61" cx="30.323" cy="28.309" rx="30.323" ry="28.309" transform="translate(0 40.706) rotate(-42.162)" fill="none"/>
    </clipPath>
    <clipPath id="clip-path-4">
      <ellipse id="Ellipse_63" data-name="Ellipse 63" cx="50.367" cy="50.146" rx="50.367" ry="50.146" transform="translate(0 0)" fill="none"/>
    </clipPath>
  </defs>
  <g id="search-users-illustration" transform="translate(-118 -120.332)">
    <g id="Background_Complete" data-name="Background Complete" transform="translate(118 120.332)">
      <g id="Group_7850" data-name="Group 7850">
        <rect id="Rectangle_3919" data-name="Rectangle 3919" width="500" height="0.248" transform="translate(0 326.03)" fill="#e9e9e9"/>
        <rect id="Rectangle_3920" data-name="Rectangle 3920" width="18.889" height="0.248" transform="translate(416.772 342.057)" fill="#e9e9e9"/>
        <rect id="Rectangle_3921" data-name="Rectangle 3921" width="29.475" height="0.248" transform="translate(293.052 340.32)" fill="#e9e9e9"/>
        <rect id="Rectangle_3922" data-name="Rectangle 3922" width="47.115" height="0.248" transform="translate(368.663 332.811)" fill="#e9e9e9"/>
        <rect id="Rectangle_3923" data-name="Rectangle 3923" width="10.972" height="0.248" transform="translate(52.464 334.484)" fill="#e9e9e9"/>
        <rect id="Rectangle_3924" data-name="Rectangle 3924" width="38.558" height="0.248" transform="translate(72.34 334.484)" fill="#e9e9e9"/>
        <rect id="Rectangle_3925" data-name="Rectangle 3925" width="54.151" height="0.248" transform="translate(170.998 338.688)" fill="#e9e9e9"/>
        <path id="Path_12758" data-name="Path 12758" d="M340.512,401.957H147.4a5.7,5.7,0,0,1-5.709-5.683V126.015a5.7,5.7,0,0,1,5.709-5.683H340.512a5.7,5.7,0,0,1,5.709,5.683V396.274A5.7,5.7,0,0,1,340.512,401.957ZM147.4,120.58a5.453,5.453,0,0,0-5.459,5.434v270.26a5.453,5.453,0,0,0,5.459,5.434H340.512a5.453,5.453,0,0,0,5.459-5.434V126.015a5.453,5.453,0,0,0-5.459-5.434Z" transform="translate(-103.478 -120.332)" fill="#e9e9e9"/>
        <path id="Path_12759" data-name="Path 12759" d="M474.617,401.957H281.5a5.7,5.7,0,0,1-5.707-5.683V126.015a5.7,5.7,0,0,1,5.707-5.683H474.617a5.7,5.7,0,0,1,5.709,5.683V396.274A5.7,5.7,0,0,1,474.617,401.957ZM281.5,120.58a5.454,5.454,0,0,0-5.457,5.434v270.26a5.455,5.455,0,0,0,5.457,5.434H474.617a5.453,5.453,0,0,0,5.458-5.434V126.015a5.453,5.453,0,0,0-5.458-5.434Z" transform="translate(-21.31 -120.332)" fill="#e9e9e9"/>
      </g>
      <g id="Group_7851" data-name="Group 7851" transform="translate(52.464 332.811)">
        <rect id="Rectangle_3926" data-name="Rectangle 3926" width="18.889" height="0.248" transform="translate(364.308 9.246)" fill="#e9e9e9"/>
        <rect id="Rectangle_3927" data-name="Rectangle 3927" width="29.475" height="0.248" transform="translate(240.585 7.509)" fill="#e9e9e9"/>
        <rect id="Rectangle_3928" data-name="Rectangle 3928" width="47.115" height="0.248" transform="translate(316.19)" fill="#e9e9e9"/>
        <rect id="Rectangle_3929" data-name="Rectangle 3929" width="10.972" height="0.248" transform="translate(0 1.673)" fill="#e9e9e9"/>
        <rect id="Rectangle_3930" data-name="Rectangle 3930" width="38.558" height="0.248" transform="translate(19.876 1.673)" fill="#e9e9e9"/>
        <rect id="Rectangle_3931" data-name="Rectangle 3931" width="54.151" height="0.248" transform="translate(118.535 5.876)" fill="#e9e9e9"/>
      </g>
      <g id="Group_7862" data-name="Group 7862" transform="translate(57.503 30.535)">
        <g id="Group_7853" data-name="Group 7853" transform="translate(80.067)">
          <rect id="Rectangle_3932" data-name="Rectangle 3932" width="59.386" height="134.456" fill="#e4e4e4"/>
          <rect id="Rectangle_3933" data-name="Rectangle 3933" width="59.386" height="134.456" transform="translate(3.628)" fill="#f4f4f4"/>
          <rect id="Rectangle_3934" data-name="Rectangle 3934" width="46.36" height="122.347" transform="translate(10.141 6.054)" fill="#fff"/>
          <rect id="Rectangle_3935" data-name="Rectangle 3935" width="2.742" height="122.347" transform="translate(53.76 6.054)" fill="#e4e4e4"/>
          <rect id="Rectangle_3936" data-name="Rectangle 3936" width="53.998" height="8.128" transform="translate(6.322 92.069)" fill="#f4f4f4"/>
          <rect id="Rectangle_3937" data-name="Rectangle 3937" width="53.998" height="8.128" transform="translate(6.322 16.726)" fill="#f4f4f4"/>
        </g>
        <g id="Group_7858" data-name="Group 7858" transform="translate(160.133)">
          <rect id="Rectangle_3938" data-name="Rectangle 3938" width="59.386" height="134.456" fill="#e4e4e4"/>
          <rect id="Rectangle_3939" data-name="Rectangle 3939" width="59.386" height="134.456" transform="translate(3.628)" fill="#f4f4f4"/>
          <rect id="Rectangle_3940" data-name="Rectangle 3940" width="46.36" height="122.347" transform="translate(10.14 6.052)" fill="#fff"/>
          <rect id="Rectangle_3941" data-name="Rectangle 3941" width="2.742" height="122.347" transform="translate(53.758 6.052)" fill="#e4e4e4"/>
          <rect id="Rectangle_3942" data-name="Rectangle 3942" width="53.998" height="8.128" transform="translate(6.322 92.069)" fill="#f4f4f4"/>
          <rect id="Rectangle_3943" data-name="Rectangle 3943" width="53.998" height="8.128" transform="translate(6.322 16.726)" fill="#f4f4f4"/>
        </g>
        <g id="Group_7859" data-name="Group 7859">
          <rect id="Rectangle_3944" data-name="Rectangle 3944" width="59.386" height="134.456" fill="#e4e4e4"/>
          <rect id="Rectangle_3945" data-name="Rectangle 3945" width="59.386" height="134.456" transform="translate(3.629)" fill="#f4f4f4"/>
          <rect id="Rectangle_3946" data-name="Rectangle 3946" width="46.36" height="122.347" transform="translate(10.141 6.054)" fill="#fff"/>
          <rect id="Rectangle_3947" data-name="Rectangle 3947" width="2.742" height="122.347" transform="translate(53.76 6.054)" fill="#e4e4e4"/>
          <rect id="Rectangle_3948" data-name="Rectangle 3948" width="53.998" height="8.128" transform="translate(6.323 92.069)" fill="#f4f4f4"/>
          <rect id="Rectangle_3949" data-name="Rectangle 3949" width="53.998" height="8.128" transform="translate(6.323 16.726)" fill="#f4f4f4"/>
        </g>
      </g>
      <g id="Group_7865" data-name="Group 7865" transform="translate(53.674 147.047)">
        <g id="Group_7863" data-name="Group 7863" transform="translate(0 44.674)">
          <rect id="Rectangle_3950" data-name="Rectangle 3950" width="9.709" height="134.308" transform="translate(265.864)" fill="#e4e4e4"/>
          <rect id="Rectangle_3951" data-name="Rectangle 3951" width="5.72" height="134.308" transform="translate(272.453)" fill="#efefef"/>
          <rect id="Rectangle_3952" data-name="Rectangle 3952" width="137.894" height="10.073" transform="translate(142.05)" fill="#efefef"/>
          <rect id="Rectangle_3953" data-name="Rectangle 3953" width="9.709" height="134.308" transform="translate(1.736)" fill="#e4e4e4"/>
          <rect id="Rectangle_3954" data-name="Rectangle 3954" width="5.72" height="134.308" transform="translate(7.546)" fill="#efefef"/>
          <rect id="Rectangle_3955" data-name="Rectangle 3955" width="137.894" height="10.073" fill="#e4e4e4"/>
          <rect id="Rectangle_3956" data-name="Rectangle 3956" width="9.709" height="134.308" transform="translate(131.513)" fill="#e4e4e4"/>
          <rect id="Rectangle_3957" data-name="Rectangle 3957" width="5.72" height="134.308" transform="translate(138.102)" fill="#efefef"/>
        </g>
        <g id="Group_7864" data-name="Group 7864" transform="translate(116.515)">
          <path id="Path_12760" data-name="Path 12760" d="M223.508,211.493h72l5.654,42.331h-72Z" transform="translate(-223.508 -211.493)" fill="#e4e4e4"/>
          <path id="Path_12761" data-name="Path 12761" d="M227.013,237.736l.29,2.341h72l-.29-2.341Z" transform="translate(-221.359 -195.405)" fill="#e4e4e4"/>
          <path id="Path_12762" data-name="Path 12762" d="M224.882,211.493h72l5.654,42.331h-72Z" transform="translate(-222.666 -211.493)" fill="#efefef"/>
          <path id="Path_12763" data-name="Path 12763" d="M231.419,251.155l-5.138-38.463h68l5.139,38.463Z" transform="translate(-221.808 -210.758)" fill="#fff"/>
          <path id="Path_12764" data-name="Path 12764" d="M240.018,237.736l.29,2.341H319.6l-.29-2.341Z" transform="translate(-213.387 -195.405)" fill="#efefef"/>
        </g>
      </g>
      <g id="Group_7868" data-name="Group 7868" transform="translate(216.079 155.37)">
        <path id="Path_12765" data-name="Path 12765" d="M362.8,216.655H327.154a24.765,24.765,0,0,0-24.825,21.534l-5.212,39.149-19.357-.065h-.06a16.822,16.822,0,0,0-17.211,15.548l-1.14,13.4a8.636,8.636,0,0,0-7.376,7.436h95.62a24.739,24.739,0,0,0,24.8-21.513l7.493-56.218A17.29,17.29,0,0,0,362.8,216.655Zm-84.04,89.467h-14.3l1.073-12.357a12.435,12.435,0,0,1,12.7-11.477h.05l18.16.058-1.271,9.538a16.371,16.371,0,0,1-16.413,14.238Z" transform="translate(-251.973 -216.653)" fill="#dedede"/>
        <g id="Group_7866" data-name="Group 7866" transform="translate(5.502 97.01)">
          <path id="Path_12766" data-name="Path 12766" d="M271.971,276.794h-4.962l-11.625,73.65h4.962Z" transform="translate(-255.384 -276.794)" fill="#efefef"/>
          <path id="Path_12767" data-name="Path 12767" d="M283.513,276.794h-4.962l-11.627,73.65h4.962Z" transform="translate(-248.309 -276.794)" fill="#efefef"/>
        </g>
        <g id="Group_7867" data-name="Group 7867" transform="translate(65.775 97.01)">
          <path id="Path_12768" data-name="Path 12768" d="M304.292,276.794h4.962l11.625,73.65h-4.96Z" transform="translate(-285.674 -276.794)" fill="#efefef"/>
          <path id="Path_12769" data-name="Path 12769" d="M292.75,276.794h4.962l11.625,73.65h-4.962Z" transform="translate(-292.75 -276.794)" fill="#efefef"/>
        </g>
      </g>
      <g id="Group_7869" data-name="Group 7869" transform="translate(342.909 32.893)">
        <rect id="Rectangle_3958" data-name="Rectangle 3958" width="96.7" height="201.139" fill="#e4e4e4"/>
        <rect id="Rectangle_3959" data-name="Rectangle 3959" width="101.633" height="201.139" transform="translate(1.786)" fill="#efefef"/>
        <rect id="Rectangle_3960" data-name="Rectangle 3960" width="84.604" height="184.185" transform="translate(10.299 8.477)" fill="#f9f9f9"/>
        <path id="Path_12770" data-name="Path 12770" d="M355.589,330.163l10.485-184.184h14.14L369.729,330.163Z" transform="translate(-315.3 -137.502)" fill="#fff"/>
        <path id="Path_12771" data-name="Path 12771" d="M366.013,330.163,376.5,145.979h14.14L380.153,330.163Z" transform="translate(-308.91 -137.502)" fill="#fff"/>
      </g>
    </g>
    <ellipse id="Shadow" cx="193.884" cy="11.275" rx="193.884" ry="11.275" transform="translate(174.116 467.782)" fill="#f4f4f4"/>
    <g id="People" transform="translate(343.276 163.063)">
      <path id="Path_12772" data-name="Path 12772" d="M273.194,170.457l-15.508,225.5H446.82l17.132-249.136H298.562Z" transform="translate(-257.686 -146.823)" fill="#f3f3f3"/>
      <g id="Group_7924" data-name="Group 7924" transform="translate(109.042 11.072)">
        <ellipse id="Ellipse_48" data-name="Ellipse 48" cx="32.008" cy="29.881" rx="32.008" ry="29.881" transform="translate(0 42.968) rotate(-42.162)" fill="#d72027"/>
        <ellipse id="Ellipse_49" data-name="Ellipse 49" cx="30.333" cy="28.319" rx="30.333" ry="28.319" transform="translate(2.305 43.002) rotate(-42.175)" fill="#fff"/>
        <g id="Group_7925" data-name="Group 7925" transform="translate(2.305 2.271)" clip-path="url(#clip-path)">
          <path id="Path_12774" data-name="Path 12774" d="M355.482,187.188l-5.784-.379s-2.689,13.78-4.415,14.971c-2.347,1.613-7,5.541-10.083,6.962a5.52,5.52,0,0,0-.2,2.9c4.8.026,13.68-4.755,15.217-6.826C353.725,200.094,355.482,187.188,355.482,187.188Z" transform="translate(-321.701 -135.652)" fill="#eec1bb"/>
          <path id="Path_12775" data-name="Path 12775" d="M353.59,182.392c1.75,3.244-3.7,14.972-3.7,14.972L342.47,195a31.071,31.071,0,0,1,2.466-10.438C346.779,180.755,351.67,178.822,353.59,182.392Z" transform="translate(-317.056 -139.517)" fill="#d72027"/>
          <path id="Path_12776" data-name="Path 12776" d="M347.065,185.375c1.028,2.344-.311,8.02-1.342,11.614C343.213,192.708,342.868,188.727,347.065,185.375Z" transform="translate(-316.201 -136.531)" opacity="0.2"/>
          <path id="Path_12777" data-name="Path 12777" d="M346.68,183.3c-1.14,4.152-3.375,15.055-1.545,32.169h19.534c.45-3.258-.121-19.15,4.468-34.5a53.448,53.448,0,0,0-7.052-.9,78.609,78.609,0,0,0-9.06,0,22.133,22.133,0,0,0-3.808.7,3.64,3.64,0,0,0-2.537,2.531Z" transform="translate(-315.849 -139.86)" fill="#d72027"/>
          <path id="Path_12778" data-name="Path 12778" d="M356.771,183.818c-.59,2.526-.355,8.572,1.41,15.555a104.243,104.243,0,0,1,3.136-17.818v-.029C359.93,181.382,357.333,181.45,356.771,183.818Z" transform="translate(-308.467 -138.918)" opacity="0.2"/>
          <path id="Path_12779" data-name="Path 12779" d="M358.717,174.794c-.844,2.9-1.463,6.5.4,8.438,0,0-1.452,2.944-6.863,2.944-4.95,0-2.2-2.944-2.2-2.944,3.323-.773,3.528-4.776,3.171-7.031Z" transform="translate(-312.877 -143.018)" fill="#eec1bb"/>
          <path id="Path_12780" data-name="Path 12780" d="M351.124,183.415a5.372,5.372,0,0,1,.779,2.787s7.007-2.382,7.017-5.873c0,0-.91-.569-1.479-1.032C357.441,179.3,356.966,182.017,351.124,183.415Z" transform="translate(-311.751 -140.257)" fill="#fff"/>
          <path id="Path_12781" data-name="Path 12781" d="M352.254,183.176a7.225,7.225,0,0,0-1.378,2.581,4.867,4.867,0,0,1-1.636-5.521,12.6,12.6,0,0,1,1.789-.55S350.188,182.429,352.254,183.176Z" transform="translate(-313.082 -140.02)" fill="#fff"/>
          <path id="Path_12782" data-name="Path 12782" d="M351.9,176.2a8.761,8.761,0,0,1-.466,4.766,5.675,5.675,0,0,0,1.494-.445A8.669,8.669,0,0,0,357,176.3c.119-.515.253-1.019.4-1.507Z" transform="translate(-311.56 -143.018)" opacity="0.2"/>
          <g id="Group_7872" data-name="Group 7872" transform="translate(35.528 28.064)">
            <path id="Path_12783" data-name="Path 12783" d="M348.836,174.926a3.306,3.306,0,0,0,1.834,2.031c1.171.5,2.024-.561,1.923-1.792-.092-1.107-.807-2.7-2.1-2.671a1.846,1.846,0,0,0-1.753,1.936,1.867,1.867,0,0,0,.1.5Z" transform="translate(-348.741 -172.493)" fill="#eec1bb"/>
            <path id="Path_12784" data-name="Path 12784" d="M348.836,174.926a3.306,3.306,0,0,0,1.834,2.031c1.171.5,2.024-.561,1.923-1.792-.092-1.107-.807-2.7-2.1-2.671a1.846,1.846,0,0,0-1.753,1.936,1.867,1.867,0,0,0,.1.5Z" transform="translate(-348.741 -172.493)" opacity="0.2"/>
          </g>
          <path id="Path_12785" data-name="Path 12785" d="M353.239,169.223c-.377-2.3-3.784,1.737-3.065,3.871S353.664,171.808,353.239,169.223Z" transform="translate(-312.395 -146.855)" fill="#2e353a"/>
          <path id="Path_12786" data-name="Path 12786" d="M361.151,175.126c-1.253,3.85-1.8,6.151-4.244,7.812a4.872,4.872,0,0,1-7.818-4.147c.1-3.639,2.129-9.325,6.268-10.223a4.918,4.918,0,0,1,5.794,6.559Z" transform="translate(-313.004 -146.929)" fill="#eec1bb"/>
          <path id="Path_12787" data-name="Path 12787" d="M359.106,173.9c-4.223-.6-10.28-1.368-8.085-4.8,2.1-3.278,10.432-2.681,7.9-1.229,3.279.186,7.435,1.75,4.294,2.829,2.532,1.787,1.529,6.591-3.3,8.267C358.523,176.95,357.424,176.057,359.106,173.9Z" transform="translate(-312.099 -147.98)" fill="#2e353a"/>
          <path id="Path_12788" data-name="Path 12788" d="M358.431,176.512a4.126,4.126,0,0,1-2.691,1.242c-1.316.063-1.566-1.186-.857-2.276.645-.979,2.1-2.194,3.247-1.74a1.64,1.64,0,0,1,.773,2.187A1.657,1.657,0,0,1,358.431,176.512Z" transform="translate(-309.685 -143.726)" fill="#eec1bb"/>
          <path id="Path_12789" data-name="Path 12789" d="M353.091,172.871c-.084.323-.323.545-.518.51s-.3-.323-.218-.645.315-.545.518-.51S353.176,172.553,353.091,172.871Z" transform="translate(-311.015 -144.595)" fill="#2e353a"/>
          <path id="Path_12790" data-name="Path 12790" d="M350.916,172.491c-.084.323-.323.545-.518.51s-.3-.323-.218-.645.314-.545.518-.51S351,172.174,350.916,172.491Z" transform="translate(-312.347 -144.827)" fill="#2e353a"/>
          <path id="Path_12791" data-name="Path 12791" d="M352.125,172.463a13.135,13.135,0,0,1-2.192,2.45,1.7,1.7,0,0,0,1.408.544Z" transform="translate(-312.481 -144.446)" fill="#d4827d"/>
          <path id="Path_12792" data-name="Path 12792" d="M351.252,175.281a.086.086,0,0,1-.069-.1v-.011a.1.1,0,0,1,.115-.077,2.748,2.748,0,0,0,2.258-.632.09.09,0,1,1,.135.119l-.01.01a2.906,2.906,0,0,1-2.429.691Z" transform="translate(-311.716 -143.239)" fill="#2e353a"/>
          <path id="Path_12793" data-name="Path 12793" d="M354.134,172.513a.17.17,0,0,1-.127-.1,1.325,1.325,0,0,0-1-.826.172.172,0,0,1-.153-.187v-.019a.21.21,0,0,1,.221-.161,1.656,1.656,0,0,1,1.29,1.027.206.206,0,0,1-.1.255A.211.211,0,0,1,354.134,172.513Z" transform="translate(-310.695 -145.208)" fill="#2e353a"/>
          <path id="Path_12794" data-name="Path 12794" d="M349.9,171.677a.174.174,0,0,1-.073-.037.187.187,0,0,1,0-.265h0a2.013,2.013,0,0,1,1.623-.721.167.167,0,0,1,.152.184v.024a.213.213,0,0,1-.221.161h0a1.609,1.609,0,0,0-1.282.584.2.2,0,0,1-.2.07Z" transform="translate(-312.578 -145.558)" fill="#2e353a"/>
          <path id="Path_12795" data-name="Path 12795" d="M363.158,183.886l-5.3,2.791s5.113,12.551,4.241,14.435c-1.186,2.562-3.155,8.217-5.094,11.012a5.034,5.034,0,0,0,1.4,2.445c4.241-2.552,9.457-11.161,9.678-13.653C368.61,195.232,363.158,183.886,363.158,183.886Z" transform="translate(-308.145 -137.444)" fill="#eec1bb"/>
          <path id="Path_12796" data-name="Path 12796" d="M362.1,180.62c3.7.645,6.415,13.771,6.415,13.771l-9.12,2.6a66.91,66.91,0,0,1-3.2-9.294C354.978,182.835,358.133,179.92,362.1,180.62Z" transform="translate(-308.808 -139.509)" fill="#d72027"/>
          <path id="Path_12797" data-name="Path 12797" d="M359.623,201.206l-3.768-.274,1.628,4.163s3.313.129,4.092-2.4Z" transform="translate(-308.851 -126.994)" fill="#eec1bb"/>
          <path id="Path_12798" data-name="Path 12798" d="M353.838,202.848l1.668,3.681,3.212-1.434-1.628-4.163Z" transform="translate(-310.088 -126.994)" fill="#eec1bb"/>
        </g>
      </g>
      <g id="Group_7923" data-name="Group 7923" transform="translate(98.973 157.459)">
        <ellipse id="Ellipse_51" data-name="Ellipse 51" cx="32.019" cy="29.891" rx="32.019" ry="29.891" transform="translate(0 42.996) rotate(-42.176)" fill="#d72027"/>
        <ellipse id="Ellipse_52" data-name="Ellipse 52" cx="30.323" cy="28.309" rx="30.323" ry="28.309" transform="translate(2.305 43.03) rotate(-42.162)" fill="#fff"/>
        <g id="Group_7928" data-name="Group 7928" transform="translate(2.305 2.324)">
          <g id="Group_7927" data-name="Group 7927" clip-path="url(#clip-path-2)">
            <g id="Group_7882" data-name="Group 7882" transform="translate(5.802 19.063)">
              <path id="Path_12799" data-name="Path 12799" d="M349.542,278.642l-5.421-1.758s-5.912,12.958-7.846,13.721c-2.634,1.036-8.028,3.791-11.312,4.457a5.76,5.76,0,0,0-.892,2.818c4.578,1.176,14.208-1.418,16.177-3.1C344.731,290.963,349.542,278.642,349.542,278.642Z" transform="translate(-324.07 -245.936)" fill="#ebb376"/>
              <g id="Group_7877" data-name="Group 7877" transform="translate(16.529 22.108)">
                <path id="Path_12800" data-name="Path 12800" d="M347.991,274.106c.882,3.621-7.164,13.893-7.164,13.893l-6.51-4.107a32.373,32.373,0,0,1,4.894-9.7C341.887,270.872,347.033,270.13,347.991,274.106Z" transform="translate(-334.317 -271.404)" fill="#d72027"/>
                <path id="Path_12801" data-name="Path 12801" d="M347.991,274.106c.882,3.621-7.164,13.893-7.164,13.893l-6.51-4.107a32.373,32.373,0,0,1,4.894-9.7C341.887,270.872,347.033,270.13,347.991,274.106Z" transform="translate(-334.317 -271.404)" fill="#d72027"/>
              </g>
              <path id="Path_12802" data-name="Path 12802" d="M340.808,275.874a16.667,16.667,0,0,1-1.555,9.93C337.83,283.671,336.154,278.523,340.808,275.874Z" transform="translate(-315.683 -246.555)" opacity="0.2"/>
              <g id="Group_7878" data-name="Group 7878" transform="translate(22.79 20.993)">
                <path id="Path_12803" data-name="Path 12803" d="M340.438,274.07c-1.14,4.152-3.373,15.055-1.545,32.169h19.534c.452-3.257-.121-19.15,4.468-34.5a53.973,53.973,0,0,0-7.051-.9,78.657,78.657,0,0,0-9.062,0,22.3,22.3,0,0,0-3.808.7,3.635,3.635,0,0,0-2.536,2.531Z" transform="translate(-338.199 -270.712)" fill="#047aba"/>
                <path id="Path_12804" data-name="Path 12804" d="M340.438,274.07c-1.14,4.152-3.373,15.055-1.545,32.169h19.534c.452-3.257-.121-19.15,4.468-34.5a53.973,53.973,0,0,0-7.051-.9,78.657,78.657,0,0,0-9.062,0,22.3,22.3,0,0,0-3.808.7,3.635,3.635,0,0,0-2.536,2.531Z" transform="translate(-338.199 -270.712)" fill="#d72027"/>
              </g>
              <path id="Path_12805" data-name="Path 12805" d="M350.648,277.839c-.59,2.526-1.11,8.527,1.342,12.29a103.984,103.984,0,0,1,3.137-17.818v-.035C353.738,272.138,351.209,275.469,350.648,277.839Z" transform="translate(-308.078 -248.764)" opacity="0.2"/>
              <g id="Group_7879" data-name="Group 7879" transform="translate(28.995 20.991)" opacity="0.95">
                <path id="Path_12806" data-name="Path 12806" d="M346.373,278.66l-1.073.469-.818-.74a6.673,6.673,0,0,1-2.1-7.259c.632-.121,1.318-.224,2.036-.289a78.623,78.623,0,0,1,9.062,0c.7.034,1.4.09,2.074.161l-.681.874A25.161,25.161,0,0,1,346.373,278.66Z" transform="translate(-342.045 -270.711)" fill="#fff"/>
              </g>
              <path id="Path_12807" data-name="Path 12807" d="M352.408,265.562c-.844,2.9-1.463,6.5.4,8.438a23.262,23.262,0,0,1-7.743,6.189A4.889,4.889,0,0,1,343.742,274c3.323-.773,3.528-4.776,3.171-7.031Z" transform="translate(-312.369 -252.877)" fill="#ebb376"/>
              <path id="Path_12808" data-name="Path 12808" d="M345.663,266.971a8.769,8.769,0,0,1-.468,4.765,5.612,5.612,0,0,0,1.494-.444,8.675,8.675,0,0,0,4.073-4.225c.118-.515.252-1.018.4-1.505Z" transform="translate(-311.12 -252.876)" opacity="0.2"/>
              <g id="Group_7880" data-name="Group 7880" transform="translate(29.718 8.981)">
                <path id="Path_12809" data-name="Path 12809" d="M342.589,265.7a3.291,3.291,0,0,0,1.836,2.031c1.169.5,2.023-.561,1.921-1.79-.092-1.108-.807-2.7-2.1-2.673a1.848,1.848,0,0,0-1.66,2.433Z" transform="translate(-342.494 -263.266)" fill="#ebb376"/>
                <path id="Path_12810" data-name="Path 12810" d="M342.589,265.7a3.291,3.291,0,0,0,1.836,2.031c1.169.5,2.023-.561,1.921-1.79-.092-1.108-.807-2.7-2.1-2.673a1.848,1.848,0,0,0-1.66,2.433Z" transform="translate(-342.494 -263.266)" opacity="0.2"/>
              </g>
              <path id="Path_12811" data-name="Path 12811" d="M346.813,260.932c-.382-2.6-3.287.382-3.612,2.283s1.271,3.826,2.353,1.936A5.981,5.981,0,0,0,346.813,260.932Z" transform="translate(-312.368 -256.338)" fill="#2e353a"/>
              <path id="Path_12812" data-name="Path 12812" d="M354.909,265.893c-1.253,3.85-1.8,6.151-4.244,7.812a4.869,4.869,0,0,1-7.817-4.147c.1-3.639,2.128-9.325,6.267-10.222a4.917,4.917,0,0,1,5.794,6.557Z" transform="translate(-312.563 -256.787)" fill="#ebb376"/>
              <path id="Path_12813" data-name="Path 12813" d="M352.281,270.836c-1.5-1.021-1.774-1.376-.968-2.271,1.29-1.452-.634-1.658.387-3.463,1.42-2.507-3.107-.744-3.189-2.568-.066-1.481-4.033,1.184-4.415-.523-.584-2.568,3.191-2.1,3.858-3.35s4.538-1.44,5.162.384,2.566.373,3.834,2.607-1.36,2.394-.09,4.568c1.016,1.737-.931,2.944-2.294,4.368C353.71,271.483,353.208,271.469,352.281,270.836Z" transform="translate(-311.831 -257.698)" fill="#2e353a"/>
              <path id="Path_12814" data-name="Path 12814" d="M352.343,266.92a4.154,4.154,0,0,1-2.581,1.463c-1.315.177-1.674-1.039-1.06-2.178.553-1.028,1.9-2.355,3.1-2.007a1.622,1.622,0,0,1,.539,2.721Z" transform="translate(-309.148 -253.747)" fill="#ebb376"/>
              <path id="Path_12815" data-name="Path 12815" d="M346.85,263.635c-.084.323-.323.545-.518.51s-.3-.323-.218-.637.323-.545.518-.51S346.933,263.319,346.85,263.635Z" transform="translate(-310.573 -254.45)" fill="#2e353a"/>
              <path id="Path_12816" data-name="Path 12816" d="M344.674,263.26c-.082.323-.323.545-.518.51s-.3-.323-.218-.645.315-.545.518-.51S344.757,262.942,344.674,263.26Z" transform="translate(-311.907 -254.686)" fill="#2e353a"/>
              <path id="Path_12817" data-name="Path 12817" d="M345.883,263.231a13.151,13.151,0,0,1-2.192,2.452,1.7,1.7,0,0,0,1.408.542Z" transform="translate(-312.042 -254.306)" fill="#d58745"/>
              <path id="Path_12818" data-name="Path 12818" d="M345.01,266.047a.084.084,0,0,1-.069-.1v-.011a.1.1,0,0,1,.115-.077,2.738,2.738,0,0,0,2.258-.631.1.1,0,0,1,.132,0,.094.094,0,0,1,0,.134A2.9,2.9,0,0,1,345.01,266.047Z" transform="translate(-311.276 -253.096)" fill="#2e353a"/>
              <path id="Path_12819" data-name="Path 12819" d="M347.888,263.281a.159.159,0,0,1-.126-.1,1.322,1.322,0,0,0-1.007-.824.171.171,0,0,1-.152-.189v-.019a.209.209,0,0,1,.221-.161,1.654,1.654,0,0,1,1.282,1.026.2.2,0,0,1-.1.255.179.179,0,0,1-.118.012Z" transform="translate(-310.256 -255.067)" fill="#2e353a"/>
              <path id="Path_12820" data-name="Path 12820" d="M343.662,262.445a.156.156,0,0,1-.073-.037.187.187,0,0,1,0-.265h0a2.03,2.03,0,0,1,1.623-.721.162.162,0,0,1,.155.168.171.171,0,0,1-.007.04.21.21,0,0,1-.221.161h0a1.618,1.618,0,0,0-1.29.584.194.194,0,0,1-.187.07Z" transform="translate(-312.138 -255.416)" fill="#2e353a"/>
              <path id="Path_12821" data-name="Path 12821" d="M358.52,274.931l-5.568,2.115s3.4,13.212,2.3,14.984c-1.5,2.42-4.168,7.817-6.438,10.367a5.083,5.083,0,0,0,1.061,2.624c4.5-2.008,10.743-9.954,11.291-12.42C362.413,286.982,358.52,274.931,358.52,274.931Z" transform="translate(-308.903 -247.133)" fill="#ebb376"/>
              <g id="Group_7881" data-name="Group 7881" transform="translate(41.834 21.943)">
                <path id="Path_12822" data-name="Path 12822" d="M356.785,271.6c3.549,1.129,4.517,14.6,4.517,14.6l-9.3,1.432a67.855,67.855,0,0,1-1.936-9.709C349.5,272.906,352.981,270.393,356.785,271.6Z" transform="translate(-350.005 -271.301)" fill="#d72027"/>
                <path id="Path_12823" data-name="Path 12823" d="M356.785,271.6c3.549,1.129,4.517,14.6,4.517,14.6l-9.3,1.432a67.855,67.855,0,0,1-1.936-9.709C349.5,272.906,352.981,270.393,356.785,271.6Z" transform="translate(-350.005 -271.301)" fill="#d72027"/>
              </g>
              <path id="Path_12824" data-name="Path 12824" d="M351.406,292.107l-3.668-.757,1.058,4.375s3.241.555,4.334-1.878Z" transform="translate(-309.561 -237.068)" fill="#ebb376"/>
              <path id="Path_12825" data-name="Path 12825" d="M345.6,292.851l1.161,3.9,3.344-1.024-1.06-4.375Z" transform="translate(-310.871 -237.067)" fill="#ebb376"/>
            </g>
          </g>
        </g>
      </g>
      <g id="Group_7922" data-name="Group 7922" transform="translate(11.529 84.28)">
        <ellipse id="Ellipse_54" data-name="Ellipse 54" cx="32.008" cy="29.881" rx="32.008" ry="29.881" transform="translate(0 42.968) rotate(-42.162)" fill="#047aba"/>
        <ellipse id="Ellipse_55" data-name="Ellipse 55" cx="30.333" cy="28.319" rx="30.333" ry="28.319" transform="translate(2.305 43.002) rotate(-42.175)" fill="#fff"/>
        <g id="Group_7929" data-name="Group 7929" transform="translate(2.305 2.271)" clip-path="url(#clip-path)">
          <g id="Group_7894" data-name="Group 7894" transform="translate(23.507 18.009)">
            <g id="Group_7893" data-name="Group 7893">
              <g id="Group_7892" data-name="Group 7892">
                <path id="Path_12826" data-name="Path 12826" d="M301.346,230.387c.161,2.374.273,4.759.368,7.138l.289,7.109.047.866.071.761c.077.523.139,1.06.249,1.613.208,1.1.484,2.211.807,3.326.6,2.239,1.329,4.5,2.044,6.738l-2.073.968a53.518,53.518,0,0,1-3.308-6.555c-.461-1.145-.892-2.313-1.265-3.534a18.465,18.465,0,0,1-.484-1.9l-.161-1.015-.108-.919c-.524-4.817-.873-9.562-1.068-14.356Z" transform="translate(-271.077 -200.153)" fill="#e4897b"/>
                <path id="Path_12827" data-name="Path 12827" d="M301.247,227.294c1.828.471,2.605,8.091,2.605,8.091l-7.444,4.817s-2.3-9.033-.736-11.069A4.4,4.4,0,0,1,301.247,227.294Z" transform="translate(-272.075 -202.275)" fill="#047aba"/>
                <path id="Path_12828" data-name="Path 12828" d="M299.548,228.209l.9,7.681-3.015,1.945Z" transform="translate(-270.66 -201.488)" opacity="0.2"/>
                <path id="Path_12829" data-name="Path 12829" d="M302.914,247.206l2.055,4.229-3.949.106s-1.148-3.008.076-4.505Z" transform="translate(-268.76 -189.946)" fill="#ebb376"/>
                <path id="Path_12830" data-name="Path 12830" d="M288.177,217.016c-3.123.447-9.678,15.34,1.01,22.291s18.565-.944,18.565-.944-6.5-7.694-5.559-12.709,5-11.341-3.323-13.453C293,210.717,285.121,212.157,288.177,217.016Z" transform="translate(-279.317 -211.644)" fill="#2e353a"/>
                <g id="Group_7886" data-name="Group 7886" transform="translate(32.261 61.49)">
                  <path id="Path_12831" data-name="Path 12831" d="M304.913,251.856l-3.349-.277-.729-1.708,3.947-.106Z" transform="translate(-300.835 -249.764)" fill="#ebb376"/>
                </g>
                <path id="Path_12832" data-name="Path 12832" d="M307.937,227.648s2.1.753-4.021,27.118H285.587c.818-7.42,1.142-12.008-1.376-27.249a55.954,55.954,0,0,1,7.854-1.021,58.744,58.744,0,0,1,8.323,0C303.94,226.822,307.937,227.648,307.937,227.648Z" transform="translate(-278.765 -202.629)" fill="#047aba"/>
                <path id="Path_12833" data-name="Path 12833" d="M284.935,230.814c1.631.411,3.041,2.215,2.629,5.536a8.55,8.55,0,0,1-1.816,4.181c-.118-2.555-.406-5.521-.926-9.317Z" transform="translate(-278.391 -199.892)" opacity="0.2"/>
                <path id="Path_12834" data-name="Path 12834" d="M296.77,232.344s-3.176,2.462-3.355,5.081c-2.371-1.821-5.394-6.775-5.529-9.946a1.039,1.039,0,0,1,.979-1.037,4.517,4.517,0,0,0,.673-.085.623.623,0,0,1,.529.134Z" transform="translate(-276.513 -202.632)" fill="#f9f9f9"/>
                <path id="Path_12835" data-name="Path 12835" d="M293.393,232.366a6.164,6.164,0,0,1,2.9,4.884c2.655-1.845,1.745-7.349.523-10.041a1.337,1.337,0,0,0-1.073-.769c-.366-.044-.645-.092-.829-.129a.27.27,0,0,0-.311.211Z" transform="translate(-273.136 -202.655)" fill="#f9f9f9"/>
                <path id="Path_12836" data-name="Path 12836" d="M290.546,220.656c.342,2.666.531,7.551-1.466,9.33a21.255,21.255,0,0,0,6.957,5.844c3.915-2.953,1.366-5.844,1.366-5.844-2.937-.71-2.708-2.915-2.045-4.988Z" transform="translate(-275.78 -206.119)" fill="#e4897b"/>
                <path id="Path_12837" data-name="Path 12837" d="M291.4,221.754l2.847,2.57a9.092,9.092,0,0,0-.358,1.471c-1.129-.161-2.857-1.129-3.016-2.368A3.733,3.733,0,0,1,291.4,221.754Z" transform="translate(-274.681 -205.446)" opacity="0.2"/>
                <path id="Path_12838" data-name="Path 12838" d="M287.435,220.974c.944,4.286,1.25,6.13,3.833,7.868a6.032,6.032,0,0,0,9.456-4.4c.348-4.112-1.253-10.428-5.857-11.212a6.548,6.548,0,0,0-7.431,7.743Z" transform="translate(-276.865 -210.719)" fill="#e4897b"/>
                <path id="Path_12839" data-name="Path 12839" d="M289.582,225.249c2.774-2.631,2.873-5.883,2.17-6.9,2.382-.2,8.549-1.689,7.554-3.971s-10.578-3.524-11.9,2.332C284.228,219.34,286.258,224.654,289.582,225.249Z" transform="translate(-277.783 -211.133)" fill="#2e353a"/>
                <path id="Path_12840" data-name="Path 12840" d="M291.883,218.042c.055.353.29.6.526.548s.384-.381.323-.734-.29-.6-.526-.548S291.829,217.689,291.883,218.042Z" transform="translate(-274.069 -208.175)" fill="#2e353a"/>
                <path id="Path_12841" data-name="Path 12841" d="M294.412,217.492c.055.353.29.6.526.548s.382-.381.323-.734-.29-.6-.527-.548S294.357,217.138,294.412,217.492Z" transform="translate(-272.519 -208.513)" fill="#2e353a"/>
                <path id="Path_12842" data-name="Path 12842" d="M294.548,216.945l.829-.432S295.034,217.273,294.548,216.945Z" transform="translate(-272.428 -208.659)" fill="#2e353a"/>
                <path id="Path_12843" data-name="Path 12843" d="M293.689,217.774a8.716,8.716,0,0,0,1.634,1.978,1.663,1.663,0,0,1-1.249.518Z" transform="translate(-272.955 -207.886)" fill="#de5753"/>
                <path id="Path_12844" data-name="Path 12844" d="M293.672,220.79a3.554,3.554,0,0,0,.537-.076.116.116,0,0,0,.09-.127.1.1,0,0,0-.111-.082h-.011a2.748,2.748,0,0,1-2.5-.587.11.11,0,0,0-.188.078.11.11,0,0,0,.032.078,2.8,2.8,0,0,0,2.151.716Z" transform="translate(-274.305 -206.592)" fill="#2e353a"/>
                <path id="Path_12845" data-name="Path 12845" d="M287.119,221.545a3,3,0,0,0,1.994,1.369c1.115.206,1.647-.824,1.316-1.831-.3-.907-1.237-2.1-2.345-1.857a1.533,1.533,0,0,0-.965,2.318Z" transform="translate(-277.128 -207.015)" fill="#e4897b"/>
                <path id="Path_12846" data-name="Path 12846" d="M290.779,218.077a.233.233,0,0,0,.194-.173,2.776,2.776,0,0,1,1.442-1.518.223.223,0,0,0,.123-.282.2.2,0,0,0-.263-.108h-.013a3.214,3.214,0,0,0-1.7,1.828.2.2,0,0,0,.137.242h.024A.158.158,0,0,0,290.779,218.077Z" transform="translate(-274.88 -208.985)" fill="#2e353a"/>
                <path id="Path_12847" data-name="Path 12847" d="M295.744,215.745a.227.227,0,0,0,.2-.1.2.2,0,0,0-.034-.289l-.006-.006a2.1,2.1,0,0,0-1.918-.248.226.226,0,0,0-.131.279.206.206,0,0,0,.266.116h.008a1.678,1.678,0,0,1,1.515.215.2.2,0,0,0,.1.033Z" transform="translate(-272.863 -209.599)" fill="#2e353a"/>
                <path id="Path_12848" data-name="Path 12848" d="M292.02,217.5l.829-.434S292.507,217.824,292.02,217.5Z" transform="translate(-273.978 -208.321)" fill="#2e353a"/>
                <g id="Group_7887" data-name="Group 7887" transform="translate(6.02 50.928)">
                  <path id="Path_12849" data-name="Path 12849" d="M285.169,243.354l-.582,1.632c-.073.127.069.256.282.256h18.863c.161,0,.308-.081.323-.184l.277-1.634c.019-.113-.118-.208-.3-.208H285.477A.36.36,0,0,0,285.169,243.354Z" transform="translate(-284.567 -243.216)" fill="#047aba"/>
                  <path id="Path_12850" data-name="Path 12850" d="M285.169,243.354l-.582,1.632c-.073.127.069.256.282.256h18.863c.161,0,.308-.081.323-.184l.277-1.634c.019-.113-.118-.208-.3-.208H285.477A.36.36,0,0,0,285.169,243.354Z" transform="translate(-284.567 -243.216)" fill="#fff" opacity="0.2"/>
                </g>
                <g id="Group_7891" data-name="Group 7891" transform="translate(8.374 50.784)">
                  <g id="Group_7888" data-name="Group 7888">
                    <path id="Path_12851" data-name="Path 12851" d="M286.685,245.476h-.5c-.1,0-.171-.052-.161-.113l.379-2.123c.011-.063.1-.113.2-.113h.5c.1,0,.171.05.161.113l-.379,2.123C286.874,245.424,286.79,245.476,286.685,245.476Z" transform="translate(-286.026 -243.127)" fill="#047aba"/>
                    <path id="Path_12852" data-name="Path 12852" d="M286.685,245.476h-.5c-.1,0-.171-.052-.161-.113l.379-2.123c.011-.063.1-.113.2-.113h.5c.1,0,.171.05.161.113l-.379,2.123C286.874,245.424,286.79,245.476,286.685,245.476Z" transform="translate(-286.026 -243.127)" opacity="0.4"/>
                  </g>
                  <g id="Group_7889" data-name="Group 7889" transform="translate(14.743)">
                    <path id="Path_12853" data-name="Path 12853" d="M295.826,245.476h-.5c-.1,0-.171-.052-.161-.113l.381-2.123c.01-.063.1-.113.2-.113h.5c.1,0,.171.05.161.113l-.379,2.123A.2.2,0,0,1,295.826,245.476Z" transform="translate(-295.166 -243.127)" fill="#047aba"/>
                    <path id="Path_12854" data-name="Path 12854" d="M295.826,245.476h-.5c-.1,0-.171-.052-.161-.113l.381-2.123c.01-.063.1-.113.2-.113h.5c.1,0,.171.05.161.113l-.379,2.123A.2.2,0,0,1,295.826,245.476Z" transform="translate(-295.166 -243.127)" opacity="0.4"/>
                  </g>
                  <g id="Group_7890" data-name="Group 7890" transform="translate(7.402)">
                    <path id="Path_12855" data-name="Path 12855" d="M291.274,245.476h-.5c-.1,0-.171-.052-.161-.113L291,243.24c.01-.063.1-.113.2-.113h.5c.1,0,.171.05.161.113l-.379,2.123A.218.218,0,0,1,291.274,245.476Z" transform="translate(-290.615 -243.127)" fill="#047aba"/>
                    <path id="Path_12856" data-name="Path 12856" d="M291.274,245.476h-.5c-.1,0-.171-.052-.161-.113L291,243.24c.01-.063.1-.113.2-.113h.5c.1,0,.171.05.161.113l-.379,2.123A.218.218,0,0,1,291.274,245.476Z" transform="translate(-290.615 -243.127)" opacity="0.4"/>
                  </g>
                </g>
                <path id="Path_12857" data-name="Path 12857" d="M292.112,246.976,296.7,245l-1.571,4.392s-2.87.645-4-.773Z" transform="translate(-274.526 -191.198)" fill="#ebb376"/>
                <path id="Path_12858" data-name="Path 12858" d="M288.316,231.159c-.513,3.041-1.1,6.068-1.707,9.093-.287,1.515-.621,3.021-.937,4.529l-.484,2.258-.207.979a.355.355,0,0,0,.01.224,2.871,2.871,0,0,0,.758,1.089,10.326,10.326,0,0,0,1.528,1.211A30,30,0,0,0,291.1,252.6c1.35.631,2.752,1.2,4.173,1.728s2.871,1.045,4.294,1.52l-.515,2.216a55.27,55.27,0,0,1-9.23-2.324,28.386,28.386,0,0,1-4.517-2,14.06,14.06,0,0,1-2.215-1.513,6.537,6.537,0,0,1-1.957-2.607,4.511,4.511,0,0,1-.284-2.045c.048-.427.073-.513.1-.728l.089-.571L281.4,244c.24-1.523.463-3.049.732-4.567.51-3.039,1.032-6.076,1.632-9.1Z" transform="translate(-280.835 -200.188)" fill="#e4897b"/>
                <path id="Path_12859" data-name="Path 12859" d="M285.928,227.112c-1.874.557-4.517,6.851-4.517,6.851l5.968,6.588s3.763-6.775,3.154-9.135C289.907,228.954,288.068,226.477,285.928,227.112Z" transform="translate(-280.482 -202.223)" fill="#047aba"/>
                <path id="Path_12860" data-name="Path 12860" d="M298.8,245.907l-1.511,3.62-3.679-.139L295.177,245Z" transform="translate(-273.006 -191.197)" fill="#ebb376"/>
              </g>
            </g>
          </g>
        </g>
      </g>
      <g id="Group_7921" data-name="Group 7921" transform="translate(29.718 36.049)">
        <path id="Path_12861" data-name="Path 12861" d="M278.414,180.773h71.663a2.678,2.678,0,0,0,2.634-2.455h0a2.268,2.268,0,0,0-2.074-2.447,2.059,2.059,0,0,0-.223-.006H278.751a2.674,2.674,0,0,0-2.633,2.453h0a2.258,2.258,0,0,0,2.052,2.447C278.251,180.771,278.333,180.774,278.414,180.773Z" transform="translate(-276.109 -165.069)" fill="#d72027" opacity="0.3"/>
        <path id="Path_12862" data-name="Path 12862" d="M290.69,187.466h51.119a2.675,2.675,0,0,0,2.632-2.458h0a2.257,2.257,0,0,0-2.053-2.445,2.021,2.021,0,0,0-.242-.008H291.029a2.676,2.676,0,0,0-2.634,2.453h0a2.256,2.256,0,0,0,2.049,2.449,2.1,2.1,0,0,0,.246.009Z" transform="translate(-268.584 -160.968)" fill="#d72027" opacity="0.3"/>
        <path id="Path_12863" data-name="Path 12863" d="M298.1,174.081h40.649a2.678,2.678,0,0,0,2.634-2.455h0a2.267,2.267,0,0,0-2.071-2.447,2.128,2.128,0,0,0-.226-.006H298.433a2.673,2.673,0,0,0-2.632,2.453h0a2.266,2.266,0,0,0,2.069,2.447C297.944,174.079,298.02,174.081,298.1,174.081Z" transform="translate(-264.043 -169.172)" fill="#fff"/>
      </g>
      <g id="Group_7900" data-name="Group 7900" transform="translate(21.944 187.86)">
        <path id="Path_12864" data-name="Path 12864" d="M298.274,276.674h28.99a2.27,2.27,0,0,1,2.3,2.234,2.033,2.033,0,0,1-.008.221h0a2.675,2.675,0,0,1-2.634,2.453h-28.99a2.258,2.258,0,0,1-2.3-2.211c0-.081,0-.161.008-.242h0a2.677,2.677,0,0,1,2.629-2.455Z" transform="translate(-256.367 -255.078)" fill="#d72027" opacity="0.3"/>
        <path id="Path_12865" data-name="Path 12865" d="M273.932,276.674h28.99a2.268,2.268,0,0,1,2.3,2.229,2.124,2.124,0,0,1-.008.226h0a2.673,2.673,0,0,1-2.632,2.453H273.6a2.269,2.269,0,0,1-2.3-2.231,2.088,2.088,0,0,1,.008-.223h0A2.678,2.678,0,0,1,273.932,276.674Z" transform="translate(-271.29 -255.078)" fill="#d72027" opacity="0.3"/>
        <path id="Path_12866" data-name="Path 12866" d="M285.018,269.974h51.114a2.267,2.267,0,0,1,2.3,2.228,2.143,2.143,0,0,1-.008.227h0a2.675,2.675,0,0,1-2.634,2.453H284.676a2.268,2.268,0,0,1-2.3-2.228,2.136,2.136,0,0,1,.008-.226h0A2.678,2.678,0,0,1,285.018,269.974Z" transform="translate(-264.497 -259.186)" fill="#d72027" opacity="0.3"/>
        <path id="Path_12867" data-name="Path 12867" d="M280.839,263.286h58.6a2.268,2.268,0,0,1,2.305,2.228,2.124,2.124,0,0,1-.008.226h0A2.676,2.676,0,0,1,339.1,268.2H280.5a2.268,2.268,0,0,1-2.3-2.231,2.1,2.1,0,0,1,.008-.224h0A2.677,2.677,0,0,1,280.839,263.286Z" transform="translate(-267.056 -263.286)" fill="#fff"/>
      </g>
      <path id="Path_12868" data-name="Path 12868" d="M376.633,231.286h-53.4a2.677,2.677,0,0,0-2.634,2.453h0a2.269,2.269,0,0,0,2.073,2.449,2.082,2.082,0,0,0,.224.006h53.4a2.675,2.675,0,0,0,2.634-2.455h0a2.266,2.266,0,0,0-2.071-2.445C376.783,231.288,376.709,231.286,376.633,231.286Z" transform="translate(-219.122 -95.043)" fill="#d72027" opacity="0.3"/>
      <path id="Path_12869" data-name="Path 12869" d="M348.892,224.594h-25.2a2.673,2.673,0,0,0-2.632,2.453h0a2.257,2.257,0,0,0,2.053,2.445,2.024,2.024,0,0,0,.242.008h25.2a2.675,2.675,0,0,0,2.634-2.453h0a2.266,2.266,0,0,0-2.071-2.445C349.04,224.6,348.966,224.594,348.892,224.594Z" transform="translate(-218.84 -99.146)" fill="#d72027" opacity="0.3"/>
      <path id="Path_12870" data-name="Path 12870" d="M363.366,217.9H324.154a2.678,2.678,0,0,0-2.634,2.455h0a2.257,2.257,0,0,0,2.053,2.445,2.018,2.018,0,0,0,.242.008h39.213a2.671,2.671,0,0,0,2.632-2.453h0a2.258,2.258,0,0,0-2.052-2.447C363.529,217.9,363.447,217.9,363.366,217.9Z" transform="translate(-218.558 -103.249)" fill="#fff"/>
      <path id="Path_12871" data-name="Path 12871" d="M381.73,224.594H345.92a2.677,2.677,0,0,0-2.634,2.453h0a2.267,2.267,0,0,0,2.071,2.447,2.124,2.124,0,0,0,.226.006h35.81a2.671,2.671,0,0,0,2.632-2.453h0a2.258,2.258,0,0,0-2.053-2.445C381.891,224.6,381.81,224.593,381.73,224.594Z" transform="translate(-205.214 -99.146)" fill="#d72027" opacity="0.3"/>
      <g id="Group_7901" data-name="Group 7901" transform="translate(15.508 0.008)">
        <path id="Path_12872" data-name="Path 12872" d="M267.3,170.454h26.777l-1.418-23.626Z" transform="translate(-267.3 -146.828)" fill="#d72027" opacity="0.3"/>
        <path id="Path_12873" data-name="Path 12873" d="M267.3,170.454l28.674-3.416-3.308-20.21Z" transform="translate(-267.3 -146.828)" fill="#d72027"/>
      </g>
    </g>
    <g id="Character" transform="translate(220.302 204.984)">
      <path id="Path_12874" data-name="Path 12874" d="M207.727,206.643c-.853,2-1.792,4.194-2.626,6.328s-1.682,4.3-2.444,6.473a102.5,102.5,0,0,0-3.852,12.979c-.139.54-.208,1.065-.311,1.6l-.147.8-.1.624a14.583,14.583,0,0,0-.06,2.666,55.586,55.586,0,0,0,.892,6.486c.861,4.467,2,9.1,3.131,13.642l-5.081,2.137a82.684,82.684,0,0,1-6.363-13.493,47.616,47.616,0,0,1-2.113-7.564,20.972,20.972,0,0,1-.39-4.5l.027-.645c.013-.211.031-.34.047-.515l.1-.984c.073-.645.118-1.323.223-1.957a88.707,88.707,0,0,1,3.494-14.8c.774-2.373,1.581-4.726,2.508-7.028.934-2.326,1.831-4.557,2.976-6.918Z" transform="translate(-177.25 -154.935)" fill="#71403e"/>
      <path id="Path_12875" data-name="Path 12875" d="M198.956,236.059l3.9,3.791-8.509,3.941a8.48,8.48,0,0,1-.645-6.836Z" transform="translate(-174.176 -134.039)" fill="#71403e"/>
      <path id="Path_12876" data-name="Path 12876" d="M205.591,244.053l-7.186,2.929-4.466-4.633,8.509-3.941Z" transform="translate(-173.765 -132.598)" fill="#71403e"/>
      <g id="Group_7914" data-name="Group 7914" transform="translate(0 15.37)">
        <g id="Group_7913" data-name="Group 7913" transform="translate(115.215 1.11)">
          <ellipse id="Ellipse_57" data-name="Ellipse 57" cx="53.166" cy="52.932" rx="53.166" ry="52.932" transform="translate(0 0)" fill="#047aba"/>
          <ellipse id="Ellipse_58" data-name="Ellipse 58" cx="50.367" cy="50.146" rx="50.367" ry="50.146" transform="translate(2.798 2.785)" fill="#fff"/>
          <g id="Group_7931" data-name="Group 7931" transform="translate(2.798 2.785)" clip-path="url(#clip-path-4)">
            <g id="Group_7911" data-name="Group 7911" transform="translate(22.108 10.131)">
              <path id="Path_12877" data-name="Path 12877" d="M302.361,223c.553,4.1,1.036,8.227,1.486,12.335l1.357,12.293.184,1.478.213,1.319.289,1.374.352,1.4c.516,1.879,1.107,3.8,1.763,5.705,1.29,3.831,2.789,7.683,4.255,11.5L308.8,272.24a98.563,98.563,0,0,1-6.383-11.033c-.927-1.936-1.819-3.9-2.581-5.968l-.56-1.574-.5-1.637c-.148-.565-.277-1.152-.415-1.729l-.313-1.6c-.763-4.16-1.394-8.262-1.97-12.39s-1.129-8.239-1.569-12.382Z" transform="translate(-252.232 -171.44)" fill="#e4897b"/>
              <path id="Path_12878" data-name="Path 12878" d="M301.64,217.824c3.189.807,5.421,13.872,5.421,13.872l-12.2,8.259s-5.018-15.485-2.565-18.981C294.854,217.342,296.986,216.645,301.64,217.824Z" transform="translate(-254.001 -174.938)" fill="#d72027"/>
              <path id="Path_12879" data-name="Path 12879" d="M298.6,219.433l2.45,13.171-4.939,3.336Z" transform="translate(-251.25 -173.629)" opacity="0.2"/>
              <path id="Path_12880" data-name="Path 12880" d="M306.967,252.007l4.021,7.259-6.755.181s-2.326-5.162-.4-7.725Z" transform="translate(-246.985 -153.835)" fill="#d72027"/>
              <path id="Path_12881" data-name="Path 12881" d="M277.494,200.248c-5.3.766-14.793,26.3,4.355,38.228s31.722-1.613,31.722-1.613-12.056-13.195-11.03-21.792,7.238-19.447-7.284-23.065C285.025,189.437,271.687,191.9,277.494,200.248Z" transform="translate(-267.009 -191.037)" fill="#2e353a"/>
              <g id="Group_7903" data-name="Group 7903" transform="translate(57.249 105.419)">
                <path id="Path_12882" data-name="Path 12882" d="M311.017,259.985l-5.775-.484-1.452-2.929,6.757-.181Z" transform="translate(-303.791 -256.391)" fill="#d72027"/>
              </g>
              <path id="Path_12883" data-name="Path 12883" d="M313.3,218.47s3.687,1.29-3.7,46.5H278.17c.527-12.743.542-20.589-5.571-46.723a93.151,93.151,0,0,1,13.346-1.752,100.832,100.832,0,0,1,14.272,0C306.35,217.054,313.3,218.47,313.3,218.47Z" transform="translate(-265.663 -175.584)" fill="#d72027"/>
              <path id="Path_12884" data-name="Path 12884" d="M274.264,223.9c2.847.7,5.484,3.8,5.162,9.493a13.647,13.647,0,0,1-2.621,7.168c-.5-4.379-1.347-9.465-2.686-15.969Z" transform="translate(-264.733 -170.89)" opacity="0.2"/>
              <path id="Path_12885" data-name="Path 12885" d="M294.71,226.523s-5.162,4.221-5.162,8.71c-4.281-3.123-10.049-11.627-10.646-17.056a1.641,1.641,0,0,1,1.5-1.769h.058a7.591,7.591,0,0,0,1.145-.147,1.1,1.1,0,0,1,.921.231Z" transform="translate(-261.804 -175.59)" fill="#f9f9f9"/>
              <path id="Path_12886" data-name="Path 12886" d="M288.7,226.563a11.584,11.584,0,0,1,5.568,8.375c4.334-3.163,2.124-12.6-.29-17.219a2.5,2.5,0,0,0-1.936-1.318c-.634-.074-1.118-.161-1.436-.223a.431.431,0,0,0-.5.337v.027Z" transform="translate(-255.794 -175.629)" fill="#f9f9f9"/>
              <path id="Path_12887" data-name="Path 12887" d="M282.291,206.482c.9,4.571,1.8,12.948-1.415,16A40.271,40.271,0,0,0,293.493,232.5c6.367-5.065,1.655-10.02,1.655-10.02-5.121-1.218-4.989-5-4.1-8.549Z" transform="translate(-260.59 -181.568)" fill="#e4897b"/>
              <path id="Path_12888" data-name="Path 12888" d="M284.236,208.366l5.186,4.4a14.568,14.568,0,0,0-.44,2.523c-1.957-.282-5.033-1.936-5.454-4.058a6.072,6.072,0,0,1,.708-2.865Z" transform="translate(-258.964 -180.413)" opacity="0.2"/>
              <path id="Path_12889" data-name="Path 12889" d="M277.146,207.035c2.123,7.349,2.863,10.5,7.5,13.491,6.968,4.494,15.571.292,15.7-7.541.111-7.049-3.387-17.881-11.366-19.224a10.445,10.445,0,0,0-11.828,13.274Z" transform="translate(-263.145 -189.466)" fill="#e4897b"/>
              <path id="Path_12890" data-name="Path 12890" d="M281.26,214.359c4.447-4.517,4.233-10.086,2.9-11.832,4.06-.34,14.45-2.894,12.483-6.81s-18.55-6.044-20.137,4C271.385,204.229,275.488,213.336,281.26,214.359Z" transform="translate(-264.697 -190.166)" fill="#2e353a"/>
              <path id="Path_12891" data-name="Path 12891" d="M284.667,202c.135.607.569,1.026.968.939s.611-.645.484-1.258-.569-1.026-.968-.939S284.532,201.393,284.667,202Z" transform="translate(-258.291 -185.093)" fill="#2e353a"/>
              <path id="Path_12892" data-name="Path 12892" d="M288.937,201.057c.135.608.568,1.026.968.939s.611-.645.484-1.257-.568-1.027-.968-.939S288.8,200.449,288.937,201.057Z" transform="translate(-255.673 -185.672)" fill="#2e353a"/>
              <path id="Path_12893" data-name="Path 12893" d="M289.113,200.123l1.369-.745S289.986,200.683,289.113,200.123Z" transform="translate(-255.541 -185.923)" fill="#2e353a"/>
              <path id="Path_12894" data-name="Path 12894" d="M287.757,201.543a16.659,16.659,0,0,0,3.036,3.387,2.7,2.7,0,0,1-2.081.887Z" transform="translate(-256.372 -184.596)" fill="#de5753"/>
              <path id="Path_12895" data-name="Path 12895" d="M288.076,206.712a5.8,5.8,0,0,0,.911-.132.181.181,0,0,0,.139-.218.184.184,0,0,0-.218-.139,4.961,4.961,0,0,1-4.355-1.007.185.185,0,0,0-.26,0,.183.183,0,0,0,0,.258h0a5.132,5.132,0,0,0,3.783,1.238Z" transform="translate(-258.528 -182.377)" fill="#2e353a"/>
              <path id="Path_12896" data-name="Path 12896" d="M276.877,208.007a5.619,5.619,0,0,0,3.581,2.347c1.936.355,2.728-1.411,2.041-3.139-.618-1.553-2.368-3.61-4.241-3.184a2.507,2.507,0,0,0-1.381,3.976Z" transform="translate(-263.366 -183.105)" fill="#e4897b"/>
              <path id="Path_12897" data-name="Path 12897" d="M282.717,202.062a.37.37,0,0,0,.311-.3,4.317,4.317,0,0,1,2.3-2.6.365.365,0,1,0-.31-.661h0a5,5,0,0,0-2.707,3.133.365.365,0,0,0,.3.424.34.34,0,0,0,.106,0Z" transform="translate(-259.716 -186.482)" fill="#2e353a"/>
              <path id="Path_12898" data-name="Path 12898" d="M291.028,198.063a.366.366,0,0,0,.384-.345.36.36,0,0,0-.165-.324,3.643,3.643,0,0,0-3.318-.426.36.36,0,0,0-.194.474v.01a.37.37,0,0,0,.484.19,2.909,2.909,0,0,1,2.623.366.365.365,0,0,0,.186.055Z" transform="translate(-256.403 -187.536)" fill="#2e353a"/>
              <path id="Path_12899" data-name="Path 12899" d="M284.843,201.067l1.369-.744S285.716,201.628,284.843,201.067Z" transform="translate(-258.158 -185.344)" fill="#2e353a"/>
              <g id="Group_7904" data-name="Group 7904" transform="translate(11.208 87.309)">
                <path id="Path_12900" data-name="Path 12900" d="M276.08,245.4l-.807,2.8c-.11.218.148.439.511.439h32.348c.284,0,.518-.139.536-.323l.284-2.8c.019-.194-.226-.358-.536-.358H276.593a.578.578,0,0,0-.513.242Z" transform="translate(-275.248 -245.163)" fill="#047aba"/>
                <path id="Path_12901" data-name="Path 12901" d="M276.08,245.4l-.807,2.8c-.11.218.148.439.511.439h32.348c.284,0,.518-.139.536-.323l.284-2.8c.019-.194-.226-.358-.536-.358H276.593a.578.578,0,0,0-.513.242Z" transform="translate(-275.248 -245.163)" fill="#d72027" opacity="0.2"/>
              </g>
              <g id="Group_7908" data-name="Group 7908" transform="translate(15.28 87.067)">
                <g id="Group_7905" data-name="Group 7905">
                  <path id="Path_12902" data-name="Path 12902" d="M278.912,249.04h-.852c-.169,0-.3-.087-.287-.194l.4-3.639c.011-.106.161-.194.323-.194h.853c.161,0,.3.087.287.194l-.4,3.639C279.231,248.953,279.083,249.04,278.912,249.04Z" transform="translate(-277.773 -245.014)" fill="#047aba"/>
                  <path id="Path_12903" data-name="Path 12903" d="M278.912,249.04h-.852c-.169,0-.3-.087-.287-.194l.4-3.639c.011-.106.161-.194.323-.194h.853c.161,0,.3.087.287.194l-.4,3.639C279.231,248.953,279.083,249.04,278.912,249.04Z" transform="translate(-277.773 -245.014)" fill="#8f151a" opacity="0.4"/>
                </g>
                <g id="Group_7906" data-name="Group 7906" transform="translate(25.28)">
                  <path id="Path_12904" data-name="Path 12904" d="M294.586,249.04h-.853c-.161,0-.3-.087-.287-.194l.4-3.639c.011-.106.161-.194.323-.194h.853c.169,0,.3.087.287.194l-.4,3.639C294.9,248.953,294.755,249.04,294.586,249.04Z" transform="translate(-293.445 -245.014)" fill="#047aba"/>
                  <path id="Path_12905" data-name="Path 12905" d="M294.586,249.04h-.853c-.161,0-.3-.087-.287-.194l.4-3.639c.011-.106.161-.194.323-.194h.853c.169,0,.3.087.287.194l-.4,3.639C294.9,248.953,294.755,249.04,294.586,249.04Z" transform="translate(-293.445 -245.014)" fill="#8f151a" opacity="0.4"/>
                </g>
                <g id="Group_7907" data-name="Group 7907" transform="translate(12.691)">
                  <path id="Path_12906" data-name="Path 12906" d="M286.782,249.04h-.852c-.171,0-.3-.087-.289-.194l.4-3.639c.013-.106.161-.194.323-.194h.852c.161,0,.3.087.287.194l-.4,3.639C287.1,248.953,286.951,249.04,286.782,249.04Z" transform="translate(-285.641 -245.014)" fill="#047aba"/>
                  <path id="Path_12907" data-name="Path 12907" d="M286.782,249.04h-.852c-.171,0-.3-.087-.289-.194l.4-3.639c.013-.106.161-.194.323-.194h.852c.161,0,.3.087.287.194l-.4,3.639C287.1,248.953,286.951,249.04,286.782,249.04Z" transform="translate(-285.641 -245.014)" fill="#8f151a" opacity="0.4"/>
                </g>
              </g>
              <path id="Path_12908" data-name="Path 12908" d="M288.333,251.61l7.633-3.387-2.176,7.53s-4.839,1.1-6.954-1.324Z" transform="translate(-256.937 -155.979)" fill="#d72027"/>
              <path id="Path_12909" data-name="Path 12909" d="M279.313,224.126c-.253,2.653-.587,5.3-.879,7.946L277.422,240c-.323,2.645-.731,5.281-1.1,7.922l-.565,3.958-.182,1.261a1.278,1.278,0,0,0,.161.552,6.921,6.921,0,0,0,1.7,2.018,21.624,21.624,0,0,0,2.815,2.032,56.811,56.811,0,0,0,6.715,3.486c2.355,1.063,4.791,2.026,7.259,2.921,2.447.934,4.98,1.774,7.447,2.581l-.871,3.8a100.114,100.114,0,0,1-15.955-3.921,53.752,53.752,0,0,1-7.82-3.268,27.372,27.372,0,0,1-3.842-2.42,13.426,13.426,0,0,1-3.6-3.921,8.374,8.374,0,0,1-1.058-3.226c-.019-.306-.047-.616-.036-.924.008-.282.037-.7.048-.8l.087-1,.347-3.981c.242-2.653.439-5.312.726-7.959l.807-7.949c.315-2.645.589-5.294.942-7.935Z" transform="translate(-268.183 -171.294)" fill="#e4897b"/>
              <path id="Path_12910" data-name="Path 12910" d="M275.236,217.552c-3.149.953-6.936,11.748-6.936,11.748l11.019,11.291s5.654-11.614,4.329-15.663C282.279,220.712,278.833,216.463,275.236,217.552Z" transform="translate(-268.3 -174.888)" fill="#d72027"/>
              <path id="Path_12911" data-name="Path 12911" d="M299.636,249.781l-2.163,6.205-6.325-.239,2.176-7.53Z" transform="translate(-254.293 -155.982)" fill="#d72027"/>
            </g>
          </g>
        </g>
        <path id="Path_12912" data-name="Path 12912" d="M256.634,247.784a49.859,49.859,0,1,1,61.207,35.01l-.073.019a49.631,49.631,0,0,1-61.034-34.661C256.7,248.029,256.667,247.906,256.634,247.784Z" transform="translate(-136.41 -180.824)" fill="#d72027" opacity="0.2"/>
        <path id="Path_12913" data-name="Path 12913" d="M340.93,200.5l-41.073,83.636a48.236,48.236,0,0,0,10.591-.09l36.939-75.166a49,49,0,0,0-6.457-8.38Zm12,21.291q-.135-.484-.269-.968l-29.493,60.058a49.6,49.6,0,0,0,29.762-59.1ZM291.8,186.777a49.566,49.566,0,0,0-19.982,85.209l42.273-86.056a49.843,49.843,0,0,0-22.291.842Z" transform="translate(-136.399 -180.678)" fill="#fff" opacity="0.2"/>
        <path id="Path_12914" data-name="Path 12914" d="M251.409,221.272l-1-.1c.161-1.7.41-3.418.729-5.091l.982.185C251.811,217.915,251.57,219.6,251.409,221.272Zm1.936-10.109-.968-.277a57.443,57.443,0,0,1,5.436-12.7l.868.5a56.433,56.433,0,0,0-5.333,12.475Z" transform="translate(-139.144 -172.624)" fill="#d72027"/>
        <path id="Path_12915" data-name="Path 12915" d="M358.292,222.427a53.831,53.831,0,1,0-38.286,65.8l.31-.084a53.876,53.876,0,0,0,37.976-65.716ZM258.146,249.3a49.859,49.859,0,1,1,61.207,35.01l-.073.019a49.631,49.631,0,0,1-61.034-34.661c-.034-.123-.068-.245-.1-.368Z" transform="translate(-137.922 -182.341)" fill="#d72027"/>
        <path id="Path_12916" data-name="Path 12916" d="M302.457,232.559c-.029,2.287-.6,2.581-1.224,2.657l-1.815.476-3.629.955-7.259,1.908-14.545,3.71q-14.566,3.644-29.183,7.1L215.577,256.3l-14.6,3.531c-4.858,1.2-9.743,2.313-14.546,3.71a3.858,3.858,0,1,1-2.289-7.368l.111-.034.161-.044c4.86-1.194,9.643-2.678,14.45-4.07l14.4-4.249,28.761-8.614q14.384-4.321,28.812-8.467l14.451-4.065,7.239-1.982,3.62-.99,1.81-.5c.581-.25,1.219-.279,2.4,1.682a14.777,14.777,0,0,1,2.1,7.719Z" transform="translate(-181.432 -157.389)" fill="#d72027"/>
      </g>
      <path id="Path_12917" data-name="Path 12917" d="M217.446,183.294c0,.59.323,1.068.7,1.069s.7-.484.7-1.068-.313-1.069-.7-1.069S217.448,182.7,217.446,183.294Z" transform="translate(-159.353 -167.041)" fill="#2e353a"/>
      <path id="Path_12918" data-name="Path 12918" d="M217.609,183.55a21.067,21.067,0,0,0,2.826,5.049,3.436,3.436,0,0,1-2.831.526Z" transform="translate(-159.256 -166.229)" fill="#561616"/>
      <path id="Path_12919" data-name="Path 12919" d="M216.279,181.363a.349.349,0,0,1-.348-.347.345.345,0,0,1,.144-.281,3.464,3.464,0,0,1,3.133-.534.342.342,0,0,1,.2.442v.006a.35.35,0,0,1-.447.2h0a2.763,2.763,0,0,0-2.476.45.349.349,0,0,1-.206.064Z" transform="translate(-160.282 -168.381)" fill="#2e353a"/>
      <path id="Path_12920" data-name="Path 12920" d="M206.949,185.253c.521,5.765.6,16.248-3.5,19.679,0,0,.927,5.883,10.872,6.8,10.935,1.01,5.76-5.265,5.76-5.265-5.826-2.06-5.236-6.734-3.786-11.043Z" transform="translate(-167.931 -165.185)" fill="#71403e"/>
      <path id="Path_12921" data-name="Path 12921" d="M197.053,332.269c-.86.356-2.831-.507-3.458-.873a.172.172,0,0,1-.085-.161.176.176,0,0,1,.119-.147c.1-.031,2.444-.774,3.4-.226a.807.807,0,0,1,.407.544.7.7,0,0,1-.232.789.733.733,0,0,1-.151.074Zm-2.913-.968c1,.484,2.429.915,2.855.613.04-.029.161-.118.1-.435a.461.461,0,0,0-.24-.323,4.766,4.766,0,0,0-2.712.139Z" transform="translate(-174.028 -76.043)" fill="#d72027"/>
      <path id="Path_12922" data-name="Path 12922" d="M194.23,332.025a3.029,3.029,0,0,1-.515.161.176.176,0,0,1-.161-.058.161.161,0,0,1-.029-.174c.032-.084.807-2.053,1.828-2.474h0a.952.952,0,0,1,.774,0,.566.566,0,0,1,.4.6C196.45,330.762,195.156,331.641,194.23,332.025Zm-.244-.274c.9-.335,2.137-1.219,2.189-1.708,0-.044.016-.148-.194-.24a.6.6,0,0,0-.5,0h0c-.653.274-1.234,1.384-1.5,1.949Z" transform="translate(-174.026 -76.818)" fill="#d72027"/>
      <path id="Path_12923" data-name="Path 12923" d="M224.785,339.614a13.1,13.1,0,0,1-2.258-.2.174.174,0,0,1-.052-.321c.108-.061,2.673-1.52,3.9-1.187a.865.865,0,0,1,.552.4.655.655,0,0,1,.015.757C226.639,339.485,225.727,339.614,224.785,339.614Zm-1.692-.463c1.366.192,3.226.182,3.568-.29.044-.061.089-.161-.034-.384a.529.529,0,0,0-.34-.242,6.241,6.241,0,0,0-3.194.916Z" transform="translate(-156.324 -71.635)" fill="#d72027"/>
      <path id="Path_12924" data-name="Path 12924" d="M222.566,340.079a.177.177,0,0,1-.1-.032.171.171,0,0,1-.071-.161,4.941,4.941,0,0,1,1.14-2.818,1.278,1.278,0,0,1,.968-.3c.484.048.616.29.645.484.136.828-1.623,2.41-2.508,2.8A.188.188,0,0,1,222.566,340.079Zm1.794-2.966a.924.924,0,0,0-.6.226,4.057,4.057,0,0,0-.968,2.258c.9-.542,2.1-1.786,2.018-2.282,0-.04-.026-.161-.339-.194a.86.86,0,0,0-.111-.008Z" transform="translate(-156.321 -72.302)" fill="#d72027"/>
      <path id="Path_12925" data-name="Path 12925" d="M217.489,345.148h7.347l.732-16.937h-7.347Z" transform="translate(-159.327 -77.545)" fill="#71403e"/>
      <path id="Path_12926" data-name="Path 12926" d="M188.478,336.017l7.22,1.353,8.125-15.714L196.6,320.3Z" transform="translate(-177.112 -82.393)" fill="#71403e"/>
      <path id="Path_12927" data-name="Path 12927" d="M198.025,331.335l-7.9-2.37a.645.645,0,0,0-.744.3l-3.273,5.807a1.074,1.074,0,0,0,.419,1.46,1.024,1.024,0,0,0,.226.094c2.773.781,4.163,1.021,7.638,2.063,2.139.645,7.762,2.966,10.714,3.852,2.889.866,4.218-1.9,3.089-2.531a24.638,24.638,0,0,1-9.162-7.9A1.793,1.793,0,0,0,198.025,331.335Z" transform="translate(-178.65 -77.099)" fill="#455a64"/>
      <path id="Path_12928" data-name="Path 12928" d="M225.863,338.186H217.84a.645.645,0,0,0-.626.5l-1.452,6.5a1.067,1.067,0,0,0,.807,1.274,1.1,1.1,0,0,0,.252.026c2.894-.048,7.076-.218,10.714-.218,4.254,0,7.926.231,12.916.231,3.015,0,3.852-3.036,2.591-3.31-5.747-1.252-10.441-1.386-15.408-4.434a3.4,3.4,0,0,0-1.771-.569Z" transform="translate(-160.402 -71.43)" fill="#455a64"/>
      <g id="Group_7915" data-name="Group 7915" transform="translate(12.692 40.787)">
        <path id="Path_12929" data-name="Path 12929" d="M198.333,198.926c-6.373,3.036-9.033,23.462-9.033,23.462l14.651,5.721a115.283,115.283,0,0,0,5.507-17.079C211.56,201.794,204.853,195.821,198.333,198.926Z" transform="translate(-189.3 -198.098)" fill="#263238"/>
        <path id="Path_12930" data-name="Path 12930" d="M198.333,198.926c-6.373,3.036-9.033,23.462-9.033,23.462l14.651,5.721a115.283,115.283,0,0,0,5.507-17.079C211.56,201.794,204.853,195.821,198.333,198.926Z" transform="translate(-189.3 -198.098)" fill="#263238"/>
        <path id="Path_12931" data-name="Path 12931" d="M204.1,202.55a8.087,8.087,0,0,1,1.56-.568,13.334,13.334,0,0,1,.06,6.672,115.661,115.661,0,0,1-5.5,17.076l-4.829-1.882C196.279,218.5,199.01,204.979,204.1,202.55Z" transform="translate(-185.567 -195.716)" fill="#263238" opacity="0.2"/>
      </g>
      <g id="Group_7916" data-name="Group 7916" transform="translate(23.056 39.194)">
        <path id="Path_12932" data-name="Path 12932" d="M236.885,199.375s7.82,8.793.436,63.23h-39.3c-.269-6.005,3.52-35.3-2.3-63.6a102.535,102.535,0,0,1,13.156-1.655,144.3,144.3,0,0,1,16.7,0,73.75,73.75,0,0,1,11.308,2.025Z" transform="translate(-195.725 -197.11)" fill="#047aba"/>
        <path id="Path_12933" data-name="Path 12933" d="M236.885,199.375s7.82,8.793.436,63.23h-39.3c-.269-6.005,3.52-35.3-2.3-63.6a102.535,102.535,0,0,1,13.156-1.655,144.3,144.3,0,0,1,16.7,0,73.75,73.75,0,0,1,11.308,2.025Z" transform="translate(-195.725 -197.11)" fill="#263238"/>
        <path id="Path_12934" data-name="Path 12934" d="M216.59,207.818c1.774-5.323,6.06-7.017,10.42-3.87.879,5.16,1.5,13.471.79,26.652l-7.672-.069S213.945,215.735,216.59,207.818Z" transform="translate(-183.337 -193.886)" opacity="0.2"/>
      </g>
      <path id="Path_12935" data-name="Path 12935" d="M228.256,203.5c.374,2.273.792,4.762,1.269,7.133s.978,4.783,1.555,7.138a87.388,87.388,0,0,0,4.215,13.55c.442,1.04.91,2.05,1.413,3l.657,1.169a3.943,3.943,0,0,0,.566.739,21.252,21.252,0,0,0,5.018,3.524,116.8,116.8,0,0,0,13.317,5.833l-1.1,5.383a61.447,61.447,0,0,1-15.777-3.207,33.128,33.128,0,0,1-3.968-1.687,22.627,22.627,0,0,1-4.052-2.581,14.313,14.313,0,0,1-2.02-2.044l-.484-.632-.311-.463c-.2-.31-.418-.619-.608-.929-.781-1.24-1.466-2.489-2.107-3.741a83.113,83.113,0,0,1-5.544-15.2c-.673-2.557-1.29-5.112-1.784-7.689s-.968-5.1-1.3-7.844Z" transform="translate(-159.495 -154.001)" fill="#71403e"/>
      <g id="Group_7917" data-name="Group 7917" transform="translate(54.069 41.014)">
        <path id="Path_12936" data-name="Path 12936" d="M215.28,204.017c-2.07,6.681,6.325,26.6,6.325,26.6l17.7-4.431a81.326,81.326,0,0,0-5.433-18.315C228.126,195.48,217.772,196,215.28,204.017Z" transform="translate(-214.952 -198.238)" fill="#047aba"/>
        <path id="Path_12937" data-name="Path 12937" d="M215.28,204.017c-2.07,6.681,6.325,26.6,6.325,26.6l17.7-4.431a81.326,81.326,0,0,0-5.433-18.315C228.126,195.48,217.772,196,215.28,204.017Z" transform="translate(-214.952 -198.238)" fill="#263238"/>
      </g>
      <path id="Path_12938" data-name="Path 12938" d="M243.267,230.088l7.581,3.4L243.5,239.53s-3.247-1.055-3.776-6.355l-1.129-4.4,3.334.845a8.341,8.341,0,0,1,1.341.468Z" transform="translate(-146.39 -138.503)" fill="#71403e"/>
      <path id="Path_12939" data-name="Path 12939" d="M253.029,235.4l-7.4,4.384-3.992-2.05,7.352-6.042Z" transform="translate(-144.523 -136.713)" fill="#71403e"/>
      <path id="Path_12940" data-name="Path 12940" d="M228.613,198.812c-3.17-2.668-10.867-4.588-19.494-5.067a31.641,31.641,0,0,0-12.1,1.469c-2.116.939.384,7.7,3.145,7.847-1.452,2.287.663,6.707,3.831,7.572-.5,3.825,9.181,4.181,15.04,1.1C223.7,209.277,232.413,202.01,228.613,198.812Z" transform="translate(-172.359 -160.03)" fill="#455a64"/>
      <g id="Group_7918" data-name="Group 7918" transform="translate(15.292 237.915)">
        <path id="Path_12941" data-name="Path 12941" d="M225.436,328.213l-.376,8.731h-7.35l.376-8.731Z" transform="translate(-174.484 -315.459)" opacity="0.2"/>
        <path id="Path_12942" data-name="Path 12942" d="M195.106,320.306l7.223,1.355-4.194,8.1-7.223-1.355Z" transform="translate(-190.912 -320.306)" opacity="0.2"/>
      </g>
      <path id="Path_12943" data-name="Path 12943" d="M205.2,186.143c.44,7.247.323,11.511,4,15.232,5.525,5.6,14.517,2.289,16.255-4.942,1.568-6.509.584-17.26-6.538-20.163a9.937,9.937,0,0,0-13.717,9.873Z" transform="translate(-166.874 -171.158)" fill="#71403e"/>
      <path id="Path_12944" data-name="Path 12944" d="M222.25,191.568c2.742-2.766,7.267-8.8,5.686-13.332-2.334-6.693-9.28-4.425-8.168-3.1-4.033-2.628-12.083-2.752-10.39.774-7.278,1-7.864,3.928-5.849,5.033-5.18,4.923-4.929,10.012-1,9.625-2.983,2.987,2.518,8.906,8.685,11.727C213.323,196.822,224.564,195.822,222.25,191.568Z" transform="translate(-170.29 -172.566)" fill="#2e353a"/>
      <path id="Path_12945" data-name="Path 12945" d="M211.861,194.44a.25.25,0,0,1-.25-.247.242.242,0,0,1,.044-.142c1.584-2.316,3.126-4.168,4.486-5.807,2.6-3.123,4.479-5.38,4.641-8.454a6.039,6.039,0,0,0-3.921-5.818c-1.863-.836-3.862-.884-4.65-.115-.419.41-.458,1.019-.118,1.811a.251.251,0,0,1-.131.323.254.254,0,0,1-.323-.132,1.957,1.957,0,0,1,.227-2.361c.942-.921,3.131-.913,5.2.016a6.521,6.521,0,0,1,4.216,6.291c-.169,3.239-2.1,5.549-4.755,8.746a72.685,72.685,0,0,0-4.457,5.765.254.254,0,0,1-.214.124Z" transform="translate(-163.094 -172.812)" fill="#2e353a"/>
      <path id="Path_12946" data-name="Path 12946" d="M211.888,185.243a8.187,8.187,0,0,0,2.065,4.852c1.6,1.757,3.275.663,3.557-1.478.255-1.926-.271-5.162-2.229-6.13C213.351,181.534,211.751,183.073,211.888,185.243Z" transform="translate(-162.766 -167.057)" fill="#71403e"/>
      <g id="Group_7919" data-name="Group 7919" transform="translate(12.463 104.68)">
        <path id="Path_12947" data-name="Path 12947" d="M227.407,237.708s2.479,49.311-2.349,70.2c-7.646,33.083-22.284,71.439-22.284,71.439l-13.616-2.553s11.47-38.416,13.958-65.952c2.234-24.736-1.066-53.147-1.066-73.129Z" transform="translate(-189.158 -237.708)" fill="#6b1013"/>
        <path id="Path_12948" data-name="Path 12948" d="M211.254,246.908c1.021-1.924,2.95,3.8,4.31,11.151.04,10.136-.181,21.666-1.069,31.433C207.7,277,209.141,250.887,211.254,246.908Z" transform="translate(-176.689 -232.299)" opacity="0.2"/>
      </g>
      <path id="Path_12949" data-name="Path 12949" d="M206.456,324.108c.056.01-2.124,4.7-2.124,4.7l-15.761-3.065,1.713-4.726Z" transform="translate(-177.055 -81.953)" fill="#d72027"/>
      <path id="Path_12950" data-name="Path 12950" d="M231.332,237.708s11.067,46.7,11.846,69.006c.873,25.015-7.9,84.023-7.9,84.023h-12.45s-1.532-59.467-2.086-82.254c-.6-24.841-15.25-70.775-15.25-70.775Z" transform="translate(-166.681 -133.028)" fill="#6b1013"/>
      <path id="Path_12951" data-name="Path 12951" d="M231.622,329.518c.056,0-.7,5.144-.7,5.144h-15.14l-.408-4.591Z" transform="translate(-160.625 -76.744)" fill="#d72027"/>
    </g>
  </g>
</svg>
