<svg xmlns="http://www.w3.org/2000/svg" width="14" height="14" viewBox="0 0 14 14">
  <path id="search-btn" d="M5.217,0A5.084,5.084,0,0,1,8.9,1.52a5.184,5.184,0,0,1,1.5,3.7,5.263,5.263,0,0,1-.319,1.839A4.8,4.8,0,0,1,9.158,8.6l.225.225h.638L14,12.8,12.8,14,8.82,10.021V9.383L8.6,9.158a4.8,4.8,0,0,1-1.539.92,5.263,5.263,0,0,1-1.839.319,5.184,5.184,0,0,1-3.7-1.5A5.084,5.084,0,0,1,0,5.217,5.19,5.19,0,0,1,5.217,0Zm0,1.614A3.592,3.592,0,0,0,2.665,2.665,3.46,3.46,0,0,0,1.651,5.217,3.465,3.465,0,0,0,5.217,8.783,3.465,3.465,0,0,0,8.783,5.217,3.46,3.46,0,0,0,7.769,2.665,3.592,3.592,0,0,0,5.217,1.614Z" fill="#b8b8b8" opacity="0.5"/>
</svg>
