<svg xmlns="http://www.w3.org/2000/svg" width="110" height="109.999" viewBox="0 0 110 109.999">
  <g id="select-a-discussion-illustration" transform="translate(17 43.018)">
    <path id="bg" d="M99.268,21.663c0,22.014,11.315,37.132,11.315,47.74s-6.051,32.886-54.471,32.886S.583,72.318.583,60.65c0-54.637,98.685-77.975,98.685-38.987Z" transform="translate(-17.583 -35.308)" fill="#d4d4d4" opacity="0.6"/>
    <path id="Path_5308" data-name="Path 5308" d="M8,141.6a4.294,4.294,0,0,0,4.227,4.334H62.947a4.294,4.294,0,0,0,4.227-4.334V113.7H16.836V84.444H67.174V56H8Z" transform="translate(8.522 -81.374)" fill="#f1f1f1"/>
    <path id="Path_5323" data-name="Path 5323" d="M985.606,485.614H933.678a6.109,6.109,0,0,0-6.091,6.1v97a6.107,6.107,0,0,0,6.092,6.1h51.928a6.106,6.106,0,0,0,6.091-6.1v-97A6.108,6.108,0,0,0,985.606,485.614Zm2.565,103.1a2.571,2.571,0,0,1-2.565,2.567H933.678a2.57,2.57,0,0,1-2.564-2.567V503.238h57.058Zm0-89.014H931.114v-7.986a2.57,2.57,0,0,1,2.564-2.567h51.929a2.571,2.571,0,0,1,2.565,2.567Z" transform="translate(-914.587 -528.632)" fill="#6b1013"/>
    <g id="Rectangle_104" data-name="Rectangle 104" transform="translate(21 0.982)" fill="#fefcfc" stroke="#be1f24" stroke-width="3">
      <rect width="68" height="34" rx="2" stroke="none"/>
      <rect x="1.5" y="1.5" width="65" height="31" rx="0.5" fill="none"/>
    </g>
    <g id="_3" data-name="3" transform="translate(22 41)">
      <path id="Path_5320" data-name="Path 5320" d="M55.981,27.4H33.7a1.7,1.7,0,1,1,0-3.4H55.981a1.7,1.7,0,1,1,0,3.4Z" transform="translate(-10.424 -23.463)" fill="#ccd1d9"/>
      <path id="Path_5321" data-name="Path 5321" d="M55.981,30.4H33.7a1.7,1.7,0,1,1,0-3.4H55.981a1.7,1.7,0,1,1,0,3.4Z" transform="translate(-10.424 -21.231)" fill="#ccd1d9"/>
      <path id="Path_5322" data-name="Path 5322" d="M45.589,33.4H33.7a1.7,1.7,0,1,1,0-3.4H45.589a1.7,1.7,0,1,1,0,3.4Z" transform="translate(-10.424 -19)" fill="#ccd1d9"/>
      <g id="Group_781" data-name="Group 781" transform="translate(0 0)">
        <ellipse id="Ellipse_30" data-name="Ellipse 30" cx="8.5" cy="8" rx="8.5" ry="8" fill="#fefcfc"/>
        <path id="Path_5318" data-name="Path 5318" d="M26.1,29a5.086,5.086,0,0,1,5.1,5.079,8.426,8.426,0,0,1-10.192,0A5.1,5.1,0,0,1,26.1,29Z" transform="translate(-18.082 -20.2)" fill="#5d9cec"/>
        <circle id="Ellipse_28" data-name="Ellipse 28" cx="3.386" cy="3.386" r="3.386" transform="translate(4.572 3.516)" fill="#eac6bb"/>
      </g>
    </g>
    <g id="_2" data-name="2" transform="translate(29.879 8.992)">
      <path id="Path_5320-2" data-name="Path 5320" d="M58.262,27.72H33.86a1.86,1.86,0,1,1,0-3.721h24.4a1.86,1.86,0,0,1,0,3.721Z" transform="translate(-9.135 -22.744)" fill="#ccd1d9"/>
      <path id="Path_5321-2" data-name="Path 5321" d="M58.262,30.72H33.86a1.86,1.86,0,1,1,0-3.721h24.4a1.86,1.86,0,0,1,0,3.721Z" transform="translate(-9.135 -20.015)" fill="#ccd1d9"/>
      <path id="Path_5322-2" data-name="Path 5322" d="M46.882,33.72H33.86a1.86,1.86,0,1,1,0-3.721H46.882a1.86,1.86,0,1,1,0,3.721Z" transform="translate(-9.135 -17.285)" fill="#ccd1d9"/>
      <g id="Group_781-2" data-name="Group 781" transform="translate(0 0)">
        <ellipse id="Ellipse_30-2" data-name="Ellipse 30" cx="8.5" cy="9" rx="8.5" ry="9" fill="#f1f1f1"/>
        <path id="Path_5318-2" data-name="Path 5318" d="M26.582,29a5.569,5.569,0,0,1,5.581,5.562,9.228,9.228,0,0,1-11.162,0A5.581,5.581,0,0,1,26.582,29Z" transform="translate(-18.568 -18.694)" fill="#5d9cec"/>
        <circle id="Ellipse_28-2" data-name="Ellipse 28" cx="3.708" cy="3.708" r="3.708" transform="translate(4.243 4.519)" fill="#eac6bb"/>
      </g>
    </g>
    <g id="_1" data-name="1" transform="translate(22 -19.013)">
      <path id="Path_5320-3" data-name="Path 5320" d="M55.981,27.4H33.7a1.7,1.7,0,1,1,0-3.4H55.981a1.7,1.7,0,1,1,0,3.4Z" transform="translate(-10.424 -23.601)" fill="#ccd1d9"/>
      <path id="Path_5321-3" data-name="Path 5321" d="M55.981,30.4H33.7a1.7,1.7,0,1,1,0-3.4H55.981a1.7,1.7,0,1,1,0,3.4Z" transform="translate(-10.424 -21.369)" fill="#ccd1d9"/>
      <path id="Path_5322-3" data-name="Path 5322" d="M45.589,33.4H33.7a1.7,1.7,0,1,1,0-3.4H45.589a1.7,1.7,0,1,1,0,3.4Z" transform="translate(-10.424 -19.138)" fill="#ccd1d9"/>
      <g id="Group_781-3" data-name="Group 781" transform="translate(0 0)">
        <ellipse id="Ellipse_30-3" data-name="Ellipse 30" cx="8.5" cy="8" rx="8.5" ry="8" fill="#fefcfc"/>
        <path id="Path_5318-3" data-name="Path 5318" d="M26.1,29a5.086,5.086,0,0,1,5.1,5.079,8.426,8.426,0,0,1-10.192,0A5.1,5.1,0,0,1,26.1,29Z" transform="translate(-18.082 -20.338)" fill="#5d9cec"/>
        <circle id="Ellipse_28-3" data-name="Ellipse 28" cx="3.386" cy="3.386" r="3.386" transform="translate(4.572 3.378)" fill="#eac6bb"/>
      </g>
    </g>
  </g>
</svg>
