<svg xmlns="http://www.w3.org/2000/svg" xmlns:xlink="http://www.w3.org/1999/xlink" width="77.128" height="77" viewBox="0 0 77.128 77">
  <defs>
    <linearGradient id="linear-gradient" x1="-0.35" y1="1.21" x2="1.493" y2="-0.33" gradientUnits="objectBoundingBox">
      <stop offset="0.229" stop-color="#4f2428"/>
      <stop offset="0.261" stop-color="#582628"/>
      <stop offset="0.315" stop-color="#712b2b"/>
      <stop offset="0.383" stop-color="#9b352f"/>
      <stop offset="0.463" stop-color="#d34234"/>
      <stop offset="0.472" stop-color="#db4435"/>
      <stop offset="0.528" stop-color="#b7392d"/>
      <stop offset="0.651" stop-color="#5f1e19"/>
      <stop offset="0.708" stop-color="#351210"/>
    </linearGradient>
    <linearGradient id="linear-gradient-2" y1="0.5" x2="1" y2="0.5" gradientUnits="objectBoundingBox">
      <stop offset="0.089" stop-color="#cf9f98"/>
      <stop offset="0.111" stop-color="#d3a8a2"/>
      <stop offset="0.19" stop-color="#e3c7c3"/>
      <stop offset="0.27" stop-color="#efe0dd"/>
      <stop offset="0.353" stop-color="#f8f1f0"/>
      <stop offset="0.439" stop-color="#fdfbfb"/>
      <stop offset="0.534" stop-color="#fff"/>
      <stop offset="0.611" stop-color="#fdfbfb"/>
      <stop offset="0.676" stop-color="#f8f2f1"/>
      <stop offset="0.735" stop-color="#f0e2e0"/>
      <stop offset="0.792" stop-color="#e5cbc7"/>
      <stop offset="0.847" stop-color="#d6aea8"/>
      <stop offset="0.872" stop-color="#cf9f98"/>
    </linearGradient>
    <filter id="Path_3937" x="0" y="18.426" width="76.693" height="57.452" filterUnits="userSpaceOnUse">
      <feOffset dx="-1" dy="2" input="SourceAlpha"/>
      <feGaussianBlur stdDeviation="1" result="blur"/>
      <feFlood flood-opacity="0.89"/>
      <feComposite operator="in" in2="blur"/>
      <feComposite in="SourceGraphic"/>
    </filter>
    <filter id="Ellipse_42" x="27.458" y="5.482" width="20.213" height="20.171" filterUnits="userSpaceOnUse">
      <feOffset dx="-2" dy="3" input="SourceAlpha"/>
      <feGaussianBlur stdDeviation="1" result="blur-2"/>
      <feFlood flood-opacity="0.851"/>
      <feComposite operator="in" in2="blur-2"/>
      <feComposite in="SourceGraphic"/>
    </filter>
  </defs>
  <g id="Group_7650" data-name="Group 7650" transform="translate(1.128)">
    <ellipse id="Ellipse_41" data-name="Ellipse 41" cx="38" cy="38.5" rx="38" ry="38.5" fill="url(#linear-gradient)"/>
    <g id="Group_1861" data-name="Group 1861" transform="translate(2.872 5.482)">
      <g transform="matrix(1, 0, 0, 1, -4, -5.48)" filter="url(#Path_3937)">
        <path id="Path_3937-2" data-name="Path 3937" d="M163.314,123.394l7.8-.134.941-28.677s7.794-.8,20.562,14.473c0-2.949-.4-10.453-9-16.483,0,0,5.241-2.948,17.337,4.691,0,0,1.881-6.567-16.262-12.865,0,0,3.091-2.413,17.741.4,0,0-1.21-8.04-24.461-8.576a9.785,9.785,0,0,1,5.376-3.216,10.517,10.517,0,0,0-11.63,1.616,10.3,10.3,0,0,0-.783.749,4.863,4.863,0,0,1-3.631,1.189h-.077a4.668,4.668,0,0,1-3.543-1.713c-.933-1.131-4.179-3.929-12.458-1.974,0,0,4.57,1.206,4.839,3.216,0,0-18.413-.67-24.326,7.906,0,0,13.439-3.619,18.009.267a29.046,29.046,0,0,0-17.069,12.865A47.742,47.742,0,0,1,150.816,91.9s-8.6,6.567-8.871,17.287c0,0,10.886-13.8,20.966-14.07Z" transform="translate(-127.73 -52.52)" fill="url(#linear-gradient-2)"/>
      </g>
      <g transform="matrix(1, 0, 0, 1, -4, -5.48)" filter="url(#Ellipse_42)">
        <ellipse id="Ellipse_42-2" data-name="Ellipse 42" cx="7.106" cy="7.086" rx="7.106" ry="7.086" transform="translate(32.46 5.48)" fill="#fff"/>
      </g>
    </g>
  </g>
</svg>
