<svg xmlns="http://www.w3.org/2000/svg" xmlns:xlink="http://www.w3.org/1999/xlink" width="60" height="60" viewBox="0 0 60 60">
  <defs>
    <linearGradient id="linear-gradient" x1="0.5" x2="0.5" y2="1" gradientUnits="objectBoundingBox">
      <stop offset="0" stop-color="#4990e1"/>
      <stop offset="1" stop-color="#79b1f1"/>
    </linearGradient>
  </defs>
  <g id="super-organized-platform-icon" transform="translate(-210 -11.006)">
    <path id="Union_5" data-name="Union 5" d="M-3952.125-1413.244a1.876,1.876,0,0,1-1.875-1.875,1.876,1.876,0,0,1,1.875-1.875h16.25a1.876,1.876,0,0,1,1.875,1.875,1.876,1.876,0,0,1-1.875,1.875Zm-37.5,0a4.4,4.4,0,0,1-4.375-4.375v-27a4.4,4.4,0,0,1,4.375-4.374h26.25a4.4,4.4,0,0,1,4.375,4.374v27a4.4,4.4,0,0,1-4.375,4.375Zm4.554-11.45v1.057a2.159,2.159,0,0,0,2.142,2.143h12.858a2.159,2.159,0,0,0,2.142-2.143v-1.057c0-2.972-2.685-5.373-6-5.373h-5.142C-3982.386-1430.067-3985.071-1427.666-3985.071-1424.694Zm4.285-12.515a4.28,4.28,0,0,0,4.286,4.286,4.281,4.281,0,0,0,4.286-4.286,4.281,4.281,0,0,0-4.286-4.285A4.28,4.28,0,0,0-3980.786-1437.209Zm28.661,15.965a1.876,1.876,0,0,1-1.875-1.875,1.876,1.876,0,0,1,1.875-1.875h16.25a1.876,1.876,0,0,1,1.875,1.875,1.876,1.876,0,0,1-1.875,1.875Zm0-8a1.875,1.875,0,0,1-1.875-1.874,1.876,1.876,0,0,1,1.875-1.875h16.25a1.876,1.876,0,0,1,1.875,1.875,1.876,1.876,0,0,1-1.875,1.874Zm0-8a1.875,1.875,0,0,1-1.875-1.874,1.876,1.876,0,0,1,1.875-1.875h16.25a1.876,1.876,0,0,1,1.875,1.875,1.876,1.876,0,0,1-1.875,1.874Zm0-8a1.876,1.876,0,0,1-1.875-1.875,1.875,1.875,0,0,1,1.875-1.874h16.25a1.876,1.876,0,0,1,1.875,1.874,1.876,1.876,0,0,1-1.875,1.875Z" transform="translate(4204 1484.25)" fill="url(#linear-gradient)"/>
    <path id="Union_6" data-name="Union 6" d="M-3937.2-1434.544l-2.649-2.65a6.2,6.2,0,0,1-2.9.7,6.252,6.252,0,0,1-6.25-6.25,6.252,6.252,0,0,1,6.25-6.25,6.252,6.252,0,0,1,6.251,6.25,6.211,6.211,0,0,1-.7,2.9l2.65,2.647a1.876,1.876,0,0,1,0,2.653,1.862,1.862,0,0,1-1.325.549A1.87,1.87,0,0,1-3937.2-1434.544Zm-8.571-8.2a3.033,3.033,0,0,0,3.023,3.024,3.033,3.033,0,0,0,3.024-3.024,3.033,3.033,0,0,0-3.024-3.025A3.033,3.033,0,0,0-3945.773-1442.745Zm-43.851,8.75a4.38,4.38,0,0,1-4.375-4.374v-6.251a4.379,4.379,0,0,1,4.375-4.374h31.25a4.378,4.378,0,0,1,4.375,4.374v6.251a4.379,4.379,0,0,1-4.375,4.374Z" transform="translate(4204 1460)" fill="#3e74b3"/>
  </g>
</svg>
