<svg xmlns="http://www.w3.org/2000/svg" width="260.001" height="256" viewBox="0 0 260.001 256">
  <g id="survey-vector" transform="translate(0.001)">
    <g id="Group_3369" data-name="Group 3369" transform="translate(0 87.936)">
      <path id="Path_13531" data-name="Path 13531" d="M46.98,236.9h56.794V199.77H46.98Z" transform="translate(-46.98 -199.77)" fill="#dbdbdb"/>
      <path id="Path_13532" data-name="Path 13532" d="M135.63,210.725V199.77h11.4Z" transform="translate(-78.835 -199.77)" fill="#dbdbdb"/>
      <rect id="Rectangle_517" data-name="Rectangle 517" width="43.245" height="0.705" transform="translate(6.779 6.426)" fill="#fff"/>
      <rect id="Rectangle_518" data-name="Rectangle 518" width="21.513" height="0.705" transform="translate(6.779 10.232)" fill="#fff"/>
      <rect id="Rectangle_519" data-name="Rectangle 519" width="34.64" height="0.705" transform="translate(6.779 17.855)" fill="#fff"/>
      <rect id="Rectangle_520" data-name="Rectangle 520" width="43.245" height="0.705" transform="translate(6.779 21.661)" fill="#fff"/>
      <rect id="Rectangle_521" data-name="Rectangle 521" width="43.245" height="0.705" transform="translate(6.779 25.473)" fill="#fff"/>
      <rect id="Rectangle_522" data-name="Rectangle 522" width="14.248" height="0.705" transform="translate(6.779 29.285)" fill="#fff"/>
    </g>
    <g id="Group_3370" data-name="Group 3370" transform="translate(181.146 13.486)">
      <rect id="Rectangle_523" data-name="Rectangle 523" width="56.794" height="31.328" transform="translate(11.391)" fill="#ebebeb"/>
      <path id="Path_13533" data-name="Path 13533" d="M365.254,93.919V82.97h-11.4Z" transform="translate(-353.85 -82.97)" fill="#ebebeb"/>
      <rect id="Rectangle_524" data-name="Rectangle 524" width="25.748" height="0.705" transform="translate(18.298 5.785)" fill="#fff"/>
      <rect id="Rectangle_525" data-name="Rectangle 525" width="43.245" height="0.705" transform="translate(18.298 9.597)" fill="#fff"/>
      <rect id="Rectangle_526" data-name="Rectangle 526" width="43.245" height="0.705" transform="translate(18.298 13.403)" fill="#fff"/>
      <rect id="Rectangle_527" data-name="Rectangle 527" width="34.954" height="0.705" transform="translate(18.298 17.215)" fill="#fff"/>
      <rect id="Rectangle_528" data-name="Rectangle 528" width="43.245" height="0.705" transform="translate(18.298 21.026)" fill="#fff"/>
      <rect id="Rectangle_529" data-name="Rectangle 529" width="15.908" height="0.705" transform="translate(18.298 24.832)" fill="#fff"/>
    </g>
    <g id="Group_3371" data-name="Group 3371" transform="translate(181.146 49.681)">
      <rect id="Rectangle_530" data-name="Rectangle 530" width="56.794" height="23.237" transform="translate(11.391)" fill="#dbdbdb"/>
      <path id="Path_13534" data-name="Path 13534" d="M365.254,150.729V139.78h-11.4Z" transform="translate(-353.85 -139.78)" fill="#dbdbdb"/>
      <rect id="Rectangle_531" data-name="Rectangle 531" width="43.059" height="0.705" transform="translate(18.298 5.785)" fill="#fff"/>
      <rect id="Rectangle_532" data-name="Rectangle 532" width="24.569" height="0.705" transform="translate(18.298 9.597)" fill="#fff"/>
      <rect id="Rectangle_533" data-name="Rectangle 533" width="33.212" height="0.705" transform="translate(18.298 13.403)" fill="#fff"/>
      <rect id="Rectangle_534" data-name="Rectangle 534" width="11.57" height="0.705" transform="translate(18.298 17.215)" fill="#fff"/>
    </g>
    <g id="Group_3372" data-name="Group 3372" transform="translate(0 70.134)">
      <path id="Path_13535" data-name="Path 13535" d="M51.823,171.81l1.493,3.03,3.344.487-2.422,2.358.577,3.331-2.992-1.576-2.992,1.576.57-3.331-2.422-2.358,3.344-.487Z" transform="translate(-46.98 -171.81)" fill="#f9ad24"/>
      <path id="Path_13536" data-name="Path 13536" d="M72.377,171.81l1.5,3.03,3.338.487L74.8,177.685l.57,3.331-2.992-1.576-2.992,1.576.577-3.331-2.422-2.358,3.344-.487Z" transform="translate(-54.368 -171.81)" fill="#f9ad24"/>
      <path id="Path_13537" data-name="Path 13537" d="M92.933,171.81l1.493,3.03,3.344.487-2.422,2.358.57,3.331-2.985-1.576-2.992,1.576.57-3.331-2.422-2.358,3.344-.487Z" transform="translate(-61.752 -171.81)" fill="#f9ad24"/>
      <path id="Path_13538" data-name="Path 13538" d="M113.487,171.81l1.493,3.03,3.344.487-2.415,2.358.57,3.331-2.992-1.576-2.992,1.576.57-3.331-2.415-2.358,3.344-.487Z" transform="translate(-69.14 -171.81)" fill="#c7c7c7"/>
      <path id="Path_13539" data-name="Path 13539" d="M134.037,171.81l1.5,3.03,3.344.487-2.422,2.358.57,3.331-2.992-1.576-2.985,1.576.57-3.331-2.422-2.358,3.344-.487Z" transform="translate(-76.525 -171.81)" fill="#c7c7c7"/>
    </g>
    <g id="Group_3373" data-name="Group 3373" transform="translate(6.529 4.508)">
      <circle id="Ellipse_96" data-name="Ellipse 96" cx="21.481" cy="21.481" r="21.481" transform="translate(0 6.891) rotate(-9.23)" fill="#ebebeb"/>
      <path id="Path_13540" data-name="Path 13540" d="M130.685,93.692a3.024,3.024,0,1,1-3.786-1.98,3.024,3.024,0,0,1,3.786,1.98Z" transform="translate(-94.63 -77.084)" fill="#c7c7c7"/>
      <path id="Path_13541" data-name="Path 13541" d="M100.125,103.282a3.024,3.024,0,1,1-3.786-1.98,3.024,3.024,0,0,1,3.786,1.98Z" transform="translate(-83.648 -80.53)" fill="#c7c7c7"/>
      <path id="Path_13542" data-name="Path 13542" d="M105.46,99.933a6.8,6.8,0,0,0,2.857,2.563,5.247,5.247,0,0,0,3.607.077,5.068,5.068,0,0,0,2.934-2.076,7.444,7.444,0,0,0,1.076-3.7,5.811,5.811,0,0,1-.391,4.094,4.991,4.991,0,0,1-1.384,1.679,6.407,6.407,0,0,1-1.922.974,6.7,6.7,0,0,1-2.146.263,4.991,4.991,0,0,1-2.1-.641,5.426,5.426,0,0,1-2.536-3.233Z" transform="translate(-87.689 -78.962)" fill="#c7c7c7"/>
    </g>
    <g id="Group_3374" data-name="Group 3374" transform="translate(184.3 116.105)">
      <circle id="Ellipse_97" data-name="Ellipse 97" cx="21.481" cy="21.481" r="21.481" transform="translate(0 42.011) rotate(-77.92)" fill="#ebebeb"/>
      <path id="Path_13543" data-name="Path 13543" d="M426.7,284.03a3.018,3.018,0,1,1,.1-2.315,3.018,3.018,0,0,1-.1,2.315Z" transform="translate(-387.376 -256.828)" fill="#c7c7c7"/>
      <path id="Path_13544" data-name="Path 13544" d="M397.635,270.59a3.018,3.018,0,1,1,.1-2.315,3.018,3.018,0,0,1-.1,2.315Z" transform="translate(-376.934 -251.999)" fill="#c7c7c7"/>
      <path id="Path_13545" data-name="Path 13545" d="M410.613,282.809A6.8,6.8,0,0,0,410.2,279a5.254,5.254,0,0,0-2.614-2.486,5.125,5.125,0,0,0-3.569-.436,7.49,7.49,0,0,0-3.28,2.018,5.8,5.8,0,0,1,3.037-2.768,5.023,5.023,0,0,1,2.159-.314,6.405,6.405,0,0,1,2.1.589,6.732,6.732,0,0,1,1.762,1.249,4.926,4.926,0,0,1,1.14,1.864,5.465,5.465,0,0,1-.32,4.094Z" transform="translate(-380.123 -255.127)" fill="#c7c7c7"/>
    </g>
    <g id="Group_3375" data-name="Group 3375" transform="translate(3.017 227.708)">
      <ellipse id="Ellipse_98" data-name="Ellipse 98" cx="126.985" cy="14.146" rx="126.985" ry="14.146" transform="translate(0 0)" fill="#ebebeb"/>
    </g>
    <g id="Group_3376" data-name="Group 3376" transform="translate(0 227.388)">
      <path id="Path_13546" data-name="Path 13546" d="M46.98,418.634l32.5-.154,32.5-.058,65-.1,65,.1,32.5.058,32.5.154-32.5.16-32.5.058-65,.1-65-.1-32.5-.058Z" transform="translate(-46.98 -418.32)" fill="#263238"/>
    </g>
    <g id="Group_3385" data-name="Group 3385" transform="translate(41.757)">
      <path id="Path_13547" data-name="Path 13547" d="M415.015,424.12c-1.224.416-36.146.538-37.479-.3-.641-.384-.955-7.81-1.147-15.651l22.724-.147-.09,4.1s13.39,5.933,14.735,7.009S416.233,423.71,415.015,424.12Z" transform="translate(-230.3 -187.231)" fill="#fff"/>
      <path id="Path_13548" data-name="Path 13548" d="M415.08,426.43c-1.224.416-36.146.538-37.479-.3-.513-.314-.826-5.4-1.031-11.532l22.519-.147s13.39,5.932,14.735,7.009S416.3,426.02,415.08,426.43Z" transform="translate(-230.365 -189.541)" fill="#d72027"/>
      <path id="Path_13549" data-name="Path 13549" d="M416.082,430.965c-5.856-.128-29.47-.07-35.281.256-.045,0-.045.032,0,.032,5.8.25,29.425,0,35.281-.192C416.2,431.041,416.2,430.965,416.082,430.965Z" transform="translate(-231.873 -195.453)" fill="#263238"/>
      <path id="Path_13550" data-name="Path 13550" d="M428.559,423.409a4.715,4.715,0,0,0-3.5,1.441,4.536,4.536,0,0,0-1.281,3.133c0,.032.064.038.07,0a5.433,5.433,0,0,1,4.722-4.485.045.045,0,0,0-.013-.09Z" transform="translate(-247.329 -192.76)" fill="#263238"/>
      <path id="Path_13551" data-name="Path 13551" d="M411.6,415.32c-2.338,0-5.055.814-6.5,2.729-.058.077.051.154.122.122a32.166,32.166,0,0,1,6.407-2.563.147.147,0,0,0-.026-.288Z" transform="translate(-240.611 -189.854)" fill="#263238"/>
      <path id="Path_13552" data-name="Path 13552" d="M414.433,416.41c-2.345,0-5.055.814-6.5,2.736-.058.07.045.147.115.115a32.081,32.081,0,0,1,6.407-2.563.147.147,0,0,0-.019-.288Z" transform="translate(-241.628 -190.246)" fill="#263238"/>
      <path id="Path_13553" data-name="Path 13553" d="M417.261,417.5c-2.345,0-5.055.814-6.509,2.736-.051.07.051.154.122.115a32.175,32.175,0,0,1,6.406-2.563.147.147,0,0,0-.019-.288Z" transform="translate(-242.643 -190.637)" fill="#263238"/>
      <path id="Path_13554" data-name="Path 13554" d="M420.09,418.59c-2.345,0-5.061.814-6.509,2.736-.058.07.051.154.122.115a32.175,32.175,0,0,1,6.407-2.563.147.147,0,0,0-.019-.288Z" transform="translate(-243.658 -191.029)" fill="#263238"/>
      <path id="Path_13555" data-name="Path 13555" d="M382.018,422.69c-2.633,0-2.607,4.1,0,4.087S384.651,422.671,382.018,422.69Z" transform="translate(-231.616 -192.502)" fill="#263238"/>
      <path id="Path_13556" data-name="Path 13556" d="M416.086,405.313c-1.185-.98-2.678,0-3.408,1.012a12.34,12.34,0,0,0-2.108,6c0,.045.038.064.077.064a.288.288,0,0,0,.423.186c1.659-1.16,3.588-2.191,4.843-3.844C416.65,407.792,417.214,406.248,416.086,405.313Zm-2.857,4.991c-.8.589-1.634,1.14-2.415,1.762.416-1.172.775-2.351,1.281-3.479a13.463,13.463,0,0,1,.852-1.582c.506-.775,2.8-2.742,3.043-.192.16,1.4-1.8,2.787-2.761,3.487Z" transform="translate(-242.582 -186.112)" fill="#263238"/>
      <path id="Path_13557" data-name="Path 13557" d="M400.074,415.6c2.044.308,4.145-.282,6.15-.6a.288.288,0,0,0,.173-.429.064.064,0,0,0,0-.1,12.32,12.32,0,0,0-5.683-2.864c-1.23-.237-2.979.1-3.152,1.634S398.882,415.417,400.074,415.6Zm-1.422-1.326c-1.589-2.005,1.429-2.178,2.332-1.967a13.616,13.616,0,0,1,1.711.551,36.828,36.828,0,0,1,3.351,1.6c-.993.1-1.973.275-2.96.41-1.18.171-3.557.511-4.435-.6Z" transform="translate(-237.903 -188.497)" fill="#263238"/>
      <path id="Path_13558" data-name="Path 13558" d="M384.981,351.512l-26.863.506s-6.823-56.468-7.131-57.858c-.73-3.242-16.407-54.648-16.407-54.648l27.516-.032s-.448,8.591-.186,9.495c3.658,12.442,11.135,34.512,13.454,42.194C378.965,303,384.981,351.512,384.981,351.512Z" transform="translate(-215.276 -126.667)" fill="#37474f"/>
      <path id="Path_13559" data-name="Path 13559" d="M397.984,407.572c-4.049-.032-18.406-.192-23.8.307-.038,0-.038.077,0,.083,1.858.263,19.752-.154,23.807-.282a.058.058,0,1,0-.006-.109Z" transform="translate(-229.497 -187.052)" fill="#263238"/>
      <path id="Path_13560" data-name="Path 13560" d="M363.162,332.6q-.98-9.386-2.018-18.778a133.729,133.729,0,0,0-2.857-18.233c-.756-2.979-1.711-5.907-2.678-8.828l-2.96-8.924c-1.992-5.99-3.972-11.993-6.061-17.938-.256-.737-.513-1.467-.775-2.2a.1.1,0,0,0-.186.058c1.813,6.009,3.786,11.98,5.766,17.939l2.941,8.969c.961,2.928,1.922,5.856,2.787,8.828a108.958,108.958,0,0,1,3.069,18.169q1.012,9.379,2.037,18.752c.679,6.259,1.358,12.538,2.262,18.771.109.775.211,1.55.314,2.326,0,.077.135.083.128,0C364.444,345.18,363.835,338.889,363.162,332.6Z" transform="translate(-219.244 -133.187)" fill="#263238"/>
      <path id="Path_13561" data-name="Path 13561" d="M356.406,239.49l-4.485,61.958c-.532-4.209-.891-7-.955-7.284-.73-3.242-16.407-54.648-16.407-54.648Z" transform="translate(-215.269 -126.313)" fill="#263238"/>
      <path id="Path_13562" data-name="Path 13562" d="M347.06,424.929c-1.281.231-36.716-4.978-37.921-6a.48.48,0,0,1-.109-.224c-.263-1.115,1.025-5.548,1.647-11.1,0-.1.307-1.832.717-4.292l22.423,3.28-.858,4.139s12.39,7.816,13.582,9.072S348.322,424.7,347.06,424.929Z" transform="translate(-206.082 -185.542)" fill="#fff"/>
      <path id="Path_13563" data-name="Path 13563" d="M347.039,427.341c-1.281.231-36.723-4.978-37.921-6-.455-.391-.09-5.125,1.538-11.314l22.3,3.12s12.39,7.81,13.588,9.072S348.3,427.11,347.039,427.341Z" transform="translate(-206.062 -187.953)" fill="#d72027"/>
      <path id="Path_13564" data-name="Path 13564" d="M348.321,432.053c-5.766-.967-29.156-4.337-34.942-4.863-.045,0-.051.032,0,.038,5.708,1.089,29.118,4.267,34.935,4.92C348.43,432.194,348.443,432.072,348.321,432.053Z" transform="translate(-207.645 -194.119)" fill="#263238"/>
      <path id="Path_13565" data-name="Path 13565" d="M361.407,426.583a4.7,4.7,0,0,0-3.665.923A4.588,4.588,0,0,0,356,430.415s.064.045.07,0a5.439,5.439,0,0,1,5.33-3.767.038.038,0,0,0,.006-.064Z" transform="translate(-222.973 -193.878)" fill="#263238"/>
      <path id="Path_13566" data-name="Path 13566" d="M345.964,416.233c-2.313-.365-5.125.07-6.836,1.762-.064.064.032.16.1.135a32.42,32.42,0,0,1,6.733-1.608.147.147,0,0,0,0-.288Z" transform="translate(-216.903 -190.139)" fill="#263238"/>
      <path id="Path_13567" data-name="Path 13567" d="M348.6,417.723c-2.313-.365-5.125.07-6.836,1.762-.064.064.032.16.1.135a32.426,32.426,0,0,1,6.733-1.608.147.147,0,0,0,0-.288Z" transform="translate(-217.851 -190.674)" fill="#263238"/>
      <path id="Path_13568" data-name="Path 13568" d="M351.244,419.213c-2.313-.365-5.125.071-6.836,1.762-.064.064.032.154.1.128a32.727,32.727,0,0,1,6.733-1.6.147.147,0,0,0,0-.288Z" transform="translate(-218.8 -191.21)" fill="#263238"/>
      <path id="Path_13569" data-name="Path 13569" d="M353.881,420.7c-2.313-.365-5.125.07-6.836,1.762-.064.064,0,.154.1.128a32.3,32.3,0,0,1,6.733-1.6.147.147,0,0,0,0-.288Z" transform="translate(-219.746 -191.745)" fill="#263238"/>
      <path id="Path_13570" data-name="Path 13570" d="M315.664,418.917c-2.6-.365-3.171,3.684-.564,4.049S318.271,419.282,315.664,418.917Z" transform="translate(-207.667 -191.138)" fill="#263238"/>
      <path id="Path_13571" data-name="Path 13571" d="M351.469,406.872c-1.031-1.147-2.646-.4-3.517.506A12.307,12.307,0,0,0,345,413a.058.058,0,0,0,.064.077.282.282,0,0,0,.391.25c1.813-.9,3.844-1.653,5.35-3.088C351.667,409.4,352.449,407.949,351.469,406.872ZM347.92,411.4c-.878.468-1.781.884-2.646,1.384a36.684,36.684,0,0,1,1.8-3.248,13.11,13.11,0,0,1,1.07-1.441c.641-.7,3.171-2.306,3.037.25-.071,1.409-2.211,2.5-3.262,3.06Z" transform="translate(-219.018 -186.608)" fill="#263238"/>
      <path id="Path_13572" data-name="Path 13572" d="M334.56,414.551c1.973.6,4.139.32,6.169.3a.3.3,0,0,0,.237-.4.058.058,0,0,0,0-.1,12.268,12.268,0,0,0-5.2-3.652c-1.192-.41-2.966-.333-3.364,1.16S333.4,414.2,334.56,414.551Zm-1.211-1.518c-1.281-2.217,1.723-1.922,2.563-1.614a13.883,13.883,0,0,1,1.608.794,37.082,37.082,0,0,1,3.088,2.069c-.993-.051-1.986,0-2.986,0-1.165-.039-3.581-.033-4.273-1.25Z" transform="translate(-214.468 -188.117)" fill="#263238"/>
      <path id="Path_13573" data-name="Path 13573" d="M335.6,351.563l-25.671-4s7.97-33,9.45-42.873c1.281-8.642.826-41.745.365-44-1.582-7.854-1.076-15.017,3.665-21.212h27.548a45.228,45.228,0,0,1-4.126,10.206s-2.563,1.614-3.684,2.255c0,0,1.128,44.526.243,54.027C342.238,317.974,335.6,351.563,335.6,351.563Z" transform="translate(-206.418 -126.668)" fill="#37474f"/>
      <path id="Path_13574" data-name="Path 13574" d="M335.763,405.278c-3.773-.641-2.678-.513-6.458-1.121-1.845-.3-13.992-2.23-15.767-2.2a.038.038,0,0,0,0,.077c1.685.545,13.864,2.261,15.722,2.524,3.786.532,2.7.34,6.5.826a.058.058,0,0,0,.006-.109Z" transform="translate(-207.701 -185.053)" fill="#263238"/>
      <path id="Path_13575" data-name="Path 13575" d="M363.827,254.926a47.625,47.625,0,0,0-6.906,4.087c-.083.058,0,.192.083.135,2.338-1.281,4.728-2.563,6.99-3.959a.156.156,0,0,0-.167-.263Z" transform="translate(-223.291 -131.75)" fill="#263238"/>
      <path id="Path_13576" data-name="Path 13576" d="M362.6,254.283a10.371,10.371,0,0,0-.333,1.454,3.159,3.159,0,0,0-.077,1.172c0,.07.122.064.154,0a4,4,0,0,0,.384-1.172c.115-.455.243-.9.346-1.358C363.142,254.1,362.7,254,362.6,254.283Z" transform="translate(-225.188 -131.461)" fill="#263238"/>
      <path id="Path_13577" data-name="Path 13577" d="M362.332,249.256c.07-.41.135-.82.211-1.23s.179-.846.224-1.281c0-.07.115-.051.1,0-.064.41-.07.833-.1,1.281s-.077.833-.115,1.243c-.077.775-.211,1.557-.365,2.319a2.743,2.743,0,0,0,1.128-.468,2.14,2.14,0,0,0,.609-1.179c.122-.474.224-.948.346-1.416a8.722,8.722,0,0,0,.365-1.57c0-.07.109-.045.1,0a16.792,16.792,0,0,1-.641,3.312,1.807,1.807,0,0,1-.641,1.1,3.537,3.537,0,0,1-1.377.4c-.051.032-.135,0-.128-.064a24.554,24.554,0,0,1,.282-2.447Z" transform="translate(-225.147 -128.783)" fill="#263238"/>
      <path id="Path_13578" data-name="Path 13578" d="M340.631,246.428c0-.045-.07-.058-.1,0a4.331,4.331,0,0,0-.231,1.326,9.75,9.75,0,0,1-.333,1.422,5.618,5.618,0,0,1-1.48,2.479,12,12,0,0,1-5.606,2.473.064.064,0,0,0,0,.122,8.969,8.969,0,0,0,3.479-.545,7.3,7.3,0,0,0,2.684-1.5,5,5,0,0,0,1.448-2.627,8.865,8.865,0,0,0,.167-1.6v-.769a1.96,1.96,0,0,0-.028-.781Z" transform="translate(-214.651 -128.677)" fill="#263238"/>
      <path id="Path_13579" data-name="Path 13579" d="M327.138,243.092c0-.051-.051-.1-.07-.045a36.472,36.472,0,0,0-2.979,8.649,15.978,15.978,0,0,0-.16,4.523c.179,1.582.577,3.12.871,4.683a52.634,52.634,0,0,1,.711,9.937c0,3.357-.064,6.72-.1,10.078-.07,6.708,0,13.415-.186,20.123a59.366,59.366,0,0,1-1.07,9.981c-.641,3.293-1.416,6.567-2.133,9.847q-2.159,9.86-4.216,19.745l-.5,2.434c0,.064.083.083.1,0,1.512-6.522,2.966-13.057,4.427-19.591q1.083-4.9,2.14-9.789a64.171,64.171,0,0,0,1.474-9.61c.2-3.312.16-6.644.192-9.962l.09-10.02q.038-5.061.07-10.129a91.56,91.56,0,0,0-.256-9.834,41.763,41.763,0,0,0-.75-4.632,24.024,24.024,0,0,1-.692-4.952,25.646,25.646,0,0,1,2.1-9.142C326.516,244.623,326.83,243.861,327.138,243.092Z" transform="translate(-209.07 -127.941)" fill="#263238"/>
      <path id="Path_13580" data-name="Path 13580" d="M362.273,270.616c-.167-3.844-.2-8.239-.506-12.057a.07.07,0,1,0-.135,0c-.058,6.778.083,14.139.2,20.918s.179,13.563.154,20.341c0,3.844-.051,7.649,0,11.474a.058.058,0,1,0,.115,0c.333-3.4.5-6.8.6-10.212s.141-6.759.1-10.135C362.722,284.172,362.568,277.388,362.273,270.616Z" transform="translate(-224.992 -133.165)" fill="#263238"/>
      <path id="Path_13581" data-name="Path 13581" d="M359.541,227.7c-.7.436-34.243-5.177-34.365-5.439-.32-.718,10.02-22.148,15.69-29.72,3.607-4.811,8.181-8.969,11.993-10.148,3-.942,7.361.589,7.823,2.409C364.07,198.207,360.143,227.312,359.541,227.7Z" transform="translate(-211.894 -105.47)" fill="#d72027"/>
      <g id="Group_3377" data-name="Group 3377" transform="translate(113.455 76.637)" opacity="0.1">
        <path id="Path_13582" data-name="Path 13582" d="M326.552,239.58v3.62c-.525-.1-.9-.179-1.1-.231v-.756c.09-.263.224-.589.378-.98l.2-.474C326.187,240.4,326.36,240.009,326.552,239.58Z" transform="translate(-325.45 -202.761)"/>
        <path id="Path_13583" data-name="Path 13583" d="M329.844,233.27v8.008l-.474-.083v-6.932l.077-.167Z" transform="translate(-326.859 -200.494)"/>
        <path id="Path_13584" data-name="Path 13584" d="M333.386,225.37v13.511l-1.1-.186V227.548l.109-.218.231-.468.718-1.416Z" transform="translate(-327.908 -197.655)"/>
        <path id="Path_13585" data-name="Path 13585" d="M336.738,219.72V237.2l-.468-.083V220.6c0-.058.058-.109.083-.167Z" transform="translate(-329.338 -195.625)"/>
        <path id="Path_13586" data-name="Path 13586" d="M340.276,212.5v22.519l-1.1-.186V214.48l.308-.564.263-.474Z" transform="translate(-330.384 -193.03)"/>
        <path id="Path_13587" data-name="Path 13587" d="M343.568,207.38v26.113l-.468-.077V208.174c.1-.167.2-.333.288-.493Z" transform="translate(-331.792 -191.19)"/>
        <path id="Path_13588" data-name="Path 13588" d="M347.136,201.12v30.54l-1.1-.179V202.8l.231-.359Q346.713,201.754,347.136,201.12Z" transform="translate(-332.849 -188.941)"/>
        <path id="Path_13589" data-name="Path 13589" d="M350.428,197.06v33.455l-.468-.083v-32.77Z" transform="translate(-334.257 -187.482)"/>
        <path id="Path_13590" data-name="Path 13590" d="M354,192.51v36.774l-1.1-.179v-35.39l.154-.173c.135-.16.276-.314.416-.468S353.816,192.7,354,192.51Z" transform="translate(-335.314 -185.847)"/>
        <path id="Path_13591" data-name="Path 13591" d="M357.294,189.57v38.965a3.169,3.169,0,0,1-.474-.077v-38.44a6.1,6.1,0,0,1,.474-.448Z" transform="translate(-336.723 -184.791)"/>
        <path id="Path_13592" data-name="Path 13592" d="M360.862,186.31v41.444l-1.1-.173V187.168l.3-.25c.2-.16.4-.32.609-.468a1.83,1.83,0,0,1,.192-.141Z" transform="translate(-337.779 -183.619)"/>
        <path id="Path_13593" data-name="Path 13593" d="M364.154,184.35v42.988l-.474-.071V184.638Z" transform="translate(-339.188 -182.915)"/>
        <path id="Path_13594" data-name="Path 13594" d="M367.726,182.57v44.481l-1.1-.16v-43.9a9.925,9.925,0,0,1,1.012-.391Z" transform="translate(-340.248 -182.275)"/>
        <path id="Path_13595" data-name="Path 13595" d="M371.018,182.11v45.083l-.468-.07V182.136a3.748,3.748,0,0,1,.468-.026Z" transform="translate(-341.656 -182.11)"/>
        <path id="Path_13596" data-name="Path 13596" d="M374.586,182.464v45.109l-.3-.038c-.25-.032-.519-.064-.8-.109V182.24A8.731,8.731,0,0,1,374.586,182.464Z" transform="translate(-342.713 -182.157)"/>
        <path id="Path_13597" data-name="Path 13597" d="M377.878,183.6v44.564l-.468-.032V183.36C377.57,183.437,377.73,183.52,377.878,183.6Z" transform="translate(-344.121 -182.559)"/>
        <path id="Path_13598" data-name="Path 13598" d="M381.489,191.644v21.411c-.038.474-.077.948-.109,1.416l-.1,1.1c-.038.48-.083.955-.128,1.416a1.679,1.679,0,0,1-.045.474c-.045.48-.09.948-.135,1.409s-.077.743-.122,1.1c-.051.48-.1.955-.154,1.409l-.058.474c-.058.493-.115.967-.173,1.416V185.66a1.4,1.4,0,0,1,.16.384.922.922,0,0,1,0,.141l.115.468c.1.455.2.929.288,1.416.064.359.128.724.186,1.1s.135.929.2,1.416l.058.468Z" transform="translate(-345.221 -183.386)"/>
      </g>
      <g id="Group_3378" data-name="Group 3378" transform="translate(113.276 76.957)" opacity="0.11">
        <path id="Path_13599" data-name="Path 13599" d="M373.814,183.706H364.48a14.03,14.03,0,0,1,1.377-.7,9.924,9.924,0,0,1,1.012-.391h4.536a9.146,9.146,0,0,1,1.358.48c.16.077.32.16.468.243a5.685,5.685,0,0,1,.583.368Z" transform="translate(-339.296 -182.61)"/>
        <path id="Path_13600" data-name="Path 13600" d="M373.428,187h-13.2c.2-.16.4-.32.609-.468h12.474Z" transform="translate(-337.769 -184.019)"/>
        <path id="Path_13601" data-name="Path 13601" d="M372.346,190.566H355.9c.186-.2.391-.4.589-.583s.314-.308.474-.448l.07-.064H372.16C372.224,189.81,372.288,190.194,372.346,190.566Z" transform="translate(-336.213 -185.075)"/>
        <path id="Path_13602" data-name="Path 13602" d="M371.63,193.858H353.14c.135-.16.275-.314.416-.468h18Z" transform="translate(-335.221 -186.484)"/>
        <path id="Path_13603" data-name="Path 13603" d="M370.7,197.4H349.94l.468-.609.378-.468h19.8C370.64,196.685,370.665,197.05,370.7,197.4Z" transform="translate(-334.071 -187.537)"/>
        <path id="Path_13604" data-name="Path 13604" d="M370.058,200.734H347.84c.1-.16.211-.32.32-.474h21.879Z" transform="translate(-333.317 -188.952)"/>
        <path id="Path_13605" data-name="Path 13605" d="M369.255,204.292H345.32l.461-.743.231-.359h23.2Z" transform="translate(-332.411 -190.005)"/>
        <path id="Path_13606" data-name="Path 13606" d="M368.645,207.584h-25.1l.179-.3a1.924,1.924,0,0,0,.1-.173h24.806C368.645,207.27,368.645,207.424,368.645,207.584Z" transform="translate(-331.775 -191.414)"/>
        <path id="Path_13607" data-name="Path 13607" d="M367.843,210.06v1.1H341.3c.2-.372.416-.737.641-1.1Z" transform="translate(-330.967 -192.474)"/>
        <path id="Path_13608" data-name="Path 13608" d="M367.228,214v.474H339.68l.263-.474Z" transform="translate(-330.384 -193.89)"/>
        <path id="Path_13609" data-name="Path 13609" d="M366.4,216.92a8.946,8.946,0,0,1-.045,1.1H337.53c.2-.365.4-.73.589-1.1Z" transform="translate(-329.612 -194.939)"/>
        <path id="Path_13610" data-name="Path 13610" d="M365.752,220.84v.468H336l.16-.3c0-.058.058-.109.083-.167Z" transform="translate(-329.062 -196.348)"/>
        <path id="Path_13611" data-name="Path 13611" d="M364.931,223.78c0,.372-.045.73-.064,1.1H334l.038-.077.525-1.019Z" transform="translate(-328.343 -197.404)"/>
        <path id="Path_13612" data-name="Path 13612" d="M364.209,227.7v.468H332.49l.231-.468Z" transform="translate(-327.801 -198.813)"/>
        <path id="Path_13613" data-name="Path 13613" d="M363.394,230.64l-.1,1.1H330.56l.532-1.1Z" transform="translate(-327.107 -199.869)"/>
        <path id="Path_13614" data-name="Path 13614" d="M362.663,234.56a1.68,1.68,0,0,1-.045.474H329.15c.045-.1.09-.205.141-.308l.077-.167Z" transform="translate(-326.601 -201.278)"/>
        <path id="Path_13615" data-name="Path 13615" d="M361.83,237.5c-.038.372-.077.743-.122,1.1H327.33c.154-.346.32-.718.5-1.1Z" transform="translate(-325.947 -202.334)"/>
        <path id="Path_13616" data-name="Path 13616" d="M361.076,241.42l-.058.474H326l.2-.474Z" transform="translate(-325.469 -203.743)"/>
        <path id="Path_13617" data-name="Path 13617" d="M360.547,244.37v.192c-.045.314-.083.641-.122.9h-31l-1.1-.2-.474-.083-1.409-.263c-.525-.1-.9-.179-1.1-.231a.455.455,0,0,1-.173-.058.481.481,0,0,1,.032-.263Z" transform="translate(-325.171 -204.803)"/>
        <path id="Path_13618" data-name="Path 13618" d="M367.22,248.29a2.742,2.742,0,0,1-.07.468H347.539l-.878-.147-1.1-.179-.846-.141Z" transform="translate(-332.196 -206.211)"/>
        <path id="Path_13619" data-name="Path 13619" d="M373.46,251.23a9.243,9.243,0,0,1-.243,1.1h-2.71c-.25-.032-.519-.064-.8-.109-.442-.051-.91-.122-1.416-.186l-.468-.07-1.416-.211-1.1-.16-1.416-.218-.474-.07-.461-.07Z" transform="translate(-338.75 -207.268)"/>
      </g>
      <path id="Path_13620" data-name="Path 13620" d="M337.711,144.454c-7.22,6.817-18,30.963-17.7,36.2.288,4.843,4.2,7.419,7.432,6.407,7.656-2.409,18.342-10.532,20.5-12.128,3.056-2.262,4.606-6.131-.384-5.535-5.382.641-9.783,1.358-9.783,1.358s4-7.509,4-9.347C341.786,156.774,340.921,141.463,337.711,144.454Z" transform="translate(-210.04 -91.685)" fill="#f7a9a0"/>
      <path id="Path_13621" data-name="Path 13621" d="M335.634,146.08,341,166.754l-2.716,4.26s8.175-1.147,10.52-1.166,2.614,2.076,1.006,4.068-18.579,14.248-23.653,14.357-7.137-4.369-6.977-7.566S326.934,157.81,335.634,146.08Z" transform="translate(-209.737 -92.412)" fill="#d72027"/>
      <g id="Group_3379" data-name="Group 3379" transform="translate(109.412 54.581)" opacity="0.1">
        <path id="Path_13622" data-name="Path 13622" d="M319.883,195.32v6.753a6.1,6.1,0,0,1-.25-.641,8.266,8.266,0,0,1-.487-2.511,3.911,3.911,0,0,1,0-.474v-.09a7.163,7.163,0,0,1,.243-1.326c.077-.327.179-.692.295-1.1Z" transform="translate(-319.139 -164.69)"/>
        <path id="Path_13623" data-name="Path 13623" d="M322.984,187.09v14.5a6.092,6.092,0,0,1-.474-.429V188.314l.429-1.121S322.965,187.128,322.984,187.09Z" transform="translate(-320.35 -161.733)"/>
        <path id="Path_13624" data-name="Path 13624" d="M326.552,177.73v21.725a6.944,6.944,0,0,1-1.1-.365V180.267c.115-.275.231-.551.352-.826l.2-.474Z" transform="translate(-321.407 -158.369)"/>
        <path id="Path_13625" data-name="Path 13625" d="M329.844,171.39v25.966h-.474V172.293h.045C329.556,171.992,329.7,171.691,329.844,171.39Z" transform="translate(-322.815 -156.091)"/>
        <path id="Path_13626" data-name="Path 13626" d="M333.386,163.63v30.348a11.574,11.574,0,0,1-1.1.365V165.751a1.112,1.112,0,0,1,.09-.173c.07-.154.154-.307.237-.468.237-.474.487-.942.737-1.416Z" transform="translate(-323.865 -153.303)"/>
        <path id="Path_13627" data-name="Path 13627" d="M336.738,158.31v32.917l-.468.211V159.13c.064-.109.128-.218.186-.327S336.629,158.477,336.738,158.31Z" transform="translate(-325.295 -151.391)"/>
        <path id="Path_13628" data-name="Path 13628" d="M340.276,151.86v35.749l-.218.122c-.3.167-.589.32-.878.468V153.6q.314-.538.641-1.057c.1-.16.2-.314.3-.474Z" transform="translate(-326.34 -149.073)"/>
        <path id="Path_13629" data-name="Path 13629" d="M343.568,147.51v37.472l-.468.269V148.183l.115-.173Z" transform="translate(-327.749 -147.51)"/>
        <path id="Path_13630" data-name="Path 13630" d="M347.121,154.613v29.938L346,185.23V150.59l.269,1.038.122.474.372,1.416.282,1.1Z" transform="translate(-328.791 -148.617)"/>
        <path id="Path_13631" data-name="Path 13631" d="M350.428,167.507v8.835l-.122.192-.346.532V165.7l.038.154.122.468Z" transform="translate(-330.214 -154.046)"/>
        <path id="Path_13632" data-name="Path 13632" d="M350.428,184.74v10.891l-.468.308V184.8Z" transform="translate(-330.214 -160.888)"/>
        <path id="Path_13633" data-name="Path 13633" d="M353.118,177.879l-.218.34V177.04l.07.269Z" transform="translate(-331.271 -158.121)"/>
        <path id="Path_13634" data-name="Path 13634" d="M354,184.23v9.507c-.359.25-.724.5-1.1.743V184.37l.641-.083Z" transform="translate(-331.271 -160.705)"/>
        <path id="Path_13635" data-name="Path 13635" d="M357.294,183.87v8.412l-.474.34v-8.668Z" transform="translate(-332.679 -160.576)"/>
        <path id="Path_13636" data-name="Path 13636" d="M360.862,183.44v6.842l-1.1.82v-7.547Z" transform="translate(-333.736 -160.421)"/>
        <path id="Path_13637" data-name="Path 13637" d="M364.154,183.2v5.522l-.474.378v-5.868Z" transform="translate(-335.144 -160.335)"/>
        <path id="Path_13638" data-name="Path 13638" d="M367.736,184.184v1.653h-.051a4.887,4.887,0,0,1-.814,1.416h0a2.1,2.1,0,0,1-.211.231V183.3a1.6,1.6,0,0,1,.967.641,1.01,1.01,0,0,1,.109.243Z" transform="translate(-336.215 -160.371)"/>
      </g>
      <g id="Group_3380" data-name="Group 3380" transform="translate(109.412 55.072)" opacity="0.11">
        <path id="Path_13639" data-name="Path 13639" d="M344.532,149.382H342.11c.2-.314.416-.641.641-.929l.115-.173h1.384Z" transform="translate(-327.393 -148.28)"/>
        <path id="Path_13640" data-name="Path 13640" d="M344.332,152.734H340.2c.1-.16.2-.314.3-.474h3.709Z" transform="translate(-326.707 -149.71)"/>
        <path id="Path_13641" data-name="Path 13641" d="M344.127,156.256H337.81c.218-.372.436-.737.641-1.1h5.375Z" transform="translate(-325.848 -150.752)"/>
        <path id="Path_13642" data-name="Path 13642" d="M344.007,159.548H336.12l.077-.141c.064-.109.128-.218.186-.327h7.5Z" transform="translate(-325.241 -152.161)"/>
        <path id="Path_13643" data-name="Path 13643" d="M343.9,163.116H334v-.064l.557-1.031h9.053Z" transform="translate(-324.479 -153.217)"/>
        <path id="Path_13644" data-name="Path 13644" d="M343.832,166.408H332.46c.07-.154.154-.307.237-.468h11Z" transform="translate(-323.926 -154.626)"/>
        <path id="Path_13645" data-name="Path 13645" d="M343.781,169.976H330.5q.256-.545.538-1.1h12.454Z" transform="translate(-323.221 -155.682)"/>
        <path id="Path_13646" data-name="Path 13646" d="M343.771,173.274H329.1c.058-.122.115-.25.179-.378v-.1h14.364Z" transform="translate(-322.718 -157.091)"/>
        <path id="Path_13647" data-name="Path 13647" d="M343.761,176.842H327.29c.16-.365.327-.73.5-1.1h15.69l.218.833Z" transform="translate(-322.068 -158.148)"/>
        <path id="Path_13648" data-name="Path 13648" d="M342.913,179.66l-.308.474H326l.2-.474Z" transform="translate(-321.604 -159.556)"/>
        <path id="Path_13649" data-name="Path 13649" d="M341.121,182.61l-.346.532-.359.564H324.4c.141-.359.3-.724.448-1.1Z" transform="translate(-321.029 -160.616)"/>
        <path id="Path_13650" data-name="Path 13650" d="M363.023,183.917H353.9l.455-.058,1.416-.173.474-.058,1.409-.16,1.1-.115c.513-.051.993-.1,1.409-.122l.474-.032h.641a3.267,3.267,0,0,1,.794.09A1.6,1.6,0,0,1,363.023,183.917Z" transform="translate(-331.63 -160.828)"/>
        <path id="Path_13651" data-name="Path 13651" d="M352.2,186.53a2.077,2.077,0,0,1-.083.314V187H323.18a.159.159,0,0,1,.045-.109,1.976,1.976,0,0,0,.141-.359Z" transform="translate(-320.591 -162.025)"/>
        <path id="Path_13652" data-name="Path 13652" d="M350.725,189.456h0a2.1,2.1,0,0,1-.211.231c-.211.218-.525.506-.923.839H321.71l.4-1.1Z" transform="translate(-320.063 -163.067)"/>
        <path id="Path_13653" data-name="Path 13653" d="M347.438,193.39l-.641.468H320.69l.154-.468Z" transform="translate(-319.696 -164.49)"/>
        <path id="Path_13654" data-name="Path 13654" d="M344.49,196.33l-.6.429-.474.34-.468.327H319.53c.077-.327.179-.692.3-1.1Z" transform="translate(-319.279 -165.546)"/>
        <path id="Path_13655" data-name="Path 13655" d="M340.755,200.25l-.711.474h-20.9a3.911,3.911,0,0,1,0-.474Z" transform="translate(-319.139 -166.955)"/>
        <path id="Path_13656" data-name="Path 13656" d="M337.993,203.19l-.423.263-1.121.679c-.083.058-.173.109-.263.16H319.734a7.9,7.9,0,0,1-.314-1.1Z" transform="translate(-319.24 -168.011)"/>
        <path id="Path_13657" data-name="Path 13657" d="M334.383,207.11l-.641.352-.218.122H321.3a4.41,4.41,0,0,1-.32-.474Z" transform="translate(-319.8 -169.42)"/>
        <path id="Path_13658" data-name="Path 13658" d="M331.676,210.06c-.474.218-.935.41-1.365.57s-.756.269-1.1.365c-.224.064-.442.115-.641.16h-2.217l-.442-.083a6.944,6.944,0,0,1-1.1-.365,6.136,6.136,0,0,1-1.134-.641Z" transform="translate(-320.771 -170.48)"/>
      </g>
      <path id="Path_13659" data-name="Path 13659" d="M346.02,166.592c-.346-1.416-.711-2.832-1.076-4.241s-.743-2.774-1.134-4.152c-.2-.692-.4-1.377-.609-2.063s-.352-1.358-.609-2a.058.058,0,0,0-.1.038c.083.73.295,1.467.448,2.185s.3,1.345.455,2.012c.333,1.422.686,2.838,1.07,4.248s.756,2.768,1.16,4.145a38.868,38.868,0,0,0,1.281,4.043.051.051,0,0,0,.1,0A41.538,41.538,0,0,0,346.02,166.592Z" transform="translate(-218.118 -95.294)" fill="#263238"/>
      <path id="Path_13660" data-name="Path 13660" d="M346.109,185a41.677,41.677,0,0,1-2.37,4.126c-.807,1.236-1.685,2.678-2.62,3.844-.064.077-.186.147-.16,0A47.853,47.853,0,0,1,346.11,185Z" transform="translate(-217.567 -106.461)" fill="#263238"/>
      <path id="Path_13661" data-name="Path 13661" d="M345.12,200.971c.9-.641,1.819-1.281,2.736-1.922l2.761-1.864,2.761-1.852,2.755-1.884c.173-.128.128,0,0,.1-.686.641-1.794,1.506-2.563,2.089-.878.686-1.794,1.32-2.716,1.922s-1.864,1.217-2.825,1.781c-.826.487-1.807,1.166-2.665,1.608C345.254,201.042,345.036,201.1,345.12,200.971Z" transform="translate(-219.056 -109.499)" fill="#263238"/>
      <path id="Path_13662" data-name="Path 13662" d="M359.023,196.61a10.823,10.823,0,0,1-1.749.769,10.588,10.588,0,0,1-1.864.468,10.418,10.418,0,0,1,1.755-.769,17.7,17.7,0,0,1,1.884-.57C359.158,196.488,359.145,196.527,359.023,196.61Z" transform="translate(-222.761 -110.614)" fill="#263238"/>
      <path id="Path_13663" data-name="Path 13663" d="M373.6,182.03c1.525,1.134,1.992,7.009-.794,7.8-3.46.98-6.746-4.734-7.227-6.522S370.324,179.57,373.6,182.03Z" transform="translate(-226.405 -104.968)" fill="#455a64"/>
      <path id="Path_13664" data-name="Path 13664" d="M372.662,185.327c-1.986.218-4.94-3.139-5.952-5.7a40.008,40.008,0,0,1,.865-3.966c.275-1.281.557-2.691.724-4,.032-.269,8,3.024,8,3.024a21.019,21.019,0,0,0-1.422,4.946,3.144,3.144,0,0,0,0,.545v.1C374.9,181.29,374.584,185.089,372.662,185.327Z" transform="translate(-226.822 -101.635)" fill="#f7a9a0"/>
      <path id="Path_13665" data-name="Path 13665" d="M377.354,174.679a21.018,21.018,0,0,0-1.422,4.946,3.2,3.2,0,0,0,0,.551.358.358,0,0,1,0,.083,6.868,6.868,0,0,1-.852-.051c-5.247-.641-5.458-6.58-5.394-8.508C371.166,172.123,377.354,174.679,377.354,174.679Z" transform="translate(-227.888 -101.649)" fill="#263238"/>
      <path id="Path_13666" data-name="Path 13666" d="M368.059,154.745c-1.166,2.845-.41,11.461,1.5,13.544,2.768,3.024,7.688,3.748,10.359.327,2.563-3.312,1.4-14.524-.769-16.452C375.952,149.312,369.789,150.535,368.059,154.745Z" transform="translate(-227.107 -94.03)" fill="#f7a9a0"/>
      <path id="Path_13667" data-name="Path 13667" d="M370.4,178h0" transform="translate(-228.147 -103.918)" fill="none" stroke="#ff98b9" stroke-linecap="round" stroke-linejoin="round" stroke-width="0"/>
      <path id="Path_13668" data-name="Path 13668" d="M378.34,166.89a.04.04,0,0,0-.038.051c.064.583.045,1.281-.461,1.493C378.481,168.319,378.5,167.428,378.34,166.89Z" transform="translate(-230.821 -99.9)" fill="#263238"/>
      <path id="Path_13669" data-name="Path 13669" d="M377.354,166c-.935,0-.852,1.884,0,1.877S378.167,166,377.354,166Z" transform="translate(-230.405 -99.579)" fill="#263238"/>
      <path id="Path_13670" data-name="Path 13670" d="M384.073,166.46a.05.05,0,0,1,.051.051c0,.583.109,1.281.641,1.416v.032C384.118,167.9,384.022,167.011,384.073,166.46Z" transform="translate(-233.057 -99.745)" fill="#263238"/>
      <path id="Path_13671" data-name="Path 13671" d="M384.562,165.477c.935-.115,1.089,1.762.224,1.864S383.781,165.567,384.562,165.477Z" transform="translate(-233.052 -99.387)" fill="#263238"/>
      <path id="Path_13672" data-name="Path 13672" d="M376.209,163.952c.25-.077.474-.192.717-.288a1.281,1.281,0,0,0,.673-.436.41.41,0,0,0-.083-.48.993.993,0,0,0-1-.058,1.454,1.454,0,0,0-.807.641.429.429,0,0,0,.5.621Z" transform="translate(-230.035 -98.341)" fill="#263238"/>
      <path id="Path_13673" data-name="Path 13673" d="M385.037,163.31a7.551,7.551,0,0,1-.756-.16,1.237,1.237,0,0,1-.737-.314.4.4,0,0,1,0-.487.993.993,0,0,1,.974-.224,1.442,1.442,0,0,1,.91.513.423.423,0,0,1-.391.673Z" transform="translate(-232.841 -98.16)" fill="#263238"/>
      <path id="Path_13674" data-name="Path 13674" d="M378.327,175c.147.135.3.314.506.32a1.435,1.435,0,0,0,.641-.173v.032a.775.775,0,0,1-.724.346c-.269-.032-.4-.256-.48-.493C378.263,175,378.308,175,378.327,175Z" transform="translate(-230.975 -102.833)" fill="#263238"/>
      <path id="Path_13675" data-name="Path 13675" d="M379.192,168.657a1.973,1.973,0,0,0,1.365.826,2.649,2.649,0,0,0,.711,0h.263a.141.141,0,0,0,.109-.135h0a.18.18,0,0,0,0-.058h0v-.051c0-.448-.077-1.128-.077-1.128.167.077,1.019.41.993.179a29.673,29.673,0,0,0-1.032-5.965c0-.064-.115-.045-.1,0,.115,1.864.564,3.7.711,5.567a3.483,3.483,0,0,0-.948-.237c-.058,0,.167,1.281.154,1.512h0a2.761,2.761,0,0,1-2.082-.545C379.2,168.573,379.154,168.612,379.192,168.657Z" transform="translate(-231.302 -98.24)" fill="#263238"/>
      <path id="Path_13676" data-name="Path 13676" d="M380.874,172.831a2.332,2.332,0,0,1-.91.775,1.083,1.083,0,0,1-.641.064c-.468-.1-.5-.525-.429-.9a2.563,2.563,0,0,1,.186-.564,3.043,3.043,0,0,0,1.794.621Z" transform="translate(-231.189 -101.825)" fill="#263238"/>
      <path id="Path_13677" data-name="Path 13677" d="M379.974,173.923a1.083,1.083,0,0,1-.641.064c-.468-.1-.5-.525-.429-.9A1.1,1.1,0,0,1,379.974,173.923Z" transform="translate(-231.193 -102.143)" fill="#ff98b9"/>
      <path id="Path_13678" data-name="Path 13678" d="M379.677,153c-2.921,2.223-7.214-.7-7.214-.7a3.287,3.287,0,0,1-3.2,2.249s-.34,5.125-1.685,5.209c-2.056.09-3.043-6.855-2.467-8.258a3.665,3.665,0,0,1,2.306-1.845,3.383,3.383,0,0,1,1.281-2.108c1.345-1.14,6.266.064,6.266.064a4.485,4.485,0,0,1,1.153-1.736,1.281,1.281,0,0,1,1.839.077,3.062,3.062,0,0,0-.429,1.281c-.167,1.512,1.057,1.448.98.09a2.1,2.1,0,0,0-.551-1.371c.557-.923,1.531-1.281,2.153-.814C381.234,145.942,382.105,151.157,379.677,153Z" transform="translate(-226.188 -91.967)" fill="#263238"/>
      <path id="Path_13679" data-name="Path 13679" d="M367.225,166.768s-1.717-2.889-3.011-2.294-.141,4.677,1.281,5.33a1.493,1.493,0,0,0,2.05-.641Z" transform="translate(-225.722 -99.001)" fill="#f7a9a0"/>
      <path id="Path_13680" data-name="Path 13680" d="M365.09,166.33v.038a3.78,3.78,0,0,1,1.768,2.5.82.82,0,0,0-1.211-.314c-.032,0,0,.058,0,.051a.916.916,0,0,1,.98.4,4.171,4.171,0,0,1,.423.846c.038.1.211.058.186-.045h0C367.364,168.47,366.487,166.567,365.09,166.33Z" transform="translate(-226.239 -99.7)" fill="#263238"/>
      <path id="Path_13681" data-name="Path 13681" d="M374.017,183.251l-2.287,4.69-5.555-6.541-1.845,1.832s5.164,10.129,5.234,9.693l2.294-4.017,2.659,3.107.3-7.284Z" transform="translate(-225.966 -105.163)" fill="#fff"/>
      <path id="Path_13682" data-name="Path 13682" d="M374.991,189.747c0-1.2.045-2.415,0-3.62a.045.045,0,0,0-.083,0c-.32,1.14-.327,5.766-.416,6.842h0c-.115-.135-2.479-2.736-2.505-2.7-.48.641-2.159,3.556-2.281,3.844-.814-1.608-3.966-7.47-4.959-9.008a.045.045,0,0,0-.077.038c.7,1.685,4.863,9.571,4.939,9.559a48.087,48.087,0,0,0,2.4-4.248,32.663,32.663,0,0,0,2.78,3.3,38.818,38.818,0,0,0,.2-4Z" transform="translate(-226.088 -106.495)" fill="#263238"/>
      <path id="Path_13683" data-name="Path 13683" d="M267.625,61.92H159.315A11.036,11.036,0,0,0,148.36,73.037V295.13a11.042,11.042,0,0,0,10.955,11.117h108.31a11.055,11.055,0,0,0,10.968-11.117V73.037A11.048,11.048,0,0,0,267.625,61.92Zm4.113,226.349c0,5.846-4.395,10.575-9.815,10.575H165.03c-5.433,0-9.828-4.729-9.828-10.575V81.455c-.026-11.909,4.4-12.464,9.828-12.464h19.412c1.128,0,2.05,1.276,2.05,2.859v.683c0,3.708,2.037,3.721,4.536,3.721H235.9c2.524,0,4.549,0,4.549-3.721v-.708c0-1.583.91-2.859,2.057-2.859h19.4c5.42,0,9.815,1.583,9.815,12.489Z" transform="translate(-148.359 -61.92)" fill="#263238"/>
      <path id="Path_13684" data-name="Path 13684" d="M275.576,85.446V292.21c0,5.844-4.395,10.572-9.815,10.572H168.868c-5.433,0-9.828-4.728-9.828-10.572V85.446c-.026-11.906,4.4-12.461,9.828-12.461H188.28c1.128,0,2.05,1.276,2.05,2.858v.683c0,3.707,2.037,3.72,4.536,3.72h44.872c2.524,0,4.549,0,4.549-3.72v-.708c0-1.582.91-2.858,2.056-2.858h19.406C271.181,72.986,275.576,74.542,275.576,85.446Z" transform="translate(-152.197 -65.887)" fill="#fff"/>
      <path id="Path_13685" data-name="Path 13685" d="M275.562,85.5v15.491H159V85.5c0-11.955,4.421-12.512,9.853-12.512h19.412c1.128,0,2.05,1.281,2.05,2.87v.686c0,3.722,2.037,3.735,4.536,3.735h44.872c2.524,0,4.549,0,4.549-3.735V75.83c0-1.589.91-2.87,2.057-2.87h19.406C271.167,72.986,275.562,74.549,275.562,85.5Z" transform="translate(-152.183 -65.887)" fill="#d72027"/>
      <g id="Group_3381" data-name="Group 3381" transform="translate(28.535 10.885)">
        <path id="Path_13686" data-name="Path 13686" d="M197.1,79.762l-.186.186c-.038,0-.07.07-.109.109a2.5,2.5,0,0,0-1.807-.75,2.473,2.473,0,0,0-1.807.75l-.1-.109-.186-.186h0l.237-.205a2.6,2.6,0,0,1,.551-.352,2.678,2.678,0,0,1,.724-.243.9.9,0,0,0,.365-.051h.564a2.889,2.889,0,0,1,.641.16,2.939,2.939,0,0,1,.455.211,2.872,2.872,0,0,1,.429.3l.2.179Z" transform="translate(-192.9 -78.91)" fill="#fff"/>
        <path id="Path_13687" data-name="Path 13687" d="M194.1,81.1c-.1-.1-.192-.2-.295-.295a2.127,2.127,0,0,1,3.018,0l-.295.295a1.717,1.717,0,0,0-2.428,0Z" transform="translate(-193.227 -79.366)" fill="#fff"/>
        <path id="Path_13688" data-name="Path 13688" d="M196.551,81.853l-.295.295a.839.839,0,0,0-.641-.256.865.865,0,0,0-.641.256l-.3-.295a1.281,1.281,0,0,1,1.871,0Z" transform="translate(-193.54 -79.822)" fill="#fff"/>
        <path id="Path_13689" data-name="Path 13689" d="M196.259,82.847a.263.263,0,0,1-.263.263.269.269,0,1,1,0-.532.263.263,0,0,1,.263.269Z" transform="translate(-193.901 -80.227)" fill="#fff"/>
      </g>
      <path id="Path_13690" data-name="Path 13690" d="M170.9,80.685a.775.775,0,1,1,.775.775A.775.775,0,0,1,170.9,80.685Z" transform="translate(-156.459 -68.385)" fill="#fff"/>
      <path id="Path_13691" data-name="Path 13691" d="M174.7,80.685a.775.775,0,1,1,.775.775.775.775,0,0,1-.775-.775Z" transform="translate(-157.825 -68.385)" fill="#fff"/>
      <path id="Path_13692" data-name="Path 13692" d="M178.5,80.685a.769.769,0,1,1,.223.548A.769.769,0,0,1,178.5,80.685Z" transform="translate(-159.19 -68.385)" fill="#fff"/>
      <path id="Path_13693" data-name="Path 13693" d="M182.3,80.685a.769.769,0,1,1,.223.548A.769.769,0,0,1,182.3,80.685Z" transform="translate(-160.555 -68.385)" fill="#fff"/>
      <path id="Path_13694" data-name="Path 13694" d="M186.09,80.685a.775.775,0,1,1,.775.775.775.775,0,0,1-.775-.775Z" transform="translate(-161.917 -68.385)" fill="#fff"/>
      <path id="Path_13695" data-name="Path 13695" d="M323.771,82.119H317.48V79.21h6.291ZM317.8,81.8h5.651V79.53h-5.638Z" transform="translate(-209.131 -68.133)" fill="#fff"/>
      <rect id="Rectangle_535" data-name="Rectangle 535" width="4.055" height="1.922" transform="translate(108.874 11.57)" fill="#fff"/>
      <rect id="Rectangle_536" data-name="Rectangle 536" width="0.557" height="1.557" transform="translate(114.64 11.756)" fill="#fff"/>
      <path id="Path_13696" data-name="Path 13696" d="M252.259,76.232H240.016a.756.756,0,0,1-.756-.756h0a.756.756,0,0,1,.756-.756h12.243a.756.756,0,0,1,.756.756h0a.756.756,0,0,1-.756.756Z" transform="translate(-181.024 -66.52)" fill="#fff"/>
      <rect id="Rectangle_537" data-name="Rectangle 537" width="56.903" height="2.812" transform="translate(18.15 57.952)" fill="#dbdbdb"/>
      <rect id="Rectangle_538" data-name="Rectangle 538" width="74.765" height="2.812" transform="translate(18.15 63.376)" fill="#dbdbdb"/>
      <circle id="Ellipse_99" data-name="Ellipse 99" cx="7.387" cy="7.387" r="7.387" transform="matrix(0.731, -0.682, 0.682, 0.731, 15.097, 76.862)" fill="#f9ad24"/>
      <path id="Path_13697" data-name="Path 13697" d="M194.179,180.044A1.044,1.044,0,1,1,193.141,179a1.044,1.044,0,0,1,1.038,1.044Z" transform="translate(-164.073 -104.282)" fill="#37474f"/>
      <path id="Path_13698" data-name="Path 13698" d="M183.169,180.044A1.044,1.044,0,1,1,182.131,179a1.044,1.044,0,0,1,1.038,1.044Z" transform="translate(-160.117 -104.282)" fill="#37474f"/>
      <path id="Path_13699" data-name="Path 13699" d="M189.044,179.92a1.877,1.877,0,0,1-3.338,1.179,1.922,1.922,0,0,1-.416-1.179Z" transform="translate(-161.63 -104.615)" fill="#37474f"/>
      <path id="Path_13700" data-name="Path 13700" d="M188.861,181.454a1.877,1.877,0,0,1-2.921,0A2.229,2.229,0,0,1,188.861,181.454Z" transform="translate(-161.864 -104.972)" fill="#dd6a57"/>
      <path id="Path_13701" data-name="Path 13701" d="M222.124,178.767a7.387,7.387,0,1,1-7.387-7.387,7.387,7.387,0,0,1,7.387,7.387Z" transform="translate(-169.557 -101.54)" fill="#ebebeb"/>
      <path id="Path_13702" data-name="Path 13702" d="M224.829,180.044A1.044,1.044,0,1,1,223.791,179a1.044,1.044,0,0,1,1.038,1.044Z" transform="translate(-175.087 -104.282)" fill="#37474f"/>
      <path id="Path_13703" data-name="Path 13703" d="M213.829,180.044A1.044,1.044,0,1,1,212.791,179a1.044,1.044,0,0,1,1.038,1.044Z" transform="translate(-171.134 -104.282)" fill="#37474f"/>
      <path id="Path_13704" data-name="Path 13704" d="M216,179.92a2.357,2.357,0,0,0,.673,1.134,1.832,1.832,0,0,0,1.179.4,1.788,1.788,0,0,0,1.172-.378,2.563,2.563,0,0,0,.737-1.108,2.018,2.018,0,0,1-.551,1.281,1.711,1.711,0,0,1-.641.4,2.1,2.1,0,0,1-.737.122,2.172,2.172,0,0,1-.73-.135,1.737,1.737,0,0,1-.641-.416,1.864,1.864,0,0,1-.461-1.3Z" transform="translate(-172.665 -104.615)" fill="#37474f"/>
      <circle id="Ellipse_100" data-name="Ellipse 100" cx="7.387" cy="7.387" r="7.387" transform="translate(54.518 75.486) rotate(-35.46)" fill="#ebebeb"/>
      <path id="Path_13705" data-name="Path 13705" d="M255.5,180.044A1.044,1.044,0,1,1,254.461,179a1.044,1.044,0,0,1,1.039,1.044Z" transform="translate(-186.108 -104.282)" fill="#37474f"/>
      <path id="Path_13706" data-name="Path 13706" d="M244.489,180.044a1.044,1.044,0,1,1-.313-.745,1.044,1.044,0,0,1,.313.745Z" transform="translate(-182.152 -104.282)" fill="#37474f"/>
      <path id="Path_13707" data-name="Path 13707" d="M246.39,180.987a13.9,13.9,0,0,1,4.036,0,13.9,13.9,0,0,1-4.036,0Z" transform="translate(-183.586 -104.946)" fill="#37474f"/>
      <circle id="Ellipse_101" data-name="Ellipse 101" cx="7.387" cy="7.387" r="7.387" transform="translate(74.563 80.55) rotate(-63.43)" fill="#ebebeb"/>
      <path id="Path_13708" data-name="Path 13708" d="M286.159,180.044A1.044,1.044,0,1,1,285.121,179a1.044,1.044,0,0,1,1.038,1.044Z" transform="translate(-197.126 -104.282)" fill="#37474f"/>
      <path id="Path_13709" data-name="Path 13709" d="M275.149,180.044A1.044,1.044,0,1,1,274.111,179a1.044,1.044,0,0,1,1.038,1.044Z" transform="translate(-193.169 -104.282)" fill="#37474f"/>
      <path id="Path_13710" data-name="Path 13710" d="M277.27,180.976a2.518,2.518,0,0,1,1.877-.737,2.993,2.993,0,0,1,1.012.2,2.723,2.723,0,0,1,.871.538c-.34-.07-.641-.154-.961-.205a5.768,5.768,0,0,0-.929-.083,5.074,5.074,0,0,0-.929.064,5.885,5.885,0,0,0-.941.223Z" transform="translate(-194.682 -104.728)" fill="#37474f"/>
      <circle id="Ellipse_102" data-name="Ellipse 102" cx="7.387" cy="7.387" r="7.387" transform="translate(93.661 77.229) rotate(-45)" fill="#ebebeb"/>
      <path id="Path_13711" data-name="Path 13711" d="M316.829,180.044A1.044,1.044,0,1,1,315.791,179,1.044,1.044,0,0,1,316.829,180.044Z" transform="translate(-208.147 -104.282)" fill="#37474f"/>
      <path id="Path_13712" data-name="Path 13712" d="M305.829,180.044A1.044,1.044,0,1,1,304.791,179,1.044,1.044,0,0,1,305.829,180.044Z" transform="translate(-204.194 -104.282)" fill="#37474f"/>
      <path id="Path_13713" data-name="Path 13713" d="M311.691,181.811a2.319,2.319,0,0,0-.679-1.128,1.8,1.8,0,0,0-1.172-.4,1.768,1.768,0,0,0-1.179.384,2.563,2.563,0,0,0-.73,1.1,1.993,1.993,0,0,1,.545-1.281,1.762,1.762,0,0,1,.641-.4,2.113,2.113,0,0,1,.737-.122,2.234,2.234,0,0,1,.737.135,1.711,1.711,0,0,1,.641.416A1.871,1.871,0,0,1,311.691,181.811Z" transform="translate(-205.699 -104.629)" fill="#37474f"/>
      <rect id="Rectangle_539" data-name="Rectangle 539" width="35.057" height="2.812" transform="translate(18.15 90.722)" fill="#dbdbdb"/>
      <rect id="Rectangle_540" data-name="Rectangle 540" width="56.903" height="2.812" transform="translate(18.15 96.146)" fill="#dbdbdb"/>
      <circle id="Ellipse_103" data-name="Ellipse 103" cx="7.387" cy="7.387" r="7.387" transform="matrix(0.731, -0.682, 0.682, 0.731, 15.098, 109.616)" fill="#ebebeb"/>
      <path id="Path_13714" data-name="Path 13714" d="M194.179,231.418a1.044,1.044,0,1,1-1.038-1.038A1.044,1.044,0,0,1,194.179,231.418Z" transform="translate(-164.073 -122.873)" fill="#37474f"/>
      <path id="Path_13715" data-name="Path 13715" d="M183.169,231.418a1.044,1.044,0,1,1-1.038-1.038A1.044,1.044,0,0,1,183.169,231.418Z" transform="translate(-160.117 -122.873)" fill="#37474f"/>
      <path id="Path_13716" data-name="Path 13716" d="M189.044,231.27a1.877,1.877,0,0,1-3.754,0Z" transform="translate(-161.63 -123.195)" fill="#37474f"/>
      <path id="Path_13717" data-name="Path 13717" d="M188.861,232.8a1.877,1.877,0,0,1-2.921,0,2.249,2.249,0,0,1,2.921,0Z" transform="translate(-161.864 -123.551)" fill="#c7c7c7"/>
      <path id="Path_13718" data-name="Path 13718" d="M222.124,230.107a7.387,7.387,0,1,1-7.387-7.387,7.387,7.387,0,0,1,7.387,7.387Z" transform="translate(-169.557 -120.123)" fill="#ebebeb"/>
      <path id="Path_13719" data-name="Path 13719" d="M224.829,231.418a1.044,1.044,0,1,1-1.038-1.038A1.044,1.044,0,0,1,224.829,231.418Z" transform="translate(-175.087 -122.873)" fill="#37474f"/>
      <path id="Path_13720" data-name="Path 13720" d="M213.829,231.418a1.044,1.044,0,1,1-1.038-1.038A1.044,1.044,0,0,1,213.829,231.418Z" transform="translate(-171.134 -122.873)" fill="#37474f"/>
      <path id="Path_13721" data-name="Path 13721" d="M216,231.27a2.338,2.338,0,0,0,.641,1.108,1.8,1.8,0,0,0,1.179.4,1.723,1.723,0,0,0,1.172-.378,2.563,2.563,0,0,0,.737-1.1,2,2,0,0,1-.551,1.281,1.723,1.723,0,0,1-.641.41,2.087,2.087,0,0,1-.737.115,2.172,2.172,0,0,1-.73-.135,1.659,1.659,0,0,1-.641-.416A1.851,1.851,0,0,1,216,231.27Z" transform="translate(-172.664 -123.195)" fill="#37474f"/>
      <circle id="Ellipse_104" data-name="Ellipse 104" cx="7.359" cy="7.359" r="7.359" transform="translate(53.813 107.615) rotate(-35.605)" fill="#ebebeb"/>
      <path id="Path_13722" data-name="Path 13722" d="M255.5,231.418a1.044,1.044,0,1,1-1.038-1.038A1.044,1.044,0,0,1,255.5,231.418Z" transform="translate(-186.108 -122.873)" fill="#37474f"/>
      <path id="Path_13723" data-name="Path 13723" d="M244.489,231.418a1.044,1.044,0,1,1-1.038-1.038A1.044,1.044,0,0,1,244.489,231.418Z" transform="translate(-182.152 -122.873)" fill="#37474f"/>
      <path id="Path_13724" data-name="Path 13724" d="M246.39,232.327a13.9,13.9,0,0,1,4.036,0,11.9,11.9,0,0,1-2.018.154,12.6,12.6,0,0,1-2.018-.154Z" transform="translate(-183.586 -123.521)" fill="#37474f"/>
      <circle id="Ellipse_105" data-name="Ellipse 105" cx="7.387" cy="7.387" r="7.387" transform="translate(74.562 113.306) rotate(-63.43)" fill="#eb9481"/>
      <path id="Path_13725" data-name="Path 13725" d="M286.159,231.418a1.044,1.044,0,1,1-1.038-1.038,1.044,1.044,0,0,1,1.038,1.038Z" transform="translate(-197.126 -122.873)" fill="#37474f"/>
      <path id="Path_13726" data-name="Path 13726" d="M275.149,231.418a1.044,1.044,0,1,1-1.038-1.038,1.044,1.044,0,0,1,1.038,1.038Z" transform="translate(-193.169 -122.873)" fill="#37474f"/>
      <path id="Path_13727" data-name="Path 13727" d="M277.27,232.316a2.563,2.563,0,0,1,1.877-.737,2.851,2.851,0,0,1,1.012.2,2.7,2.7,0,0,1,.871.532c-.34-.07-.641-.147-.961-.2a5.652,5.652,0,0,0-1.858,0,5.887,5.887,0,0,0-.941.2Z" transform="translate(-194.682 -123.304)" fill="#37474f"/>
      <circle id="Ellipse_106" data-name="Ellipse 106" cx="7.387" cy="7.387" r="7.387" transform="translate(93.663 109.984) rotate(-45)" fill="#ebebeb"/>
      <path id="Path_13728" data-name="Path 13728" d="M316.829,231.418a1.044,1.044,0,1,1-1.038-1.038A1.044,1.044,0,0,1,316.829,231.418Z" transform="translate(-208.147 -122.873)" fill="#37474f"/>
      <path id="Path_13729" data-name="Path 13729" d="M305.829,231.418a1.044,1.044,0,1,1-1.038-1.038,1.044,1.044,0,0,1,1.038,1.038Z" transform="translate(-204.194 -122.873)" fill="#37474f"/>
      <path id="Path_13730" data-name="Path 13730" d="M311.691,233.151a2.351,2.351,0,0,0-.679-1.128,1.794,1.794,0,0,0-1.172-.4,1.73,1.73,0,0,0-1.179.378,2.6,2.6,0,0,0-.73,1.1,1.961,1.961,0,0,1,.545-1.281,1.7,1.7,0,0,1,.641-.41,2.108,2.108,0,0,1,.737-.115,2.236,2.236,0,0,1,.737.135,1.634,1.634,0,0,1,.641.416,1.858,1.858,0,0,1,.461,1.3Z" transform="translate(-205.699 -123.205)" fill="#37474f"/>
      <rect id="Rectangle_541" data-name="Rectangle 541" width="66.315" height="2.812" transform="translate(18.15 123.486)" fill="#dbdbdb"/>
      <rect id="Rectangle_542" data-name="Rectangle 542" width="45.852" height="2.812" transform="translate(18.15 128.91)" fill="#dbdbdb"/>
      <circle id="Ellipse_107" data-name="Ellipse 107" cx="7.387" cy="7.387" r="7.387" transform="matrix(0.731, -0.682, 0.682, 0.731, 15.098, 142.37)" fill="#ebebeb"/>
      <path id="Path_13731" data-name="Path 13731" d="M194.179,282.728a1.044,1.044,0,1,1-1.038-1.038A1.044,1.044,0,0,1,194.179,282.728Z" transform="translate(-164.073 -141.438)" fill="#37474f"/>
      <path id="Path_13732" data-name="Path 13732" d="M183.169,282.728a1.044,1.044,0,1,1-1.038-1.038A1.044,1.044,0,0,1,183.169,282.728Z" transform="translate(-160.117 -141.438)" fill="#37474f"/>
      <path id="Path_13733" data-name="Path 13733" d="M189.044,282.61a1.845,1.845,0,0,1-.416,1.172,1.877,1.877,0,0,1-3.338-1.172Z" transform="translate(-161.63 -141.771)" fill="#37474f"/>
      <path id="Path_13734" data-name="Path 13734" d="M188.861,284.138a1.864,1.864,0,0,1-2.921,0A2.249,2.249,0,0,1,188.861,284.138Z" transform="translate(-161.864 -142.127)" fill="#c7c7c7"/>
      <path id="Path_13735" data-name="Path 13735" d="M222.124,281.457a7.387,7.387,0,1,1-7.387-7.387,7.387,7.387,0,0,1,7.387,7.387Z" transform="translate(-169.557 -138.71)" fill="#ebebeb"/>
      <path id="Path_13736" data-name="Path 13736" d="M224.829,282.728a1.044,1.044,0,1,1-1.038-1.038A1.044,1.044,0,0,1,224.829,282.728Z" transform="translate(-175.087 -141.438)" fill="#37474f"/>
      <path id="Path_13737" data-name="Path 13737" d="M213.829,282.728a1.044,1.044,0,1,1-1.038-1.038A1.044,1.044,0,0,1,213.829,282.728Z" transform="translate(-171.134 -141.438)" fill="#37474f"/>
      <path id="Path_13738" data-name="Path 13738" d="M216,282.61a2.313,2.313,0,0,0,.673,1.128,1.839,1.839,0,0,0,1.179.4,1.762,1.762,0,0,0,1.172-.384,2.518,2.518,0,0,0,.737-1.1,2.031,2.031,0,0,1-.551,1.281,1.71,1.71,0,0,1-.641.4,2.248,2.248,0,0,1-.737.122,2.172,2.172,0,0,1-.73-.135,1.826,1.826,0,0,1-.641-.416,1.864,1.864,0,0,1-.461-1.3Z" transform="translate(-172.665 -141.771)" fill="#37474f"/>
      <circle id="Ellipse_108" data-name="Ellipse 108" cx="7.387" cy="7.387" r="7.387" transform="translate(54.523 140.99) rotate(-35.46)" fill="#f7a9a0"/>
      <path id="Path_13739" data-name="Path 13739" d="M255.5,282.728a1.044,1.044,0,1,1-1.038-1.038A1.044,1.044,0,0,1,255.5,282.728Z" transform="translate(-186.108 -141.438)" fill="#37474f"/>
      <path id="Path_13740" data-name="Path 13740" d="M244.489,282.728a1.044,1.044,0,1,1-1.038-1.038A1.044,1.044,0,0,1,244.489,282.728Z" transform="translate(-182.152 -141.438)" fill="#37474f"/>
      <path id="Path_13741" data-name="Path 13741" d="M246.39,283.677a12.6,12.6,0,0,1,2.018-.147,11.9,11.9,0,0,1,2.018.147,13.9,13.9,0,0,1-4.036,0Z" transform="translate(-183.586 -142.099)" fill="#37474f"/>
      <circle id="Ellipse_109" data-name="Ellipse 109" cx="7.387" cy="7.387" r="7.387" transform="translate(74.547 146.027) rotate(-63.44)" fill="#ebebeb"/>
      <path id="Path_13742" data-name="Path 13742" d="M286.159,282.728a1.044,1.044,0,1,1-1.038-1.038,1.044,1.044,0,0,1,1.038,1.038Z" transform="translate(-197.126 -141.438)" fill="#37474f"/>
      <path id="Path_13743" data-name="Path 13743" d="M275.149,282.728a1.044,1.044,0,1,1-1.038-1.038,1.044,1.044,0,0,1,1.038,1.038Z" transform="translate(-193.169 -141.438)" fill="#37474f"/>
      <path id="Path_13744" data-name="Path 13744" d="M277.27,283.659a2.511,2.511,0,0,1,1.877-.73,2.845,2.845,0,0,1,1.012.2,2.7,2.7,0,0,1,.871.532c-.34-.07-.641-.147-.961-.2a6.6,6.6,0,0,0-.929-.09,5.093,5.093,0,0,0-.929.07,6.634,6.634,0,0,0-.941.218Z" transform="translate(-194.682 -141.883)" fill="#37474f"/>
      <circle id="Ellipse_110" data-name="Ellipse 110" cx="7.387" cy="7.387" r="7.387" transform="translate(93.658 142.739) rotate(-45)" fill="#ebebeb"/>
      <path id="Path_13745" data-name="Path 13745" d="M316.829,282.728a1.044,1.044,0,1,1-1.038-1.038A1.044,1.044,0,0,1,316.829,282.728Z" transform="translate(-208.147 -141.438)" fill="#37474f"/>
      <path id="Path_13746" data-name="Path 13746" d="M305.829,282.728a1.044,1.044,0,1,1-1.038-1.038,1.044,1.044,0,0,1,1.038,1.038Z" transform="translate(-204.194 -141.438)" fill="#37474f"/>
      <path id="Path_13747" data-name="Path 13747" d="M311.691,284.5a2.371,2.371,0,0,0-.679-1.134,1.794,1.794,0,0,0-1.172-.4,1.762,1.762,0,0,0-1.179.378,2.626,2.626,0,0,0-.73,1.108,1.98,1.98,0,0,1,.545-1.281,1.871,1.871,0,0,1,.641-.41,2.268,2.268,0,0,1,.737-.115,2.238,2.238,0,0,1,.737.135,1.71,1.71,0,0,1,.641.416A1.864,1.864,0,0,1,311.691,284.5Z" transform="translate(-205.699 -141.785)" fill="#37474f"/>
      <rect id="Rectangle_543" data-name="Rectangle 543" width="66.315" height="2.812" transform="translate(18.15 156.249)" fill="#dbdbdb"/>
      <rect id="Rectangle_544" data-name="Rectangle 544" width="35.057" height="2.812" transform="translate(18.15 161.68)" fill="#dbdbdb"/>
      <circle id="Ellipse_111" data-name="Ellipse 111" cx="7.387" cy="7.387" r="7.387" transform="matrix(0.731, -0.682, 0.682, 0.731, 15.103, 175.129)" fill="#ebebeb"/>
      <path id="Path_13748" data-name="Path 13748" d="M194.179,334.074a1.044,1.044,0,1,1-1.038-1.044,1.044,1.044,0,0,1,1.038,1.044Z" transform="translate(-164.073 -160.014)" fill="#37474f"/>
      <path id="Path_13749" data-name="Path 13749" d="M183.169,334.074a1.044,1.044,0,1,1-1.038-1.044,1.044,1.044,0,0,1,1.038,1.044Z" transform="translate(-160.117 -160.014)" fill="#37474f"/>
      <path id="Path_13750" data-name="Path 13750" d="M189.044,334a1.877,1.877,0,0,1-3.338,1.179A1.922,1.922,0,0,1,185.29,334Z" transform="translate(-161.63 -160.365)" fill="#37474f"/>
      <path id="Path_13751" data-name="Path 13751" d="M188.861,335.484a1.877,1.877,0,0,1-2.921,0,2.23,2.23,0,0,1,2.921,0Z" transform="translate(-161.864 -160.703)" fill="#c7c7c7"/>
      <path id="Path_13752" data-name="Path 13752" d="M222.124,332.8a7.387,7.387,0,1,1-7.387-7.387,7.387,7.387,0,0,1,7.387,7.387Z" transform="translate(-169.557 -157.293)" fill="#f9ad24"/>
      <path id="Path_13753" data-name="Path 13753" d="M224.829,334.074a1.044,1.044,0,1,1-1.038-1.044,1.044,1.044,0,0,1,1.038,1.044Z" transform="translate(-175.087 -160.014)" fill="#37474f"/>
      <path id="Path_13754" data-name="Path 13754" d="M213.829,334.074a1.044,1.044,0,1,1-1.038-1.044,1.044,1.044,0,0,1,1.038,1.044Z" transform="translate(-171.134 -160.014)" fill="#37474f"/>
      <path id="Path_13755" data-name="Path 13755" d="M216,334a2.357,2.357,0,0,0,.673,1.134,1.8,1.8,0,0,0,1.179.4,1.756,1.756,0,0,0,1.172-.378,2.563,2.563,0,0,0,.737-1.1,2.012,2.012,0,0,1-.551,1.281,1.806,1.806,0,0,1-.641.41,2.089,2.089,0,0,1-.737.115,2.171,2.171,0,0,1-.73-.135,1.658,1.658,0,0,1-.641-.416A1.858,1.858,0,0,1,216,334Z" transform="translate(-172.664 -160.365)" fill="#37474f"/>
      <circle id="Ellipse_112" data-name="Ellipse 112" cx="7.387" cy="7.387" r="7.387" transform="translate(54.53 173.747) rotate(-35.46)" fill="#ebebeb"/>
      <path id="Path_13756" data-name="Path 13756" d="M255.5,334.074a1.044,1.044,0,1,1-1.038-1.044,1.044,1.044,0,0,1,1.038,1.044Z" transform="translate(-186.108 -160.014)" fill="#37474f"/>
      <path id="Path_13757" data-name="Path 13757" d="M244.489,334.063a1.044,1.044,0,1,1-.306-.758,1.044,1.044,0,0,1,.306.758Z" transform="translate(-182.152 -160.003)" fill="#37474f"/>
      <path id="Path_13758" data-name="Path 13758" d="M246.39,335.017a13.9,13.9,0,0,1,4.036,0,13.9,13.9,0,0,1-4.036,0Z" transform="translate(-183.586 -160.675)" fill="#37474f"/>
      <circle id="Ellipse_113" data-name="Ellipse 113" cx="7.387" cy="7.387" r="7.387" transform="translate(74.554 178.781) rotate(-63.44)" fill="#ebebeb"/>
      <path id="Path_13759" data-name="Path 13759" d="M286.159,334.074a1.044,1.044,0,1,1-1.038-1.044,1.044,1.044,0,0,1,1.038,1.044Z" transform="translate(-197.126 -160.014)" fill="#37474f"/>
      <path id="Path_13760" data-name="Path 13760" d="M275.149,334.064a1.044,1.044,0,1,1-.3-.749,1.044,1.044,0,0,1,.3.749Z" transform="translate(-193.169 -160.003)" fill="#37474f"/>
      <path id="Path_13761" data-name="Path 13761" d="M277.27,335.006a2.518,2.518,0,0,1,1.877-.737,2.993,2.993,0,0,1,1.012.2,2.724,2.724,0,0,1,.871.538c-.34-.07-.641-.147-.961-.2a5.65,5.65,0,0,0-1.858,0,5.88,5.88,0,0,0-.941.2Z" transform="translate(-194.682 -160.458)" fill="#37474f"/>
      <circle id="Ellipse_114" data-name="Ellipse 114" cx="7.387" cy="7.387" r="7.387" transform="translate(93.665 175.499) rotate(-45)" fill="#ebebeb"/>
      <path id="Path_13762" data-name="Path 13762" d="M316.829,334.074a1.044,1.044,0,1,1-1.038-1.044,1.044,1.044,0,0,1,1.038,1.044Z" transform="translate(-208.147 -160.014)" fill="#37474f"/>
      <path id="Path_13763" data-name="Path 13763" d="M305.829,334.074a1.044,1.044,0,1,1-1.038-1.044,1.044,1.044,0,0,1,1.038,1.044Z" transform="translate(-204.194 -160.014)" fill="#37474f"/>
      <path id="Path_13764" data-name="Path 13764" d="M311.691,335.838a2.351,2.351,0,0,0-.679-1.128,1.794,1.794,0,0,0-1.172-.4,1.729,1.729,0,0,0-1.179.378,2.563,2.563,0,0,0-.73,1.1,1.96,1.96,0,0,1,.545-1.281,1.7,1.7,0,0,1,.641-.41,2.274,2.274,0,0,1,.737-.122,2.625,2.625,0,0,1,.737.134,1.8,1.8,0,0,1,.641.416,1.871,1.871,0,0,1,.459,1.313Z" transform="translate(-205.699 -160.357)" fill="#37474f"/>
      <g id="Group_3382" data-name="Group 3382" transform="translate(42.707 201.952)">
        <rect id="Rectangle_545" data-name="Rectangle 545" width="44.821" height="13.21" fill="#d72027"/>
        <path id="Path_13765" data-name="Path 13765" d="M229.573,409.78a.359.359,0,0,1,.513-.051,2.319,2.319,0,0,0,1.345.545,1.538,1.538,0,0,0,.884-.263.641.641,0,0,0,.3-.506.359.359,0,0,0-.064-.224.6.6,0,0,0-.211-.211,2.8,2.8,0,0,0-.967-.333h0a3.783,3.783,0,0,1-.91-.275,1.487,1.487,0,0,1-.641-.551,1.044,1.044,0,0,1-.16-.577,1.281,1.281,0,0,1,.564-1.031,2.075,2.075,0,0,1,1.217-.372,2.787,2.787,0,0,1,1.538.564.365.365,0,1,1-.4.609,2.018,2.018,0,0,0-1.134-.455,1.326,1.326,0,0,0-.788.243.557.557,0,0,0-.269.442.327.327,0,0,0,.051.2.712.712,0,0,0,.186.179,2.409,2.409,0,0,0,.884.314h0a4.136,4.136,0,0,1,.974.3,1.665,1.665,0,0,1,.7.583,1.2,1.2,0,0,1,.167.6,1.352,1.352,0,0,1-.6,1.089,2.2,2.2,0,0,1-1.281.4,3.062,3.062,0,0,1-1.807-.7.372.372,0,0,1-.091-.514Z" transform="translate(-220.226 -401.785)" fill="#fff"/>
        <path id="Path_13766" data-name="Path 13766" d="M239.237,411.083a2.031,2.031,0,0,1-2.037-2.037v-2.511a.378.378,0,0,1,.384-.384.391.391,0,0,1,.4.384v2.511a1.281,1.281,0,1,0,2.5,0v-2.511a.391.391,0,0,1,.4-.384.384.384,0,0,1,.391.384v2.511a2.037,2.037,0,0,1-2.038,2.037Z" transform="translate(-222.99 -401.864)" fill="#fff"/>
        <path id="Path_13767" data-name="Path 13767" d="M246.14,410.7v-4.164a.384.384,0,0,1,.384-.384h1.006a1.339,1.339,0,0,1,1.07,2.14,1.512,1.512,0,0,1-.794,2.793h-1.281a.384.384,0,0,1-.385-.385Zm.782-2.639h.609a.57.57,0,0,0,.557-.57.557.557,0,0,0-.557-.557h-.609Zm0,2.242h.884a.731.731,0,0,0,0-1.461h-.884Z" transform="translate(-226.203 -401.864)" fill="#fff"/>
        <path id="Path_13768" data-name="Path 13768" d="M256.928,406.534V410.7a.4.4,0,0,1-.4.384.384.384,0,0,1-.384-.384v-2.973l-1.019,1.409a.378.378,0,0,1-.314.167h0a.391.391,0,0,1-.32-.167l-1.012-1.409V410.7a.384.384,0,0,1-.391.384.391.391,0,0,1-.391-.384v-4.164a.391.391,0,0,1,.391-.384h0a.372.372,0,0,1,.308.16l1.4,1.922,1.4-1.922a.4.4,0,0,1,.32-.16h0A.4.4,0,0,1,256.928,406.534Z" transform="translate(-228.56 -401.864)" fill="#fff"/>
        <path id="Path_13769" data-name="Path 13769" d="M262,406.534a.385.385,0,0,1,.391-.384.391.391,0,0,1,.4.384V410.7a.391.391,0,0,1-.4.384A.384.384,0,0,1,262,410.7Z" transform="translate(-231.902 -401.864)" fill="#fff"/>
        <path id="Path_13770" data-name="Path 13770" d="M268.1,406.932h-1.121V410.7a.378.378,0,0,1-.384.384.384.384,0,0,1-.391-.384v-3.767h-1.115a.391.391,0,0,1-.384-.4.378.378,0,0,1,.384-.384H268.1a.384.384,0,0,1,.391.384A.4.4,0,0,1,268.1,406.932Z" transform="translate(-232.872 -401.864)" fill="#fff"/>
      </g>
      <path id="Path_13771" data-name="Path 13771" d="M375.206,199.382c2.857,9.809,5.17,19.752,1.666,21.718-5.49,3.082-22.833,3.812-28.291,3.716-2.1-.045-3-17.522-.762-17.458,3.844.1,20.745,1.819,21.706,1.025.6-.493.333-11.852-.519-18.746-.263-2.1-1.128-3.806-.641-3.709C370.2,186.274,373.636,193.968,375.206,199.382Z" transform="translate(-219.563 -106.843)" fill="#f7a9a0"/>
      <path id="Path_13772" data-name="Path 13772" d="M309.557,220.832c.173,2.089,5.292,1.23,5.292,1.23a3.844,3.844,0,0,0-1.384,2.236c-.256,1.576,2.1,2.665,2.1,2.665a4.753,4.753,0,0,0-1.089,2.563c-.09,1.531,2.133,2.973,2.133,2.973a4.158,4.158,0,0,0,.48,2.877c1.435,2.274,5.542,2.262,8.156,2.274s10.039-2.383,11.5-2.7l.263-16.747s-11.692-3.4-14.767-2.985C319.654,215.579,309.3,217.629,309.557,220.832Z" transform="translate(-206.283 -117.41)" fill="#f7a9a0"/>
      <path id="Path_13773" data-name="Path 13773" d="M317.859,224.791a35.075,35.075,0,0,1,8.386-1.781.051.051,0,0,1,0,.1c-2.793.32-5.58,1.39-8.329,1.813a.07.07,0,1,1-.058-.128Z" transform="translate(-209.254 -120.206)" fill="#263238"/>
      <path id="Path_13774" data-name="Path 13774" d="M318.968,232.929a7.784,7.784,0,0,1,1.922-.275c.692-.051,1.377-.09,2.069-.115q2.069-.09,4.145-.07c.058,0,.077.1,0,.1-1.377.064-2.755.141-4.126.256-.685.058-1.377.122-2.063.192a8.97,8.97,0,0,1-1.922.109.1.1,0,0,1-.026-.192Z" transform="translate(-209.646 -123.625)" fill="#263238"/>
      <path id="Path_13775" data-name="Path 13775" d="M320.634,242a5,5,0,0,1,1.749-.154l1.89-.051c1.281-.038,2.518-.083,3.773-.167a.05.05,0,0,1,0,.1c-1.281.1-2.563.205-3.844.282l-1.884.109a4.938,4.938,0,0,1-1.711-.051.035.035,0,1,1,.026-.064Z" transform="translate(-210.247 -126.941)" fill="#263238"/>
      <path id="Path_13776" data-name="Path 13776" d="M352.54,206.881l1.326,18.329s21.821-.256,26.4-4.485-4.216-28.029-7.2-32.437c-2.191-3.242-3.126-3.274-3.152-2.787s2.473,7.438,1.365,22.218C371.228,208.386,352.54,206.881,352.54,206.881Z" transform="translate(-221.73 -106.609)" fill="#d72027"/>
      <g id="Group_3383" data-name="Group 3383" transform="translate(131.041 78.682)" opacity="0.1">
        <path id="Path_13777" data-name="Path 13777" d="M354,219.09v18.227l-.071-.967-.077-1.1-.1-1.416-.038-.474-.1-1.409-.077-1.1-.1-1.409-.032-.474-.1-1.416-.083-1.1-.1-1.416-.032-.468-.1-1.416-.07-.955V219Z" transform="translate(-352.9 -197.41)"/>
        <path id="Path_13778" data-name="Path 13778" d="M357.294,219.348v18.035h-.474V219.31Z" transform="translate(-354.309 -197.521)"/>
        <path id="Path_13779" data-name="Path 13779" d="M360.862,219.607V237.36l-1.1.045V219.53Z" transform="translate(-355.365 -197.6)"/>
        <path id="Path_13780" data-name="Path 13780" d="M364.154,219.838v17.516h-.474V219.8Z" transform="translate(-356.774 -197.697)"/>
        <path id="Path_13781" data-name="Path 13781" d="M367.726,220.064v17.189l-1.1.077V220Z" transform="translate(-357.834 -197.769)"/>
        <path id="Path_13782" data-name="Path 13782" d="M371.018,220.256v16.913l-.468.045V220.23Z" transform="translate(-359.242 -197.852)"/>
        <path id="Path_13783" data-name="Path 13783" d="M374.586,220.431v16.542l-1.1.115V220.38Z" transform="translate(-360.299 -197.906)"/>
        <path id="Path_13784" data-name="Path 13784" d="M377.878,220.533v16.254l-.468.064V220.52Z" transform="translate(-361.707 -197.956)"/>
        <path id="Path_13785" data-name="Path 13785" d="M381.446,186.184V196.21c0-.288-.032-.577-.051-.858a2.331,2.331,0,0,0-.032-.474c-.032-.493-.077-.961-.122-1.416s-.07-.75-.109-1.1c-.058-.5-.115-.974-.179-1.416a2.849,2.849,0,0,0-.064-.468c-.07-.513-.147-.987-.231-1.416s-.135-.762-.2-1.1c-.032-.179-.07-.346-.1-.5V185.3a3.2,3.2,0,0,1,1.012.788Z" transform="translate(-362.764 -185.3)"/>
        <path id="Path_13786" data-name="Path 13786" d="M381.446,215.91v18.835l-1.1.179V218.87c.583,0,.916-.077.923-.167l.077-1.051c0-.372.038-.737.064-1.1A3.131,3.131,0,0,1,381.446,215.91Z" transform="translate(-362.764 -196.299)"/>
        <path id="Path_13787" data-name="Path 13787" d="M384.734,190.208V224.9l-.474.1V189.49l.2.288A5.006,5.006,0,0,1,384.734,190.208Z" transform="translate(-364.169 -186.806)"/>
        <path id="Path_13788" data-name="Path 13788" d="M388.312,197.476v28.759c-.352.1-.724.2-1.1.295V194.92c.128.288.269.589.4.9s.314.718.468,1.1Z" transform="translate(-365.229 -188.757)"/>
        <path id="Path_13789" data-name="Path 13789" d="M391.6,205.913v23.166l-.474.179V204.58l.077.211C391.335,205.163,391.47,205.535,391.6,205.913Z" transform="translate(-366.638 -192.228)"/>
        <path id="Path_13790" data-name="Path 13790" d="M395.176,217.494v13.364a5.223,5.223,0,0,1-.7.525,4.408,4.408,0,0,1-.4.237V213.49c.032.1.064.205.09.308s.1.314.141.474c.135.468.269.942.4,1.416.1.365.2.73.3,1.1Z" transform="translate(-367.698 -195.43)"/>
      </g>
      <g id="Group_3384" data-name="Group 3384" transform="translate(130.894 79.469)" opacity="0.11">
        <path id="Path_13791" data-name="Path 13791" d="M381.259,186.626c.109.109.218.237.333.372h-1.653c-.045-.179-.083-.333-.109-.468h1.326Z" transform="translate(-362.43 -186.53)"/>
        <path id="Path_13792" data-name="Path 13792" d="M383.6,190.566h-2.883c-.064-.4-.135-.762-.2-1.1h2.409l.2.288c.083.128.179.269.276.429Z" transform="translate(-362.674 -187.586)"/>
        <path id="Path_13793" data-name="Path 13793" d="M384.8,193.858h-3.549a2.835,2.835,0,0,0-.064-.468h3.4C384.656,193.537,384.733,193.7,384.8,193.858Z" transform="translate(-362.918 -188.995)"/>
        <path id="Path_13794" data-name="Path 13794" d="M386.055,197.386h-4.376c-.032-.378-.07-.75-.109-1.1h4.017C385.741,196.668,385.9,197.033,386.055,197.386Z" transform="translate(-363.055 -190.037)"/>
        <path id="Path_13795" data-name="Path 13795" d="M386.96,200.734h-4.978a2.331,2.331,0,0,0-.032-.474h4.831Z" transform="translate(-363.192 -191.464)"/>
        <path id="Path_13796" data-name="Path 13796" d="M387.885,204.081l.077.211h-5.817a8.886,8.886,0,0,0-.045-1.1h5.452C387.661,203.485,387.8,203.779,387.885,204.081Z" transform="translate(-363.245 -192.517)"/>
        <path id="Path_13797" data-name="Path 13797" d="M388.486,207.11c.051.16.1.314.16.474H382.22v-.474Z" transform="translate(-363.289 -193.925)"/>
        <path id="Path_13798" data-name="Path 13798" d="M389.474,211.156H382.19v-1.1h6.926C389.244,210.419,389.359,210.784,389.474,211.156Z" transform="translate(-363.278 -194.985)"/>
        <path id="Path_13799" data-name="Path 13799" d="M390.009,214.444h-7.9v-.474h7.739a3.166,3.166,0,0,1,.161.474Z" transform="translate(-363.249 -196.39)"/>
        <path id="Path_13800" data-name="Path 13800" d="M390.629,218.016H381.91c0-.372.038-.737.064-1.1h8.361C390.437,217.285,390.533,217.65,390.629,218.016Z" transform="translate(-363.177 -197.45)"/>
        <path id="Path_13801" data-name="Path 13801" d="M380.571,221.308H352.708l-.038-.468h27.792C380.5,220.994,380.539,221.154,380.571,221.308Z" transform="translate(-352.67 -198.859)"/>
        <path id="Path_13802" data-name="Path 13802" d="M381.153,224.89H352.964l-.064-.955v-.115h28.061Q381.07,224.352,381.153,224.89Z" transform="translate(-352.753 -199.93)"/>
        <path id="Path_13803" data-name="Path 13803" d="M381.558,228.168H353.2l-.032-.468h28.324C381.513,227.892,381.538,228.014,381.558,228.168Z" transform="translate(-352.85 -201.324)"/>
        <path id="Path_13804" data-name="Path 13804" d="M381.851,231.736H353.463l-.083-1.1h28.4C381.813,231.018,381.838,231.383,381.851,231.736Z" transform="translate(-352.925 -202.381)"/>
        <path id="Path_13805" data-name="Path 13805" d="M381.981,234.56v.474H353.792l-.032-.474Z" transform="translate(-353.062 -203.789)"/>
        <path id="Path_13806" data-name="Path 13806" d="M381.781,237.5a5.059,5.059,0,0,1-.4,1.1H353.957l-.077-1.1Z" transform="translate(-353.105 -204.846)"/>
        <path id="Path_13807" data-name="Path 13807" d="M380.132,241.42a4.4,4.4,0,0,1-.4.237c-.144.077-.3.16-.455.237H354.2l-.038-.474Z" transform="translate(-353.205 -206.254)"/>
        <path id="Path_13808" data-name="Path 13808" d="M375.118,244.37l-1.115.25-.474.1c-.461.09-.935.179-1.416.256l-1.1.179c-.468.077-.942.141-1.416.205l-.468.064-.378.045h-14.3l-.077-1.1Z" transform="translate(-353.284 -207.314)"/>
      </g>
      <path id="Path_13809" data-name="Path 13809" d="M359.249,232.943c-.1-1.345-.218-2.684-.327-4.03s-.256-2.627-.4-3.94c-.077-.641-.154-1.32-.237-1.973a18.981,18.981,0,0,0-.263-1.922c0-.064-.1-.038-.1,0a18.385,18.385,0,0,0,.064,2.057c0,.641.058,1.281.1,1.922.09,1.339.186,2.684.32,4.023s.269,2.633.429,3.946a32.7,32.7,0,0,0,.551,3.844c0,.058.1.038.1,0a36.943,36.943,0,0,0-.237-3.927Z" transform="translate(-223.66 -119.517)" fill="#263238"/>
      <path id="Path_13810" data-name="Path 13810" d="M373.733,211.4c-.679,0-1.4.045-2.082.077h-.256c.032-.314.122-.641.154-.935s.083-.75.122-1.121c.07-.6.1-1.192.122-1.781q.1-1.922.032-3.844c0-.743-.058-1.48-.109-2.217.122-.993.2-1.992.288-3,0-.064-.1-.058-.1,0-.058.775-.141,1.544-.237,2.319-.122-1.6-.288-3.2-.519-4.792,0-.064-.115-.064-.115,0q.282,3.844.282,7.688v3.767c0,.641-.032,1.281,0,1.884v1.019a8.78,8.78,0,0,1,0,1.006c-.551,0-1.1.058-1.653.07q-2.1.048-4.2-.1c-2.78-.167-5.555-.4-8.329-.564-.788-.045-1.582-.109-2.37-.135h-1.185a9.223,9.223,0,0,1-1.192-.051c-.064,0,.064.391.07.423s.077.1.077,0v-.269c.32.038.641.1.935.141l1.1.122c.673.077,1.352.122,2.025.173,1.422.115,2.851.218,4.273.32,2.78.192,5.561.4,8.329.384.782,0,1.557-.038,2.326-.109a9.508,9.508,0,0,0,2.242-.429S373.765,211.4,373.733,211.4Z" transform="translate(-221.666 -110.473)" fill="#263238"/>
      <path id="Path_13811" data-name="Path 13811" d="M370.944,245.609c-1.358.122-2.691.378-4.043.519s-2.768.295-4.158.4-2.729.173-4.094.218l-2.05.064c-.641,0-1.922.077-1.922.051a5.684,5.684,0,0,0-.135-.6c-.035-.081-.077,0-.064,0a3.63,3.63,0,0,0,.07.775,8.966,8.966,0,0,0,2.076.115h2.133c1.365-.038,2.729-.115,4.094-.218s2.723-.243,4.075-.429a38.936,38.936,0,0,0,4.011-.794C371.008,245.66,371.033,245.6,370.944,245.609Z" transform="translate(-222.426 -128.382)" fill="#263238"/>
      <path id="Path_13812" data-name="Path 13812" d="M335.108,124.15c-1.128,2.165,2.076,2.255,2.076,2.255s-4.638.987-4.933,3.671c-.275,2.563,3.594,2.563,3.844,2.563-.243.051-4.485,1.076-4.485,3.8,0,2.838,3.844,2.14,4.113,2.089-.211.128-3.03,1.813-2.563,3.889.788,3.568,7.15-.679,9.962.237v5.2l2.294.641a31.4,31.4,0,0,1,2.953-3.9c1.281-1.57,2.518-3.1,2.774-4.356a2.678,2.678,0,0,0-1.249-2.941s2.4-.967,2.486-3.114c.045-1.1-1.685-2.146-1.685-2.146a3.194,3.194,0,0,0,1.845-2.768c-.032-1.531-1.762-2.338-1.762-2.338s1.441-1.666.9-3.2C350.586,120.581,337.523,119.5,335.108,124.15Z" transform="translate(-214.209 -83.318)" fill="#f7a9a0"/>
      <path id="Path_13813" data-name="Path 13813" d="M350.649,156l-1.089,4.408c0,4.28,5.209,9.61,6.31,5.971.846-2.761-2.332-6.5-1.057-9.206h0Z" transform="translate(-220.659 -95.97)" fill="#f7a9a0"/>
      <path id="Path_13814" data-name="Path 13814" d="M353.478,129.3a.032.032,0,1,0,0-.064,22.756,22.756,0,0,0-13.524-.314c-.141.045-.128.288,0,.269a46.768,46.768,0,0,1,13.524.109Z" transform="translate(-217.17 -85.68)" fill="#263238"/>
      <path id="Path_13815" data-name="Path 13815" d="M353.107,137.55c.051,0,.064-.077,0-.1a21.317,21.317,0,0,0-14.774.577c-.16.07-.231.3-.038.231C341.556,137.088,348.956,136.838,353.107,137.55Z" transform="translate(-216.569 -88.871)" fill="#263238"/>
      <path id="Path_13816" data-name="Path 13816" d="M337.546,147.373c4.606-1.858,9.354-2.057,14.255-1.557.064,0,.064-.083,0-.1a19.219,19.219,0,0,0-7.944-.679,13.114,13.114,0,0,0-6.407,2.178C337.4,147.264,337.443,147.418,337.546,147.373Z" transform="translate(-216.3 -91.951)" fill="#263238"/>
    </g>
  </g>
</svg>
