<svg xmlns="http://www.w3.org/2000/svg" width="285" height="240.001" viewBox="0 0 285 240.001">
  <g id="survey-illustration" transform="translate(-8.22 -86.253)">
    <ellipse id="Ellipse_89" data-name="Ellipse 89" cx="142.5" cy="82.327" rx="142.5" ry="82.327" transform="translate(8.22 161.601)" fill="#f5f5f5"/>
    <g id="Group_3359" data-name="Group 3359" transform="translate(59.523 86.255)">
      <path id="Path_13336" data-name="Path 13336" d="M82.915,303.193l-2.1-1.236a2.673,2.673,0,0,1-1.2-2.078V144.336a2.673,2.673,0,0,1,1.2-2.072l96.512-55.726a2.674,2.674,0,0,1,2.4,0l2.1,1.216a2.673,2.673,0,0,1,1.2,2.072V245.4a2.673,2.673,0,0,1-1.2,2.079L85.314,303.193a2.674,2.674,0,0,1-2.4,0Z" transform="translate(-79.62 -86.255)" fill="#37474f"/>
      <path id="Path_13337" data-name="Path 13337" d="M183.189,89.633c-.087-.615-.588-.842-1.19-.5L85.487,144.861a2.419,2.419,0,0,0-.849.889l-4.5-2.593a2.473,2.473,0,0,1,.849-.889L177.5,86.539a2.673,2.673,0,0,1,2.4,0l2.1,1.216a2.673,2.673,0,0,1,1.189,1.878Z" transform="translate(-79.792 -86.255)" fill="#455a64"/>
      <path id="Path_13338" data-name="Path 13338" d="M85.1,331.537a.141.141,0,0,1-.067,0l-.127.047H84.86a.9.9,0,0,0-.221.06h0a2.714,2.714,0,0,1-1.424-.107,1.918,1.918,0,0,1-.267-.12L80.816,330.2a2.673,2.673,0,0,1-1.2-2.079V172.573a2.486,2.486,0,0,1,.348-1.183l4.5,2.593a2.44,2.44,0,0,0-.354,1.183V330.749a1.016,1.016,0,0,0,.18.628.668.668,0,0,0,.668.207Z" transform="translate(-79.62 -114.499)" fill="#263238"/>
      <path id="Path_13339" data-name="Path 13339" d="M134.59,146.267a.943.943,0,0,0-.214-.441l-.08-.067a.475.475,0,0,0-.448-.067.515.515,0,0,0-.167.074,1.885,1.885,0,0,0-.668.822,2.907,2.907,0,0,0-.281,1.2,1.2,1.2,0,0,0,.267.862.528.528,0,0,0,.668.053,1.417,1.417,0,0,0,.374-.328,2.856,2.856,0,0,0,.254-.394,3,3,0,0,0,.327-1.3A2,2,0,0,0,134.59,146.267ZM150.283,111.2a2.232,2.232,0,0,0-1.15-.307,4.531,4.531,0,0,0-2.165.668,9.792,9.792,0,0,0-4.01,4.792c-.127.281-.247.575-.354.862s-.221.581-.314.882-.2.6-.287.9c-.033.1-.06.207-.094.3l-.174.608a.434.434,0,0,1,0,.087c-.1.368-.194.749-.3,1.123-.053.207-.1.4-.154.6l-.154.6c-.214.8-.428,1.557-.668,2.286l-.154.441c-.074.207-.147.414-.227.615s-.127.307-.187.448c-.1.247-.207.481-.321.708s-.14.287-.214.428c-1.691,3.248-3.756,4.518-4.953,6.189-1.049,1.457-1.337,2.62-2.754,4.926-.448.735-1.009,1.584-1.744,2.6-2.039,2.807-2.767,4.2-3.014,5.039a.282.282,0,0,0,0,.067.273.273,0,0,1-.047.187.247.247,0,0,0,0,.06q0,.08,0,.16a3.343,3.343,0,0,0-.033.495V153.2l2.246,1.3v-6.249a3.014,3.014,0,0,1,.14-.962c.247-.842.969-2.226,3.014-5.033.735-1.023,1.3-1.871,1.744-2.607,1.4-2.3,1.7-3.469,2.754-4.913h0c1.2-1.678,3.262-2.941,4.953-6.2A15.318,15.318,0,0,0,142.31,127c1.083-2.673,1.571-6.276,2.9-9.3a9.731,9.731,0,0,1,4.01-4.779c1.37-.789,2.373-.856,3.141-.495Zm9.845,7.98h0a2.407,2.407,0,0,0-.6-.241c-.849-.2-2.112.294-3.382.147,1.785,2.306,4.264.822,5.628,1.15a2.1,2.1,0,0,1,.6.247h0Zm4.759,8.575a1.244,1.244,0,0,0-.187.14l-.094.094-.087.1a2.814,2.814,0,0,0-.588,1.691,1.243,1.243,0,0,0,.261.855.849.849,0,0,0,.08.067.461.461,0,0,0,.441.067.568.568,0,0,0,.174-.074c.067-.04.127-.094.194-.14a1.92,1.92,0,0,0,.261-.3,2.874,2.874,0,0,0,.5-1.577c0-.809-.428-1.23-.956-.922Zm1.47-5.648a7.352,7.352,0,0,0-2.319-.822c-.348-.08-.668-.167-.929-.254a6.516,6.516,0,0,0,3.168,1.544,9.1,9.1,0,0,1,2.072.668Z" transform="translate(-95.27 -94.424)" fill="#d72027"/>
      <path id="Path_13340" data-name="Path 13340" d="M169.611,124l-.18-.107a9.1,9.1,0,0,0-2.072-.668,6.49,6.49,0,0,1-3.168-1.544,4.519,4.519,0,0,0-.729-.548,2.132,2.132,0,0,0-.6-.241c-1.337-.328-3.843,1.156-5.621-1.15l-.06-.074c-1.243-1.678-1.7-5.42-3.562-6.517l-.187-.107c-.769-.361-1.771-.294-3.141.5-4.939,2.854-5.106,9.631-6.884,14.089s-4.3,5.855-5.674,7.773-1.464,3.342-4.5,7.526-3.155,5.213-3.155,6.015v6.243l40.45-23.393v-6.243a1.577,1.577,0,0,0-.917-1.549Zm-34.849,25.351c-.528.307-.949-.1-.949-.916a2.52,2.52,0,0,1,.949-2.005c.528-.307.949.107.949.922A2.506,2.506,0,0,1,134.762,149.351Zm15.526-18.808a2,2,0,0,1-3.115-.956,5.754,5.754,0,0,1-.488-2.513c0-3.068,1.611-6.483,3.6-7.633a2.854,2.854,0,0,1,.869-.341c1.577-.314,2.734,1.2,2.734,3.81,0,3.068-1.611,6.483-3.6,7.633Zm15.68.789c-.528.307-.956-.1-.956-.909a2.526,2.526,0,0,1,.956-2.005c.528-.3.956.107.956.922a2.5,2.5,0,0,1-.956,1.992Z" transform="translate(-96.351 -95.07)" fill="#d72027"/>
      <path id="Path_13341" data-name="Path 13341" d="M169.611,124l-.18-.107a9.1,9.1,0,0,0-2.072-.668,6.49,6.49,0,0,1-3.168-1.544,4.519,4.519,0,0,0-.729-.548,2.132,2.132,0,0,0-.6-.241c-1.337-.328-3.843,1.156-5.621-1.15l-.06-.074c-1.243-1.678-1.7-5.42-3.562-6.517l-.187-.107c-.769-.361-1.771-.294-3.141.5-4.939,2.854-5.106,9.631-6.884,14.089s-4.3,5.855-5.674,7.773-1.464,3.342-4.5,7.526-3.155,5.213-3.155,6.015v6.243l40.45-23.393v-6.243a1.577,1.577,0,0,0-.917-1.549Zm-34.849,25.351c-.528.307-.949-.1-.949-.916a2.52,2.52,0,0,1,.949-2.005c.528-.307.949.107.949.922A2.506,2.506,0,0,1,134.762,149.351Zm15.526-18.808a2,2,0,0,1-3.115-.956,5.754,5.754,0,0,1-.488-2.513c0-3.068,1.611-6.483,3.6-7.633a2.854,2.854,0,0,1,.869-.341c1.577-.314,2.734,1.2,2.734,3.81,0,3.068-1.611,6.483-3.6,7.633Zm15.68.789c-.528.307-.956-.1-.956-.909a2.526,2.526,0,0,1,.956-2.005c.528-.3.956.107.956.922a2.5,2.5,0,0,1-.956,1.992Z" transform="translate(-96.351 -95.07)" opacity="0.1"/>
      <path id="Path_13342" data-name="Path 13342" d="M129.1,164.747a3.015,3.015,0,0,0-.14.962v6.249l-2.246-1.3v-6.243a3.343,3.343,0,0,1,.033-.495q0-.08,0-.16a.246.246,0,0,1,0-.06.29.29,0,0,1,.047-.187v-.067h0Z" transform="translate(-95.237 -111.858)" opacity="0.25"/>
      <path id="Path_13343" data-name="Path 13343" d="M139.043,145.953c-1.049,1.444-1.337,2.613-2.754,4.913l-2.239-1.31c1.4-2.306,1.7-3.469,2.754-4.926h0Z" transform="translate(-97.671 -105.616)" opacity="0.25"/>
      <path id="Path_13344" data-name="Path 13344" d="M151.448,120.36c-1.337,3.028-1.818,6.6-2.9,9.3a15.32,15.32,0,0,1-.722,1.584l-2.246-1.29c.074-.14.147-.287.214-.428s.221-.461.321-.708c.06-.14.127-.294.187-.448s.154-.408.227-.615l.154-.441c.241-.729.454-1.49.668-2.286l.154-.6c.053-.2.1-.394.154-.6.107-.374.2-.755.3-1.123a.432.432,0,0,0,0-.087l.174-.608c.033-.094.06-.2.094-.3.087-.3.187-.6.287-.9s.2-.588.314-.882.227-.581.354-.862Z" transform="translate(-101.494 -97.137)" opacity="0.25"/>
      <path id="Path_13345" data-name="Path 13345" d="M135.939,156.417a2.908,2.908,0,0,0-.281,1.2,1.2,1.2,0,0,0,.267.862,1.237,1.237,0,0,1-.261-.862,3.014,3.014,0,0,1,.275-1.2Zm1.631.1a2,2,0,0,0-.047-.421,2,2,0,0,1,.04.421,2.994,2.994,0,0,1-.321,1.3,3,3,0,0,0,.327-1.3ZM167.2,140.53a.461.461,0,0,0,.441.067.508.508,0,0,1-.441-.067Z" transform="translate(-98.203 -104.256)" fill="#0761ce"/>
      <path id="Path_13346" data-name="Path 13346" d="M162.384,126c0,3.068-1.617,6.483-3.609,7.633a2.038,2.038,0,0,1-3.115-.949,2.848,2.848,0,0,0,.876-.348c2-1.156,3.6-4.565,3.6-7.633a5.661,5.661,0,0,0-.495-2.513C161.234,121.875,162.384,123.386,162.384,126Z" transform="translate(-104.837 -98.158)" fill="#d72027"/>
      <path id="Path_13347" data-name="Path 13347" d="M162.384,126c0,3.068-1.617,6.483-3.609,7.633a2.038,2.038,0,0,1-3.115-.949,2.848,2.848,0,0,0,.876-.348c2-1.156,3.6-4.565,3.6-7.633a5.661,5.661,0,0,0-.495-2.513C161.234,121.875,162.384,123.386,162.384,126Z" transform="translate(-104.837 -98.158)" opacity="0.3"/>
      <path id="Path_13348" data-name="Path 13348" d="M137.225,165.239a2.087,2.087,0,0,1-.247.394,1.418,1.418,0,0,1-.374.327.528.528,0,0,1-.668-.053,1.2,1.2,0,0,1-.267-.862,2.907,2.907,0,0,1,.281-1.2,1.885,1.885,0,0,1,.668-.822.514.514,0,0,1,.167-.074.5.5,0,0,1,.528.134.943.943,0,0,1,.214.441,2.006,2.006,0,0,1,.047.421,2.834,2.834,0,0,1-.349,1.294Z" transform="translate(-98.206 -111.682)" fill="#37474f"/>
      <path id="Path_13349" data-name="Path 13349" d="M184.26,136.992a2.874,2.874,0,0,1-.5,1.577,1.918,1.918,0,0,1-.261.3c-.067.047-.127.1-.194.14a.57.57,0,0,1-.174.074.5.5,0,0,1-.521-.134,1.243,1.243,0,0,1-.261-.855,2.814,2.814,0,0,1,.588-1.691l.087-.1.094-.094a1.243,1.243,0,0,1,.187-.14C183.832,135.763,184.26,136.184,184.26,136.992Z" transform="translate(-113.687 -102.742)" fill="#37474f"/>
      <path id="Path_13350" data-name="Path 13350" d="M97.152,171.562l83.987-48.487a1.6,1.6,0,0,1,1.437,0l.809.468a1.611,1.611,0,0,1,.722,1.25V252.911a1.59,1.59,0,0,1-.722,1.243L99.4,302.641a1.558,1.558,0,0,1-1.437,0l-.809-.468a1.584,1.584,0,0,1-.722-1.243V172.812a1.591,1.591,0,0,1,.722-1.25Z" transform="translate(-85.195 -98.409)" fill="#f5f5f5"/>
      <path id="Path_13351" data-name="Path 13351" d="M184.186,124.573a.409.409,0,0,0-.668-.2L99.5,172.863a1.47,1.47,0,0,0-.5.537l-2.246-1.3a1.337,1.337,0,0,1,.508-.535l83.987-48.49a1.544,1.544,0,0,1,1.43,0l.815.461a1.6,1.6,0,0,1,.692,1.037Z" transform="translate(-85.301 -98.41)" fill="#fafafa"/>
      <path id="Path_13352" data-name="Path 13352" d="M99.23,327.172a1.2,1.2,0,0,1-.267.067h-.14a1.9,1.9,0,0,1-.434,0,1.115,1.115,0,0,1-.267-.067l-.16-.08-.809-.468a1.571,1.571,0,0,1-.722-1.243V197.228a1.41,1.41,0,0,1,.214-.708l2.246,1.3a1.511,1.511,0,0,0-.207.708V326.651C98.682,327.045,98.91,327.239,99.23,327.172Z" transform="translate(-85.195 -122.833)" fill="#e0e0e0"/>
      <path id="Path_13353" data-name="Path 13353" d="M148.907,151.68l-.114.187a4.679,4.679,0,0,0-.575,1.417v.08a.121.121,0,0,0,0,.033l-1.37,7.713-.428,2.466a1.368,1.368,0,0,1-.074.307,2.962,2.962,0,0,1-.094.294.61.61,0,0,1-.074.2l2.246,1.3a3.8,3.8,0,0,0,.234-.8l.441-2.466,1.337-7.713a4.157,4.157,0,0,1,.7-1.718Z" transform="translate(-101.693 -107.954)" fill="#d72027"/>
      <path id="Path_13354" data-name="Path 13354" d="M125.717,188.429c-.227.361-.441.722-.668,1.083-.094.174-.187.348-.274.521s-.214.448-.307.668-.214.495-.307.749-.187.508-.274.762-.194.6-.274.9c-.053.194-.107.388-.16.6q-.187.708-.341,1.444a3.412,3.412,0,0,1-.1.508c-.027.167-.087.414-.12.615v.033c0,.16,0,.267.08.314a.08.08,0,0,0,.067,0h0l1.932-1.51.314-.247.154-.114.167-.134.134-.1.114-.094a17.024,17.024,0,0,1,2.774-5.661l-2.246-1.3C126.158,187.781,125.931,188.108,125.717,188.429Z" transform="translate(-93.97 -119.821)" fill="#d72027"/>
      <path id="Path_13355" data-name="Path 13355" d="M161.45,126.29c-.107.174-.2.348-.294.521a2.149,2.149,0,0,0-.16.3c-.08.14-.147.287-.221.434s-.12.234-.174.354c-.114.227-.214.454-.307.668s-.214.495-.307.742c-.094.221-.167.441-.241.668-.12.334-.221.668-.314,1.009-.053.18-.094.354-.14.528a.235.235,0,0,1,0,.04,2.013,2.013,0,0,1-.06.274c-.053.207-.094.421-.127.628a3.9,3.9,0,0,1-.114.495c-.047.167-.087.348-.14.521s-.107.327-.16.495v.047c-.067.18-.14.368-.221.555s-.147.368-.241.561a1.453,1.453,0,0,0-.06.154c-.067.14-.14.281-.207.428l-.354.668c-.08.16-.16.307-.247.461l2.252,1.3a15.232,15.232,0,0,0,1.751-4.4,19.322,19.322,0,0,1,2.366-6.2Z" transform="translate(-105.401 -99.532)" fill="#d72027"/>
      <path id="Path_13356" data-name="Path 13356" d="M183.288,133.71a.856.856,0,0,0-.368-.12,2.747,2.747,0,0,0,2,1.27,1.457,1.457,0,0,1,.561.12Z" transform="translate(-113.878 -101.953)" fill="#d72027"/>
      <path id="Path_13357" data-name="Path 13357" d="M183.288,133.71a.856.856,0,0,0-.368-.12,2.747,2.747,0,0,0,2,1.27,1.457,1.457,0,0,1,.561.12Z" transform="translate(-113.878 -101.953)" fill="#fff" opacity="0.4"/>
      <path id="Path_13358" data-name="Path 13358" d="M192.335,148.258a2.419,2.419,0,0,0-2.252.067c-2.613,1.15-3.743,1.671-5.093,2.232-.261,1.738.762,1.9,1.27,1.691,1.9-.749,2.867-1.21,6.075-2.62a2.426,2.426,0,0,1,2.232-.074Z" transform="translate(-114.55 -106.738)" fill="#d72027"/>
      <path id="Path_13359" data-name="Path 13359" d="M192.335,148.258a2.419,2.419,0,0,0-2.252.067c-2.613,1.15-3.743,1.671-5.093,2.232-.261,1.738.762,1.9,1.27,1.691,1.9-.749,2.867-1.21,6.075-2.62a2.426,2.426,0,0,1,2.232-.074Z" transform="translate(-114.55 -106.738)" fill="#fff" opacity="0.4"/>
      <path id="Path_13360" data-name="Path 13360" d="M142.423,171.977a9.19,9.19,0,0,1-2,2.821l-7.031,5.287a18.713,18.713,0,0,0-3.021,3.108l-2.246-1.3a18.48,18.48,0,0,1,3.021-3.115l7.045-5.28a9.357,9.357,0,0,0,1.972-2.821Z" transform="translate(-95.704 -114.256)" fill="#d72027"/>
      <path id="Path_13361" data-name="Path 13361" d="M142.423,171.977a9.19,9.19,0,0,1-2,2.821l-7.031,5.287a18.713,18.713,0,0,0-3.021,3.108l-2.246-1.3a18.48,18.48,0,0,1,3.021-3.115l7.045-5.28a9.357,9.357,0,0,0,1.972-2.821Z" transform="translate(-95.704 -114.256)" fill="#fff" opacity="0.4"/>
      <path id="Path_13362" data-name="Path 13362" d="M157.224,143.457a23.94,23.94,0,0,1-3.556,4.946,8.448,8.448,0,0,0-1.163,1.417l-2.246-1.3a7.667,7.667,0,0,1,1.163-1.417,23.947,23.947,0,0,0,3.549-4.946Z" transform="translate(-103.047 -104.797)" fill="#d72027"/>
      <path id="Path_13363" data-name="Path 13363" d="M157.224,143.457a23.94,23.94,0,0,1-3.556,4.946,8.448,8.448,0,0,0-1.163,1.417l-2.246-1.3a7.667,7.667,0,0,1,1.163-1.417,23.947,23.947,0,0,0,3.549-4.946Z" transform="translate(-103.047 -104.797)" fill="#fff" opacity="0.4"/>
      <path id="Path_13364" data-name="Path 13364" d="M174.291,118.477a3.444,3.444,0,0,0-3.228.321,15.052,15.052,0,0,0-5.347,5.674l-2.246-1.337a14.755,14.755,0,0,1,5.347-5.674,4.525,4.525,0,0,1,2.059-.581,2.466,2.466,0,0,1,1.236.314Z" transform="translate(-107.427 -96.411)" fill="#d72027"/>
      <path id="Path_13365" data-name="Path 13365" d="M174.291,118.477a3.444,3.444,0,0,0-3.228.321,15.052,15.052,0,0,0-5.347,5.674l-2.246-1.337a14.755,14.755,0,0,1,5.347-5.674,4.525,4.525,0,0,1,2.059-.581,2.466,2.466,0,0,1,1.236.314Z" transform="translate(-107.427 -96.411)" fill="#fff" opacity="0.4"/>
      <path id="Path_13366" data-name="Path 13366" d="M128.673,188.763a17.023,17.023,0,0,0-2.774,5.661l-.114.094-.134.1-.167.134-.154.114-.314.247-1.9,1.524h0a.08.08,0,0,1-.067,0c-.074-.047-.107-.154-.08-.314v-.033a2.939,2.939,0,0,1,.12-.615c.047-.207.067-.341.1-.508q.154-.729.341-1.444c.053-.207.107-.4.16-.6.08-.3.174-.6.274-.9s.174-.508.274-.762.194-.5.307-.749.2-.461.307-.668.18-.348.274-.521a9.5,9.5,0,0,1,.668-1.083c.261-.361.441-.668.668-.969Z" transform="translate(-93.992 -119.828)" opacity="0.15"/>
      <path id="Path_13367" data-name="Path 13367" d="M151.159,152.977a4.157,4.157,0,0,0-.7,1.718l-1.337,7.713-.441,2.466a3.8,3.8,0,0,1-.234.8l-2.246-1.3c0-.067.053-.134.074-.2a2.957,2.957,0,0,0,.094-.294,1.588,1.588,0,0,1,.074-.307l.428-2.466,1.37-7.713a.121.121,0,0,1,0-.033v-.08a4.679,4.679,0,0,1,.575-1.417l.114-.187Z" transform="translate(-101.7 -107.954)" opacity="0.15"/>
      <path id="Path_13368" data-name="Path 13368" d="M163.68,127.62a19.322,19.322,0,0,0-2.366,6.2,15.233,15.233,0,0,1-1.751,4.4l-2.252-1.3c.087-.154.167-.3.247-.461l.354-.668c.067-.147.14-.287.207-.428a1.444,1.444,0,0,1,.06-.154c.087-.187.167-.381.241-.561s.154-.374.221-.555v-.047c.053-.167.114-.327.16-.495s.1-.348.14-.521.08-.334.114-.495.074-.421.127-.628a1.341,1.341,0,0,1,.06-.274.232.232,0,0,0,0-.04c.047-.174.087-.348.14-.528.094-.341.194-.668.314-1.009.073-.227.147-.448.241-.668.094-.247.2-.495.307-.742s.194-.454.307-.668c.053-.12.114-.234.174-.354s.14-.294.221-.434a2.148,2.148,0,0,1,.16-.3c.094-.174.187-.348.294-.521Z" transform="translate(-105.385 -99.558)" opacity="0.15"/>
      <path id="Path_13369" data-name="Path 13369" d="M123.16,200.424h0l1.9-1.524C124.3,199.508,123.274,200.3,123.16,200.424Z" transform="translate(-94.059 -123.615)" fill="#0761ce"/>
      <path id="Path_13370" data-name="Path 13370" d="M174.073,139.921h0a2.453,2.453,0,0,0-2.239.067c-3.2,1.417-4.171,1.878-6.069,2.633-.508.2-1.531.04-1.27-1.7a.826.826,0,0,1,0-.114l.434-2.466,1.216-6.724s.274-1.063-.428-1.457h-.053a1.176,1.176,0,0,0-.555-.12,2.754,2.754,0,0,1-2.005-1.283,5.053,5.053,0,0,1-.755-3.843c.515-2.887-.047-4.906-1.337-5.654l-.1-.067a3.444,3.444,0,0,0-3.228.321c-3.415,1.791-6.864,7.1-7.706,11.877-.528,3.008-3.556,7.639-5.307,9.357a5.581,5.581,0,0,0-1.865,3.135L141.47,151.6l-.441,2.466a8.1,8.1,0,0,1-2.212,3.629l-7.085,5.227a16.97,16.97,0,0,0-5.795,8.769s-2.673,2.045-2.807,2.212h0l.9-.515,48.6-27.944s.561-.3.668-.381,2.079-1.925,2.079-1.925C175.35,141.546,174.888,140.409,174.073,139.921Zm-14.036-14.176c-.521,2.934-2.633,6.2-4.732,7.305-1.45.755-2.513.287-2.867-1.049a5.594,5.594,0,0,1,0-2.272c.515-2.934,2.64-6.2,4.739-7.3a3.538,3.538,0,0,1,.608-.261c1.718-.521,2.687.942,2.239,3.576Z" transform="translate(-94.049 -97.089)" fill="#d72027"/>
      <path id="Path_13371" data-name="Path 13371" d="M123.166,185.922l49.513-28.459.668-.381c.12-.074,2.079-1.932,2.079-1.932l-49.46,28.55S122.972,186.029,123.166,185.922Z" transform="translate(-94.058 -109.105)" fill="#d72027"/>
      <path id="Path_13372" data-name="Path 13372" d="M123.166,185.922l49.513-28.459.668-.381c.12-.074,2.079-1.932,2.079-1.932l-49.46,28.55S122.972,186.029,123.166,185.922Z" transform="translate(-94.058 -109.105)" opacity="0.3"/>
      <path id="Path_13373" data-name="Path 13373" d="M172.289,123.728a3.542,3.542,0,0,0-.608.261c-2.1,1.1-4.224,4.364-4.739,7.3a5.6,5.6,0,0,0,0,2.272c.354,1.337,1.417,1.8,2.867,1.049,2.1-1.1,4.211-4.371,4.732-7.305C174.963,124.67,173.993,123.207,172.289,123.728Zm-5.213,9.778a5.475,5.475,0,0,1,0-2.192c.515-2.9,2.607-6.129,4.679-7.205a3.963,3.963,0,0,1,.535-.234,5.621,5.621,0,0,1,0,2.139c-.515,2.934-2.633,6.2-4.739,7.3a3.537,3.537,0,0,1-.475.207Z" transform="translate(-108.54 -98.647)" fill="#d72027"/>
      <path id="Path_13374" data-name="Path 13374" d="M172.289,123.728a3.542,3.542,0,0,0-.608.261c-2.1,1.1-4.224,4.364-4.739,7.3a5.6,5.6,0,0,0,0,2.272c.354,1.337,1.417,1.8,2.867,1.049,2.1-1.1,4.211-4.371,4.732-7.305C174.963,124.67,173.993,123.207,172.289,123.728Zm-5.213,9.778a5.475,5.475,0,0,1,0-2.192c.515-2.9,2.607-6.129,4.679-7.205a3.963,3.963,0,0,1,.535-.234,5.621,5.621,0,0,1,0,2.139c-.515,2.934-2.633,6.2-4.739,7.3a3.537,3.537,0,0,1-.475.207Z" transform="translate(-108.54 -98.647)" opacity="0.4"/>
      <path id="Path_13375" data-name="Path 13375" d="M116.36,254.5a.6.6,0,0,1-.3-.08.708.708,0,0,1-.321-.668V250.9a1.584,1.584,0,0,1,.735-1.277l2.493-1.437a.668.668,0,0,1,1.036.6v2.881a1.571,1.571,0,0,1-.735,1.277l-2.493,1.444a.835.835,0,0,1-.414.12Zm3.021-5.842a.518.518,0,0,0-.114.047l-2.493,1.437a.989.989,0,0,0-.434.755v2.881a.22.22,0,0,0,0,.12.348.348,0,0,0,.114-.04l2.493-1.444a.989.989,0,0,0,.434-.755V248.78a.381.381,0,0,0,0-.087Z" transform="translate(-91.597 -139.925)" fill="#455a64"/>
      <path id="Path_13376" data-name="Path 13376" d="M125,244.764l9.825-5.674c.328-.187.588-.04.588.334v.769a1.29,1.29,0,0,1-.588,1.009L125,246.876c-.321.187-.588.04-.588-.334v-.769a1.29,1.29,0,0,1,.588-1.009Z" transform="translate(-94.474 -136.918)" fill="#e0e0e0"/>
      <path id="Path_13377" data-name="Path 13377" d="M152.787,233.451a.581.581,0,0,1-.3-.08.709.709,0,0,1-.327-.668v-2.881a1.591,1.591,0,0,1,.742-1.277l2.493-1.437a.652.652,0,0,1,1.036.6v2.881a1.571,1.571,0,0,1-.735,1.277l-2.5,1.439a.835.835,0,0,1-.413.151Zm3.014-5.842a.915.915,0,0,0-.107.047l-2.493,1.437a1,1,0,0,0-.441.755v2.881a.187.187,0,0,0,0,.12.414.414,0,0,0,.114-.04l2.493-1.444a.976.976,0,0,0,.434-.755v-2.88a.208.208,0,0,0,0-.12Z" transform="translate(-103.675 -132.93)" fill="#455a64"/>
      <path id="Path_13378" data-name="Path 13378" d="M161.428,223.734l9.825-5.674c.327-.187.588-.04.588.334v.769a1.29,1.29,0,0,1-.588,1.009l-9.825,5.674c-.327.187-.588.04-.588-.334v-.769a1.337,1.337,0,0,1,.588-1.009Z" transform="translate(-106.555 -129.943)" fill="#e0e0e0"/>
      <path id="Path_13379" data-name="Path 13379" d="M189.21,212.425a.6.6,0,0,1-.3-.08.722.722,0,0,1-.321-.668V208.8a1.591,1.591,0,0,1,.735-1.277h0l2.493-1.437a.668.668,0,0,1,1.043.6v2.874a1.577,1.577,0,0,1-.742,1.277l-2.493,1.444a.822.822,0,0,1-.415.144Zm.414-4.358a1.009,1.009,0,0,0-.434.755V211.7a.187.187,0,0,0,0,.12.234.234,0,0,0,.107-.04l2.493-1.444a1,1,0,0,0,.441-.755v-2.874a.221.221,0,0,0,0-.127.244.244,0,0,0-.114.047Z" transform="translate(-115.757 -125.959)" fill="#455a64"/>
      <path id="Path_13380" data-name="Path 13380" d="M197.858,202.7l9.825-5.674c.321-.187.588-.04.588.334v.769a1.337,1.337,0,0,1-.588,1.009l-9.825,5.674c-.327.187-.588.04-.588-.334v-.769a1.29,1.29,0,0,1,.588-1.009Z" transform="translate(-118.637 -122.968)" fill="#e0e0e0"/>
      <path id="Path_13381" data-name="Path 13381" d="M125.33,209.235v1.123c0,.615.428.862.956.555l57.48-33.158a2.125,2.125,0,0,0,.956-1.664v-1.13c0-.608-.428-.856-.956-.555l-57.48,33.164a2.125,2.125,0,0,0-.956,1.665Z" transform="translate(-94.779 -115.45)" fill="#e0e0e0"/>
      <path id="Path_13382" data-name="Path 13382" d="M118.78,196.115v1.123c0,.615.428.862.962.555l57.446-33.158a2.112,2.112,0,0,0,.962-1.664v-1.13c0-.608-.428-.855-.962-.555L119.742,194.47a2.112,2.112,0,0,0-.962,1.644Z" transform="translate(-92.607 -111.098)" fill="#455a64"/>
      <path id="Path_13383" data-name="Path 13383" d="M125.33,219.408v1.13c0,.608.428.856.956.555l57.48-33.158a2.125,2.125,0,0,0,.956-1.664v-1.13c0-.608-.428-.856-.956-.555l-57.48,33.164a2.125,2.125,0,0,0-.956,1.658Z" transform="translate(-94.779 -118.826)" fill="#e0e0e0"/>
      <path id="Path_13384" data-name="Path 13384" d="M115.028,234.744c1.5-1.49,1.878-2.125,1.878-2.673s-.221-.842-.9-.455a2.313,2.313,0,0,0-1.116,1.6l-1.644.368a6.149,6.149,0,0,1,2.814-4.211c1.644-.949,2.6-.241,2.6,1.337a6.1,6.1,0,0,1-1.871,4.044v1.3l-1.764,1.016Z" transform="translate(-90.773 -133.582)" fill="#455a64"/>
      <path id="Path_13385" data-name="Path 13385" d="M115.88,243.237a1.845,1.845,0,0,1,.9-1.6c.588-.341.889-.04.889.568a1.851,1.851,0,0,1-.889,1.611C116.181,244.159,115.88,243.838,115.88,243.237Z" transform="translate(-91.645 -137.743)" fill="#455a64"/>
      <path id="Path_13386" data-name="Path 13386" d="M117.212,251.516l.735.555-.668,1.27a.448.448,0,0,0,0,.535c.127.094.307,0,.414-.2l.668-1.263.735.555c.107.08.267,0,.361-.174a.388.388,0,0,0,0-.461l-.735-.555.668-1.27a.448.448,0,0,0,0-.535c-.127-.094-.307,0-.414.2l-.668,1.27-.735-.555c-.107-.08-.267,0-.361.167a.388.388,0,0,0,0,.461Z" transform="translate(-92.062 -140.542)" fill="#d72027"/>
      <path id="Path_13387" data-name="Path 13387" d="M116.36,292.461a.588.588,0,0,1-.3-.074.708.708,0,0,1-.321-.668v-2.881a1.571,1.571,0,0,1,.735-1.277l2.493-1.437a.668.668,0,0,1,1.036.6V289.6a1.571,1.571,0,0,1-.735,1.277l-2.493,1.437a.835.835,0,0,1-.415.147Zm3.021-5.835a.3.3,0,0,0-.114.047l-2.493,1.437a.989.989,0,0,0-.434.755v2.881a.221.221,0,0,0,0,.12.35.35,0,0,0,.114-.04l2.493-1.444a.989.989,0,0,0,.434-.755v-2.881a.381.381,0,0,0,0-.12Z" transform="translate(-91.597 -152.508)" fill="#455a64"/>
      <path id="Path_13388" data-name="Path 13388" d="M125,282.738l9.825-5.668c.328-.187.588-.04.588.334v.762a1.29,1.29,0,0,1-.588,1.016L125,284.856c-.321.187-.588.033-.588-.341v-.762A1.3,1.3,0,0,1,125,282.738Z" transform="translate(-94.474 -149.515)" fill="#e0e0e0"/>
      <path id="Path_13389" data-name="Path 13389" d="M152.787,271.424a.575.575,0,0,1-.3-.074.708.708,0,0,1-.327-.668V267.8a1.577,1.577,0,0,1,.742-1.277l2.493-1.437a.652.652,0,0,1,1.036.6v2.881a1.571,1.571,0,0,1-.735,1.277l-2.493,1.437a.835.835,0,0,1-.414.147Zm3.014-5.835a.347.347,0,0,0-.107.047l-2.493,1.437a1,1,0,0,0-.441.755v2.881a.187.187,0,0,0,0,.12.414.414,0,0,0,.114-.04l2.493-1.444a.989.989,0,0,0,.434-.755v-2.88a.208.208,0,0,0,0-.121Z" transform="translate(-103.675 -145.526)" fill="#455a64"/>
      <path id="Path_13390" data-name="Path 13390" d="M161.428,261.708l9.825-5.668c.327-.187.588-.04.588.334v.762a1.29,1.29,0,0,1-.588,1.016l-9.825,5.674a.364.364,0,0,1-.588-.341v-.762a1.337,1.337,0,0,1,.588-1.015Z" transform="translate(-106.555 -142.54)" fill="#e0e0e0"/>
      <path id="Path_13391" data-name="Path 13391" d="M189.21,250.4a.588.588,0,0,1-.3-.074.722.722,0,0,1-.321-.668v-2.881a1.591,1.591,0,0,1,.735-1.277h0l2.493-1.437a.668.668,0,0,1,1.043.6v2.881a1.577,1.577,0,0,1-.742,1.277l-2.493,1.437a.822.822,0,0,1-.414.147Zm.414-4.351a1.009,1.009,0,0,0-.434.755v2.881a.187.187,0,0,0,0,.12.426.426,0,0,0,.107-.04l2.493-1.444a1,1,0,0,0,.441-.755v-2.881a.207.207,0,0,0,0-.12.413.413,0,0,0-.114.047Z" transform="translate(-115.757 -138.556)" fill="#455a64"/>
      <path id="Path_13392" data-name="Path 13392" d="M197.858,240.678l9.825-5.668c.321-.187.588-.04.588.334v.762a1.337,1.337,0,0,1-.588,1.016l-9.825,5.674c-.327.187-.588.033-.588-.341v-.762a1.29,1.29,0,0,1,.588-1.015Z" transform="translate(-118.637 -135.565)" fill="#e0e0e0"/>
      <path id="Path_13393" data-name="Path 13393" d="M125.33,247.208v1.13c0,.608.428.856.956.555l57.48-33.158a2.125,2.125,0,0,0,.956-1.664v-1.13c0-.608-.428-.856-.956-.555l-57.48,33.164a2.125,2.125,0,0,0-.956,1.658Z" transform="translate(-94.779 -128.047)" fill="#e0e0e0"/>
      <path id="Path_13394" data-name="Path 13394" d="M125.33,257.386v1.13c0,.608.428.855.956.555l57.48-33.164a2.1,2.1,0,0,0,.956-1.658v-1.13c0-.615-.428-.862-.956-.555l-57.48,33.164a2.125,2.125,0,0,0-.956,1.658Z" transform="translate(-94.779 -131.421)" fill="#e0e0e0"/>
      <path id="Path_13395" data-name="Path 13395" d="M115.028,272.725c1.5-1.49,1.878-2.125,1.878-2.673s-.221-.842-.9-.454a2.313,2.313,0,0,0-1.116,1.6l-1.644.368a6.149,6.149,0,0,1,2.814-4.211c1.644-.949,2.6-.241,2.6,1.37a6.1,6.1,0,0,1-1.871,4.044v1.3l-1.764,1.016Z" transform="translate(-90.773 -146.179)" fill="#455a64"/>
      <path id="Path_13396" data-name="Path 13396" d="M115.88,281.216a1.845,1.845,0,0,1,.9-1.6c.588-.341.889-.04.889.568a1.858,1.858,0,0,1-.889,1.611C116.181,282.139,115.88,281.831,115.88,281.216Z" transform="translate(-91.645 -150.34)" fill="#455a64"/>
      <path id="Path_13397" data-name="Path 13397" d="M153.633,268.427l.735.555-.668,1.27a.448.448,0,0,0,0,.535c.12.094.307,0,.414-.2l.668-1.263.735.555c.107.08.267,0,.354-.174a.388.388,0,0,0,0-.461l-.735-.555.668-1.27a.441.441,0,0,0-.033-.535c-.12-.087-.307,0-.414.2l-.668,1.27-.735-.555c-.1-.08-.261,0-.354.167a.381.381,0,0,0,.033.461Z" transform="translate(-104.133 -146.152)" fill="#d72027"/>
      <path id="Path_13398" data-name="Path 13398" d="M116.36,330.454a.594.594,0,0,1-.3-.08.668.668,0,0,1-.321-.635v-2.881a1.571,1.571,0,0,1,.735-1.277l2.493-1.437a.668.668,0,0,1,1.036.6v2.881a1.571,1.571,0,0,1-.735,1.276l-2.493,1.437a.835.835,0,0,1-.415.121Zm3.021-5.835a.292.292,0,0,0-.114.047l-2.493,1.437a.989.989,0,0,0-.434.755v2.881a.241.241,0,0,0,0,.12.3.3,0,0,0,.114-.047l2.493-1.437a.989.989,0,0,0,.434-.755v-2.88a.381.381,0,0,0,0-.12Z" transform="translate(-91.597 -165.118)" fill="#455a64"/>
      <path id="Path_13399" data-name="Path 13399" d="M125,320.715l9.825-5.674c.328-.187.588-.033.588.341v.762a1.29,1.29,0,0,1-.588,1.016L125,322.834c-.321.187-.588.033-.588-.341v-.762A1.3,1.3,0,0,1,125,320.715Z" transform="translate(-94.474 -162.109)" fill="#e0e0e0"/>
      <path id="Path_13400" data-name="Path 13400" d="M152.787,309.419a.582.582,0,0,1-.3-.08.668.668,0,0,1-.327-.635v-2.881a1.577,1.577,0,0,1,.742-1.277l2.493-1.437a.708.708,0,0,1,.715-.047.722.722,0,0,1,.321.668v2.881a1.571,1.571,0,0,1-.735,1.277l-2.493,1.437a.835.835,0,0,1-.416.094Zm3.014-5.835a.349.349,0,0,0-.107.047l-2.493,1.437a1,1,0,0,0-.441.755V308.7a.207.207,0,0,0,0,.12.341.341,0,0,0,.114-.047l2.52-1.437a.989.989,0,0,0,.434-.755V303.7a.187.187,0,0,0-.027-.12Z" transform="translate(-103.675 -158.138)" fill="#455a64"/>
      <path id="Path_13401" data-name="Path 13401" d="M161.428,299.686l9.825-5.674c.327-.18.588-.033.588.341v.762a1.29,1.29,0,0,1-.588,1.016l-9.825,5.674c-.327.187-.588.033-.588-.341V300.7a1.337,1.337,0,0,1,.588-1.014Z" transform="translate(-106.555 -155.135)" fill="#e0e0e0"/>
      <path id="Path_13402" data-name="Path 13402" d="M189.21,288.388a.594.594,0,0,1-.3-.08.668.668,0,0,1-.321-.635v-2.881a1.571,1.571,0,0,1,.735-1.277h0l2.493-1.437a.668.668,0,0,1,1.056.575v2.881a1.577,1.577,0,0,1-.742,1.277l-2.493,1.437A.822.822,0,0,1,189.21,288.388Zm.414-4.351a1.009,1.009,0,0,0-.434.755v2.881a.207.207,0,0,0,0,.12.347.347,0,0,0,.107-.047l2.493-1.437a1,1,0,0,0,.441-.755v-2.9a.207.207,0,0,0,0-.12.511.511,0,0,0-.114.04Z" transform="translate(-115.757 -151.162)" fill="#455a64"/>
      <path id="Path_13403" data-name="Path 13403" d="M197.858,278.659l9.825-5.674a.366.366,0,0,1,.588.341v.762a1.337,1.337,0,0,1-.588,1.016l-9.825,5.674c-.327.187-.588.033-.588-.341v-.782A1.29,1.29,0,0,1,197.858,278.659Z" transform="translate(-118.637 -148.163)" fill="#e0e0e0"/>
      <path id="Path_13404" data-name="Path 13404" d="M125.33,285.187v1.13c0,.608.428.856.956.555l57.48-33.164a2.1,2.1,0,0,0,.956-1.658v-1.13c0-.608-.428-.862-.956-.555l-57.48,33.164a2.125,2.125,0,0,0-.956,1.658Z" transform="translate(-94.779 -140.642)" fill="#e0e0e0"/>
      <path id="Path_13405" data-name="Path 13405" d="M125.33,295.366v1.13c0,.608.428.855.956.548l57.48-33.158a2.112,2.112,0,0,0,.956-1.658V261.1c0-.615-.428-.862-.956-.555l-57.48,33.164a2.112,2.112,0,0,0-.956,1.657Z" transform="translate(-94.779 -144.018)" fill="#e0e0e0"/>
      <path id="Path_13406" data-name="Path 13406" d="M115.028,310.7c1.5-1.49,1.878-2.125,1.878-2.673s-.221-.849-.9-.454a2.313,2.313,0,0,0-1.116,1.6l-1.644.361a6.149,6.149,0,0,1,2.814-4.2c1.644-.949,2.6-.241,2.6,1.337a6.1,6.1,0,0,1-1.871,4.044v1.3l-1.764,1.016Z" transform="translate(-90.773 -158.775)" fill="#455a64"/>
      <path id="Path_13407" data-name="Path 13407" d="M115.88,319.2a1.851,1.851,0,0,1,.9-1.6c.588-.334.889-.033.889.575a1.865,1.865,0,0,1-.889,1.611C116.181,320.118,115.88,319.824,115.88,319.2Z" transform="translate(-91.645 -162.935)" fill="#455a64"/>
      <path id="Path_13408" data-name="Path 13408" d="M190.061,285.376l.729.555-.668,1.27a.441.441,0,0,0,0,.535c.12.094.307,0,.414-.2l.668-1.27.735.555c.107.08.261,0,.354-.167a.381.381,0,0,0,0-.461l-.735-.555.668-1.27a.461.461,0,0,0-.033-.535c-.12-.094-.307,0-.414.2l-.668,1.27-.735-.561c-.107-.08-.267,0-.354.174A.381.381,0,0,0,190.061,285.376Z" transform="translate(-116.213 -151.772)" fill="#d72027"/>
      <path id="Path_13409" data-name="Path 13409" d="M116.36,368.429a.6.6,0,0,1-.3-.08.668.668,0,0,1-.321-.635v-2.881a1.571,1.571,0,0,1,.735-1.277l2.493-1.444a.729.729,0,0,1,.715-.04.709.709,0,0,1,.321.668v2.881a1.591,1.591,0,0,1-.735,1.277l-2.493,1.437a.835.835,0,0,1-.415.094Zm3.021-5.835a.347.347,0,0,0-.114.04l-2.493,1.444a.989.989,0,0,0-.434.755v2.881a.241.241,0,0,0,0,.12.522.522,0,0,0,.114-.047l2.493-1.437a.989.989,0,0,0,.434-.755v-2.881a.334.334,0,0,0,0-.12Z" transform="translate(-91.597 -177.711)" fill="#455a64"/>
      <path id="Path_13410" data-name="Path 13410" d="M125,358.7l9.825-5.674c.328-.187.588-.033.588.341v.762a1.29,1.29,0,0,1-.588,1.016L125,360.814a.365.365,0,0,1-.588-.341v-.762a1.3,1.3,0,0,1,.588-1.016Z" transform="translate(-94.474 -174.707)" fill="#e0e0e0"/>
      <path id="Path_13411" data-name="Path 13411" d="M152.785,347.384a.582.582,0,0,1-.3-.08.668.668,0,0,1-.327-.668v-2.881a1.577,1.577,0,0,1,.742-1.277l2.493-1.444a.668.668,0,0,1,1.036.6v2.881a1.571,1.571,0,0,1-.735,1.277l-2.493,1.437A.835.835,0,0,1,152.785,347.384Zm3.014-5.835a.43.43,0,0,0-.107.04l-2.493,1.444a1,1,0,0,0-.441.755v2.881a.207.207,0,0,0,0,.12.733.733,0,0,0,.114-.047l2.493-1.437a.989.989,0,0,0,.434-.755v-2.907a.187.187,0,0,0,0-.094Z" transform="translate(-103.674 -170.72)" fill="#455a64"/>
      <path id="Path_13412" data-name="Path 13412" d="M161.428,337.668l9.825-5.674a.364.364,0,0,1,.588.341v.762a1.29,1.29,0,0,1-.588,1.016l-9.825,5.674c-.327.187-.588.033-.588-.341v-.789a1.337,1.337,0,0,1,.588-.989Z" transform="translate(-106.555 -167.733)" fill="#e0e0e0"/>
      <path id="Path_13413" data-name="Path 13413" d="M189.21,326.369a.594.594,0,0,1-.3-.08.668.668,0,0,1-.321-.635v-2.881a1.571,1.571,0,0,1,.735-1.277h0l2.493-1.444a.742.742,0,0,1,.722-.04.722.722,0,0,1,.321.668v2.881a1.591,1.591,0,0,1-.742,1.277l-2.493,1.437a.822.822,0,0,1-.414.094Zm.414-4.351a1.009,1.009,0,0,0-.434.755v2.881a.207.207,0,0,0,0,.12.911.911,0,0,0,.107-.047l2.493-1.437a1,1,0,0,0,.441-.755v-2.887a.187.187,0,0,0,0-.12.512.512,0,0,0-.114.04Z" transform="translate(-115.757 -163.76)" fill="#455a64"/>
      <path id="Path_13414" data-name="Path 13414" d="M197.858,316.635l9.825-5.674c.321-.187.588-.033.588.341v.762a1.337,1.337,0,0,1-.588,1.016l-9.825,5.674a.364.364,0,0,1-.588-.341v-.769a1.29,1.29,0,0,1,.588-1.009Z" transform="translate(-118.637 -160.756)" fill="#e0e0e0"/>
      <path id="Path_13415" data-name="Path 13415" d="M125.33,323.166v1.13c0,.608.428.855.956.548l57.48-33.158a2.112,2.112,0,0,0,.956-1.658V288.9c0-.615-.428-.862-.956-.555l-57.48,33.164a2.112,2.112,0,0,0-.956,1.657Z" transform="translate(-94.779 -153.238)" fill="#e0e0e0"/>
      <path id="Path_13416" data-name="Path 13416" d="M125.33,333.346v1.13c0,.608.428.856.956.548l57.48-33.158a2.125,2.125,0,0,0,.956-1.658v-1.13c0-.615-.428-.862-.956-.555l-57.48,33.164a2.112,2.112,0,0,0-.956,1.658Z" transform="translate(-94.779 -156.615)" fill="#e0e0e0"/>
      <path id="Path_13417" data-name="Path 13417" d="M115.028,348.685c1.5-1.49,1.878-2.125,1.878-2.673s-.221-.849-.9-.454a2.313,2.313,0,0,0-1.116,1.6l-1.644.368a6.149,6.149,0,0,1,2.814-4.2c1.644-.949,2.6-.241,2.6,1.37a6.1,6.1,0,0,1-1.871,4.044v1.3l-1.764,1.016Z" transform="translate(-90.773 -171.372)" fill="#455a64"/>
      <path id="Path_13418" data-name="Path 13418" d="M115.88,357.135a1.851,1.851,0,0,1,.9-1.6c.588-.334.889-.04.889.575a1.845,1.845,0,0,1-.889,1.6C116.181,358.084,115.88,357.8,115.88,357.135Z" transform="translate(-91.645 -175.52)" fill="#455a64"/>
      <path id="Path_13419" data-name="Path 13419" d="M190.061,323.516l.729.555-.668,1.27a.441.441,0,0,0,0,.535c.12.094.307,0,.414-.2l.668-1.27.735.561c.107.08.261,0,.354-.174a.381.381,0,0,0,0-.461l-.735-.555.668-1.27a.461.461,0,0,0-.033-.535c-.12-.094-.307,0-.414.2l-.668,1.27-.735-.561c-.107-.073-.267,0-.354.174a.381.381,0,0,0,.04.461Z" transform="translate(-116.213 -164.422)" fill="#d72027"/>
    </g>
    <g id="Group_3360" data-name="Group 3360" transform="translate(170.492 133.443)">
      <path id="Path_13420" data-name="Path 13420" d="M273.645,160.6l-4.913-2.834h0l-.047-.033h0c-2.446-1.384-5.8-1.176-9.5.969a27.076,27.076,0,0,0-9.03,9.2,28.093,28.093,0,0,0-4.491,14.216c0,4.311,1.5,7.352,3.943,8.749h0l4.993,2.854c2.46,1.571,5.942,1.43,9.8-.8,7.472-4.318,13.528-14.8,13.528-23.426C277.915,165.034,276.271,161.939,273.645,160.6Z" transform="translate(-245.653 -156.86)" fill="#d72027"/>
      <path id="Path_13421" data-name="Path 13421" d="M254.486,199.216l-4.892-2.8h0c-2.44-1.417-3.943-4.445-3.943-8.749a28.093,28.093,0,0,1,4.491-14.216l5.22,3.014a28.048,28.048,0,0,0-4.491,14.2C250.857,194.758,252.233,197.705,254.486,199.216Z" transform="translate(-245.65 -162.362)" opacity="0.1"/>
      <path id="Path_13422" data-name="Path 13422" d="M275.763,160.557c-2.406-1.17-5.621-.876-9.157,1.163a26.8,26.8,0,0,0-9.036,9.223l-5.22-3.014a26.957,26.957,0,0,1,9.03-9.2c3.709-2.145,7.058-2.346,9.5-.969h0l.047.033h0Z" transform="translate(-247.872 -156.868)" fill="#fff" opacity="0.4"/>
      <path id="Path_13423" data-name="Path 13423" d="M267.936,180.782a3.382,3.382,0,0,1-1.283,2.714c-.708.408-1.283-.14-1.283-1.23a3.382,3.382,0,0,1,1.283-2.714C267.361,179.137,267.936,179.692,267.936,180.782Z" transform="translate(-252.189 -164.34)" fill="#6b1013"/>
      <path id="Path_13424" data-name="Path 13424" d="M278.866,174.473a3.382,3.382,0,0,1-1.283,2.714c-.708.408-1.283-.14-1.283-1.23a3.382,3.382,0,0,1,1.283-2.714C278.291,172.835,278.866,173.384,278.866,174.473Z" transform="translate(-255.814 -162.248)" fill="#6b1013"/>
      <path id="Path_13425" data-name="Path 13425" d="M262.314,198.844a.611.611,0,0,1-.154,0,.729.729,0,0,1-.568-.869c1.163-5.527,4.124-10.366,7.539-12.338a5.347,5.347,0,0,1,4.772-.575,6.569,6.569,0,0,1,3.5,4.565.742.742,0,0,1-1.424.394,5.133,5.133,0,0,0-2.627-3.6,3.957,3.957,0,0,0-3.469.495c-3.021,1.744-5.768,6.309-6.831,11.362a.742.742,0,0,1-.738.566Z" transform="translate(-250.931 -166.107)" fill="#6b1013"/>
    </g>
    <g id="Group_3361" data-name="Group 3361" transform="translate(170.492 90.699)">
      <path id="Path_13426" data-name="Path 13426" d="M273.645,96.639l-4.913-2.834h-.047c-2.446-1.384-5.8-1.176-9.5.969a27.076,27.076,0,0,0-9.03,9.2,28.093,28.093,0,0,0-4.491,14.216c0,4.311,1.5,7.352,3.943,8.749h0L254.6,129.8c2.46,1.571,5.942,1.43,9.8-.8,7.472-4.318,13.528-14.8,13.528-23.393C277.915,101.071,276.271,97.976,273.645,96.639Z" transform="translate(-245.653 -92.912)" fill="#d72027"/>
      <path id="Path_13427" data-name="Path 13427" d="M254.486,135.216l-4.892-2.8h0c-2.44-1.417-3.943-4.445-3.943-8.749a28.093,28.093,0,0,1,4.491-14.216l5.22,3.014a28.048,28.048,0,0,0-4.491,14.2C250.857,130.771,252.233,133.718,254.486,135.216Z" transform="translate(-245.65 -98.391)" opacity="0.1"/>
      <path id="Path_13428" data-name="Path 13428" d="M275.763,96.577c-2.406-1.17-5.621-.876-9.157,1.163a26.8,26.8,0,0,0-9.036,9.223l-5.22-3.014a26.957,26.957,0,0,1,9.03-9.2c3.709-2.145,7.058-2.346,9.5-.969h.047Z" transform="translate(-247.872 -92.904)" fill="#fff" opacity="0.4"/>
      <path id="Path_13429" data-name="Path 13429" d="M266.291,131.121a4.859,4.859,0,0,1-1.851-.361c-1.744-.715-3.081-2.46-3.77-4.926a.8.8,0,0,1,1.531-.428,5.538,5.538,0,0,0,2.841,3.883,4.257,4.257,0,0,0,3.756-.528c3.255-1.878,6.223-6.811,7.352-12.265a.8.8,0,0,1,1.557.328c-1.257,5.962-4.451,11.188-8.134,13.321a6.684,6.684,0,0,1-3.282.976Z" transform="translate(-250.624 -100.519)" fill="#6b1013"/>
      <path id="Path_13430" data-name="Path 13430" d="M267.5,118.158a3.669,3.669,0,0,1-1.384,2.934c-.769.441-1.384-.154-1.384-1.337a3.636,3.636,0,0,1,1.384-2.927C266.875,116.387,267.5,116.981,267.5,118.158Z" transform="translate(-251.977 -100.79)" fill="#6b1013"/>
      <path id="Path_13431" data-name="Path 13431" d="M279.3,111.345a3.656,3.656,0,0,1-1.384,2.927c-.762.441-1.384-.154-1.384-1.337a3.656,3.656,0,0,1,1.384-2.927C278.675,109.567,279.3,110.169,279.3,111.345Z" transform="translate(-255.891 -98.528)" fill="#6b1013"/>
    </g>
    <g id="Group_3362" data-name="Group 3362" transform="translate(125.094 227.011)">
      <path id="Path_13432" data-name="Path 13432" d="M359.58,281.217l23.426-4.592a.729.729,0,0,1,.668,1.2l-15.887,17.992Z" transform="translate(-252.537 -276.616)" fill="#ffa8a7"/>
      <path id="Path_13433" data-name="Path 13433" d="M393.043,277.822a.729.729,0,0,0-.668-1.2l-4.585.916h0a4.01,4.01,0,0,1,1.885,3.736v.414Z" transform="translate(-261.893 -276.616)" fill="#0761ce"/>
      <path id="Path_13434" data-name="Path 13434" d="M237.048,348.185l1.912-1.1,2.319-1.337L324.39,298.07a10.694,10.694,0,0,0-.668-7.766c-1.664-3.716-4.886-6.684-7.559-6.824l-83.045,47.668-4.418,2.533C231.654,332.2,239.989,346.654,237.048,348.185Z" transform="translate(-209.133 -278.892)" fill="#37474f"/>
      <path id="Path_13435" data-name="Path 13435" d="M247.948,365.589l4.278-2.46c1.263-.668.541-3.776-.936-6.984-1.958-4.264-5.8-8.395-7.479-7.506l-3.155,1.811-1.116.668c1.678-.889,5.527,3.235,7.479,7.506,1.41,3.074,2.132,6.062,1.056,6.878h0a.288.288,0,0,1-.127.087Z" transform="translate(-212.728 -300.461)" fill="#ebebeb"/>
      <path id="Path_13436" data-name="Path 13436" d="M247.412,365.888c2.934-1.557-5.467-16.041-8.408-14.477l-4.284,2.446c2.934-1.551,11.362,12.92,8.4,14.477Z" transform="translate(-211.13 -301.381)" fill="#d72027"/>
      <path id="Path_13437" data-name="Path 13437" d="M237.048,371.815l4.231-2.42c2.894-1.51-5.1-15.546-8.161-14.617a.514.514,0,0,0-.174.067l-4.244,2.466C231.654,355.827,239.989,370.284,237.048,371.815Z" transform="translate(-209.133 -302.522)" fill="#ebebeb"/>
      <path id="Path_13438" data-name="Path 13438" d="M343.173,277.038l-.789-.408-17,9.3L237.5,336.362c-.167-.261-.3-.281-.408-.1,2.5,3.9,4.384,8.8,2.74,9.658l1.912-1.1,2.319-1.337,83.111-47.675h0l15.887-17.992a.668.668,0,0,0,.114-.775Z" transform="translate(-211.916 -276.62)" opacity="0.15"/>
      <path id="Path_13439" data-name="Path 13439" d="M209.38,383.311l17.959-10.273c1.257-.668.561-3.729-.889-6.918-1.945-4.271-5.775-8.441-7.459-7.586h0l-18.033,10.3c-3.582,2.065-.287,9.832,3.7,13.307C206.145,383.471,207.83,384.052,209.38,383.311Z" transform="translate(-199.425 -303.745)" fill="#f28f8f"/>
      <path id="Path_13440" data-name="Path 13440" d="M210.466,382.846c-1.029-4.05-4.3-8.02-7.319-8.869a2.941,2.941,0,0,0-2.673.368c-2.673,2.506.448,9.631,4.224,12.92,1.45,1.283,3.074,1.858,4.625,1.183C210.646,387.658,211.187,385.586,210.466,382.846Z" transform="translate(-199.441 -308.848)" opacity="0.1"/>
    </g>
  </g>
</svg>
