<svg xmlns="http://www.w3.org/2000/svg" width="310" height="223.006" viewBox="0 0 310 223.006">
  <g id="survey-illustration2" transform="translate(-92.9 -41.615)">
    <g id="Group_3363" data-name="Group 3363" transform="translate(94.706 95.559)">
      <path id="Path_13441" data-name="Path 13441" d="M475,193.852v23.215a7.577,7.577,0,0,0,7.608,7.445h83.228a7.608,7.608,0,0,0,7.624-7.6V197.285L583.822,186.4l-101.2-.316A7.645,7.645,0,0,0,475,193.852Z" transform="translate(-275.628 -163.924)" fill="#f5f5f5"/>
      <path id="Path_13442" data-name="Path 13442" d="M570.721,210.4l-75.551-.353.011-2.322,75.546.353Z" transform="translate(-285.179 -174.17)" fill="#e0e0e0"/>
      <path id="Path_13443" data-name="Path 13443" d="M570.721,224.9l-75.551-.353.011-2.322,75.546.353Z" transform="translate(-285.179 -181.04)" fill="#e0e0e0"/>
      <rect id="Rectangle_512" data-name="Rectangle 512" width="2.322" height="29.891" transform="translate(255.643 51.161) rotate(-89.72)" fill="#e0e0e0"/>
      <path id="Path_13444" data-name="Path 13444" d="M161.674,353.357c11.642-8.135,14.279-23.23,13.821-36.8-.079-2.264.168-4.655-.906-6.639s-3.591-3.349-5.623-2.39c-1.68.79-2.412,2.749-3.354,4.365a13.247,13.247,0,0,1-5.313,5.076c-1.443.748-3.228,1.206-4.649.421-1.959-1.079-2.185-3.78-2.175-6.034l.079-12.6a22.067,22.067,0,0,0-.679-6.692,6.994,6.994,0,0,0-4.391-4.739c-2.143-.616-4.791.632-5.265,2.838a21.629,21.629,0,0,0-.068,2.806,2.379,2.379,0,0,1-1.385,2.232,2.707,2.707,0,0,1-2.475-1.053,29.854,29.854,0,0,1-5.376-8.119,41.362,41.362,0,0,0-5.018-8.377c-2.111-2.48-5.028-4.449-8.256-4.633s-6.666,1.811-7.477,4.981,1.053,6.4,3.049,8.951a50.342,50.342,0,0,0,10.473,10,4.3,4.3,0,0,1,1.753,1.88c.484,1.506-.937,3-2.417,3.491-1.68.558-3.507.384-5.265.59s-3.686.985-4.323,2.633c-.927,2.3,1,4.739,2.9,6.318a43.175,43.175,0,0,0,12.752,7.371,14.572,14.572,0,0,1,4.739,2.3c1.337,1.164,2.143,3.191,1.337,4.776s-2.88,2.106-4.618,1.774A31.293,31.293,0,0,1,128.6,326.2c-3.1-1.169-7.092-.958-9.077,1.722a7.168,7.168,0,0,0-.758,6.318,16.284,16.284,0,0,0,3.417,5.565,43.118,43.118,0,0,0,18.5,13c7.182,2.469,13.837,3.159,20.977.558" transform="translate(-104.209 -205.082)" fill="#f5f5f5"/>
      <path id="Path_13445" data-name="Path 13445" d="M164.958,365.143a98.694,98.694,0,0,0-3.686-18.565,200.813,200.813,0,0,0-8.014-21.735q-1.206-2.838-2.39-5.592c-.79-1.832-1.58-3.649-2.448-5.381a100.872,100.872,0,0,0-5.6-9.651c-1.932-2.985-3.87-5.75-5.708-8.319s-3.6-4.923-5.265-7.008a79.805,79.805,0,0,0-8.725-9.22c-1.111-1.006-2-1.759-2.633-2.259l-.711-.574a1.506,1.506,0,0,0-.242-.179,1.835,1.835,0,0,0,.216.211l.669.6c.59.527,1.464,1.29,2.554,2.311a84.4,84.4,0,0,1,8.609,9.288q2.512,3.159,5.239,7.024c1.822,2.575,3.749,5.339,5.665,8.324a101.615,101.615,0,0,1,5.56,9.63c.869,1.722,1.643,3.522,2.433,5.36l2.39,5.586a206.7,206.7,0,0,1,8.03,21.682,100.674,100.674,0,0,1,3.754,18.486" transform="translate(-107.319 -206.811)" fill="#e0e0e0"/>
      <path id="Path_13446" data-name="Path 13446" d="M174.167,325.042a4.21,4.21,0,0,0,.221-.958c.121-.621.258-1.532.416-2.633.321-2.243.653-5.355,1.011-8.788s.732-6.534,1.085-8.767c.174-1.116.321-2.017.432-2.633a4.4,4.4,0,0,0,.126-.974,4.507,4.507,0,0,0-.284.943c-.158.611-.353,1.511-.563,2.633-.426,2.227-.853,5.334-1.206,8.777l-.89,8.793c-.111,1.053-.211,1.948-.284,2.664a4.6,4.6,0,0,0-.063.942Z" transform="translate(-133.182 -217.999)" fill="#e0e0e0"/>
      <path id="Path_13447" data-name="Path 13447" d="M119.16,336.971a5.663,5.663,0,0,0,1.153.137c.742.068,1.822.158,3.159.311,2.633.29,6.318.811,10.309,1.58s7.6,1.606,10.178,2.29c1.29.337,2.333.632,3.054.837a6.5,6.5,0,0,0,1.127.274,6.214,6.214,0,0,0-1.053-.432c-.711-.247-1.738-.59-3.028-.964-2.564-.758-6.16-1.653-10.178-2.417a101.232,101.232,0,0,0-10.352-1.448c-1.332-.116-2.417-.163-3.159-.174a6.25,6.25,0,0,0-1.211.005Z" transform="translate(-107.139 -235.351)" fill="#e0e0e0"/>
      <path id="Path_13448" data-name="Path 13448" d="M198.14,375.179a1.66,1.66,0,0,0,.195-.353c.137-.284.3-.632.5-1.053.426-.916,1.011-2.248,1.706-3.912,1.4-3.317,3.186-7.961,5.086-13.111s3.644-9.809,4.97-13.163l1.58-3.954c.168-.432.3-.79.421-1.053a1.227,1.227,0,0,0,.121-.39,1.639,1.639,0,0,0-.2.358c-.137.279-.3.627-.495,1.053-.426.916-1.011,2.248-1.706,3.912-1.4,3.317-3.186,7.961-5.086,13.116s-3.644,9.8-4.97,13.163c-.653,1.627-1.185,2.964-1.58,3.954-.168.432-.3.79-.421,1.079a1.27,1.27,0,0,0-.121.353Z" transform="translate(-144.536 -235.944)" fill="#e0e0e0"/>
      <path id="Path_13449" data-name="Path 13449" d="M125,384.88a1.811,1.811,0,0,0,.384.153l1.116.379,4.123,1.332c3.48,1.132,8.266,2.743,13.558,4.533s10.1,3.365,13.6,4.423c1.748.527,3.159.942,4.16,1.206l1.143.3a1.84,1.84,0,0,0,.4.079,1.611,1.611,0,0,0-.384-.158l-1.116-.374-4.123-1.337c-3.48-1.127-8.272-2.743-13.558-4.533s-10.1-3.365-13.6-4.423c-1.748-.527-3.159-.943-4.16-1.206l-1.127-.311a1.376,1.376,0,0,0-.421-.063Z" transform="translate(-109.904 -258.05)" fill="#e0e0e0"/>
    </g>
    <g id="Group_3364" data-name="Group 3364" transform="translate(147.418 54.269)">
      <rect id="Rectangle_513" data-name="Rectangle 513" width="135.897" height="195.026" rx="11.55" transform="translate(0 210.21) rotate(-90)" fill="#263238"/>
      <rect id="Rectangle_514" data-name="Rectangle 514" width="127.33" height="162.871" transform="translate(13.342 205.93) rotate(-90)" fill="#fff"/>
      <circle id="Ellipse_90" data-name="Ellipse 90" cx="5.213" cy="5.213" r="5.213" transform="matrix(0.229, -0.973, 0.973, 0.229, 178.975, 146.151)" fill="#455a64"/>
      <rect id="Rectangle_515" data-name="Rectangle 515" width="40.932" height="2.153" rx="1.077" transform="translate(5.613 162.718) rotate(-90)" fill="#455a64"/>
      <circle id="Ellipse_91" data-name="Ellipse 91" cx="13.158" cy="13.158" r="13.158" transform="translate(30.328 149.822) rotate(-56.628)" fill="#d9d9d9"/>
      <circle id="Ellipse_92" data-name="Ellipse 92" cx="13.158" cy="13.158" r="13.158" transform="translate(30.328 149.822) rotate(-56.628)" fill="#fff" opacity="0.3"/>
      <path id="Path_13450" data-name="Path 13450" d="M279.28,336.738c.495-.042.948.527,1.011,1.232s-.3,1.332-.8,1.374-.948-.526-1.006-1.227S278.8,336.78,279.28,336.738Z" transform="translate(-235.288 -193.976)" fill="#263238"/>
      <path id="Path_13451" data-name="Path 13451" d="M295.057,336.41c-.495,0-.927.527-.958,1.274s.353,1.322.853,1.343.932-.527.958-1.269S295.557,336.431,295.057,336.41Z" transform="translate(-242.683 -193.822)" fill="#263238"/>
      <path id="Path_13452" data-name="Path 13452" d="M288.8,347.744a53.918,53.918,0,0,1-10.957,0,27.026,27.026,0,0,1,5.481-.284,26.073,26.073,0,0,1,5.476.284Z" transform="translate(-234.986 -199.053)" fill="#263238"/>
      <path id="Path_13453" data-name="Path 13453" d="M279.479,333.583c-.032.158-.658.153-1.39.269s-1.327.3-1.406.168.474-.59,1.322-.721S279.479,333.435,279.479,333.583Z" transform="translate(-234.435 -192.332)" fill="#263238"/>
      <path id="Path_13454" data-name="Path 13454" d="M297.935,334.125c-.1.126-.663-.169-1.4-.39s-1.364-.3-1.379-.463.7-.337,1.543-.074S298.035,334.014,297.935,334.125Z" transform="translate(-243.186 -192.238)" fill="#263238"/>
      <circle id="Ellipse_93" data-name="Ellipse 93" cx="13.637" cy="13.637" r="13.637" transform="translate(128.202 156.318) rotate(-80.95)" fill="#f7f7f7"/>
      <circle id="Ellipse_94" data-name="Ellipse 94" cx="13.637" cy="13.637" r="13.637" transform="translate(128.202 156.318) rotate(-80.95)" opacity="0.3"/>
      <path id="Path_13455" data-name="Path 13455" d="M459.885,334.438c.527-.042.99.527,1.053,1.274s-.3,1.385-.821,1.427-.99-.526-1.053-1.274S459.369,334.48,459.885,334.438Z" transform="translate(-320.787 -192.887)" fill="#263238"/>
      <path id="Path_13456" data-name="Path 13456" d="M476.2,334.1c-.527,0-.964.569-1,1.316s.369,1.369.885,1.39.964-.569,1-1.316S476.725,334.121,476.2,334.1Z" transform="translate(-328.434 -192.728)" fill="#263238"/>
      <path id="Path_13457" data-name="Path 13457" d="M469.733,343.946a9.414,9.414,0,0,1-1.58-.832,8.809,8.809,0,0,0-4.06-1,10.13,10.13,0,0,0-4.07,1.053,8.973,8.973,0,0,1-1.627.779c-.047-.074.469-.527,1.443-1.127a8.841,8.841,0,0,1,4.244-1.269,8.009,8.009,0,0,1,4.265,1.216,4.077,4.077,0,0,1,1.385,1.18Z" transform="translate(-320.473 -196.255)" fill="#263238"/>
      <path id="Path_13458" data-name="Path 13458" d="M460.016,331.437c.047.058-.042.232-.269.427a2.206,2.206,0,0,1-1.053.526,2.022,2.022,0,0,1-1.185-.132c-.279-.126-.405-.274-.374-.342s.711.068,1.458-.079S459.916,331.311,460.016,331.437Z" transform="translate(-319.875 -191.456)" fill="#263238"/>
      <path id="Path_13459" data-name="Path 13459" d="M479.175,331.92c0,.068-.126.2-.432.3a2,2,0,0,1-1.222-.042,2.459,2.459,0,0,1-1.006-.669c-.2-.232-.274-.416-.221-.469s.669.348,1.406.605S479.123,331.762,479.175,331.92Z" transform="translate(-328.941 -191.276)" fill="#263238"/>
      <path id="Path_13460" data-name="Path 13460" d="M418.325,404.29l3.159-1.564,3.085,1.717-.516-3.491,2.585-2.4-3.48-.59-1.485-3.2-1.632,3.128-3.5.421,2.459,2.52Z" transform="translate(-300.657 -221.438)" fill="#e0e0e0"/>
      <path id="Path_13461" data-name="Path 13461" d="M393.845,404.29,397,402.726l3.085,1.717-.516-3.491,2.585-2.4-3.48-.59-1.485-3.2-1.632,3.128-3.5.421,2.464,2.522Z" transform="translate(-289.066 -221.438)" fill="#f9ad24"/>
      <path id="Path_13462" data-name="Path 13462" d="M369.365,404.29l3.159-1.564,3.08,1.717-.511-3.491,2.585-2.4-3.48-.59-1.485-3.2-1.632,3.128-3.5.421,2.464,2.522Z" transform="translate(-277.475 -221.438)" fill="#f9ad24"/>
      <path id="Path_13463" data-name="Path 13463" d="M344.885,404.29l3.159-1.564,3.08,1.717-.511-3.491,2.585-2.4-3.48-.59-1.485-3.2L346.6,397.89l-3.5.421,2.464,2.522Z" transform="translate(-265.885 -221.438)" fill="#f9ad24"/>
      <path id="Path_13464" data-name="Path 13464" d="M320.4,404.29l3.159-1.564,3.08,1.717-.511-3.491,2.585-2.4-3.48-.59-1.485-3.2-1.632,3.128-3.5.421,2.464,2.522Z" transform="translate(-254.294 -221.438)" fill="#f9ad24"/>
      <path id="Path_13465" data-name="Path 13465" d="M379.183,265.387c0,.079-14.143.142-31.592.142S316,265.466,316,265.387s14.137-.137,31.592-.137S379.183,265.313,379.183,265.387Z" transform="translate(-253.054 -160.136)" fill="#263238"/>
      <path id="Path_13466" data-name="Path 13466" d="M378.447,258.182c0,.079-6.982.142-15.6.142s-15.6-.063-15.6-.142,6.982-.142,15.6-.142S378.447,258.1,378.447,258.182Z" transform="translate(-267.85 -156.723)" fill="#263238"/>
      <circle id="Ellipse_95" data-name="Ellipse 95" cx="17.965" cy="17.965" r="17.965" transform="translate(74.643 153.451) rotate(-72.127)" fill="#f9ad24"/>
      <path id="Path_13467" data-name="Path 13467" d="M368.377,326.4c.679-.053,1.3.7,1.38,1.68s-.4,1.822-1.085,1.88-1.3-.7-1.379-1.674S367.7,326.456,368.377,326.4Z" transform="translate(-277.335 -189.081)" fill="#263238"/>
      <path id="Path_13468" data-name="Path 13468" d="M389.874,326c-.679-.032-1.269.748-1.306,1.732s.479,1.806,1.158,1.832,1.269-.748,1.311-1.732S390.559,326,389.874,326Z" transform="translate(-287.412 -188.893)" fill="#263238"/>
      <path id="Path_13469" data-name="Path 13469" d="M381.317,337.141c.032.032-.116.216-.4.526a10.238,10.238,0,0,1-1.348,1.216,9.591,9.591,0,0,1-2.375,1.3,8.377,8.377,0,0,1-3.3.527,9.614,9.614,0,0,1-3.238-.748,13.822,13.822,0,0,1-2.385-1.248,7.216,7.216,0,0,1-1.911-1.58,20.764,20.764,0,0,1,2.106,1.222,16.7,16.7,0,0,0,2.364,1.111,10.066,10.066,0,0,0,3.08.669,8.467,8.467,0,0,0,3.1-.448,10.722,10.722,0,0,0,2.322-1.137c.611-.421,1.106-.774,1.427-1.053S381.291,337.114,381.317,337.141Z" transform="translate(-276.896 -194.163)" fill="#263238"/>
      <path id="Path_13470" data-name="Path 13470" d="M367.467,318.424c-.032.158-.89.1-1.911.263s-1.822.474-1.9.332.679-.711,1.816-.885S367.52,318.276,367.467,318.424Z" transform="translate(-275.614 -185.147)" fill="#263238"/>
      <path id="Path_13471" data-name="Path 13471" d="M394.966,319.1c-.1.126-.858-.326-1.88-.632s-1.9-.369-1.906-.527.942-.358,2.074,0S395.066,318.988,394.966,319.1Z" transform="translate(-288.649 -184.984)" fill="#263238"/>
      <path id="Path_13472" data-name="Path 13472" d="M365.3,334.7c.068,0,.184.174.2.527a2.108,2.108,0,0,1-1.443,2.022c-.326.1-.526.047-.553,0,0-.158.663-.39,1.137-1.085S365.147,334.726,365.3,334.7Z" transform="translate(-275.548 -193.012)" fill="#263238"/>
      <path id="Path_13473" data-name="Path 13473" d="M395.8,336.528c0,.068-.137.179-.416.2a1.624,1.624,0,0,1-1.627-1.206c-.058-.274,0-.448.074-.453.158,0,.337.526.864.89S395.765,336.371,395.8,336.528Z" transform="translate(-289.859 -193.188)" fill="#263238"/>
      <path id="Path_13474" data-name="Path 13474" d="M382.572,314.544a3.164,3.164,0,0,0-.032-.363l-.068-1.053c0-.232-.026-.495-.042-.779s-.1-.6-.142-.932-.111-.7-.174-1.085a12.287,12.287,0,0,0-.29-1.222,21.3,21.3,0,0,0-2.475-5.918,22.2,22.2,0,0,0-5.65-6.318l-.964-.711c-.337-.221-.69-.426-1.053-.642a11.131,11.131,0,0,0-1.085-.627l-1.153-.553-.584-.279-.616-.221-1.253-.458c-.421-.142-.869-.232-1.306-.348a10.346,10.346,0,0,0-1.343-.3,20.535,20.535,0,0,0-2.806-.326c-.479,0-.964-.063-1.448-.053l-1.469.074a3.911,3.911,0,0,0-.742.047l-.742.116c-.49.079-1,.137-1.49.242a22.537,22.537,0,0,0-2.959.869,23.344,23.344,0,0,0-2.9,1.269c-.469.258-.916.553-1.38.827-.226.147-.469.269-.684.432l-.653.49a25.38,25.38,0,0,0-2.517,2.138L343.43,300.1l-.284.316-.258.337-.527.679-.526.679-.448.732-.448.737-.221.369-.19.384-.753,1.58-.6,1.643a21.967,21.967,0,0,0,0,14c.2.527.4,1.1.605,1.643s.5,1.053.753,1.58l.19.39.221.369.448.732.448.732.527.685.526.679.253.337.284.311,1.127,1.243a25.326,25.326,0,0,0,2.517,2.143l.658.484c.216.169.458.29.684.437.463.274.911.569,1.379.827a24.524,24.524,0,0,0,5.855,2.138c.495.105,1,.163,1.5.242l.737.116c.247.032.495.032.742.047l1.469.074c.484,0,.969-.037,1.448-.053a20.434,20.434,0,0,0,2.806-.326,11.3,11.3,0,0,0,1.343-.305c.442-.116.885-.211,1.311-.348l1.248-.458.616-.221.584-.279,1.153-.553a12.108,12.108,0,0,0,1.085-.627c.353-.216.711-.421,1.053-.642l.958-.716a22.2,22.2,0,0,0,5.655-6.318,21.392,21.392,0,0,0,2.469-5.945,12.209,12.209,0,0,0,.29-1.216c.063-.384.121-.748.174-1.085s.111-.648.142-.932.032-.527.042-.779c.032-.458.053-.811.068-1.053s.032-.363.032-.363v.363c0,.242-.026.6-.042,1.053a6.689,6.689,0,0,1-.032.785c-.032.258-.084.6-.126.937s-.105.706-.163,1.1a12.5,12.5,0,0,1-.279,1.222,21.136,21.136,0,0,1-2.438,5.987,22.246,22.246,0,0,1-5.665,6.381l-.969.727c-.337.226-.7.432-1.053.653a9.394,9.394,0,0,1-1.1.632l-1.158.563-.59.3-.621.226-1.258.463c-.432.147-.879.237-1.322.358a11.583,11.583,0,0,1-1.358.316,20.793,20.793,0,0,1-2.838.332c-.479,0-.969.068-1.458.063l-1.485-.074a3.882,3.882,0,0,1-.753-.047l-.748-.116c-.5-.079-1.011-.137-1.511-.242a24.19,24.19,0,0,1-3-.874,23.834,23.834,0,0,1-2.927-1.279c-.479-.258-.932-.558-1.4-.837a7.307,7.307,0,0,1-.7-.437l-.663-.495a25.122,25.122,0,0,1-2.548-2.159l-1.143-1.258-.29-.316-.258-.342-.527-.685-.527-.7-.453-.737-.453-.742-.226-.374-.19-.395-.763-1.58c-.2-.553-.4-1.111-.611-1.664a22.261,22.261,0,0,1,0-14.174l.611-1.664.763-1.58.2-.395.226-.374.453-.742.453-.737.526-.69.527-.69.258-.342.284-.316c.384-.416.763-.837,1.143-1.253a25.892,25.892,0,0,1,2.548-2.164l.663-.495c.221-.163.463-.29.7-.437.469-.274.927-.574,1.4-.832a23.842,23.842,0,0,1,2.928-1.279,24.18,24.18,0,0,1,3-.874c.5-.105,1.011-.163,1.511-.242l.748-.116c.247-.032.5-.032.748-.047l1.485-.074c.495,0,.979.042,1.464.063a20.782,20.782,0,0,1,2.838.332,13.038,13.038,0,0,1,1.358.311c.442.126.89.216,1.316.358l1.264.463.621.232.59.284,1.164.558c.39.179.732.432,1.09.637s.716.426,1.053.653l.969.727a22.246,22.246,0,0,1,5.665,6.371,21.17,21.17,0,0,1,2.443,5.971c.095.437.237.837.279,1.227s.111.753.163,1.1.1.648.126.937,0,.527.032.779c0,.463.032.816.042,1.053a2.4,2.4,0,0,1,0,.351Z" transform="translate(-263.366 -172.855)" fill="#0761ce"/>
      <rect id="Rectangle_516" data-name="Rectangle 516" width="162.871" height="8.124" transform="translate(13.342 78.578)" fill="#e0e0e0"/>
      <path id="Path_13475" data-name="Path 13475" d="M229.791,221.16a1.1,1.1,0,1,1-1.1-1.1,1.1,1.1,0,0,1,1.1,1.1Z" transform="translate(-211.194 -138.744)" fill="#fff"/>
      <path id="Path_13476" data-name="Path 13476" d="M236.731,221.16a1.1,1.1,0,1,1-1.1-1.1,1.1,1.1,0,0,1,1.1,1.1Z" transform="translate(-214.48 -138.744)" fill="#fff"/>
      <path id="Path_13477" data-name="Path 13477" d="M243.681,221.16a1.1,1.1,0,1,1-1.1-1.1,1.1,1.1,0,0,1,1.1,1.1Z" transform="translate(-217.77 -138.744)" fill="#fff"/>
      <path id="Path_13478" data-name="Path 13478" d="M383.485,277.557c0,.079-28.259.142-63.115.142s-63.12-.063-63.12-.142,28.259-.137,63.12-.137S383.485,277.483,383.485,277.557Z" transform="translate(-225.237 -165.897)" fill="#e0e0e0"/>
      <path id="Path_13479" data-name="Path 13479" d="M383.485,283.5c0,.074-28.259.137-63.115.137s-63.12-.063-63.12-.137,28.259-.142,63.12-.142S383.485,283.423,383.485,283.5Z" transform="translate(-225.237 -168.709)" fill="#e0e0e0"/>
      <path id="Path_13480" data-name="Path 13480" d="M335.392,182.717s-1.111-2.522-1.322-3.075c-.563-1.511-4.212-11.636-3.333-13.163,4.038-7.092,7.171-12.11,15.138-12.11l14.074-.1s13.332-2.717,22.73,27.611Z" transform="translate(-259.967 -107.571)" fill="#455a64"/>
      <path id="Path_13481" data-name="Path 13481" d="M281.1,185.206l18.428-3.97,21.661-11.389.079-15.548c-3.249-.9-9.477,1.358-20.666,7.061l-16.633,8.588a9.846,9.846,0,0,0-2.87,15.269Z" transform="translate(-235.363 -107.522)" fill="#455a64"/>
      <path id="Path_13482" data-name="Path 13482" d="M350.617,262.963c-.269-.874-.084-1.437,1.19-1.006,2.812.942,5.323.632,5.934.089s.053-1.58-.863-1.5a11.093,11.093,0,0,1-2.959-.411,7.235,7.235,0,0,1-2.206-.932c-.59-.374-1.1-.727-1.543-1.053a14.519,14.519,0,0,1-3.407-3.38l-8.893,3.807,1.432,4.454a4.739,4.739,0,0,0,3.007,3.443A21.52,21.52,0,0,0,348.9,267c.742-.484,3.6,3.654,4.47,5.113s1.9,1.643,2.232.753c.226-.611-2.317-5.144-3.2-6.571a17.274,17.274,0,0,1-1.78-3.343" transform="translate(-263.408 -155.173)" fill="#b77153"/>
      <path id="Path_13483" data-name="Path 13483" d="M349.064,275.457c0,.032-.221,0-.526-.126a2.2,2.2,0,0,1-.932-.906,2.28,2.28,0,0,1-.29-1.269c.032-.337.137-.526.169-.526a2.938,2.938,0,0,0,1.58,2.812Z" transform="translate(-267.878 -163.629)" fill="#995037"/>
      <path id="Path_13484" data-name="Path 13484" d="M354.524,275.784c0,.032-.211,0-.495-.142a2.206,2.206,0,0,1-.869-.89,2.259,2.259,0,0,1-.274-1.216c.032-.321.121-.527.158-.49a4.153,4.153,0,0,0,.363,1.58,4.274,4.274,0,0,0,1.116,1.158Z" transform="translate(-270.517 -163.824)" fill="#995037"/>
      <path id="Path_13485" data-name="Path 13485" d="M282.32,202.057s28.232,32.445,28.2,31.908,12.637-10,12.637-10L295.494,191Z" transform="translate(-237.107 -124.984)" fill="#455a64"/>
      <path id="Path_13486" data-name="Path 13486" d="M314.84,199.92a2.205,2.205,0,0,1,.2.19l.527.59,1.9,2.19c1.58,1.853,3.775,4.433,6.176,7.292s4.565,5.46,6.118,7.371l1.827,2.248.49.621a1.032,1.032,0,0,1,.153.226,1.08,1.08,0,0,1-.2-.19l-.527-.59c-.479-.527-1.116-1.29-1.9-2.19-1.58-1.853-3.78-4.433-6.181-7.292s-4.56-5.46-6.118-7.371l-1.827-2.248c-.2-.247-.358-.453-.484-.621a1.171,1.171,0,0,1-.158-.226Z" transform="translate(-252.504 -129.209)" fill="#263238"/>
      <path id="Path_13487" data-name="Path 13487" d="M405.166,195.523a9.527,9.527,0,0,0,.337-2.106,6.218,6.218,0,0,0-1.843-4.549c-.684-.721-1.422-1.343-2.017-2a6.077,6.077,0,0,1-1.264-1.969,3.48,3.48,0,0,1-.232-1.58,1.455,1.455,0,0,1,.147-.563,3.96,3.96,0,0,0,.269,2.053,6.359,6.359,0,0,0,1.269,1.869c.59.627,1.327,1.237,2.027,1.974a6.45,6.45,0,0,1,1.522,2.433,6.235,6.235,0,0,1,.321,2.317,5.438,5.438,0,0,1-.3,1.548,1.864,1.864,0,0,1-.236.573Z" transform="translate(-292.89 -121.086)" fill="#263238"/>
      <path id="Path_13488" data-name="Path 13488" d="M328.791,158.622s.142-.074.411-.2a11.715,11.715,0,0,1,1.222-.442,10.534,10.534,0,0,1,2.022-.411,6.877,6.877,0,0,1,2.727.253,6.355,6.355,0,0,1,2.785,1.79,7.371,7.371,0,0,1,1.7,3.428,13,13,0,0,1,.269,4.212,9.151,9.151,0,0,1-1.58,4.212,11.583,11.583,0,0,1-3.375,3c-1.237.779-2.48,1.411-3.659,2.032l-6.271,3.3L320.83,182l-1.158.584a2.247,2.247,0,0,1-.416.184,3.437,3.437,0,0,1,.39-.237l1.132-.632,4.212-2.275,6.234-3.343c1.174-.627,2.422-1.269,3.638-2.043a11.441,11.441,0,0,0,3.3-2.922,8.861,8.861,0,0,0,1.516-4.1,12.939,12.939,0,0,0-.247-4.107,7.172,7.172,0,0,0-1.58-3.312,6.113,6.113,0,0,0-2.675-1.759,6.844,6.844,0,0,0-2.633-.29,10.857,10.857,0,0,0-2.006.363c-.527.153-.953.29-1.232.39a2.152,2.152,0,0,1-.505.132Z" transform="translate(-254.592 -109.144)" fill="#263238"/>
      <path id="Path_13489" data-name="Path 13489" d="M316.809,199.51a14.431,14.431,0,0,0-1.58-3.765,15.978,15.978,0,0,0-2.791-2.975,3.617,3.617,0,0,1,1.053.642,9.046,9.046,0,0,1,3.159,4.886,3.56,3.56,0,0,1,.158,1.211Z" transform="translate(-251.366 -125.825)" fill="#263238"/>
      <path id="Path_13490" data-name="Path 13490" d="M383.669,189.64a3.416,3.416,0,0,1-.6.163,6.114,6.114,0,0,1-1.78.079,6.613,6.613,0,0,1-2.675-.879,6.155,6.155,0,0,1-2.469-2.775,6.545,6.545,0,0,1-.342-4.481,3.686,3.686,0,0,1,1.49-2.064,1.848,1.848,0,0,1,1.348-.279,1.99,1.99,0,0,1,1.169.779,6.519,6.519,0,0,1,.632,5.618,6.666,6.666,0,0,1-1.58,2.633,6.092,6.092,0,0,1-2.743,1.58,6.276,6.276,0,0,1-5.9-1.411,6.155,6.155,0,0,1-1.764-5.35,5.333,5.333,0,0,1,1.053-2.475,2.68,2.68,0,0,1,1.053-.806,1.7,1.7,0,0,1,1.3,0,2.412,2.412,0,0,1,1.374,1.917,4.045,4.045,0,0,1-.426,2.148,10.3,10.3,0,0,1-2.243,2.991,10.632,10.632,0,0,1-2.3,1.627,9.924,9.924,0,0,1-1.643.69c-.19.063-.342.1-.442.121a.622.622,0,0,1-.158.032.525.525,0,0,1,.147-.058c.1-.037.247-.079.437-.153a11.056,11.056,0,0,0,1.606-.727,10.883,10.883,0,0,0,2.248-1.648,10.215,10.215,0,0,0,2.169-2.954,3.9,3.9,0,0,0,.39-2.043,2.2,2.2,0,0,0-1.248-1.727,1.464,1.464,0,0,0-1.116,0,2.417,2.417,0,0,0-.948.737,5.034,5.034,0,0,0-1.011,2.364,5.892,5.892,0,0,0,1.7,5.107,6,6,0,0,0,5.623,1.311,5.75,5.75,0,0,0,2.633-1.474,6.377,6.377,0,0,0,1.532-2.5,6.846,6.846,0,0,0,.311-2.827,5.586,5.586,0,0,0-.29-1.353,3.9,3.9,0,0,0-.59-1.2,1.759,1.759,0,0,0-1.021-.69,1.58,1.58,0,0,0-1.164.242,3.417,3.417,0,0,0-1.411,1.9,6.355,6.355,0,0,0,.295,4.333,5.981,5.981,0,0,0,2.375,2.722,6.5,6.5,0,0,0,2.606.906,7.2,7.2,0,0,0,2.373-.126Z" transform="translate(-276.737 -119.484)" fill="#fafafa"/>
      <path id="Path_13491" data-name="Path 13491" d="M402.376,135.328a6.381,6.381,0,0,1-1.258-2.5,1.674,1.674,0,0,1-.032-.911.7.7,0,0,1,.679-.527c.316,0,.526.321.7.59a13.6,13.6,0,0,1,1.3,2.464,1.863,1.863,0,0,1,.153.748.753.753,0,0,1-.363.637.779.779,0,0,1-.8-.1,2.354,2.354,0,0,1-.527-.637" transform="translate(-293.317 -96.775)" fill="#995037"/>
      <path id="Path_13492" data-name="Path 13492" d="M404.637,133.594l-1.39-2.917a2.342,2.342,0,0,1-.29-.906.79.79,0,0,1,.448-.779.779.779,0,0,1,.769.2,2.2,2.2,0,0,1,.469.684l.658,1.279a4.1,4.1,0,0,1,.432,1.085,1.4,1.4,0,0,1-.216,1.121.858.858,0,0,1-1.053.247" transform="translate(-294.224 -95.625)" fill="#995037"/>
      <path id="Path_13493" data-name="Path 13493" d="M392.5,141.838s-1.938-2.512-2.106-3.833,1.448-3.686,4.928-4.212a8.509,8.509,0,0,0,3.58-1.222,1.122,1.122,0,0,0,.4-1.358,19.681,19.681,0,0,1-1.216-3.449c.163-.711.627-.7,1.827,1.053s2.6,3.549,2.327,4.36-4.512,3.322-4.512,3.322l1.158,1.869Z" transform="translate(-288.269 -94.843)" fill="#b77153"/>
      <path id="Path_13494" data-name="Path 13494" d="M404.248,176.061,390.89,149.888l8.6-4.818,18.07,28.643s.953,1.832,2.285,3.975H404.7" transform="translate(-288.512 -103.243)" fill="#455a64"/>
      <path id="Path_13495" data-name="Path 13495" d="M399.131,145.07a1.236,1.236,0,0,1-.147.105l-.453.274-1.727,1.006-6.213,3.538.047-.158c1.3,2.633,2.991,5.713,4.691,9.046,2.533,4.923,4.739,9.435,6.266,12.721.769,1.643,1.379,2.98,1.8,3.9.2.448.353.8.469,1.053a1.912,1.912,0,0,1,.147.379,1.991,1.991,0,0,1-.2-.358c-.126-.263-.3-.611-.527-1.053l-1.874-3.865c-1.58-3.259-3.8-7.756-6.318-12.679-1.7-3.328-3.38-6.4-4.66-9.062l-.047-.1.1-.058,6.26-3.449,1.764-.953.469-.242A.615.615,0,0,1,399.131,145.07Z" transform="translate(-288.27 -103.243)" fill="#263238"/>
      <path id="Path_13496" data-name="Path 13496" d="M337.7,202.82a16.18,16.18,0,0,1-2.227-6.15c.084,0,.448,1.4,1.053,3.091S337.771,202.783,337.7,202.82Z" transform="translate(-262.272 -127.671)" fill="#263238"/>
      <path id="Path_13497" data-name="Path 13497" d="M393.762,115.677a5.265,5.265,0,0,0,6.229-7.987c3.017-.763,4.9-4.244,4.286-7.3A8.235,8.235,0,0,0,397.9,94.3a6.845,6.845,0,0,0-3.528.09,4.339,4.339,0,0,0-2.633,2.259" transform="translate(-288.914 -79.124)" fill="#263238"/>
      <path id="Path_13498" data-name="Path 13498" d="M391.505,121.958c0,.032-.39.105-1.027.437a4.533,4.533,0,0,0-2.017,2.169,4.465,4.465,0,0,0,.337,4.244,4.255,4.255,0,0,0,.842.958,4.181,4.181,0,0,0,1.127.7,4.423,4.423,0,0,0,5.1-1.164,4.29,4.29,0,0,0,.711-1.122,4.364,4.364,0,0,0,.342-1.227,4.507,4.507,0,0,0-4.3-5.055c-.721-.026-1.116.09-1.122.053a1.1,1.1,0,0,1,.284-.079,3.822,3.822,0,0,1,.837-.084,4.626,4.626,0,0,1,4.576,5.192,4.161,4.161,0,0,1-.353,1.3,4.33,4.33,0,0,1-.748,1.2,4.676,4.676,0,0,1-5.418,1.237,4.476,4.476,0,0,1-1.19-.753,4.355,4.355,0,0,1-.885-1.016,4.739,4.739,0,0,1-.732-2.359,4.612,4.612,0,0,1,2.575-4.291,3.59,3.59,0,0,1,.8-.29A1.158,1.158,0,0,1,391.505,121.958Z" transform="translate(-287.084 -92.229)" fill="#d72027"/>
      <path id="Path_13499" data-name="Path 13499" d="M363.687,87.078a5.176,5.176,0,0,0,2.433-9.567,6.429,6.429,0,0,0-9.6-7.524,8.53,8.53,0,0,0-15.8,2.527A8.245,8.245,0,0,0,330.142,83.7a6.389,6.389,0,1,0,1.085,12.731,5.634,5.634,0,0,0,8.54,6.318,6.171,6.171,0,0,0,11.089-1.274" transform="translate(-256.981 -65.647)" fill="#263238"/>
      <path id="Path_13500" data-name="Path 13500" d="M372.691,121.041c.111-2.564.247-4.886.247-4.886s5.734-.721,5.981-6.571-.337-19.318-.337-19.318L368.052,85.2,356.7,94.341l1.78,26.853a7.129,7.129,0,0,0,7.44,6.645h0a7.119,7.119,0,0,0,6.771-6.8Z" transform="translate(-272.324 -74.905)" fill="#b77153"/>
      <path id="Path_13501" data-name="Path 13501" d="M395.124,113.052c-.1.1-.642-.358-1.427-.39s-1.369.369-1.448.263.053-.226.3-.416a1.853,1.853,0,0,1,1.164-.332,1.885,1.885,0,0,1,1.132.437C395.087,112.825,395.166,113.009,395.124,113.052Z" transform="translate(-289.145 -87.677)" fill="#263238"/>
      <path id="Path_13502" data-name="Path 13502" d="M378.6,113.052c-.1.1-.637-.358-1.427-.39s-1.364.369-1.448.263.053-.226.3-.416a1.853,1.853,0,0,1,1.164-.332,1.885,1.885,0,0,1,1.132.437C378.566,112.825,378.645,113.009,378.6,113.052Z" transform="translate(-281.321 -87.677)" fill="#263238"/>
      <path id="Path_13503" data-name="Path 13503" d="M386.579,118.734a4.686,4.686,0,0,1,1.279-.195c.2,0,.39-.053.426-.195a1.174,1.174,0,0,0-.121-.642q-.274-.79-.569-1.659a29.528,29.528,0,0,1-1.264-4.333,30.006,30.006,0,0,1,1.58,4.212l.527,1.669a1.38,1.38,0,0,1,.09.848.526.526,0,0,1-.337.3,1.152,1.152,0,0,1-.337.037,4.8,4.8,0,0,1-1.274-.042Z" transform="translate(-286.349 -87.456)" fill="#263238"/>
      <path id="Path_13504" data-name="Path 13504" d="M380.717,141.765a13.943,13.943,0,0,1-7.587-2.485s1.785,4.26,7.487,3.923Z" transform="translate(-280.103 -100.504)" fill="#995037"/>
      <path id="Path_13505" data-name="Path 13505" d="M370.843,84.994a7.729,7.729,0,0,0,.105,8.951,4.492,4.492,0,0,0,3.544,1.974,2.517,2.517,0,0,0,2.464-2.754,2.906,2.906,0,1,0,5.571.1,5.306,5.306,0,0,0,.658,1.79,1.774,1.774,0,0,0,1.616.853c.879-.116,1.39-1.053,1.58-1.932a7.935,7.935,0,0,0-2.238-7.308,9.593,9.593,0,0,0-7.308-2.564,12.21,12.21,0,0,0-7.177,3.159" transform="translate(-278.369 -74.372)" fill="#263238"/>
      <path id="Path_13506" data-name="Path 13506" d="M361.916,89.74a13.562,13.562,0,0,1,1.179,5.265,7.04,7.04,0,0,1-1.9,4.928,4.786,4.786,0,0,1-4.976,1.2,5.539,5.539,0,0,1-.727,4.67,3.539,3.539,0,0,1-4.333,1.137,4.744,4.744,0,0,1-2.032-3.738A11.973,11.973,0,0,1,362.153,89.84" transform="translate(-268.7 -77.054)" fill="#263238"/>
      <path id="Path_13507" data-name="Path 13507" d="M356.745,116.017a2.049,2.049,0,0,0-2.464.59,3.365,3.365,0,0,0,3.349,5.518" transform="translate(-270.763 -89.394)" fill="#b77153"/>
      <path id="Path_13508" data-name="Path 13508" d="M357.669,121.942c0,.032-.258.068-.663-.042a1.774,1.774,0,0,1-1.2-1.053,1.3,1.3,0,0,1,.032-.937,1.406,1.406,0,0,1,.484-.574c.363-.237.637-.232.642-.2s-.237.111-.527.358a1.153,1.153,0,0,0-.374,1.264,1.759,1.759,0,0,0,1.006.974C357.453,121.863,357.674,121.9,357.669,121.942Z" transform="translate(-271.866 -90.965)" fill="#995037"/>
      <path id="Path_13509" data-name="Path 13509" d="M378.616,108.621c-.074.226-.932.142-1.948.19s-1.864.174-1.953-.047.737-.753,1.922-.8S378.7,108.4,378.616,108.621Z" transform="translate(-280.85 -85.683)" fill="#263238"/>
      <path id="Path_13510" data-name="Path 13510" d="M395.389,108.071c-.09.079-.263,0-.469-.026a2.033,2.033,0,0,0-.72-.045c-.3,0-.642.084-.9.079s-.437-.058-.469-.174.084-.253.3-.4a2.29,2.29,0,0,1,1-.348,1.327,1.327,0,0,1,1.132.4C395.457,107.8,395.473,108,395.389,108.071Z" transform="translate(-289.431 -85.297)" fill="#263238"/>
      <path id="Path_13511" data-name="Path 13511" d="M383.843,127.633a1.78,1.78,0,0,1,1.48-.211,1.106,1.106,0,0,1,.732,1.211,1.179,1.179,0,0,1-.474.674,1.532,1.532,0,0,1-1.216.3,1.2,1.2,0,0,1-.911-.827.979.979,0,0,1,.479-1.1" transform="translate(-284.977 -94.86)" fill="#995037"/>
      <path id="Path_13512" data-name="Path 13512" d="M386.6,127.8a1.34,1.34,0,0,1-.563.242,2.522,2.522,0,0,1-1.485-.142,2.58,2.58,0,0,1-1.148-.953c-.211-.321-.253-.558-.221-.574s.147.184.379.458a3.043,3.043,0,0,0,1.1.811,3,3,0,0,0,1.348.2C386.362,127.817,386.583,127.754,386.6,127.8Z" transform="translate(-284.858 -94.397)" fill="#263238"/>
      <path id="Path_13513" data-name="Path 13513" d="M358.783,130.164a8.849,8.849,0,0,0-.2-1.106,4.518,4.518,0,0,0-1.664-2.443,4.433,4.433,0,0,0-1.88-.821,4.528,4.528,0,0,0-2.333.2,4.211,4.211,0,0,0-1.121.611,4.063,4.063,0,0,0-.932.942,4.412,4.412,0,0,0,0,5.228,4.065,4.065,0,0,0,.932.942,4.213,4.213,0,0,0,1.121.611,4.5,4.5,0,0,0,5.876-3.064c.184-.7.163-1.106.2-1.1a1.753,1.753,0,0,1,0,.29,3.613,3.613,0,0,1-.1.837,4.534,4.534,0,0,1-1.653,2.575,4.633,4.633,0,0,1-1.959.9,4.691,4.691,0,0,1-2.464-.19,4.413,4.413,0,0,1-1.19-.637,4.352,4.352,0,0,1-1-1,4.649,4.649,0,0,1,0-5.555,4.354,4.354,0,0,1,1-1,4.412,4.412,0,0,1,1.19-.637,4.623,4.623,0,0,1,4.423.706,4.533,4.533,0,0,1,1.653,2.575,3.612,3.612,0,0,1,.1.837A1.8,1.8,0,0,1,358.783,130.164Z" transform="translate(-268.915 -93.974)" fill="#d72027"/>
      <path id="Path_13514" data-name="Path 13514" d="M386.351,84.66a.432.432,0,0,1,.147.037,1.127,1.127,0,0,1,.369.237,1.7,1.7,0,0,1,.469,1.537,2.2,2.2,0,0,1-1.822,1.611,4.576,4.576,0,0,1-3.085-.737l-1.085-.627,1.19.39a1.29,1.29,0,0,1,.827.927,1.638,1.638,0,0,1-.169,1.258,1.753,1.753,0,0,1-1.053.758,2.491,2.491,0,0,1-1.332-.032,4.544,4.544,0,0,1-2.3-1.98l-.8-1.1.969.942a2.106,2.106,0,0,1,.527,1.99,2.159,2.159,0,0,1-1.169,1.48,2.822,2.822,0,0,1-3-.363,3.575,3.575,0,0,1-1.158-1.711,3.624,3.624,0,0,1-.126-.527,1.021,1.021,0,0,1,0-.19c.026,0,.058.253.226.69a3.638,3.638,0,0,0,1.153,1.58,2.664,2.664,0,0,0,2.785.29,1.932,1.932,0,0,0,1.027-1.327,1.859,1.859,0,0,0-.458-1.738l.2-.174a4.317,4.317,0,0,0,2.143,1.864,1.853,1.853,0,0,0,2.106-.6,1.26,1.26,0,0,0-.49-1.8l.105-.237a4.4,4.4,0,0,0,2.906.753,2.038,2.038,0,0,0,1.716-1.453,1.664,1.664,0,0,0-.374-1.448A2,2,0,0,0,386.351,84.66Z" transform="translate(-280.397 -74.649)" fill="#455a64"/>
      <path id="Path_13515" data-name="Path 13515" d="M355.865,94.386s0,.037-.068.1a2.441,2.441,0,0,1-.247.263,3.434,3.434,0,0,1-1.174.7,3.349,3.349,0,0,1-2.106.032,3.517,3.517,0,0,1-2.106-1.806l.221-.032a3.407,3.407,0,1,1-5.729-2.991l.184.2a3.491,3.491,0,0,1-2.211.806,3.817,3.817,0,0,1-2.08-.569A3.159,3.159,0,0,1,339.3,89.62a3.717,3.717,0,0,1-.258-1.627,3.58,3.58,0,0,1,.864-2.138,2.285,2.285,0,0,1,.642-.527,3.757,3.757,0,0,0-1.337,2.7,3.565,3.565,0,0,0,.279,1.537,2.97,2.97,0,0,0,1.179,1.343,3.575,3.575,0,0,0,1.953.527,3.291,3.291,0,0,0,2.043-.748l.179.195a3.259,3.259,0,0,0-.669,3.544,3.222,3.222,0,0,0,3.517,1.785,3.275,3.275,0,0,0,2.464-2.564l.058-.369.163.337a3.349,3.349,0,0,0,1.938,1.727,3.212,3.212,0,0,0,2.027,0,3.506,3.506,0,0,0,1.169-.621C355.765,94.5,355.865,94.376,355.865,94.386Z" transform="translate(-263.96 -74.966)" fill="#455a64"/>
      <path id="Path_13516" data-name="Path 13516" d="M340.575,114.458a1.316,1.316,0,0,1-.458.274,3.1,3.1,0,0,1-1.458.226,3.007,3.007,0,0,1-2.006-.979,3.249,3.249,0,0,1-.8-2.7l.242.1a5.413,5.413,0,0,1-1.97,1.616,4.212,4.212,0,0,1-1.922.4,3.849,3.849,0,0,1-1.764-.484,3.122,3.122,0,0,1-1.68-2.49,2.98,2.98,0,0,1,.527-1.974,2.163,2.163,0,0,1,.395-.4.526.526,0,0,1,.168-.105,3.282,3.282,0,0,0-.474.569,2.969,2.969,0,0,0-.432,1.9,2.922,2.922,0,0,0,1.622,2.3,3.775,3.775,0,0,0,3.438.047,5.181,5.181,0,0,0,1.88-1.522l.342-.442-.1.527a3.038,3.038,0,0,0,.7,2.5,2.891,2.891,0,0,0,1.853.969,3.275,3.275,0,0,0,1.406-.142C340.4,114.537,340.564,114.442,340.575,114.458Z" transform="translate(-259.089 -85.676)" fill="#455a64"/>
      <path id="Path_13517" data-name="Path 13517" d="M404.3,98.65a1.817,1.817,0,0,1,.116.974,3.512,3.512,0,0,1-3.08,3.217,1.743,1.743,0,0,1-.974-.074c0-.047.374,0,.943-.121a3.617,3.617,0,0,0,2.912-3.049C404.309,99.024,404.251,98.655,404.3,98.65Z" transform="translate(-292.996 -81.273)" fill="#455a64"/>
      <path id="Path_13518" data-name="Path 13518" d="M408.034,109.12a1.006,1.006,0,0,1,.132.4,2.28,2.28,0,0,1-.111,1.153,1.8,1.8,0,0,1-1.274,1.174,1.838,1.838,0,0,1-1.053-.095,1.469,1.469,0,0,1-.837-.811l.263-.09a1.849,1.849,0,0,1,.068.527,2.106,2.106,0,0,1-1.322,1.874,1.748,1.748,0,0,1-1.053.047,2.011,2.011,0,0,1-.79-.437,1.89,1.89,0,0,1-.637-1.106,1.156,1.156,0,0,1,0-.463,1.582,1.582,0,0,0,.089.442,1.97,1.97,0,0,0,.658.974,1.643,1.643,0,0,0,1.622.3,1.859,1.859,0,0,0,1.132-1.638,1.425,1.425,0,0,0-.058-.432l.269-.09a1.427,1.427,0,0,0,1.58.758,1.622,1.622,0,0,0,1.148-1,2.407,2.407,0,0,0,.184-1.053C408.034,109.267,407.987,109.125,408.034,109.12Z" transform="translate(-293.488 -86.23)" fill="#455a64"/>
      <path id="Path_13519" data-name="Path 13519" d="M382.252,124c.037,0,.058.121,0,.3a1.237,1.237,0,0,1-1.053.863c-.184,0-.3-.032-.29-.068a3.278,3.278,0,0,0,.763-.426C382.031,124.358,382.173,124,382.252,124Z" transform="translate(-283.787 -93.276)" fill="#263238"/>
    </g>
    <g id="Group_3365" data-name="Group 3365" transform="translate(92.9 264.343)">
      <path id="Path_13520" data-name="Path 13520" d="M396.318,464.7c0,.079-67.92.137-151.7.137S92.9,464.792,92.9,464.7s67.92-.137,151.72-.137S396.318,464.623,396.318,464.7Z" transform="translate(-92.9 -464.56)" fill="#263238"/>
    </g>
    <g id="Group_3367" data-name="Group 3367" transform="translate(355.152 216.552)">
      <path id="Path_13521" data-name="Path 13521" d="M613.906,393.273c-1.316,1.874-3.87,1.253-5.055.111a9.554,9.554,0,0,1-2.143-4.391c-1.053-3.617-2.106-7.413-1.316-11.1a6.156,6.156,0,0,1,1.422-3.017,3.2,3.2,0,0,1,3.049-1.016,4.6,4.6,0,0,1,2.67,2.8,26.5,26.5,0,0,1,2.633,11.352,9.26,9.26,0,0,1-1.243,5.265" transform="translate(-597.681 -373.794)" fill="#d72027"/>
      <g id="Group_3366" data-name="Group 3366" transform="translate(7.435)" opacity="0.2">
        <path id="Path_13522" data-name="Path 13522" d="M613.906,393.273c-1.316,1.874-3.87,1.253-5.055.111a9.554,9.554,0,0,1-2.143-4.391c-1.053-3.617-2.106-7.413-1.316-11.1a6.156,6.156,0,0,1,1.422-3.017,3.2,3.2,0,0,1,3.049-1.016,4.6,4.6,0,0,1,2.67,2.8,26.5,26.5,0,0,1,2.633,11.352,9.26,9.26,0,0,1-1.243,5.265" transform="translate(-605.116 -373.794)"/>
      </g>
      <path id="Path_13523" data-name="Path 13523" d="M602.3,427.874a11.389,11.389,0,0,0-7.087-.863,5.792,5.792,0,0,0-3.491,1.58c-.858.979-1.053,2.659-.037,3.486a3.333,3.333,0,0,0,2.2.558c1.869,0,3.944-.348,5.434.774.853.642,1.422,1.711,2.438,2.027a2.417,2.417,0,0,0,2.633-1.179,4.123,4.123,0,0,0,.3-3.038,4.628,4.628,0,0,0-2.39-3.345Z" transform="translate(-590.995 -398.886)" fill="#d72027"/>
      <path id="Path_13524" data-name="Path 13524" d="M627.423,401.377a6.768,6.768,0,0,1-1.053-6.281,12.11,12.11,0,0,1,3.723-5.4,20.009,20.009,0,0,1,6.666-3.933,7.012,7.012,0,0,1,3-.527,3.159,3.159,0,0,1,2.512,1.522c.706,1.337.032,2.959-.7,4.286a50.853,50.853,0,0,1-4.391,6.7,11.817,11.817,0,0,1-4.818,4.128c-2,.763-4.075.674-5.139-.711" transform="translate(-607.587 -379.207)" fill="#d72027"/>
      <path id="Path_13525" data-name="Path 13525" d="M613.175,449.045a4.017,4.017,0,0,1-.121-.853c-.058-.616-.137-1.4-.226-2.327a33.636,33.636,0,0,0-.527-3.412,26.463,26.463,0,0,0-1.243-4.033A14.737,14.737,0,0,0,609,434.776a7.683,7.683,0,0,0-2.6-2.164,7.288,7.288,0,0,0-2.19-.684,4.092,4.092,0,0,1-.848-.121,3.6,3.6,0,0,1,.864,0,6.7,6.7,0,0,1,2.285.6,7.723,7.723,0,0,1,2.743,2.185,14.583,14.583,0,0,1,2.132,3.717,24.823,24.823,0,0,1,1.232,4.1,28.239,28.239,0,0,1,.453,3.459c.074.99.1,1.79.116,2.343a4.028,4.028,0,0,1-.011.842Z" transform="translate(-596.849 -401.249)" fill="#263238"/>
      <path id="Path_13526" data-name="Path 13526" d="M617.745,426.559a2.1,2.1,0,0,1,0-.395v-1.132c0-.979,0-2.4-.053-4.16-.084-3.512-.39-8.356-.974-13.69s-1.369-10.12-2.075-13.558c-.168-.863-.337-1.637-.527-2.317s-.279-1.269-.405-1.743-.2-.811-.263-1.1a1.367,1.367,0,0,1-.068-.4,1.947,1.947,0,0,1,.137.374l.326,1.085c.147.469.295,1.053.469,1.732s.363,1.448.527,2.311a128.749,128.749,0,0,1,2.185,13.574c.584,5.339.848,10.2.869,13.716,0,1.759,0,3.185-.058,4.17-.032.458-.053.832-.074,1.132A1.266,1.266,0,0,1,617.745,426.559Z" transform="translate(-601.594 -380.553)" fill="#263238"/>
      <path id="Path_13527" data-name="Path 13527" d="M621.608,419.772a7.308,7.308,0,0,1,0-1.185c.047-.758.153-1.859.363-3.2a42.889,42.889,0,0,1,1.053-4.67,41.642,41.642,0,0,1,1.938-5.523,29.486,29.486,0,0,1,5.729-8.925,14.821,14.821,0,0,1,1.353-1.253c.205-.174.39-.348.574-.484l.527-.363a7.678,7.678,0,0,1,1-.637,36.859,36.859,0,0,0-3.259,2.912,30.917,30.917,0,0,0-5.586,8.919,48.094,48.094,0,0,0-3.07,10.094c-.258,1.327-.384,2.417-.474,3.159A7.276,7.276,0,0,1,621.608,419.772Z" transform="translate(-605.478 -383.138)" fill="#263238"/>
    </g>
    <g id="Group_3368" data-name="Group 3368" transform="translate(166.334 41.617)">
      <path id="Path_13528" data-name="Path 13528" d="M252.4,41.618a3.5,3.5,0,0,1-.369.047l-1.053.09a11.673,11.673,0,0,0-1.727.247c-.342.074-.716.1-1.1.221s-.79.232-1.216.353a20.277,20.277,0,0,0-5.792,2.954,20.656,20.656,0,0,0-5.65,6.434,22.114,22.114,0,0,0-2.68,12.816c.032.484.137.964.205,1.453a11.016,11.016,0,0,0,.295,1.458,20.6,20.6,0,0,0,2.264,5.718,20.329,20.329,0,0,0,9.7,8.619,18.829,18.829,0,0,0,6.792,1.448,18.318,18.318,0,0,0,7.061-1.116l.69-.263.089-.032L260,82.1l10,4.939-.29.258-3.191-9.525-.037-.121.084-.09a21.209,21.209,0,0,0,5.123-8.74,21.815,21.815,0,0,0,.653-9.251,21.277,21.277,0,0,0-7.256-13.258,22.113,22.113,0,0,0-4.923-3.054,21.359,21.359,0,0,0-4.144-1.253l-1.548-.242-1.143-.068-.7-.047a1.174,1.174,0,0,1-.237-.026,1,1,0,0,1,.237,0h.7l1.153.032,1.58.216a20.907,20.907,0,0,1,4.212,1.206,21.717,21.717,0,0,1,5.007,3.043,21.323,21.323,0,0,1,4.649,5.486,21.64,21.64,0,0,1,2.785,7.9,22.114,22.114,0,0,1-.632,9.409,21.524,21.524,0,0,1-5.2,8.919l.037-.211c1.053,3.054,2.106,6.239,3.2,9.52l.163.479-.453-.221-10-4.934H260l-.706.269a18.613,18.613,0,0,1-7.219,1.122,19.2,19.2,0,0,1-6.94-1.48,20.729,20.729,0,0,1-9.883-8.814,20.951,20.951,0,0,1-2.3-5.792,10.27,10.27,0,0,1-.29-1.485c-.068-.5-.179-.979-.205-1.474a21.543,21.543,0,0,1-.074-2.906,22.328,22.328,0,0,1,.837-5.429,21.936,21.936,0,0,1,1.99-4.654A20.786,20.786,0,0,1,241,45.341a20.071,20.071,0,0,1,5.871-2.917l1.237-.337a10.926,10.926,0,0,1,1.1-.2,10.736,10.736,0,0,1,1.743-.211l1.079-.053Z" transform="translate(-232.374 -41.617)" fill="#263238"/>
      <path id="Path_13529" data-name="Path 13529" d="M268.343,69.928h-1.458l-3.233-4.4-.032-2.912s-2.254-.111-1.948,3.686,0,2.838,0,2.838-4.781.074-5.176.5c-.284.305-.363,5.06-.379,7.635a2.791,2.791,0,0,0,2.043,2.817,2.2,2.2,0,0,0,.526.063c1.2,0,7.277-1.053,7.277-1.053l2.522-.032Z" transform="translate(-243.614 -51.561)" fill="#d72027"/>
      <path id="Path_13530" data-name="Path 13530" d="M284.2,74.89l-.785,9.978-2.5.032-.111-9.767Z" transform="translate(-255.307 -57.371)" fill="#d72027"/>
    </g>
  </g>
</svg>
