<svg xmlns="http://www.w3.org/2000/svg" xmlns:xlink="http://www.w3.org/1999/xlink" width="60" height="60" viewBox="0 0 60 60">
  <defs>
    <linearGradient id="linear-gradient" x1="0.5" x2="0.5" y2="1" gradientUnits="objectBoundingBox">
      <stop offset="0" stop-color="#4990e1"/>
      <stop offset="1" stop-color="#79b1f1"/>
    </linearGradient>
  </defs>
  <g id="synced-between-devices-icon" transform="translate(-98 -5.005)">
    <path id="Union_2" data-name="Union 2" d="M-3411.906-1404.322a1.022,1.022,0,0,1-.308-.743,1.072,1.072,0,0,1,1.071-1.072H-3394v2.143h-17.146A1.042,1.042,0,0,1-3411.906-1404.322Zm4.12-3.958.8-6.429h10.965l.8,6.429Zm-13-8.571a3.214,3.214,0,0,1-3.215-3.215v-3.214h30v6.429Zm-3.215-8.572v-20.357a3.214,3.214,0,0,1,3.215-3.215h38.571a3.214,3.214,0,0,1,3.214,3.215v7.5h-9.643a5.365,5.365,0,0,0-5.358,5.357v7.5Z" transform="translate(3522 1454)" fill="#3e74b3"/>
    <path id="Union_3" data-name="Union 3" d="M-3420.786-1401.852a3.214,3.214,0,0,1-3.215-3.214v-40.714a3.214,3.214,0,0,1,3.215-3.215h3.214v2.143a2.143,2.143,0,0,0,2.143,2.143h10.714a2.143,2.143,0,0,0,2.143-2.143v-2.143h3.214a3.215,3.215,0,0,1,3.215,3.215v40.714a3.215,3.215,0,0,1-3.215,3.214Zm10.714-14.477a9.113,9.113,0,0,0,8.018-4.788,1.733,1.733,0,0,0-.7-2.349,1.734,1.734,0,0,0-2.347.7,5.659,5.659,0,0,1-4.973,2.974,5.631,5.631,0,0,1-2.937-.856l.824-.824a1.3,1.3,0,0,0,.282-1.416,1.3,1.3,0,0,0-1.2-.8h-4.33a1.3,1.3,0,0,0-1.3,1.3v4.33a1.3,1.3,0,0,0,.8,1.2,1.314,1.314,0,0,0,.5.1,1.293,1.293,0,0,0,.918-.382l.993-.992A9.114,9.114,0,0,0-3410.072-1416.329Zm2.938-13.867-.823.824a1.3,1.3,0,0,0-.283,1.415,1.3,1.3,0,0,0,1.2.8h4.33a1.3,1.3,0,0,0,1.3-1.3v-4.331a1.3,1.3,0,0,0-.8-1.2,1.3,1.3,0,0,0-1.415.283l-.993.993a9.1,9.1,0,0,0-5.451-1.807,9.1,9.1,0,0,0-8.022,4.809,1.733,1.733,0,0,0,.706,2.345,1.7,1.7,0,0,0,.819.208,1.739,1.739,0,0,0,1.528-.911,5.638,5.638,0,0,1,4.969-2.986A5.627,5.627,0,0,1-3407.135-1430.2Zm-8.294-16.655v-2.143h10.714v2.143Z" transform="translate(3554.143 1466.857)" fill="url(#linear-gradient)"/>
  </g>
</svg>
