<svg xmlns="http://www.w3.org/2000/svg" width="385.999" height="74.002" viewBox="0 0 385.999 74.002">
  <path id="UNIDO-Fr-Logo" d="M-7519.4,2536.473a33.788,33.788,0,0,1,9.8-7c-3.514-1.113-5.811,1.838-8.478,3.336-3.114,2.176-7.587,3.2-11.347,1.7a12.38,12.38,0,0,1-5.441-3.736,12.04,12.04,0,0,0,10.729.927c4.518-1.96,9.711-4.029,14.645-3.372a5.2,5.2,0,0,0,1.836.552,5.7,5.7,0,0,0,1.823-.552,17.566,17.566,0,0,1,10.924,1.782l3.594,1.438a11.877,11.877,0,0,0,10.5-1.145,12.464,12.464,0,0,1-5.549,3.891c-4.626,1.73-9.45-.078-13.059-2.826-1.465-.927-2.762-2.269-4.657-2.146a6.428,6.428,0,0,0-1.927.184,35.609,35.609,0,0,1,9.761,6.78,14.555,14.555,0,0,1-1.776,1.605c-2.866-3.1-6.058-6.082-9.617-7.829a6.247,6.247,0,0,0-1.99.851,29.767,29.767,0,0,0-7.922,7.087Zm-10.71-5.948a12.7,12.7,0,0,1-4.122-.646,13.841,13.841,0,0,1-7.847-6.486c4.1,4.679,10.807,3.118,16.281,4.34.771.106,2.3.468,2.3.292s-1.558-.371-2.267-.741c-4.286-1.512-4.918-6.164-7.246-9.295,2.976,1.975,5.474,4.647,8.216,7.225a14.346,14.346,0,0,0,6.846,3.042c-.6.218-1.387.156-2.035.324-3.2.8-6.666,1.945-10.119,1.945Zm33.31-2.269-.957-.123v-.032a13.946,13.946,0,0,0,6.582-2.96c2.792-2.689,5.275-5.453,8.372-7.57-2.3,2.951-2.542,7.149-6.334,9.05-.942.618-3.152.993-3.1,1.187s2.653-.463,4.023-.6c5.087-.805,10.915.013,14.475-4.323-1.323,3.025-4.638,5.559-7.659,6.622a12.049,12.049,0,0,1-4.317.75C-7489.471,2530.258-7493.2,2528.839-7496.8,2528.257Zm-44.138-5.265c-3.715-2.286-7.03-6.162-7.724-10.422,2.559,5.805,8.973,6.283,13.273,9.82a10.843,10.843,0,0,0,2.515,1.715c.129.017.045-.049.045-.049a14.728,14.728,0,0,1-2.822-3.071c-2.513-3.5-1.634-8.415-3.514-12.185a28.4,28.4,0,0,1,4.3,6.518c1.541,3.8,2.126,8.091,5.688,10.964C-7533.029,2525.016-7537.545,2525.37-7540.938,2522.992Zm4.437-15.464h1.693a29.534,29.534,0,0,0,5.2,7.7l3.351-3.356c-.042-.046-.08-.091-.121-.136a15.049,15.049,0,0,1-1.1-1.207,2.132,2.132,0,0,1-1.3-.988c-.154-.171-.014-.478-.182-.6l-.186.231c-.542.262-.741-.3-1.111-.525-.478-.263-.247-1.173-.893-1a.32.32,0,0,1-.226-.115h9.755a.262.262,0,0,1,.012.04v-.032l.005-.008h1.846l-.131.133a17.193,17.193,0,0,0,8.61,4.375,1.534,1.534,0,0,1-.076-.315l0,0c-.555-.629-1.34-1.37-1.37-2.253.551-.182.491-.8.676-1.219a2.929,2.929,0,0,1,1.058-.716h16.935c-.108.125-.216.25-.328.37l1.617,1.618a2.921,2.921,0,0,0-.006-.314c.013-.131.019-.265.026-.4.074-.08.029-.2.045-.307,0-.184.1-.4.324-.37.679-.017.692.711,1.081,1.079-.072.525.326.949.288,1.421-.044.093-.087.186-.127.275a23.273,23.273,0,0,0,2.608-3.37h1.8a24.9,24.9,0,0,1-3.44,4.592l3.349,3.357a29.613,29.613,0,0,0,5.43-7.949h1.7a31.019,31.019,0,0,1-28.4,18.591A31.015,31.015,0,0,1-7536.5,2507.528Zm33.623,11.749a25.122,25.122,0,0,1-4.452.54v4.744a29.316,29.316,0,0,0,19.423-8l-3.349-3.355a24.9,24.9,0,0,1-4.181,3.139,1.223,1.223,0,0,0-.03.144,2.394,2.394,0,0,0-.715,1.025c-.538.493-.726,1.266-1.482,1.545-.277.741-1.062.694-1.511,1.234-1.294,1.16-2.126-.743-3.3-.97,0,0-.224-.024-.413-.047Zm-25.653-2.953a29.321,29.321,0,0,0,19.666,8.237v-4.744a24.609,24.609,0,0,1-16.315-6.85Zm21.2,1.958a23.169,23.169,0,0,0,3.2-.328,4.875,4.875,0,0,1,.59-.119,1.307,1.307,0,0,1-.681-.4c-.722-.045-1.062-.8-1.294-1.372-.106-.419.172-.758.341-1.113-.189-.389-.622-.366-1.056-.343a1.826,1.826,0,0,1-.758-.057.323.323,0,0,0-.055-.046,1.42,1.42,0,0,0-.292-.252Zm-16.749-6.417a.689.689,0,0,1,.087.112,23.082,23.082,0,0,0,15.126,6.306v-4.429a.3.3,0,0,0-.158.082v-.068l-.369.154c-.083,0-.16-.01-.241-.017-.029-.068-.057-.14-.087-.208a18.657,18.657,0,0,1-9.469-3.569c-.047.047-.114.085-.148.059a1.133,1.133,0,0,0,.235.4l.074.381a1.956,1.956,0,0,0,.1.328,1.357,1.357,0,0,1-1.2.377c-.879-.14-1.526.523-2.36.616a.765.765,0,0,1-.663-.1,1.313,1.313,0,0,0-.193-.138,1.559,1.559,0,0,0-.648-.373Zm28.238-2.562c.017.015-.057.142-.11.2.017.246-.076.616.216.786.616.2,1.418.6,1.554,1.327-.245.68-1.539,1.3-.737,2.039.228.326-.229.474-.271.715a23.833,23.833,0,0,0,2.849-2.248l-.2-.193a.11.11,0,0,0-.024.006.719.719,0,0,0-.11,0,.309.309,0,0,1-.078-.023.831.831,0,0,1-.481-.677l-2.242-2.248C-7495.6,2509.092-7495.718,2509.2-7495.841,2509.3Zm16.292,2.756a45.009,45.009,0,0,1,2.775-3.749c-1.774,3.565-1,8.184-3.039,11.641a15.233,15.233,0,0,1-3.146,3.783c.011.21.817-.309,1.111-.6,3.46-3.425,7.632-4.232,11.208-6.918a10.85,10.85,0,0,0,3.377-4.262c-.68,5.481-6.12,10.623-11.256,12.261-2.651.711-5.487.942-8.062,1.821C-7482.216,2522.281-7482.464,2516.476-7479.549,2512.058Zm-71.085-4.522,0-.008h2.945a32.372,32.372,0,0,1,4.689,5.348,14.623,14.623,0,0,0,1.927,2.547c-.121-.538-.631-1-.817-1.558a11.006,11.006,0,0,1-1-6.037q.017-.151.034-.3h2.621a66.844,66.844,0,0,0,1.077,8.608c.324,1.143.985,2.163,1.417,3.258C-7542.341,2516.26-7548.6,2513.28-7550.635,2507.536Zm74.9-.008h2.689a13.189,13.189,0,0,1,.072,1.783,11.162,11.162,0,0,1-1.878,5.6c-.1.153.053.025.123-.057.334-.419,1.054-1.319,1.319-1.7.756-1.1,1.5-2.212,2.371-3.271.233-.281.479-.561.735-.836.519-.5,1.039-1.008,1.542-1.522h3.2a18.036,18.036,0,0,1-6.412,7.341c-2.051,1.345-4.132,2.594-6.1,4.124C-7476.107,2515.725-7476.043,2511.485-7475.73,2507.528Zm261.977,8.842.659-1.281a5.874,5.874,0,0,0,3.222.989c1.558,0,2.582-.8,2.582-2.079,0-.972-.639-1.647-1.975-2.028l-1.247-.364c-1.8-.519-2.824-1.385-2.824-3.085,0-2.06,1.594-3.465,3.95-3.465a6.336,6.336,0,0,1,3.656,1.126l-.745,1.179a5.024,5.024,0,0,0-2.843-.936c-1.334,0-2.164.694-2.164,1.8,0,.849.485,1.334,1.766,1.715l1.4.415c1.594.468,2.913,1.509,2.913,3.362,0,1.664-1.371,3.709-4.505,3.709A7.311,7.311,0,0,1-7213.754,2516.37Zm-9.917-.641a3.557,3.557,0,0,1-.381-2.128v-8.335h1.681v7.71a4.372,4.372,0,0,0,.432,2.322,2.4,2.4,0,0,0,1.888.677,2.306,2.306,0,0,0,1.941-.783,3.272,3.272,0,0,0,.434-1.973v-7.953h1.664v8.2c0,1.509-.087,1.873-.625,2.53a4.08,4.08,0,0,1-3.431,1.4C-7221.868,2517.393-7223.064,2516.823-7223.67,2515.729Zm-111.658-4.539c0-3.931,1.907-6.133,4.836-6.133,3.516,0,4.9,2.928,4.9,6.254,0,3.658-1.783,6.082-4.816,6.082C-7333.7,2517.393-7335.328,2514.778-7335.328,2511.19Zm1.873-.189c0,3.05.71,5.129,3.049,5.129,1.854,0,2.913-1.334,2.913-4.661,0-3.241-.747-5.112-3-5.112C-7332.606,2506.357-7333.456,2507.934-7333.456,2511Zm-90.854,4.729a3.54,3.54,0,0,1-.383-2.128v-8.335h1.683v7.71a4.372,4.372,0,0,0,.432,2.322,2.4,2.4,0,0,0,1.888.677,2.306,2.306,0,0,0,1.941-.783,3.272,3.272,0,0,0,.434-1.973v-7.953h1.662v8.2c0,1.509-.085,1.873-.624,2.53a4.077,4.077,0,0,1-3.431,1.4C-7422.506,2517.393-7423.7,2516.823-7424.309,2515.729Zm-12.463-4.539c0-3.931,1.9-6.133,4.835-6.133,3.516,0,4.9,2.928,4.9,6.254,0,3.658-1.786,6.082-4.818,6.082C-7435.145,2517.393-7436.772,2514.778-7436.772,2511.19Zm1.871-.189c0,3.05.711,5.129,3.05,5.129,1.854,0,2.913-1.334,2.913-4.661,0-3.241-.747-5.112-3-5.112C-7434.053,2506.357-7434.9,2507.934-7434.9,2511Zm76.968,6.237-3.986-11.972h1.836l2.288,7.191c.141.417.33,1.056.451,1.577.087.381.156.658.191.9h.1c.053-.242.121-.466.243-.9.14-.485.278-.936.485-1.594l2.341-7.174h1.73l-4.052,11.972Zm185.7-.034v-11.938h1.7v10.553h4.54l-.277,1.385Zm-8.685,0v-11.938h6.5l-.224,1.368h-4.592v3.639h3.848v1.4h-3.831v4.09h4.99v1.438Zm-4.647,0v-11.938h1.7V2517.2Zm-3.851,0c-.345-.677-.5-.953-.985-1.768a16.3,16.3,0,0,0-2.062-2.979,1.34,1.34,0,0,0-1.075-.538v5.286h-1.664v-11.938h3.343a3.868,3.868,0,0,1,2.826.866,3.278,3.278,0,0,1,1.056,2.46,3.035,3.035,0,0,1-3.188,3.275,5.6,5.6,0,0,1,1.039,1.109c.242.33.606.849,1.006,1.473.519.813,1.49,2.375,1.732,2.756Zm-4.122-6.412h1.16a2.773,2.773,0,0,0,2.062-.571,2.2,2.2,0,0,0,.59-1.613,1.82,1.82,0,0,0-1.109-1.75,4.012,4.012,0,0,0-1.456-.225h-1.247Zm-7.714,6.412v-10.551h-3.1v-1.387h8.021l-.174,1.387h-3.1V2517.2Zm-33.439,0v-11.938h2.773c2.06,0,3.377.468,4.469,1.975a6.8,6.8,0,0,1,1.058,4,6.752,6.752,0,0,1-1.3,4.35c-.834,1.039-1.941,1.611-4.022,1.611Zm1.7-1.368h1.319a2.8,2.8,0,0,0,2.79-1.334,6.522,6.522,0,0,0,.641-3.049,5.94,5.94,0,0,0-.885-3.794,2.754,2.754,0,0,0-2.513-1.058H-7233Zm-6.431,1.368-3.137-6.344a31.667,31.667,0,0,1-1.456-3.273l-.1.017c.085,1.023.122,2.218.139,3.326l.068,6.273h-1.679v-11.938h1.941l3.324,6.584a22.949,22.949,0,0,1,1.181,2.858l.1-.034c-.034-.347-.172-2.235-.172-3.552l-.034-5.856h1.611V2517.2Zm-10.814,0v-11.938h1.7V2517.2Zm-9.953,0v-10.551h-3.1v-1.387h8.021l-.172,1.387h-3.1V2517.2Zm-6.709,0-3.139-6.344a32.03,32.03,0,0,1-1.454-3.273l-.1.017c.087,1.023.121,2.218.138,3.326l.068,6.273h-1.679v-11.938h1.939l3.326,6.584a22.463,22.463,0,0,1,1.179,2.858l.106-.034c-.034-.347-.174-2.235-.174-3.552l-.034-5.856h1.611V2517.2Zm-14.854,0v-11.938h6.5l-.226,1.368h-4.592v3.639h3.847v1.4h-3.83v4.09h4.99v1.438Zm-4.183,0-.625-8.127c-.051-.641-.068-1.594-.085-1.939h-.034c-.07.345-.243,1.143-.434,1.785l-2.373,8.281h-1.438l-2.186-7.9c-.258-.917-.466-1.873-.534-2.183h-.036c-.017.417-.068,1.56-.121,2.183l-.607,7.9h-1.628l1.073-11.938h2.341l2.011,7.329a18.843,18.843,0,0,1,.432,1.958h.034c.051-.294.191-1.075.415-1.871l2.079-7.416h2.356l1.023,11.938Zm-18.354,0v-11.938h6.5l-.226,1.368h-4.59v3.639h3.847v1.4h-3.83v4.09h4.988v1.438Zm-9.431,0v-11.938h3.19a4.864,4.864,0,0,1,2.841.553,3.284,3.284,0,0,1,1.577,2.911,3.464,3.464,0,0,1-1.456,3.066,3.655,3.655,0,0,1-2.513.728h-1.975v4.679Zm1.664-6.031h1.871a1.956,1.956,0,0,0,1.715-.675,2.394,2.394,0,0,0,.5-1.575,2.23,2.23,0,0,0-.588-1.7,2.636,2.636,0,0,0-1.942-.589h-1.558Zm-11.1,6.031v-11.938h3.188a4.866,4.866,0,0,1,2.843.553,3.281,3.281,0,0,1,1.575,2.911,3.463,3.463,0,0,1-1.454,3.066,3.652,3.652,0,0,1-2.513.728h-1.975v4.679Zm1.664-6.031h1.871a1.956,1.956,0,0,0,1.715-.675,2.394,2.394,0,0,0,.5-1.575,2.232,2.232,0,0,0-.587-1.7,2.635,2.635,0,0,0-1.941-.589h-1.56ZM-7342,2517.2v-11.938h1.7v10.553h4.539l-.277,1.385Zm-8.685,0v-11.938h6.5l-.224,1.368h-4.592v3.639h3.848v1.4h-3.831v4.09h4.99v1.438Zm-18.53,0v-11.938h6.5l-.226,1.368h-4.59v3.639h3.846v1.4h-3.831v4.09h4.99v1.438Zm-10.731,0v-11.938h2.772c2.061,0,3.379.468,4.469,1.975a6.8,6.8,0,0,1,1.06,4,6.74,6.74,0,0,1-1.3,4.35c-.83,1.039-1.939,1.611-4.018,1.611Zm1.7-1.368h1.317a2.805,2.805,0,0,0,2.79-1.334,6.522,6.522,0,0,0,.641-3.049,5.925,5.925,0,0,0-.885-3.794,2.748,2.748,0,0,0-2.511-1.058h-1.352Zm-14.108,1.368v-11.938h6.5l-.226,1.368h-4.59v3.639h3.848v1.4h-3.831v4.09h4.99v1.438Zm-7.888,0v-11.938h1.7v10.553h4.539l-.276,1.385Zm-7.754,0c-.347-.677-.5-.953-.985-1.768a16.2,16.2,0,0,0-2.064-2.979,1.335,1.335,0,0,0-1.073-.538v5.286h-1.664v-11.938h3.343a3.861,3.861,0,0,1,2.824.866,3.273,3.273,0,0,1,1.057,2.46,3.034,3.034,0,0,1-3.187,3.275,5.589,5.589,0,0,1,1.039,1.109c.244.33.608.849,1.006,1.473.519.813,1.49,2.375,1.732,2.756Zm-4.122-6.412h1.16a2.775,2.775,0,0,0,2.063-.571,2.2,2.2,0,0,0,.589-1.613,1.82,1.82,0,0,0-1.109-1.75,4.017,4.017,0,0,0-1.456-.225h-1.247Zm-33.56,6.412v-11.938h3.188a4.864,4.864,0,0,1,2.841.553,3.282,3.282,0,0,1,1.575,2.911,3.463,3.463,0,0,1-1.454,3.066,3.656,3.656,0,0,1-2.513.728h-1.975v4.679Zm1.662-6.031h1.869a1.96,1.96,0,0,0,1.717-.675,2.4,2.4,0,0,0,.5-1.575,2.218,2.218,0,0,0-.59-1.7,2.626,2.626,0,0,0-1.939-.589h-1.56Zm-27.541-3.645h1.075a19.353,19.353,0,0,0-1.264,1.783C-7471.665,2508.73-7471.593,2508.131-7471.561,2507.528Zm-73.921,0h1.071c.036.6.1,1.2.189,1.783A19.036,19.036,0,0,0-7545.481,2507.528Zm35.152-8.764v-10.953h4.856v11.241c0,2.4.885,3.633,3.262,3.633s3.26-1.23,3.26-3.633v-11.241h4.854v10.953c0,5.411-2.477,8.1-8.114,8.1S-7510.329,2504.175-7510.329,2498.764Zm-41.67-1.619c0-5.413,3.313-9.725,9.187-9.725s9.185,4.312,9.185,9.725-3.313,9.721-9.185,9.721S-7552,2502.555-7552,2497.146Zm4.854,0c0,2.771,1.2,5.54,4.333,5.54s4.331-2.769,4.331-5.54-1.2-5.544-4.331-5.544S-7547.146,2494.375-7547.146,2497.146Zm77.077,9.329v-18.663h4.852v18.663Zm-20.077,0v-18.663h8.011c5.716,0,9.136,3.476,9.136,9.255,0,6.116-3.471,9.408-9.136,9.408Zm4.857-4.181H-7483c3.679-.078,5.142-1.516,5.142-5.252,0-3.4-1.827-5.049-5.142-5.049h-2.293Zm-33.977,4.181-6.472-11.632h-.053v11.632h-4.566v-18.663h4.985l6.471,11.5h.053v-11.5h4.566v18.663Zm151.486-2.735,3.484-2.3.779,1.473-3.76,1.768Zm173.231-8.171.659-1.283a5.857,5.857,0,0,0,3.222.987c1.558,0,2.582-.8,2.582-2.079,0-.97-.641-1.647-1.975-2.026l-1.247-.364c-1.8-.521-2.824-1.385-2.824-3.086,0-2.06,1.594-3.465,3.95-3.465a6.336,6.336,0,0,1,3.656,1.126l-.745,1.179a5.041,5.041,0,0,0-2.843-.936c-1.334,0-2.164.694-2.164,1.8,0,.847.485,1.334,1.766,1.715l1.4.417c1.594.466,2.913,1.5,2.913,3.36,0,1.662-1.371,3.707-4.507,3.707A7.312,7.312,0,0,1-7194.549,2495.569Zm-48.522,0,.658-1.283a5.866,5.866,0,0,0,3.222.987c1.56,0,2.583-.8,2.583-2.079,0-.97-.64-1.647-1.975-2.026l-1.247-.364c-1.8-.521-2.826-1.385-2.826-3.086,0-2.06,1.594-3.465,3.95-3.465a6.331,6.331,0,0,1,3.656,1.126l-.745,1.179a5.032,5.032,0,0,0-2.841-.936c-1.334,0-2.166.694-2.166,1.8,0,.847.485,1.334,1.77,1.715l1.4.417c1.594.466,2.912,1.5,2.912,3.36,0,1.662-1.369,3.707-4.505,3.707A7.314,7.314,0,0,1-7243.071,2495.569Zm-68.58,0,.662-1.283a5.856,5.856,0,0,0,3.222.987c1.558,0,2.579-.8,2.579-2.079,0-.97-.639-1.647-1.973-2.026l-1.247-.364c-1.8-.521-2.826-1.385-2.826-3.086,0-2.06,1.6-3.465,3.952-3.465a6.335,6.335,0,0,1,3.654,1.126l-.745,1.179a5.032,5.032,0,0,0-2.841-.936c-1.334,0-2.165.694-2.165,1.8,0,.847.483,1.334,1.767,1.715l1.4.417c1.594.466,2.911,1.5,2.911,3.36,0,1.662-1.368,3.707-4.5,3.707A7.325,7.325,0,0,1-7311.65,2495.569Zm-76.913,0,.658-1.283a5.866,5.866,0,0,0,3.222.987c1.56,0,2.581-.8,2.581-2.079,0-.97-.641-1.647-1.973-2.026l-1.249-.364c-1.8-.521-2.824-1.385-2.824-3.086,0-2.06,1.594-3.465,3.95-3.465a6.332,6.332,0,0,1,3.656,1.126l-.745,1.179a5.029,5.029,0,0,0-2.841-.936c-1.334,0-2.167.694-2.167,1.8,0,.847.485,1.334,1.769,1.715l1.4.417c1.594.466,2.911,1.5,2.911,3.36,0,1.662-1.368,3.707-4.5,3.707A7.307,7.307,0,0,1-7388.563,2495.569Zm160.038-.641a3.566,3.566,0,0,1-.381-2.132v-8.336h1.681v7.712a4.377,4.377,0,0,0,.432,2.322,2.407,2.407,0,0,0,1.888.675,2.309,2.309,0,0,0,1.941-.779,3.283,3.283,0,0,0,.432-1.975v-7.955h1.664v8.2c0,1.507-.085,1.871-.624,2.53a4.074,4.074,0,0,1-3.431,1.4C-7226.724,2496.59-7227.919,2496.02-7228.526,2494.928Zm-37.014-4.541c0-3.933,1.907-6.133,4.835-6.133,3.518,0,4.905,2.928,4.905,6.255,0,3.656-1.786,6.082-4.818,6.082C-7263.91,2496.59-7265.54,2493.975-7265.54,2490.387Zm1.873-.189c0,3.049.711,5.127,3.05,5.127,1.854,0,2.911-1.333,2.911-4.659,0-3.241-.745-5.114-3-5.114C-7262.818,2485.552-7263.667,2487.129-7263.667,2490.2Zm-93.592.189c0-3.933,1.9-6.133,4.835-6.133,3.518,0,4.9,2.928,4.9,6.255,0,3.656-1.786,6.082-4.818,6.082C-7355.631,2496.59-7357.259,2493.975-7357.259,2490.387Zm1.873-.189c0,3.049.709,5.127,3.048,5.127,1.854,0,2.913-1.333,2.913-4.659,0-3.241-.745-5.114-3-5.114C-7354.537,2485.552-7355.386,2487.129-7355.386,2490.2Zm-90.817.189c0-3.933,1.9-6.133,4.835-6.133,3.516,0,4.9,2.928,4.9,6.255,0,3.656-1.784,6.082-4.818,6.082C-7444.575,2496.59-7446.2,2493.975-7446.2,2490.387Zm1.871-.189c0,3.049.711,5.127,3.05,5.127,1.854,0,2.913-1.333,2.913-4.659,0-3.241-.749-5.114-3-5.114C-7443.484,2485.552-7444.333,2487.129-7444.333,2490.2Zm20.8,4.765a6.463,6.463,0,0,1-1.386-4.471,6.206,6.206,0,0,1,2.062-5.163,4.468,4.468,0,0,1,3-1.021,4.98,4.98,0,0,1,3.377,1.194l-.8,1.041a4.066,4.066,0,0,0-2.547-.9,2.622,2.622,0,0,0-2.564,1.526,6.863,6.863,0,0,0-.658,3.414,6.085,6.085,0,0,0,.849,3.6,3.294,3.294,0,0,0,2.563,1.074,3.552,3.552,0,0,0,1.769-.451v-3.395h-2.2l-.275-1.37h4.125v5.58a6.871,6.871,0,0,1-3.537.953A4.714,4.714,0,0,1-7423.53,2494.962Zm221.077,1.437V2484.46h6.5l-.224,1.37h-4.593v3.639h3.848v1.4h-3.831v4.09h4.991v1.437Zm-4.647,0V2484.46h1.7V2496.4Zm-4.734,0-3.137-6.34a32.454,32.454,0,0,1-1.456-3.275l-.1.017c.087,1.021.121,2.218.138,3.326l.068,6.272H-7218V2484.46h1.941l3.326,6.586a22.733,22.733,0,0,1,1.179,2.858l.1-.034c-.034-.347-.174-2.235-.174-3.552l-.034-5.858h1.611V2496.4Zm-35.367,0-3.135-6.34a32.326,32.326,0,0,1-1.458-3.275l-.1.017c.085,1.021.121,2.218.138,3.326l.07,6.272h-1.681V2484.46h1.939l3.326,6.586a23.209,23.209,0,0,1,1.181,2.858l.1-.034c-.034-.347-.175-2.235-.175-3.552l-.032-5.858h1.611V2496.4Zm-22.463,0V2484.46h1.7V2496.4Zm-6.052,0v-10.551h-3.1v-1.387h8.022l-.174,1.387h-3.1V2496.4Zm-4.283,0-1.056-3.377h-4.142l-1.041,3.377h-1.73l3.916-11.954h2.079l3.846,11.954Zm-4.78-4.763h3.358c-.207-.557-1.452-4.835-1.611-5.529h-.1C-7283.306,2486.784-7284.572,2491.062-7284.779,2491.636Zm-6.452,4.763-3.137-6.34a32.679,32.679,0,0,1-1.456-3.275l-.1.017c.087,1.021.123,2.218.14,3.326l.068,6.272h-1.679V2484.46h1.939l3.326,6.586a22.733,22.733,0,0,1,1.179,2.858l.1-.034c-.034-.347-.175-2.235-.175-3.552l-.034-5.858h1.611V2496.4Zm-28.323,0V2484.46h6.5l-.226,1.37h-4.59v3.639h3.846v1.4h-3.829v4.09h4.988v1.437Zm-10.729,0V2484.46h2.771c2.062,0,3.379.47,4.469,1.977a6.792,6.792,0,0,1,1.06,4,6.745,6.745,0,0,1-1.3,4.35c-.832,1.039-1.941,1.611-4.02,1.611Zm1.7-1.368h1.317a2.8,2.8,0,0,0,2.79-1.334,6.522,6.522,0,0,0,.643-3.05,5.935,5.935,0,0,0-.885-3.792,2.749,2.749,0,0,0-2.511-1.058h-1.354Zm-10.333,1.368-3.137-6.34a32.679,32.679,0,0,1-1.456-3.275l-.1.017c.085,1.021.122,2.218.139,3.326l.068,6.272h-1.68V2484.46h1.939l3.326,6.586a23.152,23.152,0,0,1,1.181,2.858l.1-.034c-.032-.347-.172-2.235-.172-3.552l-.034-5.858h1.611V2496.4Zm-22.465,0V2484.46h1.7V2496.4Zm-6.05,0v-10.551h-3.1v-1.387h8.021l-.174,1.387h-3.1V2496.4Zm-4.284,0-1.058-3.377h-4.141l-1.039,3.377h-1.734l3.916-11.954h2.079l3.848,11.954Zm-4.782-4.763h3.36c-.208-.557-1.456-4.835-1.611-5.529h-.106C-7375.029,2486.784-7376.293,2491.062-7376.5,2491.636Zm-16.1,4.763V2484.46h1.7V2496.4Zm-4.734,0-3.137-6.34a32.679,32.679,0,0,1-1.456-3.275l-.1.017c.085,1.021.119,2.218.138,3.326l.068,6.272h-1.679V2484.46h1.938l3.327,6.586a23.209,23.209,0,0,1,1.181,2.858l.1-.034c-.034-.347-.174-2.235-.174-3.552l-.034-5.858h1.611V2496.4Zm-9.516,0-1.058-3.377h-4.141l-1.039,3.377h-1.734l3.917-11.954h2.077l3.848,11.954Zm-4.782-4.763h3.36c-.207-.557-1.456-4.835-1.611-5.529h-.1C-7410.164,2486.784-7411.43,2491.062-7411.637,2491.636Zm-16.609,4.763c-.347-.675-.5-.953-.989-1.767a15.95,15.95,0,0,0-2.062-2.979,1.333,1.333,0,0,0-1.073-.538v5.284h-1.664V2484.46h3.343a3.87,3.87,0,0,1,2.826.868,3.282,3.282,0,0,1,1.056,2.46,3.031,3.031,0,0,1-3.188,3.273,5.665,5.665,0,0,1,1.041,1.111c.241.328.6.849,1,1.473.52.815,1.49,2.375,1.732,2.754Zm-4.124-6.41h1.16a2.781,2.781,0,0,0,2.062-.571,2.2,2.2,0,0,0,.589-1.613,1.82,1.82,0,0,0-1.109-1.749,4.008,4.008,0,0,0-1.458-.226h-1.245Zm-37.44-3.025c.021-1.145.114-2.576.205-3.421a15.517,15.517,0,0,0,.163-3.6,7.313,7.313,0,0,0-1.22-3.751c.693.4,1,1.171,1.482,1.772a14.324,14.324,0,0,1,2.485,9Zm-.991,0c-1.761-3.472-5.5-5.11-8.08-7.888a11.085,11.085,0,0,1-2.509-5.79c1.478,3.565,5.453,4.355,7.736,7.35a12.607,12.607,0,0,1,1.513,2.441c.1.25.136.046.076-.078-1.166-2.462-1.757-5.976-2.667-8.97a7.007,7.007,0,0,0-2.589-3.4c2.987.618,5.595,3.753,6.212,6.626.722,3.243-.324,6.408.337,9.681l-.028.027Zm-4.672,0a12.833,12.833,0,0,1-.847-1.664,20.523,20.523,0,0,1-1.187-4c1.219,2.257,3.692,3.747,5.453,5.665Zm-4.287,0a29.489,29.489,0,0,0-7.105-12.373l-3.287,3.29a.114.114,0,0,1,.014.019l-.04.01-.038.036c.393.413.766.842,1.13,1.28a7.275,7.275,0,0,1,.6.749c.129.184.266.364.406.538a3.35,3.35,0,0,0,.673.635c.551,1.158,1.833,2.051,1.878,3.379.059.136.08.455.03.478.286.639.542,1.293.773,1.96h-1.622q-.182-.495-.389-.98c-.013.01-.091-.1-.12-.159-.324.015-.551.279-.925.186a.287.287,0,0,1-.184-.309,22.264,22.264,0,0,0-1.7-1.886c-.787.08-1.143-.832-1.85-.925-.633-.264-.2-1.281-1.11-1a1.5,1.5,0,0,1-.973-1.035,2.541,2.541,0,0,0-.875-2.193.7.7,0,0,0-.7.2.773.773,0,0,1-.645.218c-.311-.152-.172-.555-.265-.817-.106-.233-.366-.4-.322-.709.726-.957-.878-.944-.523-1.884-.091-.68-.788-.944-1.141-1.484l0,0a.558.558,0,0,0-.01-.078,23.016,23.016,0,0,0-9.254-2.263v4.433a18.642,18.642,0,0,1,9.918,3.326,1.837,1.837,0,0,1-.544-.938.169.169,0,0,1,.186-.061c.028-.481-.479-.728-.555-1.16a.319.319,0,0,1,.337-.14,9.821,9.821,0,0,1,1.357,1.592c.341-.138.62.078.864.263.449.262.17.832.508,1.143.059.866,1.069,1.37,1.109,2.206a.244.244,0,0,0,.051.034,20.269,20.269,0,0,1,1.59,2.054c.3-.008.525-.362.874-.3.6.339-.093.741-.028,1.109a.864.864,0,0,0,.244-.032c.169-.036.339-.074.463.08.076.341-.275.557-.417.773,0,.341.276.261.523.341a.4.4,0,0,1,.389.4h-3.349c.15-.269.385-.559.328-.845-.013-.019.049-.061.04-.082.013-.047-.053-.08-.04-.129a17.239,17.239,0,0,0-2.035-2.653l-3.313,3.319c.119.129.231.258.341.391h-2.9l.364-.364a11,11,0,0,0-6.3-2.551v2.915h-1.534v-2.915a11,11,0,0,0-6.468,2.693c.07.013.138.03.208.044-.059.055-.114.114-.169.169-.006,0-.009.008-.013.01h-2.487a1.162,1.162,0,0,1,.191-.15l-3.305-3.311a17.307,17.307,0,0,0-2.422,3.461h-1.717a18.792,18.792,0,0,1,3.052-4.551l-3.131-3.135a23.213,23.213,0,0,0-4.721,7.686h-1.624a24.75,24.75,0,0,1,5.261-8.771l-3.351-3.357a29.484,29.484,0,0,0-6.875,12.128h-1.6A31.027,31.027,0,0,1-7508.1,2464a31.035,31.035,0,0,1,29.944,22.966Zm-40.068-4.556,3.313,3.323a12.5,12.5,0,0,1,7.653-3.222v-4.7A17.147,17.147,0,0,0-7519.828,2482.408Zm12.5.1a12.482,12.482,0,0,1,7.4,3l3.318-3.328a17.134,17.134,0,0,0-10.714-4.37Zm-16.715-4.321,3.131,3.135a18.693,18.693,0,0,1,12.05-5.049v-4.433A23.085,23.085,0,0,0-7524.043,2478.187Zm-4.435-4.441,3.351,3.355a24.607,24.607,0,0,1,16.265-6.8v-4.748A29.358,29.358,0,0,0-7528.479,2473.746Zm35.363-.087a3.243,3.243,0,0,1,1.635,2.081c.127.254.491.444.6.7l2.92-2.924a29.348,29.348,0,0,0-19.37-7.957v4.179a1.77,1.77,0,0,1,.155-.37c.214-.123.4.061.495.214a1.464,1.464,0,0,1-.006.622c-.061.04-.115.083-.172.129a24.577,24.577,0,0,1,10.272,2.8v-.061c.6-.3,1.374-.678,1.99-.154a.715.715,0,0,1,.263-.053C-7493.81,2472.863-7493.635,2473.562-7493.116,2473.659Zm-50.466,13.305c1.044-1.152,2.261-2.212,3.408-3.256a6.476,6.476,0,0,0,1.3-1.929,17.2,17.2,0,0,1-1.418,4.9c-.049.1-.108.2-.159.29Zm-1.753,0c.008-.864.154-1.744.089-2.667-.353-3.6-.616-7.7,1.927-10.377a7.656,7.656,0,0,1,4.069-2.733c-3.051,2.1-2.851,5.866-3.821,9-.311,1.158-.847,2.223-1.113,3.414,0,0-.036.366.078.063a10.949,10.949,0,0,1,2.513-3.705c2.174-2.009,5.381-3.26,6.444-6.224-.045,4.122-3.484,7.363-6.766,9.681a15.034,15.034,0,0,0-3.125,3.548Zm-4.181,0c0-.243,0-.487.015-.737-.091-3.645,1.419-6.624,3.546-9.342.063-.034.108-.095.186-.078-1.971,3-.91,6.656-.587,10.157Zm10.191-14.372c1.865-3.258,5.318-4.4,8.4-5.606a38.117,38.117,0,0,0-5.519,6.857c-1.511,1.867-3.438,3.1-5.15,4.708C-7540.667,2476.636-7540.635,2474.353-7539.325,2472.592Zm59.09.485c-1.442-1.831-3.512-4.606-4.431-5.451a7.763,7.763,0,0,1-1.058-1.073c2.25.959,4.674,1.53,6.6,3.258a14.787,14.787,0,0,1,4.028,7.416,4.2,4.2,0,0,0,.29.815A27.46,27.46,0,0,1-7480.235,2473.077Zm-13.989-.747a.647.647,0,0,1-.108-.449c.149-.184.3-.117.445-.051s.292.123.449-.025a.9.9,0,0,1,.693.553c-.078.356.326.652.076.927a.882.882,0,0,1-.231.032C-7493.521,2473.318-7493.643,2472.537-7494.225,2472.33Zm-12.428-3.072c-.026-.08-.123-.187-.026-.265.121-.246.476-.153.66-.076l2.219-.959a3.079,3.079,0,0,1,2.405.927v.108a1.946,1.946,0,0,1-2,.527,10.174,10.174,0,0,1-1.911.345A1.6,1.6,0,0,1-7506.652,2469.258Z" transform="translate(7551.999 -2463.999)" fill="#fff"/>
</svg>
