<svg xmlns="http://www.w3.org/2000/svg" width="233" height="238" viewBox="0 0 233 238">
  <g id="vec-upload-add" transform="translate(-67.246 -75.763)">
    <g id="freepik--Files--inject-17" transform="translate(67.246 75.763)">
      <rect id="Rectangle_3915" data-name="Rectangle 3915" width="39.333" height="49.197" transform="translate(124.66 38.859) rotate(-79.98)" fill="#ebebeb"/>
      <path id="Path_14583" data-name="Path 14583" d="M330.258,52.772l-.24-.037-.7-.1-2.632-.455-9.926-1.716-34.991-6.15.148-.1c-2.036,11.524-4.366,24.746-6.832,38.743h0l-.117-.16,48.447,8.609-.141.1c2.091-11.684,3.819-21.327,5.03-28.085.615-3.376,1.089-6.027,1.414-7.841l.381-2.072c.086-.467.141-.713.141-.713l-.111.695c-.08.467-.2,1.156-.351,2.048-.314,1.814-.769,4.458-1.353,7.835-1.181,6.765-2.878,16.475-4.92,28.171v.117h-.117l-48.478-8.585h-.141v-.141h0c2.46-13.984,4.821-27.2,6.863-38.743V44.07h.123l35.053,6.26,9.882,1.777,2.607.48.664.123Z" transform="translate(-150.266 -44.07)" fill="#263238"/>
      <rect id="Rectangle_3916" data-name="Rectangle 3916" width="34.383" height="45.741" transform="translate(126.762 36.723) rotate(-79.98)" fill="#0761ce"/>
      <path id="Path_14584" data-name="Path 14584" d="M278.47,92.354,297.921,74.09l7.416,14.888,7.859-5.867,10.313,17.207Z" transform="translate(-151.686 -55.629)" fill="#0761ce"/>
      <path id="Path_14585" data-name="Path 14585" d="M328.941,71.241a3.6,3.6,0,1,1-2.921-4.176A3.6,3.6,0,0,1,328.941,71.241Z" transform="translate(-168.366 -52.903)" fill="#0761ce"/>
      <g id="Group_8748" data-name="Group 8748" transform="translate(126.784 18.461)" opacity="0.2">
        <path id="Path_14586" data-name="Path 14586" d="M278.47,92.354,297.921,74.09l7.416,14.888,7.859-5.867,10.313,17.207Z" transform="translate(-278.47 -74.09)"/>
      </g>
      <g id="Group_8749" data-name="Group 8749" transform="translate(153.423 14.107)" opacity="0.2">
        <path id="Path_14587" data-name="Path 14587" d="M328.941,71.241a3.6,3.6,0,1,1-2.921-4.176A3.6,3.6,0,0,1,328.941,71.241Z" transform="translate(-321.788 -67.009)"/>
      </g>
      <path id="Path_14588" data-name="Path 14588" d="M411.3,238.268,383.3,230.046a3.653,3.653,0,0,1-2.46-4.532l11.377-38.743a3.69,3.69,0,0,1,4.538-2.46l17.76,5.215,9.587,18.2-8.247,28.1A3.653,3.653,0,0,1,411.3,238.268Z" transform="translate(-191.099 -98.013)" fill="#0761ce"/>
      <path id="Path_14589" data-name="Path 14589" d="M417.624,225.994a4.4,4.4,0,0,0,.689.1,3.463,3.463,0,0,0,1.9-.455,3.4,3.4,0,0,0,1.039-.947,3.076,3.076,0,0,0,.387-.713c.1-.258.178-.553.258-.849l1.168-4.04.676-2.349c.117-.412.24-.83.363-1.23a5.85,5.85,0,0,0,.277-1.285,3.745,3.745,0,0,0-.8-2.564,3.646,3.646,0,0,0-1.082-.922,5.792,5.792,0,0,0-1.4-.517l-12.859-3.745a3.61,3.61,0,0,0-3.124.9,3.45,3.45,0,0,0-.9,1.365c-.185.517-.326,1.082-.492,1.611q-.922,3.229-1.845,6.2c-.141.492-.32.99-.412,1.451a3.42,3.42,0,0,0,.049,1.414,3.37,3.37,0,0,0,1.611,2.115,5.326,5.326,0,0,0,1.23.461l1.23.375,2.343.695L415,225.2l1.913.615.5.166.166.062-.172-.031-.5-.135-1.937-.535-7.054-2.1-2.349-.676-1.23-.363a5.965,5.965,0,0,1-1.291-.474,3.635,3.635,0,0,1-1.746-2.275,3.567,3.567,0,0,1-.061-1.531c.1-.517.271-.978.406-1.482l1.845-6.211c.166-.541.3-1.07.492-1.63a3.758,3.758,0,0,1,.984-1.482,3.9,3.9,0,0,1,3.395-.984c4.6,1.31,8.917,2.607,12.877,3.77a6.623,6.623,0,0,1,1.457.547,4.127,4.127,0,0,1,1.156,1,4.022,4.022,0,0,1,.842,2.743,5.89,5.89,0,0,1-.3,1.347c-.123.418-.246.836-.369,1.23-.24.818-.474,1.6-.695,2.349l-1.23,4.028a7.079,7.079,0,0,1-.277.861,3.42,3.42,0,0,1-.412.738,3.48,3.48,0,0,1-1.1.965,3.388,3.388,0,0,1-1.962.412A2.527,2.527,0,0,1,417.624,225.994Z" transform="translate(-198.99 -106.445)" fill="#fafafa"/>
      <path id="Path_14590" data-name="Path 14590" d="M421.45,231.412a1.615,1.615,0,0,1-.141-.271c-.08-.184-.209-.474-.35-.793l-1.23-2.946c-.258-.615-.535-1.31-.83-2.042-.154-.363-.307-.744-.461-1.132l-.24-.615a1.076,1.076,0,0,0-.375-.437,1.033,1.033,0,0,0-1.132,0l-1.144.855-2.46,1.753-1.095.781-.135.1-.086-.148-1.334-2.4-.326-.578a1.636,1.636,0,0,0-.344-.486,1.1,1.1,0,0,0-1.039-.24,2.367,2.367,0,0,0-.5.246l-.51.289-.972.547-1.74.978-2.515,1.39-.689.363a1.408,1.408,0,0,1-.246.111,1.313,1.313,0,0,1,.215-.16c.148-.092.4-.252.664-.412l2.46-1.47,1.722-1.009.965-.566.5-.3a2.423,2.423,0,0,1,.566-.277,1.378,1.378,0,0,1,1.3.289,1.914,1.914,0,0,1,.406.553l.326.578c.443.775.9,1.574,1.371,2.4l-.221-.049,1.095-.781,2.46-1.747,1.168-.83a1.31,1.31,0,0,1,1.919.56l.24.615.443,1.144.8,2.054c.467,1.23.849,2.232,1.132,2.983.123.326.215.615.3.818A1.188,1.188,0,0,1,421.45,231.412Z" transform="translate(-199.132 -112.767)" fill="#fafafa"/>
      <path id="Path_14591" data-name="Path 14591" d="M418.821,217.04h.467a1.888,1.888,0,0,0,1.132-.4,1.771,1.771,0,1,0-2.73-.8,1.906,1.906,0,0,0,.738.947c.246.16.406.209.394.24a.935.935,0,0,1-.455-.135,1.918,1.918,0,0,1-.879-.972,2,2,0,0,1,.228-1.925,2.036,2.036,0,0,1,3.69,1.082,2,2,0,0,1-.849,1.74,1.845,1.845,0,0,1-1.267.338.935.935,0,0,1-.467-.117Z" transform="translate(-205.211 -109.169)" fill="#fafafa"/>
      <g id="Group_8750" data-name="Group 8750" transform="translate(188.677 117.125)" opacity="0.2">
        <path id="Path_14592" data-name="Path 14592" d="M.006,0H36.5V10.565a3.911,3.911,0,0,1-3.911,3.911H3.911A3.911,3.911,0,0,1,0,10.565V0Z" transform="translate(4.078 0) rotate(16.36)"/>
      </g>
      <path id="Path_14593" data-name="Path 14593" d="M433.568,192.82l-3.2,10.909a3.4,3.4,0,0,0,2.306,4.213l10.485,3.075Z" transform="translate(-210.173 -101.344)" fill="#0761ce"/>
      <g id="Group_8751" data-name="Group 8751" transform="translate(219.909 103.382)" opacity="0.2">
        <path id="Path_14594" data-name="Path 14594" d="M430.139,212.18a3.774,3.774,0,0,0,1.845,4.36,3.35,3.35,0,0,0,.326.178c1.3.646,9.839,4.92,9.9,4.692l.861-2.933L432.58,215.4S430,214.529,430.139,212.18Z" transform="translate(-429.993 -212.18)"/>
      </g>
      <path id="Path_14595" data-name="Path 14595" d="M403.577,249.847l1.15.338-.633,2.214a3.954,3.954,0,0,1-2.4.043,2.94,2.94,0,1,1,1.679-5.627,3.038,3.038,0,0,1,2,1.611l-1.033.51a1.9,1.9,0,0,0-1.23-1.027,1.845,1.845,0,1,0-1.039,3.481,2.14,2.14,0,0,0,1.045.055Z" transform="translate(-198.324 -122.07)" fill="#fafafa"/>
      <path id="Path_14596" data-name="Path 14596" d="M410.179,248.67l1.261.369-1.6,5.449-1.261-.369Z" transform="translate(-201.839 -122.848)" fill="#fafafa"/>
      <path id="Path_14597" data-name="Path 14597" d="M415.308,251.268l-.418,1.439,2.521.744-.3,1.009-2.521-.738-.578,1.98-1.23-.369,1.6-5.442,4.114,1.23-.3,1.015Z" transform="translate(-203.456 -123.318)" fill="#fafafa"/>
      <path id="Path_14598" data-name="Path 14598" d="M109.489,235.844l-25.343,5.818a3.247,3.247,0,0,1-3.9-2.46L72.2,204.149a3.247,3.247,0,0,1,2.46-3.9l16.075-3.69,15.374,9.969,5.836,25.423a3.247,3.247,0,0,1-2.454,3.893Z" transform="translate(-72.115 -102.784)" fill="#0761ce"/>
      <path id="Path_14599" data-name="Path 14599" d="M102.36,196.55l2.263,9.839a3.026,3.026,0,0,0,3.628,2.275l9.489-2.177Z" transform="translate(-83.761 -102.78)" fill="#0761ce"/>
      <g id="Group_8752" data-name="Group 8752" transform="translate(21.188 103.769)" opacity="0.2">
        <path id="Path_14600" data-name="Path 14600" d="M106.57,213.542a3.376,3.376,0,0,0,3.333,2.589,3,3,0,0,0,.332,0c1.285-.061,9.778-.48,9.735-.67l-.615-2.65-9.489,2.177S107.48,215.417,106.57,213.542Z" transform="translate(-106.57 -212.81)"/>
      </g>
      <g id="Group_8753" data-name="Group 8753" transform="translate(18.6 93.77)" opacity="0.3">
        <path id="Path_14601" data-name="Path 14601" d="M102.36,196.55l2.263,9.839a3.026,3.026,0,0,0,3.628,2.275l9.489-2.177Z" transform="translate(-102.36 -196.55)" fill="#fff"/>
      </g>
      <path id="Path_14602" data-name="Path 14602" d="M95.091,212.728a38.829,38.829,0,0,1-5.805,1.574,42.179,42.179,0,0,1-5.916,1.119,41.091,41.091,0,0,1,5.811-1.574A39.485,39.485,0,0,1,95.091,212.728Z" transform="translate(-76.449 -109.002)" fill="#fafafa"/>
      <path id="Path_14603" data-name="Path 14603" d="M104.747,218.992c0,.129-4.268,1.23-9.593,2.46s-9.673,2.091-9.7,1.968,4.268-1.23,9.6-2.46A97.433,97.433,0,0,1,104.747,218.992Z" transform="translate(-77.249 -111.416)" fill="#fafafa"/>
      <path id="Path_14604" data-name="Path 14604" d="M108.228,225.913c0,.129-4.655,1.31-10.454,2.644s-10.553,2.325-10.584,2.183,4.655-1.31,10.454-2.638S108.2,225.791,108.228,225.913Z" transform="translate(-77.919 -114.082)" fill="#fafafa"/>
      <path id="Path_14605" data-name="Path 14605" d="M109.836,233.064c0,.129-4.655,1.316-10.454,2.644S88.841,238.02,88.81,237.9s4.655-1.316,10.454-2.644S109.836,232.941,109.836,233.064Z" transform="translate(-78.543 -116.835)" fill="#fafafa"/>
      <path id="Path_14606" data-name="Path 14606" d="M111.519,240.212c0,.129-4.655,1.316-10.454,2.644s-10.54,2.312-10.565,2.189,4.655-1.31,10.454-2.644S111.489,240.077,111.519,240.212Z" transform="translate(-79.194 -119.587)" fill="#fafafa"/>
      <path id="Path_14607" data-name="Path 14607" d="M113.156,247.373c.031.123-4.655,1.31-10.454,2.638S92.155,252.323,92.13,252.2s4.655-1.31,10.454-2.644S113.125,247.244,113.156,247.373Z" transform="translate(-79.822 -122.345)" fill="#fafafa"/>
    </g>
    <g id="freepik--Screen--inject-17" transform="translate(103.371 111.32)">
      <rect id="Rectangle_3917" data-name="Rectangle 3917" width="167.651" height="147.641" transform="translate(0.111 0.185)" fill="#f5f5f5"/>
      <path id="Path_14608" data-name="Path 14608" d="M298.906,249.715c0-1.138-.055-58.791-.135-147.641l.135.135H131.273l.16-.16V249.69l-.141-.135,167.651.135-167.651.141h-.141V101.89H299.1v.135C298.943,190.924,298.906,248.577,298.906,249.715Z" transform="translate(-131.144 -101.89)" fill="#263238"/>
      <path id="Path_14609" data-name="Path 14609" d="M168.16,183.476h-9.507a1.187,1.187,0,0,1-1.193-1.187V169.123a1.193,1.193,0,0,1,1.193-1.193h6.027l4.674,4.815v9.544a1.187,1.187,0,0,1-1.193,1.187Z" transform="translate(-141.274 -127.318)" fill="#0761ce"/>
      <path id="Path_14610" data-name="Path 14610" d="M169.2,167.93v3.69a1.113,1.113,0,0,0,1.107,1.107h3.567Z" transform="translate(-145.794 -127.318)" fill="#0761ce"/>
      <g id="Group_8754" data-name="Group 8754" transform="translate(23.455 44.646)" opacity="0.2">
        <path id="Path_14611" data-name="Path 14611" d="M169.28,174.49a1.23,1.23,0,0,0,.978,1.193h.117c.467.086,3.53.615,3.53.56v-1h-3.567S169.452,175.24,169.28,174.49Z" transform="translate(-169.28 -174.49)"/>
      </g>
      <g id="Group_8755" data-name="Group 8755" transform="translate(23.406 40.612)" opacity="0.3">
        <path id="Path_14612" data-name="Path 14612" d="M169.2,167.93v3.69a1.113,1.113,0,0,0,1.107,1.107h3.567Z" transform="translate(-169.2 -167.93)" fill="#fff"/>
      </g>
      <path id="Path_14613" data-name="Path 14613" d="M165.153,173.65a28.188,28.188,0,0,1-4.4,0,28.2,28.2,0,0,1,4.4,0Z" transform="translate(-142.541 -129.484)" fill="#fafafa"/>
      <path id="Path_14614" data-name="Path 14614" d="M167.994,177.066c0,.049-1.624.086-3.622.086s-3.622-.037-3.622-.086,1.623-.086,3.622-.086A29.956,29.956,0,0,1,167.994,177.066Z" transform="translate(-142.541 -130.802)" fill="#fafafa"/>
      <path id="Path_14615" data-name="Path 14615" d="M168.646,179.946c0,.049-1.765.086-3.948.086s-3.948-.037-3.948-.086,1.771-.086,3.948-.086A37.5,37.5,0,0,1,168.646,179.946Z" transform="translate(-142.541 -131.911)" fill="#fafafa"/>
      <path id="Path_14616" data-name="Path 14616" d="M168.646,182.6c0,.049-1.765.086-3.948.086s-3.948-.037-3.948-.086,1.771-.086,3.948-.086S168.646,182.547,168.646,182.6Z" transform="translate(-142.541 -132.932)" fill="#fafafa"/>
      <path id="Path_14617" data-name="Path 14617" d="M168.646,185.276c0,.049-1.765.086-3.948.086s-3.948-.037-3.948-.086,1.771-.086,3.948-.086S168.646,185.233,168.646,185.276Z" transform="translate(-142.541 -133.963)" fill="#fafafa"/>
      <path id="Path_14618" data-name="Path 14618" d="M168.646,187.946c0,.043-1.765.086-3.948.086s-3.948-.043-3.948-.086,1.771-.086,3.948-.086S168.646,187.909,168.646,187.946Z" transform="translate(-142.541 -134.992)" fill="#fafafa"/>
      <path id="Path_14619" data-name="Path 14619" d="M189.124,170.55a.972.972,0,0,1,.535.135l-.166.437a.615.615,0,0,0-.326-.1c-.24,0-.369.135-.369.4v.154h.689v.467h-.67v2.017h-.584v-2.017h-.412v-.467h.412V171.4a.806.806,0,0,1,.892-.849Zm1.052.24a.357.357,0,0,1,.375-.351.351.351,0,0,1,.375.338.375.375,0,0,1-.75,0Zm.08.769h.615v2.5h-.615Z" transform="translate(-152.964 -128.284)" fill="#263238"/>
      <path id="Path_14620" data-name="Path 14620" d="M194,170.67h.615v3.481H194Z" transform="translate(-155.343 -128.373)" fill="#263238"/>
      <path id="Path_14621" data-name="Path 14621" d="M198.4,173.686H196.44a.763.763,0,0,0,.812.615.892.892,0,0,0,.676-.277l.314.363a1.23,1.23,0,0,1-1.009.406,1.273,1.273,0,0,1-1.384-1.285,1.283,1.283,0,1,1,2.564.018A.6.6,0,0,0,198.4,173.686Zm-1.968-.387h1.421a.72.72,0,0,0-1.421,0Z" transform="translate(-156.055 -128.972)" fill="#263238"/>
      <path id="Path_14622" data-name="Path 14622" d="M203.406,173.3v1.433h-.615v-1.359c0-.449-.221-.664-.615-.664a.664.664,0,0,0-.7.756v1.267h-.615v-2.5h.56v.32a1.082,1.082,0,0,1,.861-.351.978.978,0,0,1,1.125,1.1Z" transform="translate(-157.985 -128.958)" fill="#263238"/>
      <path id="Path_14623" data-name="Path 14623" d="M208.165,173.273v1.47h-.553v-.307a.873.873,0,0,1-.787.338c-.578,0-.935-.314-.935-.75s.277-.744,1.039-.744h.615v-.037c0-.344-.2-.547-.615-.547a1.23,1.23,0,0,0-.763.252l-.228-.43a1.777,1.777,0,0,1,1.058-.307C207.747,172.209,208.165,172.554,208.165,173.273Zm-.615.689v-.3h-.615c-.4,0-.5.154-.5.338s.178.344.474.344a.615.615,0,0,0,.67-.387Z" transform="translate(-159.921 -128.965)" fill="#263238"/>
      <path id="Path_14624" data-name="Path 14624" d="M214.979,173.307v1.433h-.615v-1.359c0-.449-.2-.664-.56-.664a.664.664,0,0,0-.658.75v1.273h-.584v-1.359c0-.449-.2-.664-.56-.664a.664.664,0,0,0-.658.75v1.273h-.584v-2.5h.56v.32a1.027,1.027,0,0,1,.818-.351.941.941,0,0,1,.849.418,1.162,1.162,0,0,1,.935-.418.965.965,0,0,1,1.058,1.1Z" transform="translate(-161.797 -128.962)" fill="#263238"/>
      <path id="Path_14625" data-name="Path 14625" d="M221.1,173.686H219.14a.763.763,0,0,0,.812.615.892.892,0,0,0,.676-.277l.32.363a1.414,1.414,0,0,1-2.4-.879,1.283,1.283,0,1,1,2.564.018C221.114,173.557,221.108,173.631,221.1,173.686Zm-1.968-.387h1.421a.683.683,0,0,0-.707-.615.7.7,0,0,0-.713.633Z" transform="translate(-164.795 -128.972)" fill="#263238"/>
      <path id="Path_14626" data-name="Path 14626" d="M223.318,175.477a.387.387,0,1,1,.177.376A.387.387,0,0,1,223.318,175.477Z" transform="translate(-166.631 -130.056)" fill="#263238"/>
      <path id="Path_14627" data-name="Path 14627" d="M227.8,170.67v3.481h-.566v-.326a1.027,1.027,0,0,1-.83.357,1.285,1.285,0,0,1,0-2.564,1.027,1.027,0,0,1,.806.338V170.67Zm-.578,2.226a.75.75,0,1,0-.75.787.738.738,0,0,0,.75-.787Z" transform="translate(-167.358 -128.373)" fill="#263238"/>
      <path id="Path_14628" data-name="Path 14628" d="M230.329,173.416a1.341,1.341,0,1,1,1.334,1.285,1.261,1.261,0,0,1-1.334-1.285Zm2.079,0a.744.744,0,1,0-.744.787.726.726,0,0,0,.744-.787Z" transform="translate(-169.331 -128.893)" fill="#263238"/>
      <path id="Path_14629" data-name="Path 14629" d="M235.26,173.487a1.267,1.267,0,0,1,1.353-1.279,1.119,1.119,0,0,1,1.07.584l-.449.258a.7.7,0,0,0-.615-.344.787.787,0,0,0,0,1.568.707.707,0,0,0,.615-.351l.449.264a1.132,1.132,0,0,1-1.07.584,1.273,1.273,0,0,1-1.353-1.285Z" transform="translate(-171.23 -128.964)" fill="#263238"/>
      <path id="Path_14630" data-name="Path 14630" d="M188,181.818a1.261,1.261,0,0,1,1.316-1.279,1.23,1.23,0,0,1,.922.369l-.172.166a.984.984,0,0,0-.738-.3,1.039,1.039,0,1,0,0,2.079.99.99,0,0,0,.738-.3l.172.166a1.294,1.294,0,0,1-2.238-.9Z" transform="translate(-153.033 -132.172)" fill="#e0e0e0"/>
      <path id="Path_14631" data-name="Path 14631" d="M192.05,182.529a.959.959,0,1,1,.959.959.929.929,0,0,1-.959-.959Zm1.66,0a.7.7,0,1,0-.7.732.689.689,0,0,0,.7-.732Z" transform="translate(-154.592 -132.57)" fill="#e0e0e0"/>
      <path id="Path_14632" data-name="Path 14632" d="M199.118,182.358v1.095h-.252v-1.07c0-.394-.2-.615-.541-.615a.615.615,0,0,0-.615.683v.99h-.252v-1.07c0-.394-.2-.615-.547-.615a.615.615,0,0,0-.615.683v.99H196V181.54h.246v.344a.763.763,0,0,1,.689-.357.676.676,0,0,1,.67.4.818.818,0,0,1,.75-.4.707.707,0,0,1,.763.83Z" transform="translate(-156.113 -132.552)" fill="#e0e0e0"/>
      <path id="Path_14633" data-name="Path 14633" d="M204.1,182.529a.916.916,0,0,1-.941.959.83.83,0,0,1-.72-.375v1.052h-.252v-2.583h.246v.375a.812.812,0,0,1,.726-.387.916.916,0,0,1,.941.959Zm-.258,0a.7.7,0,1,0-.7.732.689.689,0,0,0,.7-.732Z" transform="translate(-158.497 -132.569)" fill="#e0e0e0"/>
      <path id="Path_14634" data-name="Path 14634" d="M206.14,180.33h.252v2.663h-.252Z" transform="translate(-160.018 -132.092)" fill="#e0e0e0"/>
      <path id="Path_14635" data-name="Path 14635" d="M209.222,182.6h-1.574a.689.689,0,0,0,.738.658.732.732,0,0,0,.578-.246l.148.166a.947.947,0,0,1-.732.307.935.935,0,0,1-.99-.959.91.91,0,0,1,.922-.959.9.9,0,0,1,.916.959S209.222,182.578,209.222,182.6Zm-1.574-.184h1.347a.67.67,0,0,0-1.334,0Z" transform="translate(-160.498 -132.57)" fill="#e0e0e0"/>
      <path id="Path_14636" data-name="Path 14636" d="M212.025,183.1a.578.578,0,0,1-.394.135.5.5,0,0,1-.553-.547v-1.144h-.338v-.215h.338v-.412h.252v.412h.578v.215h-.578v1.125a.3.3,0,0,0,.326.344.449.449,0,0,0,.283-.092Z" transform="translate(-161.789 -132.319)" fill="#e0e0e0"/>
      <path id="Path_14637" data-name="Path 14637" d="M214.992,182.6h-1.574a.689.689,0,0,0,.738.658.732.732,0,0,0,.578-.246l.148.166a.947.947,0,0,1-.732.307.935.935,0,0,1-.99-.959.91.91,0,0,1,.922-.959.9.9,0,0,1,.916.959S214.992,182.578,214.992,182.6Zm-1.574-.184h1.334a.67.67,0,0,0-1.334,0Z" transform="translate(-162.72 -132.57)" fill="#e0e0e0"/>
      <rect id="Rectangle_3918" data-name="Rectangle 3918" width="111.438" height="2.042" rx="1.021" transform="translate(33.891 52.948)" fill="#0761ce"/>
      <path id="Path_14638" data-name="Path 14638" d="M374.668,186.68a8.259,8.259,0,0,1-1.488,1.71,8.155,8.155,0,0,1-1.71,1.482,8.331,8.331,0,0,1,1.482-1.71,8.1,8.1,0,0,1,1.716-1.482Z" transform="translate(-223.676 -134.537)" fill="#263238"/>
      <path id="Path_14639" data-name="Path 14639" d="M374.548,189.872a8.154,8.154,0,0,1-1.71-1.482,8.259,8.259,0,0,1-1.488-1.71,8.153,8.153,0,0,1,1.71,1.482,8.259,8.259,0,0,1,1.488,1.71Z" transform="translate(-223.63 -134.537)" fill="#263238"/>
      <path id="Path_14640" data-name="Path 14640" d="M350.044,182.37c0,.418-.307.744-.91.744a1.316,1.316,0,0,1-.9-.326l.123-.2a1.125,1.125,0,0,0,.781.289c.418,0,.646-.191.646-.5s-.215-.5-.676-.5h-.178v-.191l.695-.873h-1.285v-.228h1.6v.184l-.707.892C349.774,181.687,350.044,181.97,350.044,182.37Z" transform="translate(-214.727 -132.188)" fill="#e0e0e0"/>
      <path id="Path_14641" data-name="Path 14641" d="M356.257,180.58v2.509h-.252v-2l-.99,1.685h-.123l-.984-1.679v2h-.258V180.58h.215l1.089,1.845,1.076-1.845Z" transform="translate(-216.814 -132.188)" fill="#e0e0e0"/>
      <path id="Path_14642" data-name="Path 14642" d="M361.307,182.419c0,.424-.314.67-.941.67H359.21V180.58h1.1c.56,0,.886.234.886.615a.648.648,0,0,0,.111,1.224Zm-1.845-1.617v.91h.8c.406,0,.615-.154.615-.455s-.228-.455-.615-.455Zm1.568,1.6c0-.332-.24-.474-.683-.474h-.886v.941h.886c.455,0,.695-.141.695-.467Z" transform="translate(-218.955 -132.188)" fill="#e0e0e0"/>
      <path id="Path_14643" data-name="Path 14643" d="M168.16,223.826h-9.507a1.193,1.193,0,0,1-1.193-1.193V209.467a1.187,1.187,0,0,1,1.193-1.187h6.027l4.674,4.809v9.544a1.193,1.193,0,0,1-1.193,1.193Z" transform="translate(-141.274 -142.854)" fill="#0761ce"/>
      <path id="Path_14644" data-name="Path 14644" d="M169.2,208.28v3.69a1.107,1.107,0,0,0,1.107,1.107h3.567Z" transform="translate(-145.794 -142.854)" fill="#0761ce"/>
      <g id="Group_8756" data-name="Group 8756" transform="translate(23.455 69.454)" opacity="0.2">
        <path id="Path_14645" data-name="Path 14645" d="M169.28,214.83a1.23,1.23,0,0,0,.978,1.193h.117c.467.086,3.53.615,3.53.56v-.972h-3.567S169.452,215.58,169.28,214.83Z" transform="translate(-169.28 -214.83)"/>
      </g>
      <g id="Group_8757" data-name="Group 8757" transform="translate(23.406 65.426)" opacity="0.3">
        <path id="Path_14646" data-name="Path 14646" d="M169.2,208.28v3.69a1.107,1.107,0,0,0,1.107,1.107h3.567Z" transform="translate(-169.2 -208.28)" fill="#fff"/>
      </g>
      <path id="Path_14647" data-name="Path 14647" d="M165.153,214a28.186,28.186,0,0,1-4.4,0,28.193,28.193,0,0,1,4.4,0Z" transform="translate(-142.541 -145.019)" fill="#fafafa"/>
      <path id="Path_14648" data-name="Path 14648" d="M167.994,217.406c0,.049-1.624.086-3.622.086s-3.622-.037-3.622-.086,1.623-.086,3.622-.086S167.994,217.357,167.994,217.406Z" transform="translate(-142.541 -146.335)" fill="#fafafa"/>
      <path id="Path_14649" data-name="Path 14649" d="M168.646,220.256c0,.043-1.765.086-3.948.086s-3.948-.043-3.948-.086,1.771-.086,3.948-.086S168.646,220.207,168.646,220.256Z" transform="translate(-142.541 -147.432)" fill="#fafafa"/>
      <path id="Path_14650" data-name="Path 14650" d="M168.646,222.946c0,.049-1.765.086-3.948.086s-3.948-.037-3.948-.086,1.771-.086,3.948-.086S168.646,222.891,168.646,222.946Z" transform="translate(-142.541 -148.468)" fill="#fafafa"/>
      <path id="Path_14651" data-name="Path 14651" d="M168.646,225.616c0,.049-1.765.086-3.948.086s-3.948-.037-3.948-.086,1.771-.086,3.948-.086S168.646,225.573,168.646,225.616Z" transform="translate(-142.541 -149.496)" fill="#fafafa"/>
      <path id="Path_14652" data-name="Path 14652" d="M168.646,228.306c0,.049-1.765.086-3.948.086s-3.948-.037-3.948-.086,1.771-.086,3.948-.086S168.646,228.257,168.646,228.306Z" transform="translate(-142.541 -150.532)" fill="#fafafa"/>
      <path id="Path_14653" data-name="Path 14653" d="M189.124,210.93a.972.972,0,0,1,.535.135l-.166.443a.615.615,0,0,0-.326-.1c-.24,0-.369.135-.369.406v.148h.689v.467h-.67v2.017h-.584v-2.017h-.412v-.467h.412v-.16a.806.806,0,0,1,.892-.867Zm1.052.24a.357.357,0,0,1,.375-.351.351.351,0,0,1,.375.338.375.375,0,0,1-.75,0Zm.08.769h.615v2.5h-.615Z" transform="translate(-152.964 -143.831)" fill="#263238"/>
      <path id="Path_14654" data-name="Path 14654" d="M194,211h.615v3.481H194Z" transform="translate(-155.343 -143.901)" fill="#263238"/>
      <path id="Path_14655" data-name="Path 14655" d="M198.4,214.026H196.44a.756.756,0,0,0,.812.615.91.91,0,0,0,.676-.271l.314.357a1.23,1.23,0,0,1-1.009.412,1.273,1.273,0,0,1-1.384-1.285,1.283,1.283,0,1,1,2.564.012A.6.6,0,0,0,198.4,214.026Zm-1.968-.387h1.421a.72.72,0,0,0-1.421,0Z" transform="translate(-156.055 -144.505)" fill="#263238"/>
      <path id="Path_14656" data-name="Path 14656" d="M203.406,213.643v1.433h-.615v-1.359c0-.443-.221-.664-.615-.664a.67.67,0,0,0-.7.756v1.267h-.615v-2.5h.56v.326a1.07,1.07,0,0,1,.861-.357.978.978,0,0,1,1.125,1.1Z" transform="translate(-157.985 -144.49)" fill="#263238"/>
      <path id="Path_14657" data-name="Path 14657" d="M208.165,213.613v1.47h-.553v-.3a.886.886,0,0,1-.787.338c-.578,0-.935-.314-.935-.75s.277-.75,1.039-.75h.615v-.037c0-.344-.2-.541-.615-.541a1.23,1.23,0,0,0-.763.246l-.228-.424a1.741,1.741,0,0,1,1.058-.314C207.747,212.549,208.165,212.894,208.165,213.613Zm-.615.689v-.289h-.615c-.4,0-.5.148-.5.332s.178.344.474.344a.615.615,0,0,0,.67-.387Z" transform="translate(-159.921 -144.497)" fill="#263238"/>
      <path id="Path_14658" data-name="Path 14658" d="M214.979,213.647v1.433h-.615v-1.359c0-.443-.2-.664-.56-.664a.67.67,0,0,0-.658.756v1.267h-.584v-1.359c0-.443-.2-.664-.56-.664a.67.67,0,0,0-.658.756v1.267h-.584v-2.5h.56v.32a1.027,1.027,0,0,1,.818-.351.941.941,0,0,1,.849.418,1.162,1.162,0,0,1,.935-.418.965.965,0,0,1,1.058,1.1Z" transform="translate(-161.797 -144.495)" fill="#263238"/>
      <path id="Path_14659" data-name="Path 14659" d="M221.1,214.026H219.14a.756.756,0,0,0,.812.615.91.91,0,0,0,.676-.271l.32.357a1.408,1.408,0,0,1-2.4-.873,1.283,1.283,0,1,1,2.564.012C221.114,213.9,221.107,213.971,221.1,214.026Zm-1.968-.387h1.421a.676.676,0,0,0-.707-.615.689.689,0,0,0-.713.615Z" transform="translate(-164.795 -144.505)" fill="#263238"/>
      <path id="Path_14660" data-name="Path 14660" d="M223.318,215.817a.387.387,0,1,1,.177.376A.387.387,0,0,1,223.318,215.817Z" transform="translate(-166.631 -145.588)" fill="#263238"/>
      <path id="Path_14661" data-name="Path 14661" d="M224.24,215.231l.172-.437a.554.554,0,0,0,.338.1c.221,0,.338-.129.338-.4V211.91h.615v2.552a.812.812,0,0,1-.873.9.959.959,0,0,1-.59-.129Zm.769-4.071a.357.357,0,0,1,.375-.351.351.351,0,0,1,.375.338.363.363,0,0,1-.375.369.357.357,0,0,1-.375-.375Z" transform="translate(-166.987 -143.828)" fill="#263238"/>
      <path id="Path_14662" data-name="Path 14662" d="M230.493,213.834a1.23,1.23,0,0,1-1.273,1.285,1.045,1.045,0,0,1-.806-.338v1.23h-.584V212.58h.56v.326a1.027,1.027,0,0,1,.83-.357,1.23,1.23,0,0,1,1.273,1.285Zm-.615,0a.744.744,0,1,0-.744.781.732.732,0,0,0,.763-.781Z" transform="translate(-168.369 -144.497)" fill="#263238"/>
      <path id="Path_14663" data-name="Path 14663" d="M235.306,212.588v2.122a1.181,1.181,0,0,1-1.353,1.328,2,2,0,0,1-1.23-.357l.264-.443a1.507,1.507,0,0,0,.922.3c.553,0,.8-.252.8-.763v-.1a1.125,1.125,0,0,1-.843.332,1.23,1.23,0,1,1,0-2.423,1.089,1.089,0,0,1,.867.363v-.332Zm-.578,1.175a.763.763,0,1,0-.756.719.707.707,0,0,0,.756-.719Z" transform="translate(-170.138 -144.506)" fill="#263238"/>
      <path id="Path_14664" data-name="Path 14664" d="M188.4,220.92h.264V223.2h1.4v.228H188.4Z" transform="translate(-153.187 -147.721)" fill="#e0e0e0"/>
      <path id="Path_14665" data-name="Path 14665" d="M191.38,222.869a.959.959,0,1,1,.959.959.929.929,0,0,1-.959-.959Zm1.66,0a.7.7,0,1,0-.7.732.689.689,0,0,0,.7-.732Z" transform="translate(-154.334 -148.102)" fill="#e0e0e0"/>
      <path id="Path_14666" data-name="Path 14666" d="M196.65,222.64v1.168H196.4v-.3a.7.7,0,0,1-.646.314c-.43,0-.689-.221-.689-.547s.184-.535.726-.535h.615v-.117a.461.461,0,0,0-.529-.5.959.959,0,0,0-.615.221l-.117-.184a1.169,1.169,0,0,1,.769-.258.67.67,0,0,1,.732.732Zm-.258.615v-.307h-.615c-.363,0-.48.141-.48.338s.172.351.474.351a.615.615,0,0,0,.621-.394Z" transform="translate(-155.755 -148.1)" fill="#e0e0e0"/>
      <path id="Path_14667" data-name="Path 14667" d="M200.365,220.668v2.657h-.246v-.369a.812.812,0,0,1-.719.369.959.959,0,1,1,0-1.919.83.83,0,0,1,.719.375V220.65Zm-.252,1.716a.7.7,0,1,0-.7.732.689.689,0,0,0,.7-.732Z" transform="translate(-157.053 -147.617)" fill="#e0e0e0"/>
      <path id="Path_14668" data-name="Path 14668" d="M202.63,220.888a.178.178,0,0,1,.184-.178.172.172,0,0,1,.184.172.184.184,0,1,1-.369,0Zm.055.615h.252v1.845h-.252Z" transform="translate(-158.666 -147.64)" fill="#e0e0e0"/>
      <path id="Path_14669" data-name="Path 14669" d="M206.02,222.714v1.095h-.258v-1.07a.523.523,0,0,0-.566-.615.615.615,0,0,0-.658.676v1.009h-.258v-1.882h.246v.344a.8.8,0,0,1,.72-.363.726.726,0,0,1,.775.806Z" transform="translate(-159.302 -148.101)" fill="#e0e0e0"/>
      <path id="Path_14670" data-name="Path 14670" d="M209.867,221.928v1.654a.83.83,0,0,1-.947.941,1.31,1.31,0,0,1-.873-.289l.129-.2a1.089,1.089,0,0,0,.738.258c.48,0,.695-.215.695-.683v-.24a.843.843,0,0,1-.732.369.917.917,0,1,1,0-1.833.855.855,0,0,1,.744.375v-.357Zm-.246.892a.72.72,0,1,0-.72.695.676.676,0,0,0,.72-.695Z" transform="translate(-160.707 -148.101)" fill="#e0e0e0"/>
      <path id="Path_14671" data-name="Path 14671" d="M213.49,224.591a.191.191,0,1,1,.191.191A.191.191,0,0,1,213.49,224.591Z" transform="translate(-162.848 -149.061)" fill="#e0e0e0"/>
      <path id="Path_14672" data-name="Path 14672" d="M214.72,224.591a.194.194,0,0,1,.387,0,.2.2,0,0,1-.2.2.191.191,0,0,1-.191-.2Z" transform="translate(-163.321 -149.061)" fill="#e0e0e0"/>
      <path id="Path_14673" data-name="Path 14673" d="M216,224.591a.191.191,0,1,1,.191.191A.191.191,0,0,1,216,224.591Z" transform="translate(-163.814 -149.061)" fill="#e0e0e0"/>
      <path id="Path_14674" data-name="Path 14674" d="M296.667,230.378h-109.4a1.021,1.021,0,0,1-1.021-1.021h0a1.021,1.021,0,0,1,1.021-1.027h109.4a1.021,1.021,0,0,1,1.021,1.027h0a1.021,1.021,0,0,1-1.021,1.021Z" transform="translate(-152.359 -150.574)" fill="#e0e0e0"/>
      <path id="Path_14675" data-name="Path 14675" d="M251.19,230.378H187.271a1.021,1.021,0,0,1-1.021-1.021h0a1.021,1.021,0,0,1,1.021-1.027H251.19a1.021,1.021,0,0,1,1.021,1.027h0a1.021,1.021,0,0,1-1.021,1.021Z" transform="translate(-152.359 -150.574)" fill="#0761ce"/>
      <path id="Path_14676" data-name="Path 14676" d="M374.668,227a8.081,8.081,0,0,1-1.488,1.71,7.73,7.73,0,0,1-1.71,1.482,8.331,8.331,0,0,1,1.482-1.71A8.1,8.1,0,0,1,374.668,227Z" transform="translate(-223.676 -150.062)" fill="#263238"/>
      <path id="Path_14677" data-name="Path 14677" d="M374.548,230.212a7.731,7.731,0,0,1-1.71-1.482,8.084,8.084,0,0,1-1.488-1.71,8.153,8.153,0,0,1,1.71,1.482A8.259,8.259,0,0,1,374.548,230.212Z" transform="translate(-223.63 -150.07)" fill="#263238"/>
      <path id="Path_14678" data-name="Path 14678" d="M350.1,223.177v.228h-1.759v-.184l1.039-1.045c.283-.277.338-.449.338-.615,0-.289-.2-.467-.615-.467a.855.855,0,0,0-.683.283l-.184-.16a1.138,1.138,0,0,1,.892-.357c.51,0,.83.258.83.676a1.015,1.015,0,0,1-.412.781l-.843.861Z" transform="translate(-214.731 -147.697)" fill="#e0e0e0"/>
      <path id="Path_14679" data-name="Path 14679" d="M351.76,222.2c0-.8.424-1.273,1-1.273s1,.474,1,1.273-.418,1.279-1,1.279S351.76,222.978,351.76,222.2Zm1.74,0c0-.67-.3-1.039-.738-1.039s-.738.369-.738,1.039.3,1.039.738,1.039S353.5,222.849,353.5,222.2Z" transform="translate(-216.087 -147.725)" fill="#e0e0e0"/>
      <path id="Path_14680" data-name="Path 14680" d="M358.121,222.39l-.449.412v.535h-.252V220.68h.252v1.8l1.125-1.027h.32l-.812.769.886,1.113h-.314Z" transform="translate(-218.266 -147.628)" fill="#e0e0e0"/>
      <path id="Path_14681" data-name="Path 14681" d="M362.814,222.384a.91.91,0,0,1-.922.941.824.824,0,0,1-.732-.387v.369h-.24V220.65h.252v1.132a.83.83,0,0,1,.72-.375.91.91,0,0,1,.922.978Zm-.252,0a.7.7,0,1,0-.7.732.689.689,0,0,0,.713-.732Z" transform="translate(-219.614 -147.617)" fill="#e0e0e0"/>
      <path id="Path_14682" data-name="Path 14682" d="M168.16,264.716h-9.507a1.193,1.193,0,0,1-1.193-1.193V250.357a1.193,1.193,0,0,1,1.193-1.187h6.027l4.674,4.815v9.538A1.193,1.193,0,0,1,168.16,264.716Z" transform="translate(-141.274 -158.598)" fill="#0761ce"/>
      <path id="Path_14683" data-name="Path 14683" d="M169.2,249.17v3.69a1.107,1.107,0,0,0,1.107,1.125h3.567Z" transform="translate(-145.794 -158.598)" fill="#0761ce"/>
      <g id="Group_8758" data-name="Group 8758" transform="translate(23.455 94.6)" opacity="0.2">
        <path id="Path_14684" data-name="Path 14684" d="M169.28,255.72a1.23,1.23,0,0,0,.978,1.193h.117c.467.08,3.53.615,3.53.553v-.959h-3.567A1.088,1.088,0,0,1,169.28,255.72Z" transform="translate(-169.28 -255.72)"/>
      </g>
      <g id="Group_8759" data-name="Group 8759" transform="translate(23.405 90.572)" opacity="0.3">
        <path id="Path_14685" data-name="Path 14685" d="M169.2,249.17v3.69a1.107,1.107,0,0,0,1.107,1.125h3.567Z" transform="translate(-169.2 -249.17)" fill="#fff"/>
      </g>
      <path id="Path_14686" data-name="Path 14686" d="M165.153,254.939a28.193,28.193,0,0,1-4.4,0,28.2,28.2,0,0,1,4.4,0Z" transform="translate(-142.541 -160.782)" fill="#fafafa"/>
      <path id="Path_14687" data-name="Path 14687" d="M167.994,258.3c0,.049-1.624.092-3.622.092s-3.622-.043-3.622-.092,1.623-.086,3.622-.086S167.994,258.253,167.994,258.3Z" transform="translate(-142.541 -162.079)" fill="#fafafa"/>
      <path id="Path_14688" data-name="Path 14688" d="M168.646,261.146c0,.049-1.765.086-3.948.086s-3.948-.037-3.948-.086,1.771-.086,3.948-.086S168.646,261.1,168.646,261.146Z" transform="translate(-142.541 -163.176)" fill="#fafafa"/>
      <path id="Path_14689" data-name="Path 14689" d="M168.646,263.826c0,.049-1.765.086-3.948.086s-3.948-.037-3.948-.086,1.771-.086,3.948-.086S168.646,263.783,168.646,263.826Z" transform="translate(-142.541 -164.208)" fill="#fafafa"/>
      <path id="Path_14690" data-name="Path 14690" d="M168.646,266.516c0,.043-1.765.086-3.948.086s-3.948-.043-3.948-.086,1.771-.086,3.948-.086S168.646,266.467,168.646,266.516Z" transform="translate(-142.541 -165.244)" fill="#fafafa"/>
      <path id="Path_14691" data-name="Path 14691" d="M168.646,269.2c0,.049-1.765.086-3.948.086s-3.948-.037-3.948-.086,1.771-.086,3.948-.086S168.646,269.147,168.646,269.2Z" transform="translate(-142.541 -166.276)" fill="#fafafa"/>
      <path id="Path_14692" data-name="Path 14692" d="M189.124,251.784a.971.971,0,0,1,.535.135l-.166.443a.615.615,0,0,0-.326-.1c-.24,0-.369.135-.369.406v.148h.689v.474h-.67V255.3h-.584v-2.017h-.412v-.474h.412v-.16a.806.806,0,0,1,.892-.867Zm1.052.246a.357.357,0,0,1,.375-.351.344.344,0,0,1,.375.338.375.375,0,1,1-.75,0Zm.08.763h.615V255.3h-.615Z" transform="translate(-152.964 -159.564)" fill="#263238"/>
      <path id="Path_14693" data-name="Path 14693" d="M194,251.91h.615v3.481H194Z" transform="translate(-155.343 -159.653)" fill="#263238"/>
      <path id="Path_14694" data-name="Path 14694" d="M198.4,254.92H196.44a.756.756,0,0,0,.812.615.892.892,0,0,0,.676-.271l.314.363a1.408,1.408,0,0,1-2.392-.879,1.283,1.283,0,1,1,2.564.012A.625.625,0,0,0,198.4,254.92Zm-1.968-.387h1.421a.683.683,0,0,0-.707-.615.7.7,0,0,0-.707.615Z" transform="translate(-156.055 -160.253)" fill="#263238"/>
      <path id="Path_14695" data-name="Path 14695" d="M203.406,254.528v1.439h-.615V254.6c0-.443-.221-.658-.615-.658a.664.664,0,0,0-.7.756v1.267h-.615v-2.509h.56v.314a1.064,1.064,0,0,1,.861-.351.972.972,0,0,1,1.125,1.107Z" transform="translate(-157.985 -160.229)" fill="#263238"/>
      <path id="Path_14696" data-name="Path 14696" d="M208.165,254.532V256h-.553v-.307a.885.885,0,0,1-.787.338c-.578,0-.935-.314-.935-.75s.277-.744,1.039-.744h.615V254.5c0-.344-.2-.547-.615-.547a1.23,1.23,0,0,0-.763.246l-.209-.394a1.734,1.734,0,0,1,1.058-.307C207.747,253.468,208.165,253.806,208.165,254.532Zm-.615.683v-.289h-.615c-.4,0-.5.148-.5.332s.178.351.474.351a.615.615,0,0,0,.67-.394Z" transform="translate(-159.921 -160.264)" fill="#263238"/>
      <path id="Path_14697" data-name="Path 14697" d="M214.979,254.537v1.439h-.615v-1.365c0-.443-.2-.658-.56-.658a.664.664,0,0,0-.658.75v1.273h-.584v-1.365c0-.443-.2-.658-.56-.658a.664.664,0,0,0-.658.75v1.273h-.584v-2.509h.56v.314a1.021,1.021,0,0,1,.818-.344.941.941,0,0,1,.849.418,1.162,1.162,0,0,1,.935-.418.959.959,0,0,1,1.058,1.1Z" transform="translate(-161.797 -160.238)" fill="#263238"/>
      <path id="Path_14698" data-name="Path 14698" d="M221.1,254.92H219.14a.756.756,0,0,0,.812.615.892.892,0,0,0,.676-.271l.32.363a1.369,1.369,0,0,1-2.4-.879,1.283,1.283,0,1,1,2.564.012C221.114,254.8,221.108,254.865,221.1,254.92Zm-1.968-.387h1.421a.676.676,0,0,0-.707-.615.7.7,0,0,0-.713.615Z" transform="translate(-164.795 -160.253)" fill="#263238"/>
      <path id="Path_14699" data-name="Path 14699" d="M223.32,256.757a.387.387,0,1,1,.381.387.381.381,0,0,1-.381-.387Z" transform="translate(-166.633 -161.37)" fill="#263238"/>
      <path id="Path_14700" data-name="Path 14700" d="M228.163,254.717A1.23,1.23,0,0,1,226.89,256a1.045,1.045,0,0,1-.806-.338v1.23H225.5v-3.419h.56v.3a1.027,1.027,0,0,1,.83-.357,1.23,1.23,0,0,1,1.273,1.3Zm-.615,0a.744.744,0,1,0-.744.781.732.732,0,0,0,.763-.781Z" transform="translate(-167.472 -160.234)" fill="#263238"/>
      <path id="Path_14701" data-name="Path 14701" d="M233.194,254.534v1.439h-.584v-1.365c0-.443-.221-.658-.615-.658a.664.664,0,0,0-.7.756v1.267h-.584v-2.509h.56v.314a1.076,1.076,0,0,1,.861-.351.972.972,0,0,1,1.064,1.107Z" transform="translate(-169.478 -160.235)" fill="#263238"/>
      <path id="Path_14702" data-name="Path 14702" d="M238.235,253.48v2.159a1.181,1.181,0,0,1-1.353,1.322,2,2,0,0,1-1.23-.357l.264-.443a1.507,1.507,0,0,0,.922.3c.553,0,.8-.252.8-.756v-.135a1.1,1.1,0,0,1-.843.332,1.23,1.23,0,1,1,0-2.417,1.082,1.082,0,0,1,.867.357v-.332Zm-.578,1.181a.763.763,0,1,0-.756.713.707.707,0,0,0,.756-.713Z" transform="translate(-171.26 -160.252)" fill="#263238"/>
      <path id="Path_14703" data-name="Path 14703" d="M188.4,261.81h.264v2.281h1.4v.228H188.4Z" transform="translate(-153.187 -163.465)" fill="#e0e0e0"/>
      <path id="Path_14704" data-name="Path 14704" d="M191.38,263.759a.959.959,0,1,1,.959.959.929.929,0,0,1-.959-.959Zm1.66,0a.7.7,0,1,0-.7.7A.7.7,0,0,0,193.04,263.759Z" transform="translate(-154.334 -163.846)" fill="#e0e0e0"/>
      <path id="Path_14705" data-name="Path 14705" d="M196.65,263.547v1.168H196.4v-.289a.707.707,0,0,1-.646.308c-.43,0-.689-.221-.689-.547s.184-.535.726-.535h.615v-.1c0-.326-.178-.5-.529-.5a.959.959,0,0,0-.615.221l-.117-.191a1.23,1.23,0,0,1,.769-.252.664.664,0,0,1,.732.72Zm-.258.615v-.307h-.615c-.363,0-.48.141-.48.338s.172.357.474.357A.615.615,0,0,0,196.392,264.162Z" transform="translate(-155.755 -163.855)" fill="#e0e0e0"/>
      <path id="Path_14706" data-name="Path 14706" d="M200.409,261.57v2.657h-.246v-.369a.812.812,0,0,1-.726.387.959.959,0,0,1,0-1.913.824.824,0,0,1,.719.369V261.57Zm-.252,1.716a.7.7,0,1,0-.7.738.689.689,0,0,0,.7-.738Z" transform="translate(-157.097 -163.373)" fill="#e0e0e0"/>
      <path id="Path_14707" data-name="Path 14707" d="M202.63,261.744a.184.184,0,1,1,.184.184A.184.184,0,0,1,202.63,261.744Zm.055.615h.252v1.882h-.252Z" transform="translate(-158.666 -163.369)" fill="#e0e0e0"/>
      <path id="Path_14708" data-name="Path 14708" d="M206.02,263.607V264.7h-.258v-1.064a.529.529,0,0,0-.566-.615.615.615,0,0,0-.658.683v.984h-.258V262.8h.246v.344a.8.8,0,0,1,.72-.357.726.726,0,0,1,.775.818Z" transform="translate(-159.302 -163.841)" fill="#e0e0e0"/>
      <path id="Path_14709" data-name="Path 14709" d="M209.883,262.81v1.654a.824.824,0,0,1-.947.941,1.279,1.279,0,0,1-.873-.289l.129-.191a1.12,1.12,0,0,0,.738.258c.48,0,.695-.221.695-.689v-.24a.842.842,0,0,1-.732.369.922.922,0,0,1,0-1.845.842.842,0,0,1,.744.375v-.363Zm-.246.9a.72.72,0,1,0-.719.689.677.677,0,0,0,.719-.689Z" transform="translate(-160.722 -163.838)" fill="#e0e0e0"/>
      <path id="Path_14710" data-name="Path 14710" d="M213.49,265.481a.191.191,0,1,1,.191.191A.191.191,0,0,1,213.49,265.481Z" transform="translate(-162.848 -164.805)" fill="#e0e0e0"/>
      <path id="Path_14711" data-name="Path 14711" d="M214.72,265.481a.194.194,0,0,1,.387,0,.2.2,0,0,1-.2.2.191.191,0,0,1-.191-.2Z" transform="translate(-163.321 -164.805)" fill="#e0e0e0"/>
      <path id="Path_14712" data-name="Path 14712" d="M216,265.481a.191.191,0,1,1,.191.191A.191.191,0,0,1,216,265.481Z" transform="translate(-163.814 -164.805)" fill="#e0e0e0"/>
      <path id="Path_14713" data-name="Path 14713" d="M296.667,271.272h-109.4a1.021,1.021,0,0,1-1.021-1.021h0a1.021,1.021,0,0,1,1.021-1.021h109.4a1.021,1.021,0,0,1,1.021,1.021h0A1.021,1.021,0,0,1,296.667,271.272Z" transform="translate(-152.359 -166.322)" fill="#e0e0e0"/>
      <path id="Path_14714" data-name="Path 14714" d="M211.531,271.272h-24.26a1.021,1.021,0,0,1-1.021-1.021h0a1.021,1.021,0,0,1,1.021-1.021h24.26a1.021,1.021,0,0,1,1.021,1.021h0A1.021,1.021,0,0,1,211.531,271.272Z" transform="translate(-152.359 -166.322)" fill="#0761ce"/>
      <path id="Path_14715" data-name="Path 14715" d="M374.668,267.91a16.407,16.407,0,0,1-3.2,3.2,8.153,8.153,0,0,1,1.482-1.71,8,8,0,0,1,1.716-1.488Z" transform="translate(-223.676 -165.814)" fill="#263238"/>
      <path id="Path_14716" data-name="Path 14716" d="M374.548,271.108a16.407,16.407,0,0,1-3.2-3.2A16.408,16.408,0,0,1,374.548,271.108Z" transform="translate(-223.63 -165.814)" fill="#263238"/>
      <path id="Path_14717" data-name="Path 14717" d="M350.044,263.6c0,.424-.307.744-.91.744a1.31,1.31,0,0,1-.9-.32l.123-.209a1.1,1.1,0,0,0,.781.289c.418,0,.646-.191.646-.5s-.215-.5-.676-.5h-.178v-.191l.695-.867h-1.285v-.234h1.6v.184l-.707.892C349.774,262.917,350.044,263.2,350.044,263.6Z" transform="translate(-214.727 -163.465)" fill="#e0e0e0"/>
      <path id="Path_14718" data-name="Path 14718" d="M353.373,264.083v.228h-1.759v-.178l1.045-1.021c.283-.283.332-.449.332-.615,0-.3-.2-.474-.584-.474a.836.836,0,0,0-.683.283l-.184-.16a1.125,1.125,0,0,1,.886-.357c.51,0,.836.258.836.676a1.058,1.058,0,0,1-.412.787l-.855.836Z" transform="translate(-216.002 -163.456)" fill="#e0e0e0"/>
      <path id="Path_14719" data-name="Path 14719" d="M359.557,261.81v2.509H359.3v-2l-.984,1.691h-.092l-.99-1.679v1.992h-.252V261.81h.221l1.088,1.845,1.076-1.845Z" transform="translate(-218.097 -163.465)" fill="#e0e0e0"/>
      <path id="Path_14720" data-name="Path 14720" d="M364.587,263.649c0,.43-.314.67-.941.67H362.49V261.81h1.082c.56,0,.879.24.879.646a.626.626,0,0,0,.135,1.193Zm-1.845-1.617v.91h.8c.4,0,.615-.154.615-.455s-.234-.455-.615-.455Zm1.568,1.6c0-.326-.24-.467-.683-.467h-.886v.941h.886c.455,0,.695-.141.695-.474Z" transform="translate(-220.218 -163.465)" fill="#e0e0e0"/>
      <path id="Path_14721" data-name="Path 14721" d="M168.16,305.606h-9.507a1.193,1.193,0,0,1-1.193-1.187V291.253a1.193,1.193,0,0,1,1.193-1.193h6.027l4.674,4.815v9.544A1.193,1.193,0,0,1,168.16,305.606Z" transform="translate(-141.274 -174.342)" fill="#0761ce"/>
      <path id="Path_14722" data-name="Path 14722" d="M169.2,290.06v3.69a1.113,1.113,0,0,0,1.107,1.107h3.567Z" transform="translate(-145.794 -174.342)" fill="#0761ce"/>
      <g id="Group_8760" data-name="Group 8760" transform="translate(23.455 119.752)" opacity="0.2">
        <path id="Path_14723" data-name="Path 14723" d="M169.28,296.62a1.23,1.23,0,0,0,.978,1.193h.117c.467.086,3.53.615,3.53.56v-1h-3.567S169.452,297.37,169.28,296.62Z" transform="translate(-169.28 -296.62)"/>
      </g>
      <g id="Group_8761" data-name="Group 8761" transform="translate(23.406 115.718)" opacity="0.3">
        <path id="Path_14724" data-name="Path 14724" d="M169.2,290.06v3.69a1.113,1.113,0,0,0,1.107,1.107h3.567Z" transform="translate(-169.2 -290.06)" fill="#fff"/>
      </g>
      <path id="Path_14725" data-name="Path 14725" d="M165.153,295.779a28.193,28.193,0,0,1-4.4,0,28.193,28.193,0,0,1,4.4,0Z" transform="translate(-142.541 -176.507)" fill="#fafafa"/>
      <path id="Path_14726" data-name="Path 14726" d="M167.994,299.2c0,.049-1.624.086-3.622.086s-3.622-.037-3.622-.086,1.623-.086,3.622-.086S167.994,299.147,167.994,299.2Z" transform="translate(-142.541 -177.827)" fill="#fafafa"/>
      <path id="Path_14727" data-name="Path 14727" d="M168.646,302.036c0,.049-1.765.086-3.948.086s-3.948-.037-3.948-.086,1.771-.086,3.948-.086S168.646,301.981,168.646,302.036Z" transform="translate(-142.541 -178.92)" fill="#fafafa"/>
      <path id="Path_14728" data-name="Path 14728" d="M168.646,304.726c0,.043-1.765.086-3.948.086s-3.948-.043-3.948-.086,1.771-.086,3.948-.086S168.646,304.677,168.646,304.726Z" transform="translate(-142.541 -179.956)" fill="#fafafa"/>
      <path id="Path_14729" data-name="Path 14729" d="M168.646,307.406c0,.049-1.765.086-3.948.086s-3.948-.037-3.948-.086,1.771-.086,3.948-.086S168.646,307.357,168.646,307.406Z" transform="translate(-142.541 -180.988)" fill="#fafafa"/>
      <path id="Path_14730" data-name="Path 14730" d="M168.646,310.086c0,.049-1.765.086-3.948.086s-3.948-.037-3.948-.086S162.521,310,164.7,310,168.646,310.043,168.646,310.086Z" transform="translate(-142.541 -182.02)" fill="#fafafa"/>
      <path id="Path_14731" data-name="Path 14731" d="M189.124,292.674a.929.929,0,0,1,.535.141l-.166.437a.615.615,0,0,0-.326-.1c-.24,0-.369.135-.369.4v.154h.689v.467h-.67v2.017h-.584v-2.017h-.412v-.467h.412v-.16a.812.812,0,0,1,.892-.873Zm1.052.246a.357.357,0,0,1,.375-.351.35.35,0,0,1,.375.338.375.375,0,1,1-.75,0Zm.08.763h.615v2.509h-.615Z" transform="translate(-152.964 -175.308)" fill="#263238"/>
      <path id="Path_14732" data-name="Path 14732" d="M194,292.8h.615v3.481H194Z" transform="translate(-155.343 -175.397)" fill="#263238"/>
      <path id="Path_14733" data-name="Path 14733" d="M198.4,295.82H196.44a.756.756,0,0,0,.812.615.892.892,0,0,0,.676-.271l.314.363a1.408,1.408,0,0,1-2.392-.879,1.283,1.283,0,1,1,2.564.018A.531.531,0,0,0,198.4,295.82Zm-1.968-.394h1.421a.72.72,0,0,0-1.421,0Z" transform="translate(-156.055 -176.001)" fill="#263238"/>
      <path id="Path_14734" data-name="Path 14734" d="M203.406,295.427v1.439h-.615v-1.359c0-.449-.221-.664-.615-.664a.664.664,0,0,0-.7.756v1.267h-.615v-2.509h.56v.326a1.082,1.082,0,0,1,.861-.351.978.978,0,0,1,1.125,1.095Z" transform="translate(-157.985 -175.982)" fill="#263238"/>
      <path id="Path_14735" data-name="Path 14735" d="M208.165,295.4v1.47h-.553v-.283a.886.886,0,0,1-.787.338c-.578,0-.935-.314-.935-.75s.277-.744,1.039-.744h.615v-.074c0-.344-.2-.547-.615-.547a1.23,1.23,0,0,0-.763.252l-.228-.43a1.777,1.777,0,0,1,1.058-.307C207.747,294.332,208.165,294.676,208.165,295.4Zm-.615.683v-.289h-.615c-.4,0-.5.154-.5.332s.178.351.474.351a.615.615,0,0,0,.67-.394Z" transform="translate(-159.921 -175.982)" fill="#263238"/>
      <path id="Path_14736" data-name="Path 14736" d="M214.979,295.431v1.439h-.615v-1.359c0-.449-.2-.664-.56-.664a.664.664,0,0,0-.658.75v1.273h-.584v-1.359c0-.449-.2-.664-.56-.664a.664.664,0,0,0-.658.75v1.273h-.584v-2.509h.56v.32a1.045,1.045,0,0,1,.818-.344.941.941,0,0,1,.849.418,1.162,1.162,0,0,1,.935-.418.959.959,0,0,1,1.058,1.095Z" transform="translate(-161.797 -175.986)" fill="#263238"/>
      <path id="Path_14737" data-name="Path 14737" d="M221.1,295.82H219.14a.756.756,0,0,0,.812.615.892.892,0,0,0,.676-.271l.32.363a1.369,1.369,0,0,1-2.4-.879,1.283,1.283,0,1,1,2.564.018C221.114,295.691,221.108,295.765,221.1,295.82Zm-1.968-.394h1.421a.683.683,0,0,0-.707-.615A.7.7,0,0,0,219.134,295.427Z" transform="translate(-164.795 -176.001)" fill="#263238"/>
      <path id="Path_14738" data-name="Path 14738" d="M223.318,297.607a.387.387,0,1,1,.177.376A.387.387,0,0,1,223.318,297.607Z" transform="translate(-166.631 -177.08)" fill="#263238"/>
      <path id="Path_14739" data-name="Path 14739" d="M228.163,295.626a1.23,1.23,0,0,1-1.273,1.285,1.027,1.027,0,0,1-.806-.338v1.23H225.5v-3.419h.56v.332a1.027,1.027,0,0,1,.83-.357,1.23,1.23,0,0,1,1.273,1.267Zm-.615,0a.744.744,0,1,0-.744.744A.744.744,0,0,0,227.548,295.626Z" transform="translate(-167.472 -175.997)" fill="#263238"/>
      <path id="Path_14740" data-name="Path 14740" d="M233.107,292.8v3.481h-.566v-.326a1.027,1.027,0,0,1-.83.357,1.285,1.285,0,0,1,0-2.564,1.021,1.021,0,0,1,.812.338V292.8Zm-.578,2.226a.75.75,0,1,0-.744.787.732.732,0,0,0,.744-.787Z" transform="translate(-169.403 -175.397)" fill="#263238"/>
      <path id="Path_14741" data-name="Path 14741" d="M236.369,293.617v.154h.689v.467h-.67v2.017h-.615v-2.017h-.412v-.467h.412v-.16a.818.818,0,0,1,.9-.873.891.891,0,0,1,.529.141l-.16.437a.615.615,0,0,0-.326-.1C236.516,293.217,236.369,293.352,236.369,293.617Z" transform="translate(-171.268 -175.372)" fill="#263238"/>
      <path id="Path_14742" data-name="Path 14742" d="M188.4,302.71h.264v2.275h1.4v.234H188.4Z" transform="translate(-153.187 -179.213)" fill="#e0e0e0"/>
      <path id="Path_14743" data-name="Path 14743" d="M191.38,304.653a.959.959,0,1,1,.959.965.935.935,0,0,1-.959-.965Zm1.66,0a.7.7,0,1,0-.7.738.689.689,0,0,0,.7-.738Z" transform="translate(-154.334 -179.594)" fill="#e0e0e0"/>
      <path id="Path_14744" data-name="Path 14744" d="M196.65,304.43V305.6H196.4v-.3a.707.707,0,0,1-.646.314c-.43,0-.689-.228-.689-.553s.184-.529.726-.529h.615v-.117c0-.326-.178-.5-.529-.5a.959.959,0,0,0-.615.221l-.117-.191a1.23,1.23,0,0,1,.769-.252.67.67,0,0,1,.732.732Zm-.258.615v-.307h-.615c-.363,0-.48.141-.48.332s.172.357.474.357a.615.615,0,0,0,.621-.394Z" transform="translate(-155.755 -179.592)" fill="#e0e0e0"/>
      <path id="Path_14745" data-name="Path 14745" d="M200.361,302.46v2.663h-.246v-.375a.818.818,0,0,1-.726.394.959.959,0,1,1,0-1.919.836.836,0,0,1,.719.369V302.46Zm-.252,1.716a.7.7,0,1,0-.7.738.689.689,0,0,0,.7-.738Z" transform="translate(-157.049 -179.117)" fill="#e0e0e0"/>
      <path id="Path_14746" data-name="Path 14746" d="M202.63,302.638a.185.185,0,1,1,.109.175A.185.185,0,0,1,202.63,302.638Zm.055.615h.252v1.888h-.252Z" transform="translate(-158.666 -179.117)" fill="#e0e0e0"/>
      <path id="Path_14747" data-name="Path 14747" d="M206.02,304.487v1.095h-.258v-1.07a.529.529,0,0,0-.566-.615.615.615,0,0,0-.658.683v.99h-.258v-1.888h.246v.351a.787.787,0,0,1,.72-.363.726.726,0,0,1,.775.818Z" transform="translate(-159.302 -179.581)" fill="#e0e0e0"/>
      <path id="Path_14748" data-name="Path 14748" d="M209.883,303.7v1.654a.83.83,0,0,1-.947.947,1.279,1.279,0,0,1-.873-.3l.129-.191a1.12,1.12,0,0,0,.738.258c.48,0,.695-.221.695-.683v-.24a.836.836,0,0,1-.732.363.922.922,0,0,1,0-1.845.855.855,0,0,1,.744.375v-.363Zm-.246.9a.72.72,0,1,0-.719.689.676.676,0,0,0,.719-.689Z" transform="translate(-160.722 -179.582)" fill="#e0e0e0"/>
      <path id="Path_14749" data-name="Path 14749" d="M213.49,306.385a.191.191,0,1,1,.054.139.191.191,0,0,1-.054-.139Z" transform="translate(-162.848 -180.557)" fill="#e0e0e0"/>
      <path id="Path_14750" data-name="Path 14750" d="M214.72,306.377a.191.191,0,0,1,.191-.2.2.2,0,0,1,0,.394.191.191,0,0,1-.191-.2Z" transform="translate(-163.321 -180.549)" fill="#e0e0e0"/>
      <path id="Path_14751" data-name="Path 14751" d="M216,306.385a.191.191,0,1,1,.054.139.191.191,0,0,1-.054-.139Z" transform="translate(-163.814 -180.557)" fill="#e0e0e0"/>
      <path id="Path_14752" data-name="Path 14752" d="M296.667,312.162h-109.4a1.021,1.021,0,0,1-1.021-1.021h0a1.021,1.021,0,0,1,1.021-1.021h109.4a1.021,1.021,0,0,1,1.021,1.021h0a1.021,1.021,0,0,1-1.021,1.021Z" transform="translate(-152.359 -182.066)" fill="#e0e0e0"/>
      <path id="Path_14753" data-name="Path 14753" d="M281.12,312.162h-93.85a1.021,1.021,0,0,1-1.021-1.021h0a1.021,1.021,0,0,1,1.021-1.021h93.85a1.021,1.021,0,0,1,1.021,1.021h0a1.021,1.021,0,0,1-1.021,1.021Z" transform="translate(-152.359 -182.066)" fill="#0761ce"/>
      <path id="Path_14754" data-name="Path 14754" d="M374.668,308.8a7.994,7.994,0,0,1-1.488,1.716A8.156,8.156,0,0,1,371.47,312a8.153,8.153,0,0,1,1.482-1.71A7.994,7.994,0,0,1,374.668,308.8Z" transform="translate(-223.676 -181.558)" fill="#263238"/>
      <path id="Path_14755" data-name="Path 14755" d="M374.548,312a8.154,8.154,0,0,1-1.71-1.482,8,8,0,0,1-1.488-1.716A16.407,16.407,0,0,1,374.548,312Z" transform="translate(-223.63 -181.558)" fill="#263238"/>
      <path id="Path_14756" data-name="Path 14756" d="M349.063,302.71v2.509H348.8v-2.282h-.615v-.228Z" transform="translate(-214.712 -179.213)" fill="#e0e0e0"/>
      <path id="Path_14757" data-name="Path 14757" d="M352.218,304.5c0,.424-.3.756-.91.756a1.285,1.285,0,0,1-.9-.32l.123-.209a1.076,1.076,0,0,0,.775.3c.424,0,.652-.209.652-.517s-.2-.523-.842-.523h-.535l.129-1.23h1.377v.228h-1.15l-.086.8h.326C351.935,303.752,352.218,304.048,352.218,304.5Z" transform="translate(-215.567 -179.228)" fill="#e0e0e0"/>
      <path id="Path_14758" data-name="Path 14758" d="M358.367,302.71v2.509h-.252v-2.011l-.984,1.691H357l-.984-1.679v2h-.258V302.71h.221l1.088,1.845,1.082-1.845Z" transform="translate(-217.627 -179.213)" fill="#e0e0e0"/>
      <path id="Path_14759" data-name="Path 14759" d="M363.427,304.549c0,.424-.32.67-.947.67h-1.15V302.71h1.082c.56,0,.879.234.879.646a.578.578,0,0,1-.381.566A.615.615,0,0,1,363.427,304.549Zm-1.845-1.624v.91h.8c.4,0,.615-.154.615-.455s-.234-.455-.615-.455Zm1.562,1.6c0-.326-.24-.467-.676-.467h-.886V305h.886c.449,0,.689-.141.689-.474Z" transform="translate(-219.771 -179.213)" fill="#e0e0e0"/>
      <path id="Path_14760" data-name="Path 14760" d="M150.031,123.48v-2.06h.523v2.036c0,.806.363,1.162,1.015,1.162s1.027-.357,1.027-1.162V121.42h.48v2.06a1.537,1.537,0,0,1-3.075,0Z" transform="translate(-138.402 -109.41)" fill="#263238"/>
      <path id="Path_14761" data-name="Path 14761" d="M159.481,124.205a1.334,1.334,0,0,1-1.39,1.4,1.168,1.168,0,0,1-.953-.449v1.421h-.5v-3.745h.474v.437a1.168,1.168,0,0,1,.978-.461,1.334,1.334,0,0,1,1.39,1.4Zm-.5,0a.922.922,0,1,0-.922.965.91.91,0,0,0,.922-.965Z" transform="translate(-140.958 -109.944)" fill="#263238"/>
      <path id="Path_14762" data-name="Path 14762" d="M162.38,121.07h.492v3.837h-.492Z" transform="translate(-143.169 -109.275)" fill="#263238"/>
      <path id="Path_14763" data-name="Path 14763" d="M164.31,124.171a1.427,1.427,0,1,1,1.427,1.4,1.359,1.359,0,0,1-1.427-1.4Zm2.349,0a.922.922,0,1,0-.922.965.9.9,0,0,0,.922-.965Z" transform="translate(-143.911 -109.91)" fill="#263238"/>
      <path id="Path_14764" data-name="Path 14764" d="M172.06,123.917v1.66h-.467v-.363a1.033,1.033,0,0,1-.9.394c-.615,0-1.009-.332-1.009-.812s.283-.8,1.1-.8h.781v-.1c0-.418-.24-.664-.732-.664a1.39,1.39,0,0,0-.867.3l-.209-.369a1.845,1.845,0,0,1,1.132-.351C171.636,122.81,172.06,123.172,172.06,123.917Zm-.5.818v-.381H170.8c-.492,0-.615.191-.615.424s.228.443.615.443A.787.787,0,0,0,171.562,124.734Z" transform="translate(-145.979 -109.945)" fill="#263238"/>
      <path id="Path_14765" data-name="Path 14765" d="M177.551,121.07v3.837h-.474v-.437a1.181,1.181,0,0,1-.978.467,1.4,1.4,0,0,1,0-2.8,1.156,1.156,0,0,1,.953.437V121.07Zm-.492,2.46a.922.922,0,1,0-.922.965.9.9,0,0,0,.922-.959Z" transform="translate(-147.947 -109.275)" fill="#263238"/>
      <path id="Path_14766" data-name="Path 14766" d="M183.8,120.958a.91.91,0,0,1,.56.16l-.148.375a.615.615,0,0,0-.387-.129c-.289,0-.443.166-.443.48v.24h.8v.406H183.4v2.337h-.5v-2.337h-.467v-.406h.467v-.246a.824.824,0,0,1,.9-.879Zm1.175.277a.332.332,0,0,1,.338-.326.309.309,0,1,1-.338.338Zm.086.849h.5v2.743h-.5Z" transform="translate(-150.889 -109.206)" fill="#263238"/>
      <path id="Path_14767" data-name="Path 14767" d="M189.06,121.07h.5v3.837h-.5Z" transform="translate(-153.441 -109.275)" fill="#263238"/>
      <path id="Path_14768" data-name="Path 14768" d="M193.717,124.372h-2.226a.929.929,0,0,0,1,.8,1.015,1.015,0,0,0,.787-.332l.277.32a1.488,1.488,0,0,1-2.552-.953,1.341,1.341,0,0,1,1.371-1.4,1.322,1.322,0,0,1,1.359,1.408,1.408,1.408,0,0,1-.012.154Zm-2.226-.357h1.759a.886.886,0,0,0-1.759,0Z" transform="translate(-154.188 -109.945)" fill="#263238"/>
      <path id="Path_14769" data-name="Path 14769" d="M196,125.282l.209-.387a1.8,1.8,0,0,0,.959.283c.461,0,.652-.141.652-.375,0-.615-1.728-.08-1.728-1.175,0-.486.437-.818,1.138-.818a2.029,2.029,0,0,1,1,.246l-.215.394a1.427,1.427,0,0,0-.787-.215c-.437,0-.652.16-.652.375,0,.615,1.74.117,1.74,1.187,0,.492-.455.812-1.187.812A1.949,1.949,0,0,1,196,125.282Z" transform="translate(-156.113 -109.945)" fill="#263238"/>
      <path id="Path_14770" data-name="Path 14770" d="M298.9,140.24c0,.092-37.562.166-83.881.166s-83.881-.074-83.881-.166,37.55-.16,83.881-.16S298.9,140.154,298.9,140.24Z" transform="translate(-131.14 -116.595)" fill="#263238"/>
    </g>
    <g id="freepik--Character--inject-17" transform="translate(141.759 186.889)">
      <path id="Path_14776" data-name="Path 14776" d="M225.782,279.376c-1.267-4.065-.738-10.885,2.06-14.249s7.65-5.307,11.992-5.842a3.634,3.634,0,0,1,2.146.221,1.445,1.445,0,0,1,.726,1.845,9.225,9.225,0,0,1,2.835-1.058,3.118,3.118,0,0,1,2.78.879,1.906,1.906,0,0,1-.172,2.694,3.278,3.278,0,0,1,3.727,4.723,10.356,10.356,0,0,1-2.663,2.958,2.934,2.934,0,0,0-1.15,2.792" transform="translate(-205.641 -259.214)" fill="#263238"/>
      <path id="Path_14777" data-name="Path 14777" d="M226.8,273.993l-3.284,23.891a7.177,7.177,0,0,0,6.482,8.13h0a7.177,7.177,0,0,0,7.73-6.18c.246-1.8.455-3.3.492-3.487,0,0,6.15.271,7.429-5.695.615-2.878,1.4-8.911,2.036-14.378a11.358,11.358,0,0,0-9.052-12.416l-.578-.117C231.783,262.838,227.509,267.684,226.8,273.993Z" transform="translate(-204.994 -260.915)" fill="#ffbe9d"/>
      <path id="Path_14778" data-name="Path 14778" d="M242.9,314.34a14.193,14.193,0,0,1-7.38-3.77s.984,4.668,7.054,5.319Z" transform="translate(-209.641 -278.988)" fill="#eb996e"/>
      <path id="Path_14779" data-name="Path 14779" d="M257.647,289.53a.873.873,0,0,1-1,.695.83.83,0,0,1-.726-.941.873.873,0,0,1,1-.7.836.836,0,0,1,.726.947Z" transform="translate(-217.494 -270.518)" fill="#263238"/>
      <path id="Path_14780" data-name="Path 14780" d="M257.708,287.731c-.129.092-.683-.517-1.6-.7s-1.685.148-1.759,0,.111-.24.443-.394a2.4,2.4,0,0,1,1.439-.148,2.281,2.281,0,0,1,1.23.695C257.714,287.473,257.769,287.688,257.708,287.731Z" transform="translate(-216.885 -269.697)" fill="#263238"/>
      <path id="Path_14781" data-name="Path 14781" d="M242.921,287.11a.867.867,0,0,1-.99.695.83.83,0,0,1-.726-.941.867.867,0,0,1,.99-.7.83.83,0,0,1,.726.947Z" transform="translate(-211.827 -269.586)" fill="#263238"/>
      <path id="Path_14782" data-name="Path 14782" d="M242.977,285.081c-.129.086-.683-.523-1.6-.7s-1.685.141-1.759,0,.1-.24.443-.394a2.4,2.4,0,0,1,1.439-.148,2.281,2.281,0,0,1,1.23.695C242.984,284.817,243.039,285.038,242.977,285.081Z" transform="translate(-211.213 -268.676)" fill="#263238"/>
      <path id="Path_14783" data-name="Path 14783" d="M248.29,293.137a6.093,6.093,0,0,1,1.55,0c.234,0,.467,0,.541-.135a1.273,1.273,0,0,0,0-.726c-.111-.615-.221-1.23-.338-1.925a29.666,29.666,0,0,1-.615-4.981,30.793,30.793,0,0,1,1.021,4.92c.1.676.209,1.316.307,1.931a1.433,1.433,0,0,1-.062.941.615.615,0,0,1-.455.271,2.079,2.079,0,0,1-.412,0A5.9,5.9,0,0,1,248.29,293.137Z" transform="translate(-214.558 -269.285)" fill="#263238"/>
      <path id="Path_14784" data-name="Path 14784" d="M243.516,298.189c.154,0-.043,1.021.67,1.9s1.79.978,1.771,1.119-.277.148-.726.068a2.552,2.552,0,0,1-1.494-.879,2.2,2.2,0,0,1-.492-1.574C243.289,298.4,243.448,298.171,243.516,298.189Z" transform="translate(-212.613 -274.22)" fill="#263238"/>
      <path id="Path_14785" data-name="Path 14785" d="M243.964,279.41c-.141.234-1.033-.068-2.134-.154s-2.036.031-2.134-.221c-.043-.117.16-.32.56-.492a3.56,3.56,0,0,1,1.654-.234,3.469,3.469,0,0,1,1.593.517C243.866,279.066,244.026,279.3,243.964,279.41Z" transform="translate(-211.247 -266.56)" fill="#263238"/>
      <path id="Path_14786" data-name="Path 14786" d="M258.192,283.292c-.2.178-.793-.166-1.55-.332s-1.433-.135-1.537-.387c-.043-.117.1-.307.418-.449a2.312,2.312,0,0,1,2.46.578C258.242,282.972,258.285,283.224,258.192,283.292Z" transform="translate(-217.179 -267.982)" fill="#263238"/>
      <path id="Path_14787" data-name="Path 14787" d="M225.364,287.5c-.092-.061-3.862-2.029-4.551,2.079s3.585,3.948,3.61,3.831S225.364,287.5,225.364,287.5Z" transform="translate(-203.949 -269.904)" fill="#ffbe9d"/>
      <path id="Path_14788" data-name="Path 14788" d="M224.065,292.448a1.592,1.592,0,0,1-.209.074.707.707,0,0,1-.535-.08,1.783,1.783,0,0,1-.553-1.722,2.459,2.459,0,0,1,.369-1,.836.836,0,0,1,.615-.455.373.373,0,0,1,.387.48c0,.012.1-.055.092-.234a.461.461,0,0,0-.117-.283.566.566,0,0,0-.381-.172,1.027,1.027,0,0,0-.855.517,2.46,2.46,0,0,0-.437,1.1,1.882,1.882,0,0,0,.75,1.949.763.763,0,0,0,.67,0C224.04,292.547,224.077,292.461,224.065,292.448Z" transform="translate(-204.587 -270.706)" fill="#eb996e"/>
      <path id="Path_14789" data-name="Path 14789" d="M253.152,268.41c-.412,5.412-7.343,6.531-9.729,3.075-1.1-1.6-1.974-3.518-3.69-4.44a4.95,4.95,0,0,0-3.807-.234h-.043a6.361,6.361,0,0,0-3.745,4.237c-.806,2.571-.775,4.963-1.845,7.269a1.7,1.7,0,0,1-.664.849c-.56.277-1.23-.16-1.556-.689a5.129,5.129,0,0,1-.578-2.884,17.077,17.077,0,0,1,1.365-6.617,11.58,11.58,0,0,1,4.3-5.141,11.02,11.02,0,0,1,8.173-1.353,13.566,13.566,0,0,1,7.164,4.3,7.939,7.939,0,0,1,1.931,3.388" transform="translate(-206.543 -260.369)" fill="#263238"/>
      <path id="Path_14790" data-name="Path 14790" d="M259.45,266.339a1.187,1.187,0,0,1,.566.117,2.866,2.866,0,0,1,1.23.984,3.567,3.567,0,0,1,.67,2.238,4,4,0,0,1-1.23,2.577,5.252,5.252,0,0,1-2.515,1.365,7.331,7.331,0,0,1-2.325.123,8.684,8.684,0,0,1-1.531-.307,1.747,1.747,0,0,1-.535-.2c0-.061.793.191,2.085.283a7.269,7.269,0,0,0,2.232-.185,5.116,5.116,0,0,0,2.361-1.3,3.77,3.77,0,0,0,1.168-2.368,3.438,3.438,0,0,0-.56-2.091,2.946,2.946,0,0,0-1.1-1A3.812,3.812,0,0,1,259.45,266.339Z" transform="translate(-216.672 -261.957)" fill="#455a64"/>
      <path id="Path_14791" data-name="Path 14791" d="M255.365,262.53a.81.81,0,0,1,.381.135,1.328,1.328,0,0,1,.492.984,2.392,2.392,0,0,1-.578,1.519,6.763,6.763,0,0,1-1.39,1.384,7.244,7.244,0,0,1-3.247,1.371,3.413,3.413,0,0,1-1.464,0c0-.055.56-.037,1.421-.221a7.9,7.9,0,0,0,3.075-1.408,7.379,7.379,0,0,0,1.347-1.3,2.306,2.306,0,0,0,.584-1.334,1.267,1.267,0,0,0-.344-.9C255.494,262.591,255.365,262.555,255.365,262.53Z" transform="translate(-215.047 -260.491)" fill="#455a64"/>
      <path id="Path_14792" data-name="Path 14792" d="M264.2,359.337a9.44,9.44,0,0,1-14.064,0l-10.873-12.176-.129,17.348,3.837,11.125-38.128,6.611-1.593-30.09-2.743-23.1a6.273,6.273,0,0,1,3.93-6.58l10.5-4.126,14.759,2.706,5.941,2.263a16.21,16.21,0,0,1,6.476,4.5l16.672,19.064" transform="translate(-196.144 -281.983)" fill="#e48d1a"/>
      <path id="Path_14793" data-name="Path 14793" d="M263.728,375.387c.092,0,.111-6.014.049-13.419s-.178-13.419-.271-13.419-.111,6.008-.049,13.419S263.642,375.387,263.728,375.387Z" transform="translate(-220.384 -293.611)" fill="#263238"/>
      <path id="Path_14794" data-name="Path 14794" d="M235.386,370.76l-23.037-9.274A5.252,5.252,0,0,1,209.071,357l-1.685-22.083s.2-9.39-5.67-9.839l-3.339,1.316c-4.3,2.294-5.381,8.573-4.791,13.418.83,6.888,1.181,16.641,2.115,22.618.763,4.889,3.567,9.194,8.351,10.454l28.368,6.15Z" transform="translate(-193.438 -284.575)" fill="#e48d1a"/>
      <path id="Path_14795" data-name="Path 14795" d="M216.648,346.56a2.779,2.779,0,0,1,.074.5q.055.535.148,1.457l.486,5.35c.2,2.275.43,4.963.683,7.945.068.75.129,1.519.2,2.3a17.093,17.093,0,0,0,.3,2.361,3.911,3.911,0,0,0,1.144,2.072,7.868,7.868,0,0,0,2.122,1.322c6.353,2.749,12.207,5.018,16.456,6.6l5.043,1.845,1.371.5a2.549,2.549,0,0,1,.474.2,3.692,3.692,0,0,1-.492-.141l-1.39-.449c-1.23-.4-2.946-1-5.08-1.765-4.274-1.544-10.141-3.776-16.506-6.537a7.89,7.89,0,0,1-2.208-1.377,4.231,4.231,0,0,1-1.23-2.226,17.564,17.564,0,0,1-.3-2.4c-.062-.781-.123-1.55-.185-2.3-.228-2.983-.437-5.676-.615-7.951s-.3-4.065-.387-5.362q-.055-.922-.092-1.457a3.977,3.977,0,0,1-.012-.492Z" transform="translate(-202.373 -292.845)" fill="#263238"/>
      <path id="Path_14796" data-name="Path 14796" d="M195.187,366.08a1.126,1.126,0,0,1,.049.3c0,.234.043.51.074.855.068.787.16,1.845.277,3.13s.283,2.9.517,4.637a43.813,43.813,0,0,0,1.039,5.59,8.425,8.425,0,0,0,1.119,2.669,15.7,15.7,0,0,0,1.722,2.115,14.691,14.691,0,0,0,3.69,2.761,13.683,13.683,0,0,0,4.04,1.328,1.072,1.072,0,0,1-.3,0,7.382,7.382,0,0,1-.855-.111,11.193,11.193,0,0,1-2.989-1.015,14.335,14.335,0,0,1-3.794-2.761,15.008,15.008,0,0,1-1.765-2.14,8.609,8.609,0,0,1-1.175-2.755,41.943,41.943,0,0,1-1.021-5.639c-.215-1.747-.357-3.327-.455-4.655s-.148-2.4-.172-3.142v-.855A1.635,1.635,0,0,1,195.187,366.08Z" transform="translate(-194.109 -300.361)" fill="#263238"/>
      <path id="Path_14797" data-name="Path 14797" d="M211.21,387.8a3.413,3.413,0,0,1,.418-1.23,7.958,7.958,0,0,1,4.674-3.991,3.443,3.443,0,0,1,1.279-.221c0,.049-.474.148-1.23.43a9.09,9.09,0,0,0-2.614,1.55,9.224,9.224,0,0,0-1.943,2.337A10.238,10.238,0,0,1,211.21,387.8Z" transform="translate(-200.281 -306.629)" fill="#263238"/>
      <g id="Group_8762" data-name="Group 8762" transform="translate(15.044 60.301)" opacity="0.3">
        <path id="Path_14798" data-name="Path 14798" d="M238.188,380.516c-2.46-1.39-4.877-2.46-7.453-3.628a16.837,16.837,0,0,1-6.765-4.92c-3.173-4.3-2.817-10.454-6.07-14.7q.32,4.268.615,8.53c.2,2.607-.2,5.184,1.476,6.955,1.414,1.488,4.169,2.632,6.119,3.278,3.923,1.3,8.148,3.216,12.072,4.508" transform="translate(-217.9 -357.27)"/>
      </g>
      <path id="Path_14799" data-name="Path 14799" d="M222.49,317.4l1.125-4.225,14.316,3.364a1.439,1.439,0,0,1,1.045,1.808l-1.095,3.727-5.166,6.629-5.861-1.045-4.366-3.352Z" transform="translate(-204.624 -279.993)" fill="#e48d1a"/>
      <path id="Path_14800" data-name="Path 14800" d="M240.2,321.3a1.69,1.69,0,0,1-.5.117,12.835,12.835,0,0,1-1.4.135,16.776,16.776,0,0,1-8.96-2.152,11.233,11.233,0,0,1-1.187-.756c-.271-.2-.412-.314-.4-.332s.646.357,1.7.892a19.366,19.366,0,0,0,8.843,2.122C239.489,321.323,240.2,321.243,240.2,321.3Z" transform="translate(-206.649 -281.968)" fill="#263238"/>
      <path id="Path_14801" data-name="Path 14801" d="M230.379,318.086a1.011,1.011,0,0,1-.344-.437,2.158,2.158,0,0,1-.111-1.334,2.134,2.134,0,0,1,.689-1.15c.277-.221.492-.271.5-.24s-.141.166-.344.4a2.571,2.571,0,0,0-.535,1.064,2.533,2.533,0,0,0,0,1.187C230.323,317.877,230.422,318.043,230.379,318.086Z" transform="translate(-207.464 -280.661)" fill="#f5f5f5"/>
      <path id="Path_14802" data-name="Path 14802" d="M240.433,320.936a5.59,5.59,0,0,0-.443-4.046,1.574,1.574,0,0,1,.43.48,3.58,3.58,0,0,1,.492,1.47,3.653,3.653,0,0,1-.16,1.544C240.611,320.758,240.47,320.955,240.433,320.936Z" transform="translate(-211.362 -281.421)" fill="#f5f5f5"/>
      <path id="Path_14803" data-name="Path 14803" d="M239.494,364.738a1.893,1.893,0,0,1,0-.43c0-.283.086-.695.1-1.23a33.506,33.506,0,0,0,0-4.532,61.77,61.77,0,0,0-.849-6.666c-.43-2.5-1-5.233-1.451-8.13a87.873,87.873,0,0,1-1.027-14.974c.037-1.919.123-3.474.209-4.545.037-.535.086-.947.117-1.23a2.214,2.214,0,0,1,.061-.43,1.982,1.982,0,0,1,0,.437,10.726,10.726,0,0,1-.055,1.23c-.043,1.076-.1,2.626-.1,4.545a94.815,94.815,0,0,0,1.119,14.919c.455,2.884,1.009,5.621,1.421,8.13a59.036,59.036,0,0,1,.787,6.7,29.248,29.248,0,0,1-.092,4.557c-.037.535-.123.947-.16,1.23A2.193,2.193,0,0,1,239.494,364.738Z" transform="translate(-209.925 -283.608)" fill="#f5f5f5"/>
      <path id="Path_14804" data-name="Path 14804" d="M252.79,324.52a.381.381,0,0,1,.043.111q.037.111.092.332a8,8,0,0,1,.166,1.31c.074,1.15-.086,2.8-.178,4.834s-.2,4.465-.123,7.158a41.2,41.2,0,0,0,1.082,8.689,76.055,76.055,0,0,1,1.845,8.609,42.026,42.026,0,0,1,.24,7.183c-.1,2.042-.289,3.69-.437,4.815-.074.566-.141,1.009-.191,1.3a3.983,3.983,0,0,1-.086.449,2.01,2.01,0,0,1,0-.461c0-.326.074-.763.129-1.3.111-1.138.258-2.78.332-4.815a44.084,44.084,0,0,0-.307-7.134,85.369,85.369,0,0,0-1.845-8.554,40.588,40.588,0,0,1-1.082-8.726c-.061-2.706.062-5.141.2-7.177s.307-3.69.277-4.815a9.263,9.263,0,0,0-.111-1.3,4.445,4.445,0,0,1-.043-.5Z" transform="translate(-216.161 -284.359)" fill="#f5f5f5"/>
      <path id="Path_14805" data-name="Path 14805" d="M270.4,359.905a5.226,5.226,0,0,1-1.119-.892,25.293,25.293,0,0,1-2.386-2.491,26.352,26.352,0,0,1-2.054-2.773,5.2,5.2,0,0,1-.689-1.23c.08-.049,1.23,1.777,2.983,3.819S270.46,359.837,270.4,359.905Z" transform="translate(-220.664 -295.139)" fill="#f5f5f5"/>
      <path id="Path_14806" data-name="Path 14806" d="M277.929,349.589a5.3,5.3,0,0,1-.689-.67c-.418-.443-1.009-1.095-1.722-1.913-1.439-1.636-3.364-3.942-5.393-6.568s-3.77-5.086-4.987-6.888c-.615-.9-1.089-1.636-1.408-2.152a5.5,5.5,0,0,1-.48-.818,5.077,5.077,0,0,1,.615.744l1.494,2.1c1.23,1.765,3.026,4.194,5.049,6.82s3.923,4.92,5.313,6.617l1.642,1.98A5.253,5.253,0,0,1,277.929,349.589Z" transform="translate(-220.318 -286.692)" fill="#f5f5f5"/>
      <path id="Path_14807" data-name="Path 14807" d="M222.915,359.178a2.2,2.2,0,0,1-.24-.338,7.43,7.43,0,0,1-.517-1.089,10.737,10.737,0,0,1-.541-4.354c.086-1.845.615-4.028.929-6.445a43.865,43.865,0,0,0,.086-7.927c-.184-2.817-.461-5.5-.566-7.951a39.038,39.038,0,0,1,.191-6.519,22.138,22.138,0,0,1,.935-4.3,10.747,10.747,0,0,1,.424-1.119,1.966,1.966,0,0,1,.178-.381s-.2.541-.48,1.537a23.679,23.679,0,0,0-.83,4.3,41.4,41.4,0,0,0-.123,6.482c.117,2.46.406,5.117.615,7.945a42.229,42.229,0,0,1-.117,7.995c-.32,2.46-.879,4.581-.99,6.42a11.069,11.069,0,0,0,.43,4.3,12.674,12.674,0,0,0,.615,1.439Z" transform="translate(-204.274 -282.137)" fill="#f5f5f5"/>
      <path id="Path_14808" data-name="Path 14808" d="M209.773,362.7a5.142,5.142,0,0,1-1.513-.873,8.683,8.683,0,0,1-2.626-3.936,12.041,12.041,0,0,1-.615-3.241,21.057,21.057,0,0,1,.191-3.776c.351-2.638,1.058-5.467,1.285-8.5a45.538,45.538,0,0,0-.074-8.573c-.129-1.316-.264-2.577-.264-3.764a10.978,10.978,0,0,1,.424-3.272,6.617,6.617,0,0,1,2.8-3.776,4.607,4.607,0,0,1,1.23-.492,3.5,3.5,0,0,1,.449-.061,5.776,5.776,0,0,0-1.587.658,6.623,6.623,0,0,0-2.65,3.739,10.915,10.915,0,0,0-.375,3.2,36.118,36.118,0,0,0,.3,3.733,45.063,45.063,0,0,1,.1,8.61c-.234,3.075-.947,5.91-1.31,8.517a20.011,20.011,0,0,0-.215,3.721,11.622,11.622,0,0,0,.56,3.179,8.77,8.77,0,0,0,2.491,3.911A11.068,11.068,0,0,0,209.773,362.7Z" transform="translate(-197.891 -283.554)" fill="#f5f5f5"/>
      <path id="Path_14809" data-name="Path 14809" d="M239.265,397.12a7.378,7.378,0,0,1-1.021-.412l-2.737-1.193c-2.312-.99-5.535-2.312-9.151-3.61s-6.943-2.325-9.366-3.026l-2.866-.818a6.152,6.152,0,0,1-1.045-.332,8.145,8.145,0,0,1,1.076.209c.689.154,1.679.4,2.9.726,2.46.646,5.787,1.642,9.415,2.94s6.838,2.657,9.132,3.69c1.15.523,2.072.965,2.7,1.285a6.159,6.159,0,0,1,.965.541Z" transform="translate(-201.001 -308.697)" fill="#f5f5f5"/>
      <path id="Path_14810" data-name="Path 14810" d="M202.75,374.517a.188.188,0,0,1-.1-.049,2.167,2.167,0,0,1-.289-.172,7.272,7.272,0,0,1-1-.818,12.115,12.115,0,0,1-2.663-3.9,5.129,5.129,0,0,1-.344-1.55c-.062-.541-.123-1.1-.191-1.685-.123-1.162-.264-2.4-.406-3.69a79.731,79.731,0,0,0-1.347-8.48,46.314,46.314,0,0,1-.922-8.536c-.068-2.638.043-5.012.166-7s.264-3.6.369-4.7c.055-.529.1-.953.135-1.273a1.932,1.932,0,0,1,.068-.443,3.537,3.537,0,0,1,0,.449c0,.32-.043.744-.068,1.279-.068,1.107-.178,2.718-.271,4.7s-.178,4.354-.1,6.98a47.87,47.87,0,0,0,.941,8.474,77.239,77.239,0,0,1,1.31,8.474c.129,1.31.258,2.552.375,3.721.062.578.117,1.144.172,1.685a4.858,4.858,0,0,0,.314,1.494,12.441,12.441,0,0,0,2.54,3.893,8.776,8.776,0,0,0,.941.855A2.928,2.928,0,0,1,202.75,374.517Z" transform="translate(-194.219 -287.324)" fill="#f5f5f5"/>
      <path id="Path_14811" data-name="Path 14811" d="M313.22,447.85s19.273,5.338,20.048,5.608c1.156.406.965,4.661-.842,4.594-.855-.031-14.8.523-16.567.412s-7.078-2.208-7.078-2.208Z" transform="translate(-237.849 -331.846)" fill="#ffc967"/>
      <path id="Path_14812" data-name="Path 14812" d="M329,457.4a8.456,8.456,0,0,1,2.214-3.844A4.3,4.3,0,0,0,329,457.4Z" transform="translate(-245.633 -334.044)" fill="#263238"/>
      <path id="Path_14813" data-name="Path 14813" d="M325.76,456.027c.092,0,.289-.892.8-1.9s1.119-1.71,1.052-1.777a4.79,4.79,0,0,0-1.845,3.69Z" transform="translate(-244.386 -333.578)" fill="#263238"/>
      <path id="Path_14814" data-name="Path 14814" d="M322.63,455.107a13.531,13.531,0,0,1,.449-2.036,12.977,12.977,0,0,1,1.052-1.8,3.634,3.634,0,0,0-1.5,3.837Z" transform="translate(-243.144 -333.162)" fill="#263238"/>
      <path id="Path_14815" data-name="Path 14815" d="M322.3,450.648a3.474,3.474,0,0,0,.2-1.433,6.55,6.55,0,0,0-.48-2.466,1.082,1.082,0,0,0-.307-.474.523.523,0,0,0-.664,0,.855.855,0,0,0-.258.547,4.875,4.875,0,0,0,0,.51,4.189,4.189,0,0,0,.123.941,5.713,5.713,0,0,0,.615,1.476,3.691,3.691,0,0,0,.867,1.156c.043-.031-.277-.48-.664-1.261a6.266,6.266,0,0,1-.5-1.433,4.116,4.116,0,0,1-.092-.886c0-.3,0-.664.178-.806a.185.185,0,0,1,.252,0,.793.793,0,0,1,.209.332,6.422,6.422,0,0,1,.3.855,7.557,7.557,0,0,1,.252,1.5C322.333,450.094,322.247,450.642,322.3,450.648Z" transform="translate(-242.473 -331.193)" fill="#263238"/>
      <path id="Path_14816" data-name="Path 14816" d="M320.809,453.013a2.83,2.83,0,0,0-1.23-.2,5.534,5.534,0,0,0-1.371.166,3.009,3.009,0,0,0-.787.289.812.812,0,0,0-.43.886.972.972,0,0,0,.695.689,1.8,1.8,0,0,0,.867,0,3.369,3.369,0,0,0,1.23-.615,3.278,3.278,0,0,0,.892-.886,9.58,9.58,0,0,0-1.027.695,3.252,3.252,0,0,1-1.181.51,1.475,1.475,0,0,1-.713,0,.615.615,0,0,1-.467-.461.492.492,0,0,1,.32-.547,2.762,2.762,0,0,1,.7-.271,5.89,5.89,0,0,1,1.3-.228C320.329,452.989,320.8,453.069,320.809,453.013Z" transform="translate(-241.003 -333.756)" fill="#263238"/>
      <path id="Path_14817" data-name="Path 14817" d="M333.762,458.117a9.8,9.8,0,0,1,.381-1.74,10.088,10.088,0,0,1,.941-1.507A2.761,2.761,0,0,0,333.762,458.117Z" transform="translate(-247.42 -334.549)" fill="#263238"/>
      <path id="Path_14818" data-name="Path 14818" d="M312,461.587a3.628,3.628,0,0,0,.744.351,17.041,17.041,0,0,0,2.146.67,30.786,30.786,0,0,0,7.38.695c2.884-.031,5.485-.166,7.38-.24l2.238-.117a4.811,4.811,0,0,0,.818-.086,3.871,3.871,0,0,0-.824-.043h-2.238l-7.38.141a34.232,34.232,0,0,1-7.306-.615A29.055,29.055,0,0,1,312,461.587Z" transform="translate(-239.088 -337.133)" fill="#263238"/>
      <path id="Path_14819" data-name="Path 14819" d="M311.05,461.283c0,.043.553-.264,1.439-.658a6.7,6.7,0,0,1,3.647-.615,5.762,5.762,0,0,1,3.155,1.876,10.069,10.069,0,0,0,1.113,1.132,6.15,6.15,0,0,0-.947-1.285,7.644,7.644,0,0,0-1.279-1.2,4.587,4.587,0,0,0-1.986-.843,6.352,6.352,0,0,0-3.794.72,4.876,4.876,0,0,0-1.347.873Z" transform="translate(-238.723 -336.387)" fill="#263238"/>
      <path id="Path_14820" data-name="Path 14820" d="M270.652,439.2s-18.234,11.943-18.879,12.435c-.978.744.148,4.274,1.845,3.69.8-.289,16.106-4.545,17.754-5.184s6.07-4.256,6.07-4.256Z" transform="translate(-215.759 -328.515)" fill="#ffc967"/>
      <path id="Path_14821" data-name="Path 14821" d="M271.848,452.689a4.3,4.3,0,0,0-3.278-2.989,17.59,17.59,0,0,1,1.845,1.273A18.965,18.965,0,0,1,271.848,452.689Z" transform="translate(-222.366 -332.558)" fill="#263238"/>
      <path id="Path_14822" data-name="Path 14822" d="M274.753,450.316a3.623,3.623,0,0,0-1.113-1.8,3.69,3.69,0,0,0-1.771-1.15c-.043.086.756.566,1.544,1.378S274.667,450.359,274.753,450.316Z" transform="translate(-223.636 -331.661)" fill="#263238"/>
      <path id="Path_14823" data-name="Path 14823" d="M277.605,448.438a3.622,3.622,0,0,0-2.6-3.2,13.161,13.161,0,0,1,1.55,1.4,12.638,12.638,0,0,1,1.045,1.8Z" transform="translate(-224.846 -330.841)" fill="#263238"/>
      <path id="Path_14824" data-name="Path 14824" d="M276.886,443.9c.049,0-.2-.517-.412-1.359a7.776,7.776,0,0,1-.215-1.513,7.381,7.381,0,0,1,0-.9.83.83,0,0,1,.1-.387.178.178,0,0,1,.246-.055c.209.08.32.437.418.713a4.535,4.535,0,0,1,.178.867,6.353,6.353,0,0,1-.049,1.519c-.129.867-.3,1.39-.246,1.408a3.911,3.911,0,0,0,.474-1.365,5.75,5.75,0,0,0,.117-1.587,4.773,4.773,0,0,0-.172-.935c-.049-.16-.111-.314-.178-.48a.879.879,0,0,0-.412-.437.5.5,0,0,0-.615.166,1.094,1.094,0,0,0-.154.547,6.863,6.863,0,0,0,.289,2.491,3.352,3.352,0,0,0,.627,1.3Z" transform="translate(-225.209 -328.572)" fill="#263238"/>
      <path id="Path_14825" data-name="Path 14825" d="M277.41,445.915c0,.043.449-.172,1.187-.351a6.882,6.882,0,0,1,1.3-.178,2.753,2.753,0,0,1,.75.049.5.5,0,0,1,.437.424.652.652,0,0,1-.307.578,1.55,1.55,0,0,1-.676.228,3.394,3.394,0,0,1-1.285-.129,8.557,8.557,0,0,0-1.187-.351,3.5,3.5,0,0,0,1.119.572,3.456,3.456,0,0,0,1.384.2,1.844,1.844,0,0,0,.824-.258.965.965,0,0,0,.449-.867.812.812,0,0,0-.683-.707,3.007,3.007,0,0,0-.836-.037,5.589,5.589,0,0,0-1.353.252,2.706,2.706,0,0,0-1.125.572Z" transform="translate(-225.77 -330.778)" fill="#263238"/>
      <path id="Path_14826" data-name="Path 14826" d="M257.551,461.478a1.189,1.189,0,0,0,.449-.707,2.681,2.681,0,0,0-.344-1.98,6.68,6.68,0,0,0-.615-.91,3.253,3.253,0,0,0-.615-.664,1.07,1.07,0,0,0-.578-.246c-.154,0-.234,0-.228.049a1.649,1.649,0,0,1,.658.369,4.31,4.31,0,0,1,.529.664,9.287,9.287,0,0,1,.566.892,2.823,2.823,0,0,1,.406,1.777,7.872,7.872,0,0,1-.228.756Z" transform="translate(-217.38 -335.357)" fill="#263238"/>
      <path id="Path_14827" data-name="Path 14827" d="M268.019,454.654a2.214,2.214,0,0,0-.615-1.746,2.275,2.275,0,0,0-1.605-.947c-.037.092.732.394,1.353,1.156A9.841,9.841,0,0,1,268.019,454.654Z" transform="translate(-221.299 -333.428)" fill="#263238"/>
      <path id="Path_14828" data-name="Path 14828" d="M276.26,451.08a6.567,6.567,0,0,0-.8.547A21.582,21.582,0,0,1,273.21,453a29.087,29.087,0,0,1-3.567,1.593c-1.384.517-2.933,1-4.569,1.476-3.284.941-6.254,1.808-8.394,2.46l-2.534.775a6.1,6.1,0,0,0-.916.326,4.883,4.883,0,0,0,.947-.2l2.564-.683c2.159-.615,5.141-1.414,8.425-2.361,1.636-.474,3.192-.972,4.581-1.507a26.284,26.284,0,0,0,3.573-1.667,18.355,18.355,0,0,0,2.214-1.476A4.572,4.572,0,0,0,276.26,451.08Z" transform="translate(-216.46 -333.089)" fill="#263238"/>
      <path id="Path_14829" data-name="Path 14829" d="M286.536,451.153a4.918,4.918,0,0,0-1.544-.412,6.383,6.383,0,0,0-3.831.467,4.532,4.532,0,0,0-1.642,1.408,7.846,7.846,0,0,0-.855,1.525,5.928,5.928,0,0,0-.5,1.519,12.346,12.346,0,0,0,.713-1.421A5.744,5.744,0,0,1,281.3,451.5a6.728,6.728,0,0,1,3.69-.529C285.933,451.067,286.53,451.2,286.536,451.153Z" transform="translate(-226.059 -332.917)" fill="#263238"/>
      <path id="Path_14830" data-name="Path 14830" d="M311.844,391.238a8.731,8.731,0,0,1,5.5,8.087c.043,11.752-23.744,24.7-23.744,24.7L261.94,403.051l-1.98-.8S302.688,386.2,311.844,391.238Z" transform="translate(-219.051 -309.671)" fill="#263238"/>
      <path id="Path_14831" data-name="Path 14831" d="M289.26,417.975a6.028,6.028,0,0,0,.824-.56c.517-.375,1.23-.935,2.165-1.636,1.814-1.4,4.3-3.382,6.931-5.664s4.987-4.415,6.648-6c.83-.787,1.494-1.433,1.943-1.888a6.05,6.05,0,0,0,.676-.732,4.919,4.919,0,0,0-.763.615l-1.98,1.839c-1.7,1.537-4.059,3.647-6.7,5.922s-5.092,4.3-6.863,5.725l-2.1,1.716A5.8,5.8,0,0,0,289.26,417.975Z" transform="translate(-230.333 -313.999)" fill="#455a64"/>
      <path id="Path_14832" data-name="Path 14832" d="M326.192,398.973a7.859,7.859,0,0,0-5.762,1.7c.055.086,1.23-.646,2.8-1.113S326.192,399.065,326.192,398.973Z" transform="translate(-242.334 -313.009)" fill="#455a64"/>
      <path id="Path_14833" data-name="Path 14833" d="M323.576,396a3.751,3.751,0,0,0-1.876,1.408,3.794,3.794,0,0,0-.99,2.134c.092.031.443-.953,1.23-1.931S323.625,396.068,323.576,396Z" transform="translate(-242.442 -311.881)" fill="#455a64"/>
      <path id="Path_14834" data-name="Path 14834" d="M346.053,456.46c0-.037-.375-.111-.812.246a2.927,2.927,0,0,0-.916,1.845,3.586,3.586,0,0,0,.289,2.029c.221.48.467.7.5.683s-.129-.3-.289-.769a4.126,4.126,0,0,1-.178-1.9,3.179,3.179,0,0,1,.744-1.71,2.353,2.353,0,0,1,.664-.424Z" transform="translate(-251.52 -335.148)" fill="#263238"/>
      <path id="Path_14835" data-name="Path 14835" d="M294.475,360.63,283.2,389.207,234.658,390l-.9-2.626,17.016-.615,8.173-25.355Z" transform="translate(-208.963 -298.263)" fill="#455a64"/>
      <path id="Path_14836" data-name="Path 14836" d="M295.069,380.6a2.153,2.153,0,0,1,2.331.246,1.888,1.888,0,0,1,.461,2.072,2.06,2.06,0,0,1-1.753,1.23,1.845,1.845,0,0,1-1.845-1.23,2.072,2.072,0,0,1,.818-2.318" transform="translate(-232.224 -305.863)" fill="#ebebeb"/>
      <path id="Path_14837" data-name="Path 14837" d="M275.966,427.122s-44.726-29.334-46.553-29.943-6.26-3.511-10.682-2.294-8.394,5.19-10.381,10.989c-1.132,3.315-1.667,8.966-1.919,13.2a19.593,19.593,0,0,0,4.581,13.972,12.57,12.57,0,0,0,5.578,3.96c.467.141.947.264,1.445.375a21.038,21.038,0,0,0,21.9-9.194l1.039-1.587s29.26,10.743,29.715,10.6Z" transform="translate(-198.423 -311.339)" fill="#263238"/>
      <path id="Path_14838" data-name="Path 14838" d="M229.56,420.272s.08.043.246.111l.732.289,2.835,1.088,10.534,3.973c4.477,1.673,9.839,3.653,15.854,5.842s12.681,4.588,19.8,7l.129.043.068-.117c1.113-2.134,2.294-4.391,3.493-6.672l1.777-3.407.068-.129-.123-.08-34.112-21.653-10.251-6.469-2.786-1.734-.726-.443-.252-.141a2.8,2.8,0,0,0,.234.166l.707.474,2.755,1.783,10.2,6.549L284.8,428.481l-.055-.209-1.783,3.4c-1.193,2.288-2.374,4.538-3.493,6.678l.2-.08c-7.115-2.4-13.788-4.791-19.808-6.961l-15.878-5.781L233.4,421.655l-2.853-1.039-.744-.264Z" transform="translate(-207.346 -312.563)" fill="#455a64"/>
    </g>
  </g>
</svg>
