<svg xmlns="http://www.w3.org/2000/svg" xmlns:xlink="http://www.w3.org/1999/xlink" width="550" height="310" viewBox="0 0 550 310">
  <defs>
    <radialGradient id="radial-gradient" cx="0.5" cy="0.5" r="1.176" gradientTransform="translate(0.167 0.109) scale(0.667 0.783)" gradientUnits="objectBoundingBox">
      <stop offset="0" stop-color="#fff"/>
      <stop offset="0.279" stop-color="#fff"/>
      <stop offset="0.437" stop-color="#fffcfd"/>
      <stop offset="0.612" stop-color="#f7edee"/>
      <stop offset="0.795" stop-color="#f2e4e4"/>
      <stop offset="0.982" stop-color="#f2d5d6"/>
      <stop offset="1" stop-color="#edcccd"/>
    </radialGradient>
  </defs>
  <g id="Group_9051" data-name="Group 9051" transform="translate(-1165 -139)">
    <g id="banner">
      <path id="multiply" d="M6,0H544a6,6,0,0,1,6,6V310H0V6A6,6,0,0,1,6,0Z" transform="translate(1165 139)" fill="url(#radial-gradient)"/>
      <g id="email-verified-illustration" transform="translate(1275.984 117.434)">
        <g id="freepik--background-complete--inject-138" transform="translate(51.794 78.568)">
          <path id="Path_16380" data-name="Path 16380" d="M393.518,138.985s-4.87-3.742-11.971,8.061a163.727,163.727,0,0,0-9.969,18.635s-1.827,2.445-3.466.672-3.708-6.718-6.765-6.08c-3.164.672-4.434,4.031-4.2,9.183s.322,16.378.322,17.4-.672,2.418-2.015,1.344-8.626-10.459-12.885-6.718-1.283,17.923-.981,19.481-.054,2.183-.806,2.512-2.909-3.07-5.1-5.663-5.186-5.22-7.463-2.855-3.7,12.764,5.025,30.391l4.575,7.913,9.176.141c19.663-.887,28.067-7.134,29.041-10.271s-2.774-4.487-6.106-5.152-7.342-.92-7.423-1.74.309-1.424,1.821-1.915,15.363-4.7,16.579-10.258-10.56-7.389-12.092-8.061-.625-1.921.249-2.4,10.8-5.844,15.4-8.122,6.953-5.025,6.006-8.115c-.907-2.983-6.221-2.418-8.585-2.989s-1.108-3.359-1.108-3.359A159.532,159.532,0,0,0,392.3,153.287c6.886-11.9,1.1-14.4,1.1-14.4" transform="translate(-182.851 -138.421)" fill="#d72027" opacity="0.5"/>
          <path id="Path_16381" data-name="Path 16381" d="M389.015,155s-.04.087-.128.255l-.417.739c-.369.672-.914,1.606-1.605,2.828-1.4,2.452-3.446,5.992-5.992,10.352-5.092,8.733-12.226,20.717-20.153,33.938S345.632,228.31,340.5,237l-6.046,10.312-1.653,2.795-.437.726c-.1.168-.155.242-.155.242s.04-.087.128-.255.235-.423.41-.739l1.612-2.828c1.4-2.452,3.446-5.992,5.992-10.352,5.092-8.733,12.226-20.717,20.153-33.938s15.088-25.2,20.22-33.891l6.046-10.3,1.653-2.8.437-.726A.774.774,0,0,1,389.015,155Z" transform="translate(-147.793 -143.863)" fill="#e0e0e0"/>
          <path id="Path_16382" data-name="Path 16382" d="M382.28,181.33a2.689,2.689,0,0,1,.188.631c.1.416.235,1.014.39,1.76.309,1.485.672,3.547,1.055,5.838s.672,4.293.934,5.851c.114.705.215,1.3.289,1.773a3.536,3.536,0,0,1,.087.672,2.853,2.853,0,0,1-.2-.631c-.1-.41-.235-1.014-.383-1.76-.3-1.485-.638-3.554-1.014-5.844s-.712-4.286-.967-5.844c-.121-.672-.222-1.29-.3-1.767a3.183,3.183,0,0,1-.084-.679Z" transform="translate(-164.228 -152.505)" fill="#e0e0e0"/>
          <path id="Path_16383" data-name="Path 16383" d="M387.88,204.272c0-.074,4.212-1.035,9.4-2.136s9.472-1.941,9.492-1.868-4.2,1.035-9.4,2.143S387.9,204.352,387.88,204.272Z" transform="translate(-166.066 -158.72)" fill="#e0e0e0"/>
          <path id="Path_16384" data-name="Path 16384" d="M368.41,235.63a2.844,2.844,0,0,1,.672,0l1.827.134c1.545.114,3.681.262,6.046.336s4.5.081,6.046.067h1.834a2.612,2.612,0,0,1,.672,0,2.922,2.922,0,0,1-.672.081c-.437,0-1.061.074-1.834.1-1.552.067-3.7.1-6.046,0s-4.508-.255-6.046-.416c-.773-.087-1.4-.161-1.827-.228a2.632,2.632,0,0,1-.672-.074Z" transform="translate(-159.675 -170.322)" fill="#e0e0e0"/>
          <path id="Path_16385" data-name="Path 16385" d="M358.38,214.23a2.392,2.392,0,0,1,.322.537c.208.41.47.907.779,1.5.672,1.276,1.518,3.05,2.472,5.018s1.8,3.749,2.4,5.052c.275.6.51,1.122.672,1.545a2.34,2.34,0,0,1,.222.584,2.4,2.4,0,0,1-.322-.537c-.208-.41-.47-.914-.779-1.5-.672-1.276-1.518-3.05-2.472-5.018s-1.8-3.755-2.4-5.052l-.672-1.545A2.89,2.89,0,0,1,358.38,214.23Z" transform="translate(-156.383 -163.304)" fill="#e0e0e0"/>
          <path id="Path_16386" data-name="Path 16386" d="M337.89,238a5.074,5.074,0,0,1,.4.672l1.01,1.928c.833,1.632,1.975,3.9,3.218,6.4s2.358,4.79,3.151,6.442l.92,1.968a3.675,3.675,0,0,1,.3.739,6.157,6.157,0,0,1-.4-.672l-1-1.928c-.84-1.632-1.982-3.9-3.224-6.4s-2.351-4.783-3.144-6.442l-.927-1.968a3.5,3.5,0,0,1-.3-.739Z" transform="translate(-149.646 -171.106)" fill="#e0e0e0"/>
          <path id="Path_16387" data-name="Path 16387" d="M351.16,264.3a4.617,4.617,0,0,1,.853,0l2.324.094c1.962.074,4.7.161,7.672.181s5.71-.034,7.672-.087l2.331-.06a5.293,5.293,0,0,1,.853,0,4.988,4.988,0,0,1-.853.1c-.544.047-1.344.1-2.324.148-1.962.1-4.7.188-7.678.168s-5.717-.141-7.678-.269c-.987-.06-1.78-.121-2.324-.175a4.5,4.5,0,0,1-.848-.1Z" transform="translate(-154.013 -179.732)" fill="#e0e0e0"/>
          <rect id="Rectangle_4184" data-name="Rectangle 4184" width="3.863" height="171.651" transform="translate(0.001 23.097) rotate(-0.286)" fill="#e0e0e0"/>
          <rect id="Rectangle_4185" data-name="Rectangle 4185" width="3.863" height="171.651" transform="translate(9.245 23.047) rotate(-0.286)" fill="#e0e0e0"/>
          <rect id="Rectangle_4186" data-name="Rectangle 4186" width="3.863" height="171.651" transform="translate(90.018 22.609) rotate(-0.286)" fill="#e0e0e0"/>
          <rect id="Rectangle_4187" data-name="Rectangle 4187" width="3.863" height="171.651" transform="translate(99.265 22.559) rotate(-0.286)" fill="#e0e0e0"/>
          <rect id="Rectangle_4188" data-name="Rectangle 4188" width="103.15" height="3.916" transform="translate(0 23.092) rotate(-0.286)" fill="#e0e0e0"/>
          <rect id="Rectangle_4189" data-name="Rectangle 4189" width="103.15" height="1.169" transform="translate(0.191 58.332) rotate(-0.286)" fill="#e0e0e0"/>
          <rect id="Rectangle_4190" data-name="Rectangle 4190" width="103.15" height="1.169" transform="translate(0.37 91.556) rotate(-0.286)" fill="#e0e0e0"/>
          <rect id="Rectangle_4191" data-name="Rectangle 4191" width="103.15" height="1.169" transform="translate(0.55 124.768) rotate(-0.286)" fill="#e0e0e0"/>
          <rect id="Rectangle_4192" data-name="Rectangle 4192" width="103.15" height="1.169" transform="translate(0.73 157.985) rotate(-0.286)" fill="#e0e0e0"/>
          <rect id="Rectangle_4193" data-name="Rectangle 4193" width="18.272" height="19.387" transform="translate(43.546 138.008) rotate(-0.573)" fill="#ebebeb"/>
          <rect id="Rectangle_4194" data-name="Rectangle 4194" width="18.272" height="19.387" transform="translate(60.669 138.274) rotate(-0.286)" fill="#f5f5f5"/>
          <path id="Path_16388" data-name="Path 16388" d="M120.821,352.073c12.139.121,24.318,0,36.457-.175a.141.141,0,1,0,0-.282c-12.139-.06-24.318-.034-36.457.215a.121.121,0,0,0,0,.242Z" transform="translate(-78.319 -208.389)" fill="#e0e0e0"/>
          <rect id="Rectangle_4195" data-name="Rectangle 4195" width="13.382" height="14.195" transform="translate(42.817 65.011) rotate(-0.573)" fill="#ebebeb"/>
          <rect id="Rectangle_4196" data-name="Rectangle 4196" width="13.382" height="14.195" transform="translate(56.133 64.878) rotate(-0.573)" fill="#f5f5f5"/>
          <path id="Path_16389" data-name="Path 16389" d="M120.231,241.381q13.341.107,26.7-.121a.148.148,0,0,0,0-.289c-8.888-.047-17.809,0-26.7.168a.121.121,0,0,0,0,.242Z" transform="translate(-78.125 -172.076)" fill="#e0e0e0"/>
          <rect id="Rectangle_4197" data-name="Rectangle 4197" width="24.318" height="11.568" transform="translate(34.551 79.074) rotate(-0.573)" fill="#ebebeb"/>
          <rect id="Rectangle_4198" data-name="Rectangle 4198" width="24.318" height="11.568" transform="translate(58.73 78.825) rotate(-0.573)" fill="#f5f5f5"/>
          <path id="Path_16390" data-name="Path 16390" d="M107.8,261.134c16.122.181,32.366,0,48.515-.235a.148.148,0,0,0,0-.289c-16.156-.081-32.366-.074-48.515.282a.121.121,0,0,0,0,.242Z" transform="translate(-74.032 -178.513)" fill="#e0e0e0"/>
          <rect id="Rectangle_4199" data-name="Rectangle 4199" width="6.106" height="23.814" transform="translate(34.423 34.4) rotate(-0.286)" fill="#ebebeb"/>
          <rect id="Rectangle_4200" data-name="Rectangle 4200" width="6.106" height="17.318" transform="translate(28.231 40.869) rotate(-0.286)" fill="#e0e0e0"/>
          <rect id="Rectangle_4201" data-name="Rectangle 4201" width="9.492" height="19.3" transform="translate(40.616 38.827) rotate(-0.286)" fill="#e0e0e0"/>
          <rect id="Rectangle_4202" data-name="Rectangle 4202" width="3.016" height="19.3" transform="translate(50.57 38.37) rotate(-0.573)" fill="#ebebeb"/>
          <rect id="Rectangle_4203" data-name="Rectangle 4203" width="3.016" height="14.839" transform="translate(52.998 43.22) rotate(-0.286)" fill="#e0e0e0"/>
          <rect id="Rectangle_4204" data-name="Rectangle 4204" width="6.106" height="22.33" transform="matrix(0.925, 0.379, -0.379, 0.925, 33.595, 101.793)" fill="#e0e0e0"/>
          <rect id="Rectangle_4205" data-name="Rectangle 4205" width="6.106" height="23.814" transform="translate(38.424 100.889) rotate(-0.286)" fill="#ebebeb"/>
          <rect id="Rectangle_4206" data-name="Rectangle 4206" width="9.492" height="19.3" transform="translate(47.671 105.307) rotate(-0.286)" fill="#e0e0e0"/>
          <rect id="Rectangle_4207" data-name="Rectangle 4207" width="2.076" height="26.448" transform="translate(45.57 98.17) rotate(-0.286)" fill="#ebebeb"/>
          <rect id="Rectangle_4208" data-name="Rectangle 4208" width="1.041" height="22.33" transform="translate(44.551 102.294) rotate(-0.286)" fill="#f5f5f5"/>
          <rect id="Rectangle_4209" data-name="Rectangle 4209" width="1.041" height="22.33" transform="translate(57.35 124.602) rotate(-90.286)" fill="#f5f5f5"/>
          <rect id="Rectangle_4210" data-name="Rectangle 4210" width="24.338" height="6.174" transform="translate(57.225 117.394) rotate(-0.286)" fill="#ebebeb"/>
          <rect id="Rectangle_4211" data-name="Rectangle 4211" width="19.549" height="6.174" transform="translate(58.129 110.735) rotate(-0.573)" fill="#e0e0e0"/>
        </g>
        <path id="Path_16393" data-name="Path 16393" d="M285.77,428.332c0,.12-58.207.222-129.991.222s-130.009-.1-130.009-.222,58.2-.222,130.009-.222S285.77,428.2,285.77,428.332Z" transform="translate(8.246 -154.985)" fill="#263238"/>
        <g id="freepik--Device--inject-138" transform="translate(107.987 78.567)">
          <rect id="Rectangle_4212" data-name="Rectangle 4212" width="110.292" height="194.558" rx="11.55" fill="#455a64"/>
          <path id="Path_16394" data-name="Path 16394" d="M251.017,412.03a4.85,4.85,0,1,1-4.837-5.2,5.032,5.032,0,0,1,4.837,5.2Z" transform="translate(-184.128 -226.52)" fill="#263238"/>
          <rect id="Rectangle_4214" data-name="Rectangle 4214" width="103.332" height="164.147" transform="translate(3.938 11.165)" fill="#263238"/>
          <g id="Group_9068" data-name="Group 9068" transform="translate(18.349 140.824)">
            <path id="Path_16395" data-name="Path 16395" d="M260.465,365.6l.437-.04a8.989,8.989,0,0,0,1.263-.168,8.481,8.481,0,0,0,1.948-.672,8.154,8.154,0,0,0,2.287-1.62,8.323,8.323,0,0,0,1.921-2.929,9.063,9.063,0,0,0,.544-4.111,8.424,8.424,0,0,0-6.127-7.376,9.5,9.5,0,0,0-1.4-.269c-.484,0-.967-.054-1.471-.047H203.116a8.571,8.571,0,0,0-4.071,1.061,8.384,8.384,0,0,0-4.239,6.832,8.948,8.948,0,0,0,.611,4.031,8.619,8.619,0,0,0,2.344,3.2,8.424,8.424,0,0,0,3.48,1.74,16.485,16.485,0,0,0,3.863.235h3.809l26.837.04,18.091.054,4.917.034h-4.917l-18.091.054-26.837.04H203.13a5.569,5.569,0,0,1-1-.06,9.8,9.8,0,0,1-.988-.175,8.733,8.733,0,0,1-3.621-1.807,8.981,8.981,0,0,1-2.445-3.325,9.29,9.29,0,0,1-.638-4.151,8.471,8.471,0,0,1,1.31-4.031,8.659,8.659,0,0,1,3.13-2.983,8.887,8.887,0,0,1,4.246-1.108h56.758c.5,0,1,0,1.5.047a10.074,10.074,0,0,1,1.438.289,8.639,8.639,0,0,1,6.247,7.692,9.2,9.2,0,0,1-.584,4.185,8.471,8.471,0,0,1-1.975,2.963,8.249,8.249,0,0,1-2.344,1.612,8.609,8.609,0,0,1-1.982.672,8.01,8.01,0,0,1-1.276.128A3.551,3.551,0,0,0,260.465,365.6Z" transform="translate(-194.411 -348.05)" fill="#fff"/>
            <path id="Path_16396" data-name="Path 16396" d="M226.027,359.25l-.417.524a1.632,1.632,0,0,0-1.176-.537,1.491,1.491,0,1,0,0,2.976,1.726,1.726,0,0,0,1.176-.5l.423.47a2.4,2.4,0,0,1-1.639.672,2.143,2.143,0,1,1,0-4.279,2.338,2.338,0,0,1,1.633.674Z" transform="translate(-203.51 -351.504)" fill="#fff"/>
            <path id="Path_16397" data-name="Path 16397" d="M232.809,360.746a2.244,2.244,0,1,1-2.244-2.136,2.163,2.163,0,0,1,2.244,2.136Zm-3.762,0a1.5,1.5,0,1,0,1.5-1.5,1.518,1.518,0,0,0-1.5,1.5Z" transform="translate(-205.542 -351.516)" fill="#fff"/>
            <path id="Path_16398" data-name="Path 16398" d="M239.149,362.872l-2.257-3.036v3.036h-.712V358.64h.672l2.271,3.043V358.64h.672v4.232Z" transform="translate(-208.121 -351.526)" fill="#fff"/>
            <path id="Path_16399" data-name="Path 16399" d="M244.019,359.278V360.5h1.921v.638h-1.921v1.733H243.3V358.64h2.848v.638Z" transform="translate(-210.458 -351.526)" fill="#fff"/>
            <path id="Path_16400" data-name="Path 16400" d="M248.48,362.872V358.64h.712v4.232Z" transform="translate(-212.158 -351.526)" fill="#fff"/>
            <path id="Path_16401" data-name="Path 16401" d="M253.081,361.556h-1.2v1.276H251.2V358.6h1.713c1.082,0,1.706.524,1.706,1.444a1.344,1.344,0,0,1-.873,1.344l.947,1.417h-.813Zm-.2-.631c.672,0,1.028-.282,1.028-.853s-.369-.826-1.028-.826h-1v1.679Z" transform="translate(-213.051 -351.513)" fill="#fff"/>
            <path id="Path_16402" data-name="Path 16402" d="M261.509,362.872v-3.164l-1.344,2.687h-.47l-1.344-2.687v3.164h-.672V358.64h.887l1.4,2.808,1.391-2.808h.846v4.232Z" transform="translate(-215.178 -351.526)" fill="#fff"/>
            <path id="Path_16403" data-name="Path 16403" d="M266.732,359.281v1.142H268.8v.672h-2.069v1.149h2.385v.638H266V358.65h3.023v.638Z" transform="translate(-217.909 -351.529)" fill="#fff"/>
            <path id="Path_16404" data-name="Path 16404" d="M273.68,358.64a2.116,2.116,0,0,1,0,4.232h-1.72V358.64Zm-1.021,3.6h1.035a1.418,1.418,0,0,0,1.451-1.471,1.444,1.444,0,0,0-1.478-1.485h-1.008Z" transform="translate(-219.865 -351.526)" fill="#fff"/>
          </g>
          <rect id="Rectangle_4213" data-name="Rectangle 4213" width="37.962" height="2.15" rx="1.075" transform="translate(36.996 5.602)" fill="#263238"/>
        </g>
        <g id="freepik--Envelope--inject-138" transform="translate(119.554 110.208)">
          <path id="Path_16405" data-name="Path 16405" d="M182.183,239.9l84.734-.645,2.361,60.815-87.738-.86Z" transform="translate(-181.538 -203.16)" fill="#d72027"/>
          <path id="Path_16406" data-name="Path 16406" d="M182.55,222.266l43.016-36.746,41.718,36.1" transform="translate(-181.905 -185.52)" fill="#d72027"/>
          <path id="Path_16407" data-name="Path 16407" d="M182.55,222.266l43.016-36.746,41.718,36.1" transform="translate(-181.906 -185.52)" opacity="0.3"/>
          <path id="Path_16408" data-name="Path 16408" d="M181.539,311.629c-.108-.1,6.675-7.92,15.151-17.466s15.425-17.191,15.533-17.083-6.675,7.92-15.151,17.466S181.647,311.736,181.539,311.629Z" transform="translate(-181.538 -215.572)" fill="#263238"/>
          <path id="Path_16409" data-name="Path 16409" d="M302.782,312.9c-.108.1-6.713-7.557-14.75-17.11s-14.47-17.379-14.362-17.466,6.713,7.557,14.75,17.11S302.89,312.8,302.782,312.9Z" transform="translate(-215.042 -215.98)" fill="#263238"/>
          <path id="Path_16410" data-name="Path 16410" d="M267.284,239.26l-42.552,35.886L182.55,239.9" transform="translate(-181.906 -203.161)" opacity="0.5"/>
          <path id="Path_16411" data-name="Path 16411" d="M189.187,231.519,189.06,205.5l74.216-1.921.808,28.47L227.1,262.964Z" transform="translate(-184.355 -191.449)" fill="#ebebeb"/>
          <g id="Group_9067" data-name="Group 9067" transform="translate(22.505 19.79)">
            <path id="Path_16412" data-name="Path 16412" d="M240.926,259.012a19.491,19.491,0,1,1,19.327-17.3h0a19.481,19.481,0,0,1-19.327,17.3Zm-.054-38.291a18.81,18.81,0,1,0,18.709,20.939h0a19.117,19.117,0,0,0-18.709-20.979Z" transform="translate(-221.394 -220.028)" fill="#d72027"/>
            <path id="Path_16413" data-name="Path 16413" d="M230.69,246.679l3.258-3.99,7.618,5.5L253.947,233.6l3.735,3.285-15.928,18.353Z" transform="translate(-224.445 -224.483)" fill="#d72027"/>
          </g>
        </g>
        <g id="freepik--Plant--inject-138" transform="translate(67.823 235.298)">
          <path id="Path_16414" data-name="Path 16414" d="M90.1,371.73a7.53,7.53,0,0,1,5.247,2.734,13.322,13.322,0,0,1,2.633,5.415c.981,3.8.322,8.256-.793,12.011-4.084-1.5-6.57-5.891-7.7-8.2-1.773-3.648-2.768-11.313.625-11.964" transform="translate(-83.555 -371.73)" fill="#d72027"/>
          <path id="Path_16415" data-name="Path 16415" d="M109.952,403.37a6.442,6.442,0,0,1-.249-6.462,8.552,8.552,0,0,1,5.186-4.091,3.614,3.614,0,0,1,3.023.168,2.747,2.747,0,0,1,1.041,2.593,5.575,5.575,0,0,1-1.2,2.64c-2.015,2.687-4.454,4.9-7.8,5.153" transform="translate(-90.479 -378.568)" fill="#d72027"/>
          <path id="Path_16416" data-name="Path 16416" d="M110.464,418.234a4.848,4.848,0,0,1-.181-.793c-.1-.558-.235-1.283-.4-2.156a22.841,22.841,0,0,1-.383-7.248,13.764,13.764,0,0,1,2.748-6.718,9.309,9.309,0,0,1,1.565-1.559,4.29,4.29,0,0,1,.49-.343,1,1,0,0,1,.181-.108,15.524,15.524,0,0,0-2.082,2.129,14.262,14.262,0,0,0-2.62,6.61,24.282,24.282,0,0,0,.3,7.174c.141.914.249,1.659.316,2.177a4.447,4.447,0,0,1,.066.835Z" transform="translate(-90.615 -380.783)" fill="#263238"/>
          <path id="Path_16417" data-name="Path 16417" d="M93.09,380.32a1.889,1.889,0,0,1,.161.309l.41.92c.356.793.86,1.955,1.464,3.392,1.209,2.875,2.821,6.872,4.508,11.326s3.117,8.525,4.111,11.487c.5,1.478.893,2.687,1.149,3.507.121.4.222.712.3.961a1.874,1.874,0,0,1,.087.343,2.062,2.062,0,0,1-.141-.322l-.343-.94c-.3-.86-.726-2.015-1.236-3.486-1.048-2.936-2.506-6.993-4.192-11.42s-3.265-8.458-4.427-11.353c-.571-1.417-1.035-2.586-1.344-3.426l-.363-.934a1.3,1.3,0,0,1-.141-.363Z" transform="translate(-85.273 -374.55)" fill="#263238"/>
          <path id="Path_16418" data-name="Path 16418" d="M96.472,411.379a15.061,15.061,0,0,0-11.615-7.39c-1.216-.094-2.687.094-3.218,1.176s.161,2.385.974,3.285a12.878,12.878,0,0,0,13.906,3.231" transform="translate(-81.453 -382.312)" fill="#d72027"/>
          <path id="Path_16419" data-name="Path 16419" d="M89.22,408.85a5.32,5.32,0,0,1,.759.04,6.206,6.206,0,0,1,.88.108c.343.067.739.107,1.162.228a12.607,12.607,0,0,1,1.344.4,13.489,13.489,0,0,1,1.532.6,15.451,15.451,0,0,1,5.885,4.622,15.943,15.943,0,0,1,.934,1.344q.367.611.672,1.256c.208.39.336.766.47,1.082a6.5,6.5,0,0,1,.3.846,3.464,3.464,0,0,1,.188.732c-.06,0-.343-1.028-1.135-2.566a12.644,12.644,0,0,0-.712-1.223,14.759,14.759,0,0,0-.94-1.344,16.954,16.954,0,0,0-2.627-2.613,17.848,17.848,0,0,0-3.157-1.935,14.185,14.185,0,0,0-1.5-.611,13.8,13.8,0,0,0-1.344-.423C90.295,408.984,89.213,408.95,89.22,408.85Z" transform="translate(-84.002 -383.913)" fill="#263238"/>
        </g>
      </g>
    </g>
  </g>
</svg>
