<svg xmlns="http://www.w3.org/2000/svg" width="60" height="60" viewBox="0 0 60 60">
  <path id="video-play-button" d="M-261.213,18412.445a29.958,29.958,0,0,1,30-30,29.958,29.958,0,0,1,30,30,29.948,29.948,0,0,1-30,30A29.948,29.948,0,0,1-261.213,18412.445Zm4.011,0a25.931,25.931,0,0,0,25.989,25.988,25.931,25.931,0,0,0,25.989-25.988,25.931,25.931,0,0,0-25.989-25.988A25.931,25.931,0,0,0-257.2,18412.445Zm17.783,14.795a4.36,4.36,0,0,1-2.2-4v-21.6a4.152,4.152,0,0,1,2.2-3.994,4.328,4.328,0,0,1,4.606.594l14.2,10.2a4.765,4.765,0,0,1,2.2,3.783,4.854,4.854,0,0,1-2.2,4l-14.2,10.2a3.936,3.936,0,0,1-2.806,1.205A5.913,5.913,0,0,1-239.419,18427.24Zm1.815-25.592v21.992a.691.691,0,0,1,.4-.2l14.2-10.2a1.058,1.058,0,0,0,.594-.793c0-.2-.2-.594-.4-.594l-14.2-10.2c-.4-.2-.4-.4-.595-.4Z" transform="translate(261.213 -18382.445)" fill="#c13117" opacity="0.85"/>
</svg>
