<svg xmlns="http://www.w3.org/2000/svg" width="39.999" height="36.998" viewBox="0 0 39.999 36.998">
  <path id="wallet-icon" d="M6697.008,7598.62v-27.179a4.092,4.092,0,0,1,0-.477,3.981,3.981,0,0,1,4-3.963h33.036v2.643h-33.036a1.327,1.327,0,0,0-1.332,1.084v.475a1.332,1.332,0,0,0,1.332,1.084h33.328v9.248H6737v13.214h-2.666v7.929A1.327,1.327,0,0,1,6733,7604H6702.47A5.441,5.441,0,0,1,6697.008,7598.62Zm2.666,0a2.8,2.8,0,0,0,2.838,2.734h29.156v-6.606h-9.332a6.607,6.607,0,1,1,0-13.214h9.332v-6.6h-30.662a4.187,4.187,0,0,1-1.332-.161Zm18.664-10.477a3.981,3.981,0,0,0,4,3.964h12v-7.93h-12A3.982,3.982,0,0,0,6718.338,7588.143Zm3.345,0a2,2,0,1,1,2,1.981A1.991,1.991,0,0,1,6721.684,7588.143Z" transform="translate(-6697.001 -7567)" fill="#d4d4d4"/>
</svg>
