<svg xmlns="http://www.w3.org/2000/svg" width="210.005" height="149.995" viewBox="0 0 210.005 149.995">
  <g id="warning-illustration" transform="translate(-64.717 -154.002)">
    <path id="Path_16354" data-name="Path 16354" d="M266.693,190.6c3.384-20.834-21.846-78.057-46.2-96.732C188.915,69.65,147.7,79.2,129.244,121.733c-17.152,39.494,1.755,80.01,36.08,93.631C195.874,227.5,263.658,215.884,266.693,190.6Z" transform="translate(-58.097 83.799)" fill="#e7effa" opacity="0.5"/>
    <path id="Path_16337" data-name="Path 16337" d="M76.756,216.2a.347.347,0,0,1-.347-.314l-1.79-21.527a.339.339,0,0,1,.306-.355.347.347,0,0,1,.371.314l1.79,21.527a.347.347,0,0,1-.314.371Z" transform="translate(0 -7.75)" fill="#d72027"/>
    <path id="Path_16338" data-name="Path 16338" d="M78.376,235.66a.347.347,0,0,1-.347-.314l-.54-6.515a.344.344,0,1,1,.685-.056l.54,6.515a.347.347,0,0,1-.314.371Z" transform="translate(-0.556 -14.426)" fill="#d72027"/>
    <path id="Path_16339" data-name="Path 16339" d="M259.79,282.575H92.858a8.585,8.585,0,0,1-8.384-7.724l-9.4-112.707a7.022,7.022,0,0,1,7.1-7.724h166.92a8.593,8.593,0,0,1,8.392,7.724l9.4,112.691a7.03,7.03,0,0,1-7.1,7.74Z" transform="translate(-0.081 -0.08)" fill="#fff"/>
    <path id="Path_16340" data-name="Path 16340" d="M259.713,282.816H92.782a8.883,8.883,0,0,1-8.707-8.014l-9.4-112.7A7.433,7.433,0,0,1,82.1,154h166.92a8.883,8.883,0,0,1,8.715,8.063l9.394,112.691a7.337,7.337,0,0,1-7.414,8.063ZM82.094,154.677a6.7,6.7,0,0,0-6.783,7.385l9.4,112.683a8.254,8.254,0,0,0,8.085,7.426H259.713a6.7,6.7,0,0,0,6.775-7.369l-9.4-112.7A8.245,8.245,0,0,0,249,154.677Z" transform="translate(-0.004)" fill="#d72027"/>
    <path id="Path_16341" data-name="Path 16341" d="M248.988,154.44H82.166a7.02,7.02,0,0,0-7.094,7.708h182.3a8.589,8.589,0,0,0-8.387-7.708Z" transform="translate(-0.081 -0.084)" fill="#d72027"/>
    <path id="Path_16342" data-name="Path 16342" d="M87.888,158.829a1.508,1.508,0,0,1-1.524,1.669,1.854,1.854,0,0,1-1.806-1.669,1.516,1.516,0,0,1,1.524-1.669A1.838,1.838,0,0,1,87.888,158.829Z" transform="translate(-1.924 -0.611)" fill="#fff"/>
    <path id="Path_16343" data-name="Path 16343" d="M96.3,158.829a1.508,1.508,0,0,1-1.524,1.669A1.854,1.854,0,0,1,93,158.829a1.516,1.516,0,0,1,1.524-1.669,1.838,1.838,0,0,1,1.776,1.669Z" transform="translate(-3.559 -0.611)" fill="#fff"/>
    <path id="Path_16344" data-name="Path 16344" d="M104.688,158.829a1.508,1.508,0,0,1-1.524,1.669,1.854,1.854,0,0,1-1.806-1.669,1.516,1.516,0,0,1,1.524-1.669,1.838,1.838,0,0,1,1.806,1.669Z" transform="translate(-5.179 -0.611)" fill="#fff"/>
    <path id="Path_16345" data-name="Path 16345" d="M249.186,273.223H108.846a6.823,6.823,0,0,1-6.668-6.136l-6.6-78.562a5.585,5.585,0,0,1,5.658-6.136H241.6a6.823,6.823,0,0,1,6.668,6.136l6.555,78.6a5.585,5.585,0,0,1-5.641,6.1Z" transform="translate(-4.056 -5.5)" fill="#f0f0f0"/>
    <path id="Path_16346" data-name="Path 16346" d="M220.808,198.328l-43.377,52.23a12.408,12.408,0,0,0,6.918,20.06l70.387,15.214a12.408,12.408,0,0,0,14.15-16.738L241.9,201.642a12.408,12.408,0,0,0-21.092-3.314Z" transform="translate(-18.892 -7.715)" fill="#263238" opacity="0.1"/>
    <path id="Path_16347" data-name="Path 16347" d="M108.416,207.261l-15.11,40.724a7.837,7.837,0,0,0,8.111,10.481l44.127-4.33a7.837,7.837,0,0,0,5.362-12.691L121.88,205.084a7.837,7.837,0,0,0-13.465,2.177Z" transform="translate(-3.529 -9.328)" fill="#263238" opacity="0.1"/>
    <path id="Path_16348" data-name="Path 16348" d="M240.182,181.739,199.627,240.6a13.045,13.045,0,0,0,9.03,20.334l74.547,9.925a13.045,13.045,0,0,0,13.416-18.713L262.628,183.34a13.045,13.045,0,0,0-22.446-1.6Z" transform="translate(-23.249 -4.277)" fill="#d72027"/>
    <path id="Path_16349" data-name="Path 16349" d="M211.853,257.031a8.24,8.24,0,0,1-6.3-4.572,7.256,7.256,0,0,1,.379-7.418l40.66-59.034a6.837,6.837,0,0,1,6.684-2.838,8.224,8.224,0,0,1,6.3,4.571l34.056,68.976a7.256,7.256,0,0,1-.379,7.418,6.829,6.829,0,0,1-6.684,2.846Z" transform="translate(-24.68 -5.635)" fill="#fff"/>
    <path id="Path_16350" data-name="Path 16350" d="M259.177,209.054l4.749.629a6.1,6.1,0,0,1,5.249,6.208l-.322,6.192a4.6,4.6,0,0,1-.073.669l-3.38,18.666a5.023,5.023,0,0,1-5.733,4.031h0a6.136,6.136,0,0,1-5.249-5.539l-1.363-19.286a4.649,4.649,0,0,1,0-.669l.314-6.2a5.007,5.007,0,0,1,5.8-4.7Zm-.379,41.571,1.29.169a5.466,5.466,0,0,1,4.7,5.555h0a4.491,4.491,0,0,1-5.2,4.233l-1.29-.177a5.458,5.458,0,0,1-4.7-5.547h0a4.483,4.483,0,0,1,5.2-4.233Z" transform="translate(-34.17 -10.654)" fill="#d72027"/>
    <path id="Path_16351" data-name="Path 16351" d="M128.763,192.851l-11.134,42.224a7.837,7.837,0,0,0,9.087,9.675l43.191-8.425a7.837,7.837,0,0,0,4.184-13.045l-32.025-33.823a7.845,7.845,0,0,0-13.3,3.394Z" transform="translate(-8.155 -6.391)" fill="#d72027"/>
    <path id="Path_16352" data-name="Path 16352" d="M127.476,242.1a4.781,4.781,0,0,1-4.37-1.467,4.684,4.684,0,0,1-1.209-4.418l11.159-42.337a4.031,4.031,0,0,1,3.161-2.943,4.789,4.789,0,0,1,4.37,1.475l32.138,33.863a4.692,4.692,0,0,1,1.217,4.418,4.031,4.031,0,0,1-3.161,2.935Z" transform="translate(-8.998 -7.141)" fill="#fff"/>
    <path id="Path_16353" data-name="Path 16353" d="M141.693,206.789l2.749-.54a3.644,3.644,0,0,1,4.1,2.636l.984,3.685a3.738,3.738,0,0,1,.089.411l1.75,11.6a3.007,3.007,0,0,1-2.419,3.475h0a3.628,3.628,0,0,1-3.967-2.241l-4.467-11.03a3.223,3.223,0,0,1-.137-.4l-1.016-3.693a3.032,3.032,0,0,1,2.338-3.91Zm7.78,24.414.75-.145a3.225,3.225,0,0,1,3.669,2.354h0a2.709,2.709,0,0,1-2.064,3.467l-.75.145a3.225,3.225,0,0,1-3.668-2.346h0a2.717,2.717,0,0,1,2.064-3.475Z" transform="translate(-12.367 -10.113)" fill="#d72027"/>
  </g>
</svg>
