<svg xmlns="http://www.w3.org/2000/svg" width="22" height="15" viewBox="0 0 22 15">
  <path id="youtube-icon" d="M11.368,17.025l5.724-3.207L11.368,10.61ZM24.111,8.656a11.471,11.471,0,0,1,.31,2.027q.1,1.28.1,2.23l.052.9a20.8,20.8,0,0,1-.465,5.161A2.533,2.533,0,0,1,22.2,20.83a16.967,16.967,0,0,1-2.914.3q-2.14.1-3.946.1l-1.758.05a46.933,46.933,0,0,1-8.612-.451,2.533,2.533,0,0,1-1.908-1.854,11.471,11.471,0,0,1-.31-2.027q-.1-1.28-.1-2.23l-.051-.9a20.8,20.8,0,0,1,.465-5.161A2.533,2.533,0,0,1,4.973,6.8a16.968,16.968,0,0,1,2.914-.3q2.14-.1,3.941-.1l1.758-.05a46.932,46.932,0,0,1,8.612.451,2.533,2.533,0,0,1,1.908,1.851Z" transform="translate(-2.588 -6.318)" fill="#4990e1"/>
</svg>
