<svg xmlns="http://www.w3.org/2000/svg" width="20" height="12" viewBox="0 0 20 12">
  <path id="activate-icon" d="M934.87,458h-8a6,6,0,0,0,0,12h8a6,6,0,0,0,0-12Zm-8,10.333A4.333,4.333,0,1,1,931.2,464,4.333,4.333,0,0,1,926.87,468.333Zm11.4-5.9-3.583,3.821-.028.029a.44.44,0,0,1-.621-.029l-1.5-1.6a.514.514,0,0,1,0-.693l.014-.013a.449.449,0,0,1,.635.013l1.175,1.254,3.258-3.476.027-.027a.441.441,0,0,1,.622.027v0A.513.513,0,0,1,938.266,462.436Z" transform="translate(-920.87 -458)" fill="#8F151A"/>
</svg>
