<svg xmlns="http://www.w3.org/2000/svg" width="152" height="150" viewBox="0 0 152 150">
  <g id="Advertisment-Browser-Online-Megaphone-Commerce" transform="translate(-2 -2)">
    <path id="Path_12859" data-name="Path 12859" d="M22.278,136.123v-7.592H70.439V123.47H9.6A2.533,2.533,0,0,1,7.07,120.94V27.306h116.6V70.327h5.07V39.959h10.139V65.266h5.07V24.776a7.6,7.6,0,0,0-7.6-7.592h-7.6V9.592A7.6,7.6,0,0,0,121.134,2H9.6A7.6,7.6,0,0,0,2,9.592V120.94a7.6,7.6,0,0,0,7.6,7.592h7.6v7.592a7.6,7.6,0,0,0,7.6,7.592H88.182v-5.061H24.813A2.533,2.533,0,0,1,22.278,136.123ZM136.343,22.245a2.533,2.533,0,0,1,2.535,2.531V34.9H128.739V22.245ZM9.6,7.061h111.53a2.533,2.533,0,0,1,2.535,2.531V22.245H7.07V9.592A2.533,2.533,0,0,1,9.6,7.061Z" transform="translate(0)" fill="#aaa"/>
    <path id="Path_12860" data-name="Path 12860" d="M66.766,61.152a2.538,2.538,0,0,1-2.538,2.538H49v5.076H64.228a7.614,7.614,0,0,0,7.614-7.614V51H66.766Z" transform="translate(72.105 74.949)" fill="#aaa"/>
    <path id="Path_12861" data-name="Path 12861" d="M8,6h5.076v5.076H8Z" transform="translate(9.228 6.152)" fill="#aaa"/>
    <path id="Path_12862" data-name="Path 12862" d="M12,6h5.076v5.076H12Z" transform="translate(15.349 6.152)" fill="#aaa"/>
    <path id="Path_12863" data-name="Path 12863" d="M16,6h5.076v5.076H16Z" transform="translate(21.488 6.152)" fill="#aaa"/>
    <path id="Path_12864" data-name="Path 12864" d="M40.994,46.456a2.538,2.538,0,0,0,2.538-2.538V18.538A2.538,2.538,0,0,0,40.994,16H10.538A2.538,2.538,0,0,0,8,18.538v25.38a2.538,2.538,0,0,0,2.538,2.538ZM13.076,21.076h25.38v20.3H13.076Z" transform="translate(9.228 21.41)" fill="#aaa"/>
    <path id="Path_12865" data-name="Path 12865" d="M26,16h5.076v5.076H26Z" transform="translate(36.837 21.431)" fill="#aaa"/>
    <path id="Path_12866" data-name="Path 12866" d="M30,16h5.076v5.076H30Z" transform="translate(42.977 21.431)" fill="#aaa"/>
    <path id="Path_12867" data-name="Path 12867" d="M34,16H54.3v5.076H34Z" transform="translate(49.105 21.431)" fill="#aaa"/>
    <path id="Path_12868" data-name="Path 12868" d="M26,20H66.608v5.076H26Z" transform="translate(36.813 27.554)" fill="#aaa"/>
    <path id="Path_12869" data-name="Path 12869" d="M26,24H66.608v5.076H26Z" transform="translate(36.813 33.677)" fill="#aaa"/>
    <path id="Path_12870" data-name="Path 12870" d="M26,28H66.608v5.076H26Z" transform="translate(36.813 39.801)" fill="#aaa"/>
    <path id="Path_12871" data-name="Path 12871" d="M8,32H53.684v5.076H8Z" transform="translate(9.228 45.924)" fill="#aaa"/>
    <path id="Path_12872" data-name="Path 12872" d="M8,36H53.684v5.076H8Z" transform="translate(9.228 52.047)" fill="#aaa"/>
    <path id="Path_12873" data-name="Path 12873" d="M8,40H53.684v5.076H8Z" transform="translate(9.228 58.17)" fill="#aaa"/>
    <path id="Path_12874" data-name="Path 12874" d="M8,44H53.684v5.076H8Z" transform="translate(9.228 64.293)" fill="#aaa"/>
    <path id="Path_12875" data-name="Path 12875" d="M65.132,81.216l19.2-2.766A7.6,7.6,0,0,0,96.4,69.381l-6.345-10.99a7.618,7.618,0,0,0-7.614-13.2L76.1,34.2a7.614,7.614,0,0,0-13.885,5.924l-15.7,19.949-12.766,7.36a7.627,7.627,0,0,0-2.792,10.406l5.076,8.792a7.614,7.614,0,0,0,10.406,2.792l8.883,15.385A7.614,7.614,0,0,0,65.726,107.6l4.4-2.538A7.614,7.614,0,0,0,72.914,94.66ZM88.444,50.532A2.538,2.538,0,0,1,87.518,54L84.98,49.6a2.538,2.538,0,0,1,3.464.929Zm-20.213-14.7a2.538,2.538,0,0,1,3.467.926L92,71.924a2.538,2.538,0,1,1-4.393,2.538l-20.3-35.169a2.538,2.538,0,0,1,.926-3.464Zm-3.449,9.248L81.338,73.757,59.691,76.874l-8.434-14.6ZM47.27,65.513l7.614,13.2-4.4,2.538-7.614-13.2Zm-6.853,18.6-5.076-8.792a2.538,2.538,0,0,1,.929-3.467l2.2-1.269,7.614,13.2-2.2,1.269a2.538,2.538,0,0,1-3.454-.939ZM67.574,100.68l-4.4,2.538a2.538,2.538,0,0,1-3.467-.929L50.828,86.9,59.2,82.082l.508-.074L68.5,97.223a2.538,2.538,0,0,1-.919,3.457Z" transform="translate(42.788 43.375)" fill="#8f151a"/>
    <path id="Path_12876" data-name="Path 12876" d="M0,0H10.152V5.076H0Z" transform="matrix(0.866, -0.5, 0.5, 0.866, 138.753, 86.815)" fill="#8f151a"/>
    <path id="Path_12877" data-name="Path 12877" d="M0,0H10.769V5.076H0Z" transform="translate(130.328 80.866) rotate(-74.991)" fill="#8f151a"/>
    <path id="Path_12878" data-name="Path 12878" d="M0,0H5.076V10.769H0Z" transform="translate(142.283 101.491) rotate(-74.991)" fill="#8f151a"/>
  </g>
</svg>
