<svg xmlns="http://www.w3.org/2000/svg" width="25.001" height="22.002" viewBox="0 0 25.001 22.002">
  <path id="alert-icon" d="M9873.355,22297h-21.712a1.658,1.658,0,0,1-1.422-.818,1.623,1.623,0,0,1,0-1.639l10.862-18.73a1.64,1.64,0,0,1,2.266-.576,1.672,1.672,0,0,1,.571.576l10.833,18.686a1.626,1.626,0,0,1,.039,1.656,1.647,1.647,0,0,1-1.433.846Zm-21.46-1.785h21.2l-10.593-18.283Zm10.682-2.205a1,1,0,0,1-.956-.975v-.525a.985.985,0,0,1,1.018-.975.99.99,0,0,1,.957.969v.531a.99.99,0,0,1-.308.7.964.964,0,0,1-.677.275Zm-.021-3.141a1,1,0,0,1-.935-.945v-5.98a1.017,1.017,0,0,1,.308-.705,1.038,1.038,0,0,1,.71-.27.989.989,0,0,1,.957.969v5.977a1,1,0,0,1-.99.955Z" transform="translate(-9850 -22275)" fill="#ffa117"/>
</svg>
