<svg xmlns="http://www.w3.org/2000/svg" width="17" height="20" viewBox="0 0 17 20">
  <path id="approve-registration-request-icon" d="M4379.859,17843.914v-7.367h1.805v7.367Zm0-8.512v-.879h.008l0-10.227a.382.382,0,0,1,.385-.383h16.222a.425.425,0,0,1,.125.02.383.383,0,0,1,.244.488l-1.618,5.734a.386.386,0,0,0,0,.246l1.618,4.52a.393.393,0,0,1,.016.1.383.383,0,0,1-.358.383Zm3.693-5.705a.488.488,0,0,0,0,.689l2.727,2.7a.284.284,0,0,0,.16.061.225.225,0,0,0,.149-.057l5.472-5.424a.235.235,0,0,0,0-.326l-1.138-1.125a.228.228,0,0,0-.156-.064.225.225,0,0,0-.156.064l-3.987,3.951a.265.265,0,0,1-.369,0l0,0-1.4-1.387a.27.27,0,0,0-.373,0h0Z" transform="translate(-4379.855 -17823.914)" fill="#25aa00"/>
</svg>
