<svg xmlns="http://www.w3.org/2000/svg" width="18" height="20" viewBox="0 0 18 20">
  <path id="attachment-icon" d="M1.387,12.327l1.476-1.479L9.508,4.191a3.135,3.135,0,0,1,4.43,4.436L7.293,15.285a.7.7,0,0,1-.985-.986l6.646-6.656a1.742,1.742,0,0,0-2.461-2.465L3.847,11.834,2.37,13.313A3.136,3.136,0,1,0,6.8,17.753l1.23-1.233,6.891-6.9.493-.489a4.529,4.529,0,0,0-6.4-6.41L1.633,10.108a.7.7,0,0,1-.984-.986l7.383-7.4A5.924,5.924,0,0,1,16.4,10.112L9.016,17.5,7.784,18.735a4.528,4.528,0,0,1-6.4-6.408Zm0,0" transform="translate(-0.125 0.001)" fill="#8F151A"/>
</svg>
