<svg xmlns="http://www.w3.org/2000/svg" width="16" height="16" viewBox="0 0 16 16">
  <path id="cardiac-arrest-icon" d="M12.6,11.312,8.024,16,3.43,11.312A13.157,13.157,0,0,1,.8,7.7,8.856,8.856,0,0,1,.024,4,3.854,3.854,0,0,1,1.2,1.172,3.854,3.854,0,0,1,4.024,0,3.974,3.974,0,0,1,7.305,1.719L8.024,6l-2,1,2,6V7.5l2-1L8.618,1.922A3.947,3.947,0,0,1,12.024,0a3.854,3.854,0,0,1,2.828,1.172A3.854,3.854,0,0,1,16.024,4a8.863,8.863,0,0,1-.774,3.7A13,13,0,0,1,12.6,11.312Z" transform="translate(-0.024 0)" fill="gray"/>
</svg>
