<svg xmlns="http://www.w3.org/2000/svg" width="40" height="38" viewBox="0 0 40 38">
  <path id="certificates-icon" d="M34.038,32.5a7.878,7.878,0,0,1-4.436,0L25.026,38,23.9,33.544l2.424-2.926a7.817,7.817,0,0,1-2.512-5.791,7.9,7.9,0,0,1,8-7.793,8.03,8.03,0,0,1,5.86,2.479,7.792,7.792,0,0,1-.363,11.105l2.426,2.926L38.615,38Zm-7.524-7.668a5.353,5.353,0,0,0,5.313,5.4H31.9a5.321,5.321,0,1,0,.073-10.641h-.083A5.349,5.349,0,0,0,26.514,24.827ZM2.5,32.8A2.486,2.486,0,0,1,0,30.335V2.469A2.485,2.485,0,0,1,2.5,0h35A2.483,2.483,0,0,1,40,2.469V18.439a10.4,10.4,0,0,0-2.5-2.232V2.469H2.5V30.335H23.011l.115.194L21.964,31.94l-.715.863Zm3.75-6.672V24.154h12.5v1.978Zm0-13.39V10.766H20v1.977Zm0-4.938V5.826H27.5V7.8Z" fill="#d4d4d4"/>
</svg>
