<svg xmlns="http://www.w3.org/2000/svg" width="125" height="148" viewBox="0 0 125 148">
  <g id="Group_786" data-name="Group 786" transform="translate(-122.531 -44.941)" opacity="0.5">
    <path id="Path_1" data-name="Path 1" d="M199.559,254.815h0a3.787,3.787,0,0,0,3.787-3.787v-75.5h-7.574v75.5A3.787,3.787,0,0,0,199.559,254.815Z" transform="translate(-34.749 -61.874)" fill="#4b5355"/>
    <path id="Path_2" data-name="Path 2" d="M203.346,175.524h-7.574v75.5a3.787,3.787,0,0,0,3.787,3.787V195.137a2.413,2.413,0,0,1,2.414-2.414h1.373Z" transform="translate(-34.749 -61.874)" fill="#ababab"/>
    <path id="Path_3" data-name="Path 3" d="M145.172,79.325h0a22.641,22.641,0,0,0-22.641,22.641v22.685a5.1,5.1,0,0,0,5.1,5.1h72.133V79.325Z" transform="translate(0 -16.36)" fill="#c9c9c9"/>
    <path id="Path_4" data-name="Path 4" d="M122.531,134.769v16.262a5.1,5.1,0,0,0,5.1,5.1h72.133V134.769Z" transform="translate(0 -42.644)" fill="#ababab"/>
    <path id="Rectangle_2" data-name="Rectangle 2" d="M22.641,0h0A22.641,22.641,0,0,1,45.282,22.641V50.428a0,0,0,0,1,0,0H0a0,0,0,0,1,0,0V22.641A22.641,22.641,0,0,1,22.641,0Z" transform="translate(177.334 62.965)" fill="#ececec"/>
    <path id="Path_5" data-name="Path 5" d="M233.3,132.9V105.116a19.171,19.171,0,0,1,38.341,0V132.9Z" transform="translate(-52.5 -19.51)" fill="#4b5355"/>
    <path id="Path_6" data-name="Path 6" d="M245.576,167.732H122.725a5.113,5.113,0,0,0,5.013,4.085H245.576a2.042,2.042,0,1,0,0-4.085Z" transform="translate(-0.092 -58.308)" fill="#c9c9c9"/>
    <g id="Group_1" data-name="Group 1" transform="translate(203.148 113.516)">
      <rect id="Rectangle_3" data-name="Rectangle 3" width="18.462" height="4.764" rx="2.382" transform="translate(0 0)" fill="#4b5355"/>
      <path id="Path_7" data-name="Path 7" d="M278.266,175.524h0a2.382,2.382,0,0,0-2.382,2.382h0a2.382,2.382,0,0,0,2.382,2.382h0a2.382,2.382,0,0,0,2.382-2.382h0A2.382,2.382,0,0,0,278.266,175.524Z" transform="translate(-275.884 -175.524)" fill="#ababab"/>
    </g>
    <path id="Path_8" data-name="Path 8" d="M199.022,91.862h-2.31V46.1a1.156,1.156,0,0,1,1.155-1.155h0a1.155,1.155,0,0,1,1.155,1.155Z" transform="translate(-35.199)" fill="#4b5355"/>
    <path id="Path_9" data-name="Path 9" d="M194.128,124.385a5.276,5.276,0,1,0,5.276,5.276A5.276,5.276,0,0,0,194.128,124.385Z" transform="translate(-31.463 -37.721)" fill="#ececec"/>
    <path id="Path_10" data-name="Path 10" d="M195.841,127.987a3.388,3.388,0,1,0,3.388,3.388A3.388,3.388,0,0,0,195.841,127.987Z" transform="translate(-33.175 -39.433)" fill="#4b5355"/>
    <path id="Path_11" data-name="Path 11" d="M188.421,48.951,180.512,53a2.25,2.25,0,0,0,0,4.007l7.85,4Z" transform="translate(-26.926 -1.908)" fill="#c9c9c9"/>
  </g>
</svg>
