<svg xmlns="http://www.w3.org/2000/svg" xmlns:xlink="http://www.w3.org/1999/xlink" width="35" height="40" viewBox="0 0 35 40">
  <defs>
    <linearGradient id="linear-gradient" x1="0.5" x2="0.5" y2="1" gradientUnits="objectBoundingBox">
      <stop offset="0" stop-color="#d9952e"/>
      <stop offset="1" stop-color="#efc154"/>
    </linearGradient>
  </defs>
  <path id="cvp-icon" d="M-9513,21949.828v-1.172h-2.333v1.172a1.17,1.17,0,0,1-1.167,1.172,1.17,1.17,0,0,1-1.167-1.172v-1.172H-9520v1.172a1.17,1.17,0,0,1-1.167,1.172,1.169,1.169,0,0,1-1.166-1.172v-1.172h-1.167a3.513,3.513,0,0,1-3.5-3.516v-12.9c.4.008.784.012,1.156.012a34.025,34.025,0,0,0,9.627-1.207,32.775,32.775,0,0,1,10.217-1.127v15.225a3.513,3.513,0,0,1-3.5,3.516h-1.167v1.172a1.169,1.169,0,0,1-1.166,1.172A1.17,1.17,0,0,1-9513,21949.828Zm-4.46-14.729c-.817,1.205-2.54,3.9-2.54,5.354a3.513,3.513,0,0,0,3.5,3.516,3.513,3.513,0,0,0,3.5-3.516c0-1.457-1.726-4.152-2.54-5.354a1.157,1.157,0,0,0-.959-.506A1.161,1.161,0,0,0-9517.463,21935.1Zm-18.873,14.729v-36.484h-3.5a1.17,1.17,0,0,1-1.167-1.172,1.17,1.17,0,0,1,1.167-1.172h21a1.169,1.169,0,0,1,1.166,1.172,1.171,1.171,0,0,0,1.167,1.172,1.171,1.171,0,0,0,1.167-1.172,1.169,1.169,0,0,1,1.166-1.172h4.667a1.17,1.17,0,0,1,1.167,1.172,1.17,1.17,0,0,1-1.167,1.172h-3.7a3.525,3.525,0,0,1-2.133,2.143v2.9a3.522,3.522,0,0,1,2.333,3.314v1.172h3.5a3.513,3.513,0,0,1,3.5,3.516v1.184a35.1,35.1,0,0,0-10.783,1.2,32.773,32.773,0,0,1-10.217,1.125v-3.5a3.513,3.513,0,0,1,3.5-3.516h3.5v-1.172a3.521,3.521,0,0,1,2.333-3.314v-2.9a3.527,3.527,0,0,1-2.134-2.143H-9534v36.484a1.17,1.17,0,0,1-1.167,1.172A1.169,1.169,0,0,1-9536.336,21949.828Zm18.666-28.125v1.172h2.334v-1.172a1.171,1.171,0,0,0-1.167-1.172A1.171,1.171,0,0,0-9517.67,21921.7Zm0,18.752a8.771,8.771,0,0,1,1.167-2.518,8.792,8.792,0,0,1,1.167,2.516,1.171,1.171,0,0,1-1.167,1.172A1.171,1.171,0,0,1-9517.67,21940.455Z" transform="translate(9541.003 -21911)" fill="url(#linear-gradient)"/>
</svg>
