<svg xmlns="http://www.w3.org/2000/svg" width="16" height="20.002" viewBox="0 0 16 20.002">
  <path id="delete-icon" d="M4422.4,17833.639a1.853,1.853,0,0,1-1.844-1.785l-.51-10.822a.2.2,0,0,1,.192-.207H4433.9a.194.194,0,0,1,.192.207l-.505,10.822a1.859,1.859,0,0,1-1.844,1.785Zm7.134-11.252v8.129a.616.616,0,1,0,1.231,0v-8.129a.616.616,0,1,0-1.231,0Zm-3.079,0v8.129a.615.615,0,1,0,1.23,0v-8.129a.615.615,0,1,0-1.23,0Zm-3.075,0v8.129a.615.615,0,1,0,1.23,0v-8.129a.615.615,0,1,0-1.23,0Zm-3.692-2.811a.621.621,0,0,1-.618-.627v-1.248a1.551,1.551,0,0,1,1.54-1.562h3.383v-.627a1.864,1.864,0,0,1,1.849-1.875h2.461a1.86,1.86,0,0,1,1.844,1.875v.627h3.383a1.551,1.551,0,0,1,1.54,1.563v1.248a.617.617,0,0,1-.613.627Zm5.536-4.064v.627h3.692v-.627a.616.616,0,0,0-.613-.621h-2.461A.619.619,0,0,0,4425.223,17815.512Z" transform="translate(-4419.069 -17813.637)" fill="#727373"/>
</svg>
