<svg xmlns="http://www.w3.org/2000/svg" width="22.999" height="29" viewBox="0 0 22.999 29">
  <path id="delete-iconN" d="M443.487,486.638a2.679,2.679,0,0,1-2.651-2.59l-.764-16.441h-.484a.9.9,0,0,1-.885-.906h0v-3.171a2.243,2.243,0,0,1,2.212-2.265h4.864v-.906a2.689,2.689,0,0,1,2.654-2.719h3.538a2.689,2.689,0,0,1,2.654,2.719v.906h4.866a2.24,2.24,0,0,1,2.212,2.266V466.7a.9.9,0,0,1-.885.906h-.483l-.764,16.441a2.679,2.679,0,0,1-2.651,2.59Zm-.883-2.675a.893.893,0,0,0,.883.87h13.432a.893.893,0,0,0,.883-.87l.761-16.355h-16.72Zm-2.13-20.432V465.8h19.458v-2.265a.448.448,0,0,0-.442-.452H440.915a.448.448,0,0,0-.442.449Zm7.076-3.171v.906h5.306v-.906a.9.9,0,0,0-.885-.906h-3.538a.9.9,0,0,0-.883.9Zm6.192,21.749V470.328a.885.885,0,1,1,1.769,0v11.781a.885.885,0,1,1-1.769,0Zm-4.423,0V470.328a.885.885,0,1,1,1.769,0v11.781a.885.885,0,1,1-1.769,0Zm-4.423,0V470.328a.885.885,0,1,1,1.769,0v11.781a.885.885,0,1,1-1.769,0Z" transform="translate(-438.703 -457.641)" fill="gray"/>
</svg>
