<svg xmlns="http://www.w3.org/2000/svg" width="25.001" height="25.001" viewBox="0 0 25.001 25.001">
  <path id="discussions-icon" d="M13.49,20.3H7.4a2.331,2.331,0,0,1-2.3-2.346V7.551A2.33,2.33,0,0,1,7.4,5.205H22.7A2.328,2.328,0,0,1,25,7.551V17.958A2.327,2.327,0,0,1,22.7,20.3h-1.53V25ZM7.142,18.215h6.92l5.069,3.106V18.215h3.827V7.292H7.142ZM0,12.751V2.344A2.325,2.325,0,0,1,2.3,0H17.6a2.328,2.328,0,0,1,2.286,2.088H4.847A2.836,2.836,0,0,0,2.042,4.949V15.081A2.333,2.333,0,0,1,0,12.751Z" fill="#666"/>
</svg>
