<svg id="discussion-illustration" xmlns="http://www.w3.org/2000/svg" width="118.958" height="118.959" viewBox="0 0 118.958 118.959">
  <path id="bg" d="M99.268,21.663c0,22.014,11.315,37.132,11.315,47.74s-6.051,32.886-54.471,32.886S.583,72.318.583,60.65c0-54.637,98.685-77.975,98.685-38.987Z" transform="translate(3.417 6.711)" fill="#d4d4d4" opacity="0.6"/>
  <path id="Path_12850" data-name="Path 12850" d="M35.74,49.566H35.6a3.731,3.731,0,0,1-2.835-1.487l-6.32-8.426H14.674A8.684,8.684,0,0,1,6,30.979V8.674A8.684,8.684,0,0,1,14.674,0H56.805a8.684,8.684,0,0,1,8.674,8.674v22.3a8.684,8.684,0,0,1-8.674,8.674H46.1L38.535,48.3a3.707,3.707,0,0,1-2.8,1.269ZM14.674,7.435a1.24,1.24,0,0,0-1.239,1.239v22.3a1.24,1.24,0,0,0,1.239,1.239H28.3a3.718,3.718,0,0,1,2.974,1.487l4.684,6.245,5.656-6.458a3.7,3.7,0,0,1,2.8-1.274H56.805a1.24,1.24,0,0,0,1.239-1.239V8.674a1.24,1.24,0,0,0-1.239-1.239Z" transform="translate(23.74)" fill="#be1f24"/>
  <path id="Path_12851" data-name="Path 12851" d="M26.093,50.566h-.144a3.72,3.72,0,0,1-2.835-1.492L19.2,43.82a3.719,3.719,0,1,1,5.963-4.446l1.165,1.566,5.646-6.449a3.7,3.7,0,0,1,2.8-1.274h2.478a1.253,1.253,0,0,0,1.239-1.239V9.674a1.253,1.253,0,0,0-1.239-1.239H29.81A3.717,3.717,0,1,1,29.81,1h7.435a8.684,8.684,0,0,1,8.674,8.674v22.3a8.684,8.684,0,0,1-8.674,8.674h-.793L28.888,49.3A3.707,3.707,0,0,1,26.093,50.566Z" transform="translate(73.039 3.956)" fill="#bfbfbf"/>
  <path id="Path_12852" data-name="Path 12852" d="M19.826,50.566a3.707,3.707,0,0,1-2.8-1.269L9.467,40.653H8.674A8.684,8.684,0,0,1,0,31.979V9.674A8.684,8.684,0,0,1,8.674,1h7.435a3.717,3.717,0,1,1,0,7.435H8.674A1.253,1.253,0,0,0,7.435,9.674v22.3a1.253,1.253,0,0,0,1.239,1.239h2.478a3.707,3.707,0,0,1,2.8,1.269l5.646,6.449,1.165-1.566a3.719,3.719,0,1,1,5.963,4.446l-3.916,5.254a3.71,3.71,0,0,1-2.835,1.5h-.144Z" transform="translate(0 3.956)" fill="#bfbfbf"/>
  <path id="Path_12853" data-name="Path 12853" d="M27.913,32.826a9.913,9.913,0,1,1,9.913-9.913A9.923,9.923,0,0,1,27.913,32.826Zm0-12.392a2.478,2.478,0,1,0,2.478,2.478A2.479,2.479,0,0,0,27.913,20.435Z" transform="translate(71.219 51.436)" fill="#bfbfbf"/>
  <path id="Path_12854" data-name="Path 12854" d="M44.022,37.826A3.719,3.719,0,0,1,40.3,34.109V31.631a6.2,6.2,0,0,0-6.2-6.2H21.717a3.717,3.717,0,0,1,0-7.435H34.109A13.642,13.642,0,0,1,47.74,31.631v2.478A3.719,3.719,0,0,1,44.022,37.826Z" transform="translate(71.219 71.219)" fill="#bfbfbf"/>
  <path id="Path_12855" data-name="Path 12855" d="M11.913,32.826a9.913,9.913,0,1,1,9.913-9.913A9.923,9.923,0,0,1,11.913,32.826Zm0-12.392a2.478,2.478,0,1,0,2.478,2.478A2.479,2.479,0,0,0,11.913,20.435Z" transform="translate(7.913 51.436)" fill="#bfbfbf"/>
  <path id="Path_12856" data-name="Path 12856" d="M3.717,37.826A3.719,3.719,0,0,1,0,34.109V31.631A13.642,13.642,0,0,1,13.631,18H26.022a3.717,3.717,0,1,1,0,7.435H13.631a6.2,6.2,0,0,0-6.2,6.2v2.478A3.719,3.719,0,0,1,3.717,37.826Z" transform="translate(0 71.219)" fill="#bfbfbf"/>
  <path id="Path_12857" data-name="Path 12857" d="M23.87,41.24A14.87,14.87,0,1,1,38.74,26.37,14.888,14.888,0,0,1,23.87,41.24Zm0-22.3A7.435,7.435,0,1,0,31.3,26.37,7.444,7.444,0,0,0,23.87,18.935Z" transform="translate(35.609 45.501)" fill="#be1f24"/>
  <path id="Path_12858" data-name="Path 12858" d="M57.305,43.783a3.719,3.719,0,0,1-3.717-3.717V32.631a6.2,6.2,0,0,0-6.2-6.2H20.131a6.2,6.2,0,0,0-6.2,6.2v7.435a3.717,3.717,0,1,1-7.435,0V32.631A13.642,13.642,0,0,1,20.131,19H47.392A13.642,13.642,0,0,1,61.023,32.631v7.435A3.719,3.719,0,0,1,57.305,43.783Z" transform="translate(25.718 75.176)" fill="#be1f24"/>
</svg>
