<svg xmlns="http://www.w3.org/2000/svg" width="15.999" height="14.003" viewBox="0 0 15.999 14.003">
  <path id="filter-icon" d="M-3454.74,9334l-.229-.108a1.407,1.407,0,0,1-.8-1.033l-.073-.414-7.714-.017-.115-.061a.564.564,0,0,1-.328-.541.6.6,0,0,1,.354-.532,31.653,31.653,0,0,1,3.863-.059h3.94l.073-.407a1.359,1.359,0,0,1,.408-.769,1.377,1.377,0,0,1,.691-.377,14.429,14.429,0,0,1,2.2-.015,1.44,1.44,0,0,1,.766.4,1.335,1.335,0,0,1,.4.769l.073.4h1.492a6.011,6.011,0,0,1,1.354.047.6.6,0,0,1,.379.551.566.566,0,0,1-.337.539c-.1.054-.19.056-1.389.067l-1.5.014-.07.408a1.419,1.419,0,0,1-.8,1.035l-.227.107Zm.19-1.155h2.029v-2.01h-2.029Zm-3.825-3.629a11.142,11.142,0,0,1-1.253-.047l0,0a1.478,1.478,0,0,1-1.047-1.028,1.029,1.029,0,0,1-.047-.234v-.3h-1.546c-1.293,0-1.3,0-1.406-.056a.779.779,0,0,1-.229-.2.4.4,0,0,1-.075-.33c0-.229,0-.232.075-.333a.841.841,0,0,1,.216-.192c.122-.061.126-.062,1.419-.062h1.546l0-.291a1.258,1.258,0,0,1,.049-.255,1.49,1.49,0,0,1,1-1.015,15.02,15.02,0,0,1,2.38,0,1.45,1.45,0,0,1,1.068,1.137l.075.429h7.721l.113.059a.785.785,0,0,1,.225.191c.082.11.082.11.084.363a.392.392,0,0,1-.059.279.909.909,0,0,1-.2.191l-.1.068-7.786.019-.075.434a1.439,1.439,0,0,1-1.089,1.136,8.717,8.717,0,0,1-.879.044C-3458.256,9329.217-3458.316,9329.217-3458.375,9329.215Zm-1.1-1.211h2.026v-1.97h-2.026Zm7.536-3.591a3.16,3.16,0,0,1-1.424-.169,1.9,1.9,0,0,1-.581-.531,1.505,1.505,0,0,1-.192-.593v-.321h-4.816a45.5,45.5,0,0,1-4.69-.056.6.6,0,0,1-.354-.541.566.566,0,0,1,.333-.539l.11-.054,9.384-.021.042-.377a1.417,1.417,0,0,1,.963-1.132,4.379,4.379,0,0,1,1.326-.051c1.134.007,1.148.012,1.307.077a1.707,1.707,0,0,1,.712.616,2.3,2.3,0,0,1,.2.665l.021.146.15.025a3.7,3.7,0,0,0,.541.04c.534.014.628.063.752.191a.612.612,0,0,1-.042.851c-.131.122-.216.164-.731.164h-.656l-.054.316a1.385,1.385,0,0,1-.79,1.122,3.117,3.117,0,0,1-1.1.194A3.68,3.68,0,0,1-3451.94,9324.413Zm-.963-3.018a6.942,6.942,0,0,0-.028.825v.977h2.069v-2.01h-1c-.26,0-.527,0-.792.023l-.246-.023Z" transform="translate(3464 -9320)" fill="#6a6a6a" opacity="0.8"/>
</svg>
