<svg xmlns="http://www.w3.org/2000/svg" xmlns:xlink="http://www.w3.org/1999/xlink" width="174.036" height="194.44" viewBox="0 0 174.036 194.44">
  <defs>
    <linearGradient id="linear-gradient" x1="0.334" y1="1.79" x2="0.334" y2="0.849" gradientUnits="objectBoundingBox">
      <stop offset="0.017" stop-color="#cec4de"/>
      <stop offset="1" stop-color="#f0e1ea"/>
    </linearGradient>
    <linearGradient id="linear-gradient-2" x1="9.322" y1="0.325" x2="9.322" y2="1.278" xlink:href="#linear-gradient"/>
    <linearGradient id="linear-gradient-3" x1="0.5" y1="1" x2="0.5" gradientUnits="objectBoundingBox">
      <stop offset="0" stop-color="#ff8647"/>
      <stop offset="1" stop-color="#ffb934"/>
    </linearGradient>
    <linearGradient id="linear-gradient-4" y1="0.5" x2="1" y2="0.5" gradientUnits="objectBoundingBox">
      <stop offset="0" stop-color="#ffc200"/>
      <stop offset="1" stop-color="#ffd328"/>
    </linearGradient>
    <linearGradient id="linear-gradient-7" x1="0.5" y1="1" x2="0.5" gradientUnits="objectBoundingBox">
      <stop offset="0" stop-color="#ffb934"/>
      <stop offset="1" stop-color="#ff9f47"/>
    </linearGradient>
    <linearGradient id="linear-gradient-9" x1="0.5" y1="1" x2="0.5" gradientUnits="objectBoundingBox">
      <stop offset="0"/>
      <stop offset="1" stop-color="#cdc8ca"/>
    </linearGradient>
    <linearGradient id="linear-gradient-11" y1="0.5" x2="1" y2="0.5" gradientUnits="objectBoundingBox">
      <stop offset="0" stop-color="#cdc8ca"/>
      <stop offset="1"/>
    </linearGradient>
    <linearGradient id="linear-gradient-12" x1="0.5" y1="1" x2="0.5" gradientUnits="objectBoundingBox">
      <stop offset="0" stop-color="#ab6f55"/>
      <stop offset="1"/>
    </linearGradient>
  </defs>
  <g id="Group_8700" data-name="Group 8700" transform="translate(-1218.412 -1859)">
    <g id="Group_8245" data-name="Group 8245" transform="translate(1218.412 1859)" opacity="0.6">
      <path id="Path_12978" data-name="Path 12978" d="M287.35,198.515c-.38-6.745-11.567-7.025-11.567-7.025s-9.668,9.62-11.851,9.436,6.66-9.84,6.66-9.84c-4.036-1.269-15.6,1.564-15.6,1.564s-2.087,13.165-4.158,12.45,2.443-11.563,2.443-11.563c-4.24.354-8.944,4.22-8.944,4.22-6.252,6.593,2.537,14.282,2.537,14.282a21.677,21.677,0,0,1-4.707,9.14h0a15.7,15.7,0,0,0-1.816,2.315l1.087.229c.15-.272.307-.534.473-.781l0,0,.007-.011c.11-.152.268-.368.462-.631h0c.469-.58.795-1.013,1.009-1.33l0,0c1.426-1.83,3.421-4.186,4.495-4.543a2.174,2.174,0,0,1-.127-.547l.127.547c1.019,4.381,10.182,7.011,15.59,7.042s3.458-1.907,1.168-4.869-8.27-3.573-9.8-4.868,1.191-1.692,4.59-.7,4.4,4.817,9.867,6.527,11.941-7.89,11.941-7.89c-4.107.382-10.569-3.2-10.554-4.59s10.22.909,11.9.847S287.731,205.259,287.35,198.515Z" transform="translate(-119.143 -145.965)" fill="#e9e9e9"/>
      <path id="Path_12979" data-name="Path 12979" d="M249.022,190.834s6.735-24.167,21.615-36.915a2.786,2.786,0,0,1,4.544,2.608c-.007.043-.016.086-.024.13C274.317,161.024,257.336,177.372,249.022,190.834Z" transform="translate(-117.405 -153.246)" fill="#e9e9e9"/>
      <path id="Path_12980" data-name="Path 12980" d="M246.839,196.81s17.316-28.836,40.885-39.135a2.955,2.955,0,0,1,3.846,1.36c.444.919.5,2.259-.455,4.19C288.57,168.374,261.813,182.9,246.839,196.81Z" transform="translate(-117.842 -152.41)" fill="#e9e9e9"/>
      <path id="Path_12981" data-name="Path 12981" d="M244.563,293.475s26.281-13.173,31.036-8.584S244.563,293.475,244.563,293.475Z" transform="translate(-118.298 -127.91)" fill="#e9e9e9"/>
      <path id="Path_12982" data-name="Path 12982" d="M241,293.3s35.19-3.091,35.742,4.243S241,293.3,241,293.3Z" transform="translate(-119.012 -126.161)" fill="#e9e9e9"/>
      <path id="Path_12983" data-name="Path 12983" d="M140.227,165.653c4.488-13.839,27.941-8.294,27.941-8.294s14.865,25.334,19.511,26.149-8.48-24.142-8.48-24.142c9.1-.432,31.64,11.806,31.64,11.806s-2.867,28.563,1.836,28.208,1.248-25.421,1.248-25.421c8.637,3.061,16.316,13.689,16.316,13.689C239.648,204.8,217.13,216,217.13,216a46.673,46.673,0,0,0,4.8,21.618h0a33.932,33.932,0,0,1,2.513,5.818l-2.39-.118q-.247-.976-.558-1.887l0-.011-.01-.026c-.145-.377-.355-.915-.617-1.569v-.006c-.66-1.464-1.1-2.545-1.375-3.322l0-.007c-1.967-4.595-4.832-10.595-6.874-11.924a4.607,4.607,0,0,0,.565-1.071c-.18.341-.367.7-.565,1.071-4.521,8.565-25.047,9.021-36.327,6.125s-6.156-5.868.236-10.783S195.7,217,199.6,215.14s-1.552-4.177-9.177-3.966-11.8,7.622-24.127,8.188-20.546-22.976-20.546-22.976c8.344,3.045,23.767-.883,24.5-3.777S148.458,188.9,145,187.855,135.741,179.492,140.227,165.653Z" transform="translate(-138.59 -152.642)" fill="#f6f6f6"/>
      <path id="Path_12984" data-name="Path 12984" d="M283.192,252.093c-2.234-8.248-16.154-5.671-16.154-5.671s-9.452,14.435-12.2,14.78,5.671-13.92,5.671-13.92c-5.328-.515-18.9,6.016-18.9,6.016s.859,16.841-1.89,16.5,0-14.951,0-14.951c-5.155,1.547-9.968,7.562-9.968,7.562-6.014,9.8,6.875,17.013,6.875,17.013a27.416,27.416,0,0,1-3.437,12.545h0a19.761,19.761,0,0,0-1.642,3.34h1.405c.114-.377.241-.742.38-1.091l0-.006.006-.016c.1-.217.234-.526.407-.9h0v0c.43-.84.72-1.461.9-1.91v0c1.287-2.638,3.14-6.077,4.376-6.8a2.764,2.764,0,0,1-.3-.645c.1.205.2.419.3.645,2.406,5.155,14.437,6.014,21.139,4.639s3.781-3.265.172-6.332-11.171-2.26-13.4-3.463,1.031-2.405,5.5-2.062,6.7,4.812,13.919,5.5,12.718-12.889,12.718-12.889c-4.985,1.547-13.92-1.2-14.264-2.921s12.888-1.547,14.95-2.062S285.425,260.342,283.192,252.093Z" transform="translate(-121.586 -135.299)" fill="#f6f6f6"/>
      <path id="Path_12985" data-name="Path 12985" d="M154.244,243.865c4.95-9.379,21.1-2.469,21.1-2.469s7.515,20.048,10.749,21.213-3.077-18.4-3.077-18.4c6.591.826,21.249,12.426,21.249,12.426s-5.624,20.156-2.2,20.488,4.069-18.1,4.069-18.1c5.82,3.275,10.009,11.867,10.009,11.867,4.616,13.5-12.952,18.726-12.952,18.726a34.024,34.024,0,0,0,.747,16.123h0a24.661,24.661,0,0,1,1.079,4.493l-1.7-.383c-.037-.487-.091-.963-.166-1.425v-.008l0-.02c-.058-.289-.14-.7-.247-1.2h0v0c-.29-1.134-.473-1.966-.574-2.558v-.006c-.84-3.544-2.148-8.212-3.448-9.421a3.389,3.389,0,0,0,.54-.7c-.173.222-.352.455-.54.7-4.316,5.586-19.113,3.352-26.853-.136s-3.688-4.982,1.516-7.714,14.138.3,17.17-.544-.593-3.193-6.1-3.993-9.423,4-18.348,2.87-11.888-19.065-11.888-19.065c5.612,3.229,17.179,2.331,18.064.344s-15.183-5.381-17.539-6.565S149.294,253.244,154.244,243.865Z" transform="translate(-135.975 -136.917)" fill="#e9e9e9"/>
      <path id="Path_12986" data-name="Path 12986" d="M150.12,310.091c-2.618-5.675,6.4-10.759,6.4-10.759s12.073,3.661,13.776,2.563-9.711-5.145-9.711-5.145c2.746-2.788,13.424-5.5,13.424-5.5s7.42,9.848,8.8,8.366-7.014-8.385-7.014-8.385c3.616-1.552,9.136-.436,9.136-.436,7.97,2.671,4.128,12.766,4.128,12.766a20.052,20.052,0,0,0,7.814,5.423h0a14.562,14.562,0,0,1,2.488,1.1l-.787.66q-.362-.238-.726-.433l0,0-.011-.006c-.156-.076-.378-.185-.652-.314h0c-.635-.27-1.089-.482-1.4-.648h0c-1.959-.876-4.611-1.935-5.644-1.758a2,2,0,0,0-.133-.5l.133.5c1.069,4.02-5.273,10.146-9.676,12.519s-3.652-.058-3.068-3.471,5.2-6.508,5.892-8.23-1.707-.865-4.051,1.423-1.5,5.843-5.227,9.615-13.179-1.261-13.179-1.261c3.52-1.471,7.242-7.206,6.629-8.331s-7.954,5.179-9.352,5.857S152.736,315.764,150.12,310.091Z" transform="translate(-136.377 -126.611)" fill="#f6f6f6"/>
    </g>
    <g id="Group_8244" data-name="Group 8244" transform="translate(1242.418 1881.806)">
      <g id="Group_8243" data-name="Group 8243" transform="translate(0 0)">
        <path id="Path_12952" data-name="Path 12952" d="M271.354,318.284c-.4,2.887-23.959,3.531-52.212-.391s-50.67-10.616-50.269-13.5,23.791-3.223,52.044.7S271.754,315.4,271.354,318.284Z" transform="translate(-166.554 -161.01)" fill="#86241d" fill-rule="evenodd"/>
        <path id="Path_12953" data-name="Path 12953" d="M167.555,298.219l1.571,6.966,101.615,14.2,3.395-6.272Z" transform="translate(-166.818 -161.804)" fill="#86241d" fill-rule="evenodd"/>
        <path id="Path_12954" data-name="Path 12954" d="M290.439,201c-.4,2.887-26.287,2.876-54.538-1.047s-53.163-10.963-52.762-13.85,26.1-1.509,54.349,2.413C266.921,192.6,290.84,198.114,290.439,201Z" transform="translate(-164.418 -184.563)" fill="#86241d" fill-rule="evenodd"/>
        <path id="Path_12955" data-name="Path 12955" d="M183.138,185.846l1.582,6.966,102.3,14.2,3.418-6.272Z" transform="translate(-164.417 -184.306)" fill="#86241d" fill-rule="evenodd"/>
        <path id="Path_12987" data-name="Path 12987" d="M5.325,0c2.913,0,5.253,24.088,5.225,53.808s-2.411,53.815-5.325,53.818S-.027,83.538,0,53.818,2.412,0,5.325,0Z" transform="translate(0 141.689) rotate(-82.097)" fill="#c43c32"/>
        <path id="Path_12956" data-name="Path 12956" d="M184.456,191.65s41.4,9.458,102.313,14.2C286.769,205.853,258.688,195.54,184.456,191.65Z" transform="translate(-164.165 -183.144)" fill="#c43c32" fill-rule="evenodd"/>
        <path id="Path_12957" data-name="Path 12957" d="M279.251,204.863c-33.352-6.756-56.725-10.417-91.071-12.642,0,0-11.554,41.586,34.8,70.464l1.8.25,1.8.251C279.053,248.024,279.251,204.863,279.251,204.863Z" transform="translate(-163.675 -183.03)" fill-rule="evenodd" opacity="0.72" fill="url(#linear-gradient)"/>
        <path id="Path_12958" data-name="Path 12958" d="M173.087,309.251c31.318,7.834,62.265,12.13,91.072,12.641,0,0,11.554-41.585-34.8-70.463l-1.8-.251-1.8-.25C173.286,266.089,173.087,309.251,173.087,309.251Z" transform="translate(-165.71 -171.274)" fill-rule="evenodd" opacity="0.72" fill="url(#linear-gradient-2)"/>
      </g>
      <path id="Path_12959" data-name="Path 12959" d="M200.8,232.967s9.858,15.594,21.264,18.257c11.091,2.589,34.4-18.367,34.4-18.367S224.5,244.379,200.8,232.967Z" transform="translate(-160.579 -174.893)" fill-rule="evenodd" fill="url(#linear-gradient-3)"/>
      <path id="Path_12960" data-name="Path 12960" d="M200.8,233.291s11.467-4.97,21.723.563c.253,4.958,33.939-.673,33.939-.673s-15.591,8.072-33.686,5.632S200.8,233.291,200.8,233.291Z" transform="translate(-160.579 -175.216)" fill-rule="evenodd" fill="url(#linear-gradient-4)"/>
      <path id="Path_12961" data-name="Path 12961" d="M184.261,280.566a38.218,38.218,0,0,0-6.73,20.935s21.518,5.515,41.682,8.686a308.763,308.763,0,0,0,41.908,3.136s3.209-21.969-6.239-37.678c0,0-4.544,10.7-12.564,14.978s-6.952,1.071-29.408-2.406S184.261,280.566,184.261,280.566Z" transform="translate(-164.82 -166.325)" fill-rule="evenodd" fill="url(#linear-gradient-3)"/>
      <path id="Path_12962" data-name="Path 12962" d="M253.759,275.645s-9.089,6.419-24.328,8.024-20.05-3.745-30.21-4.012a80.238,80.238,0,0,0-16.083.91s7.395,5.51,25.841,8.72,28.607,6.553,36.627,2.006S253.759,275.645,253.759,275.645Z" transform="translate(-163.95 -166.325)" fill-rule="evenodd" fill="url(#linear-gradient-4)"/>
      <path id="Path_12963" data-name="Path 12963" d="M200.8,285.636s27.121,5.778,39,0c0,0-12.832-13.212-16.842-15.085S201.735,280.927,200.8,285.636Z" transform="translate(-160.499 -167.383)" fill-rule="evenodd" fill="url(#linear-gradient-7)"/>
      <path id="Path_12964" data-name="Path 12964" d="M217.4,247.528a81.907,81.907,0,0,1,0,27.546l2.882.427s-2.232-17.779.708-27.453Z" transform="translate(-157.195 -171.955)" fill-rule="evenodd" fill="url(#linear-gradient-7)"/>
      <path id="Path_12965" data-name="Path 12965" d="M222.522,233.839s-8.188,3.426-21.723-.563C200.8,233.276,212.2,228.509,222.522,233.839Z" transform="translate(-160.443 -175.201)" fill="#ffe74c" fill-rule="evenodd"/>
      <path id="Path_12966" data-name="Path 12966" d="M222.687,235.271l-7.763,2.468s3.865,1.664,16.831,1a52.441,52.441,0,0,0,21.878-5.881s-13.724,2.408-21.477,2.408S222.687,235.271,222.687,235.271Z" transform="translate(-157.81 -174.893)" fill="#ffe74c" fill-rule="evenodd"/>
      <path id="Path_12967" data-name="Path 12967" d="M187.967,193.3v-8.656a146.968,146.968,0,0,1,16.826.462l-.651,9.267S194.227,193.677,187.967,193.3Z" transform="translate(-162.898 -184.561)" fill="#fbf9fa" fill-rule="evenodd" opacity="0.5" style="mix-blend-mode: soft-light;isolation: isolate"/>
      <path id="Path_12968" data-name="Path 12968" d="M261.448,202.508l2.876-8.072s5.842,1.708,7.027,2.207l-3.812,7.462Z" transform="translate(-148.747 -182.586)" fill="#fbf9fa" fill-rule="evenodd" opacity="0.5" style="mix-blend-mode: soft-light;isolation: isolate"/>
      <path id="Path_12969" data-name="Path 12969" d="M173.373,308.025l-1.715-7.322,9.033,2.591v7.181A65.665,65.665,0,0,1,173.373,308.025Z" transform="translate(-165.996 -161.307)" fill="#fbf9fa" fill-rule="evenodd" opacity="0.5" style="mix-blend-mode: soft-light;isolation: isolate"/>
      <path id="Path_12970" data-name="Path 12970" d="M243.716,318.688l1.776-6.69a44.942,44.942,0,0,0,10.879-.277L252.485,318S246.939,318.645,243.716,318.688Z" transform="translate(-152.157 -159.1)" fill="#fbf9fa" fill-rule="evenodd" opacity="0.5" style="mix-blend-mode: soft-light;isolation: isolate"/>
      <path id="Path_12971" data-name="Path 12971" d="M175.421,309.637s2.134-22.311,16.153-37.552,33.806-19.632,33.806-19.632l4.018,1.134s-16.583,24.09-22.034,62.626C207.364,316.213,180.368,311.847,175.421,309.637Z" transform="translate(-165.242 -170.969)" fill-rule="evenodd" fill="url(#linear-gradient-9)" style="mix-blend-mode: screen;isolation: isolate"/>
      <path id="Path_12972" data-name="Path 12972" d="M223.023,261.134s-20.5-12.017-27.348-33.534-3.237-34.865-3.237-34.865l15.284,2.314S201.511,226.152,223.023,261.134Z" transform="translate(-162.251 -182.927)" fill-rule="evenodd" fill="url(#linear-gradient-9)" style="mix-blend-mode: screen;isolation: isolate"/>
      <path id="Path_12973" data-name="Path 12973" d="M272.63,203s-1.468,43.724-52.661,58.322c0,0,44.4-13.568,45.368-59.779Z" transform="translate(-157.053 -181.164)" fill-rule="evenodd" fill="url(#linear-gradient-11)" style="mix-blend-mode: screen;isolation: isolate"/>
      <path id="Path_12974" data-name="Path 12974" d="M240.558,313.779s5.7-19.767,6.074-29.572c0,0,5.834,13.844,3.169,29.572Z" transform="translate(-152.752 -164.61)" fill-rule="evenodd" fill="url(#linear-gradient-12)" style="mix-blend-mode: screen;isolation: isolate"/>
      <path id="Path_12975" data-name="Path 12975" d="M192.112,268.742s9.5-2.843,12.083-9.567C204.195,259.175,197.555,259.834,192.112,268.742Z" transform="translate(-162.093 -169.623)" fill="#fff" fill-rule="evenodd"/>
      <path id="Path_12976" data-name="Path 12976" d="M192.256,205.273s-3.456,6.906,3.439,12.551C195.7,217.824,198.3,207.918,192.256,205.273Z" transform="translate(-162.221 -180.416)" fill="#fff" fill-rule="evenodd"/>
      <path id="Path_12977" data-name="Path 12977" d="M248.84,232.637s3.372-6.226,7.054-7.926C255.894,224.711,253.4,230.787,248.84,232.637Z" transform="translate(-151.141 -176.524)" fill="#fff" fill-rule="evenodd"/>
    </g>
  </g>
</svg>
