<svg xmlns="http://www.w3.org/2000/svg" xmlns:xlink="http://www.w3.org/1999/xlink" width="40" height="34" viewBox="0 0 40 34">
  <defs>
    <linearGradient id="linear-gradient" x1="0.5" x2="0.5" y2="1" gradientUnits="objectBoundingBox">
      <stop offset="0" stop-color="#d9952e"/>
      <stop offset="1" stop-color="#efc154"/>
    </linearGradient>
  </defs>
  <path id="heart-rate-icon" d="M28.571,19.833h6.808a2.125,2.125,0,0,1-.223.232q-.112.1-.2.166l-.067.088L20.981,33.6a1.409,1.409,0,0,1-1.964,0L5.089,20.276a2.111,2.111,0,0,1-.469-.443h8.237a1.417,1.417,0,0,0,.882-.3,1.324,1.324,0,0,0,.5-.764l1.562-6.22,4.241,14.764a1.44,1.44,0,0,0,1.383,1.018,1.368,1.368,0,0,0,.848-.288,1.414,1.414,0,0,0,.513-.731L26.048,16.58l1.25,2.479a1.339,1.339,0,0,0,1.272.775ZM40,10.359A11.968,11.968,0,0,1,37.7,17H29.464l-2.478-4.892a1.414,1.414,0,0,0-1.383-.775,1.32,1.32,0,0,0-1.25,1.018l-2.88,9.518L17.1,6.685a1.393,1.393,0,0,0-.524-.731,1.447,1.447,0,0,0-.881-.288,1.367,1.367,0,0,0-.87.3,1.351,1.351,0,0,0-.491.764L11.741,17H2.3A11.968,11.968,0,0,1,0,10.359,10.105,10.105,0,0,1,2.834,2.745Q5.669,0,10.67,0a8.957,8.957,0,0,1,2.823.476A11.507,11.507,0,0,1,16.172,1.76q1.24.808,2.131,1.516A20.974,20.974,0,0,1,20,4.781a20.482,20.482,0,0,1,1.7-1.505q.893-.708,2.132-1.516A11.478,11.478,0,0,1,26.508.476,8.961,8.961,0,0,1,29.33,0q5,0,7.834,2.745A10.105,10.105,0,0,1,40,10.359Z" fill="url(#linear-gradient)"/>
</svg>
