<svg xmlns="http://www.w3.org/2000/svg" width="22" height="25" viewBox="0 0 22 25">
  <path id="hospitals-icon" d="M5.461,18.3V19.2a.426.426,0,0,1-.135.314.44.44,0,0,1-.319.133H4.1a.44.44,0,0,1-.319-.133.423.423,0,0,1-.134-.314V18.3a.426.426,0,0,1,.135-.314.44.44,0,0,1,.319-.133h.908a.44.44,0,0,1,.319.133.426.426,0,0,1,.135.314Zm0-3.572v.893a.426.426,0,0,1-.135.314.44.44,0,0,1-.319.133H4.1a.44.44,0,0,1-.319-.133.423.423,0,0,1-.134-.314v-.893a.426.426,0,0,1,.135-.314.44.44,0,0,1,.319-.133h.908a.44.44,0,0,1,.319.133.426.426,0,0,1,.135.314Zm3.63,0v.893a.426.426,0,0,1-.135.314.44.44,0,0,1-.319.133H7.73a.44.44,0,0,1-.319-.133.423.423,0,0,1-.134-.314v-.893a.426.426,0,0,1,.135-.314.44.44,0,0,1,.319-.133h.908a.44.44,0,0,1,.319.133.426.426,0,0,1,.135.314Zm-3.63-3.572v.893a.426.426,0,0,1-.135.314.44.44,0,0,1-.319.133H4.1a.44.44,0,0,1-.319-.133.423.423,0,0,1-.134-.314v-.893a.426.426,0,0,1,.135-.314.437.437,0,0,1,.319-.132h.908a.44.44,0,0,1,.319.133A.422.422,0,0,1,5.461,11.161ZM16.352,18.3V19.2a.426.426,0,0,1-.135.314.44.44,0,0,1-.319.133H14.99a.44.44,0,0,1-.319-.133.426.426,0,0,1-.135-.314V18.3a.426.426,0,0,1,.135-.314.44.44,0,0,1,.319-.133H15.9a.44.44,0,0,1,.319.133A.426.426,0,0,1,16.352,18.3Zm-3.63-3.572v.893a.426.426,0,0,1-.135.314.44.44,0,0,1-.319.133H11.36a.44.44,0,0,1-.319-.133.423.423,0,0,1-.134-.314v-.893a.426.426,0,0,1,.135-.314.44.44,0,0,1,.319-.133h.908a.44.44,0,0,1,.319.133.426.426,0,0,1,.135.314Zm-3.63-3.572v.893a.426.426,0,0,1-.135.314.44.44,0,0,1-.319.133H7.73a.44.44,0,0,1-.319-.133.423.423,0,0,1-.134-.314v-.893a.426.426,0,0,1,.135-.314.437.437,0,0,1,.319-.132h.908a.44.44,0,0,1,.319.133A.422.422,0,0,1,9.092,11.161Zm7.26,3.572v.893a.426.426,0,0,1-.135.314.44.44,0,0,1-.319.133H14.99a.44.44,0,0,1-.319-.133.426.426,0,0,1-.135-.314v-.893a.426.426,0,0,1,.135-.314.44.44,0,0,1,.319-.133H15.9a.44.44,0,0,1,.319.133A.426.426,0,0,1,16.352,14.732Zm-3.63-3.572v.893a.426.426,0,0,1-.135.314.44.44,0,0,1-.319.133H11.36a.44.44,0,0,1-.319-.133.423.423,0,0,1-.134-.314v-.893a.426.426,0,0,1,.135-.314.436.436,0,0,1,.318-.132h.908a.44.44,0,0,1,.319.133A.425.425,0,0,1,12.722,11.161Zm3.63,0v.893a.426.426,0,0,1-.135.314.44.44,0,0,1-.319.133H14.99a.44.44,0,0,1-.319-.133.426.426,0,0,1-.135-.314v-.893a.426.426,0,0,1,.135-.314.44.44,0,0,1,.319-.133H15.9a.44.44,0,0,1,.319.133.426.426,0,0,1,.135.314Zm-3.63,12.054h6.461V7.143H14.537V7.59a1.28,1.28,0,0,1-.4.949,1.328,1.328,0,0,1-.964.391H6.823a1.322,1.322,0,0,1-.964-.391,1.285,1.285,0,0,1-.4-.949V7.143H.815V23.215H7.276V20.09a.426.426,0,0,1,.135-.314.44.44,0,0,1,.319-.133h4.538a.44.44,0,0,1,.319.133.426.426,0,0,1,.135.314v3.125Zm0-16.519V2.232a.426.426,0,0,0-.135-.314.44.44,0,0,0-.319-.133H11.36a.44.44,0,0,0-.319.133.423.423,0,0,0-.134.314v1.34H9.092V2.232a.426.426,0,0,0-.135-.314.44.44,0,0,0-.319-.133H7.73a.44.44,0,0,0-.319.133.423.423,0,0,0-.134.314V6.7a.426.426,0,0,0,.135.314.44.44,0,0,0,.319.133h.908a.44.44,0,0,0,.319-.133A.423.423,0,0,0,9.092,6.7V5.357h1.815V6.7a.426.426,0,0,0,.135.314.44.44,0,0,0,.319.133h.908a.44.44,0,0,0,.319-.133.426.426,0,0,0,.135-.314ZM21,6.249V24.107a.851.851,0,0,1-.27.628.879.879,0,0,1-.638.265H-.092a.879.879,0,0,1-.638-.265A.851.851,0,0,1-1,24.107V6.25a.851.851,0,0,1,.27-.628.879.879,0,0,1,.638-.265H5.462V1.34a1.28,1.28,0,0,1,.4-.949A1.328,1.328,0,0,1,6.824,0h6.353a1.322,1.322,0,0,1,.964.391,1.285,1.285,0,0,1,.4.949V5.358h5.554a.879.879,0,0,1,.638.265.851.851,0,0,1,.27.628Z" transform="translate(1)" fill="#fff" opacity="0.9"/>
</svg>
