<svg xmlns="http://www.w3.org/2000/svg" width="30" height="28" viewBox="0 0 30 28">
  <path id="insert-picture-icon" d="M26.609,9.35H3.393A3.389,3.389,0,0,0,0,12.73V33.974A3.387,3.387,0,0,0,3.393,37.35H26.609A3.386,3.386,0,0,0,30,33.974V12.73A3.388,3.388,0,0,0,26.609,9.35ZM19.4,14.377a3.263,3.263,0,1,1-3.277,3.263A3.271,3.271,0,0,1,19.4,14.377Zm6.145,19.85H4.925a.923.923,0,0,1-.9-1.456L9.649,21.679a.949.949,0,0,1,1.734-.16l5.656,7.359a1.39,1.39,0,0,0,2.148.135l1.384-1.395a1.32,1.32,0,0,1,2.091.176l3.583,5.1C26.762,33.628,26.45,34.227,25.545,34.227Z" transform="translate(0 -9.35)" fill="#fff"/>
</svg>
