<svg xmlns="http://www.w3.org/2000/svg" width="23" height="25" viewBox="0 0 23 25">
  <g id="Notifications" transform="translate(-227 -32)">
    <path id="notifications-icon" d="M5434.691,17297.252h6.614a3.363,3.363,0,0,1-6.614,0Zm-4.119-.918a1.608,1.608,0,0,1-1.023-2.82,6.2,6.2,0,0,0,2.149-4.707v-2.555a6.389,6.389,0,0,1,5.4-6.346v-.99a.9.9,0,1,1,1.8,0v.99a6.389,6.389,0,0,1,5.4,6.346v2.555a6.192,6.192,0,0,0,2.141,4.7,1.614,1.614,0,0,1,.559,1.223,1.59,1.59,0,0,1-1.576,1.605Z" transform="translate(-5201.998 -17243.002)" fill="#047aba"/>
    <g id="Ellipse_33" data-name="Ellipse 33" transform="translate(238 32)" fill="#eeae1a" stroke="#eef7fc" stroke-width="1">
      <circle cx="6" cy="6" r="6" stroke="none"/>
      <circle cx="6" cy="6" r="5.5" fill="none"/>
    </g>
  </g>
</svg>
