<svg xmlns="http://www.w3.org/2000/svg" width="17.002" height="20.004" viewBox="0 0 17.002 20.004">
  <path id="reject-registration-request-icon" d="M4371.074,17843.643v-7.371h1.8v7.371Zm0-8.512v-.883h.014l-.009-10.223a.387.387,0,0,1,.385-.387h16.225a.4.4,0,0,1,.125.023h0a.386.386,0,0,1,.237.488l-1.621,5.736a.374.374,0,0,0,0,.242l1.621,4.518a.418.418,0,0,1,.013.1.383.383,0,0,1-.358.381Zm9.821-2.621a.19.19,0,0,0,.264.006l0-.006.976-.994a.2.2,0,0,0,0-.281l-1.478-1.5-.345-.35.345-.35,1.478-1.5a.2.2,0,0,0,0-.281l-.976-.99a.183.183,0,0,0-.269,0l-1.827,1.854-1.832-1.854a.178.178,0,0,0-.139-.059.159.159,0,0,0-.13.059l-.981.99a.2.2,0,0,0,0,.281l1.482,1.5.345.35-.345.35-1.482,1.5a.2.2,0,0,0,0,.281l.981.994a.19.19,0,0,0,.264.006l0-.006,1.832-1.857Z" transform="translate(-4371.07 -17823.639)" fill="#d60000"/>
</svg>
