<svg xmlns="http://www.w3.org/2000/svg" width="19.998" height="19.847" viewBox="0 0 19.998 19.847"><path d="M20157.572,11836.409h-7.658a.914.914,0,0,1-.91-.916,7,7,0,0,1,7.01-7.011,7.161,7.161,0,0,1,1.447.147,6.4,6.4,0,1,1,.111,7.779Zm1.717-7.116a4.568,4.568,0,1,0,3.311-1.423A4.583,4.583,0,0,0,20159.289,11829.293Zm5.158,6-1.787-1.787a.144.144,0,0,0-.2,0l-1.781,1.787a.137.137,0,0,1-.2,0l-.754-.754a.137.137,0,0,1,0-.2l1.785-1.791a.137.137,0,0,0,0-.2l-1.785-1.781a.141.141,0,0,1,0-.2l.754-.75a.137.137,0,0,1,.2,0l1.781,1.782a.144.144,0,0,0,.2,0l1.787-1.782a.142.142,0,0,1,.2,0l.75.75a.145.145,0,0,1,0,.2l-1.787,1.781a.148.148,0,0,0,0,.2l1.787,1.791a.14.14,0,0,1,0,.2l-.75.754a.141.141,0,0,1-.2,0Zm-11.551-10.261a3.8,3.8,0,0,1,0-4.419,3.825,3.825,0,1,1,0,4.419Z" transform="translate(-20149.004 -11819.002)" fill="#e48d1a"/></svg>