<svg xmlns="http://www.w3.org/2000/svg" width="20" height="20" viewBox="0 0 20 20">
  <path id="replace-user-icon" d="M20,10A10,10,0,0,1,10,20H9.96A9.967,9.967,0,0,1,0,10H1.561a8.428,8.428,0,0,0,8.4,8.437H10a8.437,8.437,0,1,0-6.071-14.3h1.54V5.7h-4.3v-4.3H2.733V3.128A10,10,0,0,1,20,10Zm-12.167.222a3.047,3.047,0,1,1,4.489,0,4.691,4.691,0,0,1,2.443,4.114H13.2a3.125,3.125,0,1,0-6.25,0H5.39a4.691,4.691,0,0,1,2.443-4.114Zm2.245-.573A1.484,1.484,0,1,0,8.593,8.164,1.486,1.486,0,0,0,10.077,9.648Zm0,0" transform="translate(0.001 0)" fill="#666"/>
</svg>
