<svg xmlns="http://www.w3.org/2000/svg" width="17.999" height="17.998" viewBox="0 0 17.999 17.998">
  <path id="selected-point-icon" d="M-13288.6,21019a5.406,5.406,0,0,1-5.4-5.4v-7.2a5.4,5.4,0,0,1,5.4-5.4h7.2a5.4,5.4,0,0,1,5.4,5.4v11.7a.9.9,0,0,1-.9.9Zm-3.6-12.6v7.2a3.608,3.608,0,0,0,3.6,3.6h10.8v-10.8a3.6,3.6,0,0,0-3.6-3.6h-7.2A3.6,3.6,0,0,0-13292.2,21006.4Zm3.2,4.121,1.271-1.271,2.063,2.063,4.314-4.314,1.271,1.275-5.586,5.586Z" transform="translate(13294.001 -21001.002)" fill="#efc154"/>
</svg>
