<svg xmlns="http://www.w3.org/2000/svg" width="32" height="32" viewBox="0 0 32 32"><g transform="translate(-1065 -38)"><rect width="32" height="32" transform="translate(1065 38)" fill="rgba(233,239,245,0)"/><path d="M18581.053,17383a2.124,2.124,0,0,1-2.051-2.117v-15.158a2.041,2.041,0,0,1,2.051-2.023h3.477v.676a2.037,2.037,0,0,0,2.049,2.023h6.844a2.036,2.036,0,0,0,2.049-2.023v-.676h3.479a2.039,2.039,0,0,1,2.053,2.023v15.158a2.122,2.122,0,0,1-2.053,2.117Zm3.914-8.967a5.036,5.036,0,1,0,5.035-4.975A5,5,0,0,0,18584.967,17374.033Zm1.07,0a3.964,3.964,0,1,1,3.961,3.916A3.937,3.937,0,0,1,18586.037,17374.033Zm1.646-.264a.63.63,0,0,0,0,.9l1.063,1.053a.674.674,0,0,0,.465.186.646.646,0,0,0,.453-.186l2.129-2.1a.641.641,0,0,0,0-.906.659.659,0,0,0-.918,0l-1.664,1.643-.605-.59a.66.66,0,0,0-.922,0Zm-1.105-8.721a.677.677,0,0,1-.68-.672v-.676a1.357,1.357,0,0,1,1.365-1.352h1.285l.162-.449a1.373,1.373,0,0,1,2.578,0l.166.449h1.281a1.361,1.361,0,0,1,1.371,1.352v.676a.681.681,0,0,1-.686.672Z" transform="translate(-17509.002 -17318)" fill="#047aba"/><g transform="translate(1085 40)" fill="#eeae1a" stroke="#eef7fc" stroke-width="1"><circle cx="6" cy="6" r="6" stroke="none"/><circle cx="6" cy="6" r="5.5" fill="none"/></g></g></svg>