<svg xmlns="http://www.w3.org/2000/svg" xmlns:xlink="http://www.w3.org/1999/xlink" width="19.997" height="40.002" viewBox="0 0 19.997 40.002">
  <defs>
    <linearGradient id="linear-gradient" x1="0.5" x2="0.5" y2="1" gradientUnits="objectBoundingBox">
      <stop offset="0" stop-color="#d9952e"/>
      <stop offset="1" stop-color="#efc154"/>
    </linearGradient>
  </defs>
  <path id="temprature-icon" d="M-9534.424,21945.168a5.854,5.854,0,0,1,1.652-4.061v-25.941a4.156,4.156,0,0,1,4.138-4.166,4.157,4.157,0,0,1,4.143,4.166v25.941a5.854,5.854,0,0,1,1.652,4.061,5.821,5.821,0,0,1-5.795,5.834A5.821,5.821,0,0,1-9534.424,21945.168Zm4.964-16.666v14.318a2.5,2.5,0,0,0-1.653,2.348,2.494,2.494,0,0,0,2.479,2.5,2.5,2.5,0,0,0,2.484-2.5,2.5,2.5,0,0,0-1.652-2.348V21928.5a.833.833,0,0,0-.832-.838A.832.832,0,0,0-9529.46,21928.5Zm-12.566,7.432a.812.812,0,0,1-.81-.814.811.811,0,0,1,.81-.811h4.843a.806.806,0,0,1,.8.811.807.807,0,0,1-.8.814Zm3.229-3.25a.811.811,0,0,1-.81-.811.812.812,0,0,1,.81-.814h1.614a.807.807,0,0,1,.8.814.806.806,0,0,1-.8.811Zm0-3.25a.811.811,0,0,1-.81-.811.812.812,0,0,1,.81-.814h1.614a.807.807,0,0,1,.8.814.806.806,0,0,1-.8.811Zm-3.229-3.25a.812.812,0,0,1-.81-.816.81.81,0,0,1,.81-.809h4.843a.805.805,0,0,1,.8.809.807.807,0,0,1-.8.816Zm3.229-3.256a.811.811,0,0,1-.81-.811.812.812,0,0,1,.81-.814h1.614a.807.807,0,0,1,.8.814.806.806,0,0,1-.8.811Zm0-3.25a.808.808,0,0,1-.81-.811.808.808,0,0,1,.81-.811h1.614a.8.8,0,0,1,.8.811.8.8,0,0,1-.8.811Zm-3.229-3.252a.81.81,0,0,1-.81-.809.813.813,0,0,1,.81-.816h4.843a.808.808,0,0,1,.8.816.805.805,0,0,1-.8.809Z" transform="translate(9542.836 -21911)" fill="url(#linear-gradient)"/>
</svg>
