<svg xmlns="http://www.w3.org/2000/svg" width="25" height="24.999" viewBox="0 0 25 24.999">
  <path id="users-icon" d="M11306.213,9309v-4.464a4.467,4.467,0,0,0-4.462-4.464v-1.785a6.257,6.257,0,0,1,6.25,6.249V9309Zm-7.141,0v-4.464a4.469,4.469,0,0,0-4.464-4.464h-5.358a4.469,4.469,0,0,0-4.464,4.464V9309H11283v-4.464a6.253,6.253,0,0,1,6.249-6.249h5.358a6.257,6.257,0,0,1,6.249,6.249V9309Zm0-14.286a4.464,4.464,0,0,0,0-8.928V9284a6.25,6.25,0,0,1,0,12.5Zm-13.395-4.464a6.25,6.25,0,1,1,6.252,6.252A6.25,6.25,0,0,1,11285.678,9290.249Zm1.787,0a4.464,4.464,0,1,0,4.465-4.464A4.463,4.463,0,0,0,11287.465,9290.249Z" transform="translate(-11283.001 -9284)" fill="#b31a20" opacity="0.9"/>
</svg>
