<svg xmlns="http://www.w3.org/2000/svg" width="25" height="20" viewBox="0 0 25 20">
  <path id="users-management-icon" d="M13.858,13.759a5.873,5.873,0,0,0,1.934-4.376A5.788,5.788,0,0,0,10.1,3.5a5.788,5.788,0,0,0-5.69,5.882,5.873,5.873,0,0,0,1.934,4.377A9.434,9.434,0,0,0,1,22.324,1.158,1.158,0,0,0,2.138,23.5a1.158,1.158,0,0,0,1.138-1.176A6.946,6.946,0,0,1,10.1,15.265a6.946,6.946,0,0,1,6.827,7.059,1.139,1.139,0,1,0,2.276,0,9.434,9.434,0,0,0-5.348-8.565ZM10.1,12.912A3.473,3.473,0,0,1,6.69,9.382,3.473,3.473,0,0,1,10.1,5.853a3.473,3.473,0,0,1,3.414,3.529A3.473,3.473,0,0,1,10.1,12.912Zm11.083.376a6.038,6.038,0,0,0,.935-6.318A5.683,5.683,0,0,0,16.931,3.5a1.177,1.177,0,0,0,0,2.353,3.473,3.473,0,0,1,3.414,3.529,3.553,3.553,0,0,1-1.707,3.047,1.2,1.2,0,0,0-.057,2l.444.306.148.082a8.263,8.263,0,0,1,4.552,7.506,1.139,1.139,0,1,0,2.276,0A10.677,10.677,0,0,0,21.187,13.288Z" transform="translate(-1 -3.5)" fill="#0761ce" opacity="0.9"/>
</svg>
