<svg xmlns="http://www.w3.org/2000/svg" width="20.002" height="13" viewBox="0 0 20.002 13">
  <path id="view-icon" d="M10185.2,9384.536a.685.685,0,0,1,0-.794c.18-.248,4.436-6.1,9.873-6.1s9.694,5.854,9.873,6.1a.676.676,0,0,1,0,.794c-.179.249-4.436,6.1-9.873,6.1S10185.377,9384.785,10185.2,9384.536Zm1.375-.4c1.024,1.271,4.5,5.155,8.5,5.155s7.477-3.883,8.5-5.152c-1.029-1.273-4.5-5.156-8.5-5.156S10187.595,9382.869,10186.572,9384.14Zm4.544,0a3.956,3.956,0,1,1,3.954,4.036A4,4,0,0,1,10191.116,9384.14Zm1.316,0a2.638,2.638,0,1,0,2.638-2.689A2.669,2.669,0,0,0,10192.433,9384.14Z" transform="translate(-10185.07 -9377.64)" fill="gray"/>
</svg>
