<svg xmlns="http://www.w3.org/2000/svg" width="18.001" height="18" viewBox="0 0 18.001 18">
  <path id="withdraw-icon" d="M-11572.137,24071.953a9.009,9.009,0,0,1-7.59-6.678,7.815,7.815,0,0,1-.277-2.256,6.83,6.83,0,0,1,.18-1.9,9.284,9.284,0,0,1,2.414-4.473,9.1,9.1,0,0,1,5.59-2.629,13.376,13.376,0,0,1,2.115.055,9.056,9.056,0,0,1,5.068,2.553,9.03,9.03,0,0,1,2.555,5.117,7.617,7.617,0,0,1-.049,2.537.916.916,0,0,1-.539.461.651.651,0,0,1-.51.006.873.873,0,0,1-.537-.48c-.078-.17-.078-.205-.055-.871a7.021,7.021,0,0,0-.359-2.686,7.235,7.235,0,0,0-6.172-4.928,7.346,7.346,0,0,0-5.5,1.787,7.351,7.351,0,0,0-2.2,3.52,6.065,6.065,0,0,0-.244,1.9,6.457,6.457,0,0,0,.211,1.814,7.25,7.25,0,0,0,7.023,5.451,7.29,7.29,0,0,0,3.705-1.006,1.136,1.136,0,0,1,.76-.242.891.891,0,0,1,.676,1.273c-.109.211-.283.348-.816.635a9.237,9.237,0,0,1-3.215,1.043,8.359,8.359,0,0,1-1.049.043C-11571.424,24072-11571.91,24071.982-11572.137,24071.953Zm2.084-6.746-.959-.953-.961.953c-1.043,1.047-1.119,1.105-1.467,1.105a.894.894,0,0,1-.828-.576,1,1,0,0,1,.033-.7c.033-.066.49-.549,1.018-1.084l.957-.955-.957-.961a7.818,7.818,0,0,1-1.029-1.117.894.894,0,0,1,.512-1.186,1.094,1.094,0,0,1,.68.045,11.4,11.4,0,0,1,1.088,1.01l.955.959.965-.959a12.436,12.436,0,0,1,1.074-1.01.967.967,0,0,1,.693-.037.86.86,0,0,1,.57.881,1.215,1.215,0,0,1-.076.328,13.69,13.69,0,0,1-1.018,1.086l-.957.961.957.955c.523.535.984,1.018,1.018,1.084a.982.982,0,0,1,.031.7.89.89,0,0,1-.824.576C-11568.928,24066.313-11569.008,24066.254-11570.053,24065.207Z" transform="translate(11580.005 -24053.998)" fill="#727373"/>
</svg>
