<svg id="file-txt-icon" xmlns="http://www.w3.org/2000/svg" width="23" height="30" viewBox="0 0 23 30">
  <path id="Path_6180" data-name="Path 6180" d="M22.806,0H7.283C6.85,0,6.5.351,6.5,1.032V29.464A.806.806,0,0,0,7.283,30H28.717a.806.806,0,0,0,.783-.536V6.952c0-.373-.05-.493-.137-.581L23.139.138A.472.472,0,0,0,22.806,0Z" transform="translate(-6.5 0)" fill="#e9e9e0"/>
  <path id="Path_6181" data-name="Path 6181" d="M37.5.151V6.489h6.338Z" transform="translate(-20.919 -0.07)" fill="#d9d7ca"/>
  <path id="Path_6182" data-name="Path 6182" d="M28.717,48.093H7.283A.783.783,0,0,1,6.5,47.31V39h23v8.31A.783.783,0,0,1,28.717,48.093Z" transform="translate(-6.5 -18.093)" fill="#95a5a5"/>
  <g id="Group_3275" data-name="Group 3275" transform="translate(4.117 23.005)">
    <path id="Path_6183" data-name="Path 6183" d="M18.3,42.924v.6H16.691v4.79h-.885v-4.79H14.2v-.6Z" transform="translate(-14.197 -42.923)" fill="#fff"/>
    <path id="Path_6184" data-name="Path 6184" d="M26.18,45.695l1.368,2.618H26.531l-.856-2.033H25.6l-.921,2.033H23.665l1.368-2.618-1.455-2.772h1l.95,2.194H25.6l1.031-2.194h1Z" transform="translate(-18.56 -42.923)" fill="#fff"/>
    <path id="Path_6185" data-name="Path 6185" d="M36.962,42.924v.6H35.353v4.79h-.885v-4.79H32.859v-.6Z" transform="translate(-22.877 -42.923)" fill="#fff"/>
  </g>
  <path id="Path_6186" data-name="Path 6186" d="M15.244,12.07H12.035a.535.535,0,0,1,0-1.07h3.209a.535.535,0,1,1,0,1.07Z" transform="translate(-8.826 -5.107)" fill="#c8bdb8"/>
  <path id="Path_6187" data-name="Path 6187" d="M16.849,17.07H12.035a.535.535,0,0,1,0-1.07h4.814a.535.535,0,1,1,0,1.07Z" transform="translate(-8.826 -7.428)" fill="#c8bdb8"/>
  <path id="Path_6188" data-name="Path 6188" d="M25.035,17.076a.561.561,0,0,1-.38-.155.55.55,0,0,1-.155-.38.532.532,0,0,1,.16-.38.553.553,0,0,1,.754,0,.535.535,0,0,1-.38.915Z" transform="translate(-14.872 -7.434)" fill="#c8bdb8"/>
  <path id="Path_6189" data-name="Path 6189" d="M33.314,17.07H29.035a.535.535,0,1,1,0-1.07h4.279a.535.535,0,1,1,0,1.07Z" transform="translate(-16.733 -7.428)" fill="#c8bdb8"/>
  <path id="Path_6190" data-name="Path 6190" d="M12.035,32.076a.537.537,0,0,1-.38-.915.555.555,0,0,1,.76.005.54.54,0,0,1,.155.374.53.53,0,0,1-.535.535Z" transform="translate(-8.826 -14.398)" fill="#c8bdb8"/>
  <path id="Path_6191" data-name="Path 6191" d="M20.314,32.07H16.035a.535.535,0,1,1,0-1.07h4.279a.535.535,0,1,1,0,1.07Z" transform="translate(-10.686 -14.392)" fill="#c8bdb8"/>
  <path id="Path_6192" data-name="Path 6192" d="M42.1,17.07h-1.07a.535.535,0,0,1,0-1.07H42.1a.535.535,0,0,1,0,1.07Z" transform="translate(-22.314 -7.428)" fill="#c8bdb8"/>
  <path id="Path_6193" data-name="Path 6193" d="M23.8,22.07H12.035a.535.535,0,1,1,0-1.07H23.8a.535.535,0,0,1,0,1.07Z" transform="translate(-8.826 -9.749)" fill="#c8bdb8"/>
  <path id="Path_6194" data-name="Path 6194" d="M40.244,22.07H37.035a.535.535,0,0,1,0-1.07h3.209a.535.535,0,0,1,0,1.07Z" transform="translate(-20.453 -9.749)" fill="#c8bdb8"/>
  <path id="Path_6195" data-name="Path 6195" d="M14.174,27.07h-2.14a.535.535,0,1,1,0-1.07h2.14a.535.535,0,1,1,0,1.07Z" transform="translate(-8.826 -12.071)" fill="#c8bdb8"/>
  <path id="Path_6196" data-name="Path 6196" d="M25.384,27.07H20.035a.535.535,0,1,1,0-1.07h5.349a.535.535,0,0,1,0,1.07Z" transform="translate(-12.547 -12.071)" fill="#c8bdb8"/>
  <path id="Path_6197" data-name="Path 6197" d="M38.849,27.07H34.035a.535.535,0,1,1,0-1.07h4.814a.535.535,0,0,1,0,1.07Z" transform="translate(-19.058 -12.071)" fill="#c8bdb8"/>
</svg>
