<svg id="file-xls-icon" xmlns="http://www.w3.org/2000/svg" width="23" height="30" viewBox="0 0 23 30">
  <path id="Path_6198" data-name="Path 6198" d="M22.806,0H7.283C6.85,0,6.5.351,6.5,1.032V29.464A.806.806,0,0,0,7.283,30H28.717a.806.806,0,0,0,.783-.536V6.952c0-.373-.05-.493-.137-.581L23.139.138A.472.472,0,0,0,22.806,0Z" transform="translate(-6.5 0)" fill="#e9e9e0"/>
  <path id="Path_6199" data-name="Path 6199" d="M37.5.151V6.489h6.338Z" transform="translate(-20.919 -0.07)" fill="#d9d7ca"/>
  <path id="Path_6200" data-name="Path 6200" d="M28.717,48.093H7.283A.783.783,0,0,1,6.5,47.31V39h23v8.31A.783.783,0,0,1,28.717,48.093Z" transform="translate(-6.5 -18.093)" fill="#91cda0"/>
  <g id="Group_3276" data-name="Group 3276" transform="translate(4.82 22.918)">
    <path id="Path_6201" data-name="Path 6201" d="M18.115,45.695l1.368,2.618H18.467l-.856-2.033h-.073l-.922,2.033H15.6l1.368-2.618-1.455-2.772h1l.95,2.194h.073l1.031-2.194h1Z" transform="translate(-15.512 -42.836)" fill="#fff"/>
    <path id="Path_6202" data-name="Path 6202" d="M26.261,42.924v4.724H28.74v.665H25.369V42.924Z" transform="translate(-20.097 -42.836)" fill="#fff"/>
    <path id="Path_6203" data-name="Path 6203" d="M36.319,46.76a1.391,1.391,0,0,1-.121.567,1.491,1.491,0,0,1-.34.482,1.622,1.622,0,0,1-.541.333,2.017,2.017,0,0,1-.731.124c-.117,0-.237-.006-.362-.018a2.938,2.938,0,0,1-.377-.062,1.971,1.971,0,0,1-.362-.121,1.161,1.161,0,0,1-.3-.187l.154-.629a1.542,1.542,0,0,0,.259.113c.1.036.213.071.325.1a3.281,3.281,0,0,0,.336.077,1.861,1.861,0,0,0,.315.029,1,1,0,0,0,.684-.209.779.779,0,0,0,.237-.618.592.592,0,0,0-.168-.424,1.821,1.821,0,0,0-.42-.318q-.252-.143-.545-.285a3.3,3.3,0,0,1-.548-.336,1.755,1.755,0,0,1-.424-.457,1.2,1.2,0,0,1-.168-.658,1.469,1.469,0,0,1,.132-.636,1.423,1.423,0,0,1,.355-.472,1.57,1.57,0,0,1,.519-.3,1.9,1.9,0,0,1,.625-.1,3.835,3.835,0,0,1,.68.062,1.5,1.5,0,0,1,.556.2c-.029.063-.064.133-.1.209l-.11.212c-.034.066-.064.121-.088.165a.677.677,0,0,1-.044.073.883.883,0,0,1-.1-.058.757.757,0,0,0-.157-.073,1.122,1.122,0,0,0-.271-.051,2.557,2.557,0,0,0-.432.007.755.755,0,0,0-.278.084.962.962,0,0,0-.234.172.783.783,0,0,0-.161.231.589.589,0,0,0-.058.245.662.662,0,0,0,.168.472,1.63,1.63,0,0,0,.417.315q.249.136.541.263a2.952,2.952,0,0,1,.545.311,1.57,1.57,0,0,1,.42.457A1.32,1.32,0,0,1,36.319,46.76Z" transform="translate(-23.734 -42.76)" fill="#fff"/>
  </g>
  <path id="Path_6204" data-name="Path 6204" d="M17.919,14.14V12H11.5V23.767H29.151V14.14ZM12.57,13.07h4.279v1.07H12.57Zm0,2.14h4.279v1.07H12.57Zm0,2.14h4.279v1.07H12.57Zm0,2.14h4.279v1.07H12.57ZM16.849,22.7H12.57v-1.07h4.279Zm11.233,0H17.919v-1.07H28.081Zm0-2.14H17.919v-1.07H28.081Zm0-2.14H17.919v-1.07H28.081Zm-10.163-2.14v-1.07H28.081v1.07Z" transform="translate(-8.826 -5.565)" fill="#c8bdb8"/>
</svg>
