<svg id="file-png-icon" xmlns="http://www.w3.org/2000/svg" width="23" height="30" viewBox="0 0 23 30">
  <path id="Path_6163" data-name="Path 6163" d="M22.806,0H7.283C6.85,0,6.5.351,6.5,1.032V29.464A.806.806,0,0,0,7.283,30H28.717a.806.806,0,0,0,.783-.536V6.952c0-.373-.05-.493-.137-.581L23.139.138A.472.472,0,0,0,22.806,0Z" transform="translate(-6.5 0)" fill="#e9e9e0"/>
  <path id="Path_6164" data-name="Path 6164" d="M28.717,48.093H7.283A.783.783,0,0,1,6.5,47.31V39h23v8.31A.783.783,0,0,1,28.717,48.093Z" transform="translate(-6.5 -18.093)" fill="#659c35"/>
  <path id="Path_6165" data-name="Path 6165" d="M37.5.151V6.489h6.338Z" transform="translate(-20.919 -0.07)" fill="#d9d7ca"/>
  <g id="Group_3273" data-name="Group 3273" transform="translate(4.944 22.918)">
    <path id="Path_6166" data-name="Path 6166" d="M16.622,48.313h-.878V42.924h1.55a2.176,2.176,0,0,1,.68.11,1.849,1.849,0,0,1,.6.329,1.718,1.718,0,0,1,.432.53,1.469,1.469,0,0,1,.165.7,1.911,1.911,0,0,1-.139.742,1.552,1.552,0,0,1-.388.559,1.747,1.747,0,0,1-.6.351,2.307,2.307,0,0,1-.775.124h-.651v1.945Zm0-4.724v2.135h.8a.956.956,0,0,0,.318-.055.8.8,0,0,0,.289-.179.876.876,0,0,0,.212-.347,1.644,1.644,0,0,0,.08-.552,1.493,1.493,0,0,0-.036-.3.876.876,0,0,0-.15-.329.886.886,0,0,0-.318-.263,1.182,1.182,0,0,0-.541-.106h-.658Z" transform="translate(-15.744 -42.836)" fill="#fff"/>
    <path id="Path_6167" data-name="Path 6167" d="M27.927,42.924v5.389h-.892L24.921,44.6v3.715h-.892V42.924h.892l2.113,3.715V42.924Z" transform="translate(-19.597 -42.836)" fill="#fff"/>
    <path id="Path_6168" data-name="Path 6168" d="M37.663,45.458v2.084a1.574,1.574,0,0,1-.377.347,2.3,2.3,0,0,1-.914.348,3.26,3.26,0,0,1-.486.036A2.212,2.212,0,0,1,35,48.1a1.99,1.99,0,0,1-.709-.519,2.45,2.45,0,0,1-.476-.863,4.261,4.261,0,0,1,0-2.395,2.438,2.438,0,0,1,.476-.859A2.022,2.022,0,0,1,35,42.939a2.176,2.176,0,0,1,.885-.179,2.264,2.264,0,0,1,.819.146,2,2,0,0,1,.68.439l-.607.541a1.044,1.044,0,0,0-.4-.307,1.2,1.2,0,0,0-.468-.1,1.32,1.32,0,0,0-.516.1,1.1,1.1,0,0,0-.439.347,1.788,1.788,0,0,0-.3.633,3.732,3.732,0,0,0-.117.95,3.966,3.966,0,0,0,.113.95,1.951,1.951,0,0,0,.293.658,1.246,1.246,0,0,0,.424.38,1.065,1.065,0,0,0,.5.124c.053,0,.125,0,.216-.011a2.626,2.626,0,0,0,.271-.036,1.76,1.76,0,0,0,.259-.07.372.372,0,0,0,.183-.124V46.057h-.914v-.6h1.784Z" transform="translate(-24.068 -42.76)" fill="#fff"/>
  </g>
  <ellipse id="Ellipse_24" data-name="Ellipse 24" cx="2.444" cy="2.444" rx="2.444" ry="2.444" transform="translate(4.205 5.285)" fill="#f3d55b"/>
  <path id="Path_6169" data-name="Path 6169" d="M6.5,29.465h23V23.581L24.151,18.5l-5.616,6.151L15.6,21.718Z" transform="translate(-6.5 -8.58)" fill="#88c057"/>
</svg>
