<svg id="file-ppt-icon" xmlns="http://www.w3.org/2000/svg" width="23" height="30" viewBox="0 0 23 30">
  <path id="Path_6170" data-name="Path 6170" d="M22.806,0H7.283C6.85,0,6.5.351,6.5,1.032V29.464A.806.806,0,0,0,7.283,30H28.717a.806.806,0,0,0,.783-.536V6.952c0-.373-.05-.493-.137-.581L23.139.138A.472.472,0,0,0,22.806,0Z" transform="translate(-6.5 0)" fill="#e9e9e0"/>
  <path id="Path_6171" data-name="Path 6171" d="M37.5.151V6.489h6.338Z" transform="translate(-20.919 -0.07)" fill="#d9d7ca"/>
  <path id="Path_6172" data-name="Path 6172" d="M28.717,48.093H7.283A.783.783,0,0,1,6.5,47.31V39h23v8.31A.783.783,0,0,1,28.717,48.093Z" transform="translate(-6.5 -18.093)" fill="#f6712e"/>
  <g id="Group_3274" data-name="Group 3274" transform="translate(5.049 23.006)">
    <path id="Path_6173" data-name="Path 6173" d="M16.818,48.313H15.94V42.924h1.55a2.176,2.176,0,0,1,.68.11,1.849,1.849,0,0,1,.6.329,1.718,1.718,0,0,1,.432.53,1.469,1.469,0,0,1,.165.7,1.911,1.911,0,0,1-.139.742,1.552,1.552,0,0,1-.388.559,1.747,1.747,0,0,1-.6.351,2.307,2.307,0,0,1-.775.124h-.651v1.945Zm0-4.724v2.135h.8a.956.956,0,0,0,.318-.055.8.8,0,0,0,.289-.179.876.876,0,0,0,.212-.347,1.644,1.644,0,0,0,.08-.552,1.493,1.493,0,0,0-.036-.3.876.876,0,0,0-.15-.329.886.886,0,0,0-.318-.263,1.182,1.182,0,0,0-.541-.106h-.658Z" transform="translate(-15.94 -42.924)" fill="#fff"/>
    <path id="Path_6174" data-name="Path 6174" d="M25.09,48.313h-.878V42.924h1.55a2.176,2.176,0,0,1,.68.11,1.849,1.849,0,0,1,.6.329,1.718,1.718,0,0,1,.432.53,1.469,1.469,0,0,1,.165.7,1.911,1.911,0,0,1-.139.742,1.552,1.552,0,0,1-.388.559,1.747,1.747,0,0,1-.6.351,2.307,2.307,0,0,1-.775.124h-.651v1.945Zm0-4.724v2.135h.8a.956.956,0,0,0,.318-.055.8.8,0,0,0,.289-.179.876.876,0,0,0,.212-.347,1.644,1.644,0,0,0,.08-.552,1.493,1.493,0,0,0-.036-.3.876.876,0,0,0-.15-.329.886.886,0,0,0-.318-.263,1.182,1.182,0,0,0-.541-.106H25.09Z" transform="translate(-19.787 -42.924)" fill="#fff"/>
    <path id="Path_6175" data-name="Path 6175" d="M36.039,42.924v.6H34.43v4.79h-.885v-4.79H31.936v-.6Z" transform="translate(-23.38 -42.924)" fill="#fff"/>
  </g>
  <path id="Path_6176" data-name="Path 6176" d="M28.337,22.558H15.5V14H28.337ZM16.57,21.488h10.7V15.07H16.57Z" transform="translate(-10.686 -6.495)" fill="#c8bdb8"/>
  <path id="Path_6177" data-name="Path 6177" d="M20.034,31.744a.535.535,0,0,1-.458-.81l1.6-2.674a.535.535,0,0,1,.917.55l-1.6,2.674A.533.533,0,0,1,20.034,31.744Z" transform="translate(-12.546 -12.996)" fill="#c8bdb8"/>
  <path id="Path_6178" data-name="Path 6178" d="M32.64,31.745a.534.534,0,0,1-.459-.259l-1.6-2.674a.535.535,0,1,1,.917-.55l1.6,2.674a.534.534,0,0,1-.458.81Z" transform="translate(-17.663 -12.997)" fill="#c8bdb8"/>
  <path id="Path_6179" data-name="Path 6179" d="M27.035,13.674a.535.535,0,0,1-.535-.535v-1.6a.535.535,0,1,1,1.07,0v1.6A.535.535,0,0,1,27.035,13.674Z" transform="translate(-15.802 -5.106)" fill="#c8bdb8"/>
  <rect id="Rectangle_395" data-name="Rectangle 395" width="11" height="6" transform="translate(6 9.017)" fill="#d3ccc9"/>
</svg>
