<svg id="file-jpg-icon" xmlns="http://www.w3.org/2000/svg" width="23" height="30" viewBox="0 0 23 30">
  <path id="Path_6149" data-name="Path 6149" d="M22.806,0H7.283C6.85,0,6.5.351,6.5,1.032V29.464A.806.806,0,0,0,7.283,30H28.717a.806.806,0,0,0,.783-.536V6.952c0-.373-.05-.493-.137-.581L23.139.138A.472.472,0,0,0,22.806,0Z" transform="translate(-6.5 0)" fill="#e9e9e0"/>
  <path id="Path_6150" data-name="Path 6150" d="M37.5.151V6.489h6.338Z" transform="translate(-20.919 -0.07)" fill="#d9d7ca"/>
  <ellipse id="Ellipse_23" data-name="Ellipse 23" cx="2.444" cy="2.444" rx="2.444" ry="2.444" transform="translate(4.205 5.285)" fill="#f3d55b"/>
  <path id="Path_6151" data-name="Path 6151" d="M6.5,29.465h23V23.581L24.151,18.5l-5.616,6.151L15.6,21.718Z" transform="translate(-6.5 -8.58)" fill="#26b99a"/>
  <path id="Path_6152" data-name="Path 6152" d="M28.717,48.093H7.283A.783.783,0,0,1,6.5,47.31V39h23v8.31A.783.783,0,0,1,28.717,48.093Z" transform="translate(-6.5 -18.093)" fill="#14a085"/>
  <g id="Group_3271" data-name="Group 3271" transform="translate(4.686 22.859)">
    <path id="Path_6153" data-name="Path 6153" d="M18.558,42.65v4.2a1.342,1.342,0,0,1-.139.64,1.146,1.146,0,0,1-.373.417,1.486,1.486,0,0,1-.538.219,3.092,3.092,0,0,1-.625.063,2.536,2.536,0,0,1-.377-.033,3.2,3.2,0,0,1-.446-.1q-.23-.07-.442-.157a1.617,1.617,0,0,1-.358-.2l.373-.592a1.092,1.092,0,0,0,.209.106q.135.055.3.1c.107.032.219.059.336.084a1.6,1.6,0,0,0,.329.036,1.123,1.123,0,0,0,.618-.15.592.592,0,0,0,.245-.508V42.65Z" transform="translate(-15.26 -42.65)" fill="#fff"/>
    <path id="Path_6154" data-name="Path 6154" d="M24.751,48.245h-.878v-5.39h1.55a2.176,2.176,0,0,1,.68.11,1.849,1.849,0,0,1,.6.329,1.718,1.718,0,0,1,.432.53,1.469,1.469,0,0,1,.165.7,1.911,1.911,0,0,1-.139.742,1.552,1.552,0,0,1-.388.559,1.747,1.747,0,0,1-.6.351,2.307,2.307,0,0,1-.775.124H24.75v1.946Zm0-4.724v2.135h.8a.956.956,0,0,0,.318-.055.8.8,0,0,0,.289-.179.876.876,0,0,0,.212-.347,1.644,1.644,0,0,0,.08-.552,1.493,1.493,0,0,0-.036-.3.876.876,0,0,0-.15-.329.886.886,0,0,0-.318-.263,1.177,1.177,0,0,0-.541-.106Z" transform="translate(-19.266 -42.745)" fill="#fff"/>
    <path id="Path_6155" data-name="Path 6155" d="M36,45.39v2.084a1.574,1.574,0,0,1-.377.347,2.3,2.3,0,0,1-.439.223,2.262,2.262,0,0,1-.476.124,3.125,3.125,0,0,1-.486.037,2.212,2.212,0,0,1-.888-.175,1.99,1.99,0,0,1-.709-.519,2.45,2.45,0,0,1-.476-.863,4.261,4.261,0,0,1,0-2.395,2.438,2.438,0,0,1,.476-.859,2.022,2.022,0,0,1,.713-.523,2.176,2.176,0,0,1,.885-.179,2.264,2.264,0,0,1,.819.146,2,2,0,0,1,.68.439l-.607.541a1.044,1.044,0,0,0-.4-.307,1.2,1.2,0,0,0-.468-.1,1.32,1.32,0,0,0-.516.1,1.1,1.1,0,0,0-.439.347,1.788,1.788,0,0,0-.3.633,3.732,3.732,0,0,0-.117.95,3.966,3.966,0,0,0,.113.95,1.951,1.951,0,0,0,.293.658,1.246,1.246,0,0,0,.424.38,1.065,1.065,0,0,0,.5.124c.053,0,.125,0,.216-.011a2.626,2.626,0,0,0,.271-.036,1.76,1.76,0,0,0,.259-.07.372.372,0,0,0,.183-.124V45.989h-.914v-.6H36Z" transform="translate(-23.037 -42.67)" fill="#fff"/>
  </g>
</svg>
