<svg id="file-doc-icon" xmlns="http://www.w3.org/2000/svg" width="23" height="30" viewBox="0 0 23 30">
  <path id="Path_6131" data-name="Path 6131" d="M22.806,0H7.283C6.85,0,6.5.351,6.5,1.032V29.464A.806.806,0,0,0,7.283,30H28.717a.806.806,0,0,0,.783-.536V6.952c0-.373-.05-.493-.137-.581L23.139.138A.472.472,0,0,0,22.806,0Z" transform="translate(-6.5 0)" fill="#e9e9e0"/>
  <path id="Path_6132" data-name="Path 6132" d="M37.5.151V6.489h6.338Z" transform="translate(-20.919 -0.07)" fill="#d9d7ca"/>
  <path id="Path_6133" data-name="Path 6133" d="M15.244,12.07H12.035a.535.535,0,0,1,0-1.07h3.209a.535.535,0,1,1,0,1.07Z" transform="translate(-8.826 -5.107)" fill="#8697cb"/>
  <path id="Path_6134" data-name="Path 6134" d="M16.849,17.07H12.035a.535.535,0,0,1,0-1.07h4.814a.535.535,0,1,1,0,1.07Z" transform="translate(-8.826 -7.428)" fill="#8697cb"/>
  <path id="Path_6135" data-name="Path 6135" d="M25.035,17.076a.53.53,0,1,1,.38-.155A.562.562,0,0,1,25.035,17.076Z" transform="translate(-14.872 -7.434)" fill="#8697cb"/>
  <path id="Path_6136" data-name="Path 6136" d="M33.314,17.07H29.035a.535.535,0,1,1,0-1.07h4.279a.535.535,0,1,1,0,1.07Z" transform="translate(-16.733 -7.428)" fill="#8697cb"/>
  <path id="Path_6137" data-name="Path 6137" d="M12.035,32.076a.536.536,0,1,1,.38-.915.552.552,0,0,1,.155.38.53.53,0,0,1-.535.535Z" transform="translate(-8.826 -14.398)" fill="#8697cb"/>
  <path id="Path_6138" data-name="Path 6138" d="M20.314,32.07H16.035a.535.535,0,1,1,0-1.07h4.279a.535.535,0,1,1,0,1.07Z" transform="translate(-10.686 -14.392)" fill="#8697cb"/>
  <path id="Path_6139" data-name="Path 6139" d="M42.1,17.07h-1.07a.535.535,0,0,1,0-1.07H42.1a.535.535,0,0,1,0,1.07Z" transform="translate(-22.314 -7.428)" fill="#8697cb"/>
  <path id="Path_6140" data-name="Path 6140" d="M23.8,22.07H12.035a.535.535,0,1,1,0-1.07H23.8a.535.535,0,0,1,0,1.07Z" transform="translate(-8.826 -9.749)" fill="#8697cb"/>
  <path id="Path_6141" data-name="Path 6141" d="M40.244,22.07H37.035a.535.535,0,0,1,0-1.07h3.209a.535.535,0,0,1,0,1.07Z" transform="translate(-20.453 -9.749)" fill="#8697cb"/>
  <path id="Path_6142" data-name="Path 6142" d="M14.174,27.07h-2.14a.535.535,0,1,1,0-1.07h2.14a.535.535,0,1,1,0,1.07Z" transform="translate(-8.826 -12.071)" fill="#8697cb"/>
  <path id="Path_6143" data-name="Path 6143" d="M25.384,27.07H20.035a.535.535,0,1,1,0-1.07h5.349a.535.535,0,0,1,0,1.07Z" transform="translate(-12.547 -12.071)" fill="#8697cb"/>
  <path id="Path_6144" data-name="Path 6144" d="M38.849,27.07H34.035a.535.535,0,1,1,0-1.07h4.814a.535.535,0,0,1,0,1.07Z" transform="translate(-19.058 -12.071)" fill="#8697cb"/>
  <path id="Path_6145" data-name="Path 6145" d="M28.717,48.093H7.283A.783.783,0,0,1,6.5,47.31V39h23v8.31A.783.783,0,0,1,28.717,48.093Z" transform="translate(-6.5 -18.093)" fill="#0096e6"/>
  <g id="Group_3270" data-name="Group 3270" transform="translate(4.742 22.918)">
    <path id="Path_6146" data-name="Path 6146" d="M19.717,45.469a3.959,3.959,0,0,1-.143,1.137,2.827,2.827,0,0,1-.362.79,1.86,1.86,0,0,1-.494.5,2.476,2.476,0,0,1-.53.274,2.19,2.19,0,0,1-.468.117,3.12,3.12,0,0,1-.314.025h-2.04V42.924h1.623a3.084,3.084,0,0,1,1.2.216,2.482,2.482,0,0,1,.856.574,2.356,2.356,0,0,1,.508.815A2.7,2.7,0,0,1,19.717,45.469Zm-2.6,2.2A1.453,1.453,0,0,0,18.4,47.1a2.9,2.9,0,0,0,.395-1.653,2.8,2.8,0,0,0-.08-.665,1.423,1.423,0,0,0-.311-.6,1.64,1.64,0,0,0-.625-.432,2.692,2.692,0,0,0-1.024-.165h-.512V47.67h.87Z" transform="translate(-15.366 -42.836)" fill="#fff"/>
    <path id="Path_6147" data-name="Path 6147" d="M29.571,45.517a3.818,3.818,0,0,1-.172,1.2,2.446,2.446,0,0,1-.476.863,1.99,1.99,0,0,1-.709.519,2.337,2.337,0,0,1-1.777,0,1.99,1.99,0,0,1-.709-.519,2.45,2.45,0,0,1-.476-.863,4.261,4.261,0,0,1,0-2.395,2.438,2.438,0,0,1,.476-.859,2.033,2.033,0,0,1,.709-.523,2.292,2.292,0,0,1,1.777,0,2.033,2.033,0,0,1,.709.523,2.465,2.465,0,0,1,.476.859A3.8,3.8,0,0,1,29.571,45.517ZM27.3,47.557a1.288,1.288,0,0,0,.516-.106,1.153,1.153,0,0,0,.439-.347,1.757,1.757,0,0,0,.3-.633,3.8,3.8,0,0,0,.117-.954,3.73,3.73,0,0,0-.113-.932,1.872,1.872,0,0,0-.293-.633,1.127,1.127,0,0,0-.424-.358,1.178,1.178,0,0,0-.5-.11,1.32,1.32,0,0,0-.516.1,1.1,1.1,0,0,0-.439.347,1.788,1.788,0,0,0-.3.633,3.732,3.732,0,0,0-.117.95,3.779,3.779,0,0,0,.113.936,1.833,1.833,0,0,0,.293.633,1.173,1.173,0,0,0,.424.358A1.154,1.154,0,0,0,27.3,47.557Z" transform="translate(-19.885 -42.76)" fill="#fff"/>
    <path id="Path_6148" data-name="Path 6148" d="M39.352,47.689a2,2,0,0,1-.68.439,2.253,2.253,0,0,1-.819.146,2.212,2.212,0,0,1-.888-.175,1.99,1.99,0,0,1-.709-.519,2.45,2.45,0,0,1-.476-.863,4.261,4.261,0,0,1,0-2.395,2.438,2.438,0,0,1,.476-.859,2.022,2.022,0,0,1,.713-.523,2.176,2.176,0,0,1,.885-.179,2.264,2.264,0,0,1,.819.146,2,2,0,0,1,.68.439l-.607.541a1.109,1.109,0,0,0-.406-.307,1.176,1.176,0,0,0-.464-.1,1.32,1.32,0,0,0-.516.1,1.1,1.1,0,0,0-.439.347,1.788,1.788,0,0,0-.3.633,3.732,3.732,0,0,0-.117.95,3.779,3.779,0,0,0,.113.936,1.833,1.833,0,0,0,.293.633,1.173,1.173,0,0,0,.424.358,1.143,1.143,0,0,0,.5.113,1.285,1.285,0,0,0,.494-.1,1.159,1.159,0,0,0,.42-.307Z" transform="translate(-24.781 -42.76)" fill="#fff"/>
  </g>
</svg>
