<svg xmlns="http://www.w3.org/2000/svg" width="23" height="30" viewBox="0 0 23 30">
  <g id="file-zip-icon" transform="translate(-6.5)">
    <path id="Path_6580" data-name="Path 6580" d="M22.806,0H7.283C6.85,0,6.5.351,6.5,1.032V29.464A.806.806,0,0,0,7.283,30H28.717a.806.806,0,0,0,.783-.536V6.952c0-.373-.05-.493-.137-.581L23.139.138A.472.472,0,0,0,22.806,0Z" fill="#e9e9e0"/>
    <path id="Path_6581" data-name="Path 6581" d="M37.5.151V6.489h6.338Z" transform="translate(-14.419 -0.07)" fill="#d9d7ca"/>
    <path id="Path_6582" data-name="Path 6582" d="M28.717,48.093H7.283A.783.783,0,0,1,6.5,47.31V39h23v8.31A.783.783,0,0,1,28.717,48.093Z" transform="translate(0 -18.093)" fill="#556080"/>
    <g id="Group_7659" data-name="Group 7659" transform="translate(12.954 23.006)">
      <path id="Path_6583" data-name="Path 6583" d="M22.15,42.924v.709l-2.567,3.854-.146.117H22.15v.709H18.567V47.6l2.567-3.854.154-.117h-2.72v-.709Z" transform="translate(-18.567 -42.924)" fill="#fff"/>
      <path id="Path_6584" data-name="Path 6584" d="M28.5,48.313H27.6V42.924H28.5Z" transform="translate(-22.77 -42.924)" fill="#fff"/>
      <path id="Path_6585" data-name="Path 6585" d="M32.651,48.313h-.878V42.924h1.55a2.176,2.176,0,0,1,.68.11,1.849,1.849,0,0,1,.6.329,1.718,1.718,0,0,1,.432.53,1.469,1.469,0,0,1,.165.7,1.911,1.911,0,0,1-.139.742,1.552,1.552,0,0,1-.388.559,1.747,1.747,0,0,1-.6.351,2.307,2.307,0,0,1-.775.124H32.65v1.945Zm0-4.724v2.135h.8a.956.956,0,0,0,.318-.055.8.8,0,0,0,.289-.179.876.876,0,0,0,.212-.347,1.644,1.644,0,0,0,.08-.552,1.493,1.493,0,0,0-.036-.3.876.876,0,0,0-.15-.329.886.886,0,0,0-.318-.263,1.182,1.182,0,0,0-.541-.106h-.658Z" transform="translate(-24.709 -42.924)" fill="#fff"/>
    </g>
    <g id="Group_7660" data-name="Group 7660" transform="translate(15.058 3.209)">
      <path id="Path_6586" data-name="Path 6586" d="M25.709,15.628v-1.07h1.07v-1.07h-1.07v-1.07h1.07v-1.07h-1.07v-1.07h1.07V9.209h-1.07V8.14h1.07V7.07h-1.07V6H24.64V7.07H23.57V8.14h1.07v1.07H23.57v1.07h1.07v1.07H23.57v1.07h1.07v1.07H23.57v1.07h1.07v1.07H22.5V18.3a2.674,2.674,0,0,0,5.349,0V15.628Zm1.07,2.674a1.6,1.6,0,1,1-3.209,0V16.7h3.209Z" transform="translate(-22.5 -6)" fill="#c8bdb8"/>
      <path id="Path_6587" data-name="Path 6587" d="M26.035,29.07H27.1a.535.535,0,1,0,0-1.07h-1.07a.535.535,0,1,0,0,1.07Z" transform="translate(-23.895 -16.233)" fill="#c8bdb8"/>
    </g>
  </g>
</svg>
